<?xml version="1.0" encoding="UTF-8"?>
<svg id="Layer_2" xmlns="http://www.w3.org/2000/svg" xmlns:xlink="http://www.w3.org/1999/xlink" version="1.1" viewBox="0 0 1077.4 441.8">
  <!-- Generator: Adobe Illustrator 29.5.1, SVG Export Plug-In . SVG Version: 2.1.0 Build 141)  -->
  <defs>
    <style>
      .st0 {
        fill: none;
      }

      .st1 {
        fill: #ffbd00;
      }

      .st2 {
        fill: #f48e76;
      }

      .st3 {
        fill: #fbf6ff;
      }

      .st4 {
        fill: #f8ac13;
      }

      .st5 {
        fill: #f8efff;
      }

      .st6 {
        fill: #f2992b;
      }

      .st7 {
        fill: #faf3ff;
      }

      .st8 {
        fill: #f5a220;
      }

      .st9 {
        fill: #f5e6ff;
      }

      .st10 {
        fill: #f8ab15;
      }

      .st11 {
        fill: #fdfaff;
      }

      .st12 {
        fill: #fbb40a;
      }

      .st13 {
        fill: #f7aa16;
      }

      .st14 {
        fill: #f7edff;
      }

      .st15 {
        fill: #fab20c;
      }

      .st16 {
        fill: #f8f0ff;
      }

      .st17 {
        fill: #fcf9ff;
      }

      .st18 {
        fill: #efefef;
      }

      .st19 {
        fill: #fefcff;
      }

      .st20 {
        fill: #f49e25;
      }

      .st21 {
        fill: #cecece;
      }

      .st22 {
        fill: #f9f1ff;
      }

      .st23 {
        fill: #f6a41e;
      }

      .st24 {
        fill: #f9af0f;
      }

      .st25 {
        fill: #fab00e;
      }

      .st26 {
        fill: #f1972e;
      }

      .st27 {
        fill: #fbf7ff;
      }

      .st28 {
        fill: #f2992c;
      }

      .st29 {
        fill: #66f;
      }

      .st30 {
        fill: #fefeff;
      }

      .st31 {
        fill: #ef4e16;
      }

      .st32 {
        isolation: isolate;
      }

      .st33 {
        fill: #f29b29;
      }

      .st34 {
        fill: #f6e9ff;
      }

      .st35 {
        fill: #cf89ff;
      }

      .st36 {
        fill: #fcb608;
      }

      .st37 {
        clip-path: url(#clippath-1);
      }

      .st38 {
        clip-path: url(#clippath-3);
      }

      .st39 {
        clip-path: url(#clippath-4);
      }

      .st40 {
        clip-path: url(#clippath-2);
      }

      .st41 {
        clip-path: url(#clippath-5);
      }

      .st42 {
        fill: #fdfbff;
      }

      .st43 {
        fill: #f39e26;
      }

      .st44 {
        fill: #f4a122;
      }

      .st45 {
        fill: #f4a023;
      }

      .st46 {
        fill: #babaf4;
      }

      .st47 {
        fill: #fff;
      }

      .st48 {
        fill: #f9ae11;
      }

      .st49 {
        fill: #ff5b67;
      }

      .st50 {
        fill: #8f8fff;
      }

      .st51 {
        fill: #ffbc01;
      }

      .st52 {
        fill: #fcf8ff;
      }

      .st53 {
        fill: #f8eeff;
      }

      .st54 {
        fill: #fdb707;
      }

      .st55 {
        fill: #f49f24;
      }

      .st56 {
        fill: #f6a61a;
      }

      .st57 {
        fill: #fbb30b;
      }

      .st58 {
        fill: #f9af10;
      }

      .st59 {
        fill: #febb02;
      }

      .st60 {
        fill: #4949ba;
      }

      .st61 {
        fill: #a9b5c4;
      }

      .st62 {
        fill: #f7a719;
      }

      .st63 {
        fill: #fab10d;
      }

      .st64 {
        fill: #ffce31;
      }

      .st65 {
        fill: #fdb805;
      }

      .st66 {
        fill: #f39d27;
      }

      .st67 {
        fill: #f5a31f;
      }

      .st68 {
        fill: #95a1af;
      }

      .st69 {
        fill: #f6a51c;
      }

      .st70 {
        fill: #feba03;
      }

      .st71 {
        fill: #383838;
      }

      .st72 {
        fill: #f6e8ff;
      }

      .st73 {
        fill: #f7a917;
      }

      .st74 {
        fill: #f9c3a5;
      }

      .st75 {
        fill: #faf4ff;
      }

      .st76 {
        fill: #f9ad12;
      }

      .st77 {
        fill: #f5e7ff;
      }

      .st78 {
        fill: #f9f2ff;
      }

      .st79 {
        fill: #f5a221;
      }

      .st80 {
        fill: #b97ce8;
      }

      .st81 {
        fill: #f39c28;
      }

      .st82 {
        fill: #f8ab14;
      }

      .st83 {
        fill: #f29a2a;
      }

      .st84 {
        fill: #f7ebff;
      }

      .st85 {
        fill: #f7ecff;
      }

      .st86 {
        fill: #6262dd;
      }

      .st87 {
        clip-path: url(#clippath);
      }

      .st88 {
        fill: #f6a61b;
      }

      .st89 {
        fill: #fcb509;
      }

      .st90 {
        fill: #f7a818;
      }

      .st91 {
        fill: #f1982d;
      }

      .st92 {
        fill: #fdb904;
      }
    </style>
    <clipPath id="clippath">
      <path class="st0" d="M402,302.1h29.7v8.3c0,.9-.7,1.6-1.6,1.6h-26.4c-.9,0-1.6-.7-1.6-1.6v-8.3h0Z"/>
    </clipPath>
    <clipPath id="clippath-1">
      <polygon class="st0" points="307.5 276.8 410.3 276.8 437 285.3 335.2 285.3 307.5 276.8"/>
    </clipPath>
    <clipPath id="clippath-2">
      <path class="st0" d="M28.9,196.3h37.5c1.1,0,2,.9,2,2v27.8c0,1.1-.9,2-2,2H28.9c-1.1,0-2-.9-2-2v-27.8c0-1.1.9-2,2-2Z"/>
    </clipPath>
    <clipPath id="clippath-3">
      <polygon class="st0" points="239.1 317 161.3 405.8 148.8 398.2 163.7 309.5 226.6 309.5 239.1 317"/>
    </clipPath>
    <clipPath id="clippath-4">
      <polygon class="st0" points="302.2 347.6 211.9 413.4 199.4 405.8 199.4 340.1 289.7 340.1 302.2 347.6"/>
    </clipPath>
    <clipPath id="clippath-5">
      <path class="st0" d="M211.9,414c-.1,0-.2,0-.3,0l-12.5-7.6c-.2-.1-.3-.3-.3-.5v-65.8c0-.3.3-.6.6-.6h90.3c.1,0,.2,0,.3,0l12.5,7.6c.2.1.3.3.3.5,0,.2,0,.4-.2.5l-90.3,65.8c-.1,0-.2.1-.4.1h0ZM200,405.5l11.9,7.2,89.2-65-11.6-7h-89.5v64.8h0Z"/>
    </clipPath>
  </defs>
  <g id="Layer_1-2">
    <g>
      <polygon class="st31" points="947 224.3 942.7 214.3 950.9 221.2 952.4 214.1 954.5 220.9 959.4 213.3 958.2 221.8 968.5 218.8 959.8 225.6 969.2 229 959 229.8 965.2 236.9 957 233.1 955.5 243.1 952 234.3 946.1 241.4 948.6 232.7 941 235.2 946.1 229 938.2 226.6 947 224.3"/>
      <polygon class="st64" points="949.7 225.4 946.9 219.9 951.9 223.5 952.8 219.6 954.3 223.1 957.2 219.1 956.4 223.7 961.7 222.4 957.2 225.7 962.5 228 956.5 228.3 960.1 232.8 955.3 230.6 954.8 237.2 952.7 230.9 949.6 234.6 950.8 229.9 946.9 231.1 949.4 227.9 945.1 226.9 949.7 225.4"/>
      <polygon class="st47" points="951.8 226.1 950.6 223.8 952.7 225.3 953.1 223.7 953.7 225.2 955 223.4 954.6 225.4 956.8 224.8 954.9 226.3 957.2 227.2 954.6 227.4 956.2 229.3 954.2 228.3 953.9 231.1 953 228.4 951.7 230 952.2 228 950.6 228.6 951.7 227.2 949.8 226.8 951.8 226.1"/>
    </g>
    <g class="st32">
      <g class="st32">
        <path d="M619.1,80.5h7.9l15.7,40.9h-8.1l-3.2-8.4h-16.7l-3.3,8.4h-8.1l15.8-40.9ZM623.1,91.4l-5.5,14h10.9l-5.4-14Z"/>
        <path d="M663.8,91.2h7.6v3.1c1.7-1.4,3.3-2.5,4.7-3,1.4-.6,2.8-.8,4.3-.8,3,0,5.5,1,7.6,3.1,1.8,1.8,2.6,4.4,2.6,7.9v20h-7.5v-13.2c0-3.6-.2-6-.5-7.2-.3-1.2-.9-2.1-1.7-2.7-.8-.6-1.8-.9-3-.9s-2.8.5-3.9,1.5-1.9,2.4-2.3,4.3c-.2.9-.3,3-.3,6.1v12.1h-7.6v-30.2Z"/>
        <path d="M728.2,108.5h-24.4c.4,2.1,1.3,3.9,2.8,5.1,1.5,1.3,3.5,1.9,5.8,1.9s5.3-1,7.3-3l6.4,3c-1.6,2.3-3.5,3.9-5.7,5-2.2,1.1-4.9,1.6-7.9,1.6-4.7,0-8.6-1.5-11.6-4.5-3-3-4.5-6.7-4.5-11.2s1.5-8.4,4.5-11.5c3-3,6.7-4.6,11.2-4.6s8.6,1.5,11.6,4.6c3,3,4.5,7.1,4.5,12.1v1.4ZM720.6,102.5c-.5-1.7-1.5-3.1-3-4.1-1.5-1.1-3.2-1.6-5.1-1.6s-4,.6-5.6,1.8c-1,.7-1.9,2-2.8,3.9h16.4Z"/>
        <path d="M731,91.2h7.4l6.1,17.2,6.5-17.2h4.5l6.4,17,6.1-17h7.5l-11,30.2h-4.8l-6.4-17.2-6.6,17.2h-4.8l-10.9-30.2Z"/>
        <path d="M826,108.5h-24.4c.4,2.1,1.3,3.9,2.8,5.1,1.5,1.3,3.5,1.9,5.8,1.9s5.3-1,7.3-3l6.4,3c-1.6,2.3-3.5,3.9-5.7,5-2.2,1.1-4.9,1.6-7.9,1.6-4.7,0-8.6-1.5-11.6-4.5-3-3-4.5-6.7-4.5-11.2s1.5-8.4,4.5-11.5c3-3,6.7-4.6,11.2-4.6s8.6,1.5,11.6,4.6c3,3,4.5,7.1,4.5,12.1v1.4ZM818.4,102.5c-.5-1.7-1.5-3.1-3-4.1-1.5-1.1-3.2-1.6-5.1-1.6s-4,.6-5.6,1.8c-1,.7-1.9,2-2.8,3.9h16.4Z"/>
        <path d="M830.4,91.2h6.5v3.8c.7-1.5,1.6-2.6,2.8-3.4,1.2-.8,2.4-1.2,3.8-1.2s2,.3,3.1.8l-2.4,6.5c-.9-.4-1.6-.7-2.2-.7-1.2,0-2.2.7-3,2.2-.8,1.4-1.2,4.3-1.2,8.5v1.5s0,12.2,0,12.2h-7.5v-30.2Z"/>
        <path d="M872.7,91.2h7.6v30.2h-7.6v-3.2c-1.5,1.4-3,2.4-4.5,3s-3.1.9-4.8.9c-3.9,0-7.3-1.5-10.1-4.5-2.8-3-4.3-6.8-4.3-11.3s1.4-8.5,4.1-11.5c2.8-3,6.1-4.5,10-4.5s3.5.3,5.1,1c1.6.7,3.1,1.7,4.4,3.1v-3.3ZM864.7,97.4c-2.3,0-4.3.8-5.8,2.5-1.5,1.7-2.3,3.8-2.3,6.4s.8,4.8,2.4,6.4c1.6,1.7,3.5,2.5,5.8,2.5s4.4-.8,5.9-2.5,2.4-3.8,2.4-6.5-.8-4.8-2.4-6.4c-1.6-1.6-3.6-2.4-6-2.4Z"/>
        <path d="M918,90.4c2.9,0,5.5.7,8,2.1,2.5,1.4,4.5,3.4,5.9,5.8,1.4,2.4,2.1,5.1,2.1,7.9s-.7,5.5-2.1,8-3.3,4.4-5.8,5.8c-2.4,1.4-5.1,2.1-8.1,2.1-4.3,0-8-1.5-11.1-4.6s-4.6-6.8-4.6-11.2,1.7-8.7,5.2-11.8c3-2.7,6.5-4.1,10.5-4.1ZM918.1,97.5c-2.4,0-4.3.8-5.9,2.5s-2.4,3.7-2.4,6.3.8,4.8,2.3,6.4,3.5,2.4,5.9,2.4,4.3-.8,5.9-2.5c1.6-1.6,2.4-3.8,2.4-6.4s-.8-4.7-2.3-6.3-3.5-2.4-5.9-2.4Z"/>
        <path d="M936.6,91.2h2.7c0-4,0-6.3.2-7,.2-1.7.9-3,2.1-4,1.2-1,2.9-1.5,5.1-1.5s3.4.4,5.3,1.1v5.8c-1.1-.3-2-.5-2.7-.5s-1.5.2-1.9.6c-.3.3-.4.9-.4,1.7v3.8s4.8,0,4.8,0v6.4h-4.8v23.8h-7.6v-23.8h-2.7v-6.4Z"/>
      </g>
      <g class="st32">
        <path d="M644.2,149.7l-5.4,5.2c-3.7-3.9-7.9-5.9-12.5-5.9s-7.2,1.3-9.9,4c-2.7,2.7-4,6-4,9.9s.6,5.1,1.8,7.3c1.2,2.1,2.9,3.8,5,5,2.2,1.2,4.6,1.8,7.2,1.8s4.3-.4,6.2-1.3c1.9-.8,3.9-2.4,6.2-4.6l5.3,5.5c-3,2.9-5.9,5-8.6,6.1-2.7,1.1-5.7,1.7-9.2,1.7-6.4,0-11.5-2-15.6-6-4-4-6.1-9.2-6.1-15.5s.9-7.7,2.8-10.9,4.5-5.7,7.9-7.6c3.4-1.9,7.1-2.9,11.1-2.9s6.6.7,9.7,2.1c3.1,1.4,5.8,3.4,8.1,6.1Z"/>
        <path d="M664.4,152.4c2.9,0,5.5.7,8,2.1s4.5,3.4,5.9,5.8c1.4,2.4,2.1,5.1,2.1,7.9s-.7,5.5-2.1,8-3.3,4.4-5.8,5.8c-2.4,1.4-5.1,2.1-8.1,2.1-4.3,0-8-1.5-11.1-4.6s-4.6-6.8-4.6-11.2,1.7-8.7,5.2-11.8c3-2.7,6.5-4.1,10.5-4.1ZM664.5,159.5c-2.4,0-4.3.8-5.9,2.5s-2.4,3.7-2.4,6.3.8,4.8,2.3,6.4,3.5,2.4,5.9,2.4,4.3-.8,5.9-2.5c1.6-1.6,2.4-3.8,2.4-6.4s-.8-4.7-2.3-6.3c-1.5-1.6-3.5-2.4-5.9-2.4Z"/>
        <path d="M685.7,141.5h7.6v41.9h-7.6v-41.9Z"/>
        <path d="M699.4,141.5h7.6v41.9h-7.6v-41.9Z"/>
        <path d="M736.2,153.1h7.6v30.2h-7.6v-3.2c-1.5,1.4-3,2.4-4.5,3-1.5.6-3.1.9-4.8.9-3.9,0-7.3-1.5-10.1-4.5s-4.3-6.8-4.3-11.3,1.4-8.5,4.1-11.5,6.1-4.5,10-4.5,3.5.3,5.1,1c1.6.7,3.1,1.7,4.4,3.1v-3.3ZM728.2,159.4c-2.3,0-4.3.8-5.8,2.5-1.5,1.7-2.3,3.8-2.3,6.4s.8,4.8,2.4,6.4c1.6,1.7,3.5,2.5,5.8,2.5s4.4-.8,5.9-2.5,2.4-3.8,2.4-6.5-.8-4.8-2.4-6.4c-1.6-1.6-3.6-2.4-6-2.4Z"/>
        <path d="M758.9,141.5v15c1.4-1.4,2.9-2.4,4.4-3.1,1.6-.7,3.3-1,5.1-1,3.9,0,7.3,1.5,10.1,4.5,2.8,3,4.1,6.8,4.1,11.5s-1.4,8.3-4.3,11.3-6.2,4.5-10.1,4.5-3.4-.3-4.9-.9c-1.5-.6-3-1.6-4.5-3v3.2h-7.5v-41.9h7.5ZM766.9,159.4c-2.4,0-4.4.8-5.9,2.4-1.6,1.6-2.4,3.8-2.4,6.4s.8,4.9,2.4,6.5,3.6,2.5,5.9,2.5,4.3-.8,5.8-2.5c1.6-1.7,2.4-3.8,2.4-6.4s-.8-4.7-2.3-6.4c-1.6-1.7-3.5-2.5-5.9-2.5Z"/>
        <path d="M807.4,157.4l-4.7,4.7c-1.9-1.9-3.6-2.8-5.2-2.8s-1.5.2-2,.5c-.5.4-.7.8-.7,1.3s.2.8.5,1.1c.3.3,1.1.8,2.3,1.4l2.8,1.4c2.9,1.4,4.9,2.9,6,4.4,1.1,1.5,1.6,3.3,1.6,5.3s-1,4.9-3,6.7c-2,1.8-4.6,2.7-7.9,2.7s-7.9-1.7-10.6-5.2l4.7-5.1c.9,1,1.9,1.9,3.1,2.5,1.2.6,2.3,1,3.2,1s1.8-.2,2.4-.7.9-1,.9-1.7c0-1.2-1.1-2.3-3.3-3.4l-2.6-1.3c-4.9-2.5-7.3-5.5-7.3-9.2s.9-4.4,2.8-6.1c1.8-1.7,4.2-2.5,7.1-2.5s3.8.4,5.5,1.3c1.7.9,3.2,2.1,4.4,3.7Z"/>
        <path d="M817.6,175.7l5.4,2.7-6.9,11.7-3.8-1.8,5.2-12.6Z"/>
        <path d="M884.2,149.7l-5.4,5.2c-3.7-3.9-7.9-5.9-12.5-5.9s-7.2,1.3-9.9,4c-2.7,2.7-4,6-4,9.9s.6,5.1,1.8,7.3c1.2,2.1,2.9,3.8,5,5,2.2,1.2,4.6,1.8,7.2,1.8s4.3-.4,6.2-1.3c1.9-.8,3.9-2.4,6.2-4.6l5.3,5.5c-3,2.9-5.9,5-8.6,6.1-2.7,1.1-5.7,1.7-9.2,1.7-6.4,0-11.5-2-15.6-6-4-4-6.1-9.2-6.1-15.5s.9-7.7,2.8-10.9,4.5-5.7,7.9-7.6c3.4-1.9,7.1-2.9,11.1-2.9s6.6.7,9.7,2.1c3.1,1.4,5.8,3.4,8.1,6.1Z"/>
        <path d="M904.3,152.4c2.9,0,5.5.7,8,2.1s4.5,3.4,5.9,5.8c1.4,2.4,2.1,5.1,2.1,7.9s-.7,5.5-2.1,8-3.3,4.4-5.8,5.8c-2.4,1.4-5.1,2.1-8.1,2.1-4.3,0-8-1.5-11.1-4.6s-4.6-6.8-4.6-11.2,1.7-8.7,5.2-11.8c3-2.7,6.5-4.1,10.5-4.1ZM904.5,159.5c-2.4,0-4.3.8-5.9,2.5s-2.4,3.7-2.4,6.3.8,4.8,2.3,6.4,3.5,2.4,5.9,2.4,4.3-.8,5.9-2.5c1.6-1.6,2.4-3.8,2.4-6.4s-.8-4.7-2.3-6.3c-1.5-1.6-3.5-2.4-5.9-2.4Z"/>
        <path d="M926.6,153.1h7.6v3.1c1.7-1.4,3.3-2.5,4.7-3,1.4-.6,2.8-.8,4.3-.8,3,0,5.5,1,7.6,3.1,1.8,1.8,2.6,4.4,2.6,7.9v20h-7.5v-13.2c0-3.6-.2-6-.5-7.2-.3-1.2-.9-2.1-1.7-2.7-.8-.6-1.8-.9-3-.9s-2.8.5-3.9,1.5-1.9,2.4-2.3,4.3c-.2.9-.3,3-.3,6.1v12.1h-7.6v-30.2Z"/>
        <path d="M961.6,142h7.6v11.1h4.5v6.5h-4.5v23.7h-7.6v-23.7h-3.9v-6.5h3.9v-11.1Z"/>
        <path d="M1008,170.4h-24.4c.4,2.1,1.3,3.9,2.8,5.1,1.5,1.3,3.5,1.9,5.8,1.9s5.3-1,7.3-3l6.4,3c-1.6,2.3-3.5,3.9-5.7,5-2.2,1.1-4.9,1.6-7.9,1.6-4.7,0-8.6-1.5-11.6-4.5-3-3-4.5-6.7-4.5-11.2s1.5-8.4,4.5-11.5c3-3,6.7-4.6,11.2-4.6s8.6,1.5,11.6,4.6c3,3,4.5,7.1,4.5,12.1v1.4ZM1000.4,164.5c-.5-1.7-1.5-3.1-3-4.1-1.5-1.1-3.2-1.6-5.1-1.6s-4,.6-5.6,1.8c-1,.7-1.9,2-2.8,3.9h16.4Z"/>
        <path d="M1014.2,153.1h7.6v3.1c1.7-1.4,3.3-2.5,4.7-3,1.4-.6,2.8-.8,4.3-.8,3,0,5.5,1,7.6,3.1,1.8,1.8,2.6,4.4,2.6,7.9v20h-7.5v-13.2c0-3.6-.2-6-.5-7.2-.3-1.2-.9-2.1-1.7-2.7-.8-.6-1.8-.9-3-.9s-2.8.5-3.9,1.5c-1.1,1-1.9,2.4-2.3,4.3-.2.9-.3,3-.3,6.1v12.1h-7.6v-30.2Z"/>
        <path d="M1049.2,142h7.6v11.1h4.5v6.5h-4.5v23.7h-7.6v-23.7h-3.9v-6.5h3.9v-11.1Z"/>
        <path d="M1069,175.7l5.4,2.7-6.9,11.7-3.8-1.8,5.2-12.6Z"/>
      </g>
      <g class="st32">
        <path d="M628.1,215.1h7.6v30.2h-7.6v-3.2c-1.5,1.4-3,2.4-4.5,3-1.5.6-3.1.9-4.8.9-3.9,0-7.3-1.5-10.1-4.5-2.8-3-4.3-6.8-4.3-11.3s1.4-8.5,4.1-11.5c2.8-3,6.1-4.5,10-4.5s3.5.3,5.1,1c1.6.7,3.1,1.7,4.4,3.1v-3.3ZM620.1,221.3c-2.3,0-4.3.8-5.8,2.5-1.5,1.7-2.3,3.8-2.3,6.4s.8,4.8,2.4,6.4c1.6,1.7,3.5,2.5,5.8,2.5s4.4-.8,5.9-2.5c1.6-1.7,2.4-3.8,2.4-6.5s-.8-4.8-2.4-6.4-3.6-2.4-6-2.4Z"/>
        <path d="M643.4,215.1h7.6v3.1c1.7-1.4,3.3-2.5,4.7-3,1.4-.6,2.8-.8,4.3-.8,3,0,5.5,1,7.6,3.1,1.8,1.8,2.6,4.4,2.6,7.9v20h-7.5v-13.2c0-3.6-.2-6-.5-7.2-.3-1.2-.9-2.1-1.7-2.7-.8-.6-1.8-.9-3-.9s-2.8.5-3.9,1.5c-1.1,1-1.9,2.4-2.3,4.3-.2.9-.3,3-.3,6.1v12.1h-7.6v-30.2Z"/>
        <path d="M699.8,203.4h7.6v41.9h-7.6v-3.2c-1.5,1.4-3,2.4-4.5,3-1.5.6-3.1.9-4.8.9-3.9,0-7.3-1.5-10.1-4.5s-4.3-6.8-4.3-11.3,1.4-8.5,4.1-11.5,6.1-4.5,10-4.5,3.5.3,5.1,1c1.6.7,3.1,1.7,4.4,3.1v-15ZM691.8,221.3c-2.3,0-4.3.8-5.8,2.5-1.5,1.7-2.3,3.8-2.3,6.4s.8,4.8,2.4,6.4c1.6,1.7,3.5,2.5,5.8,2.5s4.4-.8,5.9-2.5c1.6-1.7,2.4-3.8,2.4-6.5s-.8-4.8-2.4-6.4-3.6-2.4-6-2.4Z"/>
        <path d="M769.3,211.6l-5.4,5.2c-3.7-3.9-7.9-5.9-12.5-5.9s-7.2,1.3-9.9,4-4,6-4,9.9.6,5.1,1.8,7.3c1.2,2.1,2.9,3.8,5,5,2.2,1.2,4.6,1.8,7.2,1.8s4.3-.4,6.2-1.3,3.9-2.4,6.2-4.6l5.3,5.5c-3,2.9-5.9,5-8.6,6.1-2.7,1.1-5.7,1.7-9.2,1.7-6.4,0-11.5-2-15.6-6-4-4-6.1-9.2-6.1-15.5s.9-7.7,2.8-10.9c1.8-3.2,4.5-5.7,7.9-7.6,3.4-1.9,7.1-2.9,11.1-2.9s6.6.7,9.7,2.1c3.1,1.4,5.8,3.4,8.1,6.1Z"/>
        <path d="M775.3,215.1h7.7v14.6c0,2.8.2,4.8.6,5.9.4,1.1,1,2,1.9,2.6s1.9.9,3.2.9,2.3-.3,3.2-.9,1.5-1.5,2-2.7c.3-.9.5-2.7.5-5.6v-14.8h7.6v12.8c0,5.3-.4,8.9-1.2,10.8-1,2.4-2.5,4.2-4.5,5.5s-4.5,1.9-7.6,1.9-6-.7-8-2.2c-2-1.5-3.5-3.5-4.3-6.2-.6-1.8-.9-5.2-.9-10v-12.6Z"/>
        <path d="M808.6,203.4h7.6v41.9h-7.6v-41.9Z"/>
        <path d="M824,204h7.6v11.1h4.5v6.5h-4.5v23.7h-7.6v-23.7h-3.9v-6.5h3.9v-11.1Z"/>
        <path d="M840.1,215.1h7.7v14.6c0,2.8.2,4.8.6,5.9.4,1.1,1,2,1.9,2.6s1.9.9,3.2.9,2.3-.3,3.2-.9c.9-.6,1.5-1.5,2-2.7.3-.9.5-2.7.5-5.6v-14.8h7.6v12.8c0,5.3-.4,8.9-1.2,10.8-1,2.4-2.5,4.2-4.5,5.5-2,1.3-4.5,1.9-7.6,1.9s-6-.7-8-2.2c-2-1.5-3.5-3.5-4.3-6.2-.6-1.8-.9-5.2-.9-10v-12.6Z"/>
        <path d="M872.5,215.1h6.5v3.8c.7-1.5,1.6-2.6,2.8-3.4,1.2-.8,2.4-1.2,3.8-1.2s2,.3,3.1.8l-2.4,6.5c-.9-.4-1.6-.7-2.2-.7-1.2,0-2.2.7-3,2.2-.8,1.4-1.2,4.3-1.2,8.5v1.5s0,12.2,0,12.2h-7.5v-30.2Z"/>
        <path d="M922.7,232.4h-24.4c.4,2.1,1.3,3.9,2.8,5.1s3.5,1.9,5.8,1.9,5.3-1,7.3-3l6.4,3c-1.6,2.3-3.5,3.9-5.7,5-2.2,1.1-4.9,1.6-7.9,1.6-4.7,0-8.6-1.5-11.6-4.5-3-3-4.5-6.7-4.5-11.2s1.5-8.4,4.5-11.5c3-3,6.7-4.6,11.2-4.6s8.6,1.5,11.6,4.6c3,3,4.5,7.1,4.5,12.1v1.4ZM915.2,226.4c-.5-1.7-1.5-3.1-3-4.1-1.5-1.1-3.2-1.6-5.1-1.6s-4,.6-5.6,1.8c-1,.7-1.9,2-2.8,3.9h16.4Z"/>
      </g>
    </g>
    <g class="st32">
      <g class="st32">
        <path d="M612.2,344.1c1.9,0,5.2.8,5.2,3v1.3h-1.8v-.8c0-1.2-2-1.7-3.3-1.7-2.8,0-4.9,2.1-4.9,5.2s2.2,5.4,5,5.4,4.3-1.9,4.3-1.9l1.1,1.4s-2,2.3-5.4,2.3-7-3.2-7-7.2,3-7,6.9-7Z"/>
        <path d="M622.2,346h-1.3v-1.7h6c2.4,0,4.1,1.5,4.1,4s-1.5,3.4-2.5,3.6h0s.4.2.6.7l1.7,3.3c.2.4.5.4,1,.4h.3v1.7h-1c-1.1,0-1.5-.1-1.9-1l-1.9-3.7c-.4-.6-.6-.7-1.4-.7h-1.8v5.5h-2v-12.1ZM626.7,350.9c1.5,0,2.4-1,2.4-2.5s-.9-2.4-2.3-2.4h-2.6v4.9h2.5Z"/>
        <path d="M636.2,346h-1.3v-1.7h8.1c.9,0,1.2.4,1.2,1.2v1.7h-1.8v-.9c0-.3-.2-.4-.4-.4h-3.9v4.3h4.8v1.7h-4.8v4c0,.3.2.4.4.4h4c.3,0,.4-.2.4-.4v-.9h1.8v1.7c0,.9-.4,1.2-1.2,1.2h-6.1c-.9,0-1.2-.4-1.2-1.2v-10.8Z"/>
      </g>
      <g class="st32">
        <path d="M647.5,356.4h.3c.4,0,.5,0,.6-.4l4.3-11.7h2l4.3,11.7c.1.4.3.4.6.4h.3v1.7h-1.1c-1,0-1.3-.2-1.6-1.1l-1-2.8h-5.1l-1,2.8c-.3.9-.6,1.1-1.6,1.1h-1.1v-1.7ZM655.8,352.5l-1.5-4.2c-.3-.7-.5-1.9-.5-1.9h0s-.3,1.2-.5,1.9l-1.5,4.2h4.1Z"/>
      </g>
      <g class="st32">
        <path d="M665.7,346h-2.8c-.3,0-.4.1-.4.4v.9h-1.7v-1.8c0-.9.3-1.2,1.2-1.2h9.5c.9,0,1.2.3,1.2,1.2v1.8h-1.7v-.9c0-.3-.2-.4-.4-.4h-2.8v12.1h-2v-12.1Z"/>
      </g>
      <g class="st32">
        <path d="M682.2,344.1c4,0,7.1,3.1,7.1,7s-3.1,7.2-7.1,7.2-7.1-3.2-7.1-7.2,3.1-7,7.1-7ZM682.2,356.5c2.8,0,5.1-2.3,5.1-5.4s-2.3-5.2-5.1-5.2-5,2.3-5,5.2,2.2,5.4,5,5.4Z"/>
        <path d="M693.9,346h-1.3v-1.7h6c2.4,0,4.1,1.5,4.1,4s-1.5,3.4-2.5,3.6h0s.4.2.6.7l1.7,3.3c.2.4.5.4,1,.4h.3v1.7h-1c-1.1,0-1.5-.1-1.9-1l-1.9-3.7c-.4-.6-.6-.7-1.4-.7h-1.8v5.5h-1.9v-12.1ZM698.3,350.9c1.5,0,2.4-1,2.4-2.5s-.9-2.4-2.3-2.4h-2.6v4.9h2.5Z"/>
        <path d="M707.7,354.9s1.4,1.7,3.5,1.7,2.4-.8,2.4-2c0-2.9-6.7-2.4-6.7-6.7s1.8-3.7,4.4-3.7,3.9.7,3.9,2.5v1.1h-1.8v-.6c0-.7-1-1.2-2.1-1.2s-2.4.8-2.4,1.9c0,2.8,6.6,2.2,6.6,6.7s-1.6,3.9-4.4,3.9-4.6-2-4.6-2l1.2-1.4Z"/>
      </g>
      <g class="st32">
        <path d="M725.6,356.4h.3c.4,0,.5,0,.6-.4l4.3-11.7h2l4.3,11.7c.1.4.3.4.6.4h.3v1.7h-1.1c-1,0-1.3-.2-1.6-1.1l-1-2.8h-5.1l-1,2.8c-.3.9-.6,1.1-1.6,1.1h-1.1v-1.7ZM733.9,352.5l-1.5-4.2c-.3-.7-.5-1.9-.5-1.9h0s-.3,1.2-.5,1.9l-1.5,4.2h4.1Z"/>
      </g>
      <g class="st32">
        <path d="M743.8,346h-2.8c-.3,0-.4.1-.4.4v.9h-1.7v-1.8c0-.9.3-1.2,1.2-1.2h9.5c.9,0,1.2.3,1.2,1.2v1.8h-1.7v-.9c0-.3-.2-.4-.4-.4h-2.8v12.1h-2v-12.1Z"/>
      </g>
      <g class="st32">
        <path d="M760.1,356.8l6.8-9.6c.5-.8,1-1.3,1-1.3h0s-.4,0-1,0h-4.4c-.3,0-.4.1-.4.4v.9h-1.8v-1.7c0-.9.4-1.2,1.2-1.2h8.8v1.3l-6.8,9.6c-.5.8-1,1.2-1,1.2h0s.4,0,1,0h4.9c.3,0,.4-.2.4-.4v-.9h1.8v1.7c0,.9-.4,1.2-1.2,1.2h-9.3v-1.3Z"/>
        <path d="M775.1,346h-1.3v-1.7h8.1c.9,0,1.2.4,1.2,1.2v1.7h-1.8v-.9c0-.3-.2-.4-.4-.4h-3.9v4.3h4.8v1.7h-4.8v4c0,.3.2.4.4.4h4c.3,0,.4-.2.4-.4v-.9h1.8v1.7c0,.9-.4,1.2-1.2,1.2h-6.1c-.9,0-1.2-.4-1.2-1.2v-10.8Z"/>
        <path d="M786.8,356.4h.8c.3,0,.4-.2.4-.4v-11.7h1.8l6.1,8.7c.5.7,1.2,1.9,1.2,1.9h0s-.1-1.1-.1-1.9v-7.5c0-.9.4-1.2,1.3-1.2h2v1.7h-.8c-.3,0-.4.1-.4.4v11.7h-1.8l-6.1-8.7c-.5-.7-1.1-1.9-1.1-1.9h0s.1,1.1.1,1.9v7.5c0,.9-.4,1.2-1.2,1.2h-2v-1.7Z"/>
      </g>
      <g class="st32">
        <path d="M810.5,344.1c1.9,0,5.2.8,5.2,3v1.3h-1.8v-.8c0-1.2-2-1.7-3.3-1.7-2.8,0-4.9,2.1-4.9,5.2s2.2,5.4,5,5.4,4.3-1.9,4.3-1.9l1.1,1.4s-2,2.3-5.4,2.3-7-3.2-7-7.2,3-7,6.9-7Z"/>
      </g>
      <g class="st32">
        <path d="M823.3,352.1l-3.5-5.6c-.3-.4-.4-.5-.8-.5h-.4v-1.7h.9c.9,0,1.3.1,1.9,1.1l2.1,3.5c.4.8.8,1.5.8,1.5h0s.4-.8.8-1.5l2.1-3.5c.5-.9.9-1.1,1.9-1.1h.9v1.7h-.4c-.4,0-.6,0-.9.5l-3.5,5.6v6h-2v-6Z"/>
      </g>
    </g>
    <path class="st1" d="M722.5,269.8c24.5,0,49,0,73.5,0,24.4,0,48.8,0,73.2,0,13.8,0,27.5,0,41.2,0v-5c-16.8,1.6-33.5,3.4-50.2,5.6-16.7,2.2-33.4,4.7-50.1,7.6-9.4,1.6-18.8,3.3-28.1,5.1-2.8.5-2.2,5.1.7,4.9,27.2-1.6,54.3-3.3,81.5-4.9,7.6-.5,15.2-.9,22.9-1.4,3.2-.2,3.2-5.2,0-5-27.2,1.6-54.3,3.3-81.5,4.9-7.6.5-15.2.9-22.9,1.4l.7,4.9c16.4-3.2,32.9-6.1,49.5-8.6s32.9-4.8,49.3-6.6c9.4-1.1,18.8-2,28.2-2.9,1.3-.1,2.5-1.1,2.5-2.5s-1.1-2.5-2.5-2.5c-24.5,0-49,0-73.5,0-24.4,0-48.8,0-73.2,0-13.8,0-27.5,0-41.2,0-3.2,0-3.2,5,0,5h0Z"/>
    <g>
      <g>
        <g>
          <rect class="st47" x="97.8" y=".8" width="286" height="379.8" rx="32.2" ry="32.2"/>
          <path class="st71" d="M350.3,381.4h-219.1c-19,0-34.5-12-34.5-26.7V26.7c0-14.7,15.5-26.7,34.5-26.7h219.1c19,0,34.5,12,34.5,26.7v327.9c0,14.7-15.5,26.7-34.5,26.7h0ZM131.2,1.6c-17.9,0-32.4,11.3-32.4,25.1v327.9c0,13.9,14.6,25.1,32.4,25.1h219.1c17.9,0,32.4-11.3,32.4-25.1V26.7c0-13.9-14.5-25.1-32.4-25.1h-219.1,0Z"/>
        </g>
        <path class="st71" d="M353.8,371.4H127.8c-9.5,0-17.2-5.6-17.2-12.5V22.5c0-6.9,7.7-12.5,17.2-12.5h226c9.5,0,17.2,5.6,17.2,12.5v336.4c0,6.9-7.7,12.5-17.2,12.5ZM127.8,11.6c-8.4,0-15.2,4.9-15.2,10.9v336.4c0,6,6.8,10.9,15.2,10.9h226c8.4,0,15.2-4.9,15.2-10.9V22.5c0-6-6.8-10.9-15.2-10.9H127.8Z"/>
      </g>
      <g>
        <g>
          <path class="st46" d="M146.3,151.5c-7.2-2.5-8.1-5.4-10.2-13.5-.8,6.5-1.1,8.9-3.5,12.3-.4.6-3.2,3.5-3.9,3.2,3.4,1.4,5.4,2,7.6,5.3,6.4,10,0,7.3,4.9-2.2,1.2-2.3,3.2-3.6,5.2-5.1h0Z"/>
          <path class="st46" d="M330.3,222.2c-6.6-3.9-6.8-6.9-7.3-15.3-2.1,6.2-2.9,8.5-5.9,11.4-.5.5-3.8,2.8-4.5,2.3,3.1,2.1,4.9,3.1,6.3,6.7,4.3,11.1-1.4,7.1,5.2-1.2,1.6-2,3.8-2.9,6.1-3.9h0Z"/>
          <path class="st46" d="M157.3,129.9c-5.3-2.9-5.6-5.2-6.1-11.8-1.5,4.9-2.1,6.8-4.4,9.1-.4.4-2.9,2.3-3.5,2,2.5,1.6,3.9,2.3,5.2,5.1,3.7,8.6-.9,5.6,4.1-1.1,1.2-1.6,2.9-2.4,4.7-3.3h0Z"/>
        </g>
        <g>
          <path class="st46" d="M88.9,202.4c-.3,1.3-1.6,2.1-2.8,1.8-1.3-.3-2.1-1.6-1.8-2.9s1.6-2.1,2.8-1.8c1.3.3,2.1,1.6,1.8,2.9Z"/>
          <path class="st46" d="M218.4,166.8c-.4,1.6-2,2.6-3.6,2.3-1.6-.4-2.6-2-2.3-3.6.4-1.6,2-2.6,3.6-2.3,1.6.4,2.6,2,2.3,3.6Z"/>
          <path class="st46" d="M282.5,132.1c-.3,1.4-1.7,2.3-3.1,2-1.4-.3-2.3-1.7-2-3.1.3-1.4,1.7-2.3,3.1-2s2.3,1.7,2,3.1Z"/>
          <path class="st46" d="M349.8,246.7c-.4,1.7-2,2.7-3.7,2.4s-2.7-2.1-2.4-3.7,2-2.7,3.7-2.4,2.7,2.1,2.4,3.7Z"/>
          <path class="st46" d="M137.1,69.8c-.4,1.8-2.2,2.9-3.9,2.5s-2.9-2.2-2.5-3.9,2.2-2.9,3.9-2.5,2.9,2.2,2.5,3.9Z"/>
        </g>
        <g>
          <path class="st46" d="M220.8,235.2c-3,9.9-5.5,19.9-7.5,30.1"/>
          <path class="st46" d="M242.2,235.6c.6,1.9,2,14.9,2.6,16.8"/>
          <path class="st46" d="M267.1,226.4c3.1,4.5,6.2,8.9,9.4,13.4"/>
          <path class="st46" d="M199.2,227.1c-8,8.1-15.2,17.1-21.4,26.7"/>
          <path class="st46" d="M168.4,264c-1.6,1.9-3.1,3.8-4.7,5.8"/>
          <path class="st46" d="M177,211.9c-9.1,6.9-18.2,13.6-27.5,20.2"/>
          <path class="st46" d="M166,189.6c-6.3,4.6-13.1,8.7-20.1,12"/>
          <path class="st46" d="M130.4,206.8c-4.9,1.9-9.5,4.7-13.6,8.1"/>
          <path class="st46" d="M99.2,145.5c15.2,3.4,30.5,6.8,45.7,10.2"/>
          <path class="st46" d="M121.8,179.9c7.1-.4,14.2-1.8,20.9-4.3"/>
          <path class="st46" d="M124.2,122.8c4.1.8,8,2.5,11.5,4.8"/>
          <path class="st46" d="M149.6,81.4c5.7,4.4,11.4,8.8,17,13.2"/>
          <path class="st46" d="M176.4,110.7c1.9,2,3.9,4.1,5.8,6.1"/>
          <path class="st46" d="M129.2,248.6c3.1-3,6.3-5.9,9.4-8.9"/>
        </g>
      </g>
      <ellipse class="st18" cx="249.3" cy="387.5" rx="224.4" ry="54.3"/>
      <g>
        <rect class="st86" x="335.2" y="285.4" width="101.8" height="77.1"/>
        <g class="st87">
          <rect class="st1" x="402" y="302.1" width="4.7" height="9.9"/>
          <rect class="st1" x="406.7" y="302.1" width=".7" height="9.9"/>
          <rect class="st51" x="407.4" y="302.1" width=".7" height="9.9"/>
          <rect class="st59" x="408.1" y="302.1" width=".7" height="9.9"/>
          <rect class="st70" x="408.8" y="302.1" width=".7" height="9.9"/>
          <rect class="st92" x="409.4" y="302.1" width=".7" height="9.9"/>
          <rect class="st65" x="410.1" y="302.1" width=".7" height="9.9"/>
          <rect class="st54" x="410.8" y="302.1" width=".7" height="9.9"/>
          <rect class="st36" x="411.5" y="302.1" width=".7" height="9.9"/>
          <rect class="st89" x="412.2" y="302.1" width=".7" height="9.9"/>
          <rect class="st12" x="412.9" y="302.1" width=".7" height="9.9"/>
          <rect class="st57" x="413.5" y="302.1" width=".7" height="9.9"/>
          <rect class="st15" x="414.2" y="302.1" width=".7" height="9.9"/>
          <rect class="st63" x="414.9" y="302.1" width=".7" height="9.9"/>
          <rect class="st63" x="415.6" y="302.1" width=".5" height="9.9"/>
          <rect class="st25" x="416.1" y="302.1" width=".5" height="9.9"/>
          <rect class="st24" x="416.6" y="302.1" width=".5" height="9.9"/>
          <rect class="st58" x="417.1" y="302.1" width=".5" height="9.9"/>
          <rect class="st48" x="417.5" y="302.1" width=".5" height="9.9"/>
          <rect class="st76" x="418" y="302.1" width=".5" height="9.9"/>
          <rect class="st4" x="418.5" y="302.1" width=".5" height="9.9"/>
          <rect class="st82" x="419" y="302.1" width=".5" height="9.9"/>
          <rect class="st10" x="419.5" y="302.1" width=".5" height="9.9"/>
          <rect class="st13" x="420" y="302.1" width=".5" height="9.9"/>
          <rect class="st73" x="420.5" y="302.1" width=".5" height="9.9"/>
          <rect class="st90" x="420.9" y="302.1" width=".5" height="9.9"/>
          <rect class="st62" x="421.4" y="302.1" width=".5" height="9.9"/>
          <rect class="st56" x="421.9" y="302.1" width=".5" height="9.9"/>
          <rect class="st88" x="422.4" y="302.1" width=".5" height="9.9"/>
          <rect class="st69" x="422.9" y="302.1" width=".5" height="9.9"/>
          <rect class="st23" x="423.4" y="302.1" width=".5" height="9.9"/>
          <rect class="st67" x="423.9" y="302.1" width=".5" height="9.9"/>
          <rect class="st8" x="424.3" y="302.1" width=".5" height="9.9"/>
          <rect class="st79" x="424.8" y="302.1" width=".5" height="9.9"/>
          <rect class="st44" x="425.3" y="302.1" width=".5" height="9.9"/>
          <rect class="st45" x="425.8" y="302.1" width=".5" height="9.9"/>
          <rect class="st55" x="426.3" y="302.1" width=".5" height="9.9"/>
          <rect class="st20" x="426.8" y="302.1" width=".5" height="9.9"/>
          <rect class="st43" x="427.3" y="302.1" width=".5" height="9.9"/>
          <rect class="st66" x="427.7" y="302.1" width=".5" height="9.9"/>
          <rect class="st81" x="428.2" y="302.1" width=".5" height="9.9"/>
          <rect class="st33" x="428.7" y="302.1" width=".5" height="9.9"/>
          <rect class="st83" x="429.2" y="302.1" width=".5" height="9.9"/>
          <rect class="st6" x="429.7" y="302.1" width=".5" height="9.9"/>
          <rect class="st28" x="430.2" y="302.1" width=".5" height="9.9"/>
          <rect class="st91" x="430.6" y="302.1" width=".5" height="9.9"/>
          <rect class="st26" x="431.1" y="302.1" width=".5" height="9.9"/>
          <path class="st26" d="M431.6,312v-9.9,9.9Z"/>
        </g>
        <g class="st37">
          <rect class="st1" x="307.5" y="276.8" width="20.7" height="8.6"/>
          <rect class="st1" x="328.2" y="276.8" width="3" height="8.6"/>
          <rect class="st51" x="331.2" y="276.8" width="3" height="8.6"/>
          <rect class="st59" x="334.2" y="276.8" width="3" height="8.6"/>
          <rect class="st70" x="337.1" y="276.8" width="3" height="8.6"/>
          <rect class="st92" x="340.1" y="276.8" width="3" height="8.6"/>
          <rect class="st65" x="343.1" y="276.8" width="3" height="8.6"/>
          <rect class="st54" x="346.1" y="276.8" width="3" height="8.6"/>
          <rect class="st36" x="349.1" y="276.8" width="3" height="8.6"/>
          <rect class="st89" x="352.1" y="276.8" width="3" height="8.6"/>
          <rect class="st12" x="355.1" y="276.8" width="3" height="8.6"/>
          <rect class="st57" x="358.1" y="276.8" width="3" height="8.6"/>
          <rect class="st15" x="361.1" y="276.8" width="3" height="8.6"/>
          <rect class="st63" x="364.1" y="276.8" width="3" height="8.6"/>
          <rect class="st63" x="367" y="276.8" width="2.1" height="8.6"/>
          <rect class="st25" x="369.2" y="276.8" width="2.1" height="8.6"/>
          <rect class="st24" x="371.3" y="276.8" width="2.1" height="8.6"/>
          <rect class="st58" x="373.4" y="276.8" width="2.1" height="8.6"/>
          <rect class="st48" x="375.5" y="276.8" width="2.1" height="8.6"/>
          <rect class="st76" x="377.6" y="276.8" width="2.1" height="8.6"/>
          <rect class="st4" x="379.8" y="276.8" width="2.1" height="8.6"/>
          <rect class="st82" x="381.9" y="276.8" width="2.1" height="8.6"/>
          <rect class="st10" x="384" y="276.8" width="2.1" height="8.6"/>
          <rect class="st13" x="386.1" y="276.8" width="2.1" height="8.6"/>
          <rect class="st73" x="388.2" y="276.8" width="2.1" height="8.6"/>
          <rect class="st90" x="390.4" y="276.8" width="2.1" height="8.6"/>
          <rect class="st62" x="392.5" y="276.8" width="2.1" height="8.6"/>
          <rect class="st56" x="394.6" y="276.8" width="2.1" height="8.6"/>
          <rect class="st88" x="396.7" y="276.8" width="2.1" height="8.6"/>
          <rect class="st69" x="398.8" y="276.8" width="2.1" height="8.6"/>
          <rect class="st23" x="401" y="276.8" width="2.1" height="8.6"/>
          <rect class="st67" x="403.1" y="276.8" width="2.1" height="8.6"/>
          <rect class="st8" x="405.2" y="276.8" width="2.1" height="8.6"/>
          <rect class="st79" x="407.3" y="276.8" width="2.1" height="8.6"/>
          <rect class="st44" x="409.4" y="276.8" width="2.1" height="8.6"/>
          <rect class="st45" x="411.6" y="276.8" width="2.1" height="8.6"/>
          <rect class="st55" x="413.7" y="276.8" width="2.1" height="8.6"/>
          <rect class="st20" x="415.8" y="276.8" width="2.1" height="8.6"/>
          <rect class="st43" x="417.9" y="276.8" width="2.1" height="8.6"/>
          <rect class="st66" x="420" y="276.8" width="2.1" height="8.6"/>
          <rect class="st81" x="422.2" y="276.8" width="2.1" height="8.6"/>
          <rect class="st33" x="424.3" y="276.8" width="2.1" height="8.6"/>
          <rect class="st83" x="426.4" y="276.8" width="2.1" height="8.6"/>
          <rect class="st6" x="428.5" y="276.8" width="2.1" height="8.6"/>
          <rect class="st28" x="430.6" y="276.8" width="2.1" height="8.6"/>
          <rect class="st91" x="432.8" y="276.8" width="2.1" height="8.6"/>
          <rect class="st26" x="434.9" y="276.8" width="2.1" height="8.6"/>
          <path class="st26" d="M437,285.3v-8.6,8.6Z"/>
        </g>
        <polygon class="st50" points="335.2 285.4 335.2 362.4 307.4 352.9 307.4 276.8 335.2 285.4"/>
        <polygon class="st86" points="335.2 285.3 323.5 302.1 291 289.2 307.5 276.8 335.2 285.3"/>
        <polygon class="st86" points="335.2 285.3 335.2 287.6 324.5 303.7 291 290.7 291 289.2 323.5 302.1 335.2 285.3"/>
        <polygon class="st60" points="335.2 285.3 353.4 302.1 455.5 302.1 437 285.3 335.2 285.3"/>
        <polygon class="st60" points="335.2 285.3 335.2 287.6 352.6 304.7 455.5 304.7 455.5 302.1 353.4 302.1 335.2 285.3"/>
      </g>
      <g>
        <path class="st61" d="M312.3,310c.2,2.2-7.6,2.4-12.5,9.6-5,7.2-8.8,12.9-8.8,12.9l-1.9.6-53.3,16.9-36.7-9.7s-63.4-6.5-65.2-7.2c-1.1-.5-.9-4.2-1.6-9.7-.5-3.8-1.5-8.5-3.6-13.5-5.2-12-14.2-18.5-14.2-18.5,0,0,.1-2.3,3.9-2.3s17.1,2.4,28.7,6.5c9.7,3.5,29.5,6,37,6.2,1.4,0,2.4,0,2.7-.1,2.2-.8,4.6-9.7,4.6-9.7l54.7,3.3,15.2.9-1.3,4.5s52.2,7,52.4,9.1h0Z"/>
        <path class="st68" d="M293.3,328.5l-4.1,4.6-53.3,16.9-36.7-9.7s-63.4-6.5-65.2-7.2c-1.1-.5-.9-4.2-1.6-9.7,10.2,1.6,23.1,2.7,31.4-.2,8.5-3,15.6-12.9,20.2-21.3,1.4,0,2.4,0,2.7-.1,2.2-.8,4.6-9.7,4.6-9.7l54.7,3.3c.5,3.9-.2,8.9-2.4,15.1,0,0-9.3,24.3,0,25.9s49.6-8,49.6-8h0Z"/>
        <path class="st71" d="M191.4,125.8s16.5-19.1,39.8-7.4,15.5,36.4,16.7,42.8c1.2,6.4,10,10.9,9.2,17.5-.8,6.6-4,8.8,3.9,15.7,7.9,7-60.8,21.1-69.6,13.4-8.8-7.8-10.2-19.4-5.6-24.6s2.1-12.2-.7-17.4c-2.9-5.2-8.4-37.2,6.3-40h0Z"/>
        <path class="st74" d="M197.2,194.7s12.9-4.1,13.5-5.1c.7-.9,0-7.7,0-7.7,0,0-9.1-1.1-11.6-5.4s-7.3-14.5-6.9-31.2,6.4-21.9,13.7-14.6c7.3,7.3,11.3,19.9,15.3,20.3,4,.4,6.8-1.3,8.1,3.2,1.3,4.5-2.9,7.4-2.9,9s3.3,19.9,8.2,23.5c4.9,3.6,17.9,3.3,21,6s-10.1,20.2-42.9,22.1c-32.9,1.8-34.1-13.1-15.3-20.1h0Z"/>
        <path class="st35" d="M283.7,214.3l-.6.5c-.5.4-.9.8-1.5,1.3-1.1,1-2.5,2.1-4,3.6-4.8,4.3-8.8,8.6-11,11-1.3,1.4-2,2.2-2,2.2h0c.1.9,1.3,10.8,0,18.2-1.3,7.7-3.2,17.9-2.5,26.5.2,2.8.3,5.5.3,8,0,5.4-.5,9.7-1.1,10.7-.4.7-3,1.5-7.5,2-1.3.2-2.7.3-4.3.4-4.1.3-9.1.5-14.8.5-15.8,0-40.8-3.6-44-4.9-3.2-1.3-2.5-1.7-2.9-5.6,0-.9-.4-2.8-.8-5.5l-.5-3.3-.4-2.6c-1.1-7.3-2.5-16.3-3.3-22.1v-.6c-.3-1.2-.4-2.3-.5-3.1-.9-7.8,2.8-15.1,2.8-15.1,0,0-1.1-1.5-3.6-7.1-2.5-5.6-9.1-16.1-10.1-19.1-1.1-2.9-1.7-5.6,10.2-11,11.9-5.4,15.8-4.6,15.8-4.6,0,0-4.8,1.9-5.2,4.2s8.9,8.4,33.3,7.2c24.4-1.2,30.1-13.4,30.1-13.4,0,0,1.1.3,10.1,3.3,9,3.1,19.5,12.1,20.4,14.1.6,1.3,0,2-2.4,4.2h0Z"/>
        <polygon class="st80" points="185 236.6 187.7 222.3 182.6 231.4 185 236.6"/>
        <polygon class="st80" points="264.5 233 264.5 223.7 267.7 229.4 264.5 233"/>
        <path class="st80" d="M264.5,251.2c-1.3,7.7-3.2,17.9-2.5,26.5.6,8.6,0,17.3-.8,18.7-.4.7-3,1.5-7.5,2,1-10.5,1.5-16.4-6.8-16.9-9.6-.5-55.5-7.7-57.3-7.2-1.9.5-2.6,9-2.6,9l-.5-3.3-.4-2.6-3.3-22.1v-.6c0,0,40,9,41.1,9s35.9-7.2,36.9-9.3c1.1-2.1,3.9-21.5,3.9-21.5h0c.1.9,1.3,10.8,0,18.2h0Z"/>
        <path class="st74" d="M286.2,286.7c-13.5,8.4-32.3,19.1-36.6,22.3-4.2,3.2-6,11.1-8.5,12.5-2.5,1.3-10.5,2.8-11.7,2.3-1.2-.5,3.6-8.4,4.2-11,.6-2.6-.8-.9-3.7-.3-2.9.6-4.4.2-1.6-2.8,2.8-3.1,11.2-3.9,14.4-4.9,2.2-.8,4.1-3,6.5-6,1-1.2,2.1-2.6,3.4-4,1.6-1.8,5.4-5.3,9.6-9.1,7-6.4,14.9-13.5,15.1-15,.2-1.6-4.6-18.4-8-30.1-1.3-4.4-2.4-8-2.9-9.8,2.3-2.5,6.3-6.7,11-11,1.6-1.4,2.9-2.6,4-3.6.6-.5,1-.9,1.5-1.3l.6-.5s.4,1.4.9,3.6c3,11.8,12.4,48.4,12.6,51.9.2,4.2,2.6,8.6-11,16.9h0Z"/>
        <path class="st47" d="M283.1,214.8c-.5.4-.9.8-1.5,1.3l1.5-1.3Z"/>
        <path class="st74" d="M199.1,326.1l-3.6,1.5-9.6-3.1s.5-1.9.1-2c-.4-.1-11-12.2-18.9-20.1-8-8-17.3-20.3-18.3-26.5-.9-5.4,16.9-49.9,21.6-61.7.7-1.8,1.2-2.9,1.2-2.9l12.3,22.9s-2.2,5.2-5,11.9c-4.7,11.4-11.1,26.9-11.5,28.3-.6,2.3,4.5,8.7,9,14.8,4.5,6.1,17.2,25.9,18.9,28.7,1.7,2.8,3.8,8.1,3.8,8.1h0Z"/>
        <path class="st2" d="M210.8,182s5.6-1.8,8.8-5.8l3.2-4s-10.6,23.7-10.8,21.9-1.2-12.1-1.2-12.1h0Z"/>
        <path class="st74" d="M312.3,310s15.9,2,21.5,10.9c5.6,8.9,5.4,18.6-4.1,26.1s-39.7,17.6-55,19.4-32.1,5.4-32.1,5.4l-6.8-21.7,55.2-17.5s7.6-17.8,21.3-22.5h0Z"/>
        <polygon class="st2" points="291 332.5 312.3 323.3 295.4 324.6 291 332.5"/>
        <path class="st74" d="M114.5,291.5s-23.4-4.4-30.4,10.4,8,29.3,21.3,36.2c13.3,7,55.6,22.9,57.6,23.5s15.5-18.4,12.3-21.2c-3.2-2.9-43.5-20.2-43.5-20.2,0,0-1-14.3-17.3-28.7h0Z"/>
        <path class="st2" d="M131.8,320.2s-25-13.1-22.2-12.4,17.3,7.3,17.9,6.2c.6-1.2-6.9-17-6.9-17,0,0,8.1,8.1,11.2,23.2Z"/>
      </g>
      <g>
        <path class="st46" d="M83.3,192s10.2-10,20,0,6.7,29.4-1.2,36.7-18,1.9-20.5-4.7c-2.5-6.7-7.3-29,1.7-32h0Z"/>
        <path class="st46" d="M77.2,196s7.3-7.6,14.3,0c7,7.6,4.8,22.5-.8,28.1s-12.9,1.5-14.6-3.6c-1.8-5.1-5.2-22.2,1.2-24.5Z"/>
        <rect class="st46" x="11.7" y="189.4" width="71.9" height="46.1" rx="4.2" ry="4.2"/>
        <path class="st46" d="M38,298.3l-4.5,14.8L.2,422.8c-.5,1.6.3,3.4,1.8,4.1.5.3,1,.4,1.6.4,1.5,0,2.9-.9,3.3-2.5l28.6-93.3,8.4-27.2s0-15.4-5.9-6h0Z"/>
        <path class="st46" d="M87.5,422.8l-33.1-109-4.7-15.5c-5.9-9.4-5.8,6-5.8,6l8.4,27.5,28.5,93c.5,1.5,1.9,2.5,3.3,2.5s1.1-.1,1.6-.4c1.5-.8,2.3-2.5,1.8-4.1h0Z"/>
        <path class="st46" d="M43.8,304.3l-8.4,27.2-2-18.4,4.5-14.8c5.9-9.4,5.9,6,5.9,6h0Z"/>
        <path class="st46" d="M54.4,313.8l-2.1,18-8.4-27.5s0-15.4,5.8-6l4.7,15.5h0Z"/>
        <rect class="st46" x="4" y="189.4" width="71.9" height="46.1" rx="4.2" ry="4.2"/>
        <path class="st46" d="M21.9,203.5c0,3.4-2.8,6.2-6.2,6.2s-6.2-2.8-6.2-6.2,2.8-6.2,6.2-6.2,6.2,2.8,6.2,6.2Z"/>
        <path class="st46" d="M21.9,220.6c0,3.4-2.8,6.2-6.2,6.2s-6.2-2.8-6.2-6.2,2.8-6.2,6.2-6.2,6.2,2.8,6.2,6.2Z"/>
        <g class="st40">
          <path class="st9" d="M26.9,196.3v31.9-31.9Z"/>
          <rect class="st9" x="26.9" y="196.3" width="1" height="31.9"/>
          <rect class="st77" x="27.9" y="196.3" width="1" height="31.9"/>
          <rect class="st72" x="28.8" y="196.3" width="1" height="31.9"/>
          <rect class="st34" x="29.8" y="196.3" width="1" height="31.9"/>
          <rect class="st84" x="30.8" y="196.3" width="1" height="31.9"/>
          <rect class="st85" x="31.7" y="196.3" width="1" height="31.9"/>
          <rect class="st14" x="32.7" y="196.3" width="1" height="31.9"/>
          <rect class="st53" x="33.7" y="196.3" width="1" height="31.9"/>
          <rect class="st5" x="34.7" y="196.3" width="1" height="31.9"/>
          <rect class="st5" x="35.6" y="196.3" width="1.4" height="31.9"/>
          <rect class="st16" x="37" y="196.3" width="1.4" height="31.9"/>
          <rect class="st22" x="38.3" y="196.3" width="1.4" height="31.9"/>
          <rect class="st78" x="39.7" y="196.3" width="1.4" height="31.9"/>
          <rect class="st7" x="41" y="196.3" width="1.4" height="31.9"/>
          <rect class="st75" x="42.4" y="196.3" width="1.4" height="31.9"/>
          <rect class="st3" x="43.7" y="196.3" width="1.4" height="31.9"/>
          <rect class="st27" x="45.1" y="196.3" width="1.4" height="31.9"/>
          <rect class="st52" x="46.4" y="196.3" width="1.4" height="31.9"/>
          <rect class="st17" x="47.8" y="196.3" width="1.4" height="31.9"/>
          <rect class="st11" x="49.1" y="196.3" width="1.4" height="31.9"/>
          <rect class="st42" x="50.5" y="196.3" width="1.4" height="31.9"/>
          <rect class="st42" x="51.8" y="196.3" width="4.2" height="31.9"/>
          <rect class="st19" x="56" y="196.3" width="4.2" height="31.9"/>
          <rect class="st30" x="60.1" y="196.3" width="4.2" height="31.9"/>
          <rect class="st47" x="64.3" y="196.3" width="4.2" height="31.9"/>
          <path class="st47" d="M68.4,228.2v-31.9,31.9Z"/>
        </g>
        <path class="st46" d="M59.9,182.2c-.5-.7-1.3-1.1-2.2-1.1h-25.9c-.8,0-1.6.4-2.1,1l-5.9,7.3h41.5l-5.3-7.2h0Z"/>
        <path class="st46" d="M45.7,185.7c0,1.1-.9,1.9-1.9,1.9s-1.9-.9-1.9-1.9.9-1.9,1.9-1.9,1.9.9,1.9,1.9Z"/>
        <path class="st46" d="M21.9,235.6v3.5c0,.9.7,1.5,1.5,1.5h39.5c.8,0,1.5-.7,1.5-1.5v-3.5H21.9Z"/>
        <path class="st46" d="M33.8,240.6v5.4c0,1.5,1.2,2.8,2.8,2.8h14.4c1.5,0,2.8-1.2,2.8-2.8v-5.4h-20Z"/>
        <path class="st46" d="M40,248.8v186.3c0,2.1,1.7,3.9,3.8,3.9s3.8-1.7,3.8-3.9v-186.3h-7.7Z"/>
        <rect class="st46" x="40" y="273.2" width="7.7" height="33"/>
        <path class="st46" d="M39.4,281.6h8.8c1.1,0,2,.9,2,2v13.4c0,1.1-.9,2-2,2h-8.8c-1.1,0-2-.9-2-2v-13.4c0-1.1.9-2,2-2Z"/>
      </g>
      <g>
        <g>
          <g>
            <g class="st38">
              <rect class="st1" x="148.8" y="309.5" width="14.5" height="96.3"/>
              <rect class="st1" x="163.3" y="309.5" width="2.1" height="96.3"/>
              <rect class="st51" x="165.3" y="309.5" width="2.1" height="96.3"/>
              <rect class="st59" x="167.4" y="309.5" width="2.1" height="96.3"/>
              <rect class="st70" x="169.5" y="309.5" width="2.1" height="96.3"/>
              <rect class="st92" x="171.6" y="309.5" width="2.1" height="96.3"/>
              <rect class="st65" x="173.7" y="309.5" width="2.1" height="96.3"/>
              <rect class="st54" x="175.8" y="309.5" width="2.1" height="96.3"/>
              <rect class="st36" x="177.8" y="309.5" width="2.1" height="96.3"/>
              <rect class="st89" x="179.9" y="309.5" width="2.1" height="96.3"/>
              <rect class="st12" x="182" y="309.5" width="2.1" height="96.3"/>
              <rect class="st57" x="184.1" y="309.5" width="2.1" height="96.3"/>
              <rect class="st15" x="186.2" y="309.5" width="2.1" height="96.3"/>
              <rect class="st63" x="188.3" y="309.5" width="2.1" height="96.3"/>
              <rect class="st63" x="190.3" y="309.5" width="1.5" height="96.3"/>
              <rect class="st25" x="191.8" y="309.5" width="1.5" height="96.3"/>
              <rect class="st24" x="193.3" y="309.5" width="1.5" height="96.3"/>
              <rect class="st58" x="194.8" y="309.5" width="1.5" height="96.3"/>
              <rect class="st48" x="196.3" y="309.5" width="1.5" height="96.3"/>
              <rect class="st76" x="197.7" y="309.5" width="1.5" height="96.3"/>
              <rect class="st4" x="199.2" y="309.5" width="1.5" height="96.3"/>
              <rect class="st82" x="200.7" y="309.5" width="1.5" height="96.3"/>
              <rect class="st10" x="202.2" y="309.5" width="1.5" height="96.3"/>
              <rect class="st13" x="203.6" y="309.5" width="1.5" height="96.3"/>
              <rect class="st73" x="205.1" y="309.5" width="1.5" height="96.3"/>
              <rect class="st90" x="206.6" y="309.5" width="1.5" height="96.3"/>
              <rect class="st62" x="208.1" y="309.5" width="1.5" height="96.3"/>
              <rect class="st56" x="209.6" y="309.5" width="1.5" height="96.3"/>
              <rect class="st88" x="211" y="309.5" width="1.5" height="96.3"/>
              <rect class="st69" x="212.5" y="309.5" width="1.5" height="96.3"/>
              <rect class="st23" x="214" y="309.5" width="1.5" height="96.3"/>
              <rect class="st67" x="215.5" y="309.5" width="1.5" height="96.3"/>
              <rect class="st8" x="217" y="309.5" width="1.5" height="96.3"/>
              <rect class="st79" x="218.4" y="309.5" width="1.5" height="96.3"/>
              <rect class="st44" x="219.9" y="309.5" width="1.5" height="96.3"/>
              <rect class="st45" x="221.4" y="309.5" width="1.5" height="96.3"/>
              <rect class="st55" x="222.9" y="309.5" width="1.5" height="96.3"/>
              <rect class="st20" x="224.3" y="309.5" width="1.5" height="96.3"/>
              <rect class="st43" x="225.8" y="309.5" width="1.5" height="96.3"/>
              <rect class="st66" x="227.3" y="309.5" width="1.5" height="96.3"/>
              <rect class="st81" x="228.8" y="309.5" width="1.5" height="96.3"/>
              <rect class="st33" x="230.3" y="309.5" width="1.5" height="96.3"/>
              <rect class="st83" x="231.7" y="309.5" width="1.5" height="96.3"/>
              <rect class="st6" x="233.2" y="309.5" width="1.5" height="96.3"/>
              <rect class="st28" x="234.7" y="309.5" width="1.5" height="96.3"/>
              <rect class="st91" x="236.2" y="309.5" width="1.5" height="96.3"/>
              <rect class="st26" x="237.6" y="309.5" width="1.5" height="96.3"/>
              <path class="st26" d="M239.1,405.8v-96.3,96.3Z"/>
            </g>
            <path d="M161.4,406.4l-13.2-8v-.3c0,0,15.1-89.2,15.1-89.2h63.4l13.2,7.9-.4.4-78.1,89.1ZM149.3,398l11.9,7.2,77.1-88-11.9-7.2h-62.3l-14.8,88Z"/>
          </g>
          <polygon class="st29" points="251.6 405.8 161.3 405.8 176.3 317 239.1 317 251.6 405.8"/>
          <path class="st71" d="M199.4,406.4h-38.1c-.2,0-.4,0-.5-.2s-.2-.3-.1-.5l14.9-88.8c0-.3.3-.5.6-.5h58.4c.3,0,.6.3.6.6s-.3.6-.6.6h-57.9l-14.7,87.5h37.4c.3,0,.6.3.6.6s-.3.6-.6.6h0Z"/>
          <path class="st71" d="M213.9,309.6c-.3,0-.6-.3-.6-.6v-14.3c0-9-7.4-16.4-16.4-16.4s-16.4,7.4-16.4,16.4v14.3c0,.3-.3.6-.6.6s-.6-.3-.6-.6v-14.3c0-9.7,7.9-17.6,17.6-17.6s17.6,7.9,17.6,17.6v14.3c0,.3-.3.6-.6.6Z"/>
          <path class="st71" d="M223.5,322.4c-.3,0-.6-.3-.6-.6v-14.3c0-9-7.4-16.4-16.4-16.4s-16.4,7.4-16.4,16.4v14.3c0,.3-.3.6-.6.6s-.6-.3-.6-.6v-14.3c0-9.7,7.9-17.6,17.6-17.6s17.6,7.9,17.6,17.6v14.3c0,.3-.3.6-.6.6Z"/>
        </g>
        <g>
          <g>
            <g class="st39">
              <rect class="st1" x="199.4" y="340.1" width="16.5" height="73.3"/>
              <rect class="st1" x="215.8" y="340.1" width="2.4" height="73.3"/>
              <rect class="st51" x="218.2" y="340.1" width="2.4" height="73.3"/>
              <rect class="st59" x="220.6" y="340.1" width="2.4" height="73.3"/>
              <rect class="st70" x="223" y="340.1" width="2.4" height="73.3"/>
              <rect class="st92" x="225.3" y="340.1" width="2.4" height="73.3"/>
              <rect class="st65" x="227.7" y="340.1" width="2.4" height="73.3"/>
              <rect class="st54" x="230.1" y="340.1" width="2.4" height="73.3"/>
              <rect class="st36" x="232.5" y="340.1" width="2.4" height="73.3"/>
              <rect class="st89" x="234.8" y="340.1" width="2.4" height="73.3"/>
              <rect class="st12" x="237.2" y="340.1" width="2.4" height="73.3"/>
              <rect class="st57" x="239.6" y="340.1" width="2.4" height="73.3"/>
              <rect class="st15" x="241.9" y="340.1" width="2.4" height="73.3"/>
              <rect class="st63" x="244.3" y="340.1" width="2.4" height="73.3"/>
              <rect class="st63" x="246.7" y="340.1" width="1.7" height="73.3"/>
              <rect class="st25" x="248.4" y="340.1" width="1.7" height="73.3"/>
              <rect class="st24" x="250.1" y="340.1" width="1.7" height="73.3"/>
              <rect class="st58" x="251.7" y="340.1" width="1.7" height="73.3"/>
              <rect class="st48" x="253.4" y="340.1" width="1.7" height="73.3"/>
              <rect class="st76" x="255.1" y="340.1" width="1.7" height="73.3"/>
              <rect class="st4" x="256.8" y="340.1" width="1.7" height="73.3"/>
              <rect class="st82" x="258.5" y="340.1" width="1.7" height="73.3"/>
              <rect class="st10" x="260.2" y="340.1" width="1.7" height="73.3"/>
              <rect class="st13" x="261.8" y="340.1" width="1.7" height="73.3"/>
              <rect class="st73" x="263.5" y="340.1" width="1.7" height="73.3"/>
              <rect class="st90" x="265.2" y="340.1" width="1.7" height="73.3"/>
              <rect class="st62" x="266.9" y="340.1" width="1.7" height="73.3"/>
              <rect class="st56" x="268.6" y="340.1" width="1.7" height="73.3"/>
              <rect class="st88" x="270.2" y="340.1" width="1.7" height="73.3"/>
              <rect class="st69" x="271.9" y="340.1" width="1.7" height="73.3"/>
              <rect class="st23" x="273.6" y="340.1" width="1.7" height="73.3"/>
              <rect class="st67" x="275.3" y="340.1" width="1.7" height="73.3"/>
              <rect class="st8" x="277" y="340.1" width="1.7" height="73.3"/>
              <rect class="st79" x="278.7" y="340.1" width="1.7" height="73.3"/>
              <rect class="st44" x="280.3" y="340.1" width="1.7" height="73.3"/>
              <rect class="st45" x="282" y="340.1" width="1.7" height="73.3"/>
              <rect class="st55" x="283.7" y="340.1" width="1.7" height="73.3"/>
              <rect class="st20" x="285.4" y="340.1" width="1.7" height="73.3"/>
              <rect class="st43" x="287.1" y="340.1" width="1.7" height="73.3"/>
              <rect class="st66" x="288.8" y="340.1" width="1.7" height="73.3"/>
              <rect class="st81" x="290.4" y="340.1" width="1.7" height="73.3"/>
              <rect class="st33" x="292.1" y="340.1" width="1.7" height="73.3"/>
              <rect class="st83" x="293.8" y="340.1" width="1.7" height="73.3"/>
              <rect class="st6" x="295.5" y="340.1" width="1.7" height="73.3"/>
              <rect class="st28" x="297.2" y="340.1" width="1.7" height="73.3"/>
              <rect class="st91" x="298.9" y="340.1" width="1.7" height="73.3"/>
              <rect class="st26" x="300.5" y="340.1" width="1.7" height="73.3"/>
              <path class="st26" d="M302.2,413.4v-73.3,73.3Z"/>
            </g>
            <g class="st41">
              <rect class="st1" x="200" y="340.7" width="15.4" height="72"/>
              <rect class="st1" x="215.4" y="340.7" width="2.4" height="72"/>
              <rect class="st51" x="217.8" y="340.7" width="2.4" height="72"/>
              <rect class="st59" x="220.2" y="340.7" width="2.4" height="72"/>
              <rect class="st70" x="222.6" y="340.7" width="2.4" height="72"/>
              <rect class="st92" x="225" y="340.7" width="2.4" height="72"/>
              <rect class="st65" x="227.4" y="340.7" width="2.4" height="72"/>
              <rect class="st54" x="229.8" y="340.7" width="2.4" height="72"/>
              <rect class="st36" x="232.2" y="340.7" width="2.4" height="72"/>
              <rect class="st89" x="234.6" y="340.7" width="2.4" height="72"/>
              <rect class="st12" x="237" y="340.7" width="2.4" height="72"/>
              <rect class="st57" x="239.4" y="340.7" width="2.4" height="72"/>
              <rect class="st15" x="241.8" y="340.7" width="2.4" height="72"/>
              <rect class="st63" x="244.2" y="340.7" width="2.4" height="72"/>
              <rect class="st63" x="246.6" y="340.7" width="1.7" height="72"/>
              <rect class="st25" x="248.3" y="340.7" width="1.7" height="72"/>
              <rect class="st24" x="250" y="340.7" width="1.7" height="72"/>
              <rect class="st58" x="251.8" y="340.7" width="1.7" height="72"/>
              <rect class="st48" x="253.5" y="340.7" width="1.7" height="72"/>
              <rect class="st76" x="255.2" y="340.7" width="1.7" height="72"/>
              <rect class="st4" x="256.9" y="340.7" width="1.7" height="72"/>
              <rect class="st82" x="258.6" y="340.7" width="1.7" height="72"/>
              <rect class="st10" x="260.3" y="340.7" width="1.7" height="72"/>
              <rect class="st13" x="262" y="340.7" width="1.7" height="72"/>
              <rect class="st73" x="263.7" y="340.7" width="1.7" height="72"/>
              <rect class="st90" x="265.4" y="340.7" width="1.7" height="72"/>
              <rect class="st62" x="267.1" y="340.7" width="1.7" height="72"/>
              <rect class="st56" x="268.8" y="340.7" width="1.7" height="72"/>
              <rect class="st88" x="270.5" y="340.7" width="1.7" height="72"/>
              <rect class="st69" x="272.2" y="340.7" width="1.7" height="72"/>
              <rect class="st23" x="273.9" y="340.7" width="1.7" height="72"/>
              <rect class="st67" x="275.6" y="340.7" width="1.7" height="72"/>
              <rect class="st8" x="277.3" y="340.7" width="1.7" height="72"/>
              <rect class="st79" x="279" y="340.7" width="1.7" height="72"/>
              <rect class="st44" x="280.7" y="340.7" width="1.7" height="72"/>
              <rect class="st45" x="282.4" y="340.7" width="1.7" height="72"/>
              <rect class="st55" x="284.1" y="340.7" width="1.7" height="72"/>
              <rect class="st20" x="285.8" y="340.7" width="1.7" height="72"/>
              <rect class="st43" x="287.5" y="340.7" width="1.7" height="72"/>
              <rect class="st66" x="289.2" y="340.7" width="1.7" height="72"/>
              <rect class="st81" x="290.9" y="340.7" width="1.7" height="72"/>
              <rect class="st33" x="292.6" y="340.7" width="1.7" height="72"/>
              <rect class="st83" x="294.3" y="340.7" width="1.7" height="72"/>
              <rect class="st6" x="296" y="340.7" width="1.7" height="72"/>
              <rect class="st28" x="297.7" y="340.7" width="1.7" height="72"/>
              <rect class="st91" x="299.4" y="340.7" width="1.7" height="72"/>
              <rect class="st1" x="198.8" y="339.5" width="16.7" height="74.6"/>
              <rect class="st1" x="215.4" y="339.5" width="2.4" height="74.6"/>
              <rect class="st51" x="217.8" y="339.5" width="2.4" height="74.6"/>
              <rect class="st59" x="220.2" y="339.5" width="2.4" height="74.6"/>
              <rect class="st70" x="222.6" y="339.5" width="2.4" height="74.6"/>
              <rect class="st92" x="225" y="339.5" width="2.4" height="74.6"/>
              <rect class="st65" x="227.4" y="339.5" width="2.4" height="74.6"/>
              <rect class="st54" x="229.8" y="339.5" width="2.4" height="74.6"/>
              <rect class="st36" x="232.2" y="339.5" width="2.4" height="74.6"/>
              <rect class="st89" x="234.6" y="339.5" width="2.4" height="74.6"/>
              <rect class="st12" x="237" y="339.5" width="2.4" height="74.6"/>
              <rect class="st57" x="239.4" y="339.5" width="2.4" height="74.6"/>
              <rect class="st15" x="241.8" y="339.5" width="2.4" height="74.6"/>
              <rect class="st63" x="244.2" y="339.5" width="2.4" height="74.6"/>
              <rect class="st63" x="246.6" y="339.5" width="1.7" height="74.6"/>
              <rect class="st25" x="248.3" y="339.5" width="1.7" height="74.6"/>
              <rect class="st24" x="250" y="339.5" width="1.7" height="74.6"/>
              <rect class="st58" x="251.8" y="339.5" width="1.7" height="74.6"/>
              <rect class="st48" x="253.5" y="339.5" width="1.7" height="74.6"/>
              <rect class="st76" x="255.2" y="339.5" width="1.7" height="74.6"/>
              <rect class="st4" x="256.9" y="339.5" width="1.7" height="74.6"/>
              <rect class="st82" x="258.6" y="339.5" width="1.7" height="74.6"/>
              <rect class="st10" x="260.3" y="339.5" width="1.7" height="74.6"/>
              <rect class="st13" x="262" y="339.5" width="1.7" height="74.6"/>
              <rect class="st73" x="263.7" y="339.5" width="1.7" height="74.6"/>
              <rect class="st90" x="265.4" y="339.5" width="1.7" height="74.6"/>
              <rect class="st62" x="267.1" y="339.5" width="1.7" height="74.6"/>
              <rect class="st56" x="268.8" y="339.5" width="1.7" height="74.6"/>
              <rect class="st88" x="270.5" y="339.5" width="1.7" height="74.6"/>
              <rect class="st69" x="272.2" y="339.5" width="1.7" height="74.6"/>
              <rect class="st23" x="273.9" y="339.5" width="1.7" height="74.6"/>
              <rect class="st67" x="275.6" y="339.5" width="1.7" height="74.6"/>
              <rect class="st8" x="277.3" y="339.5" width="1.7" height="74.6"/>
              <rect class="st79" x="279" y="339.5" width="1.7" height="74.6"/>
              <rect class="st44" x="280.7" y="339.5" width="1.7" height="74.6"/>
              <rect class="st45" x="282.4" y="339.5" width="1.7" height="74.6"/>
              <rect class="st55" x="284.1" y="339.5" width="1.7" height="74.6"/>
              <rect class="st20" x="285.8" y="339.5" width="1.7" height="74.6"/>
              <rect class="st43" x="287.5" y="339.5" width="1.7" height="74.6"/>
              <rect class="st66" x="289.2" y="339.5" width="1.7" height="74.6"/>
              <rect class="st81" x="290.9" y="339.5" width="1.7" height="74.6"/>
              <rect class="st33" x="292.6" y="339.5" width="1.7" height="74.6"/>
              <rect class="st83" x="294.3" y="339.5" width="1.7" height="74.6"/>
              <rect class="st6" x="296" y="339.5" width="1.7" height="74.6"/>
              <rect class="st28" x="297.7" y="339.5" width="1.7" height="74.6"/>
              <rect class="st91" x="299.4" y="339.5" width="1.7" height="74.6"/>
              <rect class="st26" x="301.1" y="339.5" width="1.7" height="74.6"/>
              <path class="st26" d="M302.8,414v-74.6,74.6Z"/>
            </g>
          </g>
          <g>
            <rect class="st47" x="211.9" y="347.6" width="90.3" height="65.8"/>
            <path class="st71" d="M302.2,414h-90.3c-.3,0-.6-.3-.6-.6v-65.8c0-.3.3-.6.6-.6h90.3c.3,0,.6.3.6.6v65.8c0,.3-.3.6-.6.6ZM212.5,412.8h89.1v-64.5h-89.1v64.5h0Z"/>
          </g>
          <path class="st71" d="M258.7,381.1c-11.7,0-21.3-9.5-21.3-21.3v-2.4c0-.3.3-.6.6-.6s.6.3.6.6v2.4c0,11,9,20,20,20s20-9,20-20v-2.4c0-.3.3-.6.6-.6s.6.3.6.6v2.4c0,11.7-9.5,21.3-21.3,21.3Z"/>
          <path class="st71" d="M268.2,340.3c-.3,0-.6-.3-.6-.6v-2.4c0-11-9-20-20-20s-20,9-20,20v2.4c0,.3-.3.6-.6.6s-.6-.3-.6-.6v-2.4c0-11.7,9.5-21.3,21.3-21.3s21.3,9.5,21.3,21.3v2.4c0,.3-.3.6-.6.6h0Z"/>
        </g>
      </g>
      <path class="st71" d="M273.9,32.2h-66.3c-.6,0-1-.5-1-1s.5-1,1-1h66.3c.6,0,1,.5,1,1s-.5,1-1,1Z"/>
      <g>
        <g>
          <path class="st21" d="M245.1,390.2h6.1l-3.6,6.3h3.4v1.7h-6.5l3.6-6.3h-3.1v-1.7h0Z"/>
          <path class="st21" d="M259.7,394.8h-6.5c0,.6.3,1,.8,1.4.4.3.9.5,1.6.5s1.4-.3,1.9-.8l1.7.8c-.4.6-.9,1-1.5,1.3-.6.3-1.3.4-2.1.4-1.3,0-2.3-.4-3.1-1.2-.8-.8-1.2-1.8-1.2-3s.4-2.2,1.2-3c.8-.8,1.8-1.2,3-1.2s2.3.4,3.1,1.2c.8.8,1.2,1.9,1.2,3.2v.4h0ZM257.7,393.2c-.1-.5-.4-.8-.8-1.1s-.9-.4-1.4-.4-1.1.2-1.5.5c-.3.2-.5.5-.7,1h4.4Z"/>
          <path class="st21" d="M260.5,390.2h2v.8c.5-.4.9-.6,1.2-.8s.8-.2,1.1-.2c.8,0,1.5.3,2,.8.5.5.7,1.2.7,2.1v5.3h-2v-3.5c0-1,0-1.6-.1-1.9s-.2-.5-.5-.7c-.2-.2-.5-.2-.8-.2s-.8.1-1,.4c-.3.3-.5.6-.6,1.1,0,.2,0,.8,0,1.6v3.2h-2v-8h0Z"/>
          <path class="st21" d="M276.6,391.8l-1.7.9c-.3-.3-.6-.6-.9-.7s-.7-.2-1.1-.2c-.8,0-1.4.2-1.8.7s-.7,1-.7,1.7.2,1.2.7,1.7c.5.4,1,.6,1.8.6s1.6-.3,2.1-.9l1.6,1.1c-.9,1.1-2.1,1.7-3.6,1.7s-2.5-.4-3.3-1.3c-.8-.8-1.2-1.8-1.2-2.9s.2-1.5.6-2.1c.4-.6.9-1.2,1.6-1.5s1.5-.6,2.3-.6,1.5.2,2.1.5,1.1.8,1.6,1.4h0Z"/>
          <path class="st21" d="M276.6,390.2h2.1l2.1,5,2.3-5h2.1l-5,11h-2.1l1.6-3.5-3.1-7.4Z"/>
        </g>
        <g>
          <path class="st21" d="M237.5,398.5h0c-.2,0-.4-.1-.6-.3l-5.6-9.1c-.4-.6-.4-1.4,0-2s1-1,1.7-1h9c.7,0,1.4.4,1.7,1,.4.6.3,1.4,0,2l-.6-.4.6.4-5.6,9.1c-.1.2-.3.3-.6.3ZM233,387.3c-.3,0-.5.2-.6.3,0,.1-.2.4,0,.6l5.1,8.2,5.1-8.2h0c.2-.3,0-.5,0-.6,0-.1-.2-.3-.6-.3h-9Z"/>
          <path class="st21" d="M242,402.4h-9c-.7,0-1.4-.4-1.7-1s-.3-1.4,0-2h0l5.6-9.1c.1-.2.3-.3.6-.3h0c.2,0,.4.1.6.3l5.6,9.1c.4.6.4,1.4,0,2-.4.6-1,1-1.7,1ZM232.4,400.1c-.2.3,0,.5,0,.6,0,.1.2.3.6.3h9c.3,0,.5-.2.6-.3,0-.1.2-.4,0-.6l-5.1-8.2-5.1,8.2h0Z"/>
        </g>
      </g>
      <g>
        <g>
          <path class="st21" d="M376.8,332.4h6.1l-3.6,6.3h3.4v1.7h-6.5l3.6-6.3h-3.1v-1.7Z"/>
          <path class="st21" d="M391.4,337h-6.5c0,.6.3,1,.8,1.4.4.3.9.5,1.5.5s1.4-.3,1.9-.8l1.7.8c-.4.6-.9,1-1.5,1.3-.6.3-1.3.4-2.1.4-1.3,0-2.3-.4-3.1-1.2-.8-.8-1.2-1.8-1.2-3s.4-2.2,1.2-3,1.8-1.2,3-1.2,2.3.4,3.1,1.2c.8.8,1.2,1.9,1.2,3.2v.4h0ZM389.3,335.4c-.1-.5-.4-.8-.8-1.1s-.9-.4-1.4-.4-1.1.2-1.5.5c-.3.2-.5.5-.7,1h4.4Z"/>
          <path class="st21" d="M392.1,332.4h2v.8c.5-.4.9-.6,1.2-.8s.8-.2,1.1-.2c.8,0,1.5.3,2,.8.5.5.7,1.2.7,2.1v5.3h-2v-3.5c0-1,0-1.6-.1-1.9s-.2-.5-.5-.7c-.2-.2-.5-.2-.8-.2s-.8.1-1,.4c-.3.3-.5.6-.6,1.1,0,.2,0,.8,0,1.6v3.2h-2v-8h0Z"/>
          <path class="st21" d="M408.3,334l-1.7.9c-.3-.3-.6-.6-.9-.7s-.7-.2-1.1-.2c-.8,0-1.4.2-1.8.7s-.7,1-.7,1.7.2,1.2.7,1.7c.5.4,1,.6,1.8.6s1.6-.3,2.1-.9l1.6,1.1c-.9,1.1-2.1,1.7-3.6,1.7s-2.5-.4-3.3-1.3c-.8-.8-1.2-1.8-1.2-2.9s.2-1.5.6-2.1c.4-.6.9-1.2,1.6-1.5s1.5-.6,2.3-.6,1.5.2,2.1.5,1.1.8,1.6,1.4h0Z"/>
          <path class="st21" d="M408.3,332.4h2.1l2.1,5,2.3-5h2.1l-5,11h-2.1l1.6-3.5-3.1-7.4Z"/>
        </g>
        <g>
          <path class="st21" d="M369.1,340.6h0c-.2,0-.5-.1-.6-.3l-5.6-9.1c-.4-.6-.4-1.4,0-2s1-1,1.7-1h9c.7,0,1.4.4,1.7,1,.4.6.3,1.4,0,2l-.6-.4.6.4-5.6,9.1c-.1.2-.3.3-.6.3ZM364.6,329.5c-.3,0-.5.2-.6.3,0,.1-.2.4,0,.6l5,8.2,5-8.2h0c.2-.3,0-.5,0-.6s-.2-.3-.6-.3h-9Z"/>
          <path class="st21" d="M373.6,344.6h-9c-.7,0-1.4-.4-1.7-1s-.3-1.4,0-2h0l5.6-9.1c.1-.2.3-.3.6-.3h0c.2,0,.5.1.6.3l5.6,9.1c.4.6.4,1.4,0,2-.4.6-1,1-1.7,1ZM364,342.3c-.2.3,0,.5,0,.6s.2.3.6.3h9c.3,0,.5-.2.6-.3,0-.1.2-.4,0-.6l-5-8.2-5,8.2h0Z"/>
        </g>
      </g>
      <g>
        <g>
          <rect class="st47" x="307.5" y="140.4" width="102.3" height="31.1" rx="12" ry="12" transform="translate(-20.7 60.7) rotate(-9.4)"/>
          <path d="M320.6,178.4c-6,0-11.3-4.3-12.3-10.5l-1.2-7c-1.1-6.8,3.5-13.2,10.3-14.4l77.2-12.8c3.3-.5,6.6.2,9.3,2.2,2.7,1.9,4.5,4.8,5.1,8.1l1.2,7c1.1,6.8-3.5,13.2-10.3,14.4l-77.2,12.8c-.7.1-1.4.2-2,.2ZM317.5,147.5c-6.3,1-10.5,7-9.5,13.2l1.2,7c1,6.3,7,10.5,13.2,9.5l77.2-12.8c6.3-1,10.5-7,9.5-13.2l-1.2-7c-.5-3-2.2-5.7-4.7-7.5-2.5-1.8-5.5-2.5-8.6-2l-77.2,12.8Z"/>
        </g>
        <g>
          <path class="st49" d="M346.7,154h0c1.1,8.1-10.5,16.8-10.5,16.8-15.6-6.4-14.9-12.5-14.9-12.5-.5-3.8,2.3-7.3,6.3-7.8,2-.3,4,.3,5.5,1.4,1-1.9,3-3.4,5.5-3.7,4-.5,7.6,2.1,8.1,5.8h0Z"/>
          <g>
            <path class="st71" d="M354.5,151.8c.5-.5.9-1,1.3-1.6.4-.6.6-1.3.8-1.9h.7c0-.1-.4,2.3-.4,2.3-.4.9-1,1.6-1.6,2.3s-1.3,1.2-1.9,1.6l-.2-1.6c.5-.2.9-.6,1.4-1h0ZM356.7,151.4l.4-.8h-.2c0-.1-.2-2.4-.2-2.4l2.6-.4,2.6,15.5-3.1.5-2-12.4h0Z"/>
            <path class="st71" d="M370.1,162.4c-1.5.2-2.8.2-3.7-.2s-1.7-1.2-2.3-2.2c-.6-1.1-1-2.6-1.4-4.6-.3-2-.4-3.7-.2-4.9.2-1.3.7-2.2,1.5-2.9.8-.7,1.9-1.2,3.4-1.4s2.7-.2,3.7.2c1,.4,1.8,1.2,2.3,2.3s1,2.7,1.4,4.8c.3,2,.4,3.6.2,4.8s-.7,2.2-1.5,2.9-1.9,1.2-3.4,1.4h0ZM369.8,160.5c.8-.1,1.3-.4,1.7-.8.4-.4.6-1.1.6-2s0-2.2-.4-4c-.3-1.8-.6-3.1-1-3.9-.4-.9-.8-1.4-1.2-1.7s-1.1-.4-1.8-.2c-.7.1-1.2.4-1.6.8-.4.4-.6,1.1-.6,2,0,.9,0,2.3.4,4,.3,1.7.6,3,.9,3.9s.8,1.4,1.2,1.7,1.1.4,1.8.2h0Z"/>
            <path class="st71" d="M375.5,145.1l3.2-.5,1.2,7,1-.2,4.2-7.9,3.9-.6-5.2,8.4,8.2,7.1-4.1.7-6.9-6.3-1,.2,1.2,7.3-3.2.5-2.6-15.5h0Z"/>
          </g>
        </g>
      </g>
      <g>
        <polygon class="st49" points="299.1 86.3 294.9 104.9 311.4 98.8 299.1 86.3"/>
        <path d="M316.5,120.4c-.8,0-1.5,0-2.3-.3l-33.7-7.5c-2.7-.6-5-2.2-6.5-4.6-1.5-2.4-2-5.2-1.4-7.9l4.1-18.4c1.3-5.6,6.9-9.2,12.5-7.9l33.7,7.5c2.7.6,5,2.2,6.5,4.6,1.5,2.4,2,5.2,1.4,7.9l-4.1,18.4c-1.1,4.9-5.4,8.2-10.2,8.2ZM286.9,74.5c-1.8,0-3.5.5-5,1.5-2.1,1.4-3.6,3.5-4.2,5.9l-4.1,18.4c-.6,2.5-.1,5,1.2,7.1,1.4,2.1,3.5,3.6,5.9,4.2l33.7,7.5c5.1,1.1,10.1-2.1,11.3-7.2l4.1-18.4c1.1-5.1-2.1-10.1-7.2-11.3l-33.7-7.5h0c-.7-.2-1.4-.2-2.1-.2Z"/>
      </g>
    </g>
  </g>
</svg>