<?xml version="1.0" encoding="UTF-8"?>
<svg id="Layer_2" xmlns="http://www.w3.org/2000/svg" version="1.1" viewBox="0 0 475.4 290.2">
  <!-- Generator: Adobe Illustrator 29.5.1, SVG Export Plug-In . SVG Version: 2.1.0 Build 141)  -->
  <defs>
    <style>
      .st0 {
        fill: #ffbd00;
      }

      .st1 {
        fill: #ef4e16;
      }

      .st2 {
        isolation: isolate;
      }

      .st3 {
        fill: #fff;
      }

      .st4 {
        fill: #ffce31;
      }
    </style>
  </defs>
  <g id="Layer_1-2">
    <g>
      <polygon class="st1" points="416.3 169.7 412 159.6 420.1 166.5 421.6 159.4 423.7 166.2 428.7 158.6 427.5 167.1 437.8 164.1 429 171 438.5 174.3 428.3 175.2 434.5 182.2 426.2 178.4 424.7 188.5 421.3 179.6 415.3 186.8 417.9 178 410.2 180.6 415.4 174.4 407.4 172 416.3 169.7"/>
      <polygon class="st4" points="419 170.7 416.1 165.2 421.1 168.9 422.1 165 423.5 168.5 426.5 164.4 425.7 169.1 430.9 167.7 426.5 171.1 431.7 173.4 425.8 173.7 429.4 178.2 424.6 176 424.1 182.6 422 176.2 418.9 180 420 175.2 416.2 176.5 418.7 173.3 414.4 172.2 419 170.7"/>
      <polygon class="st3" points="421 171.5 419.8 169.1 421.9 170.7 422.3 169 422.9 170.5 424.2 168.8 423.9 170.8 426.1 170.2 424.2 171.6 426.4 172.6 423.9 172.7 425.4 174.6 423.4 173.7 423.2 176.5 422.3 173.8 421 175.4 421.5 173.4 419.8 173.9 420.9 172.6 419.1 172.1 421 171.5"/>
    </g>
    <g class="st2">
      <g class="st2">
        <path d="M84.7,21.6h7.9l15.7,40.9h-8.1l-3.2-8.4h-16.7l-3.3,8.4h-8.1l15.8-40.9ZM88.6,32.4l-5.5,14h10.9l-5.4-14Z"/>
        <path d="M129.3,32.2h7.6v3.1c1.7-1.4,3.3-2.5,4.7-3,1.4-.6,2.8-.8,4.3-.8,3,0,5.5,1,7.6,3.1,1.8,1.8,2.6,4.4,2.6,7.9v20h-7.5v-13.2c0-3.6-.2-6-.5-7.2-.3-1.2-.9-2.1-1.7-2.7-.8-.6-1.8-.9-3-.9s-2.8.5-3.9,1.5-1.9,2.4-2.3,4.3c-.2.9-.3,3-.3,6.1v12.1h-7.6v-30.2Z"/>
        <path d="M193.8,49.5h-24.4c.4,2.1,1.3,3.9,2.8,5.1,1.5,1.3,3.5,1.9,5.8,1.9s5.3-1,7.3-3l6.4,3c-1.6,2.3-3.5,3.9-5.7,5-2.2,1.1-4.9,1.6-7.9,1.6-4.7,0-8.6-1.5-11.6-4.5-3-3-4.5-6.7-4.5-11.2s1.5-8.4,4.5-11.5c3-3,6.7-4.6,11.2-4.6s8.6,1.5,11.6,4.6c3,3,4.5,7.1,4.5,12.1v1.4ZM186.2,43.5c-.5-1.7-1.5-3.1-3-4.1-1.5-1.1-3.2-1.6-5.1-1.6s-4,.6-5.6,1.8c-1,.7-1.9,2-2.8,3.9h16.4Z"/>
        <path d="M196.5,32.2h7.4l6.1,17.2,6.5-17.2h4.5l6.4,17,6.1-17h7.5l-11,30.2h-4.8l-6.4-17.2-6.6,17.2h-4.7l-10.9-30.2Z"/>
        <path d="M291.6,49.5h-24.4c.4,2.1,1.3,3.9,2.8,5.1,1.5,1.3,3.5,1.9,5.8,1.9s5.3-1,7.3-3l6.4,3c-1.6,2.3-3.5,3.9-5.7,5-2.2,1.1-4.9,1.6-7.9,1.6-4.7,0-8.6-1.5-11.6-4.5-3-3-4.5-6.7-4.5-11.2s1.5-8.4,4.5-11.5c3-3,6.7-4.6,11.2-4.6s8.6,1.5,11.6,4.6c3,3,4.5,7.1,4.5,12.1v1.4ZM284,43.5c-.5-1.7-1.5-3.1-3-4.1-1.5-1.1-3.2-1.6-5.1-1.6s-4,.6-5.6,1.8c-1,.7-1.9,2-2.8,3.9h16.4Z"/>
        <path d="M295.9,32.2h6.5v3.8c.7-1.5,1.6-2.6,2.8-3.4,1.2-.8,2.4-1.2,3.8-1.2s2,.3,3.1.8l-2.4,6.5c-.9-.4-1.6-.7-2.2-.7-1.2,0-2.2.7-3,2.2-.8,1.4-1.2,4.3-1.2,8.5v1.5s0,12.2,0,12.2h-7.5v-30.2Z"/>
        <path d="M338.2,32.2h7.6v30.2h-7.6v-3.2c-1.5,1.4-3,2.4-4.5,3-1.5.6-3.1.9-4.8.9-3.9,0-7.3-1.5-10.1-4.5s-4.3-6.8-4.3-11.3,1.4-8.5,4.1-11.5,6.1-4.5,10-4.5,3.5.3,5.1,1c1.6.7,3.1,1.7,4.4,3.1v-3.3ZM330.2,38.4c-2.3,0-4.3.8-5.8,2.5-1.5,1.7-2.3,3.8-2.3,6.4s.8,4.8,2.4,6.4c1.6,1.7,3.5,2.5,5.8,2.5s4.4-.8,5.9-2.5,2.4-3.8,2.4-6.5-.8-4.8-2.4-6.4c-1.6-1.6-3.6-2.4-6-2.4Z"/>
        <path d="M383.6,31.4c2.9,0,5.5.7,8,2.1s4.5,3.4,5.9,5.8c1.4,2.4,2.1,5.1,2.1,7.9s-.7,5.5-2.1,8-3.3,4.4-5.8,5.8c-2.4,1.4-5.1,2.1-8.1,2.1-4.3,0-8-1.5-11.1-4.6s-4.6-6.8-4.6-11.2,1.7-8.7,5.2-11.8c3-2.7,6.5-4.1,10.5-4.1ZM383.7,38.6c-2.4,0-4.3.8-5.9,2.5s-2.4,3.7-2.4,6.3.8,4.8,2.3,6.4,3.5,2.4,5.9,2.4,4.3-.8,5.9-2.5c1.6-1.6,2.4-3.8,2.4-6.4s-.8-4.7-2.3-6.3c-1.5-1.6-3.5-2.4-5.9-2.4Z"/>
        <path d="M402.2,32.2h2.7c0-4,0-6.3.2-7,.2-1.7.9-3,2.1-4,1.2-1,2.9-1.5,5.1-1.5s3.4.4,5.3,1.1v5.8c-1.1-.3-2-.5-2.7-.5s-1.5.2-1.9.6c-.3.3-.4.9-.4,1.7v3.8s4.8,0,4.8,0v6.4h-4.8v23.8h-7.6v-23.8h-2.7v-6.4Z"/>
      </g>
      <g class="st2">
        <path d="M47.2,90.7l-5.4,5.2c-3.7-3.9-7.9-5.9-12.5-5.9s-7.2,1.3-9.9,4-4,6-4,9.9.6,5.1,1.8,7.3c1.2,2.1,2.9,3.8,5,5,2.2,1.2,4.6,1.8,7.2,1.8s4.3-.4,6.2-1.3c1.9-.8,3.9-2.4,6.2-4.6l5.3,5.5c-3,2.9-5.9,5-8.6,6.1-2.7,1.1-5.7,1.7-9.2,1.7-6.4,0-11.5-2-15.6-6-4-4-6.1-9.2-6.1-15.5s.9-7.7,2.8-10.9,4.5-5.7,7.9-7.6c3.4-1.9,7.1-2.9,11.1-2.9s6.6.7,9.7,2.1c3.1,1.4,5.8,3.4,8.1,6.1Z"/>
        <path d="M67.3,93.4c2.9,0,5.5.7,8,2.1,2.5,1.4,4.5,3.4,5.9,5.8,1.4,2.4,2.1,5.1,2.1,7.9s-.7,5.5-2.1,8c-1.4,2.5-3.3,4.4-5.8,5.8-2.4,1.4-5.1,2.1-8.1,2.1-4.3,0-8-1.5-11.1-4.6s-4.6-6.8-4.6-11.2,1.7-8.7,5.2-11.8c3-2.7,6.5-4.1,10.5-4.1ZM67.5,100.5c-2.4,0-4.3.8-5.9,2.5-1.6,1.6-2.4,3.7-2.4,6.3s.8,4.8,2.3,6.4c1.5,1.6,3.5,2.4,5.9,2.4s4.3-.8,5.9-2.5c1.6-1.6,2.4-3.8,2.4-6.4s-.8-4.7-2.3-6.3c-1.5-1.6-3.5-2.4-5.9-2.4Z"/>
        <path d="M88.7,82.5h7.6v41.9h-7.6v-41.9Z"/>
        <path d="M102.4,82.5h7.6v41.9h-7.6v-41.9Z"/>
        <path d="M139.1,94.2h7.6v30.2h-7.6v-3.2c-1.5,1.4-3,2.4-4.5,3-1.5.6-3.1.9-4.8.9-3.9,0-7.3-1.5-10.1-4.5s-4.3-6.8-4.3-11.3,1.4-8.5,4.1-11.5c2.8-3,6.1-4.5,10-4.5s3.5.3,5.1,1c1.6.7,3.1,1.7,4.4,3.1v-3.3ZM131.2,100.4c-2.3,0-4.3.8-5.8,2.5-1.6,1.7-2.3,3.8-2.3,6.4s.8,4.8,2.4,6.4c1.6,1.7,3.5,2.5,5.8,2.5s4.4-.8,5.9-2.5,2.4-3.8,2.4-6.5-.8-4.8-2.4-6.4c-1.6-1.6-3.6-2.4-6-2.4Z"/>
        <path d="M161.9,82.5v15c1.4-1.4,2.9-2.4,4.4-3.1,1.6-.7,3.3-1,5.1-1,3.9,0,7.3,1.5,10.1,4.5s4.1,6.8,4.1,11.5-1.4,8.3-4.3,11.3c-2.9,3-6.2,4.5-10.1,4.5s-3.4-.3-4.9-.9c-1.5-.6-3-1.6-4.5-3v3.2h-7.5v-41.9h7.5ZM169.9,100.4c-2.4,0-4.4.8-5.9,2.4-1.6,1.6-2.4,3.8-2.4,6.4s.8,4.9,2.4,6.5,3.6,2.5,5.9,2.5,4.3-.8,5.8-2.5c1.6-1.7,2.4-3.8,2.4-6.4s-.8-4.7-2.3-6.4c-1.6-1.7-3.5-2.5-5.9-2.5Z"/>
        <path d="M210.4,98.4l-4.7,4.7c-1.9-1.9-3.6-2.8-5.2-2.8s-1.5.2-2,.5c-.5.4-.7.8-.7,1.3s.2.8.5,1.1c.3.3,1.1.8,2.3,1.4l2.8,1.4c2.9,1.4,4.9,2.9,6,4.4,1.1,1.5,1.6,3.3,1.6,5.3s-1,4.9-3,6.7c-2,1.8-4.6,2.7-7.9,2.7s-7.9-1.7-10.6-5.2l4.7-5.1c.9,1,1.9,1.9,3.1,2.5,1.2.6,2.3,1,3.2,1s1.8-.2,2.4-.7.9-1,.9-1.7c0-1.2-1.1-2.3-3.3-3.4l-2.6-1.3c-4.9-2.5-7.3-5.5-7.3-9.2s.9-4.4,2.8-6.1c1.8-1.7,4.2-2.5,7.1-2.5s3.8.4,5.5,1.3c1.7.9,3.2,2.1,4.4,3.7Z"/>
        <path d="M220.6,116.7l5.4,2.7-6.9,11.7-3.8-1.8,5.2-12.6Z"/>
        <path d="M287.2,90.7l-5.4,5.2c-3.7-3.9-7.9-5.9-12.5-5.9s-7.2,1.3-9.9,4-4,6-4,9.9.6,5.1,1.8,7.3c1.2,2.1,2.9,3.8,5,5,2.2,1.2,4.6,1.8,7.2,1.8s4.3-.4,6.2-1.3c1.9-.8,3.9-2.4,6.2-4.6l5.3,5.5c-3,2.9-5.9,5-8.6,6.1-2.7,1.1-5.7,1.7-9.2,1.7-6.4,0-11.5-2-15.6-6-4-4-6.1-9.2-6.1-15.5s.9-7.7,2.8-10.9c1.8-3.2,4.5-5.7,7.9-7.6,3.4-1.9,7.1-2.9,11.1-2.9s6.6.7,9.7,2.1c3.1,1.4,5.8,3.4,8.1,6.1Z"/>
        <path d="M307.3,93.4c2.9,0,5.5.7,8,2.1,2.5,1.4,4.5,3.4,5.9,5.8,1.4,2.4,2.1,5.1,2.1,7.9s-.7,5.5-2.1,8-3.3,4.4-5.8,5.8c-2.4,1.4-5.1,2.1-8.1,2.1-4.3,0-8-1.5-11.1-4.6s-4.6-6.8-4.6-11.2,1.7-8.7,5.2-11.8c3-2.7,6.5-4.1,10.5-4.1ZM307.5,100.5c-2.4,0-4.3.8-5.9,2.5s-2.4,3.7-2.4,6.3.8,4.8,2.3,6.4,3.5,2.4,5.9,2.4,4.3-.8,5.9-2.5c1.6-1.6,2.4-3.8,2.4-6.4s-.8-4.7-2.3-6.3-3.5-2.4-5.9-2.4Z"/>
        <path d="M329.5,94.2h7.6v3.1c1.7-1.4,3.3-2.5,4.7-3,1.4-.6,2.8-.8,4.3-.8,3,0,5.5,1,7.6,3.1,1.8,1.8,2.6,4.4,2.6,7.9v20h-7.5v-13.2c0-3.6-.2-6-.5-7.2-.3-1.2-.9-2.1-1.7-2.7-.8-.6-1.8-.9-3-.9s-2.8.5-3.9,1.5c-1.1,1-1.9,2.4-2.3,4.3-.2.9-.3,3-.3,6.1v12.1h-7.6v-30.2Z"/>
        <path d="M364.6,83h7.6v11.1h4.5v6.5h-4.5v23.7h-7.6v-23.7h-3.9v-6.5h3.9v-11.1Z"/>
        <path d="M411,111.5h-24.4c.4,2.1,1.3,3.9,2.8,5.1,1.5,1.3,3.5,1.9,5.8,1.9s5.3-1,7.3-3l6.4,3c-1.6,2.3-3.5,3.9-5.7,5-2.2,1.1-4.9,1.6-7.9,1.6-4.7,0-8.6-1.5-11.6-4.5-3-3-4.5-6.7-4.5-11.2s1.5-8.4,4.5-11.5c3-3,6.7-4.6,11.2-4.6s8.6,1.5,11.6,4.6c3,3,4.5,7.1,4.5,12.1v1.4ZM403.4,105.5c-.5-1.7-1.5-3.1-3-4.1-1.5-1.1-3.2-1.6-5.1-1.6s-4,.6-5.6,1.8c-1,.7-1.9,2-2.8,3.9h16.4Z"/>
        <path d="M417.1,94.2h7.6v3.1c1.7-1.4,3.3-2.5,4.7-3,1.4-.6,2.8-.8,4.3-.8,3,0,5.5,1,7.6,3.1,1.8,1.8,2.6,4.4,2.6,7.9v20h-7.5v-13.2c0-3.6-.2-6-.5-7.2-.3-1.2-.9-2.1-1.7-2.7-.8-.6-1.8-.9-3-.9s-2.8.5-3.9,1.5-1.9,2.4-2.3,4.3c-.2.9-.3,3-.3,6.1v12.1h-7.6v-30.2Z"/>
        <path d="M452.2,83h7.6v11.1h4.5v6.5h-4.5v23.7h-7.6v-23.7h-3.9v-6.5h3.9v-11.1Z"/>
        <path d="M472,116.7l5.4,2.7-6.9,11.7-3.8-1.8,5.2-12.6Z"/>
      </g>
      <g class="st2">
        <path d="M107.3,156.1h7.6v30.2h-7.6v-3.2c-1.5,1.4-3,2.4-4.5,3-1.5.6-3.1.9-4.8.9-3.9,0-7.3-1.5-10.1-4.5s-4.3-6.8-4.3-11.3,1.4-8.5,4.1-11.5c2.8-3,6.1-4.5,10-4.5s3.5.3,5.1,1c1.6.7,3.1,1.7,4.4,3.1v-3.3ZM99.3,162.3c-2.3,0-4.3.8-5.8,2.5-1.6,1.7-2.3,3.8-2.3,6.4s.8,4.8,2.4,6.4c1.6,1.7,3.5,2.5,5.8,2.5s4.4-.8,5.9-2.5,2.4-3.8,2.4-6.5-.8-4.8-2.4-6.4c-1.6-1.6-3.6-2.4-6-2.4Z"/>
        <path d="M122.5,156.1h7.6v3.1c1.7-1.4,3.3-2.5,4.7-3,1.4-.6,2.8-.8,4.3-.8,3,0,5.5,1,7.6,3.1,1.8,1.8,2.6,4.4,2.6,7.9v20h-7.5v-13.2c0-3.6-.2-6-.5-7.2-.3-1.2-.9-2.1-1.7-2.7-.8-.6-1.8-.9-3-.9s-2.8.5-3.9,1.5-1.9,2.4-2.3,4.3c-.2.9-.3,3-.3,6.1v12.1h-7.6v-30.2Z"/>
        <path d="M179,144.5h7.6v41.9h-7.6v-3.2c-1.5,1.4-3,2.4-4.5,3-1.5.6-3.1.9-4.8.9-3.9,0-7.3-1.5-10.1-4.5s-4.3-6.8-4.3-11.3,1.4-8.5,4.1-11.5c2.8-3,6.1-4.5,10-4.5s3.5.3,5.1,1c1.6.7,3.1,1.7,4.4,3.1v-15ZM171,162.3c-2.3,0-4.3.8-5.8,2.5-1.6,1.7-2.3,3.8-2.3,6.4s.8,4.8,2.4,6.4c1.6,1.7,3.5,2.5,5.8,2.5s4.4-.8,5.9-2.5,2.4-3.8,2.4-6.5-.8-4.8-2.4-6.4c-1.6-1.6-3.6-2.4-6-2.4Z"/>
        <path d="M248.5,152.7l-5.4,5.2c-3.7-3.9-7.9-5.9-12.5-5.9s-7.2,1.3-9.9,4-4,6-4,9.9.6,5.1,1.8,7.3c1.2,2.1,2.9,3.8,5,5,2.2,1.2,4.6,1.8,7.2,1.8s4.3-.4,6.2-1.3c1.9-.8,3.9-2.4,6.2-4.6l5.3,5.5c-3,2.9-5.9,5-8.6,6.1-2.7,1.1-5.7,1.7-9.2,1.7-6.4,0-11.5-2-15.6-6-4-4-6.1-9.2-6.1-15.5s.9-7.7,2.8-10.9,4.5-5.7,7.9-7.6c3.4-1.9,7.1-2.9,11.1-2.9s6.6.7,9.7,2.1c3.1,1.4,5.8,3.4,8.1,6.1Z"/>
        <path d="M254.5,156.1h7.7v14.6c0,2.8.2,4.8.6,5.9.4,1.1,1,2,1.9,2.6.9.6,1.9.9,3.2.9s2.3-.3,3.2-.9c.9-.6,1.5-1.5,2-2.7.3-.9.5-2.7.5-5.6v-14.8h7.6v12.8c0,5.3-.4,8.9-1.2,10.8-1,2.4-2.5,4.2-4.5,5.5-2,1.3-4.5,1.9-7.6,1.9s-6-.7-8-2.2c-2-1.5-3.5-3.5-4.3-6.2-.6-1.8-.9-5.2-.9-10v-12.6Z"/>
        <path d="M287.8,144.5h7.6v41.9h-7.6v-41.9Z"/>
        <path d="M303.2,145h7.6v11.1h4.5v6.5h-4.5v23.7h-7.6v-23.7h-3.9v-6.5h3.9v-11.1Z"/>
        <path d="M319.3,156.1h7.7v14.6c0,2.8.2,4.8.6,5.9.4,1.1,1,2,1.9,2.6s1.9.9,3.2.9,2.3-.3,3.2-.9c.9-.6,1.5-1.5,2-2.7.3-.9.5-2.7.5-5.6v-14.8h7.6v12.8c0,5.3-.4,8.9-1.2,10.8-1,2.4-2.5,4.2-4.5,5.5-2,1.3-4.5,1.9-7.6,1.9s-6-.7-8-2.2c-2-1.5-3.5-3.5-4.3-6.2-.6-1.8-.9-5.2-.9-10v-12.6Z"/>
        <path d="M351.7,156.1h6.5v3.8c.7-1.5,1.6-2.6,2.8-3.4,1.2-.8,2.4-1.2,3.8-1.2s2,.3,3.1.8l-2.4,6.5c-.9-.4-1.6-.7-2.2-.7-1.2,0-2.2.7-3,2.2-.8,1.4-1.2,4.3-1.2,8.5v1.5s0,12.2,0,12.2h-7.5v-30.2Z"/>
        <path d="M401.9,173.4h-24.4c.4,2.1,1.3,3.9,2.8,5.1,1.5,1.3,3.5,1.9,5.8,1.9s5.3-1,7.3-3l6.4,3c-1.6,2.3-3.5,3.9-5.7,5-2.2,1.1-4.9,1.6-7.9,1.6-4.7,0-8.6-1.5-11.6-4.5-3-3-4.5-6.7-4.5-11.2s1.5-8.4,4.5-11.5c3-3,6.7-4.6,11.2-4.6s8.6,1.5,11.6,4.6c3,3,4.5,7.1,4.5,12.1v1.4ZM394.3,167.5c-.5-1.7-1.5-3.1-3-4.1-1.5-1.1-3.2-1.6-5.1-1.6s-4,.6-5.6,1.8c-1,.7-1.9,2-2.8,3.9h16.4Z"/>
      </g>
    </g>
    <g class="st2">
      <g class="st2">
        <path d="M132.6,266c1.9,0,5.2.8,5.2,3v1.3h-1.8v-.8c0-1.2-2-1.7-3.3-1.7-2.8,0-4.9,2.1-4.9,5.2s2.2,5.4,5,5.4,4.3-1.9,4.3-1.9l1.1,1.4s-2,2.3-5.4,2.3-7-3.2-7-7.2,3-7,6.9-7Z"/>
        <path d="M142.7,267.9h-1.3v-1.7h6c2.4,0,4.1,1.5,4.1,4s-1.5,3.4-2.5,3.6h0s.4.2.6.7l1.7,3.3c.2.4.5.4,1,.4h.3v1.7h-1c-1.1,0-1.5-.1-1.9-1l-1.9-3.7c-.4-.6-.6-.7-1.4-.7h-1.8v5.5h-1.9v-12.1ZM147.2,272.8c1.5,0,2.4-1,2.4-2.5s-.9-2.4-2.3-2.4h-2.6v4.9h2.5Z"/>
        <path d="M156.7,267.9h-1.3v-1.7h8.1c.9,0,1.2.4,1.2,1.2v1.7h-1.8v-.9c0-.3-.2-.4-.4-.4h-3.9v4.3h4.8v1.7h-4.8v4c0,.3.2.4.4.4h4c.3,0,.4-.2.4-.4v-.9h1.8v1.7c0,.9-.4,1.2-1.2,1.2h-6.1c-.9,0-1.2-.4-1.2-1.2v-10.8Z"/>
      </g>
      <g class="st2">
        <path d="M167.9,278.3h.3c.4,0,.5,0,.6-.4l4.3-11.7h2l4.3,11.7c.1.4.3.4.6.4h.3v1.7h-1.1c-1,0-1.3-.2-1.6-1.1l-1-2.8h-5.1l-1,2.8c-.3.9-.6,1.1-1.6,1.1h-1.1v-1.7ZM176.2,274.4l-1.5-4.2c-.3-.7-.5-1.9-.5-1.9h0s-.3,1.2-.5,1.9l-1.5,4.2h4.1Z"/>
      </g>
      <g class="st2">
        <path d="M186.1,267.9h-2.8c-.3,0-.4.1-.4.4v.9h-1.7v-1.8c0-.9.3-1.2,1.2-1.2h9.5c.9,0,1.2.3,1.2,1.2v1.8h-1.7v-.9c0-.3-.2-.4-.4-.4h-2.8v12.1h-2v-12.1Z"/>
      </g>
      <g class="st2">
        <path d="M202.6,266c4,0,7.1,3.1,7.1,7s-3.1,7.2-7.1,7.2-7.1-3.2-7.1-7.2,3.1-7,7.1-7ZM202.6,278.4c2.8,0,5.1-2.3,5.1-5.4s-2.3-5.2-5.1-5.2-5,2.3-5,5.2,2.2,5.4,5,5.4Z"/>
        <path d="M214.3,267.9h-1.3v-1.7h6c2.4,0,4.1,1.5,4.1,4s-1.5,3.4-2.5,3.6h0s.4.2.6.7l1.7,3.3c.2.4.5.4,1,.4h.3v1.7h-1c-1.1,0-1.5-.1-1.9-1l-1.9-3.7c-.4-.6-.6-.7-1.4-.7h-1.8v5.5h-1.9v-12.1ZM218.8,272.8c1.5,0,2.4-1,2.4-2.5s-.9-2.4-2.3-2.4h-2.6v4.9h2.5Z"/>
        <path d="M228.1,276.8s1.4,1.7,3.5,1.7,2.4-.8,2.4-2c0-2.9-6.7-2.4-6.7-6.7s1.8-3.7,4.4-3.7,3.9.7,3.9,2.5v1.1h-1.8v-.6c0-.7-1-1.2-2.1-1.2s-2.4.8-2.4,1.9c0,2.8,6.6,2.2,6.6,6.7s-1.6,3.9-4.4,3.9-4.6-2-4.6-2l1.2-1.4Z"/>
      </g>
      <g class="st2">
        <path d="M246.1,278.3h.3c.4,0,.5,0,.6-.4l4.3-11.7h2l4.3,11.7c.1.4.3.4.6.4h.3v1.7h-1.1c-1,0-1.3-.2-1.6-1.1l-1-2.8h-5.1l-1,2.8c-.3.9-.6,1.1-1.6,1.1h-1.1v-1.7ZM254.4,274.4l-1.5-4.2c-.3-.7-.5-1.9-.5-1.9h0s-.3,1.2-.5,1.9l-1.5,4.2h4.1Z"/>
      </g>
      <g class="st2">
        <path d="M264.3,267.9h-2.8c-.3,0-.4.1-.4.4v.9h-1.7v-1.8c0-.9.3-1.2,1.2-1.2h9.5c.9,0,1.2.3,1.2,1.2v1.8h-1.7v-.9c0-.3-.2-.4-.4-.4h-2.8v12.1h-2v-12.1Z"/>
      </g>
      <g class="st2">
        <path d="M280.6,278.7l6.8-9.6c.5-.8,1-1.3,1-1.3h0s-.4,0-1,0h-4.4c-.3,0-.4.1-.4.4v.9h-1.8v-1.7c0-.9.4-1.2,1.2-1.2h8.8v1.3l-6.8,9.6c-.5.8-1,1.2-1,1.2h0s.4,0,1,0h4.9c.3,0,.4-.2.4-.4v-.9h1.8v1.7c0,.9-.4,1.2-1.2,1.2h-9.3v-1.3Z"/>
        <path d="M295.5,267.9h-1.3v-1.7h8.1c.9,0,1.2.4,1.2,1.2v1.7h-1.8v-.9c0-.3-.2-.4-.4-.4h-3.9v4.3h4.8v1.7h-4.8v4c0,.3.2.4.4.4h4c.3,0,.4-.2.4-.4v-.9h1.8v1.7c0,.9-.4,1.2-1.2,1.2h-6.1c-.9,0-1.2-.4-1.2-1.2v-10.8Z"/>
        <path d="M307.3,278.3h.8c.3,0,.4-.2.4-.4v-11.7h1.8l6.1,8.7c.5.7,1.2,1.9,1.2,1.9h0s-.1-1.1-.1-1.9v-7.5c0-.9.4-1.2,1.3-1.2h2v1.7h-.8c-.3,0-.4.1-.4.4v11.7h-1.8l-6.1-8.7c-.5-.7-1.1-1.9-1.1-1.9h0s.1,1.1.1,1.9v7.5c0,.9-.4,1.2-1.2,1.2h-2v-1.7Z"/>
      </g>
      <g class="st2">
        <path d="M331,266c1.9,0,5.2.8,5.2,3v1.3h-1.8v-.8c0-1.2-2-1.7-3.3-1.7-2.8,0-4.9,2.1-4.9,5.2s2.2,5.4,5,5.4,4.3-1.9,4.3-1.9l1.1,1.4s-2,2.3-5.4,2.3-7-3.2-7-7.2,3-7,6.9-7Z"/>
      </g>
      <g class="st2">
        <path d="M343.7,274l-3.5-5.6c-.3-.4-.4-.5-.8-.5h-.4v-1.7h.9c.9,0,1.3.1,1.9,1.1l2.1,3.5c.4.8.8,1.5.8,1.5h0s.4-.8.8-1.5l2.1-3.5c.5-.9.9-1.1,1.9-1.1h.9v1.7h-.4c-.4,0-.6,0-.9.5l-3.5,5.6v6h-2v-6Z"/>
      </g>
    </g>
    <path class="st0" d="M211.4,204c24.5,0,49,0,73.5,0,24.4,0,48.8,0,73.2,0,13.8,0,27.5,0,41.2,0v-5c-16.8,1.6-33.5,3.4-50.1,5.6-16.7,2.2-33.4,4.7-50.1,7.6-9.4,1.6-18.8,3.3-28.1,5.1-2.8.5-2.1,5.1.7,4.9,27.2-1.6,54.3-3.3,81.5-4.9,7.6-.5,15.2-.9,22.9-1.4,3.2-.2,3.2-5.2,0-5-27.2,1.6-54.3,3.3-81.5,4.9-7.6.5-15.2.9-22.9,1.4l.7,4.9c16.4-3.2,32.9-6.1,49.5-8.6s32.9-4.8,49.3-6.6c9.4-1.1,18.8-2.1,28.2-2.9,1.3-.1,2.5-1.1,2.5-2.5s-1.1-2.5-2.5-2.5c-24.5,0-49,0-73.5,0-24.4,0-48.8,0-73.2,0-13.8,0-27.5,0-41.2,0-3.2,0-3.2,5,0,5h0Z"/>
  </g>
</svg>