<?xml version="1.0" encoding="UTF-8"?>
<svg id="Layer_2" data-name="Layer 2" xmlns="http://www.w3.org/2000/svg" xmlns:xlink="http://www.w3.org/1999/xlink" viewBox="0 0 473.67 441.76">
  <defs>
    <style>
      .cls-1 {
        fill: #f48e76;
      }

      .cls-2 {
        fill: url(#linear-gradient-5);
      }

      .cls-3 {
        fill: url(#linear-gradient-6);
      }

      .cls-4 {
        fill: url(#linear-gradient-3);
      }

      .cls-5 {
        fill: url(#linear-gradient-2);
      }

      .cls-6, .cls-7, .cls-8 {
        stroke: #000;
      }

      .cls-6, .cls-8 {
        stroke-linecap: round;
        stroke-linejoin: round;
      }

      .cls-6, .cls-9 {
        fill: #fff;
      }

      .cls-10 {
        fill: #efefef;
      }

      .cls-11 {
        fill: #cecece;
      }

      .cls-12 {
        fill: url(#linear-gradient);
      }

      .cls-7 {
        fill: url(#linear-gradient-4);
        stroke-miterlimit: 10;
      }

      .cls-13 {
        fill: #66f;
      }

      .cls-8 {
        fill: none;
      }

      .cls-14 {
        fill: #cf89ff;
      }

      .cls-15 {
        fill: #babaf4;
      }

      .cls-16 {
        fill: #ff5b67;
      }

      .cls-17 {
        fill: #8f8fff;
      }

      .cls-18 {
        fill: #4949ba;
      }

      .cls-19 {
        fill: #a9b5c4;
      }

      .cls-20 {
        fill: #95a1af;
      }

      .cls-21 {
        fill: #383838;
      }

      .cls-22 {
        fill: #f9c3a5;
      }

      .cls-23 {
        fill: #b97ce8;
      }

      .cls-24 {
        fill: #6262dd;
      }
    </style>
    <linearGradient id="linear-gradient" x1="401.95" y1="307.05" x2="431.62" y2="307.05" gradientUnits="userSpaceOnUse">
      <stop offset=".16" stop-color="#ffbd00"/>
      <stop offset=".46" stop-color="#fab10d"/>
      <stop offset="1" stop-color="#f1972e"/>
    </linearGradient>
    <linearGradient id="linear-gradient-2" x1="307.45" y1="281.06" x2="437" y2="281.06" xlink:href="#linear-gradient"/>
    <linearGradient id="linear-gradient-3" x1="26.9" y1="212.26" x2="68.44" y2="212.26" gradientUnits="userSpaceOnUse">
      <stop offset="0" stop-color="#f5e6ff"/>
      <stop offset=".21" stop-color="#f8efff"/>
      <stop offset=".6" stop-color="#fdfbff"/>
      <stop offset="1" stop-color="#fff"/>
    </linearGradient>
    <linearGradient id="linear-gradient-4" x1="148.8" y1="357.62" x2="239.12" y2="357.62" xlink:href="#linear-gradient"/>
    <linearGradient id="linear-gradient-5" x1="199.39" y1="376.75" x2="302.22" y2="376.75" xlink:href="#linear-gradient"/>
    <linearGradient id="linear-gradient-6" x1="198.78" y1="376.75" x2="302.84" y2="376.75" xlink:href="#linear-gradient"/>
  </defs>
  <g id="Layer_1-2" data-name="Layer 1">
    <g>
      <g>
        <g>
          <rect class="cls-9" x="97.75" y=".8" width="286.02" height="379.76" rx="32.23" ry="32.23"/>
          <path class="cls-21" d="M350.31,381.36h-219.09c-19.02,0-34.49-11.99-34.49-26.72V26.72c0-14.73,15.47-26.72,34.49-26.72h219.09c19.02,0,34.49,11.99,34.49,26.72v327.91c0,14.73-15.47,26.72-34.49,26.72ZM131.21,1.59c-17.88,0-32.43,11.27-32.43,25.13v327.91c0,13.86,14.55,25.13,32.43,25.13h219.09c17.88,0,32.43-11.27,32.43-25.13V26.72c0-13.86-14.55-25.13-32.43-25.13h-219.09Z"/>
        </g>
        <path class="cls-21" d="M353.75,371.37H127.77c-9.49,0-17.22-5.6-17.22-12.48V22.46c0-6.88,7.72-12.48,17.22-12.48h225.98c9.49,0,17.22,5.6,17.22,12.48v336.43c0,6.88-7.72,12.48-17.22,12.48ZM127.77,11.58c-8.36,0-15.16,4.88-15.16,10.89v336.43c0,6,6.8,10.89,15.16,10.89h225.98c8.36,0,15.16-4.88,15.16-10.89V22.46c0-6-6.8-10.89-15.16-10.89H127.77Z"/>
      </g>
      <g>
        <g>
          <path class="cls-15" d="M146.34,151.53c-7.25-2.49-8.09-5.35-10.22-13.51-.78,6.5-1.13,8.9-3.5,12.31-.42.6-3.17,3.51-3.93,3.19,3.45,1.45,5.44,2.02,7.56,5.32,6.44,10.02.03,7.27,4.86-2.21,1.17-2.29,3.16-3.63,5.22-5.11Z"/>
          <path class="cls-15" d="M330.3,222.23c-6.6-3.91-6.84-6.87-7.28-15.3-2.08,6.21-2.9,8.49-5.92,11.35-.53.5-3.81,2.8-4.49,2.34,3.08,2.12,4.92,3.08,6.33,6.74,4.28,11.11-1.44,7.13,5.21-1.18,1.61-2.01,3.83-2.92,6.14-3.95Z"/>
          <path class="cls-15" d="M157.29,129.91c-5.29-2.9-5.56-5.23-6.13-11.85-1.47,4.94-2.06,6.76-4.36,9.08-.4.41-2.93,2.3-3.47,1.95,2.48,1.58,3.95,2.3,5.16,5.14,3.66,8.63-.95,5.65,4.07-1.07,1.21-1.62,2.94-2.39,4.73-3.27Z"/>
        </g>
        <g>
          <path class="cls-15" d="M88.86,202.41c-.29,1.29-1.57,2.1-2.85,1.81-1.29-.29-2.1-1.57-1.81-2.85s1.57-2.1,2.85-1.81c1.29.29,2.1,1.57,1.81,2.85Z"/>
          <path class="cls-15" d="M218.38,166.76c-.36,1.62-1.97,2.63-3.58,2.27-1.62-.36-2.63-1.97-2.27-3.58.36-1.62,1.97-2.63,3.58-2.27,1.62.36,2.63,1.97,2.27,3.58Z"/>
          <path class="cls-15" d="M282.54,132.07c-.32,1.42-1.73,2.31-3.14,1.99-1.42-.32-2.31-1.73-1.99-3.14.32-1.42,1.73-2.31,3.14-1.99s2.31,1.73,1.99,3.14Z"/>
          <path class="cls-15" d="M349.83,246.73c-.38,1.68-2.05,2.74-3.73,2.36s-2.74-2.05-2.36-3.73,2.05-2.74,3.73-2.36,2.74,2.05,2.36,3.73Z"/>
          <path class="cls-15" d="M137.14,69.82c-.4,1.78-2.16,2.9-3.94,2.5-1.78-.4-2.9-2.16-2.5-3.94s2.17-2.9,3.94-2.5,2.9,2.16,2.5,3.94Z"/>
        </g>
        <g>
          <path class="cls-15" d="M220.81,235.24c-3,9.89-5.5,19.93-7.48,30.07"/>
          <path class="cls-15" d="M242.23,235.56c.56,1.85,2.02,14.91,2.58,16.76"/>
          <path class="cls-15" d="M267.11,226.38c3.12,4.46,6.23,8.93,9.35,13.39"/>
          <path class="cls-15" d="M199.24,227.15c-8,8.13-15.17,17.08-21.36,26.66"/>
          <path class="cls-15" d="M168.4,264c-1.56,1.92-3.11,3.83-4.67,5.75"/>
          <path class="cls-15" d="M177.02,211.9c-9.08,6.87-18.25,13.62-27.51,20.24"/>
          <path class="cls-15" d="M165.96,189.65c-6.31,4.64-13.07,8.67-20.14,12.04"/>
          <path class="cls-15" d="M130.43,206.82c-4.93,1.92-9.54,4.66-13.59,8.08"/>
          <path class="cls-15" d="M99.16,145.53c15.23,3.42,30.46,6.83,45.69,10.25"/>
          <path class="cls-15" d="M121.75,179.91c7.12-.36,14.18-1.8,20.87-4.26"/>
          <path class="cls-15" d="M124.2,122.76c4.1.8,8.03,2.46,11.46,4.82"/>
          <path class="cls-15" d="M149.64,81.38c5.68,4.42,11.36,8.83,17.04,13.25"/>
          <path class="cls-15" d="M176.44,110.74c1.92,2.03,3.85,4.06,5.77,6.09"/>
          <path class="cls-15" d="M129.19,248.65c3.15-2.97,6.3-5.94,9.45-8.9"/>
        </g>
      </g>
      <ellipse class="cls-10" cx="249.3" cy="387.5" rx="224.37" ry="54.26"/>
      <g>
        <rect class="cls-24" x="335.23" y="285.35" width="101.77" height="77.06"/>
        <path class="cls-12" d="M401.95,302.07h29.67v8.33c0,.9-.73,1.62-1.62,1.62h-26.42c-.9,0-1.62-.73-1.62-1.62v-8.33h0Z"/>
        <polygon class="cls-5" points="307.45 276.78 410.31 276.78 437 285.34 335.24 285.34 307.45 276.78"/>
        <polygon class="cls-17" points="335.23 285.35 335.23 362.41 307.44 352.85 307.44 276.77 335.23 285.35"/>
        <polygon class="cls-24" points="335.24 285.34 323.49 302.07 291.02 289.25 307.45 276.78 335.24 285.34"/>
        <polygon class="cls-24" points="335.24 285.34 335.24 287.63 324.48 303.66 291.02 290.72 291.02 289.25 323.49 302.07 335.24 285.34"/>
        <polygon class="cls-18" points="335.24 285.34 353.36 302.07 455.54 302.07 437 285.34 335.24 285.34"/>
        <polygon class="cls-18" points="335.24 285.34 335.24 287.63 352.56 304.66 455.54 304.66 455.54 302.07 353.36 302.07 335.24 285.34"/>
      </g>
      <g>
        <path class="cls-19" d="M312.33,310.01c.21,2.17-7.57,2.42-12.54,9.65-4.99,7.23-8.76,12.87-8.76,12.87l-1.9.61-53.28,16.92-36.74-9.67s-63.42-6.45-65.23-7.25c-1.05-.46-.88-4.22-1.58-9.69-.51-3.82-1.47-8.49-3.6-13.45-5.18-11.98-14.21-18.5-14.21-18.5,0,0,.14-2.26,3.86-2.26s17.13,2.39,28.68,6.52c9.7,3.46,29.54,5.97,36.96,6.21,1.42.05,2.37.02,2.74-.11,2.25-.8,4.64-9.69,4.64-9.69l54.66,3.31,15.18.92-1.26,4.45s52.16,6.98,52.37,9.14Z"/>
        <path class="cls-20" d="M293.28,328.51l-4.14,4.64-53.28,16.92-36.74-9.67s-63.42-6.45-65.23-7.25c-1.05-.46-.88-4.22-1.58-9.69,10.18,1.64,23.12,2.74,31.45-.19,8.51-3,15.58-12.92,20.23-21.29,1.42.05,2.37.02,2.74-.11,2.25-.8,4.64-9.69,4.64-9.69l54.66,3.31c.49,3.92-.18,8.87-2.37,15.14,0,0-9.32,24.3,0,25.89,9.32,1.59,49.61-8.01,49.61-8.01Z"/>
        <path class="cls-21" d="M191.45,125.82s16.53-19.12,39.83-7.37c23.3,11.75,15.53,36.44,16.73,42.82,1.19,6.37,9.96,10.95,9.16,17.53-.8,6.57-3.99,8.75,3.88,15.73,7.87,6.97-60.83,21.11-69.6,13.35-8.76-7.77-10.16-19.42-5.58-24.65,4.58-5.23,2.13-12.2-.73-17.37-2.86-5.18-8.43-37.24,6.3-40.03Z"/>
        <path class="cls-22" d="M197.23,194.73s12.88-4.12,13.54-5.05c.66-.93,0-7.7,0-7.7,0,0-9.09-1.06-11.65-5.44-2.56-4.38-7.34-14.47-6.94-31.2.4-16.73,6.37-21.91,13.67-14.6,7.3,7.3,11.29,19.91,15.27,20.31,3.98.4,6.77-1.33,8.1,3.19,1.33,4.51-2.92,7.43-2.92,9.03s3.32,19.91,8.23,23.5c4.91,3.58,17.91,3.32,20.97,5.97s-10.08,20.23-42.94,22.07c-32.86,1.83-34.05-13.1-15.33-20.07Z"/>
        <path class="cls-14" d="M283.67,214.29l-.59.51c-.45.38-.94.83-1.5,1.31-1.12.97-2.45,2.13-4.03,3.58-4.76,4.33-8.76,8.57-11.02,11.04-1.27,1.39-1.99,2.23-1.99,2.23l.02.05c.1.83,1.26,10.75-.02,18.15-1.32,7.7-3.19,17.92-2.52,26.54.21,2.76.29,5.5.27,8.01-.05,5.4-.53,9.72-1.07,10.71-.4.72-3.04,1.45-7.52,1.99-1.29.16-2.74.3-4.33.41-4.06.33-9.07.53-14.83.53-15.8,0-40.77-3.58-43.96-4.92-3.19-1.32-2.52-1.72-2.92-5.58-.08-.86-.37-2.84-.75-5.45l-.49-3.3-.4-2.63c-1.12-7.28-2.5-16.28-3.31-22.1l-.08-.59c-.18-1.21-.32-2.26-.41-3.11-.92-7.84,2.79-15.14,2.79-15.14,0,0-1.13-1.53-3.65-7.1-2.53-5.58-9.1-16.13-10.15-19.06-1.07-2.92-1.74-5.58,10.21-11.01,11.95-5.45,15.8-4.65,15.8-4.65,0,0-4.78,1.86-5.18,4.25s8.89,8.36,33.33,7.17c24.42-1.19,30.13-13.41,30.13-13.41,0,0,1.07.27,10.1,3.31,9.02,3.06,19.52,12.09,20.44,14.08.59,1.26,0,2.04-2.37,4.16Z"/>
        <polygon class="cls-23" points="185.01 236.55 187.67 222.34 182.63 231.39 185.01 236.55"/>
        <polygon class="cls-23" points="264.54 232.96 264.54 223.67 267.71 229.45 264.54 232.96"/>
        <path class="cls-23" d="M264.54,251.16c-1.32,7.7-3.19,17.92-2.52,26.54.65,8.64,0,17.27-.8,18.72-.4.72-3.04,1.45-7.52,1.99.97-10.55,1.47-16.39-6.82-16.86-9.56-.53-55.51-7.7-57.35-7.17-1.86.53-2.61,9.02-2.61,9.02l-.49-3.3-.4-2.63-3.31-22.1-.08-.59s40.08,8.97,41.15,8.97,35.85-7.17,36.9-9.29c1.07-2.12,3.86-21.51,3.86-21.51l.02.05c.1.83,1.26,10.75-.02,18.15Z"/>
        <path class="cls-22" d="M286.25,286.73c-13.53,8.36-32.34,19.12-36.58,22.3-4.25,3.19-5.97,11.15-8.51,12.47-2.52,1.34-10.48,2.79-11.68,2.26-1.19-.53,3.58-8.36,4.25-11.01.65-2.64-.8-.94-3.73-.27-2.92.65-4.38.25-1.55-2.79,2.82-3.06,11.25-3.86,14.43-4.92,2.25-.75,4.09-3.01,6.47-5.96,1-1.23,2.1-2.58,3.35-4,1.59-1.8,5.42-5.29,9.58-9.11,6.95-6.36,14.86-13.54,15.12-15.04.25-1.56-4.56-18.45-7.98-30.11-1.27-4.37-2.36-8-2.9-9.83,2.26-2.47,6.26-6.71,11.02-11.04,1.58-1.45,2.92-2.61,4.03-3.58.56-.48,1.05-.92,1.5-1.31l.59-.51s.35,1.35.94,3.63c3.04,11.77,12.41,48.37,12.59,51.87.21,4.19,2.6,8.57-10.95,16.94Z"/>
        <path class="cls-9" d="M283.08,214.8c-.45.38-.94.83-1.5,1.31l1.5-1.31Z"/>
        <path class="cls-22" d="M199.12,326.12l-3.58,1.54-9.56-3.1s.5-1.89.1-1.98c-.4-.1-10.96-12.16-18.93-20.12-7.97-7.97-17.32-20.3-18.32-26.48-.86-5.35,16.89-49.91,21.65-61.74.73-1.82,1.16-2.87,1.16-2.87l12.33,22.93s-2.2,5.23-4.99,11.93c-4.72,11.36-11.15,26.91-11.53,28.34-.59,2.29,4.48,8.67,8.97,14.75,4.48,6.07,17.22,25.87,18.91,28.68,1.7,2.77,3.79,8.11,3.79,8.11Z"/>
        <path class="cls-1" d="M210.77,181.98s5.58-1.79,8.76-5.78l3.19-3.98s-10.55,23.7-10.75,21.91c-.2-1.79-1.19-12.15-1.19-12.15Z"/>
        <path class="cls-22" d="M312.33,310.01s15.93,1.95,21.51,10.85c5.58,8.9,5.44,18.58-4.12,26.15-9.56,7.57-39.7,17.6-55.03,19.39-15.33,1.79-32.06,5.38-32.06,5.38l-6.77-21.71,55.16-17.53s7.57-17.77,21.31-22.53Z"/>
        <polygon class="cls-1" points="291.02 332.54 312.34 323.26 295.44 324.64 291.02 332.54"/>
        <path class="cls-22" d="M114.51,291.51s-23.43-4.38-30.4,10.36c-6.97,14.74,7.97,29.27,21.31,36.25,13.34,6.97,55.6,22.94,57.59,23.5,1.99.56,15.49-18.35,12.31-21.22-3.19-2.88-43.53-20.2-43.53-20.2,0,0-1.03-14.34-17.29-28.68Z"/>
        <path class="cls-1" d="M131.79,320.19s-24.98-13.14-22.19-12.35,17.33,7.33,17.92,6.16c.6-1.18-6.94-17.04-6.94-17.04,0,0,8.11,8.09,11.21,23.23Z"/>
      </g>
      <g>
        <path class="cls-15" d="M83.31,192.02s10.17-9.96,19.99,0,6.68,29.37-1.19,36.7c-7.87,7.33-18,1.94-20.48-4.74-2.48-6.68-7.3-28.98,1.68-31.96Z"/>
        <path class="cls-15" d="M77.24,196s7.27-7.63,14.29,0c7.01,7.63,4.78,22.48-.85,28.09-5.63,5.61-12.87,1.49-14.64-3.63-1.77-5.12-5.22-22.18,1.2-24.46Z"/>
        <rect class="cls-15" x="11.74" y="189.4" width="71.87" height="46.14" rx="4.23" ry="4.23"/>
        <path class="cls-15" d="M37.96,298.29l-4.5,14.83L.15,422.77c-.5,1.62.26,3.36,1.78,4.12.5.26,1.04.36,1.55.36,1.48,0,2.88-.93,3.35-2.45l28.63-93.3,8.37-27.24s.02-15.39-5.86-5.97Z"/>
        <path class="cls-15" d="M87.49,422.77l-33.12-109.02-4.69-15.46c-5.88-9.42-5.85,5.97-5.85,5.97l8.43,27.51,28.55,93.03c.47,1.52,1.86,2.45,3.35,2.45.52,0,1.05-.1,1.55-.36,1.52-.76,2.28-2.5,1.78-4.12Z"/>
        <path class="cls-15" d="M43.83,304.26l-8.37,27.24-2-18.37,4.5-14.83c5.88-9.42,5.86,5.97,5.86,5.97Z"/>
        <path class="cls-15" d="M54.37,313.75l-2.1,18.03-8.43-27.51s-.03-15.39,5.85-5.97l4.69,15.46Z"/>
        <rect class="cls-15" x="4.04" y="189.4" width="71.87" height="46.14" rx="4.23" ry="4.23"/>
        <path class="cls-15" d="M21.86,203.49c0,3.41-2.77,6.18-6.18,6.18s-6.18-2.77-6.18-6.18,2.77-6.18,6.18-6.18,6.18,2.77,6.18,6.18Z"/>
        <path class="cls-15" d="M21.86,220.6c0,3.41-2.77,6.18-6.18,6.18s-6.18-2.77-6.18-6.18,2.77-6.18,6.18-6.18,6.18,2.77,6.18,6.18Z"/>
        <path class="cls-4" d="M28.94,196.3h37.46c1.13,0,2.04.92,2.04,2.04v27.83c0,1.13-.92,2.04-2.04,2.04H28.94c-1.13,0-2.04-.92-2.04-2.04v-27.83c0-1.13.92-2.04,2.04-2.04Z"/>
        <path class="cls-15" d="M59.92,182.18c-.52-.7-1.34-1.11-2.21-1.11h-25.9c-.83,0-1.62.38-2.14,1.02l-5.93,7.32h41.54l-5.35-7.22Z"/>
        <path class="cls-15" d="M45.73,185.74c0,1.07-.87,1.94-1.94,1.94s-1.94-.87-1.94-1.94.87-1.94,1.94-1.94,1.94.87,1.94,1.94Z"/>
        <path class="cls-15" d="M21.86,235.55v3.5c0,.85.69,1.53,1.53,1.53h39.48c.85,0,1.53-.69,1.53-1.53v-3.5H21.86Z"/>
        <path class="cls-15" d="M33.8,240.58v5.42c0,1.53,1.24,2.77,2.77,2.77h14.44c1.53,0,2.77-1.24,2.77-2.77v-5.42h-19.98Z"/>
        <path class="cls-15" d="M39.98,248.77v186.33c0,2.12,1.71,3.85,3.85,3.85s3.85-1.72,3.85-3.85v-186.33h-7.69Z"/>
        <rect class="cls-15" x="39.98" y="273.21" width="7.69" height="32.96"/>
        <path class="cls-15" d="M39.43,281.62h8.78c1.09,0,1.97.88,1.97,1.97v13.38c0,1.09-.88,1.97-1.97,1.97h-8.78c-1.09,0-1.97-.88-1.97-1.97v-13.38c0-1.09.88-1.97,1.97-1.97Z"/>
      </g>
      <g>
        <g>
          <polygon class="cls-7" points="239.12 317.01 161.32 405.78 148.8 398.22 163.74 309.45 226.6 309.45 239.12 317.01"/>
          <polygon class="cls-13" points="251.62 405.78 161.32 405.78 176.27 317.01 239.12 317.01 251.62 405.78"/>
          <path class="cls-21" d="M199.42,406.4h-38.09c-.18,0-.35-.08-.47-.22-.12-.14-.17-.32-.14-.5l14.95-88.77c.05-.3.31-.51.61-.51h58.41c.34,0,.62.28.62.62s-.28.62-.62.62h-57.89l-14.74,87.54h37.36c.34,0,.62.28.62.62s-.28.62-.62.62Z"/>
          <path class="cls-21" d="M213.95,309.64c-.34,0-.62-.28-.62-.62v-14.27c0-9.05-7.36-16.41-16.41-16.41s-16.41,7.36-16.41,16.41v14.27c0,.34-.28.62-.62.62s-.62-.28-.62-.62v-14.27c0-9.73,7.92-17.65,17.65-17.65s17.65,7.92,17.65,17.65v14.27c0,.34-.28.62-.62.62Z"/>
          <path class="cls-21" d="M223.51,322.37c-.34,0-.62-.28-.62-.62v-14.27c0-9.05-7.36-16.41-16.41-16.41s-16.41,7.36-16.41,16.41v14.27c0,.34-.28.62-.62.62s-.62-.28-.62-.62v-14.27c0-9.73,7.92-17.65,17.65-17.65s17.65,7.92,17.65,17.65v14.27c0,.34-.28.62-.62.62Z"/>
        </g>
        <g>
          <g>
            <polygon class="cls-2" points="302.22 347.65 211.92 413.41 199.39 405.84 199.39 340.09 289.7 340.09 302.22 347.65"/>
            <path class="cls-3" d="M211.92,414.03c-.11,0-.22-.03-.32-.09l-12.53-7.57c-.18-.11-.3-.31-.3-.53v-65.76c0-.34.28-.62.62-.62h90.3c.11,0,.22.03.32.09l12.53,7.57c.18.11.29.3.3.5,0,.21-.09.4-.25.53l-90.3,65.76c-.11.08-.24.12-.36.12ZM200.01,405.5l11.88,7.17,89.22-64.97-11.59-7h-89.51v64.79Z"/>
          </g>
          <g>
            <rect class="cls-9" x="211.92" y="347.65" width="90.3" height="65.76"/>
            <path class="cls-21" d="M302.22,414.03h-90.3c-.34,0-.62-.28-.62-.62v-65.76c0-.34.28-.62.62-.62h90.3c.34,0,.62.28.62.62v65.76c0,.34-.28.62-.62.62ZM212.54,412.79h89.07v-64.52h-89.07v64.52Z"/>
          </g>
          <path class="cls-21" d="M258.71,381.15c-11.73,0-21.27-9.54-21.27-21.27v-2.36c0-.34.28-.62.62-.62s.62.28.62.62v2.36c0,11.05,8.99,20.03,20.03,20.03s20.03-8.99,20.03-20.03v-2.36c0-.34.28-.62.62-.62s.62.28.62.62v2.36c0,11.73-9.54,21.27-21.27,21.27Z"/>
          <path class="cls-21" d="M268.17,340.28c-.34,0-.62-.28-.62-.62v-2.36c0-11.05-8.99-20.03-20.03-20.03s-20.03,8.99-20.03,20.03v2.36c0,.34-.28.62-.62.62s-.62-.28-.62-.62v-2.36c0-11.73,9.54-21.27,21.27-21.27s21.27,9.54,21.27,21.27v2.36c0,.34-.28.62-.62.62Z"/>
        </g>
      </g>
      <path class="cls-21" d="M273.93,32.15h-66.33c-.57,0-1.03-.46-1.03-1.03s.46-1.03,1.03-1.03h66.33c.57,0,1.03.46,1.03,1.03s-.46,1.03-1.03,1.03Z"/>
      <g>
        <g>
          <path class="cls-11" d="M245.15,390.19h6.15l-3.61,6.33h3.4v1.71h-6.5l3.63-6.33h-3.07v-1.71Z"/>
          <path class="cls-11" d="M259.73,394.79h-6.48c.09.57.34,1.03.75,1.36.41.34.92.51,1.55.51.75,0,1.4-.26,1.94-.79l1.7.8c-.42.6-.93,1.05-1.52,1.33-.59.29-1.29.43-2.11.43-1.26,0-2.29-.4-3.08-1.19-.79-.8-1.19-1.79-1.19-2.99s.4-2.24,1.19-3.05c.79-.81,1.78-1.22,2.97-1.22,1.27,0,2.29.41,3.09,1.22.79.81,1.19,1.88,1.19,3.21v.38ZM257.72,393.2c-.13-.45-.4-.81-.79-1.09-.39-.28-.85-.42-1.37-.42-.56,0-1.06.16-1.48.47-.27.2-.51.54-.74,1.04h4.37Z"/>
          <path class="cls-11" d="M260.52,390.19h2.02v.82c.46-.39.87-.65,1.24-.8s.75-.23,1.14-.23c.8,0,1.47.28,2.03.83.47.47.7,1.17.7,2.1v5.31h-1.99v-3.52c0-.96-.04-1.6-.13-1.91s-.24-.55-.45-.72c-.21-.16-.48-.25-.79-.25-.41,0-.76.14-1.05.41-.29.27-.49.65-.61,1.13-.06.25-.09.79-.09,1.63v3.22h-2.02v-8.04Z"/>
          <path class="cls-11" d="M276.64,391.82l-1.68.92c-.32-.33-.63-.56-.94-.69-.31-.13-.67-.19-1.08-.19-.75,0-1.36.22-1.83.67-.47.45-.7,1.03-.7,1.73s.22,1.24.67,1.67c.45.43,1.04.65,1.77.65.9,0,1.6-.31,2.11-.92l1.59,1.09c-.86,1.12-2.08,1.68-3.65,1.68-1.41,0-2.52-.42-3.32-1.26-.8-.84-1.2-1.82-1.2-2.94,0-.78.19-1.49.58-2.15.39-.65.93-1.17,1.63-1.54.7-.37,1.48-.56,2.34-.56.8,0,1.51.16,2.15.48s1.15.77,1.56,1.36Z"/>
          <path class="cls-11" d="M276.64,390.19h2.06l2.09,5.04,2.3-5.04h2.07l-5.03,10.98h-2.08l1.65-3.54-3.06-7.44Z"/>
        </g>
        <g>
          <path class="cls-11" d="M237.46,398.46h0c-.23,0-.45-.12-.57-.32l-5.62-9.15c-.38-.62-.4-1.37-.04-2s1-1.01,1.73-1.01h9c.73,0,1.37.38,1.73,1.01.35.63.34,1.38-.04,2l-.57-.35.57.35-5.62,9.15c-.12.2-.34.32-.57.32ZM232.96,387.32c-.34,0-.5.23-.56.33-.06.1-.16.36.01.65l5.05,8.22,5.05-8.22h0c.18-.29.07-.55.01-.65-.06-.1-.22-.33-.56-.33h-9Z"/>
          <path class="cls-11" d="M241.96,402.44h-9c-.73,0-1.37-.38-1.73-1.01s-.34-1.38.04-2h0s5.62-9.15,5.62-9.15c.12-.2.34-.32.57-.32h0c.23,0,.45.12.57.32l5.62,9.15c.38.62.4,1.37.04,2-.35.63-1,1.01-1.73,1.01ZM232.41,400.13c-.18.29-.07.55-.01.65.06.1.22.33.56.33h9c.34,0,.5-.23.56-.33.06-.1.16-.36-.01-.65l-5.05-8.22-5.05,8.22h0Z"/>
        </g>
      </g>
      <g>
        <g>
          <path class="cls-11" d="M376.78,332.37h6.15l-3.61,6.33h3.4v1.71h-6.5l3.63-6.33h-3.07v-1.71Z"/>
          <path class="cls-11" d="M391.36,336.97h-6.48c.09.57.34,1.03.75,1.36.41.34.92.51,1.55.51.75,0,1.4-.26,1.94-.79l1.7.8c-.42.6-.93,1.05-1.52,1.33-.59.29-1.29.43-2.11.43-1.26,0-2.29-.4-3.08-1.19-.79-.8-1.19-1.79-1.19-2.99s.4-2.24,1.19-3.05c.79-.81,1.78-1.22,2.97-1.22,1.27,0,2.29.41,3.09,1.22.79.81,1.19,1.88,1.19,3.21v.38ZM389.34,335.38c-.13-.45-.4-.81-.79-1.09-.39-.28-.85-.42-1.37-.42-.56,0-1.06.16-1.48.47-.27.2-.51.54-.74,1.04h4.37Z"/>
          <path class="cls-11" d="M392.15,332.37h2.02v.82c.46-.39.87-.65,1.24-.8s.75-.23,1.14-.23c.8,0,1.47.28,2.03.83.47.47.7,1.17.7,2.1v5.31h-1.99v-3.52c0-.96-.04-1.6-.13-1.91s-.24-.55-.45-.72c-.21-.16-.48-.25-.79-.25-.41,0-.76.14-1.05.41-.29.27-.49.65-.61,1.13-.06.25-.09.79-.09,1.63v3.22h-2.02v-8.04Z"/>
          <path class="cls-11" d="M408.27,334l-1.68.92c-.32-.33-.63-.56-.94-.69-.31-.13-.67-.19-1.08-.19-.75,0-1.36.22-1.83.67-.47.45-.7,1.03-.7,1.73s.22,1.24.67,1.67c.45.43,1.04.65,1.77.65.9,0,1.6-.31,2.11-.92l1.59,1.09c-.86,1.12-2.08,1.68-3.65,1.68-1.41,0-2.52-.42-3.32-1.26-.8-.84-1.2-1.82-1.2-2.94,0-.78.19-1.49.58-2.15.39-.65.93-1.17,1.63-1.54.7-.37,1.48-.56,2.34-.56.8,0,1.51.16,2.15.48s1.15.77,1.56,1.36Z"/>
          <path class="cls-11" d="M408.27,332.37h2.06l2.09,5.04,2.3-5.04h2.07l-5.03,10.98h-2.08l1.65-3.54-3.06-7.44Z"/>
        </g>
        <g>
          <path class="cls-11" d="M369.08,340.64h0c-.23,0-.45-.12-.57-.32l-5.62-9.15c-.38-.62-.4-1.37-.04-2s1-1.01,1.73-1.01h9c.73,0,1.37.38,1.73,1.01.35.63.34,1.38-.04,2l-.57-.35.57.35-5.62,9.15c-.12.2-.34.32-.57.32ZM364.58,329.5c-.34,0-.5.23-.56.33-.06.1-.16.36.01.65l5.05,8.22,5.05-8.22h0c.18-.29.07-.55.01-.65-.06-.1-.22-.33-.56-.33h-9Z"/>
          <path class="cls-11" d="M373.59,344.62h-9c-.73,0-1.37-.38-1.73-1.01s-.34-1.38.04-2h0s5.62-9.15,5.62-9.15c.12-.2.34-.32.57-.32h0c.23,0,.45.12.57.32l5.62,9.15c.38.62.4,1.37.04,2-.35.63-1,1.01-1.73,1.01ZM364.04,342.31c-.18.29-.07.55-.01.65.06.1.22.33.56.33h9c.34,0,.5-.23.56-.33.06-.1.16-.36-.01-.65l-5.05-8.22-5.05,8.22h0Z"/>
        </g>
      </g>
      <g>
        <rect class="cls-6" x="307.49" y="140.41" width="102.27" height="31.14" rx="12" ry="12" transform="translate(-20.67 60.7) rotate(-9.4)"/>
        <g>
          <path class="cls-16" d="M346.71,154.03v.06c1.09,8.05-10.46,16.71-10.46,16.71-15.65-6.44-14.87-12.47-14.87-12.47-.51-3.78,2.31-7.27,6.28-7.81,2.03-.28,3.99.27,5.46,1.39,1.05-1.94,3.05-3.38,5.49-3.72,3.97-.54,7.6,2.07,8.11,5.84Z"/>
          <g>
            <path class="cls-21" d="M354.55,151.77c.48-.47.92-1.02,1.3-1.64.38-.62.65-1.27.81-1.94l.68-.11-.43,2.4c-.43.85-.97,1.62-1.63,2.31-.66.69-1.29,1.21-1.9,1.57l-.23-1.55c.46-.22.92-.57,1.41-1.04ZM356.69,151.37l.39-.78-.17-.11-.25-2.29,2.58-.43,2.57,15.5-3.06.51-2.05-12.4Z"/>
            <path class="cls-21" d="M370.1,162.36c-1.51.25-2.75.17-3.72-.24s-1.74-1.16-2.32-2.25c-.58-1.09-1.04-2.63-1.37-4.63-.34-2.04-.41-3.68-.21-4.94.2-1.26.69-2.24,1.49-2.94.79-.7,1.94-1.17,3.42-1.42,1.48-.25,2.71-.17,3.69.24.97.41,1.75,1.17,2.33,2.3.58,1.13,1.04,2.71,1.38,4.75.33,1.99.4,3.6.21,4.82-.19,1.22-.67,2.18-1.45,2.88s-1.93,1.17-3.44,1.42ZM369.77,160.47c.76-.12,1.32-.4,1.68-.82.36-.42.57-1.09.62-2.01.05-.92-.07-2.24-.35-3.96-.29-1.75-.61-3.05-.97-3.91-.36-.86-.78-1.43-1.25-1.7-.47-.27-1.08-.35-1.82-.22-.71.12-1.25.38-1.62.79-.37.41-.58,1.08-.63,2.01-.06.93.06,2.27.35,4.01.29,1.72.6,3,.94,3.86.34.86.76,1.42,1.24,1.7s1.08.36,1.81.24Z"/>
            <path class="cls-21" d="M375.53,145.07l3.21-.53,1.16,7.01.96-.16,4.23-7.9,3.91-.65-5.21,8.37,8.23,7.05-4.06.67-6.9-6.32-.96.16,1.2,7.27-3.21.53-2.57-15.5Z"/>
          </g>
        </g>
      </g>
      <g>
        <polygon class="cls-16" points="299.1 86.26 294.91 104.95 311.42 98.84 299.1 86.26"/>
        <rect class="cls-8" x="274.48" y="77.59" width="54.42" height="38.76" rx="9.95" ry="9.95" transform="translate(28.51 -63.63) rotate(12.63)"/>
      </g>
    </g>
  </g>
</svg>