<?xml version="1.0" encoding="UTF-8"?>
<svg id="Layer_2" data-name="Layer 2" xmlns="http://www.w3.org/2000/svg" xmlns:xlink="http://www.w3.org/1999/xlink" viewBox="0 0 141.51 27.96">
  <defs>
    <style>
      .cls-1 {
        fill: url(#radial-gradient-8);
      }

      .cls-1, .cls-2, .cls-3, .cls-4, .cls-5, .cls-6, .cls-7, .cls-8, .cls-9, .cls-10, .cls-11, .cls-12, .cls-13 {
        stroke-width: 0px;
      }

      .cls-2 {
        fill: #313743;
      }

      .cls-3 {
        fill: url(#radial-gradient-12);
      }

      .cls-4 {
        fill: url(#radial-gradient-2);
      }

      .cls-5 {
        fill: url(#radial-gradient-7);
      }

      .cls-6 {
        fill: url(#radial-gradient-5);
      }

      .cls-7 {
        fill: url(#radial-gradient);
      }

      .cls-8 {
        fill: url(#radial-gradient-10);
      }

      .cls-9 {
        fill: url(#radial-gradient-6);
      }

      .cls-10 {
        fill: url(#radial-gradient-9);
      }

      .cls-11 {
        fill: url(#radial-gradient-3);
      }

      .cls-12 {
        fill: url(#radial-gradient-11);
      }

      .cls-13 {
        fill: url(#radial-gradient-4);
      }
    </style>
    <radialGradient id="radial-gradient" cx="57.08" cy="10.04" fx="57.08" fy="10.04" r="79.88" gradientUnits="userSpaceOnUse">
      <stop offset="0" stop-color="#c68dfe"/>
      <stop offset="1" stop-color="#66f"/>
    </radialGradient>
    <radialGradient id="radial-gradient-2" cx="57.08" cy="10.04" fx="57.08" fy="10.04" r="79.88" xlink:href="#radial-gradient"/>
    <radialGradient id="radial-gradient-3" cx="57.08" cy="10.04" fx="57.08" fy="10.04" r="79.88" xlink:href="#radial-gradient"/>
    <radialGradient id="radial-gradient-4" cx="57.08" fx="57.08" r="79.88" xlink:href="#radial-gradient"/>
    <radialGradient id="radial-gradient-5" cx="57.08" cy="10.04" fx="57.08" fy="10.04" r="79.88" xlink:href="#radial-gradient"/>
    <radialGradient id="radial-gradient-6" cx="57.08" cy="10.04" fx="57.08" fy="10.04" r="79.88" xlink:href="#radial-gradient"/>
    <radialGradient id="radial-gradient-7" cx="57.08" cy="10.04" fx="57.08" fy="10.04" r="79.88" xlink:href="#radial-gradient"/>
    <radialGradient id="radial-gradient-8" cx="57.08" fx="57.08" r="79.88" xlink:href="#radial-gradient"/>
    <radialGradient id="radial-gradient-9" cx="57.08" cy="10.04" fx="57.08" fy="10.04" r="79.88" xlink:href="#radial-gradient"/>
    <radialGradient id="radial-gradient-10" cx="57.08" cy="10.04" fx="57.08" fy="10.04" r="79.88" xlink:href="#radial-gradient"/>
    <radialGradient id="radial-gradient-11" cx="57.08" cy="10.04" fx="57.08" fy="10.04" r="79.88" xlink:href="#radial-gradient"/>
    <radialGradient id="radial-gradient-12" cx="57.08" cy="10.04" fx="57.08" fy="10.04" r="79.88" xlink:href="#radial-gradient"/>
  </defs>
  <g id="Layer_1-2" data-name="Layer 1">
    <g>
      <g>
        <path class="cls-2" d="m24.91,2.94h5.67l-3.33,5.83h3.14v1.57h-5.99l3.34-5.83h-2.83v-1.57Z"/>
        <path class="cls-2" d="m38.35,7.18h-5.97c.09.53.32.95.69,1.26.37.31.85.47,1.43.47.69,0,1.29-.24,1.79-.73l1.57.74c-.39.55-.86.96-1.4,1.23-.54.27-1.19.4-1.94.4-1.16,0-2.11-.37-2.84-1.1-.73-.73-1.1-1.65-1.1-2.75s.36-2.07,1.09-2.81c.73-.75,1.64-1.12,2.74-1.12,1.17,0,2.11.37,2.85,1.12.73.75,1.1,1.73,1.1,2.96v.35Zm-1.86-1.46c-.12-.41-.36-.75-.73-1.01-.36-.26-.78-.39-1.26-.39-.52,0-.97.15-1.36.44-.25.18-.47.5-.68.96h4.03Z"/>
        <path class="cls-2" d="m39.08,2.94h1.86v.76c.42-.36.8-.6,1.15-.74s.69-.21,1.05-.21c.73,0,1.36.26,1.87.77.43.44.65,1.08.65,1.93v4.89h-1.84v-3.24c0-.88-.04-1.47-.12-1.76s-.22-.51-.41-.66c-.2-.15-.44-.23-.73-.23-.38,0-.7.13-.97.38-.27.25-.46.6-.56,1.04-.05.23-.08.73-.08,1.5v2.97h-1.86V2.94Z"/>
        <path class="cls-2" d="m53.93,4.43l-1.55.85c-.29-.3-.58-.51-.86-.63-.28-.12-.62-.18-1-.18-.7,0-1.26.21-1.69.62-.43.41-.64.95-.64,1.59s.21,1.14.62,1.54c.41.4.96.6,1.63.6.83,0,1.48-.28,1.94-.85l1.47,1c-.79,1.03-1.91,1.55-3.36,1.55-1.3,0-2.32-.39-3.06-1.16-.74-.77-1.11-1.67-1.11-2.71,0-.72.18-1.38.54-1.98.36-.6.86-1.08,1.5-1.42.64-.34,1.36-.52,2.15-.52.74,0,1.4.15,1.98.44s1.06.71,1.44,1.25Z"/>
        <path class="cls-2" d="m53.93,2.94h1.9l1.92,4.65,2.12-4.65h1.9l-4.64,10.11h-1.92l1.52-3.26-2.81-6.85Z"/>
      </g>
      <g>
        <path class="cls-7" d="m34.98,17.12h-3.23c0-.23-.02-.4-.06-.5-.14-.29-.5-.44-1.06-.44-.32,0-.6.06-.84.17-.26.13-.41.3-.47.52-.05.2.03.35.24.46.13.06.54.19,1.23.39,1.11.31,1.83.54,2.17.7,1.25.6,1.7,1.57,1.34,2.91-.21.8-.67,1.51-1.36,2.14-1.15,1.03-2.63,1.55-4.45,1.55-1.43,0-2.5-.31-3.22-.93-.81-.69-1.05-1.63-.72-2.83h3.3c-.02.29-.02.5.03.64.14.42.58.63,1.31.63.43,0,.8-.07,1.12-.21.31-.14.51-.35.58-.63.07-.25,0-.43-.2-.55-.1-.05-.37-.16-.82-.31-1.35-.42-2.25-.74-2.7-.96-1.13-.57-1.52-1.51-1.17-2.83.27-1.02.86-1.83,1.75-2.42.48-.32.97-.55,1.46-.67.7-.17,1.45-.26,2.24-.26,1.74,0,2.86.46,3.35,1.37.27.5.33,1.19.18,2.07Z"/>
        <path class="cls-4" d="m38.27,20.5l-.39,1.45h6.06l-.76,2.82h-9.32l2.91-10.85h9.17l-.76,2.82h-5.91l-.37,1.37h5.09l-.64,2.39h-5.09Z"/>
        <path class="cls-11" d="m49.88,13.93l-2.15,8.03h4.85l-.76,2.82h-8.11l2.91-10.85h3.26Z"/>
        <path class="cls-13" d="m58.48,13.93l-2.15,8.03h4.85l-.76,2.82h-8.11l2.91-10.85h3.26Z"/>
        <path class="cls-6" d="m65.32,20.5l-.39,1.45h6.06l-.76,2.82h-9.32l2.91-10.85h9.17l-.76,2.82h-5.91l-.37,1.37h5.09l-.64,2.39h-5.09Z"/>
        <path class="cls-9" d="m75.03,21.04l-1,3.74h-3.26l2.91-10.85h5.23c1.19,0,2.08.16,2.67.47,1.04.55,1.38,1.47,1.03,2.78s-1.19,2.16-2.54,2.67c.54.2.88.6,1.01,1.21.09.48,0,1.23-.25,2.25-.13.57-.19.94-.17,1.12,0,.11.03.22.07.35h-3.39c0-.31.08-.77.22-1.38.2-.89.22-1.49.06-1.81-.12-.24-.3-.39-.56-.47-.15-.05-.38-.07-.69-.07h-1.35Zm1.19-4.45l-.56,2.11h1.86c.39,0,.67-.03.84-.1.41-.16.69-.5.82-.99s.02-.81-.35-.95c-.13-.05-.38-.07-.74-.07h-1.87Z"/>
        <path class="cls-5" d="m85.3,21.46l-.89,3.32h-3.26l2.91-10.85h5.16c.98,0,1.72.12,2.21.37.56.29.95.75,1.16,1.38.21.64.21,1.35,0,2.11-.25.93-.74,1.72-1.47,2.38-.95.85-2.15,1.28-3.61,1.28h-2.2Zm1.3-4.86l-.62,2.32h1.66c.39,0,.7-.07.93-.21.37-.22.61-.55.73-.99.14-.53.03-.87-.33-1.03-.14-.06-.36-.09-.66-.09h-1.7Z"/>
        <path class="cls-1" d="m99.53,13.68c1.39,0,2.46.4,3.22,1.2.99,1.04,1.23,2.54.71,4.48-.52,1.93-1.55,3.42-3.1,4.47-1.18.8-2.49,1.2-3.93,1.2s-2.53-.4-3.29-1.2c-.99-1.05-1.23-2.53-.71-4.45s1.57-3.48,3.11-4.49c1.22-.8,2.55-1.2,3.99-1.2Zm-.82,2.69c-.71,0-1.35.32-1.91.95-.49.55-.85,1.23-1.06,2.04s-.23,1.49-.03,2.03c.23.63.71.95,1.44.95s1.38-.32,1.95-.95c.49-.55.85-1.23,1.06-2.03s.23-1.52.03-2.05c-.23-.63-.72-.95-1.47-.95Z"/>
        <path class="cls-10" d="m106.84,21.04l-1,3.74h-3.26l2.91-10.85h5.23c1.19,0,2.08.16,2.67.47,1.04.55,1.38,1.47,1.03,2.78s-1.18,2.16-2.54,2.67c.54.2.88.6,1.01,1.21.09.48,0,1.23-.25,2.25-.13.57-.19.94-.17,1.12,0,.11.03.22.07.35h-3.39c0-.31.08-.77.22-1.38.2-.89.22-1.49.06-1.81-.12-.24-.3-.39-.56-.47-.15-.05-.38-.07-.69-.07h-1.35Zm1.19-4.45l-.56,2.11h1.86c.39,0,.67-.03.84-.1.41-.16.69-.5.82-.99s.01-.81-.35-.95c-.13-.05-.38-.07-.74-.07h-1.87Z"/>
        <path class="cls-8" d="m121.25,16.75l-2.15,8.03h-3.26l2.15-8.03h-3.13l.76-2.82h9.48l-.76,2.82h-3.09Z"/>
        <path class="cls-12" d="m125.2,23.24l-.94,1.54h-3.24l6.88-10.85h3.27l1.07,10.85h-3.34l-.09-1.54h-3.62Zm1.36-2.24h2.12l-.16-3.2-1.96,3.2Z"/>
        <path class="cls-3" d="m138.81,13.93l-2.15,8.03h4.85l-.76,2.82h-8.11l2.91-10.85h3.26Z"/>
      </g>
      <g>
        <path class="cls-2" d="m11.01,21.2s0,0,0,0c-.4,0-.76-.21-.97-.54L.5,5.12C-.14,4.07-.17,2.8.43,1.72S2.13,0,3.37,0h15.29c1.23,0,2.33.64,2.93,1.72.6,1.08.58,2.35-.07,3.4l-.97-.59.97.59-9.54,15.54c-.21.34-.57.54-.97.54ZM3.37,2.27c-.58,0-.86.39-.95.56-.09.17-.28.61.02,1.1l8.57,13.96L19.58,3.93h0c.3-.49.12-.93.02-1.1-.09-.17-.37-.56-.95-.56H3.37Z"/>
        <path class="cls-2" d="m18.66,27.96H3.37c-1.23,0-2.33-.64-2.93-1.72s-.58-2.35.07-3.4h0S10.04,7.31,10.04,7.31c.21-.34.57-.54.97-.54,0,0,0,0,0,0,.4,0,.76.21.97.54l9.54,15.54c.65,1.05.67,2.32.07,3.4-.6,1.08-1.7,1.72-2.93,1.72Zm-16.22-3.93c-.3.49-.12.93-.02,1.1.09.17.37.56.95.56h15.29c.58,0,.86-.39.95-.56.09-.17.28-.61-.02-1.1l-8.57-13.96L2.44,24.03h0Z"/>
      </g>
    </g>
  </g>
</svg>