<?xml version="1.0" encoding="UTF-8"?>
<svg id="Layer_2" xmlns="http://www.w3.org/2000/svg" xmlns:xlink="http://www.w3.org/1999/xlink" version="1.1" viewBox="0 0 559.3 485">
  <!-- Generator: Adobe Illustrator 29.5.1, SVG Export Plug-In . SVG Version: 2.1.0 Build 141)  -->
  <defs>
    <style>
      .st0 {
        fill: none;
      }

      .st1 {
        fill: #ffbd00;
      }

      .st2 {
        fill: #f8ac13;
      }

      .st3 {
        fill: #303744;
      }

      .st4 {
        fill: #f5a220;
      }

      .st5 {
        fill: #f8ab15;
      }

      .st6 {
        fill: #9450e0;
      }

      .st7 {
        fill: #fbb40a;
      }

      .st8 {
        fill: #f7aa16;
      }

      .st9 {
        fill: #fab20c;
      }

      .st10 {
        fill: #ffdf85;
      }

      .st11 {
        fill: #f49e25;
      }

      .st12 {
        fill: #f6a41e;
      }

      .st13 {
        fill: #f9af0f;
      }

      .st14 {
        fill: #fab00e;
      }

      .st15 {
        fill: #66f;
      }

      .st16 {
        isolation: isolate;
      }

      .st17 {
        fill: #258399;
      }

      .st18 {
        fill: #c4c4c4;
      }

      .st19 {
        fill: #fcb608;
      }

      .st20 {
        clip-path: url(#clippath-1);
      }

      .st21 {
        clip-path: url(#clippath-2);
      }

      .st22 {
        fill: #f4a122;
      }

      .st23 {
        fill: #f4a023;
      }

      .st24 {
        fill: #fff;
      }

      .st25 {
        fill: #f9ae11;
      }

      .st26 {
        fill: #ffbc01;
      }

      .st27 {
        fill: #fdb707;
      }

      .st28 {
        fill: #f49f24;
      }

      .st29 {
        fill: #c28fef;
      }

      .st30 {
        fill: #f6a61a;
      }

      .st31 {
        fill: #fbb30b;
      }

      .st32 {
        fill: #f9af10;
      }

      .st33 {
        fill: #ff9d33;
      }

      .st34 {
        fill: #febb02;
      }

      .st35 {
        fill: #f7a719;
      }

      .st36 {
        fill: #fab10d;
      }

      .st37 {
        fill: #ffce31;
      }

      .st38 {
        fill: #fdb805;
      }

      .st39 {
        fill: #3baacf;
      }

      .st40 {
        fill: #f5a31f;
      }

      .st41 {
        fill: #f6a51c;
      }

      .st42 {
        fill: #feba03;
      }

      .st43 {
        fill: #f7a917;
      }

      .st44 {
        fill: #f9ad12;
      }

      .st45 {
        fill: #f5a221;
      }

      .st46 {
        fill: #e5e5e5;
        fill-rule: evenodd;
      }

      .st47 {
        fill: #f8ab14;
      }

      .st48 {
        clip-path: url(#clippath);
      }

      .st49 {
        fill: #f6a61b;
      }

      .st50 {
        fill: #fcb509;
      }

      .st51 {
        fill: #f7a818;
      }

      .st52 {
        fill: #454749;
      }

      .st53 {
        fill: #fdb904;
      }
    </style>
    <clipPath id="clippath">
      <polygon class="st0" points="69.1 316 54.9 413.7 80.3 424.6 78 318.2 69.1 316"/>
    </clipPath>
    <clipPath id="clippath-1">
      <polygon class="st0" points="93.2 311.4 121.8 421.7 162.6 408.1 111.6 302.6 93.2 311.4"/>
    </clipPath>
    <clipPath id="clippath-2">
      <polygon class="st0" points="411.4 9.7 474.4 108.4 507.6 89.5 419.9 1.7 411.4 9.7"/>
    </clipPath>
  </defs>
  <g id="Layer_1-2">
    <g>
      <g>
        <path d="M532.5,82.4l6.6-15.7-14.7-8.5-2.1-16.8h-17l-10.3-13.5-14.7,8.5-15.6-6.6-8.5,14.7-16.8,2.1v4.3c.3.4.6.9.9,1.3v-4.9l16.5-2.1,8.3-14.4,15.3,6.5,14.4-8.3,10,13.2h16.6l2.1,16.5,14.4,8.3-6.5,15.3,8.3,14.4-13.2,10.1v16.6l-16.5,2.1-8.3,14.4-15.3-6.4-14.4,8.3-10-13.2h-16.6l-.5-4.2c-.3.2-.6.3-.9.5l.6,4.7h17l10.3,13.5,14.7-8.5,15.6,6.6,8.5-14.7,16.8-2.1v-17l13.5-10.3-8.5-14.7h0Z"/>
        <g id="_66">
          <path class="st3" d="M507.6,89.5L421.2,1.8c-.3-.3-.9-.4-1.2,0-1.9,1.7-8.4,7.7-8.5,7.9-.3.3-2.6,3.4-4.5,5.7-4-4.2-7.8-7.1-11.3-8.2-.8-5.9-5.1-6.3-9-6.8-.3,0-5.1-3.1-15.4,6.3h0c-4.5,3.7-9.9,9.2-11.2,13.3-5.5,17.4,7.2,68.7,9,75.7l-11.3,5.2-.2-1.4c0-.5-.6-.9-1.1-.7l-79.3,20-5-11c1-.3,1.9-.7,2.8-1.2.7,1.4,3.1,2.1,4.7,2.2,4.9.4,14.5-4.1,20-13.2.2-.4.1-.9-.3-1.2-8.6-5.7-12.4-16.5-19-24.8-5.7-7.2-13.6-12.5-22.4-15.1-4.7-1.4-8.8-1.6-12.3-.8-1.8.4-7.6,2.2-9.3,6.9-.2.7-.4,1.3-.6,2-.7,3.2-1.2,3.5-3.4,4.3-4.8,1.8-8,5.8-9.9,10.5-2.1,5.5-1.6,10.7-2.6,16-3.6,17.9,2.7,33.2,21.1,30,2.7-.5,5.4-1.1,8.1-1.9l1.6,8.4c-17.9,8.7-26,19.4-33.7,26.2-5.6,5.3-8.8,12.5-9.1,20.2l-2,51.3c0,.5.4.9.9.9h4.3c0-.1-3.1,13.9-3.1,13.9-16.9.3-64,2-79.8,8.3-3.1,1.2-10,7.8-9.1,12.1-2.4,5.3-4,11.8-5,17.9l-44.5,34.9c-.2.1-.3.4-.3.6l-14.8,96.8c0,.4.2.8.5,1,26.5,11.4,25,10.9,25.4,10.9s41.2-2.8,41.5-2.9c0,0,41-13.6,40.9-13.6.3-.1-2.5,2.2,46.1-39.1.3-.3.4-.7.2-1.1l-43.4-89c-.2-.4-.7-.6-1.1-.4l-6.1,2.6c-2.9-6.2-6.8-11.2-10.5-15.1h.2c26.6,4.5,52.6,12.3,83.4-6,.4-.2.7-.5,1-.7-3.4,15.5-5.6,39.8,8.1,55.7,9.9,11.4,26.2,16.7,48.7,15.9l24,127.3h1.8l-24-127.4c11.5-.6,23.5-2.7,34.5-5.3,4.8-1.1,9.2-2.2,13.8-1l1.9.5c7.3,38.2,15.2,86.9,18.7,133.2h1.8c-3.4-46.1-11.3-94.5-18.6-132.7,92.7,24.7,88.8,23.8,89.2,23.7.3,0,.6-.3.7-.7l1.2-4.9,13.5,2.8c2.3,4,13.6,10.9,18.1,8.9,13.8-6,19.3-48,16.4-61.5-1.6-7.5-4.4-12.5-13.1-12.6-1.6,0-3,1-3.4,2.5-.9,2.8-3.9,11.5-8.1,20,.4,0,.3.1,5,2.9.4.2.6.8.3,1.2-.2.4-.8.6-1.2.3-4.5-2.7-4.7-2.7-4.9-3-.6,1.1-1.1,2.2-1.8,3.2.1,0,4.3,2.6,4.6,2.8.4.2.6.8.3,1.2-.3.4-.8.6-1.2.3-.1,0-4.1-2.4-3.8-2.3l-.8-.5c-.9,1.4-1.7,2.8-2.7,4,.1,0,4.5,2.7,4.4,2.6.7.4.5,1.5-.3,1.6-.2,0-.4,0-.6-.1-2.9-1.7-3.8-2.2-3.9-2.3.2.1,2.7,1.6-.7-.4-2,2.5-4.1,4.5-6.3,5.7-.6.3-1,.8-1.4,1.2l-3.2-1,3.1-12.8c.1-.4-.1-.8-.5-1-.7-.3-70-32.9-94.7-38.4-4-.9-9.6-1.7-16.9-2.4-3.5-15.4-6.5-26.9-6.9-28.4l8.5-79,31.1-16.8c.3-.2.5-.6.5-.9l-.5-3.1c4.7-1.2,28.3-8.3,31.8-23.1,3.8-16.3-.8-39.4-6.4-58.1l37,78.2c.2.4.8.6,1.2.4.1,0,37.7-20.1,48.2-25.6l32.4-19.2c.5-.3.6-1,.2-1.4h0v-.3ZM246.7,99.4c-.2-.7-1.2-.8-1.6-.2-1.6,2.6-5.7,3.1-8.6,0-4.2-4.3-1.8-8.5,2.1-8.9,2.3-.2,5,.7,6.7,2.2.7.7,1.8-.2,1.4-1.1-.8-1.7-2-3.4-2.9-5,7.1-3.8,12.3-10.8,14-18.6,7.9,5.5,16.6,15.1,19.6,23.7,2.8,8-1.3,11.2-2.2,12.6-3.7,3.2-10,3.1-15.9,2.7-.5,0-.9.3-1,.8s.3.9.8.9c3.7.3,7.5.4,11.1-.3l5.4,11.8c-.2,4.3-1.8,9.6-5.3,12-5.1,3.6-12.6.6-18-2.4l-1.6-8.7c3.4-1.1,6.8-2.4,10-3.9.7-.3.7-1.2,0-1.6-6.7-3.7-12-9.7-14.1-16h.1ZM120.1,264.6c1.2,1,2.7,1.7,4.4,1.5-.2,2.2,0,4.7.3,7.4l-.4-.2c-.3-.2-.7-.1-1,0l-7.2,5.7c.9-5,2.2-10,4-14.4h-.1ZM115.6,281.5l8.3-6.5,1.2.7c.5,2.9,1.2,6,2,9.1l-12.9,8.2c.3-3.2.7-7.2,1.4-11.4h0ZM144.1,267.4c2.5,4.5,5.1,9.9,7.6,16.4l-3.6,1.5-3.9-10.2c-.2-.5-.8-.7-1.3-.4l-7.7,4.9-8.6-5c-.5-3.4-.7-6.6-.4-9.2h.2c2.8,6.1,11.4,4.5,17.6,2.1h0ZM127.9,264.2c1.5-1.5,2.6-3.6,3.3-5.1,1.4,2.2,4.6,5.5,10.4,4.3.5.8,1,1.6,1.6,2.5-5.4,2-13.2,3.7-15.3-1.7h0ZM143,276.7l3.6,9.2-15.3,6.5c-.7-2.2-1.4-4.5-2.1-6.9l13.9-8.8h0ZM128.7,283.7c-.6-2.3-1.2-4.6-1.6-6.9l6.5,3.8-4.9,3.1h0ZM114,295.2l13.5-8.6c.6,2.3,1.3,4.5,2,6.6l-15.8,6.7c0-1.8.2-3.4.3-4.6h0ZM72.1,315.7l41.5-32.5c-.6,4.2-1,8-1.2,11l-35.4,22.5-4.9-1ZM112.2,296.4c0,1.2-.2,2.7-.2,4.2,0,0-2.1.9-1.9.8,0,0-25.5,12.2-22.3,10.5l24.4-15.5h0ZM81.2,422.8l-3.1-104.6,15.2-6.8,27.2,108.6-39.2,2.7h-.1ZM160,291.5c.1.5.6.8,1.1.7.5-.1.8-.6.7-1.1-.7-3-1.6-5.8-2.7-8.4l5.3-2.2,42.8,87.7-44.4,37.8-51-103.2c2.5-1,14.1-6,18.6-7.8,2.3,6.7,4.4,11.7,4.6,12.2.2.4.6.6.9.5.6,0,.9-.7.7-1.2,0-.1-2.2-5.3-4.6-12.2l25.5-10.8c1.1,2.5,2,5.2,2.6,8.1h-.1ZM156.6,281.7l-3.2,1.4c-2.6-6.4-5.1-11.9-7.6-16.3,0,0,.2,0,.2-.1,3.8,3.8,7.7,8.8,10.6,15.1h0ZM230.4,258.3c-30.1,17.9-55.7,10.2-82.5,5.7-.4,0-.5,0-1.5.5-.7-.7-1.4-1.4-2.1-2,.7-.3,1.4-.6,2.1-1,.4-.2.6-.8.4-1.2s-.8-.6-1.2-.4c-2,1.1-3.2,1.3-3.7,1.5-7.4,1.9-9.8-4.5-9.9-4.8-.3-.8-1.4-.8-1.7,0,0,0-1.5,4.5-3.9,6.6h0c-1.6,1.4-3.2,1.5-5,0-.3-.2-.5-.5-.6-.9-.9-2.9,5.1-9.1,8-10.2,15.6-6.2,63.3-8,79.9-8.2.4,0,.8-.3.9-.7l3.4-15.1,23.9-.7c-.4-.4-.2.6-1.1-15.9,0-.5.4-.9.8-.9s.9.4.9.8c.3,5.1.4,7.3.4,8.1,0-.8,0-1.8.4,7.2,0,.4-.3.8-.7.9l-1.1,16.8c-.3.7-1.9,5-3.4,11.4-.8,1-1.7,1.8-2.7,2.4h0ZM441.9,323.8c-.2.8-.2,1.8.1,2.6,1.1,3.2,3.3,4.5,3.8,5.1.2.2,5.8,5.3,2,11.1-.4.5-.6,1.1-.6,1.8l-12.7-2.6h0v-.3h0c.2-1.1,1.3-5.1,4.7-18.6l2.6.8h.1ZM328.7,266.4c-29.7-2.7-75.3-2.9-75.8-2.9s-.9.4-.9.9.4.9.9.9c19.7,0,74.6,1,94.1,5.4,23.2,5.2,86.5,34.6,93.7,38l-9.3,38.4-91.7-24.5c-2.9-.8-5.8-.7-8.7-.3-9.5,1.4-65.6,18.7-89.2-8.6-19.4-22.5-5.6-63-3.8-68l84.1-6.5c.7,2.8,3.4,13.5,6.6,27.3h0ZM328,171.9c-.1.5-.7.8-1.1.7-.5-.1-.8-.6-.7-1.1,1.7-7.6-.5-15.9-5.7-21.7-.3-.4-.3-.9,0-1.3.4-.3.9-.3,1.3,0,5.6,6.2,8,15.1,6.2,23.3h0ZM395.7,9.1c3,1.2,6.4,3.8,9.9,7.4-3.4-3-6.7-5.3-9.9-6.8,0,0,0-.6,0-.6ZM395.6,11.8c2.9,1.5,6,3.7,9.1,6.5l-14.4,18.4c-1.8-4.3-3-8.5-3.7-12.3,8.5-2.2,8.6-3.9,9-12.6h0ZM386.6,31.8c-1-2.4-1.9-4.7-2.5-6.8.2,0,.5-.1.7-.2.4,2.2,1,4.6,1.8,7h0ZM386.4,14.1c4,2.6,7,.7,7.2-3.3.1,0,.2,0,.3.1-.3,8.1-.2,9.2-4.8,10.8-.9.3-1.8.6-2.7.8-.5-3.3-.5-6.2,0-8.5h0ZM384.6,23c-.3,0-.6.1-.9.2-.6-2.8-.9-5.2-.6-7.4.7-1.2,1-2.4,1.2-3.5.2.2.4.4.6.6-.7,2.7-.8,6.2-.3,10.1h0ZM388.4,39.1l-3.9,5c-3-8.8-5.8-15.5-6.9-18,1.1-.1,2.8-.4,4.8-.7,1.2,4.3,3.2,9,6,13.8h0ZM393.9,9.1c-.2,0-.4-.1-.5-.2v-.4c.2,0,.4,0,.6.1v.5h-.1ZM393.7,6.7c-.4,0-.7,0-1,0-.6-1.4-1.5-2.7-2.6-3.8,1.9.5,3.2,1.5,3.7,3.9h-.1ZM393.4,114.8c-3.2,13.4-25.5,20.3-30.4,21.7-4-26.7-4.9-32.5-5.1-33.5h0l12.5-5.7c.4-.2.6-.6.5-1-.1-.6-14.9-57.7-9.2-75.4,2-6.2,15.8-17.9,21.3-18.8,1.4-.2,2.5,0,3.2.4,3.1,1.5,5.2,4.5,5.5,7.4.2,1.5,0,3.4-1.5,3.8-1.9.5-4.8-2.2-6.1-3.8-.5-.7-1.6-.2-1.6.6s.2,2.8-1.1,4.8c-1.2,1.9-3.4,2.5-6.5,1.8-.5-.1-1,.2-1.1.6-.1.5.2,1,.6,1.1,2.3.6,4.7.6,6.7-.7,0,1.7.3,3.6.8,5.7-5.7,1-6,.6-6.4,1.3-.1.2-.2.5,0,.8.2.6,25.1,58.3,17.8,89.2h0v-.3ZM426.9,133.7l-41.6-87.9,4-5.1c1.1,1.9,2.4,3.8,3.7,5.6.2.3.5.4.9.4.6,0,1-.8.6-1.4-1.4-2-2.8-4-4-6.1l15.5-19.8c3.2,3.1,6.4,6.8,9.4,10.9.2.3.5.4.9.4.6-.1,1-.9.6-1.4-3-4.2-6.4-8.1-9.7-11.3l4.9-6.2c5.9,9.4,55.6,88,61.4,97.2l-46.5,24.7h0Z"/>
        </g>
        <g>
          <g class="st48">
            <polygon class="st1" points="80.3 339.2 56.3 338.2 57.2 316 80.3 316 80.3 339.2"/>
            <polygon class="st1" points="80.3 344.5 56 343.4 56.3 338.2 80.3 339.2 80.3 344.5"/>
            <polygon class="st26" points="80.3 349.8 55.8 348.7 56 343.4 80.3 344.5 80.3 349.8"/>
            <polygon class="st34" points="80.3 355 55.6 353.9 55.8 348.7 80.3 349.8 80.3 355"/>
            <polygon class="st42" points="80.3 360.3 55.3 359.1 55.6 353.9 80.3 355 80.3 360.3"/>
            <polygon class="st53" points="80.3 365.5 55.1 364.4 55.3 359.1 80.3 360.3 80.3 365.5"/>
            <polygon class="st38" points="80.3 370.8 54.9 369.6 54.9 368.7 55.1 364.4 80.3 365.5 80.3 370.8"/>
            <polygon class="st27" points="80.3 376 54.9 374.9 54.9 369.6 80.3 370.8 80.3 376"/>
            <polygon class="st19" points="80.3 381.3 54.9 380.1 54.9 374.9 80.3 376 80.3 381.3"/>
            <polygon class="st50" points="80.3 386.5 54.9 385.4 54.9 380.1 80.3 381.3 80.3 386.5"/>
            <polygon class="st7" points="80.3 391.8 54.9 390.7 54.9 385.4 80.3 386.5 80.3 391.8"/>
            <polygon class="st31" points="80.3 397 54.9 395.9 54.9 390.7 80.3 391.8 80.3 397"/>
            <polygon class="st9" points="80.3 402.3 54.9 401.2 54.9 395.9 80.3 397 80.3 402.3"/>
            <polygon class="st36" points="80.3 407.5 54.9 406.4 54.9 401.2 80.3 402.3 80.3 407.5"/>
            <polygon class="st36" points="80.3 411 54.9 409.9 54.9 406.4 80.3 407.5 80.3 411"/>
            <polygon class="st14" points="80.3 414.4 54.9 413.3 54.9 409.9 80.3 411 80.3 414.4"/>
            <polygon class="st13" points="80.3 417.9 54.9 416.8 54.9 413.3 80.3 414.4 80.3 417.9"/>
            <polygon class="st32" points="80.3 421.3 54.9 420.2 54.9 416.8 80.3 417.9 80.3 421.3"/>
            <polygon class="st25" points="76.1 424.6 54.9 423.7 54.9 420.2 80.3 421.3 80.3 424.6 76.1 424.6"/>
            <polygon class="st44" points="54.9 423.7 76.1 424.6 54.9 424.6 54.9 423.7"/>
          </g>
          <path d="M80.8,425.4l-26.5-11.4,14.3-98.6,9.8,2.4,2.3,107.6ZM55.4,413.4l24.3,10.4-2.3-105.2-8-2-14.1,96.8Z"/>
        </g>
        <g>
          <g class="st20">
            <polygon class="st1" points="95.7 302.6 93.2 303.9 93.2 302.6 95.7 302.6"/>
            <polygon class="st1" points="112.7 302.6 93.2 312.3 93.2 303.9 95.7 302.6 112.7 302.6"/>
            <polygon class="st26" points="113.8 302.6 117 309 93.2 320.8 93.2 312.3 112.7 302.6 113.8 302.6"/>
            <polygon class="st34" points="117 309 120.4 315.8 93.2 329.3 93.2 320.8 117 309"/>
            <polygon class="st42" points="120.4 315.8 123.8 322.5 93.2 337.8 93.2 329.3 120.4 315.8"/>
            <polygon class="st53" points="123.8 322.5 127.2 329.3 93.2 346.3 93.2 337.8 123.8 322.5"/>
            <polygon class="st38" points="127.2 329.3 130.5 336.1 93.2 354.7 93.2 346.3 127.2 329.3"/>
            <polygon class="st27" points="130.5 336.1 133.9 342.9 93.2 363.2 93.2 354.7 130.5 336.1"/>
            <polygon class="st19" points="133.9 342.9 137.3 349.7 94.4 371.1 93.2 368.8 93.2 363.2 133.9 342.9"/>
            <rect class="st50" x="93.5" y="360" width="48" height="7.6" transform="translate(-149.9 90.6) rotate(-26.5)"/>
            <rect class="st7" x="96.9" y="366.8" width="48" height="7.6" transform="translate(-152.6 92.8) rotate(-26.5)"/>
            <rect class="st31" x="100.3" y="373.6" width="48" height="7.6" transform="translate(-155.3 95.1) rotate(-26.5)"/>
            <rect class="st9" x="103.7" y="380.4" width="48" height="7.6" transform="translate(-157.9 97.3) rotate(-26.5)"/>
            <rect class="st36" x="107.1" y="387.2" width="48" height="7.6" transform="translate(-160.6 99.5) rotate(-26.5)"/>
            <rect class="st36" x="109.9" y="394.1" width="48" height="5" transform="translate(-162.8 101.3) rotate(-26.5)"/>
            <rect class="st14" x="112.1" y="398.6" width="48" height="5" transform="translate(-164.6 102.8) rotate(-26.5)"/>
            <rect class="st13" x="114.3" y="403.1" width="48" height="5" transform="translate(-166.4 104.3) rotate(-26.5)"/>
            <polygon class="st32" points="160.9 397.1 162.6 400.5 162.6 401.8 122.7 421.7 119.6 421.7 118 418.5 160.9 397.1"/>
            <polygon class="st25" points="162.6 407.4 133.8 421.7 122.7 421.7 162.6 401.8 162.6 407.4"/>
            <polygon class="st44" points="162.6 412.9 145 421.7 133.8 421.7 162.6 407.4 162.6 412.9"/>
            <polygon class="st2" points="162.6 418.5 156.2 421.7 145 421.7 162.6 412.9 162.6 418.5"/>
            <polygon class="st47" points="156.2 421.7 162.6 418.5 162.6 421.7 156.2 421.7"/>
          </g>
          <path d="M121.5,422.3l-28.8-111.2,19.2-9.2,51.5,106.5-41.8,13.9ZM93.8,311.7l28.4,109.4,39.8-13.3-50.5-104.5-17.6,8.4Z"/>
        </g>
        <g>
          <path class="st15" d="M447.6,346.3s5.4-5.5,1.3-12.1-5.4-4.8-7-10.4c0,0,8.2-4.9,8.5-8.5l11.9-18.3,5-14s5.9-4.9,13.4,5.7c7.5,10.5-1.1,54.3-14.9,66.6,0,0-6.8,2.9-18.1-8.9h0Z"/>
          <path class="st3" d="M463.6,356.1c-3,0-8.6-1.4-16.3-9.4l-.4-.4.3-.4c.2-.2,5.1-5.3,1.2-11.5-1.8-2.9-3-4.1-4-5.1-1.3-1.3-2.1-2.2-3.1-5.4v-.4c-.1,0,.2-.2.2-.2,2.2-1.3,8-5.4,8.3-8.1h0c0-.1,11.9-18.5,11.9-18.5l5-14.1h.1c0-.2,1.9-1.7,4.9-1.3,3.1.4,6.3,2.8,9.2,7,7.5,10.5-.6,54.5-15,67.3h-.1c0,.1-.9.5-2.4.5ZM448.3,346.3c10.2,10.5,16.5,8.8,17.3,8.6,6.1-5.5,12-18.4,15.2-33.6,3.1-14.8,3-27.4-.5-32.2-2.8-4-5.7-6.2-8.5-6.6-2.2-.3-3.7.6-4,.9l-5,14-11.8,18.2c-.4,3.4-6.8,7.6-8.4,8.6.8,2.7,1.5,3.5,2.7,4.6,1,1,2.3,2.3,4.1,5.3,3.6,5.9,0,11-1,12.3Z"/>
        </g>
        <rect class="st24" x="453.5" y="301.3" width="4.4" height="18.3" rx="1.8" ry="1.8" transform="translate(-86.6 410.3) rotate(-44.7)"/>
        <rect class="st24" x="457.2" y="290.2" width="4.4" height="18.3" rx="1.8" ry="1.8" transform="translate(-77.7 409.7) rotate(-44.7)"/>
        <g>
          <g class="st21">
            <polygon class="st1" points="439.1 1.7 447.7 12.3 415.3 38.6 411.4 33.7 411.4 1.7 439.1 1.7"/>
            <rect class="st1" x="411.9" y="25" width="41.7" height="4" transform="translate(79.4 278.2) rotate(-39)"/>
            <rect class="st26" x="414.4" y="28.1" width="41.7" height="4" transform="translate(78 280.5) rotate(-39)"/>
            <rect class="st34" x="416.9" y="31.1" width="41.7" height="4" transform="translate(76.6 282.7) rotate(-39)"/>
            <rect class="st42" x="419.4" y="34.2" width="41.7" height="4" transform="translate(75.2 285) rotate(-39)"/>
            <rect class="st53" x="421.9" y="37.3" width="41.7" height="4" transform="translate(73.9 287.2) rotate(-39)"/>
            <rect class="st38" x="424.3" y="40.4" width="41.7" height="4" transform="translate(72.5 289.5) rotate(-39)"/>
            <rect class="st27" x="426.8" y="43.4" width="41.7" height="4" transform="translate(71.1 291.7) rotate(-39)"/>
            <rect class="st19" x="429.3" y="46.5" width="41.7" height="4" transform="translate(69.7 294) rotate(-39)"/>
            <rect class="st50" x="431.8" y="49.6" width="41.7" height="4" transform="translate(68.3 296.2) rotate(-39)"/>
            <rect class="st7" x="434.3" y="52.6" width="41.7" height="4" transform="translate(67 298.4) rotate(-39)"/>
            <rect class="st31" x="436.8" y="55.7" width="41.7" height="4" transform="translate(65.6 300.7) rotate(-39)"/>
            <rect class="st9" x="439.3" y="58.8" width="41.7" height="4" transform="translate(64.2 302.9) rotate(-39)"/>
            <rect class="st36" x="441.7" y="61.9" width="41.7" height="4" transform="translate(62.8 305.2) rotate(-39)"/>
            <rect class="st36" x="443.8" y="65.1" width="41.7" height="2.6" transform="translate(61.7 307.1) rotate(-39)"/>
            <rect class="st14" x="445.4" y="67.1" width="41.7" height="2.6" transform="translate(60.8 308.5) rotate(-39)"/>
            <rect class="st13" x="447.1" y="69.1" width="41.7" height="2.6" transform="translate(59.9 310) rotate(-39)"/>
            <rect class="st32" x="448.7" y="71.1" width="41.7" height="2.6" transform="translate(59 311.5) rotate(-39)"/>
            <rect class="st25" x="450.3" y="73.1" width="41.7" height="2.6" transform="translate(58.1 313) rotate(-39)"/>
            <rect class="st44" x="452" y="75.2" width="41.7" height="2.6" transform="translate(57.2 314.4) rotate(-39)"/>
            <rect class="st2" x="453.6" y="77.2" width="41.7" height="2.6" transform="translate(56.3 315.9) rotate(-39)"/>
            <rect class="st47" x="455.2" y="79.2" width="41.7" height="2.6" transform="translate(55.3 317.4) rotate(-39)"/>
            <rect class="st5" x="456.8" y="81.2" width="41.7" height="2.6" transform="translate(54.4 318.9) rotate(-39)"/>
            <rect class="st8" x="458.5" y="83.2" width="41.7" height="2.6" transform="translate(53.5 320.3) rotate(-39)"/>
            <rect class="st43" x="460.1" y="85.2" width="41.7" height="2.6" transform="translate(52.6 321.8) rotate(-39)"/>
            <rect class="st51" x="461.7" y="87.3" width="41.7" height="2.6" transform="translate(51.7 323.3) rotate(-39)"/>
            <rect class="st35" x="463.4" y="89.3" width="41.7" height="2.6" transform="translate(50.8 324.8) rotate(-39)"/>
            <rect class="st30" x="465" y="91.3" width="41.7" height="2.6" transform="translate(49.9 326.2) rotate(-39)"/>
            <polygon class="st49" points="502.9 80.5 504.5 82.5 472.5 108.4 471.8 108.4 470.5 106.7 502.9 80.5"/>
            <polygon class="st41" points="504.5 82.5 506.1 84.5 476.6 108.4 472.5 108.4 504.5 82.5"/>
            <polygon class="st12" points="506.1 84.5 507.6 86.3 507.6 86.7 480.8 108.4 476.6 108.4 506.1 84.5"/>
            <polygon class="st40" points="507.6 90 484.9 108.4 480.8 108.4 507.6 86.7 507.6 90"/>
            <polygon class="st4" points="507.6 93.4 489 108.4 484.9 108.4 507.6 90 507.6 93.4"/>
            <polygon class="st45" points="507.6 96.7 493.1 108.4 489 108.4 507.6 93.4 507.6 96.7"/>
            <polygon class="st22" points="507.6 100 497.3 108.4 493.1 108.4 507.6 96.7 507.6 100"/>
            <polygon class="st23" points="507.6 103.4 501.4 108.4 497.3 108.4 507.6 100 507.6 103.4"/>
            <polygon class="st28" points="507.6 106.7 505.5 108.4 501.4 108.4 507.6 103.4 507.6 106.7"/>
            <polygon class="st11" points="505.5 108.4 507.6 106.7 507.6 108.4 505.5 108.4"/>
          </g>
          <path d="M474.2,109.1l-63.5-99.4,9.2-8.6,88.5,88.6-34.2,19.5ZM412,9.8l62.5,97.9,32.2-18.3L419.9,2.4l-7.8,7.4Z"/>
        </g>
        <path class="st15" d="M249.4,130s13.4,8.6,19.8,2.3c6.4-6.4,5.3-12,5.3-12l80.7-21.2,7.4,42.5-31.5,17.7-10.1,80-84.1,6.5-.5-17.8,1.8-.2-2.8-16.9s-.9-.6-.8.9-.4,15.4-.4,15.4c0,0-26.6,2.1-28.5,1.4s-.6-9.8-.6-9.8c0,0-3.3-50.6,9.2-61s15.9-18.9,35.2-27.7h0Z"/>
        <path class="st15" d="M275.5,87.3c-7.2-13.8-17.7-19.5-17.7-19.5-3.3,12.6-14,18.6-14,18.6,0,0,1.7,2.8,2.7,4.6,1,1.8-.8,1.7-.8,1.7-2.3-1.9-4.6-2.2-4.6-2.2-8.2-1.5-6.6,5.2-6.6,5.2,3.6,7.3,7.6,5.2,8.7,5.2s2-1.7,2.7-2.1.9.6.9.6c0,0,3,10.1,14.1,16,0,0,1.5.9,0,1.6s-13.2,6-19.8,6.4-14.5,1.9-20.3-8.9.8-24.7,0-27.8c-.8-3.1,2.4-16.2,9.6-18.8,7.2-2.6,3.5-6.4,4.5-7.7,1.3-1.6,10-9.9,20.2-6.9,10.2,3,18.3,2,32.8,27.6,0,0,4.2,9.1,11.5,13.5,6.4,3.9-13.3,17.9-21.7,14.7-2.5-1-4-2.7-6.5-2.2l2.2-2.3c2.9-3,4.3-7.2,3.9-11.4h0c-.2-2-.8-4-1.7-5.9h0Z"/>
        <g>
          <path d="M191,124.7c-6.3-3.4-13.2-5.1-20.1-5v-.5c6.9-.1,13.9,1.6,20.3,5l-.2.4Z"/>
          <path d="M195.4,121.8c-8-6.3-13.9-14.1-16.9-22.5l.5-.2c3,8.3,8.8,16,16.7,22.3l-.3.4Z"/>
          <path d="M200.2,116.6c-5.5-5.2-7.5-12.6-5.4-19.4l.5.2c-2.1,6.6,0,13.8,5.2,18.8l-.3.4Z"/>
        </g>
        <path d="M106.8,218c-4,0-7.2-3.3-7.2-7.2s3.3-7.2,7.2-7.2,7.2,3.3,7.2,7.2-3.3,7.2-7.2,7.2ZM106.8,204c-3.7,0-6.8,3-6.8,6.8s3,6.8,6.8,6.8,6.8-3,6.8-6.8-3-6.8-6.8-6.8Z"/>
        <rect class="st3" x="99.8" y="457.5" width="373.6" height="1"/>
        <g>
          <path class="st3" d="M354.1,22.1h-171.5c-23.5,0-42.6,19.1-42.6,42.6v175.9c.3,0,.6,0,.9.1V64.7c0-23,18.7-41.7,41.6-41.7h171.3c0-.3.1-.6.2-.9h.1Z"/>
          <path class="st3" d="M415.8,128.3v158.9c.3,0,.6.2.9.3v-158.4c-.3-.3-.6-.6-.9-.8h0Z"/>
          <path class="st3" d="M415.8,353.6v103.9H140.9v-34.5c-.3,0-.6,0-.9-.1v35.5h276.8v-105.1c-.3.1-.6.3-.9.3h-.1Z"/>
        </g>
        <path d="M69.5,275.5v-.7c-.6-4.7-3.1-9-7.1-11.6l-.6-.4h.7c4.7-.6,9-3.1,11.6-7.1l.4-.6v.7c.6,4.7,3.1,9,7.1,11.6l.6.4h-.7c-4.7.6-9,3.1-11.6,7.1l-.4.6ZM63.3,263.2c3.6,2.6,6,6.6,6.6,11,2.6-3.6,6.6-6,11-6.6-3.6-2.6-6-6.6-6.6-11-2.6,3.6-6.6,6-11,6.6Z"/>
        <g>
          <polygon class="st1" points="245.4 475.3 234.8 471.5 234.1 482.8 226.8 474.1 220.6 483.7 218.6 472.5 208.5 477.6 212.3 466.9 201 466.3 209.6 459 200.1 452.8 211.3 450.8 206.1 440.7 216.8 444.5 217.4 433.2 224.8 441.8 231 432.3 233 443.5 243.1 438.3 239.3 449 250.6 449.6 241.9 457 251.5 463.1 240.3 465.2 245.4 475.3"/>
          <path d="M220.3,485l-2.1-11.8-10.6,5.4,4-11.2-11.9-.6,9-7.7-10-6.5,11.8-2.1-5.5-10.6,11.3,4,.6-11.9,7.8,9,6.5-10,2.1,11.8,10.6-5.5-4,11.3,11.9.6-9.1,7.8,10.1,6.4-11.8,2.2,5.4,10.6-11.2-4-.7,11.9-7.7-9.1-6.5,10.1ZM219,471.8l1.9,10.6,5.9-9.1,6.9,8.3.7-10.7,10,3.6-4.8-9.6,10.6-2-9.1-5.8,8.3-7-10.7-.6,3.6-10.1-9.6,4.9-1.9-10.6-5.9,9-7-8.2-.6,10.7-10.1-3.6,4.9,9.6-10.6,1.9,9,5.9-8.2,6.9,10.7.6-3.6,10.2,9.6-4.8Z"/>
        </g>
      </g>
      <g>
        <path class="st46" d="M353.8,203.1h142c6.6,0,11.9,5.6,11.9,12.5v13.4c0,6.9-5.3,12.5-11.9,12.5h-110.1l-7.4,13.4-7.4-13.4h-17.1c-6.6,0-11.9-5.6-11.9-12.5v-13.4c0-6.9,5.3-12.5,11.9-12.5Z"/>
        <g class="st16">
          <g class="st16">
            <g class="st16">
              <path d="M392.3,216.3h-1.3v-1.3h8.3c.9,0,1.3.4,1.3,1.3v1.4h-1.4v-1c0-.3-.2-.5-.5-.5h-5v5.3h5.5v1.3h-5.5v4.9c0,.3.2.5.5.5h5.1c.3,0,.5-.1.5-.5v-1h1.3v1.5c0,.9-.4,1.3-1.3,1.3h-6.3c-.9,0-1.3-.4-1.3-1.3v-12Z"/>
              <path d="M403.4,216.7c0-.3-.2-.5-.5-.5h-.9v-1.2h1.5c.9,0,1.3.4,1.3,1.3v11.6c0,.3.2.5.5.5h.9v1.2h-1.5c-.9,0-1.3-.4-1.3-1.3v-11.6Z"/>
              <path d="M412.7,218.9c2.9,0,4.4,2.2,4.4,4.8s0,.7,0,.7h-8c0,2.6,1.9,4.1,4,4.1s3.1-1.3,3.1-1.3l.7,1.1s-1.5,1.5-3.9,1.5-5.4-2.2-5.4-5.4,2.3-5.5,5.1-5.5ZM415.6,223.3c0-2.2-1.4-3.2-2.9-3.2s-3.2,1.1-3.6,3.2h6.5Z"/>
              <path d="M424.4,218.9c1.2,0,3.7.5,3.7,2.2v.9h-1.3v-.6c0-.9-1.5-1.3-2.4-1.3-2.2,0-4,1.7-4,4.2s1.9,4.2,4.1,4.2,3.4-1.5,3.4-1.5l.7,1.1s-1.4,1.7-4.1,1.7-5.5-2.2-5.5-5.4,2.4-5.5,5.5-5.5Z"/>
              <path d="M430.9,220.4h-1.4v-1.2h1.4v-2.9h1.4v2.9h2.6v1.2h-2.6v5.3c0,2.4,1.6,2.8,2.3,2.8s.5,0,.5,0v1.3s-.2,0-.6,0c-1.2,0-3.6-.4-3.6-3.9v-5.4Z"/>
            </g>
          </g>
          <g class="st16">
            <g class="st16">
              <path d="M437.6,220.9c0-.3-.2-.5-.5-.5h-.9v-1.2h1.4c.9,0,1.3.4,1.3,1.2v.7c0,.4,0,.8,0,.8h0c.5-1.6,1.7-2.8,3.3-2.8s.6,0,.6,0v1.4s-.2,0-.5,0c-1.5,0-2.6,1.2-3,2.7-.2.7-.3,1.4-.3,2v4.4h-1.4v-8.7Z"/>
            </g>
          </g>
          <g class="st16">
            <g class="st16">
              <path d="M449.2,218.9c3,0,5.5,2.3,5.5,5.4s-2.5,5.5-5.5,5.5-5.5-2.4-5.5-5.5,2.5-5.4,5.5-5.4ZM449.2,228.6c2.2,0,4-1.8,4-4.2s-1.8-4.1-4-4.1-4.1,1.8-4.1,4.1,1.8,4.2,4.1,4.2Z"/>
              <path d="M457.3,220.9c0-.3-.2-.5-.5-.5h-.9v-1.2h1.5c.9,0,1.3.4,1.3,1.2v.5c0,.4,0,.7,0,.7h0c.4-1,1.7-2.6,4.1-2.6s3.5,1.5,3.5,4v4.9c0,.3.2.5.5.5h.9v1.2h-1.5c-.9,0-1.3-.4-1.3-1.3v-5c0-1.6-.2-3.1-2.3-3.1s-3.3,1.2-3.8,2.9c-.1.4-.2.9-.2,1.4v5h-1.4v-8.7Z"/>
              <path d="M470,220.9c0-.3-.2-.5-.5-.5h-.9v-1.2h1.5c.9,0,1.3.4,1.3,1.3v7.5c0,.3.2.5.5.5h.9v1.2h-1.5c-.9,0-1.3-.4-1.3-1.3v-7.5ZM470,215h1.4v1.8h-1.4v-1.8Z"/>
              <path d="M479.6,218.9c1.2,0,3.7.5,3.7,2.2v.9h-1.3v-.6c0-.9-1.5-1.3-2.4-1.3-2.2,0-4,1.7-4,4.2s1.9,4.2,4.1,4.2,3.4-1.5,3.4-1.5l.7,1.1s-1.4,1.7-4.1,1.7-5.5-2.2-5.5-5.4,2.4-5.5,5.5-5.5Z"/>
              <path d="M485.7,227.1s1.2,1.6,3.2,1.6,2.2-.6,2.2-1.7c0-2.3-5.8-1.9-5.8-5.2s1.6-2.8,3.7-2.8,3.2.4,3.2,1.9v.9h-1.3v-.5c0-.8-1.1-1.1-1.8-1.1-1.5,0-2.3.5-2.3,1.5,0,2.3,5.8,1.8,5.8,5.3s-1.6,2.9-3.6,2.9-4-1.8-4-1.8l.8-1Z"/>
            </g>
          </g>
        </g>
        <g>
          <path class="st52" d="M372.8,226c-2.6,4.7-2.5,5-3.7,4.4-1.2-.7-1.6-1.3.9-6,2.6-4.7,3.3-4.6,4.5-3.9,1.2.7.8.8-1.7,5.5h0Z"/>
          <path class="st17" d="M375.2,227.4c-1.6,3-3.6,4.4-4.6,3.8-1.2-.7-.6-.7,2-5.3,2.6-4.7,2.3-5.2,3.4-4.5.9.5.8,3-.8,6Z"/>
          <path class="st52" d="M360.9,226c2.6,4.7,2.5,5,3.7,4.4,1.2-.7,1.6-1.3-.9-6-2.6-4.7-3.3-4.6-4.5-3.9-1.2.7-.8.8,1.7,5.5h0Z"/>
          <path class="st17" d="M358.5,227.4c1.6,3,3.6,4.4,4.6,3.8,1.2-.7.6-.7-2-5.3-2.6-4.7-2.3-5.2-3.4-4.5-1,.5-.8,3,.8,6Z"/>
          <path class="st39" d="M358.9,230.9s2.1.5,2.3,0c1-3.1-4.4-5-4.4-8.5,0-5.7,4.5-10.4,10.1-10.4s10.1,4.6,10.1,10.4-5.4,5.4-4.4,8.5c.2.5,2.3,0,2.3,0,2.2-2.1,3.6-5.2,3.6-8.5,0-6.5-5.2-11.8-11.6-11.8s-11.6,5.3-11.6,11.8,1.4,6.4,3.6,8.5h0Z"/>
          <path class="st52" d="M360.2,215.4c1.3-.3,3.1-2.2,6.6-2.2s5.3,2,6.6,2.2c.5.1,1.5-.7,1.5-.7-2.1-2.4-4.6-3.7-8.1-3.7s-6,1.2-8.1,3.7c0,0,.9.8,1.5.7Z"/>
        </g>
      </g>
      <g>
        <g>
          <path class="st18" d="M169.8,372.7l3-2.2.5,4.4,1.7-1.2.6.8-3.2,2.4-.5-4.5-1.5,1.1-.6-.8h0Z"/>
          <path class="st18" d="M178.7,369.7l-3.2,2.4c.2.2.5.4.9.4s.6,0,.9-.3c.4-.3.6-.6.7-1.1l1.1-.2c0,.5,0,.9-.3,1.2-.2.4-.5.7-.9,1-.6.5-1.3.6-2,.5s-1.2-.5-1.7-1-.6-1.2-.5-1.9c.1-.7.4-1.2,1-1.7s1.3-.6,2-.5,1.3.5,1.8,1.1v.2h.2ZM177.1,369.6c-.2-.2-.5-.3-.8-.2-.3,0-.6.1-.8.3-.3.2-.5.5-.6.8v.8l2.2-1.6h0Z"/>
          <path class="st18" d="M177.4,367.1l1-.7.3.4c0-.4.2-.6.3-.9s.3-.4.5-.5c.4-.3.8-.4,1.3-.3.4,0,.8.3,1.1.8l1.9,2.6-1,.7-1.3-1.7c-.4-.5-.6-.8-.8-.9s-.3-.2-.5-.2-.3,0-.5.2c-.2.1-.3.3-.4.6,0,.2,0,.5.1.8,0,.1.2.4.6.8l1.2,1.6-1,.7-2.9-4h0Z"/>
          <path class="st18" d="M185.9,362.1l-.5,1.1h-.7c-.2,0-.4.1-.6.3-.4.3-.6.6-.7,1s0,.8.3,1.1.6.5.9.6.8,0,1.1-.3c.4-.3.7-.7.7-1.2h1.2c0,.8-.4,1.5-1.2,2.1-.7.5-1.4.7-2.1.6-.7-.1-1.2-.5-1.7-1-.3-.4-.4-.8-.5-1.3,0-.5,0-.9.2-1.4.2-.4.5-.8.9-1.1.4-.3.8-.5,1.2-.5s.9,0,1.3.1h.2Z"/>
          <path class="st18" d="M185.3,361.3l1-.8,2.9,1.7-.7-3.3,1-.8,1.5,7.2-1,.8-.5-2.4-4.2-2.6h0v.2Z"/>
        </g>
        <g>
          <path class="st18" d="M169,379.6h0c-.1,0-.3.1-.4,0l-6.1-2.5c-.4-.2-.7-.5-.8-1s.1-.9.5-1.1l4.4-3.3c.4-.3.8-.3,1.2-.1.4.2.7.6.7,1h-.4.4l.6,6.6c0,.1,0,.3-.2.4h.1ZM162.7,375.8c-.2.1-.2.3-.2.4,0,0,0,.2.2.3l5.5,2.2-.5-5.9h0c0-.2-.2-.3-.2-.3h-.4l-4.4,3.3h0Z"/>
          <path class="st18" d="M172.7,380l-4.4,3.3c-.4.3-.8.3-1.2.1s-.7-.6-.7-1h0l-.6-6.6c0-.1,0-.3.2-.4h0c.1,0,.3-.1.4,0l6.1,2.5c.4.2.7.5.8,1s-.1.9-.5,1.1h-.1ZM167.1,382.3c0,.2.2.3.2.3h.4l4.4-3.3c.2-.1.2-.3.2-.4,0,0,0-.2-.2-.3l-5.5-2.2.5,5.9h0Z"/>
        </g>
      </g>
      <g>
        <g>
          <path class="st18" d="M434,109.8l3.1-2.1.3,4.5,1.7-1.2.6.9-3.3,2.2-.3-4.5-1.6,1-.6-.9h0Z"/>
          <path class="st18" d="M443,107.2l-3.3,2.2c.2.3.5.4.8.4s.6,0,1-.3c.4-.2.6-.6.7-1.1l1.1-.2c0,.4-.1.8-.3,1.2s-.5.7-.9.9c-.6.4-1.3.6-2,.4s-1.2-.5-1.6-1.1-.5-1.3-.4-2,.5-1.2,1.1-1.6,1.3-.6,2-.4,1.2.6,1.7,1.2v.2c.1,0,0,.2,0,.2ZM441.5,107.1c-.2-.2-.5-.3-.8-.3s-.6,0-.8.2c-.3.2-.5.4-.6.7v.8l2.2-1.5h0Z"/>
          <path class="st18" d="M441.9,104.6l1-.7.3.4c.1-.3.2-.6.4-.8s.3-.4.5-.5c.4-.3.9-.3,1.3-.3s.8.4,1.1.8l1.8,2.7-1,.7-1.2-1.8c-.3-.5-.6-.8-.7-.9s-.3-.2-.5-.2-.3,0-.5,0-.3.3-.4.6v.8c0,.2.2.4.5.9l1.1,1.7-1,.7-2.7-4.1h0Z"/>
          <path class="st18" d="M450.7,100l-.5,1h-.7c-.2,0-.4,0-.6.3-.4.2-.6.6-.7,1,0,.4,0,.8.2,1.1s.5.6.9.6.8,0,1.1-.3c.5-.3.7-.7.8-1.2h1.2c0,.9-.5,1.6-1.3,2.1-.7.5-1.4.6-2.1.5-.7-.2-1.2-.5-1.6-1.1-.3-.4-.4-.8-.4-1.3s0-.9.3-1.3c.2-.4.6-.8,1-1.1.4-.3.8-.4,1.3-.5s.9,0,1.3.2h-.2Z"/>
          <path class="st18" d="M450.1,99.2l1.1-.7,2.8,1.9-.5-3.4,1.1-.7,1.1,7.3-1.1.7-.4-2.4-4.1-2.8h0Z"/>
        </g>
        <g>
          <path class="st18" d="M432.8,116.6h-.4l-6-2.8c-.4-.2-.7-.6-.7-1s.2-.9.5-1.1l4.6-3c.4-.2.8-.3,1.2,0,.4.2.6.6.6,1h-.4.4l.2,6.6c0,0,0,.3-.2.4h.2ZM426.8,112.4c-.2,0-.2.3-.2.4s0,.2.2.3l5.4,2.5-.2-5.9h0c0-.2-.1-.3-.2-.3h-.4l-4.6,3h0Z"/>
          <path class="st18" d="M436.5,117.2l-4.6,3c-.4.2-.8.3-1.2,0s-.6-.6-.6-1h0l-.2-6.6c0,0,0-.3.2-.4h.4l6,2.8c.4.2.7.6.7,1s-.2.9-.5,1.1h-.2ZM430.8,119.2c0,.2.1.3.2.3h.4l4.6-3c.2,0,.2-.3.2-.4s0-.2-.2-.3l-5.4-2.5.2,5.9h0Z"/>
        </g>
      </g>
    </g>
    <g>
      <g>
        <path class="st46" d="M332,379.1h204c8.5,0,15.4,6.4,15.4,14.3v15.4c0,7.9-6.9,14.3-15.4,14.3h-162.9l-9.5,15.4-9.5-15.4h-22.1c-8.5,0-15.4-6.4-15.4-14.3v-15.4c0-7.9,6.9-14.3,15.4-14.3h0Z"/>
        <g class="st16">
          <g class="st16">
            <g class="st16">
              <path d="M373.9,394.9c0-.3-.2-.5-.5-.5h-1v-1.4h1.7c1,0,1.4.4,1.4,1.4v12.6c0,.3.2.5.5.5h5.2c.3,0,.5-.2.5-.5v-1.1h1.5v1.6c0,1-.4,1.4-1.4,1.4h-6.5c-1,0-1.4-.4-1.4-1.4v-12.6Z"/>
              <path d="M385.5,399.3c0-.3-.2-.5-.5-.5h-.9v-1.3h1.6c1,0,1.4.4,1.4,1.4v8.1c0,.3.2.5.5.5h.9v1.3h-1.6c-1,0-1.4-.4-1.4-1.4v-8.1ZM385.5,393h1.5v1.9h-1.5v-1.9Z"/>
            </g>
          </g>
          <g class="st16">
            <g class="st16">
              <path d="M391.1,398.8h-1.4v-1.3h1.4v-.4c0-3.7,2.6-4.2,3.9-4.2s.7,0,.7,0v1.4s-.2,0-.5,0c-.9,0-2.5.3-2.5,2.8v.4h2.9v1.3h-2.9v10h-1.5v-10Z"/>
            </g>
          </g>
          <g class="st16">
            <g class="st16">
              <path d="M401.9,397.2c3.1,0,4.7,2.4,4.7,5.2s0,.8,0,.8h-8.7c0,2.9,2,4.5,4.4,4.5s3.4-1.4,3.4-1.4l.7,1.1s-1.6,1.6-4.2,1.6-5.9-2.4-5.9-5.9,2.5-5.9,5.6-5.9ZM405.1,402c0-2.3-1.5-3.5-3.2-3.5s-3.5,1.2-3.9,3.5h7.1Z"/>
              <path d="M409.3,406s1.3,1.7,3.5,1.7,2.4-.6,2.4-1.8c0-2.5-6.3-2-6.3-5.7s1.8-3.1,4-3.1,3.4.5,3.4,2v1h-1.4v-.5c0-.8-1.2-1.1-2-1.1-1.6,0-2.5.5-2.5,1.6,0,2.5,6.3,2,6.3,5.7s-1.7,3.2-4,3.2-4.3-2-4.3-2l.9-1.1Z"/>
            </g>
          </g>
          <g class="st16">
            <g class="st16">
              <path d="M419.8,398.8h-1.5v-1.3h1.5v-3.1h1.5v3.1h2.8v1.3h-2.8v5.8c0,2.7,1.7,3,2.5,3s.5,0,.5,0v1.4s-.3,0-.7,0c-1.3,0-3.9-.4-3.9-4.2v-5.9Z"/>
            </g>
          </g>
          <g class="st16">
            <g class="st16">
              <path d="M427.6,412.2c1,0,1.7-.8,2.1-1.8l.7-1.6-4-9.4c-.2-.4-.4-.5-.8-.5h-.2v-1.3h.7c1,0,1.3.2,1.7,1.2l2.9,7.1c.2.6.4,1.2.4,1.2h0s.2-.7.4-1.2l2.8-7.1c.4-1,.7-1.2,1.8-1.2h.7v1.3h-.2c-.4,0-.6.1-.8.5l-4.9,11.8c-.6,1.4-1.7,2.4-3.2,2.4s-2.5-1.1-2.5-1.1l.7-1.1s.7.9,1.7.9Z"/>
              <path d="M439.1,394.8c0-.3-.2-.5-.5-.5h-.9v-1.3h1.6c1,0,1.4.4,1.4,1.4v12.6c0,.3.2.5.5.5h.9v1.3h-1.6c-1,0-1.4-.4-1.4-1.4v-12.6Z"/>
              <path d="M449.1,397.2c3.1,0,4.8,2.4,4.8,5.2s0,.8,0,.8h-8.7c0,2.9,2,4.5,4.4,4.5s3.4-1.4,3.4-1.4l.7,1.1s-1.6,1.6-4.2,1.6-5.9-2.4-5.9-5.9,2.5-5.9,5.6-5.9ZM452.3,402c0-2.3-1.5-3.5-3.2-3.5s-3.5,1.2-3.9,3.5h7.1Z"/>
              <path d="M465,400.3h0s-2.2-.7-2.2-3.6,1.8-4,4.7-4,1.8.2,1.8.2l-.5,1.3s-.7-.2-1.3-.2c-1.8,0-3.2,1.1-3.2,2.7s.5,2.9,3.4,2.9h3.3v-2.2h1.6v2.2h2.1v1.4h-2.1v2.3c0,3.8-2,5.7-5.2,5.7s-5.3-2-5.3-4.7,1-3.6,2.9-4.1ZM467.5,407.6c2.2,0,3.6-1.2,3.6-4.3v-2.3h-3.2c-2.8,0-4.1,1.3-4.1,3.3s1.4,3.3,3.7,3.3Z"/>
              <path d="M481.7,407.4h.8c.3,0,.5-.2.5-.5l1.1-13.9h1.6l4.2,9.2c.4.8.8,1.9.8,1.9h0s.4-1.1.8-1.9l4.2-9.2h1.6l1.1,13.9c0,.3.2.5.5.5h.9v1.4h-1.5c-1,0-1.3-.4-1.4-1.4l-.7-9.6c0-.9,0-2.2,0-2.2h0s-.4,1.4-.8,2.2l-3.8,8h-1.4l-3.7-8c-.4-.8-.8-2.3-.8-2.3h0s0,1.4,0,2.3l-.7,9.6c0,1-.4,1.4-1.4,1.4h-1.5v-1.4Z"/>
              <path d="M507.1,397.2c3.3,0,6,2.5,6,5.9s-2.7,6-6,6-6-2.6-6-6,2.7-5.9,6-5.9ZM507.1,407.7c2.4,0,4.4-2,4.4-4.6s-2-4.5-4.4-4.5-4.4,1.9-4.4,4.5,2,4.6,4.4,4.6Z"/>
            </g>
          </g>
          <g class="st16">
            <g class="st16">
              <path d="M516.1,399.3c0-.3-.2-.5-.5-.5h-.9v-1.3h1.6c.9,0,1.4.4,1.4,1.3v.8c0,.5,0,.9,0,.9h0c.5-1.7,1.8-3,3.6-3s.6,0,.6,0v1.5s-.3,0-.6,0c-1.6,0-2.8,1.3-3.3,2.9-.2.7-.3,1.5-.3,2.2v4.8h-1.5v-9.5Z"/>
            </g>
          </g>
          <g class="st16">
            <g class="st16">
              <path d="M528.3,397.2c3.1,0,4.7,2.4,4.7,5.2s0,.8,0,.8h-8.7c0,2.9,2,4.5,4.4,4.5s3.4-1.4,3.4-1.4l.7,1.1s-1.6,1.6-4.2,1.6-5.9-2.4-5.9-5.9,2.5-5.9,5.6-5.9ZM531.5,402c0-2.3-1.5-3.5-3.2-3.5s-3.5,1.2-3.9,3.5h7.1Z"/>
            </g>
          </g>
        </g>
      </g>
      <g>
        <polygon class="st6" points="352.2 390 345.5 390 337.7 396 348.8 410.9 360 396 352.2 390"/>
        <polygon class="st29" points="348.8 410.9 353.5 396 343.9 396 348.8 410.9"/>
        <polygon class="st29" points="340.5 392.1 337.7 396 343.9 396 345.5 390 340.5 392.1"/>
        <polygon class="st29" points="357.2 392.1 352.2 390 353.5 396 360 396 357.2 392.1"/>
      </g>
    </g>
    <g>
      <path class="st46" d="M23.8,156.5h152c6.3,0,11.5,5.4,11.5,12.1v12.9c0,6.6-5.1,12.1-11.5,12.1H54.5l-7.1,12.9-7.1-12.9h-16.5c-6.3,0-11.5-5.4-11.5-12.1v-12.9c0-6.6,5.1-12.1,11.5-12.1Z"/>
      <g class="st16">
        <g class="st16">
          <g class="st16">
            <path d="M57.1,168.7h-1.3v-1.2h7.4c.9,0,1.2.4,1.2,1.2v1.4h-1.3v-.9c0-.3-.2-.4-.4-.4h-4.2v5.3h5.1v1.2h-5.1v6.3h-1.4v-12.8Z"/>
          </g>
        </g>
        <g class="st16">
          <g class="st16">
            <path d="M71.5,175.3h.6c0-2.2-.8-2.9-2.6-2.9s-1.9.1-1.9.9v.6h-1.3v-1c0-1.4,2.4-1.7,3.3-1.7,3.2,0,3.9,1.7,3.9,3.8v4.8c0,.3.2.4.4.4h.8v1.2h-1.4c-.9,0-1.2-.4-1.2-1.2s0-.7,0-.7h0s-.8,2.2-3.3,2.2-3.4-1-3.4-3c0-3.3,4.4-3.4,6.1-3.4ZM69,180.6c1.9,0,3.1-2,3.1-3.7v-.5h-.6c-1.6,0-4.7,0-4.7,2.3s.7,1.9,2.2,1.9Z"/>
            <path d="M76.5,179.1s1.1,1.5,3.1,1.5,2.1-.5,2.1-1.6c0-2.2-5.6-1.8-5.6-5s1.6-2.7,3.6-2.7,3,.4,3,1.8v.9h-1.3v-.5c0-.7-1.1-1-1.7-1-1.4,0-2.2.5-2.2,1.5,0,2.2,5.6,1.7,5.6,5.1s-1.5,2.8-3.5,2.8-3.8-1.8-3.8-1.8l.8-.9Z"/>
            <path d="M85.6,169.1c0-.3-.2-.4-.4-.4h-.8v-1.2h1.4c.9,0,1.2.4,1.2,1.2v4.2c0,.5,0,.8,0,.8h0c.4-1,1.7-2.5,4-2.5s3.4,1.4,3.4,3.9v4.8c0,.3.2.4.4.4h.8v1.2h-1.4c-.9,0-1.2-.4-1.2-1.2v-4.8c0-1.6-.2-3-2.2-3s-3.2,1.2-3.6,2.8c-.1.4-.2.9-.2,1.3v4.8h-1.4v-12.4Z"/>
            <path d="M97.8,173.1c0-.3-.2-.4-.4-.4h-.8v-1.2h1.4c.9,0,1.2.4,1.2,1.2v7.2c0,.3.2.4.4.4h.8v1.2h-1.4c-.9,0-1.2-.4-1.2-1.2v-7.2ZM97.7,167.5h1.3v1.7h-1.3v-1.7Z"/>
            <path d="M107,171.3c2.9,0,5.3,2.2,5.3,5.2s-2.4,5.3-5.3,5.3-5.3-2.3-5.3-5.3,2.4-5.2,5.3-5.2ZM107,180.5c2.1,0,3.9-1.8,3.9-4.1s-1.8-4-3.9-4-3.9,1.7-3.9,4,1.8,4.1,3.9,4.1Z"/>
            <path d="M114.8,173.1c0-.3-.2-.4-.4-.4h-.8v-1.2h1.4c.8,0,1.2.4,1.2,1.1v.5c0,.4,0,.7,0,.7h0c.4-.9,1.6-2.5,4-2.5s3.4,1.4,3.4,3.9v4.8c0,.3.2.4.4.4h.8v1.2h-1.4c-.9,0-1.2-.4-1.2-1.2v-4.8c0-1.6-.2-3-2.2-3s-3.2,1.2-3.6,2.8c-.1.4-.2.9-.2,1.4v4.8h-1.4v-8.4Z"/>
          </g>
        </g>
        <g class="st16">
          <g class="st16">
            <path d="M131.4,169.2c0-.4-.4-.4-.7-.4h-.2v-1.2h.6c1,0,1.5.2,1.7,1.2l2.4,9.7c.2.7.3,1.5.3,1.5h0s.2-.8.4-1.5l3.1-10.7h1.4l2.8,10.7c.2.7.3,1.5.3,1.5h0s.1-.8.3-1.5l2.4-9.7c.2-1,.7-1.2,1.7-1.2h.6v1.2h-.2c-.4,0-.6,0-.7.4l-3.2,12.3h-1.7l-2.6-9.7c-.2-.9-.5-2.1-.5-2.1h0s-.2,1.2-.5,2l-2.9,9.8h-1.7l-3.2-12.3Z"/>
          </g>
        </g>
        <g class="st16">
          <g class="st16">
            <path d="M153.6,171.3c2.8,0,4.2,2.1,4.2,4.6s0,.7,0,.7h-7.7c0,2.5,1.8,4,3.9,4s3-1.2,3-1.2l.7,1s-1.5,1.4-3.7,1.4-5.2-2.1-5.2-5.2,2.2-5.3,4.9-5.3ZM156.4,175.5c0-2.1-1.4-3.1-2.8-3.1s-3.1,1.1-3.4,3.1h6.3Z"/>
            <path d="M165.7,175.3h.6c0-2.2-.8-2.9-2.6-2.9s-2,.1-2,.9v.6h-1.3v-1c0-1.4,2.4-1.7,3.3-1.7,3.2,0,3.9,1.7,3.9,3.8v4.8c0,.3.2.4.4.4h.8v1.2h-1.4c-.9,0-1.2-.4-1.2-1.2s0-.7,0-.7h0s-.8,2.2-3.3,2.2-3.4-1-3.4-3c0-3.3,4.4-3.4,6.1-3.4ZM163.2,180.6c1.9,0,3.1-2,3.1-3.7v-.5h-.6c-1.6,0-4.7,0-4.7,2.3s.7,1.9,2.2,1.9Z"/>
            <path d="M171.1,173.1c0-.3-.2-.4-.4-.4h-.8v-1.2h1.4c.8,0,1.2.3,1.2,1.1v.7c0,.4,0,.8,0,.8h0c.5-1.5,1.6-2.7,3.2-2.7s.5,0,.5,0v1.3s-.2,0-.5,0c-1.4,0-2.5,1.1-2.9,2.6-.2.6-.3,1.3-.3,1.9v4.2h-1.4v-8.4Z"/>
          </g>
        </g>
      </g>
      <g>
        <path class="st33" d="M48,171.5s-1.1,1-3,2.3c-.5-3-1.9-6.7-4.8-11.2,0,0-.9,4.9-4,9.5-1.4-2.1-1.9-3.7-1.9-3.7-9.7,9.7-1.7,16.6,3.4,16.6s12.2-3.1,10.3-13.3h0v-.2Z"/>
        <path class="st37" d="M44.2,180.2c.6-1.2.9-2.8,1-4.8,0,0-.8.7-2.1,1.5-.4-2-1.4-4.5-3.3-7.5,0,0-.6,3.2-2.8,6.3-.9-1.4-1.4-2.5-1.4-2.5-1.6,2.5-2.2,4.6-2.3,6.1-.9-.3-1.4-.6-1.4-.6,1.5,4.6,4.7,5.5,6.1,5.5,2.5,0,5.1-.8,7.6-4.4,0,0-.6.1-1.4.3h0Z"/>
        <path class="st10" d="M35,178.1s1,1.4,1.8,1.1c0,0,1.5-2.3,3.7-3.6,0,0-.4,3.6,0,4.2.7.8,2.5-.9,2.5-.9,0,2.1-2.3,4.8-4.4,4.8s-5-2.3-3.7-5.5h.1Z"/>
        <path class="st33" d="M45.4,168.5c.8-1.1,1.3-2.3,1.3-2.3,1.3,2.1.5,3.4,0,3.9-.8.6-2.2-.3-1.3-1.6h0Z"/>
        <path class="st33" d="M31.2,168.2c-.8-1.3-.9-2.9-.9-2.9-1.9,2.8-1.1,4.3-.5,4.8.8.6,2.2-.3,1.4-1.9h0Z"/>
        <path class="st33" d="M35.5,165.2c0-.9-.3-1.8-.3-1.8,1.8,1.1,1.7,2.1,1.5,2.5-.3.5-1.4.3-1.2-.7h0Z"/>
      </g>
    </g>
  </g>
</svg>