<?xml version="1.0" encoding="UTF-8"?>
<svg id="Layer_2" xmlns="http://www.w3.org/2000/svg" version="1.1" viewBox="0 0 353.7 280.9">
  <!-- Generator: Adobe Illustrator 29.5.1, SVG Export Plug-In . SVG Version: 2.1.0 Build 141)  -->
  <defs>
    <style>
      .st0 {
        isolation: isolate;
      }

      .st1 {
        fill: #0071bc;
      }

      .st2 {
        fill: #ed4c5c;
      }
    </style>
  </defs>
  <g id="Layer_1-2">
    <g>
      <path d="M39,75.9l-5.1,4.9c-3.5-3.7-7.4-5.5-11.8-5.5s-6.8,1.3-9.3,3.8c-2.5,2.5-3.8,5.6-3.8,9.3s.6,4.9,1.7,6.9,2.7,3.6,4.7,4.7,4.3,1.7,6.8,1.7,4.1-.4,5.9-1.2c1.8-.8,3.7-2.2,5.8-4.3l5,5.2c-2.8,2.8-5.5,4.7-8.1,5.8-2.5,1.1-5.4,1.6-8.7,1.6-6,0-10.9-1.9-14.7-5.7s-5.7-8.7-5.7-14.6.9-7.3,2.6-10.3c1.7-3,4.2-5.4,7.5-7.2s6.7-2.7,10.5-2.7,6.2.7,9.2,2,5.5,3.3,7.6,5.7h0Z"/>
      <path d="M58.1,78.4c2.7,0,5.2.7,7.6,2,2.4,1.3,4.2,3.2,5.6,5.5,1.3,2.3,2,4.8,2,7.5s-.7,5.2-2,7.6c-1.3,2.3-3.2,4.2-5.5,5.5s-4.8,2-7.6,2c-4.1,0-7.6-1.5-10.5-4.4-2.9-2.9-4.3-6.4-4.3-10.6s1.6-8.2,4.9-11.2c2.9-2.6,6.2-3.9,9.9-3.9h0ZM58.2,85.2c-2.2,0-4.1.8-5.6,2.3-1.5,1.6-2.2,3.5-2.2,5.9s.7,4.5,2.2,6c1.5,1.5,3.3,2.3,5.6,2.3s4.1-.8,5.6-2.3c1.5-1.6,2.2-3.6,2.2-6s-.7-4.4-2.2-6-3.3-2.3-5.6-2.3Z"/>
      <path d="M79.1,79.2h7.2v2.9c1.6-1.4,3.1-2.3,4.4-2.9s2.7-.8,4.1-.8c2.8,0,5.2,1,7.2,3,1.7,1.7,2.5,4.2,2.5,7.5v18.9h-7.1v-12.5c0-3.4-.2-5.7-.5-6.8-.3-1.1-.8-2-1.6-2.6s-1.7-.9-2.8-.9-2.7.5-3.7,1.5-1.8,2.3-2.2,4c-.2.9-.3,2.8-.3,5.8v11.4h-7.2v-28.5h0Z"/>
      <path d="M108.3,79.2h7.3l7.2,16.8,7.2-16.8h7.3l-12.2,28.6h-4.6s-12.2-28.5-12.2-28.6Z"/>
      <path d="M170,95.5h-23c.3,2,1.2,3.6,2.7,4.8s3.3,1.8,5.5,1.8,5-.9,6.9-2.8l6,2.8c-1.5,2.1-3.3,3.7-5.4,4.7-2.1,1-4.6,1.5-7.5,1.5-4.5,0-8.1-1.4-10.9-4.2s-4.2-6.4-4.2-10.6,1.4-8,4.2-10.8c2.8-2.9,6.3-4.3,10.6-4.3s8.1,1.4,11,4.3c2.8,2.9,4.2,6.7,4.2,11.4v1.4s0,0,0,0ZM162.9,89.9c-.5-1.6-1.4-2.9-2.8-3.9-1.4-1-3-1.5-4.9-1.5s-3.8.6-5.3,1.7c-.9.7-1.8,1.9-2.6,3.7h15.5Z"/>
      <path d="M175.8,79.2h7.2v2.9c1.6-1.4,3.1-2.3,4.4-2.9,1.3-.5,2.7-.8,4.1-.8,2.8,0,5.2,1,7.2,3,1.7,1.7,2.5,4.2,2.5,7.5v18.9h-7.1v-12.5c0-3.4-.1-5.7-.5-6.8-.3-1.1-.8-2-1.6-2.6-.8-.6-1.7-.9-2.8-.9s-2.7.5-3.7,1.5-1.8,2.3-2.2,4c-.2.9-.3,2.8-.3,5.8v11.4h-7.2v-28.5h0Z"/>
      <path d="M210.9,67.4c1.3,0,2.3.5,3.2,1.4.9.9,1.4,2,1.4,3.3s-.4,2.4-1.3,3.3-1.9,1.3-3.2,1.3-2.4-.5-3.3-1.4c-.9-.9-1.4-2-1.4-3.3s.4-2.3,1.3-3.2c.9-.9,2-1.3,3.2-1.3h0ZM207.3,79.2h7.2v28.6h-7.2v-28.6Z"/>
      <path d="M249.6,95.5h-23c.3,2,1.2,3.6,2.7,4.8s3.3,1.8,5.5,1.8,5-.9,6.9-2.8l6,2.8c-1.5,2.1-3.3,3.7-5.4,4.7-2.1,1-4.6,1.5-7.5,1.5-4.5,0-8.1-1.4-10.9-4.2s-4.2-6.4-4.2-10.6,1.4-8,4.2-10.8c2.8-2.9,6.3-4.3,10.6-4.3s8.1,1.4,11,4.3c2.8,2.9,4.2,6.7,4.2,11.4v1.4s0,0,0,0ZM242.4,89.9c-.5-1.6-1.4-2.9-2.8-3.9-1.4-1-3-1.5-4.9-1.5s-3.8.6-5.3,1.7c-.9.7-1.8,1.9-2.6,3.7h15.5Z"/>
      <path d="M255.4,79.2h7.2v2.9c1.6-1.4,3.1-2.3,4.4-2.9s2.7-.8,4-.8c2.8,0,5.2,1,7.2,3,1.7,1.7,2.5,4.2,2.5,7.5v18.9h-7.1v-12.5c0-3.4-.1-5.7-.5-6.8-.3-1.1-.8-2-1.6-2.6s-1.7-.9-2.8-.9-2.7.5-3.7,1.5-1.8,2.3-2.2,4c-.2.9-.3,2.8-.3,5.8v11.4h-7.2v-28.5h0Z"/>
      <path d="M315.6,84.9l-6,3.3c-1.1-1.2-2.2-2-3.3-2.4s-2.4-.7-3.9-.7c-2.7,0-4.9.8-6.5,2.4s-2.5,3.7-2.5,6.1.8,4.4,2.4,5.9c1.6,1.5,3.7,2.3,6.3,2.3s5.7-1.1,7.5-3.3l5.6,3.9c-3.1,4-7.4,6-13,6s-9-1.5-11.8-4.5-4.3-6.5-4.3-10.4.7-5.3,2.1-7.6,3.3-4.2,5.8-5.5,5.2-2,8.3-2,5.4.6,7.6,1.7c2.3,1.1,4.1,2.7,5.5,4.8h0Z"/>
      <path d="M350.6,95.5h-23c.3,2,1.2,3.6,2.7,4.8s3.3,1.8,5.5,1.8,5-.9,6.9-2.8l6,2.8c-1.5,2.1-3.3,3.7-5.4,4.7-2.1,1-4.6,1.5-7.5,1.5-4.5,0-8.1-1.4-10.9-4.2s-4.2-6.4-4.2-10.6,1.4-8,4.2-10.8c2.8-2.9,6.3-4.3,10.6-4.3s8.1,1.4,11,4.3c2.8,2.9,4.2,6.7,4.2,11.4v1.4s0,0,0,0ZM343.5,89.9c-.5-1.6-1.4-2.9-2.8-3.9-1.4-1-3-1.5-4.9-1.5s-3.8.6-5.3,1.7c-1,.7-1.8,1.9-2.6,3.7h15.5Z"/>
      <path d="M86.8,132.7l-5.1,4.9c-3.5-3.7-7.4-5.5-11.8-5.5s-6.8,1.3-9.3,3.8c-2.5,2.5-3.8,5.6-3.8,9.3s.6,4.9,1.7,6.9,2.7,3.6,4.7,4.7,4.3,1.7,6.8,1.7,4.1-.4,5.9-1.2c1.8-.8,3.7-2.2,5.8-4.4l5,5.2c-2.8,2.8-5.5,4.7-8.1,5.8-2.5,1.1-5.4,1.6-8.7,1.6-6,0-10.9-1.9-14.7-5.7-3.8-3.8-5.7-8.7-5.7-14.6s.9-7.3,2.6-10.3c1.7-3,4.2-5.4,7.5-7.2s6.7-2.7,10.5-2.7,6.2.7,9.2,2,5.5,3.3,7.6,5.7h0Z"/>
      <path d="M92.4,136h7.2v13.8c0,2.7.2,4.5.5,5.6s1,1.9,1.8,2.4c.8.6,1.8.9,3,.9s2.2-.3,3-.9,1.5-1.4,1.8-2.5c.3-.8.5-2.6.5-5.3v-14h7.2v12.1c0,5-.4,8.4-1.2,10.2-1,2.2-2.4,4-4.2,5.2s-4.2,1.8-7.1,1.8-5.7-.7-7.6-2.1c-1.9-1.4-3.3-3.4-4.1-5.9-.6-1.7-.8-4.9-.8-9.4v-11.9h0Z"/>
      <path d="M123.9,125h7.2v39.6h-7.2s0-39.6,0-39.6Z"/>
      <path d="M138.4,125.5h7.2v10.5h4.2v6.2h-4.2v22.4h-7.2v-22.4h-3.7v-6.2h3.7v-10.5Z"/>
      <path d="M153.7,136h7.2v13.8c0,2.7.2,4.5.6,5.6s1,1.9,1.8,2.4c.8.6,1.8.9,3,.9s2.2-.3,3-.9,1.4-1.4,1.8-2.5c.3-.8.4-2.6.4-5.3v-14h7.2v12.1c0,5-.4,8.4-1.2,10.2-1,2.2-2.4,4-4.2,5.2s-4.2,1.8-7.1,1.8-5.7-.7-7.6-2.1c-1.9-1.4-3.3-3.4-4.1-5.9-.6-1.7-.8-4.9-.8-9.4v-11.9h0Z"/>
      <path d="M184.3,136h6.1v3.6c.7-1.4,1.6-2.5,2.6-3.2,1.1-.7,2.3-1.1,3.6-1.1s1.9.2,2.9.7l-2.2,6.2c-.8-.4-1.5-.6-2.1-.6-1.1,0-2,.7-2.8,2.1-.8,1.4-1.1,4-1.1,8v1.4s0,11.6,0,11.6h-7.1v-28.6h0Z"/>
      <path d="M231.7,152.3h-23c.3,2,1.2,3.6,2.7,4.8s3.3,1.8,5.5,1.8,5-.9,6.9-2.8l6,2.8c-1.5,2.1-3.3,3.7-5.4,4.7-2.1,1-4.6,1.5-7.5,1.5-4.5,0-8.1-1.4-10.9-4.2s-4.2-6.4-4.2-10.6,1.4-8,4.2-10.8c2.8-2.9,6.3-4.3,10.6-4.3s8.1,1.4,11,4.3,4.2,6.7,4.2,11.4v1.4s0,0,0,0ZM224.6,146.7c-.5-1.6-1.4-2.9-2.8-3.9-1.4-1-3-1.5-4.9-1.5s-3.8.6-5.3,1.7c-.9.7-1.8,1.9-2.6,3.7h15.5Z"/>
      <path d="M241,157.3l5.1,2.6-6.5,11.1-3.6-1.7,4.9-11.9h0Z"/>
      <path d="M292.6,149.4l4.4,5-2,1.8-2,1.8,6.2,6.6h-8.9l-2.6-2.6c-4.1,2.4-7.8,3.6-11.3,3.6s-5.4-.9-7.2-2.6c-1.8-1.7-2.7-3.9-2.7-6.7s.5-4,1.6-5.8,2.8-3.7,5.3-5.6c-2.5-3.3-3.7-6.3-3.7-8.9s.8-3.8,2.5-5.6,4-2.8,6.9-2.8,5.4.9,7,2.8,2.4,3.7,2.4,5.6-.4,2.9-1.1,4.2c-.7,1.3-2.4,3.3-5.1,6,3.1,3.7,5.2,6,6.1,6.9.6-.4,2-1.6,4.3-3.6h0ZM283,156.8c-1.4-1.3-3.2-3.5-5.7-6.6-2.6,2.1-3.9,4-3.9,5.6s.4,1.4,1.1,2.1c.7.6,1.6.9,2.7.9,1.6,0,3.5-.7,5.9-2.1h0ZM278.6,140.9c1.9-1.7,2.9-3.1,2.9-4.4s-.2-1.2-.7-1.6-1-.6-1.7-.6-1.2.2-1.7.7-.7,1-.7,1.7c0,1.3.6,2.7,1.9,4.3h0Z"/>
      <path d="M41.5,187l-5.1,4.9c-3.5-3.7-7.4-5.5-11.8-5.5s-6.8,1.3-9.3,3.8c-2.5,2.5-3.8,5.6-3.8,9.3s.6,4.9,1.7,6.9,2.7,3.6,4.7,4.7,4.3,1.7,6.8,1.7,4.1-.4,5.9-1.2c1.8-.8,3.7-2.2,5.8-4.4l5,5.2c-2.8,2.8-5.5,4.7-8.1,5.8-2.5,1.1-5.4,1.6-8.7,1.6-6,0-10.9-1.9-14.7-5.7-3.8-3.8-5.7-8.7-5.7-14.6s.9-7.3,2.6-10.3c1.7-3,4.2-5.4,7.5-7.2s6.7-2.7,10.5-2.7,6.2.7,9.2,2,5.5,3.3,7.6,5.7h0Z"/>
      <path d="M60.6,189.5c2.7,0,5.2.7,7.6,2s4.2,3.2,5.6,5.5,2,4.8,2,7.5-.7,5.2-2,7.6c-1.3,2.3-3.2,4.2-5.5,5.5s-4.8,2-7.6,2c-4.1,0-7.6-1.5-10.5-4.4-2.9-2.9-4.3-6.4-4.3-10.6s1.6-8.2,4.9-11.1c2.9-2.6,6.2-3.9,9.9-3.9h0ZM60.7,196.3c-2.2,0-4.1.8-5.6,2.3-1.5,1.6-2.2,3.5-2.2,5.9s.7,4.5,2.2,6c1.5,1.5,3.3,2.3,5.6,2.3s4.1-.8,5.6-2.3c1.5-1.6,2.2-3.6,2.2-6s-.7-4.4-2.2-6-3.3-2.3-5.6-2.3Z"/>
      <path d="M81.5,190.3h7.2v3.3c1.2-1.4,2.6-2.4,4.1-3,1.5-.7,3.1-1,4.9-1s3.4.4,4.8,1.3c1.4.9,2.6,2.1,3.5,3.8,1.1-1.7,2.5-3,4.2-3.8,1.7-.9,3.5-1.3,5.4-1.3s3.8.5,5.4,1.4c1.5.9,2.7,2.2,3.3,3.7s1,4,1,7.4v16.7h-7.2v-14.5c0-3.2-.4-5.4-1.2-6.6s-2-1.7-3.6-1.7-2.3.4-3.3,1.1-1.7,1.7-2.2,2.9c-.5,1.2-.7,3.2-.7,5.9v12.9h-7.2v-13.8c0-2.6-.2-4.4-.6-5.6-.4-1.1-.9-2-1.7-2.6-.8-.6-1.7-.8-2.7-.8s-2.3.4-3.2,1.1c-1,.7-1.7,1.7-2.2,3s-.7,3.3-.7,6v12.7h-7.2v-28.6h0Z"/>
      <path d="M132,190.3h7.2v3.3c1.2-1.4,2.6-2.4,4.1-3,1.5-.7,3.1-1,4.9-1s3.4.4,4.8,1.3c1.4.9,2.6,2.1,3.5,3.8,1.1-1.7,2.5-3,4.2-3.8,1.6-.9,3.5-1.3,5.4-1.3s3.8.5,5.4,1.4c1.5.9,2.6,2.2,3.3,3.7.7,1.5,1,4,1,7.4v16.7h-7.2v-14.5c0-3.2-.4-5.4-1.2-6.6s-2-1.7-3.6-1.7-2.3.4-3.3,1.1c-1,.7-1.7,1.7-2.2,2.9-.5,1.2-.7,3.2-.7,5.9v12.9h-7.2v-13.8c0-2.6-.2-4.4-.6-5.6-.4-1.1-.9-2-1.7-2.6-.8-.6-1.7-.8-2.7-.8s-2.3.4-3.2,1.1c-1,.7-1.7,1.7-2.2,3s-.7,3.3-.7,6v12.7h-7.2v-28.6h0Z"/>
      <path d="M211.2,206.6h-23c.3,2,1.2,3.6,2.7,4.8s3.3,1.8,5.5,1.8,5-.9,6.9-2.8l6,2.8c-1.5,2.1-3.3,3.7-5.4,4.7-2.1,1-4.6,1.5-7.5,1.5-4.5,0-8.1-1.4-10.9-4.2s-4.2-6.4-4.2-10.6,1.4-8,4.2-10.9c2.8-2.9,6.3-4.3,10.6-4.3s8.1,1.4,11,4.3,4.2,6.7,4.2,11.4v1.4s0,0,0,0ZM204,201c-.5-1.6-1.4-2.9-2.8-3.9-1.4-1-3-1.5-4.9-1.5s-3.8.6-5.3,1.7c-.9.7-1.8,1.9-2.6,3.7h15.5Z"/>
      <path d="M215.3,190.3h6.1v3.6c.7-1.4,1.6-2.5,2.6-3.2,1.1-.7,2.3-1.1,3.6-1.1s1.9.2,2.9.7l-2.2,6.2c-.8-.4-1.5-.6-2.1-.6-1.1,0-2,.7-2.8,2.1-.8,1.4-1.1,4-1.1,8v1.4s0,11.6,0,11.6h-7.1v-28.6h0Z"/>
      <path d="M262.1,196l-6,3.3c-1.1-1.2-2.2-2-3.3-2.4s-2.4-.7-3.9-.7c-2.7,0-4.9.8-6.5,2.4s-2.5,3.6-2.5,6.1.8,4.4,2.4,5.9,3.7,2.3,6.3,2.3,5.7-1.1,7.5-3.3l5.6,3.9c-3.1,4-7.4,6-13,6s-8.9-1.5-11.8-4.5-4.3-6.5-4.3-10.4.7-5.3,2.1-7.6,3.3-4.2,5.8-5.5,5.2-2,8.3-2,5.4.6,7.6,1.7,4.1,2.7,5.5,4.8h0Z"/>
      <path d="M297.2,206.6h-23c.3,2,1.2,3.6,2.7,4.8s3.3,1.8,5.5,1.8,5-.9,6.9-2.8l6,2.8c-1.5,2.1-3.3,3.7-5.4,4.7-2.1,1-4.6,1.5-7.5,1.5-4.5,0-8.1-1.4-10.9-4.2s-4.2-6.4-4.2-10.6,1.4-8,4.2-10.9,6.3-4.3,10.6-4.3,8.1,1.4,11,4.3,4.2,6.7,4.2,11.4v1.4s0,0,0,0ZM290,201c-.5-1.6-1.4-2.9-2.8-3.9-1.4-1-3-1.5-4.9-1.5s-3.8.6-5.3,1.7c-1,.7-1.8,1.9-2.6,3.7h15.5Z"/>
      <g>
        <path class="st1" d="M344.2,213.9c-1.1,1.8-3.7,2.8-7.2,2.8s-1.1,0-1.7,0c.7-1.6,1.2-3.4,1.5-5.3,2.4-1.6,4.4-3.4,5.9-5.3,0,0,0,0,0,0,2.1,3.1,2.6,5.8,1.4,7.8h0ZM327.7,222.3c-2.3,0-4.4-1.9-6-4.9,1.9-.3,3.9-.8,6-1.5,2,.7,4.1,1.2,6,1.5-1.5,3-3.7,4.9-6,4.9ZM318.4,216.7h0c-3.5,0-6.1-1-7.2-2.8-1.2-2-.8-4.7,1.4-7.8,0,0,0,0,0,0,1.5,1.9,3.6,3.7,5.9,5.3.4,1.9.9,3.7,1.5,5.3-.6,0-1.1,0-1.7,0h0ZM312.5,204.1c-2.1-3.1-2.6-5.8-1.4-7.8,1.1-1.8,3.7-2.8,7.2-2.8s1.1,0,1.7,0c-.7,1.6-1.2,3.4-1.5,5.3-2.4,1.6-4.4,3.4-5.9,5.3,0,0,0,0,0,0h0ZM327.7,187.9c2.3,0,4.4,1.9,6,4.9-1.9.3-4,.8-6,1.5-2-.7-4.1-1.2-6-1.5,1.5-3,3.7-4.9,6-4.9ZM337.1,200.4c2,1.5,3.7,3.1,5,4.7-1.3,1.6-3,3.2-5,4.7.2-1.5.3-3.1.3-4.7s-.1-3.2-.3-4.7ZM329.3,194.8c1.7-.5,3.3-.9,4.9-1.1.6,1.3,1,2.7,1.4,4.3-.8-.5-1.6-1-2.5-1.4-1.2-.6-2.5-1.2-3.8-1.7h0ZM319.8,198c.4-1.6.8-3,1.4-4.3,1.6.2,3.2.6,4.9,1.1-1.3.5-2.5,1.1-3.8,1.7-.9.4-1.7.9-2.5,1.4h0ZM318.2,209.8c-2-1.5-3.7-3.1-5-4.7,1.3-1.6,3-3.2,5-4.7-.2,1.5-.3,3.1-.3,4.7s.1,3.2.3,4.7ZM326.1,215.4c-1.7.5-3.3.9-4.9,1.1-.6-1.3-1-2.7-1.4-4.3.8.5,1.6,1,2.5,1.4,1.2.6,2.5,1.2,3.8,1.7h0ZM335.5,212.2c-.4,1.6-.8,3-1.4,4.3-1.6-.2-3.2-.6-4.9-1.1,1.3-.5,2.5-1.1,3.8-1.7.9-.4,1.7-.9,2.5-1.4h0ZM332.5,212.7c-1.6.8-3.2,1.5-4.8,2.1-1.6-.6-3.2-1.3-4.8-2.1-1.2-.6-2.3-1.3-3.4-2-.3-1.8-.5-3.6-.5-5.6s.2-3.9.5-5.6c1-.7,2.2-1.4,3.4-2,1.6-.8,3.2-1.5,4.8-2.1,1.6.6,3.2,1.3,4.8,2.1,1.2.6,2.3,1.3,3.4,2,.3,1.8.5,3.6.5,5.6s-.2,3.9-.5,5.6c-1,.7-2.2,1.4-3.4,2ZM337,193.5c3.5,0,6.1,1,7.2,2.8,1.2,2,.8,4.7-1.4,7.8,0,0,0,0,0,0-1.5-1.9-3.6-3.7-5.9-5.3-.4-1.9-.9-3.7-1.5-5.3.6,0,1.1,0,1.7,0h0ZM343.5,205.1c.1-.1.2-.3.3-.4,2.4-3.4,2.9-6.6,1.4-8.9-1.4-2.1-4.3-3.3-8.2-3.3s-1.4,0-2.1.1c-1.8-3.6-4.3-5.9-7.2-5.9s-5.4,2.2-7.2,5.9c-.7,0-1.4-.1-2.1-.1-3.9,0-6.9,1.2-8.2,3.3-1.5,2.3-1,5.5,1.4,8.9,0,.1.2.3.3.4-.1.1-.2.3-.3.4-2.4,3.4-2.9,6.6-1.4,8.9,1.4,2.1,4.3,3.3,8.2,3.3h0c.7,0,1.4,0,2.1-.1,1.8,3.6,4.3,5.9,7.2,5.9s5.4-2.2,7.2-5.9c.7,0,1.4.1,2.1.1,3.9,0,6.9-1.2,8.2-3.3,1.5-2.3,1-5.5-1.4-8.9,0-.1-.2-.3-.3-.4Z"/>
        <path class="st2" d="M327.7,201.7c1.9,0,3.4,1.5,3.4,3.4s-1.5,3.4-3.4,3.4-3.4-1.5-3.4-3.4,1.5-3.4,3.4-3.4Z"/>
      </g>
    </g>
    <g class="st0">
      <g class="st0">
        <path d="M75.1,28.3h.4c.5,0,.7-.1.9-.6l5.9-15.8h2.8l5.9,15.8c.2.5.4.6.9.6h.4v2.3h-1.5c-1.3,0-1.7-.3-2.2-1.5l-1.4-3.8h-6.9l-1.4,3.8c-.5,1.2-.9,1.5-2.2,1.5h-1.5v-2.3ZM86.4,23l-2-5.7c-.3-1-.7-2.6-.7-2.6h0s-.4,1.6-.7,2.6l-2,5.7h5.6Z"/>
        <path d="M100.6,28.3h1.1c.4,0,.6-.2.6-.6v-15.8h2.4l8.3,11.8c.7,1,1.6,2.5,1.6,2.5h0s-.2-1.5-.2-2.5v-10.1c0-1.2.5-1.7,1.7-1.7h2.6v2.3h-1.1c-.4,0-.6.2-.6.6v15.8h-2.4l-8.3-11.8c-.7-1-1.5-2.5-1.5-2.5h0s.2,1.5.2,2.5v10.1c0,1.2-.5,1.7-1.7,1.7h-2.7v-2.3Z"/>
      </g>
      <g class="st0">
        <path d="M122.5,14.2h-1.7v-2.3h11c1.2,0,1.7.5,1.7,1.7v2.4h-2.4v-1.2c0-.4-.2-.6-.6-.6h-5.3v5.9h6.5v2.3h-6.5v5.4c0,.4.2.6.6.6h5.5c.4,0,.6-.2.6-.6v-1.2h2.4v2.4c0,1.2-.5,1.7-1.7,1.7h-8.3c-1.2,0-1.7-.5-1.7-1.7v-14.7Z"/>
      </g>
      <g class="st0">
        <path d="M136.2,14.8c-.1-.5-.4-.6-.9-.6h-.4v-2.3h1.5c1.3,0,2,.3,2.3,1.5l2.9,12c.2,1,.4,2,.4,2h0s.2-1,.4-2l3.8-13.5h2.4l3.5,13.5c.3,1,.4,2,.4,2h0s.1-1,.3-2l2.9-12c.3-1.3,1-1.5,2.3-1.5h1.5v2.3h-.4c-.5,0-.8.1-.9.6l-4.1,15.8h-3.1l-3.2-11.8c-.3-1.2-.5-2.6-.5-2.6h0s-.3,1.3-.6,2.5l-3.4,11.8h-3.1l-4.1-15.8Z"/>
      </g>
      <g class="st0">
        <path d="M176.9,11.6c2.5,0,7,1.1,7,4.1v1.8h-2.4v-1.1c0-1.6-2.6-2.4-4.5-2.4-3.8,0-6.7,2.8-6.7,7s2.9,7.3,6.8,7.3,5.9-2.5,5.9-2.5l1.4,1.9s-2.6,3.1-7.4,3.1-9.5-4.3-9.5-9.8,4-9.5,9.4-9.5Z"/>
        <path d="M187.7,14.8c0-.4-.2-.6-.6-.6h-1.1v-2.3h2.7c1.2,0,1.7.5,1.7,1.7v10.4c0,2.8,1.8,4.5,4.5,4.5s4.5-1.7,4.5-4.5v-10.3c0-1.2.5-1.7,1.7-1.7h2.6v2.3h-1.1c-.4,0-.6.2-.6.6v9.3c0,4.1-2.8,6.9-7.1,6.9s-7.1-2.8-7.1-6.9v-9.3Z"/>
      </g>
      <g class="st0">
        <path d="M207.2,14.8c0-.4-.2-.6-.6-.6h-1.1v-2.3h2.7c1.2,0,1.7.5,1.7,1.7v14.1c0,.4.2.6.6.6h5.2c.4,0,.6-.2.6-.6v-1.2h2.4v2.4c0,1.2-.5,1.7-1.7,1.7h-8c-1.2,0-1.7-.5-1.7-1.7v-14.1Z"/>
      </g>
      <g class="st0">
        <path d="M223.3,14.2h-3.8c-.4,0-.6.2-.6.6v1.2h-2.4v-2.5c0-1.2.4-1.6,1.6-1.6h12.9c1.2,0,1.6.4,1.6,1.6v2.5h-2.4v-1.2c0-.4-.2-.6-.6-.6h-3.8v16.4h-2.6V14.2Z"/>
      </g>
      <g class="st0">
        <path d="M250.1,11.6c5.4,0,9.6,4.2,9.6,9.5s-4.2,9.8-9.6,9.8-9.6-4.3-9.6-9.8,4.2-9.5,9.6-9.5ZM250.1,28.4c3.8,0,6.9-3.2,6.9-7.3s-3.1-7.1-6.9-7.1-6.8,3.1-6.8,7.1,3,7.3,6.8,7.3Z"/>
        <path d="M263.3,14.2h-1.7v-2.3h10.3c1.2,0,1.7.5,1.7,1.7v2.4h-2.4v-1.2c0-.4-.2-.6-.6-.6h-4.6v6.1h6.4v2.3h-6.4v8h-2.6V14.2Z"/>
      </g>
    </g>
  </g>
</svg>