<?xml version="1.0" encoding="UTF-8"?>
<svg id="Layer_2" xmlns="http://www.w3.org/2000/svg" xmlns:xlink="http://www.w3.org/1999/xlink" version="1.1" viewBox="0 0 1262.1 517.8">
  <!-- Generator: Adobe Illustrator 29.5.1, SVG Export Plug-In . SVG Version: 2.1.0 Build 141)  -->
  <defs>
    <style>
      .st0 {
        fill: #f9ad13;
      }

      .st1 {
        fill: none;
      }

      .st2 {
        fill: #ffbd00;
      }

      .st3 {
        fill: #f9ac14;
      }

      .st4 {
        fill: #f8a917;
      }

      .st5 {
        opacity: .1;
      }

      .st5, .st6 {
        isolation: isolate;
      }

      .st7 {
        fill: #f5a220;
      }

      .st8 {
        fill: #f8ab15;
      }

      .st9 {
        fill: #f7a61a;
      }

      .st10 {
        fill: #d3976e;
      }

      .st11 {
        fill: #f39d26;
      }

      .st12 {
        fill: #f2992a;
      }

      .st13 {
        fill: #cecece;
      }

      .st14 {
        fill: #fab00e;
      }

      .st15 {
        fill: #f39e25;
      }

      .st16 {
        fill: #f29a29;
      }

      .st17 {
        fill: #f1972e;
      }

      .st18 {
        fill: #ccc;
      }

      .st19 {
        fill: #f2992c;
      }

      .st20 {
        fill: #66f;
      }

      .st21 {
        fill: #f8aa16;
      }

      .st22 {
        fill: #f4a022;
      }

      .st23 {
        fill: #fbb20c;
      }

      .st24 {
        fill: #f6a41d;
      }

      .st25 {
        clip-path: url(#clippath-1);
      }

      .st26 {
        fill: #fcb409;
      }

      .st27 {
        fill: #f39c27;
      }

      .st28 {
        fill: #fff;
      }

      .st29 {
        fill: #f5a121;
      }

      .st30 {
        fill: #fbb20b;
      }

      .st31 {
        fill: #fcb30a;
      }

      .st32 {
        fill: #faae11;
      }

      .st33 {
        fill: #febb02;
      }

      .st34 {
        fill: #faaf10;
      }

      .st35 {
        fill: #f7a719;
      }

      .st36 {
        opacity: .2;
      }

      .st37 {
        fill: #f49e24;
      }

      .st38 {
        fill: #fbb10d;
      }

      .st39 {
        fill: #f6a51c;
      }

      .st40 {
        fill: #feba03;
      }

      .st41 {
        fill: #f5a31e;
      }

      .st42 {
        fill: #ed4c5c;
      }

      .st43 {
        fill: #e1e1e1;
      }

      .st44 {
        fill: #fdb806;
      }

      .st45 {
        fill: #f49f23;
      }

      .st46 {
        fill: #f9ad12;
      }

      .st47 {
        fill: #fdb607;
      }

      .st48 {
        fill: #f29b28;
      }

      .st49 {
        clip-path: url(#clippath);
      }

      .st50 {
        fill: #f6a61b;
      }

      .st51 {
        fill: #eed7ff;
      }

      .st52 {
        fill: #f7a818;
      }

      .st53 {
        fill: #fcb508;
      }

      .st54 {
        fill: #f1982d;
      }

      .st55 {
        fill: #fdb904;
      }
    </style>
    <clipPath id="clippath">
      <circle class="st1" cx="180.9" cy="135.3" r="37.4" transform="translate(42.6 314) rotate(-89.1)"/>
    </clipPath>
    <clipPath id="clippath-1">
      <path class="st1" d="M423.8,362.1l-106.8-.5c-1.1,0-2-1.2-2-2.7v-27.9c.1-1.5,1-2.7,2.1-2.7l106.8.5c1.1,0,2,1.2,2,2.7v27.9c-.1,1.5-1,2.7-2.1,2.7h0Z"/>
    </clipPath>
  </defs>
  <g id="Layer_1-2">
    <g>
      <g>
        <path class="st28" d="M100.2,497l6.2,1.8,3.4-6.1c1.5.2,3,.2,4.5,0l3.2,6.2,6.2-1.6-.2-7c1.4-.6,2.7-1.3,3.9-2.2l5.9,3.8,4.6-4.5-3.6-6c.9-1.2,1.6-2.5,2.3-3.8l7,.4,1.8-6.2-6.1-3.4c.2-1.5.2-3,0-4.5l6.3-3.2-1.6-6.2-7,.2c-.6-1.4-1.3-2.7-2.2-3.9l3.8-5.9-4.5-4.6-6,3.6c-1.2-.9-2.5-1.6-3.8-2.3l.4-7-6.2-1.8-3.4,6.2c-1.5-.2-3-.2-4.5,0l-3.1-6.2-6.2,1.6.2,7c-1.4.6-2.7,1.3-3.9,2.2l-5.9-3.8-4.6,4.5,3.6,6c-.9,1.2-1.6,2.5-2.3,3.8l-7-.4-1.8,6.2,6.1,3.4c-.2,1.5-.2,3,0,4.5l-6.2,3.2,1.5,6.2,7-.2c.6,1.4,1.3,2.7,2.2,3.9l-3.8,5.9,4.5,4.6,6-3.6c1.2.9,2.5,1.6,3.8,2.3l-.4,7h0ZM96.6,461.5c2.5-8.8,11.7-13.8,20.4-11.3,8.8,2.5,13.8,11.7,11.3,20.4-2.5,8.8-11.7,13.8-20.4,11.3-8.8-2.5-13.8-11.7-11.3-20.4Z"/>
        <path d="M117.4,499.6c-.2,0-.4-.1-.5-.3l-3-5.9c-1.2,0-2.5,0-3.8,0l-3.2,5.8c-.1.2-.4.3-.6.3l-6.2-1.8c-.2,0-.4-.3-.4-.6l.4-6.6c-1.1-.6-2.2-1.2-3.3-2l-5.7,3.4c-.2.1-.5,0-.7,0l-4.5-4.6c-.2-.2-.2-.5,0-.7l3.6-5.6c-.7-1.1-1.3-2.2-1.9-3.3l-6.6.2h0c-.3,0-.5-.2-.5-.4l-1.5-6.2c0-.3,0-.5.3-.6l5.9-3c0-1.3,0-2.5,0-3.8l-5.8-3.2c-.2-.1-.3-.4-.3-.7l1.8-6.2c0-.2.3-.4.6-.4l6.6.4c.6-1.2,1.2-2.2,2-3.3l-3.4-5.7c-.1-.2,0-.5,0-.7l4.6-4.5c.2-.2.5-.2.7,0l5.6,3.6c1.1-.7,2.2-1.3,3.3-1.8v-6.6c-.1-.3,0-.5.3-.6l6.2-1.6c.3,0,.5,0,.6.3l3,5.9c1.3,0,2.5,0,3.8,0l3.2-5.8c.1-.2.4-.3.7-.3l6.2,1.8c.2,0,.4.3.4.6l-.4,6.6c1.2.6,2.2,1.2,3.3,2l5.7-3.4c.2-.1.5,0,.7,0l4.5,4.6c.2.2.2.5,0,.7l-3.6,5.6c.7,1.1,1.3,2.2,1.8,3.3l6.6-.2h0c.3,0,.5.2.6.4l1.6,6.2c0,.3,0,.5-.3.6l-5.9,3c0,1.3,0,2.5,0,3.8l5.8,3.2c.2.1.3.4.3.7l-1.8,6.2c0,.2-.3.4-.6.4l-6.6-.4c-.6,1.2-1.2,2.2-2,3.3l3.4,5.7c.1.2,0,.5,0,.7l-4.6,4.5c-.2.2-.5.2-.7,0l-5.5-3.6c-1.1.7-2.2,1.3-3.3,1.8l.2,6.6c0,.3-.2.5-.4.6l-6.2,1.6s0,0-.1,0ZM114.2,492.2c.2,0,.4.1.5.3l2.9,5.8,5.3-1.3-.2-6.6c0-.2.1-.4.3-.5,1.3-.6,2.6-1.3,3.8-2.1.2-.1.4-.1.6,0l5.5,3.6,4-3.8-3.4-5.6c-.1-.2-.1-.4,0-.6.8-1.2,1.6-2.4,2.2-3.8,0-.2.3-.3.5-.3l6.5.4,1.5-5.3-5.8-3.2c-.2-.1-.3-.3-.3-.6.2-1.5.2-2.9,0-4.4,0-.2.1-.4.3-.5l5.9-2.9-1.3-5.3-6.6.2c-.2,0-.4-.1-.5-.3-.6-1.3-1.3-2.6-2.1-3.8-.1-.2-.1-.4,0-.6l3.6-5.5-3.8-4-5.6,3.4c-.2.1-.4.1-.6,0-1.2-.8-2.4-1.6-3.8-2.2-.2,0-.3-.3-.3-.5l.4-6.6-5.3-1.5-3.2,5.8c-.1.2-.3.3-.5.3-1.5-.2-2.9-.2-4.4,0-.2,0-.4-.1-.5-.3l-2.9-5.8-5.4,1.3v6.6c.1.2,0,.4-.2.5-1.3.6-2.6,1.3-3.8,2.1-.2.1-.4.1-.6,0l-5.5-3.6-4,3.8,3.4,5.6c.1.2.1.4,0,.6-.8,1.2-1.6,2.4-2.2,3.8-.1.2-.3.3-.5.3l-6.6-.4-1.5,5.3,5.8,3.2c.2.1.3.3.3.6-.2,1.5-.2,2.9,0,4.4,0,.2-.1.4-.3.5l-5.8,2.9,1.3,5.3,6.6-.2c.2,0,.4.1.5.3.6,1.3,1.3,2.6,2.1,3.8.1.2.1.4,0,.6l-3.6,5.5,3.8,4,5.6-3.4c.2-.1.4-.1.6,0,1.2.8,2.4,1.6,3.8,2.2.2,0,.3.3.3.5l-.4,6.6,5.3,1.5,3.1-5.8c.1-.2.3-.3.5-.3,1.5.2,2.9.2,4.4,0h0ZM112.5,483.1c-1.6,0-3.2-.2-4.7-.7-9-2.6-14.3-12.1-11.7-21.1,1.3-4.4,4.1-8,8.1-10.2s8.6-2.7,13-1.5c9,2.6,14.3,12.1,11.7,21.1-1.3,4.4-4.2,8-8.1,10.2-2.6,1.4-5.4,2.2-8.2,2.2h0ZM97.1,461.6c-2.4,8.5,2.5,17.3,10.9,19.7,4.1,1.2,8.4.7,12.1-1.4,3.7-2.1,6.4-5.5,7.6-9.6,2.4-8.5-2.5-17.3-10.9-19.7-4.1-1.2-8.4-.7-12.1,1.4-3.7,2.1-6.4,5.5-7.6,9.6Z"/>
      </g>
      <g>
        <path class="st28" d="M476,307.7l10.5,3,5.8-10.5c2.6.3,5.1.3,7.6.2l5.4,10.7,10.6-2.7-.3-12c2.3-1.1,4.6-2.3,6.7-3.7l10,6.6,7.9-7.6-6.2-10.2c1.5-2.1,2.8-4.2,3.9-6.6l12,.7,3-10.6-10.5-5.8c.3-2.6.3-5.1.1-7.7l10.7-5.4-2.6-10.7-12,.3c-1-2.3-2.3-4.6-3.7-6.7l6.6-10-7.6-7.9-10.2,6.2c-2-1.5-4.2-2.8-6.6-3.9l.7-12-10.5-3-5.8,10.5c-2.6-.3-5.1-.3-7.6-.2l-5.4-10.7-10.6,2.7.3,12c-2.3,1.1-4.6,2.3-6.7,3.7l-10-6.6-7.9,7.6,6.2,10.2c-1.5,2.1-2.8,4.2-3.9,6.6l-12-.7-3,10.6,10.5,5.8c-.3,2.6-.3,5.1-.1,7.7l-10.7,5.4,2.6,10.7,12-.3c1,2.3,2.3,4.6,3.7,6.7l-6.6,10,7.6,7.9,10.2-6.2c2,1.5,4.2,2.8,6.6,3.9l-.7,12h0ZM469.8,246.8c4.3-15,20-23.7,35-19.4,15,4.3,23.7,19.9,19.4,35-4.3,15-20,23.7-35,19.4-15-4.3-23.7-19.9-19.4-35Z"/>
        <path d="M505.3,311.6c-.2,0-.4-.1-.5-.3l-5.2-10.4c-2.3.1-4.6,0-7-.1l-5.6,10.2c-.1.2-.4.3-.6.3l-10.5-3c-.2,0-.4-.3-.4-.6l.7-11.6c-2.1-1.1-4.1-2.3-6-3.6l-9.9,6c-.2.1-.5,0-.7,0l-7.6-7.9c-.2-.2-.2-.5,0-.7l6.4-9.7c-1.3-1.9-2.4-4-3.4-6.1l-11.6.3c-.3,0-.5-.2-.6-.4l-2.6-10.7c0-.3,0-.5.3-.6l10.4-5.2c-.1-2.3,0-4.7.1-7l-10.2-5.6c-.2-.1-.3-.4-.3-.7l3-10.6c0-.2.3-.4.6-.4l11.6.7c1.1-2.1,2.3-4.1,3.6-6l-6-9.9c-.1-.2-.1-.5,0-.7l7.9-7.6c.2-.2.5-.2.7,0l9.7,6.4c2-1.3,4-2.4,6.1-3.4l-.3-11.6c0-.3.2-.5.4-.6l10.6-2.7c.3,0,.5,0,.6.3l5.2,10.4c2.3-.1,4.6,0,7,.1l5.6-10.2c.1-.2.4-.3.6-.3l10.5,3c.2,0,.4.3.4.6l-.7,11.6c2.1,1.1,4.1,2.3,6,3.6l9.9-6c.2-.1.5,0,.7,0l7.6,7.9c.2.2.2.5,0,.7l-6.4,9.7c1.3,1.9,2.4,4,3.4,6.1l11.6-.3h0c.3,0,.5.2.5.4l2.6,10.7c0,.3,0,.5-.3.6l-10.4,5.2c.1,2.3,0,4.7-.1,7l10.2,5.6c.2.1.3.4.3.7l-3,10.6c0,.2-.3.4-.6.4l-11.6-.7c-1.1,2.1-2.3,4.1-3.6,6l6,9.9c.1.2.1.5,0,.7l-7.9,7.6c-.2.2-.5.2-.7,0l-9.7-6.4c-1.9,1.3-4,2.4-6.1,3.4l.3,11.6c0,.3-.2.5-.4.6l-10.6,2.7s0,0-.1,0h0ZM499.9,299.8c.2,0,.4.1.5.3l5.2,10.3,9.8-2.4-.3-11.5c0-.2.1-.4.3-.5,2.3-1,4.5-2.3,6.6-3.7.2-.1.4-.1.6,0l9.6,6.3,7.2-7-6-9.8c-.1-.2-.1-.4,0-.6,1.5-2,2.8-4.2,3.9-6.5.1-.2.3-.3.5-.3l11.5.7,2.8-9.7-10.1-5.6c-.2-.1-.3-.3-.3-.6.3-2.5.3-5.1.1-7.6,0-.2.1-.4.3-.5l10.3-5.2-2.4-9.8-11.5.3c-.2,0-.4-.1-.5-.3-1-2.3-2.3-4.5-3.7-6.6-.1-.2-.1-.4,0-.6l6.3-9.7-7-7.2-9.9,6c-.2.1-.4.1-.6,0-2-1.4-4.2-2.8-6.5-3.9-.2,0-.3-.3-.3-.5l.7-11.5-9.7-2.8-5.5,10.1c-.1.2-.3.3-.5.3-2.5-.3-5.1-.3-7.5-.2-.2,0-.4-.1-.5-.3l-5.2-10.3-9.8,2.4.3,11.5c0,.2-.1.4-.3.5-2.3,1-4.5,2.3-6.6,3.7-.2.1-.4.1-.6,0l-9.6-6.3-7.2,7,6,9.8c.1.2.1.4,0,.6-1.5,2-2.8,4.2-3.9,6.5-.1.2-.3.3-.5.3l-11.5-.7-2.8,9.7,10.1,5.6c.2.1.3.3.3.6-.3,2.5-.3,5.1-.1,7.6,0,.2-.1.4-.3.5l-10.3,5.2,2.4,9.8,11.5-.3c.2,0,.4.1.5.3,1,2.3,2.3,4.5,3.7,6.6.1.2.1.4,0,.6l-6.3,9.7,7,7.2,9.9-6c.2-.1.4-.1.6,0,2,1.4,4.2,2.8,6.5,3.9.2,0,.3.3.3.5l-.7,11.5,9.7,2.8,5.5-10.1c.1-.2.3-.3.5-.3,2.5.3,5.1.3,7.5.2h0ZM496.9,283.4c-2.6,0-5.3-.4-7.9-1.1-7.4-2.1-13.5-7-17.3-13.7s-4.6-14.5-2.5-21.9c2.1-7.4,7-13.5,13.7-17.3s14.5-4.6,21.9-2.5c7.4,2.1,13.5,7,17.3,13.7s4.6,14.5,2.5,21.9c-3.6,12.6-15.2,20.9-27.7,20.9h0ZM469.8,246.8l.5.2c-2,7.1-1.2,14.6,2.4,21.1,3.6,6.5,9.5,11.2,16.6,13.2,2.5.7,5.1,1.1,7.6,1.1,12,0,23.1-7.9,26.6-20.1,2-7.1,1.2-14.6-2.4-21.1-3.6-6.5-9.5-11.2-16.6-13.2-7.1-2-14.6-1.2-21.1,2.4s-11.2,9.5-13.2,16.6l-.5-.2h0Z"/>
      </g>
      <g>
        <path d="M507.6,155.7c-.1,0-.3,0-.4-.2-.2-.2-.2-.6,0-.8l2-2c.2-.2.6-.2.8,0s.2.6,0,.8l-2,2c-.1.1-.2.2-.4.2Z"/>
        <path d="M515,148.2c-.1,0-.3,0-.4-.2-.2-.2-.2-.6,0-.8l2-2c.2-.2.6-.2.8,0s.2.6,0,.8l-2,2c-.1.1-.2.2-.4.2Z"/>
        <path d="M516.9,155.7c-.1,0-.3,0-.4-.2l-2-2c-.2-.2-.2-.6,0-.8s.6-.2.8,0l2,2c.2.2.2.6,0,.8-.1.1-.2.2-.4.2Z"/>
        <path d="M509.5,148.2c-.1,0-.3,0-.4-.2l-2-2c-.2-.2-.2-.6,0-.8.2-.2.6-.2.8,0l2,2c.2.2.2.6,0,.8-.1.1-.2.2-.4.2Z"/>
      </g>
      <g>
        <path d="M103.1,238.5c0,0-.2,0-.2,0-.3-.1-.4-.5-.3-.8l1.1-2.5c.1-.3.5-.4.7-.3s.4.5.3.7l-1.1,2.5c0,.2-.3.3-.5.3h0Z"/>
        <path d="M107.4,229c0,0-.2,0-.2,0-.3-.1-.4-.5-.3-.8l1.1-2.5c.1-.3.5-.4.7-.3s.4.5.3.8l-1.1,2.5c0,.2-.3.3-.5.3h0Z"/>
        <path d="M111.9,235.3c0,0-.2,0-.2,0l-2.5-1.2c-.3-.1-.4-.5-.3-.8.1-.3.5-.4.7-.3l2.5,1.2c.3.1.4.5.3.8,0,.2-.3.3-.5.3h0Z"/>
        <path d="M102.3,230.9c0,0-.2,0-.2,0l-2.5-1.2c-.3-.1-.4-.5-.3-.8.1-.3.5-.4.7-.3l2.5,1.2c.3.1.4.5.3.7,0,.2-.3.3-.5.3h0Z"/>
      </g>
      <path d="M128.4,269.4c-2.2,0-4-1.8-4-4.1s1.8-4.1,4-4.1,4,1.8,4,4.1-1.8,4.1-4,4.1ZM128.4,262.4c-1.6,0-2.9,1.3-2.9,2.9s1.3,2.9,2.9,2.9,2.9-1.3,2.9-2.9-1.3-2.9-2.9-2.9Z"/>
      <g>
        <g>
          <g class="st49">
            <polygon class="st2" points="167 97.9 143.4 125.8 143.4 97.9 167 97.9"/>
            <polygon class="st33" points="204.6 97.9 218.3 109.4 218.3 111.2 166.3 172.8 157.1 172.8 143.4 161.2 143.4 125.8 167 97.9 204.6 97.9"/>
            <polygon class="st33" points="218.3 121.7 175.3 172.8 166.3 172.8 218.3 111.2 218.3 121.7"/>
            <polygon class="st40" points="218.3 132.3 184.2 172.8 175.3 172.8 218.3 121.7 218.3 132.3"/>
            <polygon class="st55" points="218.3 142.9 193.1 172.8 184.2 172.8 218.3 132.3 218.3 142.9"/>
            <polygon class="st44" points="218.3 153.5 202.1 172.8 193.1 172.8 218.3 142.9 218.3 153.5"/>
            <polygon class="st47" points="218.3 164.1 211 172.8 202.1 172.8 218.3 153.5 218.3 164.1"/>
            <polygon class="st53" points="211 172.8 218.3 164.1 218.3 172.8 211 172.8"/>
          </g>
          <path d="M180.9,173.3c-20.9,0-37.9-17-37.9-37.9s17-37.9,37.9-37.9,37.9,17,37.9,37.9-17,37.9-37.9,37.9ZM180.9,98.4c-20.4,0-36.9,16.6-36.9,36.9s16.6,36.9,36.9,36.9,36.9-16.6,36.9-36.9-16.6-36.9-36.9-36.9Z"/>
        </g>
        <g>
          <g>
            <path class="st28" d="M189.6,130.1l-.2-11.9c0-3.8-3.1-7-7-7.2-4.2-.2-7.7,3.3-7.6,7.5v3.7c.1,1.3-.9,2.3-2.2,2.3-1.2,0-2.1-1-2.1-2.2v-3.5c-.2-6.8,5.2-12.4,12.2-12.1h0c5.8.2,11.1,5.3,11.2,11.5l.2,12-4.5-.2h0Z"/>
            <path d="M194,130.8h0l-4.5-.2c-.3,0-.5-.2-.5-.6l-.2-11.9c0-3.5-2.9-6.4-6.4-6.6-1.9,0-3.7.6-5,1.9-1.3,1.3-2.1,3.1-2,5v3.7c0,.8-.2,1.5-.8,2.1-.6.5-1.3.8-2.1.8-1.5,0-2.7-1.3-2.7-2.8v-3.5c-.1-3.5,1.2-6.8,3.6-9.2,2.4-2.4,5.7-3.6,9.2-3.5h0c6.2.3,11.6,5.8,11.7,12.1l.2,12c0,.2,0,.3-.2.4-.1,0-.2.2-.4.2h0ZM190.1,129.5h3.3c0,.1-.1-11.3-.1-11.3-.1-5.7-5-10.8-10.7-11h0c-3.2-.1-6.1,1-8.3,3.2-2.2,2.2-3.4,5.2-3.3,8.3v3.5c0,.9.8,1.6,1.7,1.6.5,0,.9-.2,1.2-.5s.5-.8.5-1.2v-3.7c-.1-2.2.7-4.3,2.3-5.8,1.6-1.5,3.6-2.3,5.8-2.2,4.1.2,7.4,3.6,7.5,7.7l.2,11.3h0Z"/>
          </g>
          <path class="st28" d="M184.6,162.7l-5,.2c-6.9-.2-13.1-8.5-12.4-18.2l1.1-15.6,29.5-.2c2.6,0,4.8,2.3,4.6,4.9l-.9,13.2c-.6,8.9-8,15.7-16.8,15.7h0Z"/>
          <g>
            <path class="st28" d="M179.8,162.5c-9.8,0-17.5-8.3-16.8-18l1-15.1h31.2c1.4,0,2.6,1.2,2.5,2.6l-1,14.7c-.6,8.9-8,15.7-16.8,15.7h0Z"/>
            <path d="M179.8,163c-4.9,0-9.4-2-12.7-5.5-3.3-3.6-5-8.2-4.7-13.1l1-15.1c0-.3.3-.5.6-.5h31.2c.8,0,1.7.3,2.2,1s.9,1.4.8,2.3l-1,14.7c-.6,9.1-8.3,16.3-17.4,16.3h0ZM164.5,129.9l-1,14.6c-.3,4.6,1.2,8.9,4.4,12.2s7.3,5.2,11.9,5.2c8.6,0,15.7-6.7,16.3-15.2l1-14.7c0-.5-.2-1-.5-1.4-.4-.4-.9-.6-1.4-.6h-30.6Z"/>
          </g>
          <g>
            <path d="M179.4,152.9c-.8,0-1.4-.7-1.4-1.5l.8-11.8c0-.7.7-1.3,1.4-1.3s1.4.7,1.4,1.5l-.8,11.8c0,.7-.7,1.3-1.4,1.3Z"/>
            <circle cx="179.9" cy="140.8" r="5.1"/>
          </g>
        </g>
      </g>
      <g>
        <g>
          <path class="st20" d="M441.5,424.1l-143.9-.7c-17.3,0-31.3-14.2-31.2-31.5l1.5-360.7C268,13.9,282.1,0,299.4,0l143.9.7c17.3,0,31.3,14.2,31.2,31.5l-1.5,360.7c0,17.3-14.2,31.3-31.5,31.2h0Z"/>
          <path class="st28" d="M443.1,13.1h-27.9c-3.7-.2-6.8,3-6.8,6.9v5.1c0,3.9-3.1,7.1-6.8,7.1l-54.4-.2c-3.7,0-6.8-3.2-6.7-7.1v-5.1c0-3.9-3-7.1-6.7-7.1h-9.8c0,0-24.4-.2-24.4-.2-12.1,0-22,9.7-22.1,21.9l-1.5,352.1c0,12.1,9.7,22,21.9,22l143.6.7c12.1,0,22-9.7,22-21.9l1.5-352.1c0-12.1-9.7-22-21.9-22h0Z"/>
          <g>
            <g>
              <g class="st25">
                <rect class="st2" x="315" y="328.4" width="0" height="33.8"/>
                <rect class="st2" x="315" y="328.4" width="24.4" height="33.8"/>
                <rect class="st33" x="339.4" y="328.4" width="24.4" height="33.8"/>
                <rect class="st33" x="363.8" y="328.4" width="3.5" height="33.8"/>
                <rect class="st40" x="367.3" y="328.4" width="3.5" height="33.8"/>
                <rect class="st55" x="370.8" y="328.4" width="3.5" height="33.8"/>
                <rect class="st44" x="374.2" y="328.4" width="3.5" height="33.8"/>
                <rect class="st47" x="377.7" y="328.4" width="3.5" height="33.8"/>
                <rect class="st53" x="381.2" y="328.4" width="3.5" height="33.8"/>
                <rect class="st26" x="384.7" y="328.4" width="3.5" height="33.8"/>
                <rect class="st26" x="388.2" y="328.4" width="1.5" height="33.8"/>
                <rect class="st31" x="389.6" y="328.4" width="1.5" height="33.8"/>
                <rect class="st30" x="391.1" y="328.4" width="1.5" height="33.8"/>
                <rect class="st23" x="392.5" y="328.4" width="1.5" height="33.8"/>
                <rect class="st38" x="394" y="328.4" width="1.5" height="33.8"/>
                <rect class="st14" x="395.4" y="328.4" width="1.5" height="33.8"/>
                <rect class="st34" x="396.9" y="328.4" width="1.5" height="33.8"/>
                <rect class="st32" x="398.3" y="328.4" width="1.5" height="33.8"/>
                <rect class="st46" x="399.8" y="328.4" width="1.5" height="33.8"/>
                <rect class="st0" x="401.2" y="328.4" width="1.5" height="33.8"/>
                <rect class="st3" x="402.7" y="328.4" width="1.5" height="33.8"/>
                <rect class="st8" x="404.1" y="328.4" width="1.5" height="33.8"/>
                <rect class="st21" x="405.6" y="328.4" width="1.5" height="33.8"/>
                <rect class="st21" x="407" y="328.4" width=".8" height="33.8"/>
                <rect class="st4" x="407.9" y="328.4" width=".8" height="33.8"/>
                <rect class="st52" x="408.7" y="328.4" width=".8" height="33.8"/>
                <rect class="st35" x="409.5" y="328.4" width=".8" height="33.8"/>
                <rect class="st9" x="410.3" y="328.4" width=".8" height="33.8"/>
                <rect class="st50" x="411.1" y="328.4" width=".8" height="33.8"/>
                <rect class="st39" x="411.9" y="328.4" width=".8" height="33.8"/>
                <rect class="st24" x="412.8" y="328.4" width=".8" height="33.8"/>
                <rect class="st41" x="413.6" y="328.4" width=".8" height="33.8"/>
                <rect class="st7" x="414.4" y="328.4" width=".8" height="33.8"/>
                <rect class="st29" x="415.2" y="328.4" width=".8" height="33.8"/>
                <rect class="st22" x="416" y="328.4" width=".8" height="33.8"/>
                <rect class="st45" x="416.8" y="328.4" width=".8" height="33.8"/>
                <rect class="st37" x="417.7" y="328.4" width=".8" height="33.8"/>
                <rect class="st15" x="418.5" y="328.4" width=".8" height="33.8"/>
                <rect class="st11" x="419.3" y="328.4" width=".8" height="33.8"/>
                <rect class="st27" x="420.1" y="328.4" width=".8" height="33.8"/>
                <rect class="st48" x="420.9" y="328.4" width=".8" height="33.8"/>
                <rect class="st16" x="421.8" y="328.4" width=".8" height="33.8"/>
                <rect class="st16" x="422.6" y="328.4" width=".7" height="33.8"/>
                <rect class="st12" x="423.2" y="328.4" width=".7" height="33.8"/>
                <rect class="st19" x="423.9" y="328.4" width=".7" height="33.8"/>
                <rect class="st54" x="424.6" y="328.4" width=".7" height="33.8"/>
                <rect class="st17" x="425.2" y="328.4" width=".7" height="33.8"/>
                <rect class="st17" x="425.9" y="328.4" width="0" height="33.8"/>
              </g>
              <path d="M423.8,362.6h0l-106.8-.5c-.6,0-1.1-.2-1.5-.7-.6-.6-.9-1.5-.9-2.5v-27.9c.1-1.7,1.2-3.2,2.6-3.2l106.8.5c.6,0,1.1.2,1.5.7.6.6.9,1.5.9,2.5v27.9c-.1,1-.5,1.9-1.1,2.5-.4.4-1,.7-1.5.7ZM317.1,328.9c-.8,0-1.5,1-1.5,2.2v27.9c-.1.7.1,1.4.5,1.8.2.2.5.4.8.4l106.8.5c.4,0,.7-.2.8-.4.4-.4.7-1.1.7-1.8v-27.9c.1-.7-.1-1.4-.5-1.8-.2-.2-.5-.4-.8-.4l-106.8-.5Z"/>
            </g>
            <g class="st6">
              <g class="st6">
                <path d="M346.5,347.6l.3-.7c.6.6,1.6,1,2.6,1,1.5,0,2.2-.6,2.2-1.5,0-2.3-4.9-.9-4.9-4,0-1.2.9-2.3,3-2.3.9,0,1.8.3,2.5.8l-.3.7c-.7-.5-1.5-.7-2.2-.7-1.5,0-2.1.7-2.1,1.5,0,2.3,4.9.9,4.9,4,0,1.2-1,2.3-3,2.3-1.2,0-2.4-.5-3-1.1Z"/>
                <path d="M354.4,340.3h.8s0,8.4,0,8.4h-.8s0-8.4,0-8.4Z"/>
                <path d="M363.5,344.5h.8s0,3.2,0,3.2c-.8.7-1.8,1.1-3,1-2.4,0-4.2-1.8-4.2-4.3,0-2.4,1.8-4.2,4.3-4.2,1.2,0,2.3.4,3,1.2l-.5.6c-.7-.7-1.5-1-2.4-1-2,0-3.4,1.5-3.5,3.4,0,2,1.4,3.5,3.4,3.5.8,0,1.5-.2,2.1-.6v-2.8Z"/>
                <path d="M373.4,340.4v8.4s-.7,0-.7,0l-5.1-6.8v6.8s-.9,0-.9,0v-8.4s.7,0,.7,0l5.1,6.8v-6.8s.9,0,.9,0Z"/>
                <path d="M378.9,345.2v-4.8s.9,0,.9,0v4.8c0,2,.9,2.9,2.4,2.9,1.6,0,2.5-.9,2.5-2.9v-4.8s.8,0,.8,0v4.8c0,2.4-1.3,3.6-3.3,3.6-2.1,0-3.3-1.3-3.3-3.7Z"/>
                <path d="M394.4,343.3c0,1.8-1.3,2.8-3.3,2.8h-2.2s0,2.6,0,2.6h-.8s0-8.4,0-8.4h3c2,0,3.3,1.1,3.3,2.9ZM393.6,343.3c0-1.3-.8-2.1-2.4-2.1h-2.1s0,4.2,0,4.2h2.1c1.6,0,2.5-.7,2.5-2.1Z"/>
              </g>
            </g>
          </g>
        </g>
        <g>
          <g>
            <rect class="st51" x="316.4" y="101.4" width="6.8" height="37.1" transform="translate(198.5 439.2) rotate(-89.7)"/>
            <g class="st5">
              <rect class="st51" x="316.4" y="101.4" width="6.8" height="37.1" transform="translate(198.5 439.2) rotate(-89.7)"/>
            </g>
          </g>
          <path class="st43" d="M446.9,158.3s.3,0,.9-.2c.5-.2,1.3-.8,1.4-1.9,0-2.3,0-5.6,0-9.9v-9.2c0-.7,0-1.3-.4-1.9-.4-.5-1-.9-1.7-.9h-2.3c-6.1,0-13.1,0-20.8,0-30.9-.1-73.5-.3-120.5-.4-.6,0-1.2.3-1.6.8-.4.5-.4,1.1-.4,1.9,0,1.5,0,2.9,0,4.4,0,2.9,0,5.8,0,8.7,0,1.4,0,2.9,0,4.3,0,.7,0,1.5,0,2,.1.6.6,1.1,1.1,1.3.3.1.6.2.9.2h3.2c1.4,0,2.8,0,4.2,0,11.1,0,21.8.1,32,.2,20.4.1,38.7.2,54.2.3,15.4.1,27.9.2,36.5.3,4.3,0,7.6,0,9.9.1,1.1,0,2,0,2.6,0,.6,0,.9,0,.9,0,0,0-.3,0-.9,0-.6,0-1.5,0-2.6,0-2.3,0-5.6,0-9.9,0-8.6,0-21.1,0-36.5,0-15.4,0-33.8-.1-54.2-.2-10.2,0-20.9,0-32-.1-1.4,0-2.8,0-4.2,0h-3.2c-.4,0-.8,0-1.2-.2-.8-.3-1.4-1-1.6-1.8-.1-.4,0-.8,0-1.2v-1.1c0-1.4,0-2.8,0-4.3,0-2.9,0-5.8,0-8.7,0-1.4,0-2.9,0-4.4,0-.4,0-.7,0-1.2,0-.4.2-.8.5-1.2.5-.7,1.3-1.1,2.2-1.1,47,.3,89.6.5,120.5.7,7.7,0,14.7.1,20.8.2.8,0,1.5,0,2.3,0,.8,0,1.6.4,2,1.1.5.6.5,1.5.5,2.1,0,.7,0,1.3,0,2,0,2.6,0,5,0,7.2,0,4.3,0,7.6-.1,9.9-.1,1.2-1,1.8-1.5,2-.6.2-.9.1-.9.1h0Z"/>
          <g>
            <rect class="st51" x="316.2" y="163.4" width="6.8" height="37" transform="translate(136.2 500.6) rotate(-89.7)"/>
            <g class="st5">
              <rect class="st51" x="316.2" y="163.4" width="6.8" height="37" transform="translate(136.2 500.6) rotate(-89.7)"/>
            </g>
          </g>
          <path class="st43" d="M446,220.3s.3,0,.9-.2c.5-.2,1.4-.6,1.8-1.6.2-.5.3-1.1.2-1.8v-2.3c0-1.7,0-3.6,0-5.7v-9.2c0-.7,0-1.3-.4-1.9-.4-.6-.9-1-1.6-1.2-.6-.2-1.4,0-2.2-.1-6.1,0-13.1,0-20.7,0-30.8-.1-73.2-.3-120.1-.4-1.3,0-2.5,1-2.6,2.3,0,1.4,0,2.9,0,4.3,0,2.9,0,5.8,0,8.6,0,1.4,0,2.8,0,4.3,0,.7,0,1.4,0,2,.2.6.5,1.1,1.1,1.5.5.4,1.1.5,1.8.5h2.1c1.4,0,2.8,0,4.2,0,11.1,0,21.7.1,31.9.2,20.3.1,38.6.2,54,.3,15.3.1,27.8.2,36.4.3,4.3,0,7.6,0,9.9.1,1.1,0,2,0,2.6,0,.6,0,.9,0,.9,0,0,0-.3,0-.9,0-.6,0-1.5,0-2.6,0-2.3,0-5.6,0-9.9,0-8.6,0-21,0-36.4,0-15.4,0-33.7-.1-54-.2-10.2,0-20.8,0-31.9-.1-1.4,0-2.8,0-4.2,0h-2.1c-.7,0-1.6-.1-2.2-.6-.6-.4-1.1-1.1-1.4-1.9-.2-.8,0-1.5-.1-2.2,0-1.4,0-2.8,0-4.3,0-2.8,0-5.7,0-8.6,0-1.5,0-2.9,0-4.4.2-1.7,1.7-3,3.4-3,46.9.3,89.3.5,120.1.7,7.7,0,14.6.1,20.7.2.8,0,1.5,0,2.3.2.8.2,1.4.8,1.8,1.4.4.6.5,1.4.5,2.1,0,.7,0,1.3,0,2,0,2.6,0,5,0,7.2,0,2.1,0,4.1,0,5.7,0,.8,0,1.6,0,2.3,0,.7,0,1.4-.3,1.9-.5,1.1-1.4,1.5-1.9,1.6-.6.1-.9,0-.9,0h0Z"/>
          <g>
            <rect class="st51" x="315.9" y="228.1" width="6.8" height="37.1" transform="translate(71.2 564.8) rotate(-89.7)"/>
            <g class="st5">
              <rect class="st51" x="315.9" y="228.1" width="6.8" height="37.1" transform="translate(71.2 564.8) rotate(-89.7)"/>
            </g>
          </g>
          <path class="st43" d="M445.7,285s.3,0,.9-.2c.5-.2,1.4-.6,1.8-1.6.2-.5.3-1.1.2-1.8v-17.2c0-.7,0-1.3-.4-1.9-.4-.6-.9-1-1.6-1.2-.6-.2-1.4,0-2.2-.1-6.1,0-13.1,0-20.7,0-30.8-.1-73.2-.3-120.1-.4-1.3,0-2.5,1-2.6,2.3,0,1.4,0,2.9,0,4.3,0,2.9,0,5.8,0,8.6,0,1.4,0,2.8,0,4.3,0,.7,0,1.4,0,2,.2.6.5,1.1,1.1,1.5.5.4,1.1.5,1.8.5h2.1c1.4,0,2.8,0,4.2,0,11.1,0,21.7.1,31.9.2,20.3.1,38.6.2,54,.3,15.4.1,27.8.2,36.4.3,4.3,0,7.6,0,9.9.1,1.1,0,2,0,2.6,0,.6,0,.9,0,.9,0,0,0-.3,0-.9,0-.6,0-1.5,0-2.6,0-2.3,0-5.6,0-9.9,0-8.6,0-21,0-36.4,0-15.4,0-33.7-.1-54-.2-10.2,0-20.8,0-31.9-.1-1.4,0-2.8,0-4.2,0h-2.1c-.7,0-1.6-.1-2.2-.6-.6-.4-1.1-1.1-1.4-1.9-.2-.8,0-1.5-.1-2.2,0-1.4,0-2.8,0-4.3,0-2.9,0-5.7,0-8.6,0-1.5,0-2.9,0-4.4.2-1.7,1.7-3,3.4-3,46.9.3,89.3.5,120.1.7,7.7,0,14.6.1,20.7.2.8,0,1.5,0,2.3.2.8.2,1.4.8,1.8,1.4.4.6.5,1.4.5,2.1,0,.7,0,1.3,0,2,0,2.6,0,5,0,7.2s0,4.1,0,5.7c0,.8,0,1.6,0,2.3,0,.7,0,1.4-.3,1.9-.5,1.1-1.4,1.5-1.9,1.6-.6.1-.9,0-.9,0h0Z"/>
          <g>
            <g>
              <path class="st51" d="M317,273.3c0,1.7-1.3,3.2-3,3.2s-3-1.4-2.9-3.2c0-1.7,1.3-3.2,3-3.2s3,1.4,2.9,3.2Z"/>
              <path class="st51" d="M326.2,273.3c0,1.7-1.3,3.2-3,3.2s-3-1.4-2.9-3.2c0-1.7,1.3-3.2,3-3.2s3,1.4,2.9,3.2Z"/>
              <path class="st51" d="M335.4,273.4c0,1.7-1.3,3.2-3,3.2s-3-1.4-2.9-3.2c0-1.7,1.3-3.2,3-3.2s3,1.4,2.9,3.2Z"/>
              <path class="st51" d="M344.6,273.4c0,1.7-1.3,3.2-3,3.2s-3-1.4-3-3.2c0-1.7,1.3-3.2,3-3.2s3,1.4,3,3.2Z"/>
              <path class="st51" d="M353.8,273.4c0,1.8-1.3,3.2-3,3.2s-3-1.4-3-3.2c0-1.8,1.3-3.2,3-3.2s3,1.4,3,3.2Z"/>
              <path class="st51" d="M362.9,273.5c0,1.8-1.3,3.2-3,3.2s-3-1.4-3-3.2c0-1.8,1.3-3.2,3-3.2s3,1.4,3,3.2Z"/>
              <path class="st51" d="M372.1,273.5c0,1.8-1.3,3.2-3,3.2s-3-1.4-3-3.2c0-1.8,1.3-3.2,3-3.2s3,1.4,3,3.2Z"/>
              <path class="st51" d="M381.3,273.6c0,1.8-1.3,3.2-3,3.2s-3-1.4-3-3.2c0-1.7,1.3-3.2,3-3.2s3,1.4,3,3.2Z"/>
              <path class="st51" d="M390.5,273.6c0,1.7-1.3,3.2-3,3.2s-3-1.4-3-3.2c0-1.7,1.3-3.2,3-3.2s3,1.4,3,3.2Z"/>
            </g>
            <g class="st36">
              <path class="st51" d="M317,273.3c0,1.7-1.3,3.2-3,3.2s-3-1.4-2.9-3.2c0-1.7,1.3-3.2,3-3.2s3,1.4,2.9,3.2Z"/>
              <path class="st51" d="M326.2,273.3c0,1.7-1.3,3.2-3,3.2s-3-1.4-2.9-3.2c0-1.7,1.3-3.2,3-3.2s3,1.4,2.9,3.2Z"/>
              <path class="st51" d="M335.4,273.4c0,1.7-1.3,3.2-3,3.2s-3-1.4-2.9-3.2c0-1.7,1.3-3.2,3-3.2s3,1.4,2.9,3.2Z"/>
              <path class="st51" d="M344.6,273.4c0,1.7-1.3,3.2-3,3.2s-3-1.4-3-3.2c0-1.7,1.3-3.2,3-3.2s3,1.4,3,3.2Z"/>
              <path class="st51" d="M353.8,273.4c0,1.8-1.3,3.2-3,3.2s-3-1.4-3-3.2c0-1.8,1.3-3.2,3-3.2s3,1.4,3,3.2Z"/>
              <path class="st51" d="M362.9,273.5c0,1.8-1.3,3.2-3,3.2s-3-1.4-3-3.2c0-1.8,1.3-3.2,3-3.2s3,1.4,3,3.2Z"/>
              <path class="st51" d="M372.1,273.5c0,1.8-1.3,3.2-3,3.2s-3-1.4-3-3.2c0-1.8,1.3-3.2,3-3.2s3,1.4,3,3.2Z"/>
              <path class="st51" d="M381.3,273.6c0,1.8-1.3,3.2-3,3.2s-3-1.4-3-3.2c0-1.7,1.3-3.2,3-3.2s3,1.4,3,3.2Z"/>
              <path class="st51" d="M390.5,273.6c0,1.7-1.3,3.2-3,3.2s-3-1.4-3-3.2c0-1.7,1.3-3.2,3-3.2s3,1.4,3,3.2Z"/>
            </g>
          </g>
        </g>
      </g>
      <g>
        <path class="st28" d="M204.2,397.4c-10.7,14.8-18.8,40.1-25,69.4-.4,1.9-5.1,36.1-3.2,36.7,39.4,12.4,42.2,12.4,68.6,14.1,6.7.4,34.9,0,54.4-.6,1.7,0,3.1-1.2,3.1-2.8-2.4-44.5-6.6-98.1-6.6-98.1l-91.3-18.7h0Z"/>
        <path d="M302.1,514.8c-.3,0-.5-.2-.6-.5-2.3-41.9-6.2-92.5-6.6-97.7l-90.5-18.5c-9.6,13.4-17.9,36.6-24.7,68.9-.6,2.8-4.6,33.7-3.4,36.1.2.1.3.4.2.6,0,.3-.4.5-.7.4-.7-.2-1.6-.5.3-18.4.9-8.7,2.2-17.8,2.4-18.9,6.9-32.7,15.4-56.2,25.1-69.7.1-.2.3-.3.6-.2l91.3,18.7c.2,0,.4.3.4.5,0,.5,4.2,54.1,6.6,98.1,0,.3-.2.6-.5.6h0Z"/>
        <g>
          <g>
            <path class="st28" d="M318.2,286.8s24.7,16.6,36.2,13.5c16.2-4.4,23.4-45.7,24.1-49.4.7-3.7,3.8-22.3,7.1-29.2,3-6.5,4.9-13.2,5.9-17.3.6-2.5,2.3-3.7,4-3.4,1.5.2,2.4,1.4,1.6,5.1-1,4.3-1.8,8.6-2.6,12.2-.2,1.2-.7,2.2.1,1.4,1.9-1.9,4.9-4,8-5.1,1.4-.4,12.1-12.1,15-10.7,2.6,1.3-12,17.2-11.4,19.2,1.4,4.7.6,11-1.7,16.7-3.9,9.7-10.1,8.6-11.2,13.1s-6.7,62.3-11.2,72.8c-6.5,15.2-68.3,4.1-68.3,4.1l4.5-43h0Z"/>
            <path d="M354.4,334.4c-18.5,0-39.3-3.7-40.8-3.9-.3,0-.5-.3-.5-.6l4.5-43c0-.2.1-.4.3-.4.2,0,.4,0,.6,0,.2.2,24.6,16.4,35.7,13.4,13.9-3.8,21.1-35.2,23.6-48.5v-.5c.2-.4.3-1,.4-1.8,1.1-5.8,3.9-21.3,6.8-27.6,3-6.3,4.8-12.8,5.8-17.2.6-2.6,2.5-4.2,4.6-3.8.8.1,1.4.5,1.8,1.1.6.9.7,2.5.2,4.7-.6,2.7-1.1,5.3-1.7,7.9-.3,1.5-.6,2.9-.9,4.3,0,0,0,0,0,.1,1.8-1.6,4.5-3.4,7.4-4.4.3-.1,1.9-1.5,3.2-2.7,5.4-5,10.1-9,12.2-7.9.3.2.5.4.6.7.4,1.6-2.3,5.3-6.7,11.3-2.1,2.8-5,6.7-5,7.5,1.4,4.5.8,10.9-1.7,17-2.3,5.7-5.5,7.8-7.8,9.4-1.7,1.1-2.9,1.9-3.3,3.7-.3,1.3-1,7.2-1.9,14.8-2.3,18.9-6.1,50.6-9.3,58.2-2.7,6.5-14.8,8.4-28.2,8.4h0ZM314.3,329.4c6,1,61.3,10,67.2-3.9,3.2-7.4,6.9-39,9.2-57.9.9-7.9,1.6-13.5,1.9-14.9.5-2.2,2-3.2,3.8-4.3,2.3-1.6,5.2-3.5,7.4-8.9,2.4-5.9,3-12,1.6-16.3-.3-1,1.2-3.1,5.2-8.5,2.6-3.5,7-9.3,6.5-10.3-1.6-.8-7.9,5-10.9,7.8-2.1,1.9-3.1,2.8-3.6,3-3.2,1.1-6.2,3.3-7.8,4.9-.2.2-.6.6-1.1.4-.5-.3-.3-.8-.1-1.6,0-.2.1-.5.2-.8.3-1.3.6-2.8.9-4.3.5-2.6,1.1-5.2,1.7-7.9.4-1.8.4-3.1,0-3.8-.2-.3-.6-.5-1.1-.6-1.5-.2-2.8,1-3.3,3-1,4.4-2.9,11-5.9,17.4-2.8,6.1-5.6,21.5-6.7,27.3-.1.8-.2,1.4-.3,1.8v.5c-2.6,13.5-10,45.4-24.5,49.4-1,.3-2.2.4-3.4.4-11.2,0-28.6-10.9-32.5-13.4l-4.4,41.6h0Z"/>
          </g>
          <path class="st20" d="M214.4,264.4c29.7-13.3,87.2-10.5,127.5,32.8,4.7,5.1-8.9,43.5-21.2,40.8-10.8-2.3-19.6-5-20.4,1.2-1.1,8.6,6.6,77.8-4.7,97.3-20.1,34.8-80.2,29.6-111.1,12.7-8.2-4.5.4-16.8,6.4-57.1,4.5-30,7.1-54.8,1.5-45.3-2.7,4.7-31.1-23.6-28.2-32.1,6.5-18.5,17.9-36,50-50.3h0Z"/>
          <path class="st20" d="M372,254.6l23.8,3.2c1.6,54.9-3.6,94.3-75,80.1l9.6-51.1c26.6,18.6,36.5-4,41.6-32.3h0Z"/>
          <path class="st20" d="M171,301c-34.7,50.4-14.8,153.6,32.3,154.4l-1.2-44.6c-3.9-5-5.9-54.2,1.5-69.8l-32.6-40h0Z"/>
          <path class="st28" d="M182.5,448.1s0,0-.2,0c-.3,0-.5-.4-.4-.7,7-25.2,10.9-65.4,12.2-94.7,0-.3.3-.6.6-.5.3,0,.6.3.5.6-1.3,29.4-5.2,69.7-12.3,95,0,.2-.3.4-.5.4h0Z"/>
        </g>
        <g>
          <g>
            <path class="st28" d="M232.4,259.8c.3-1.2,12-10.9,8.9-32.7,0,0-15.8-21.5-11-31,4.8-9.5,4.4-23.5,20.6-23.6,16.2-.1,25.7,7.1,29.4,16.6s4.7,18.9,5.1,24.4c.2,4.1-.3,13.1-.6,17.6-.1,1.5-1.2,2.8-2.6,3.2l-4.9,1.4c-1.6.4-2.7,1.9-2.6,3.6l.2,8.7c.8,21.3-6.1,18.4-11.2,19.5-12.9,2.9-32.9-1.4-31.2-7.6h0Z"/>
            <path d="M254.2,269c-8.8,0-17.9-2.2-21.2-5.6-1.1-1.2-1.5-2.4-1.2-3.7,0-.3.4-.6.9-1.3,2.6-3.2,10.5-12.8,8-31-1.4-1.9-15.8-22-11-31.5,1.1-2.2,2-4.8,2.8-7.3,2.7-8.1,5.6-16.5,18.2-16.6,14.7,0,25.6,6.1,29.9,16.9,2.8,7.1,4.5,15.3,5.1,24.5.2,4-.3,12.8-.6,17.7-.1,1.8-1.3,3.3-3,3.7l-4.9,1.4c-1.3.4-2.3,1.6-2.2,3l.2,8.7c.7,18.7-4.7,19.3-9.4,19.8-.8,0-1.5.2-2.2.3-2.9.7-6.2,1-9.5,1h0ZM232.9,260c-.2.9,0,1.7.9,2.6,4.2,4.4,19.4,6.6,29.6,4.3.8-.2,1.6-.3,2.4-.3,4.4-.5,9-.9,8.4-18.6l-.2-8.7c0-1.9,1.2-3.6,3.1-4.1l4.9-1.4c1.2-.3,2.1-1.4,2.2-2.7.3-4.8.8-13.6.6-17.5-.6-9.1-2.3-17.2-5-24.2-4.1-10.4-14.6-16.3-28.9-16.2-11.9,0-14.4,7.7-17.2,15.8-.9,2.5-1.7,5.1-2.9,7.5-4.6,9.1,10.8,30.2,11,30.4,0,0,0,.2.1.2,2.6,18.8-5.6,28.7-8.2,32-.3.4-.6.8-.7.9h0Z"/>
          </g>
          <path class="st20" d="M274.8,203.7c2-.8,3.2-2.7,3.3-4.8,0-2.5-1.5-8.4,2.2-9.7,10-3.6,6.1-15.6.2-20s-29.1-11.8-40.9-5.4c0,0-4.6,3.9-3.6,7.8,0,0-9.4.3-11.5,7.2-2.2,6.9-5.9,32.4,17.4,51.6,0,0,6,.7,12.7-1.1,3.9-1,6.7-4.4,7.3-8.4.8-6.1,3.3-15.5,5-18.3,0,0-1.1-4.3,1.4-5.4,1.6-.7,3.5,1.1,4.4,2.6l2.2,4h0Z"/>
          <path d="M284.1,233.2h0c0,0-8.8-1.6-10.8-11,0-.3.1-.6.4-.7.3,0,.6.1.7.4,1.9,8.7,9.8,10.1,9.9,10.1.3,0,.5.3.5.7,0,.3-.3.5-.6.5h0Z"/>
          <path d="M273.2,213.3h0c-.3,0-7.3-.3-9.2-12.7,0-.3.2-.6.5-.6.3,0,.6.2.6.5,1.7,11.4,7.8,11.8,8.1,11.8.3,0,.6.3.5.6,0,.3-.3.6-.6.6h0Z"/>
        </g>
      </g>
    </g>
    <g>
      <path class="st2" d="M735.5,224c-5.2,4.9-9.8,10.7-13,17.1-3.4,6.8-7.1,14.9-2.4,21.9s14.2,7,21.7,5.6,14-5.1,19.7-10.1l-17.9-7.4c0,2.7-.1,5.5-.2,8.2-.2,6.6,6.9,12.2,13.3,10.1,11.6-3.7,20.7-10.6,28.1-20.2,2.8-3.6,1.4-9.7-1.6-12.7-3.3-3.3-8.7-3.9-12.7-1.6-6.5,3.7-8.8,11.3-6.4,18.2,2.9,8.2,11.4,11.5,19.6,10.6,13.5-1.6,26.5-9.2,35.5-19.2,6.6-7.2.3-21.2-10.2-17.6-7.5,2.6-12.3,10.2-9.9,18.2,2.1,7.2,9,11.1,16,12.1,13.1,1.9,26.7-3.1,35.4-13.1,7.8-8.9-1.9-22.2-12.7-16.5-13.1,6.9-8.9,27,4.2,31.2,7.6,2.4,15.5-.2,21.6-4.8,4.8-3.6,8.3-9.1,13.7-11.7l-15.4-11.9c-4.6,11.4,4.6,22.6,14.9,26.3,5.5,2,11.4,1.5,17,.3,3.6-.7,11-3.8,13.4-2.9l-4.6-2.7c1.6,1.4,2.8,4.2,4.5,5.9,2.3,2.2,5.3,3.7,8.4,4.4,5.9,1.4,12.1.1,17.7-1.7,12.4-4,23.5-10.6,33.2-19.2l-17.5-10.2c-3.1,8.8-2.1,20,7.6,24.2,10.2,4.4,22.2-4.2,31.2-8.4-5.1-3.9-10.3-7.9-15.4-11.9-.9,2.5-1.9,5.1-2.8,7.6-2.8,7.7,5.7,15,12.9,12.9,5.5-1.6,10.8-3.7,15.9-6.3-5.1-3.9-10.3-7.9-15.4-11.9-1.3,4.1-3.3,8-6.1,11.3s-4,7.3-2.2,11.5c1.6,3.6,5.4,6.8,9.6,6.4,6.4-.5,12.1-2.1,17.9-4.7,2.3-1,4.5-2.1,6.7-3.3,1.2-.6,2.5-1.3,3.7-2l1.5-.8c3-1.2,1.8-1.6-3.4-1l-3.8-3.8.3.7-1.1-8.1-.2.7,2.7-4.6,2.8-1.4h5.6l-.5-.2c2.4,2.4,4.9,4.9,7.3,7.3l-.2-.6c-1.6,3.9-3.2,7.9-4.8,11.9,15.9-10.2,32.9-18.1,51-23.6-3.4-5.8-6.8-11.7-10.2-17.5-5.9,5.6-11.9,11.1-17.8,16.7-9,8.4,2.4,21.9,12.7,16.5,7.2-3.7,14.5-6.9,22.1-9.6-4-5.1-7.9-10.3-11.9-15.4-3.2,6.9-7.3,12.6-13,17.6-7.6,6.7.4,21.3,10.2,17.5s19-7.3,28.5-11c-3.4-5.8-6.8-11.7-10.2-17.5-6.5,6.9-13.1,13.8-19.7,20.6-8.5,8.9,2.2,21.6,12.7,16.5,14-6.7,27.9-13.4,41.9-20.1-4.2-5.5-8.5-11-12.7-16.5-4.2,4.9-8.9,9.4-13.9,13.4-8,6.5.6,21.2,10.2,17.6,12.3-4.7,24.5-9.4,36.8-14.1-4-5.1-7.9-10.3-11.9-15.4-3.1,4.6-7,8.9-11.4,12.3-3.4,2.6-5.7,5.9-5,10.5.6,3.8,3.4,8,7.5,8.7,5.9,1,11.3,1.1,17.1-.2,11.8-2.5,8.8-20.6-2.8-20.6-18.9,0-37.7-.2-56.6-.2-8.6,0-17.5-.6-26.1,0s-15.9,3.2-20.2,10.7c-2.6,4.5-1.4,10.4,2.7,13.6,3.8,2.9,10.4,3.3,13.8-.8,2.4-2.9,4.8-5.9,7.2-8.8,6-7.3,1.9-17-7.4-17.9-17-1.8-34.3-.9-51.3-.8s-34.5.1-51.7.2-33.7.4-50.5,2.3c-8.5,1-16.8,2.4-25.2,4.1-7.9,1.6-15.6,3.2-23.6,2.7-17.3-1.1-33-9.9-50.6-8.3l10.1,13.3c2-6.5,2.9-13.3,2.5-20.1-.3-5.1-4.6-11.3-10.5-10.5-15.5,2.1-31.1,3.4-46.8,4.2l5.3,19.6c1.7-1.2.9-.2,0-.4.4,0,1.2.1,1.5.4,1.5.9,3,1.9,4.5,2.9,4.2,2.8,8.8,5.2,13.8,6.1,10.1,2,20.2.2,30.2-2.2,20.5-4.9,40.4-12,60.2-19.1-3.4-5.8-6.8-11.7-10.2-17.5l-7.6,8c-8.5,9,2.1,21.4,12.7,16.5,7.5-3.5,15.8-5.8,23.9-6.4,4.3-.4,8.7-.4,13-.1,1.7.1,3.3.3,5,.5s3.2,1.4.3-1.1c-3.2-2.8-1.1.7,0,2.5,4.9,8.4,17.6,9.4,26.2,9.5,4.9,0,9.8-.6,14.6-1.7s9.1-3.2,13.7-3.9c8-1.2,16.3,3.1,24.2,4.3,10.4,1.6,20.5,0,30.8-1.8,19.1-3.5,38.1-5.6,57.4-3.3,22.3,2.6,43.7,7.9,66.2,4.2,5.6-.9,8.7-7.9,7.3-12.9-1.6-5.9-7.3-8.2-12.9-7.3-18,2.9-36.3-1.7-54.1-4.2-19.3-2.6-38-1.9-57.2,1.1-9,1.4-18.1,3.8-27.2,4-8.1.2-15.4-3-23.3-4.4-10.2-1.8-18.1.6-27.8,3.3-3.9,1.1-7.6,1.6-11.7,1.6-2.1,0-4.2-.1-6.3-.5-1.2-.2-2.4-.5-3.6-.8-1.8-.5-1.7-.5.1,0l2.7,4.6c-2.8-6.8-5.2-11.8-13-13.4-6.5-1.4-13.5-1.8-20.1-1.6-13.6.5-26.6,3.9-38.9,9.6,4.2,5.5,8.5,11,12.7,16.5l7.6-8c6.8-7.2.2-21.2-10.2-17.5-20.4,7.2-40.9,14.6-62.1,19.5-7.9,1.8-16.6,3.6-23.8-.9-8.8-5.5-19.3-11.4-29.2-4.2-3.8,2.8-6.1,7-4.8,11.9,1.2,4.3,5.5,7.9,10.1,7.7,15.6-.8,31.2-2.2,46.8-4.2l-10.5-10.5c.3,5.1-.2,9.7-1.7,14.6-1.9,6.1,3.4,13.9,10.1,13.3,15-1.3,28.9,5.4,43.6,7.5,17.2,2.5,33.3-2.6,50.2-5.2,33.2-5.1,67.6-3.1,101.1-3.3,19.3,0,39-1.2,58.2.8-2.5-6-5-11.9-7.4-17.9-2.4,2.9-4.8,5.9-7.2,8.8,5.5,4.2,11,8.5,16.5,12.7-.1.2-.6.4-.8.4-.5,0,3.5-.8,2.3-.6,3.2-.5,6.6-.1,9.8-.1,8.3,0,16.5,0,24.8.1,16.2,0,32.4.2,48.7.2l-2.8-20.6c-2,.4-4,.5-6,.2l2.5,19.2c7.5-5.7,13.6-12,18.9-19.8,5-7.2-3.4-18.7-11.9-15.4-12.3,4.7-24.5,9.4-36.8,14.1,3.4,5.8,6.8,11.7,10.2,17.6,5-4.1,9.7-8.5,13.9-13.4,7.9-9.1-1.9-21.7-12.7-16.5-14,6.7-27.9,13.4-41.9,20.1,4.2,5.5,8.5,11,12.7,16.5,6.5-6.9,13.1-13.8,19.7-20.6,6.7-7,.1-21.5-10.2-17.6-9.5,3.7-19,7.3-28.5,11,3.4,5.8,6.8,11.7,10.2,17.5,6.9-6,12.5-13.5,16.3-21.8,1.8-3.9,2-8.1-.8-11.7-2.5-3.1-7-5.2-11-3.8-9.3,3.3-18.3,7.2-27.1,11.7,4.2,5.5,8.5,11,12.7,16.5,5.9-5.6,11.9-11.1,17.8-16.7,7.6-7.1-.3-20.6-10.2-17.5-19.7,6-38.6,14.6-56,25.7-3.8,2.4-6.3,7.3-4.8,11.9,2.6,8,11.8,11.2,18.5,5.6,6.7-5.6,6-15.6-1.7-20-11.8-6.8-24.4,8.5-36.1,9.5,2.5,6,5,11.9,7.4,17.9,5.2-6.2,9-12.8,11.5-20.6,3-9.3-7.7-15.8-15.4-11.9-3.5,1.8-7.1,3.1-10.9,4.2,4.3,4.3,8.6,8.6,12.9,12.9.9-2.5,1.9-5.1,2.8-7.6,3.5-9.4-8-15.3-15.4-11.9-4.2,2-9.8,3.6-13.6,6.3-.4.3-.9.4-1.3.5,3.3.5,5.3,1.9,6,4.4-.2.2.7-2.7,1-3.3,3.7-10.6-10.3-16.6-17.5-10.2-5.7,5-12.2,9.2-19.3,12.1-3,1.3-7.5,2.9-10.2,3.2-1.4-.2-1.7-.1-1,.2-1.7-.6-1.6-.3.4.6-.6-1.1-1.3-2.4-2.2-3.6-7-8.5-17.7-5.2-26.9-2.8-2.9.8-6.9,2.2-9.4.9-.3-.1-1.3-.8-1.1-.7-.9-1.7-.9-1.4-.2.8-.2.8,0,.6.4-.8,1.5-3.8-.8-8.8-3.8-11-3.5-2.7-7.7-2.8-11.7-.8-6.2,3-9.9,8.4-15,12.6-.7.6-2.4,1.3-2.8,1.8-.9,1.1-1.2-1.3.2.8.8,1.2,1.4.6,1.7,2.2.2,1.4-1.2,3.6-2.3,4.2-4.2-5.5-8.5-11-12.7-16.5-2.8,3.2-6,5.6-10.2,6.8-1.8.5-3.4.7-5.3.7-.4,0-2.3-.2-2.2-.2l-1.3-.4c3,1.4,3.6,4.3,1.5,8.6l-4.6,2.7,1-.3c-3.4-5.8-6.8-11.7-10.2-17.6-3.9,4.3-8.2,7.7-13.4,10.2-2.3,1.1-4.6,1.9-7.1,2.5-.5.1-2.9.5-3,.5h0c4.2,2.8,4.3,6.1.2,10.1l-14.4-14.4c-3.9,5-9.6,8.6-15.6,10.5l13.3,10.1c0-2.7.1-5.5.2-8.2.2-9.6-11.4-13.2-17.9-7.4-1.9,1.7-4.2,3-6.6,3.8-1.2.4-2.6.8-3.9.9-.6,0-1.1,0-1.7,0-2.1-.1-2.1,0,0,.3l3.8,3.8c0,4.1.4,4.8,1.1,2.1.2-.7.5-1.4.9-2,.8-1.7,1.8-3.4,2.8-5,2-3.2,4.5-6,7.3-8.6,9.8-9.3-5-24.2-14.9-14.8h0Z"/>
      <g class="st6">
        <g class="st6">
          <path d="M752.5,157.3c6,0,11.1,2.2,15.4,6.5,4.3,4.3,6.4,9.6,6.4,15.8s-2.1,11.4-6.4,15.6c-4.2,4.3-9.4,6.4-15.4,6.4s-11.6-2.2-15.8-6.6-6.3-9.6-6.3-15.6,1-7.7,2.9-11.1c2-3.4,4.6-6.1,8.1-8,3.4-2,7.1-3,11-3ZM752.4,165.1c-3.9,0-7.2,1.4-9.8,4.1-2.7,2.7-4,6.2-4,10.4s1.7,8.4,5,11.1c2.6,2.1,5.6,3.2,9,3.2s7.1-1.4,9.7-4.1c2.7-2.8,4-6.1,4-10.2s-1.3-7.4-4-10.2c-2.7-2.8-6-4.2-9.8-4.2Z"/>
          <path d="M781,169.3h7.9v15c0,2.9.2,5,.6,6.1.4,1.1,1,2,1.9,2.7.9.6,2,.9,3.3.9s2.4-.3,3.3-.9c.9-.6,1.6-1.5,2-2.7.3-.9.5-2.8.5-5.8v-15.3h7.8v13.2c0,5.4-.4,9.2-1.3,11.2-1.1,2.4-2.6,4.3-4.6,5.6-2,1.3-4.6,2-7.8,2s-6.2-.8-8.3-2.3c-2.1-1.5-3.6-3.7-4.5-6.4-.6-1.9-.9-5.3-.9-10.3v-13Z"/>
          <path d="M814.4,169.3h6.7v3.9c.7-1.5,1.7-2.7,2.9-3.5,1.2-.8,2.5-1.2,4-1.2s2.1.3,3.2.8l-2.4,6.7c-.9-.5-1.7-.7-2.3-.7-1.2,0-2.2.7-3.1,2.2-.8,1.5-1.2,4.4-1.2,8.8v1.5s0,12.6,0,12.6h-7.8v-31.2Z"/>
        </g>
        <g class="st6">
          <path d="M771.3,229.7l-5.6,5.4c-3.8-4-8.1-6.1-12.9-6.1s-7.4,1.4-10.2,4.1c-2.8,2.8-4.1,6.2-4.1,10.2s.6,5.3,1.8,7.5,3,3.9,5.2,5.1,4.7,1.9,7.5,1.9,4.5-.4,6.4-1.3c1.9-.9,4-2.5,6.4-4.8l5.4,5.7c-3.1,3-6.1,5.1-8.8,6.3-2.8,1.2-5.9,1.8-9.5,1.8-6.6,0-11.9-2.1-16.1-6.2-4.2-4.2-6.3-9.5-6.3-16s1-7.9,2.9-11.2,4.6-5.9,8.2-7.9c3.5-2,7.4-3,11.5-3s6.8.7,10.1,2.2,6,3.6,8.3,6.3Z"/>
          <path d="M777.5,233.3h7.9v15c0,2.9.2,5,.6,6.1.4,1.1,1,2,1.9,2.7s2,.9,3.3.9,2.4-.3,3.3-.9c.9-.6,1.6-1.5,2-2.7.3-.9.5-2.8.5-5.8v-15.3h7.8v13.2c0,5.4-.4,9.2-1.3,11.2-1.1,2.4-2.6,4.3-4.6,5.6-2,1.3-4.6,2-7.8,2s-6.2-.8-8.3-2.3c-2.1-1.5-3.6-3.7-4.5-6.4-.6-1.9-.9-5.3-.9-10.3v-13Z"/>
          <path d="M831.9,237.7l-4.8,4.8c-2-2-3.8-2.9-5.4-2.9s-1.6.2-2.1.6-.7.8-.7,1.4.2.8.5,1.2c.3.4,1.1.8,2.3,1.4l2.9,1.4c3,1.5,5.1,3,6.2,4.6s1.7,3.4,1.7,5.4-1,5.1-3.1,6.9c-2,1.9-4.8,2.8-8.2,2.8s-8.2-1.8-10.9-5.3l4.8-5.2c.9,1.1,2,1.9,3.2,2.6,1.2.7,2.3,1,3.3,1s1.9-.2,2.5-.7c.6-.5.9-1.1.9-1.7,0-1.2-1.1-2.4-3.4-3.5l-2.6-1.3c-5-2.5-7.6-5.7-7.6-9.6s1-4.6,2.9-6.3c1.9-1.7,4.3-2.6,7.3-2.6s3.9.4,5.7,1.3c1.8.9,3.3,2.2,4.5,3.8Z"/>
          <path d="M839.5,221.8h7.8v11.5h4.6v6.7h-4.6v24.5h-7.8v-24.5h-4v-6.7h4v-11.5Z"/>
          <path d="M870.9,232.5c2.9,0,5.7.7,8.3,2.2s4.6,3.5,6.1,6c1.5,2.5,2.2,5.2,2.2,8.2s-.7,5.7-2.2,8.3c-1.5,2.6-3.5,4.6-6,6-2.5,1.4-5.3,2.2-8.3,2.2-4.5,0-8.3-1.6-11.5-4.8-3.2-3.2-4.7-7.1-4.7-11.6s1.8-8.9,5.4-12.2c3.1-2.8,6.7-4.2,10.8-4.2ZM871,239.9c-2.4,0-4.5.8-6.1,2.5-1.6,1.7-2.4,3.9-2.4,6.5s.8,4.9,2.4,6.6c1.6,1.7,3.6,2.5,6.1,2.5s4.5-.9,6.1-2.6c1.6-1.7,2.4-3.9,2.4-6.6s-.8-4.9-2.4-6.5c-1.6-1.7-3.6-2.5-6.1-2.5Z"/>
          <path d="M893.7,233.3h7.8v3.6c1.3-1.5,2.8-2.6,4.5-3.3s3.4-1.1,5.4-1.1,3.7.5,5.3,1.4c1.6,1,2.8,2.4,3.8,4.2,1.2-1.8,2.8-3.2,4.6-4.2s3.8-1.4,5.9-1.4,4.2.5,5.9,1.5,2.9,2.4,3.6,4c.7,1.7,1.1,4.4,1.1,8.1v18.3h-7.9v-15.8c0-3.5-.4-5.9-1.3-7.2-.9-1.3-2.2-1.9-4-1.9s-2.5.4-3.6,1.1-1.8,1.8-2.4,3.2-.8,3.5-.8,6.5v14.1h-7.9v-15.1c0-2.8-.2-4.8-.6-6.1-.4-1.3-1-2.2-1.9-2.8-.8-.6-1.8-.9-3-.9s-2.5.4-3.6,1.2c-1.1.8-1.9,1.9-2.4,3.3-.5,1.4-.8,3.6-.8,6.6v13.9h-7.8v-31.2Z"/>
          <path d="M980.3,251.2h-25.2c.4,2.2,1.3,4,2.9,5.3,1.6,1.3,3.6,2,6,2s5.4-1,7.5-3.1l6.6,3.1c-1.6,2.3-3.6,4.1-5.9,5.2-2.3,1.1-5,1.7-8.2,1.7-4.9,0-8.9-1.5-12-4.6-3.1-3.1-4.6-7-4.6-11.6s1.5-8.7,4.6-11.9c3.1-3.1,6.9-4.7,11.5-4.7s8.9,1.6,12,4.7c3.1,3.1,4.6,7.3,4.6,12.5v1.5ZM972.4,245c-.5-1.7-1.5-3.2-3.1-4.2-1.5-1.1-3.3-1.6-5.3-1.6s-4.1.6-5.7,1.8c-1,.8-2,2.1-2.9,4h17Z"/>
          <path d="M984.8,233.3h6.7v3.9c.7-1.5,1.7-2.7,2.9-3.5,1.2-.8,2.5-1.2,4-1.2s2.1.3,3.2.8l-2.4,6.7c-.9-.5-1.7-.7-2.3-.7-1.2,0-2.2.7-3.1,2.2-.8,1.5-1.2,4.4-1.2,8.8v1.5s0,12.6,0,12.6h-7.8v-31.2Z"/>
          <path d="M1006.5,245.3h14.6v7.3h-14.6v-7.3Z"/>
          <path d="M1031,222.3h20.9v7.8h-13v7.7h13v7.7h-13v19h-8v-42.2Z"/>
          <path d="M1061.3,220.5c1.4,0,2.5.5,3.5,1.5,1,1,1.5,2.2,1.5,3.6s-.5,2.6-1.5,3.6c-1,1-2.1,1.5-3.5,1.5s-2.6-.5-3.6-1.5-1.5-2.2-1.5-3.7.5-2.6,1.5-3.5c1-1,2.1-1.5,3.5-1.5ZM1057.4,233.3h7.8v31.2h-7.8v-31.2Z"/>
          <path d="M1070.5,233.3h6.7v3.9c.7-1.5,1.7-2.7,2.9-3.5,1.2-.8,2.5-1.2,4-1.2s2.1.3,3.2.8l-2.4,6.7c-.9-.5-1.7-.7-2.3-.7-1.2,0-2.2.7-3.1,2.2-.8,1.5-1.2,4.4-1.2,8.8v1.5s0,12.6,0,12.6h-7.8v-31.2Z"/>
          <path d="M1110.2,237.7l-4.8,4.8c-2-2-3.8-2.9-5.4-2.9s-1.6.2-2.1.6c-.5.4-.7.8-.7,1.4s.2.8.5,1.2c.3.4,1.1.8,2.3,1.4l2.9,1.4c3,1.5,5.1,3,6.2,4.6,1.1,1.5,1.7,3.4,1.7,5.4s-1,5.1-3.1,6.9c-2,1.9-4.8,2.8-8.2,2.8s-8.2-1.8-10.9-5.3l4.8-5.2c.9,1.1,2,1.9,3.2,2.6,1.2.7,2.3,1,3.3,1s1.9-.2,2.5-.7c.6-.5.9-1.1.9-1.7,0-1.2-1.1-2.4-3.4-3.5l-2.6-1.3c-5-2.5-7.6-5.7-7.6-9.6s1-4.6,2.9-6.3c1.9-1.7,4.3-2.6,7.3-2.6s3.9.4,5.7,1.3c1.8.9,3.3,2.2,4.5,3.8Z"/>
          <path d="M1117.9,221.8h7.8v11.5h4.6v6.7h-4.6v24.5h-7.8v-24.5h-4v-6.7h4v-11.5Z"/>
        </g>
        <g class="st6">
          <path d="M732.5,286.3h8.5c4.6,0,7.9.4,10,1.3,2,.9,3.6,2.2,4.8,4.1,1.2,1.9,1.8,4.2,1.8,6.8s-.8,5.4-2.3,7.3c-1.5,2-3.6,3.3-6.3,4.1-1.5.4-4.4.7-8.5.7v17.9h-8v-42.2ZM740.6,302.8h2.6c2,0,3.4-.1,4.2-.4.8-.3,1.4-.8,1.8-1.4s.7-1.5.7-2.4c0-1.6-.6-2.8-1.9-3.6-.9-.6-2.6-.8-5.1-.8h-2.3v8.7Z"/>
          <path d="M762.8,297.3h6.7v3.9c.7-1.5,1.7-2.7,2.9-3.5,1.2-.8,2.5-1.2,4-1.2s2.1.3,3.2.8l-2.4,6.7c-.9-.5-1.7-.7-2.3-.7-1.2,0-2.2.7-3.1,2.2-.8,1.5-1.2,4.4-1.2,8.8v1.5s0,12.6,0,12.6h-7.8v-31.2Z"/>
          <path d="M786.4,284.4c1.4,0,2.5.5,3.5,1.5,1,1,1.5,2.2,1.5,3.6s-.5,2.6-1.5,3.6c-1,1-2.1,1.5-3.5,1.5s-2.6-.5-3.6-1.5c-1-1-1.5-2.2-1.5-3.7s.5-2.6,1.5-3.5c1-1,2.1-1.5,3.5-1.5ZM782.5,297.3h7.8v31.2h-7.8v-31.2Z"/>
          <path d="M794.1,297.3h8l7.9,18.4,7.9-18.4h7.9l-13.3,31.2h-5.1l-13.3-31.2Z"/>
          <path d="M853.4,297.3h7.8v31.2h-7.8v-3.3c-1.5,1.5-3.1,2.5-4.6,3.1-1.5.6-3.2,1-5,1-4,0-7.5-1.6-10.5-4.7-2.9-3.1-4.4-7-4.4-11.7s1.4-8.8,4.3-11.8c2.8-3.1,6.3-4.6,10.4-4.6s3.6.4,5.3,1.1,3.2,1.8,4.6,3.2v-3.4ZM845.2,303.7c-2.4,0-4.4.9-6,2.6s-2.4,3.9-2.4,6.6.8,4.9,2.4,6.7c1.6,1.7,3.6,2.6,6,2.6s4.5-.9,6.1-2.6c1.6-1.7,2.4-4,2.4-6.7s-.8-4.9-2.4-6.6c-1.6-1.7-3.7-2.5-6.1-2.5Z"/>
          <path d="M899.7,303.6l-6.5,3.6c-1.2-1.3-2.4-2.2-3.6-2.7s-2.6-.7-4.2-.7c-2.9,0-5.3.9-7.1,2.6-1.8,1.7-2.7,4-2.7,6.7s.9,4.8,2.6,6.5c1.7,1.7,4,2.5,6.9,2.5s6.2-1.2,8.2-3.6l6.2,4.2c-3.3,4.4-8.1,6.5-14.2,6.5s-9.8-1.6-12.9-4.9c-3.1-3.2-4.7-7.1-4.7-11.4s.8-5.8,2.3-8.3,3.6-4.5,6.3-6c2.7-1.5,5.7-2.2,9.1-2.2s5.9.6,8.3,1.8c2.5,1.2,4.5,3,6.1,5.3Z"/>
          <path d="M903.3,297.3h8l8.1,19.6,8.9-19.6h8l-19.5,42.6h-8.1l6.4-13.7-11.9-28.9Z"/>
          <path d="M958.1,286.3h8.5c4.6,0,7.9.4,10,1.3s3.6,2.2,4.8,4.1,1.8,4.2,1.8,6.8-.8,5.4-2.3,7.3c-1.5,2-3.6,3.3-6.3,4.1-1.5.4-4.4.7-8.5.7v17.9h-8v-42.2ZM966.1,302.8h2.6c2,0,3.4-.1,4.2-.4.8-.3,1.4-.8,1.8-1.4s.7-1.5.7-2.4c0-1.6-.6-2.8-1.9-3.6-.9-.6-2.6-.8-5.1-.8h-2.3v8.7Z"/>
          <path d="M1004.8,296.5c2.9,0,5.7.7,8.3,2.2s4.6,3.5,6.1,6c1.5,2.5,2.2,5.2,2.2,8.2s-.7,5.7-2.2,8.3c-1.5,2.6-3.5,4.6-6,6-2.5,1.4-5.3,2.2-8.3,2.2-4.5,0-8.3-1.6-11.5-4.8-3.2-3.2-4.7-7.1-4.7-11.6s1.8-8.9,5.4-12.2c3.1-2.8,6.7-4.2,10.8-4.2ZM1004.9,303.8c-2.4,0-4.5.8-6.1,2.5-1.6,1.7-2.4,3.9-2.4,6.5s.8,4.9,2.4,6.6c1.6,1.7,3.6,2.5,6.1,2.5s4.5-.9,6.1-2.6c1.6-1.7,2.4-3.9,2.4-6.6s-.8-4.9-2.4-6.5c-1.6-1.7-3.6-2.5-6.1-2.5Z"/>
          <path d="M1026.9,285.2h7.8v43.3h-7.8v-43.3Z"/>
          <path d="M1044.9,284.4c1.4,0,2.5.5,3.5,1.5,1,1,1.5,2.2,1.5,3.6s-.5,2.6-1.5,3.6c-1,1-2.1,1.5-3.5,1.5s-2.6-.5-3.6-1.5-1.5-2.2-1.5-3.7.5-2.6,1.5-3.5c1-1,2.1-1.5,3.5-1.5ZM1041,297.3h7.8v31.2h-7.8v-31.2Z"/>
          <path d="M1086.5,303.6l-6.5,3.6c-1.2-1.3-2.4-2.2-3.6-2.7-1.2-.5-2.6-.7-4.2-.7-2.9,0-5.3.9-7.1,2.6s-2.7,4-2.7,6.7.9,4.8,2.6,6.5c1.7,1.7,4,2.5,6.9,2.5s6.2-1.2,8.2-3.6l6.2,4.2c-3.3,4.4-8.1,6.5-14.2,6.5s-9.8-1.6-12.9-4.9c-3.1-3.2-4.7-7.1-4.7-11.4s.8-5.8,2.3-8.3c1.5-2.5,3.6-4.5,6.3-6,2.7-1.5,5.7-2.2,9.1-2.2s5.9.6,8.3,1.8c2.5,1.2,4.5,3,6.1,5.3Z"/>
          <path d="M1090.1,297.3h8l8.1,19.6,8.9-19.6h8l-19.5,42.6h-8.1l6.4-13.7-11.9-28.9Z"/>
        </g>
      </g>
      <g>
        <path class="st18" d="M1146.4,328.6c0,.8-2.7,1.5-5.9,1.5-3.3,0-5.9-.6-6-1.5,0-.8,2.7-1.5,5.9-1.5,3.3,0,5.9.6,5.9,1.5h0Z"/>
        <path class="st42" d="M1164.6,301.7c-1.2-.5-20.3-9.4-23.1-10.7v24.2c2.9-1.3,21.9-10.4,23.1-10.9.9-.4.9-2.1,0-2.5h0Z"/>
        <rect class="st10" x="1139.2" y="291" width="2.4" height="37.6" transform="translate(-1.4 5.2) rotate(-.3)"/>
      </g>
    </g>
    <g>
      <g>
        <path class="st13" d="M344.2,66.4h12.5l-7.3,12.9h6.9v3.5h-13.2l7.4-12.9h-6.2v-3.5h0Z"/>
        <path class="st13" d="M373.8,75.8h-13.2c.2,1.2.7,2.1,1.5,2.8.8.7,1.9,1,3.2,1s2.9-.5,4-1.6l3.5,1.6c-.9,1.2-1.9,2.1-3.1,2.7-1.2.6-2.6.9-4.3.9-2.6,0-4.6-.8-6.3-2.4-1.6-1.6-2.4-3.6-2.4-6.1s.8-4.6,2.4-6.2c1.6-1.7,3.6-2.5,6-2.5s4.7.8,6.3,2.5c1.6,1.7,2.4,3.8,2.4,6.5v.8s0,0,0,0ZM369.7,72.6c-.3-.9-.8-1.7-1.6-2.2-.8-.6-1.7-.9-2.8-.9s-2.1.3-3,1c-.5.4-1,1.1-1.5,2.1h8.9,0Z"/>
        <path class="st13" d="M375.4,66.4h4.1v1.7c.9-.8,1.8-1.3,2.5-1.6s1.5-.5,2.3-.5c1.6,0,3,.6,4.1,1.7,1,1,1.4,2.4,1.4,4.3v10.8h-4v-7.2c0-1.9,0-3.2-.3-3.9s-.5-1.1-.9-1.5c-.4-.3-1-.5-1.6-.5s-1.5.3-2.1.8c-.6.6-1,1.3-1.2,2.3-.1.5-.2,1.6-.2,3.3v6.6h-4.1v-16.3h0Z"/>
        <path class="st13" d="M408.2,69.7l-3.4,1.9c-.6-.7-1.3-1.1-1.9-1.4-.6-.3-1.4-.4-2.2-.4-1.5,0-2.8.5-3.7,1.4s-1.4,2.1-1.4,3.5.5,2.5,1.4,3.4,2.1,1.3,3.6,1.3,3.3-.6,4.3-1.9l3.2,2.2c-1.8,2.3-4.2,3.4-7.4,3.4s-5.1-.8-6.8-2.6c-1.6-1.7-2.4-3.7-2.4-6s.4-3,1.2-4.4,1.9-2.4,3.3-3.1c1.4-.8,3-1.1,4.8-1.1s3.1.3,4.4,1,2.4,1.6,3.2,2.8h0Z"/>
        <path class="st13" d="M408.2,66.4h4.2l4.2,10.2,4.7-10.2h4.2l-10.2,22.3h-4.2l3.4-7.2-6.2-15.1h0Z"/>
      </g>
      <g>
        <path class="st13" d="M328.6,83.2h0c-.5,0-.9-.2-1.2-.7l-11.4-18.6c-.8-1.3-.8-2.8,0-4.1s2-2.1,3.5-2.1h18.3c1.5,0,2.8.8,3.5,2.1s.7,2.8,0,4.1l-1.2-.7,1.2.7-11.4,18.6c-.2.4-.7.7-1.2.7h0ZM319.4,60.6c-.7,0-1,.5-1.1.7-.1.2-.3.7,0,1.3l10.3,16.7,10.3-16.7h0c.4-.6.1-1.1,0-1.3-.1-.2-.5-.7-1.1-.7h-18.3,0Z"/>
        <path class="st13" d="M337.7,91.3h-18.3c-1.5,0-2.8-.8-3.5-2.1s-.7-2.8,0-4.1h0l11.4-18.6c.2-.4.7-.7,1.2-.7h0c.5,0,.9.2,1.2.7l11.4,18.6c.8,1.3.8,2.8,0,4.1-.7,1.3-2,2.1-3.5,2.1ZM318.3,86.6c-.4.6-.1,1.1,0,1.3s.4.7,1.1.7h18.3c.7,0,1-.5,1.1-.7.1-.2.3-.7,0-1.3l-10.3-16.7-10.3,16.7h0Z"/>
      </g>
    </g>
  </g>
</svg>