<?xml version="1.0" encoding="UTF-8"?>
<svg id="Layer_2" xmlns="http://www.w3.org/2000/svg" version="1.1" viewBox="0 0 357.5 151.1">
  <!-- Generator: Adobe Illustrator 29.5.1, SVG Export Plug-In . SVG Version: 2.1.0 Build 141)  -->
  <defs>
    <style>
      .st0 {
        fill: #ffbd00;
      }

      .st1 {
        fill: #d3976e;
      }

      .st2 {
        fill: #83bf4f;
      }

      .st3 {
        fill: #b0bdc6;
      }

      .st4 {
        fill: #fff;
      }

      .st5 {
        fill: #94989b;
      }

      .st6 {
        fill: #333;
      }
    </style>
  </defs>
  <g id="Layer_1-2">
    <g>
      <g>
        <path d="M31.6,13.9h23.3v7.9h-7.7v34.3h-8.1V21.8h-7.5v-7.9Z"/>
        <path d="M90.8,42.8h-25.1c.4,2.2,1.3,4,2.9,5.3,1.6,1.3,3.6,2,6,2s5.4-1,7.5-3.1l6.6,3.1c-1.6,2.3-3.6,4.1-5.9,5.2-2.3,1.1-5,1.7-8.2,1.7-4.9,0-8.9-1.5-12-4.6-3.1-3.1-4.6-7-4.6-11.6s1.5-8.7,4.6-11.9c3.1-3.1,6.9-4.7,11.5-4.7s8.9,1.6,12,4.7,4.6,7.3,4.6,12.5c0,0,0,1.5,0,1.5ZM83,36.6c-.5-1.7-1.5-3.2-3.1-4.2s-3.3-1.6-5.3-1.6-4.1.6-5.8,1.8c-1,.8-2,2.1-2.9,4h17Z"/>
        <path d="M95.3,24.9h6.7v3.9c.7-1.5,1.7-2.7,2.9-3.5,1.2-.8,2.5-1.2,4-1.2s2.1.3,3.2.8l-2.4,6.7c-.9-.5-1.7-.7-2.3-.7-1.2,0-2.2.8-3.1,2.2s-1.2,4.4-1.2,8.8v1.5s0,12.6,0,12.6h-7.8s0-31.2,0-31.2Z"/>
        <path d="M115.9,24.9h7.8v3.6c1.3-1.5,2.8-2.6,4.5-3.3,1.6-.7,3.4-1.1,5.3-1.1s3.7.5,5.3,1.4,2.8,2.4,3.8,4.2c1.2-1.8,2.8-3.2,4.6-4.2,1.8-1,3.8-1.4,5.9-1.4s4.2.5,5.9,1.5,2.9,2.4,3.6,4,1.1,4.4,1.1,8.1v18.3h-7.9v-15.8c0-3.5-.4-5.9-1.3-7.2s-2.2-1.9-4-1.9-2.5.4-3.6,1.1-1.8,1.8-2.4,3.2c-.5,1.4-.8,3.5-.8,6.5v14.1h-7.9v-15.1c0-2.8-.2-4.8-.6-6.1s-1-2.2-1.8-2.8c-.8-.6-1.8-.9-3-.9s-2.5.4-3.6,1.2-1.9,1.9-2.4,3.2c-.5,1.4-.8,3.6-.8,6.6v13.9h-7.8v-31.2h0Z"/>
        <path d="M190.3,29.3l-4.9,4.9c-2-2-3.8-2.9-5.4-2.9s-1.6.2-2.1.6-.8.8-.8,1.4.2.8.5,1.2,1.1.8,2.3,1.5l2.9,1.4c3,1.5,5.1,3,6.2,4.6s1.7,3.4,1.7,5.5-1,5.1-3.1,6.9c-2,1.8-4.8,2.8-8.2,2.8s-8.2-1.8-10.9-5.3l4.8-5.2c.9,1.1,2,1.9,3.2,2.6,1.2.7,2.3,1,3.3,1s1.9-.2,2.5-.8c.6-.5.9-1.1.9-1.7,0-1.2-1.1-2.4-3.4-3.5l-2.6-1.3c-5.1-2.5-7.6-5.7-7.6-9.5s.9-4.6,2.9-6.3c1.9-1.8,4.3-2.6,7.3-2.6s3.9.4,5.7,1.3c1.8.9,3.3,2.2,4.6,3.8h0Z"/>
        <path d="M236.5,24.9h7.8v31.2h-7.8v-3.3c-1.5,1.5-3.1,2.5-4.6,3.1-1.5.6-3.2,1-5,1-4,0-7.5-1.6-10.5-4.7-2.9-3.1-4.4-7-4.4-11.7s1.4-8.8,4.3-11.8c2.9-3.1,6.3-4.6,10.4-4.6s3.6.4,5.3,1.1,3.2,1.8,4.6,3.2v-3.4h0ZM228.2,31.3c-2.4,0-4.4.9-6,2.6s-2.4,3.9-2.4,6.6.8,4.9,2.4,6.7,3.6,2.6,6,2.6,4.5-.9,6.1-2.6,2.4-4,2.4-6.7-.8-4.9-2.4-6.6c-1.6-1.7-3.7-2.5-6.1-2.5h0Z"/>
        <path d="M252.2,24.9h7.8v3.2c1.8-1.5,3.4-2.5,4.8-3.1s2.9-.9,4.4-.9c3.1,0,5.7,1.1,7.9,3.2,1.8,1.8,2.7,4.5,2.7,8.1v20.6h-7.7v-13.7c0-3.7-.2-6.2-.5-7.4s-.9-2.1-1.8-2.8-1.9-1-3.1-1-2.9.5-4.1,1.6c-1.1,1.1-1.9,2.5-2.4,4.4-.2,1-.3,3.1-.3,6.3v12.5h-7.8v-31.2h0Z"/>
        <path d="M310.5,12.9h7.8v43.2h-7.8v-3.3c-1.5,1.5-3.1,2.5-4.6,3.1s-3.2,1-5,1c-4,0-7.5-1.6-10.5-4.7-2.9-3.1-4.4-7-4.4-11.7s1.4-8.8,4.3-11.8c2.9-3.1,6.3-4.6,10.4-4.6s3.6.4,5.3,1.1,3.2,1.8,4.5,3.2v-15.5h0ZM302.3,31.3c-2.4,0-4.4.9-6,2.6s-2.4,3.9-2.4,6.6.8,4.9,2.4,6.7,3.6,2.6,6,2.6,4.5-.9,6.1-2.6,2.4-4,2.4-6.7-.8-4.9-2.4-6.6c-1.6-1.7-3.7-2.5-6.1-2.5h0Z"/>
        <path d="M43.6,79.7l-5.6,5.3c-3.8-4-8.1-6.1-12.9-6.1s-7.4,1.4-10.2,4.1-4.1,6.2-4.1,10.2.6,5.3,1.8,7.5,2.9,3.9,5.2,5.1c2.2,1.2,4.7,1.9,7.4,1.9s4.5-.4,6.4-1.3,4-2.4,6.4-4.8l5.4,5.7c-3.1,3-6.1,5.2-8.8,6.3-2.8,1.2-5.9,1.8-9.5,1.8-6.6,0-11.9-2.1-16.1-6.2s-6.3-9.5-6.3-16,1-7.9,2.8-11.2c1.9-3.3,4.6-5.9,8.2-7.9,3.5-2,7.4-3,11.5-3s6.8.7,10,2.2,6,3.6,8.3,6.3h0Z"/>
        <path d="M64.4,82.4c2.9,0,5.7.7,8.3,2.2,2.6,1.5,4.6,3.5,6.1,6,1.4,2.5,2.2,5.2,2.2,8.2s-.7,5.7-2.2,8.3c-1.5,2.6-3.5,4.6-6,6-2.5,1.4-5.3,2.2-8.3,2.2-4.5,0-8.3-1.6-11.5-4.8s-4.8-7.1-4.8-11.6,1.8-8.9,5.4-12.2c3.1-2.8,6.7-4.2,10.8-4.2h0ZM64.5,89.8c-2.4,0-4.5.8-6.1,2.5s-2.4,3.9-2.4,6.5.8,4.9,2.4,6.6c1.6,1.7,3.6,2.5,6.1,2.5s4.5-.8,6.1-2.6c1.6-1.7,2.4-3.9,2.4-6.6s-.8-4.8-2.4-6.5-3.6-2.5-6.1-2.5h0Z"/>
        <path d="M87.4,83.2h7.8v3.2c1.8-1.5,3.4-2.5,4.8-3.1s2.9-.9,4.4-.9c3.1,0,5.7,1.1,7.9,3.2,1.8,1.8,2.7,4.6,2.7,8.1v20.6h-7.7v-13.7c0-3.7-.2-6.2-.5-7.4s-.9-2.2-1.8-2.8-1.8-1-3.1-1-2.9.5-4.1,1.6c-1.1,1.1-1.9,2.5-2.4,4.4-.2,1-.3,3.1-.3,6.3v12.5h-7.8v-31.2h0Z"/>
        <path d="M145.6,71.2h7.8v43.2h-7.8v-3.3c-1.5,1.4-3.1,2.5-4.6,3.1-1.5.6-3.2,1-5,1-4,0-7.5-1.6-10.5-4.7-2.9-3.1-4.4-7-4.4-11.7s1.4-8.8,4.3-11.8c2.8-3.1,6.3-4.6,10.4-4.6s3.6.3,5.3,1.1,3.2,1.8,4.6,3.2v-15.5h0ZM137.4,89.7c-2.4,0-4.4.9-6,2.6s-2.4,3.9-2.4,6.6.8,4.9,2.4,6.7c1.6,1.7,3.6,2.6,6,2.6s4.5-.9,6.1-2.6,2.4-3.9,2.4-6.7-.8-4.9-2.4-6.6c-1.6-1.7-3.7-2.5-6.1-2.5h0Z"/>
        <path d="M164.4,70.4c1.4,0,2.6.5,3.5,1.5s1.5,2.2,1.5,3.6-.5,2.6-1.5,3.6-2.1,1.5-3.5,1.5-2.6-.5-3.6-1.5-1.5-2.2-1.5-3.7.5-2.6,1.5-3.5c1-1,2.1-1.5,3.5-1.5h0ZM160.5,83.2h7.8v31.2h-7.8v-31.2Z"/>
        <path d="M176.4,71.7h7.8v11.5h4.6v6.7h-4.6v24.5h-7.8v-24.5h-4v-6.7h4v-11.5Z"/>
        <path d="M196.1,70.4c1.4,0,2.6.5,3.5,1.5s1.5,2.2,1.5,3.6-.5,2.6-1.5,3.6-2.1,1.5-3.5,1.5-2.6-.5-3.6-1.5-1.5-2.2-1.5-3.7.5-2.6,1.5-3.5c1-1,2.1-1.5,3.5-1.5h0ZM192.2,83.2h7.8v31.2h-7.8v-31.2Z"/>
        <path d="M221.8,82.4c2.9,0,5.7.7,8.3,2.2s4.6,3.5,6.1,6c1.4,2.5,2.2,5.2,2.2,8.2s-.7,5.7-2.2,8.3c-1.5,2.6-3.5,4.6-6,6-2.5,1.4-5.3,2.2-8.4,2.2-4.5,0-8.3-1.6-11.5-4.8-3.2-3.2-4.8-7.1-4.8-11.6s1.8-8.9,5.4-12.2c3.1-2.8,6.7-4.2,10.8-4.2h0ZM221.9,89.8c-2.4,0-4.5.8-6.1,2.5s-2.4,3.9-2.4,6.5.8,4.9,2.4,6.6c1.6,1.7,3.6,2.5,6.1,2.5s4.5-.8,6.1-2.6c1.6-1.7,2.4-3.9,2.4-6.6s-.8-4.8-2.4-6.5c-1.6-1.7-3.6-2.5-6.1-2.5h0Z"/>
        <path d="M244.8,83.2h7.8v3.2c1.8-1.5,3.4-2.5,4.8-3.1,1.4-.6,2.9-.9,4.4-.9,3.1,0,5.7,1.1,7.9,3.2,1.8,1.8,2.7,4.6,2.7,8.1v20.6h-7.7v-13.7c0-3.7-.2-6.2-.5-7.4s-.9-2.2-1.8-2.8-1.9-1-3.1-1-2.9.5-4.1,1.6c-1.1,1.1-1.9,2.5-2.4,4.4-.2,1-.3,3.1-.3,6.3v12.5h-7.8v-31.2h0Z"/>
        <path d="M299.1,87.6l-4.9,4.8c-2-1.9-3.8-2.9-5.4-2.9s-1.6.2-2.1.6-.8.8-.8,1.4.2.8.5,1.2,1.1.8,2.3,1.4l2.9,1.4c3,1.5,5.1,3,6.2,4.6,1.1,1.6,1.7,3.4,1.7,5.4s-1,5.1-3,6.9c-2,1.8-4.8,2.8-8.2,2.8s-8.2-1.8-10.9-5.3l4.8-5.2c.9,1.1,2,1.9,3.2,2.6,1.2.7,2.3,1,3.3,1s1.9-.2,2.5-.8c.6-.5,1-1.1,1-1.7,0-1.2-1.1-2.4-3.4-3.5l-2.6-1.3c-5-2.5-7.6-5.7-7.6-9.6s1-4.6,2.9-6.3,4.3-2.6,7.3-2.6,3.9.4,5.7,1.3,3.3,2.2,4.5,3.8h0Z"/>
        <g>
          <path class="st1" d="M340.2,119.2c-.8,1.3-2.7,1.5-4.2.4l-16.5-11.7c-1.1-.8-1.5-2.3-.7-3.4l14.5-22.2c.7-1.1,2.3-1.5,3.6-1l18.8,8.3c1.7.7,2.4,2.4,1.5,3.7l-17,25.9h0Z"/>
          <polygon class="st4" points="337.5 117.7 320.5 106.1 335.5 83.2 354.5 91.8 337.5 117.7"/>
          <path class="st5" d="M348.3,90.2c-.2.4-.8.5-1.3.3l-7.2-3.4c-.4-.2-.6-.6-.3-1l1.1-1.7c.2-.3.8-.5,1.2-.3l7.3,3.2c.5.2.6.7.4,1l-1.2,1.8h0Z"/>
          <path class="st6" d="M347,88l-4.6-2.1,1.1-1.7c.2-.3.8-.5,1.2-.3l3.1,1.3c.5.2.6.7.4,1l-1.2,1.8h0Z"/>
          <polygon class="st2" points="347.3 97.4 337.7 92.5 338.2 91.7 347.8 96.6 347.3 97.4"/>
          <path class="st2" d="M334.7,92c-.1,0-.2,0-.3,0l-.6-1.7c0-.1,0-.2.2-.2h.2c.1,0,.2,0,.3,0l.3.9c0,.1.1.2.3,0l1.8-1c.1,0,.3,0,.3,0v.2c.2,0,.2.2,0,.3l-2.6,1.5h0Z"/>
          <polygon class="st3" points="344.1 102.2 334.8 97 335.2 96.2 344.7 101.4 344.1 102.2"/>
          <polygon class="st3" points="333 97.2 330.2 95.6 331.8 93.2 334.6 94.7 333 97.2"/>
          <polygon class="st3" points="341 107 331.8 101.5 332.3 100.7 341.5 106.2 341 107"/>
          <polygon class="st3" points="330 101.6 327.3 100 328.9 97.6 331.7 99.2 330 101.6"/>
          <polygon class="st3" points="337.9 111.8 328.9 106 329.4 105.2 338.4 111 337.9 111.8"/>
          <polygon class="st3" points="327.1 106.1 324.4 104.4 326 101.9 328.7 103.6 327.1 106.1"/>
        </g>
      </g>
      <path class="st0" d="M85.4,146c55.2-4.4,110.6-8.7,165.9-5.3,6.8.4,6.7-10.1,0-10.5-55.3-3.4-110.7,1-165.9,5.3-6.7.5-6.8,11,0,10.5h0Z"/>
    </g>
  </g>
</svg>