<?xml version="1.0" encoding="UTF-8"?>
<svg id="Layer_2" xmlns="http://www.w3.org/2000/svg" version="1.1" viewBox="0 0 451.7 196.4">
  <!-- Generator: Adobe Illustrator 29.5.1, SVG Export Plug-In . SVG Version: 2.1.0 Build 141)  -->
  <defs>
    <style>
      .st0 {
        fill: #ffbd00;
      }

      .st1 {
        fill: #d3976e;
      }

      .st2 {
        fill: #ccc;
      }

      .st3, .st4 {
        isolation: isolate;
      }

      .st5 {
        fill: #ed4c5c;
      }

      .st4 {
        font-family: CenturyGothic-Bold, 'Century Gothic';
        font-size: 58.7px;
        font-weight: 700;
      }
    </style>
  </defs>
  <g id="Layer_1-2">
    <g>
      <path class="st0" d="M30.3,77.8c-5,4.9-9.5,10.7-12.6,17.1-3.3,6.8-6.9,14.9-2.3,21.9s13.8,7,21.1,5.6,13.6-5.1,19.1-10.1l-17.4-7.4c0,2.7-.1,5.5-.2,8.2-.2,6.6,6.7,12.2,12.9,10.1,11.3-3.7,20.1-10.6,27.3-20.2,2.7-3.6,1.3-9.7-1.6-12.7s-8.4-3.9-12.3-1.6c-6.3,3.7-8.5,11.3-6.2,18.2,2.8,8.2,11.1,11.5,19,10.6,13.1-1.6,25.7-9.2,34.5-19.2,6.4-7.2.3-21.2-9.9-17.6-7.3,2.6-12,10.2-9.6,18.2,2.1,7.2,8.7,11.1,15.5,12.1,12.7,1.9,25.9-3.1,34.3-13.1,7.5-8.9-1.8-22.2-12.3-16.5-12.7,6.9-8.6,27,4,31.2,7.4,2.4,15-.2,21-4.8,4.7-3.6,8-9.1,13.3-11.7l-15-11.9c-4.5,11.4,4.5,22.6,14.5,26.3,5.3,2,11,1.5,16.5.3,3.5-.7,10.7-3.8,13-2.9l-4.5-2.7c1.6,1.4,2.7,4.2,4.4,5.9,2.2,2.2,5.1,3.7,8.2,4.4,5.7,1.4,11.7.1,17.2-1.7,12-4,22.8-10.6,32.2-19.2l-17-10.2c-3,8.8-2,20,7.3,24.2,9.9,4.4,21.5-4.2,30.3-8.4-5-3.9-10-7.9-15-11.9-.9,2.5-1.8,5.1-2.7,7.6-2.7,7.7,5.5,15,12.5,12.9,5.3-1.6,10.5-3.7,15.4-6.3-5-3.9-10-7.9-15-11.9-1.3,4.1-3.2,8-5.9,11.3s-3.9,7.3-2.1,11.5c1.5,3.6,5.3,6.8,9.3,6.4,6.2-.5,11.7-2.1,17.4-4.7,2.2-1,4.4-2.1,6.5-3.3,1.2-.6,2.4-1.3,3.6-2l1.4-.8c2.9-1.2,1.8-1.6-3.3-1l-3.7-3.8.3.7-1-8.1-.2.7,2.6-4.6,2.7-1.4h5.4l-.5-.2c2.4,2.4,4.7,4.9,7.1,7.3l-.2-.6c-1.6,3.9-3.1,7.9-4.7,11.9,15.4-10.2,31.9-18.1,49.4-23.6-3.3-5.8-6.6-11.7-9.9-17.5-5.8,5.6-11.5,11.1-17.3,16.7-8.7,8.4,2.4,21.9,12.3,16.5,6.9-3.7,14-6.9,21.4-9.6-3.8-5.1-7.7-10.3-11.5-15.4-3.1,6.9-7,12.6-12.6,17.6-7.4,6.7.4,21.3,9.9,17.5s18.4-7.3,27.6-11c-3.3-5.8-6.6-11.7-9.9-17.5-6.4,6.9-12.7,13.8-19.1,20.6-8.3,8.9,2.1,21.6,12.3,16.5,13.5-6.7,27.1-13.4,40.6-20.1-4.1-5.5-8.2-11-12.3-16.5-4.1,4.9-8.6,9.4-13.5,13.4-7.8,6.5.6,21.2,9.9,17.6,11.9-4.7,23.8-9.4,35.7-14.1-3.8-5.1-7.7-10.3-11.5-15.4-3,4.6-6.8,8.9-11.1,12.3-3.3,2.6-5.5,5.9-4.9,10.5.6,3.8,3.3,8,7.3,8.7,5.7,1,10.9,1.1,16.6-.2,11.4-2.5,8.6-20.6-2.7-20.6-18.3,0-36.6-.2-54.9-.2-8.4,0-16.9-.6-25.3,0s-15.4,3.2-19.6,10.7c-2.5,4.5-1.4,10.4,2.6,13.6,3.7,2.9,10.1,3.3,13.4-.8,2.3-2.9,4.6-5.9,7-8.8,5.8-7.3,1.9-17-7.2-17.9-16.5-1.8-33.3-.9-49.8-.8s-33.5.1-50.2.2-32.7.4-49,2.3c-8.2,1-16.3,2.4-24.4,4.1-7.6,1.6-15.1,3.2-22.9,2.7-16.7-1.1-32-9.9-49.1-8.3l9.8,13.3c2-6.5,2.8-13.3,2.4-20.1-.3-5.1-4.4-11.3-10.2-10.5-15.1,2.1-30.2,3.4-45.4,4.2l5.1,19.6c1.6-1.2.8-.2,0-.4.4,0,1.1.1,1.5.4,1.5.9,2.9,1.9,4.4,2.9,4.1,2.8,8.5,5.2,13.4,6.1,9.8,2,19.6.2,29.2-2.2,19.9-4.9,39.1-12,58.4-19.1-3.3-5.8-6.6-11.7-9.9-17.5l-7.4,8c-8.3,9,2.1,21.4,12.3,16.5,7.2-3.5,15.3-5.8,23.2-6.4,4.2-.4,8.4-.4,12.6-.1,1.6.1,3.2.3,4.8.5s3.1,1.4.3-1.1c-3.1-2.8-1,.7,0,2.5,4.8,8.4,17.1,9.4,25.4,9.5,4.7,0,9.6-.6,14.2-1.7s8.8-3.2,13.3-3.9c7.8-1.2,15.8,3.1,23.5,4.3,10.1,1.6,19.9,0,29.8-1.8,18.5-3.5,36.9-5.6,55.7-3.3,21.6,2.6,42.3,7.9,64.2,4.2,5.4-.9,8.5-7.9,7.1-12.9-1.6-5.9-7.1-8.2-12.5-7.3-17.4,2.9-35.2-1.7-52.4-4.2-18.7-2.6-36.8-1.9-55.5,1.1-8.8,1.4-17.5,3.8-26.4,4-7.9.2-15-3-22.6-4.4-9.9-1.8-17.6.6-27,3.3-3.8,1.1-7.4,1.6-11.3,1.6-2.1,0-4.1-.1-6.1-.5-1.2-.2-2.3-.5-3.5-.8-1.7-.5-1.7-.5.1,0l2.6,4.6c-2.7-6.8-5.1-11.8-12.6-13.4-6.3-1.4-13.1-1.8-19.5-1.6-13.2.5-25.8,3.9-37.7,9.6,4.1,5.5,8.2,11,12.3,16.5l7.4-8c6.5-7.2.2-21.2-9.9-17.5-19.8,7.2-39.7,14.6-60.2,19.5-7.6,1.8-16.1,3.6-23.1-.9-8.5-5.5-18.7-11.4-28.3-4.2-3.7,2.8-6,7-4.7,11.9,1.1,4.3,5.4,7.9,9.8,7.7,15.2-.8,30.3-2.2,45.4-4.2l-10.2-10.5c.3,5.1-.2,9.7-1.7,14.6-1.9,6.1,3.3,13.9,9.8,13.3,14.6-1.3,28.1,5.4,42.3,7.5,16.7,2.5,32.3-2.6,48.6-5.2,32.2-5.1,65.6-3.1,98-3.3,18.7,0,37.8-1.2,56.4.8-2.4-6-4.8-11.9-7.2-17.9-2.3,2.9-4.6,5.9-7,8.8,5.3,4.2,10.7,8.5,16,12.7-.1.2-.6.4-.8.4-.5,0,3.4-.8,2.2-.6,3.1-.5,6.4-.1,9.6-.1,8,0,16,0,24.1.1,15.7,0,31.5.2,47.2.2l-2.7-20.6c-1.9.4-3.9.5-5.8.2l2.4,19.2c7.2-5.7,13.2-12,18.4-19.8,4.8-7.2-3.3-18.7-11.5-15.4-11.9,4.7-23.8,9.4-35.7,14.1,3.3,5.8,6.6,11.7,9.9,17.6,4.9-4.1,9.4-8.5,13.5-13.4,7.7-9.1-1.8-21.7-12.3-16.5-13.5,6.7-27.1,13.4-40.6,20.1,4.1,5.5,8.2,11,12.3,16.5,6.4-6.9,12.7-13.8,19.1-20.6,6.5-7,.1-21.5-9.9-17.6-9.2,3.7-18.4,7.3-27.6,11,3.3,5.8,6.6,11.7,9.9,17.5,6.7-6,12.1-13.5,15.8-21.8,1.7-3.9,2-8.1-.8-11.7-2.4-3.1-6.8-5.2-10.7-3.8-9,3.3-17.8,7.2-26.3,11.7,4.1,5.5,8.2,11,12.3,16.5,5.8-5.6,11.5-11.1,17.3-16.7,7.4-7.1-.3-20.6-9.9-17.5-19.1,6-37.5,14.6-54.3,25.7-3.7,2.4-6.1,7.3-4.7,11.9,2.6,8,11.5,11.2,18,5.6,6.5-5.6,5.8-15.6-1.6-20-11.5-6.8-23.6,8.5-35,9.5,2.4,6,4.8,11.9,7.2,17.9,5-6.2,8.7-12.8,11.1-20.6,2.9-9.3-7.5-15.8-15-11.9-3.4,1.8-6.9,3.1-10.6,4.2,4.2,4.3,8.3,8.6,12.5,12.9.9-2.5,1.8-5.1,2.7-7.6,3.4-9.4-7.7-15.3-15-11.9-4.1,2-9.5,3.6-13.2,6.3-.4.3-.8.4-1.3.5,3.2.5,5.1,1.9,5.8,4.4-.2.2.7-2.7.9-3.3,3.6-10.6-10-16.6-17-10.2-5.5,5-11.9,9.2-18.7,12.1-2.9,1.3-7.3,2.9-9.9,3.2-1.3-.2-1.6-.1-1,.2-1.7-.6-1.6-.3.4.6-.6-1.1-1.3-2.4-2.2-3.6-6.8-8.5-17.2-5.2-26-2.8-2.8.8-6.7,2.2-9.1.9-.3-.1-1.3-.8-1.1-.7-.8-1.7-.9-1.4-.2.8-.2.8,0,.6.4-.8,1.5-3.8-.7-8.8-3.6-11-3.4-2.7-7.5-2.8-11.3-.8-6,3-9.6,8.4-14.6,12.6-.7.6-2.3,1.3-2.7,1.8-.8,1.1-1.2-1.3.2.8.7,1.2,1.3.6,1.6,2.2.2,1.4-1.1,3.6-2.2,4.2-4.1-5.5-8.2-11-12.3-16.5-2.7,3.2-5.8,5.6-9.9,6.8-1.7.5-3.3.7-5.1.7-.4,0-2.3-.2-2.2-.2l-1.3-.4c3,1.4,3.5,4.3,1.5,8.6l-4.5,2.7,1-.3c-3.3-5.8-6.6-11.7-9.9-17.6-3.8,4.3-7.9,7.7-13,10.2-2.2,1.1-4.5,1.9-6.9,2.5-.5.1-2.8.5-2.9.5h0c4.1,2.8,4.2,6.1.2,10.1l-13.9-14.4c-3.8,5-9.3,8.6-15.1,10.5l12.9,10.1c0-2.7.1-5.5.2-8.2.2-9.6-11.1-13.2-17.4-7.4-1.9,1.7-4.1,3-6.4,3.8-1.2.4-2.5.8-3.8.9-.5,0-1.1,0-1.6,0-2-.1-2,0,0,.3l3.7,3.8c0,4.1.4,4.8,1.1,2.1.2-.7.5-1.4.9-2,.8-1.7,1.7-3.4,2.7-5,2-3.2,4.4-6,7.1-8.6,9.5-9.3-4.9-24.2-14.4-14.8h0Z"/>
      <g class="st3">
        <text class="st4" transform="translate(161 51.5)"><tspan x="0" y="0">Our</tspan></text>
        <text class="st4" transform="translate(11.2 115.5)"><tspan x="0" y="0">Customer-First</tspan></text>
        <text class="st4" transform="translate(14.7 179.5)"><tspan x="0" y="0">Privacy Policy</tspan></text>
      </g>
      <g>
        <path class="st2" d="M425,177.7c0,.8-2.6,1.5-5.9,1.5-3.3,0-5.9-.6-6-1.5,0-.8,2.6-1.5,5.9-1.5s5.9.6,5.9,1.5h0Z"/>
        <path class="st5" d="M443.2,150.8c-1.2-.5-20.3-9.4-23.1-10.7v24.2c2.9-1.3,21.9-10.4,23.1-10.9.9-.4.9-2.1,0-2.5h0Z"/>
        <rect class="st1" x="417.8" y="140.1" width="2.4" height="37.6" transform="translate(-.7 1.9) rotate(-.3)"/>
      </g>
    </g>
  </g>
</svg>