<?xml version="1.0" encoding="UTF-8"?>
<svg id="Layer_2" xmlns="http://www.w3.org/2000/svg" xmlns:xlink="http://www.w3.org/1999/xlink" version="1.1" viewBox="0 0 475 517.8">
  <!-- Generator: Adobe Illustrator 29.5.1, SVG Export Plug-In . SVG Version: 2.1.0 Build 141)  -->
  <defs>
    <style>
      .st0 {
        fill: #f9ad13;
      }

      .st1 {
        fill: none;
      }

      .st2 {
        fill: #ffbd00;
      }

      .st3 {
        fill: #f9ac14;
      }

      .st4 {
        fill: #f8a917;
      }

      .st5 {
        opacity: .1;
      }

      .st5, .st6 {
        isolation: isolate;
      }

      .st7 {
        fill: #f5a220;
      }

      .st8 {
        fill: #f8ab15;
      }

      .st9 {
        fill: #f7a61a;
      }

      .st10 {
        fill: #f39d26;
      }

      .st11 {
        fill: #f2992a;
      }

      .st12 {
        fill: #cecece;
      }

      .st13 {
        fill: #fab00e;
      }

      .st14 {
        fill: #f39e25;
      }

      .st15 {
        fill: #f29a29;
      }

      .st16 {
        fill: #f1972e;
      }

      .st17 {
        fill: #f2992c;
      }

      .st18 {
        fill: #66f;
      }

      .st19 {
        fill: #f8aa16;
      }

      .st20 {
        fill: #f4a022;
      }

      .st21 {
        fill: #fbb20c;
      }

      .st22 {
        fill: #f6a41d;
      }

      .st23 {
        clip-path: url(#clippath-1);
      }

      .st24 {
        fill: #fcb409;
      }

      .st25 {
        fill: #f39c27;
      }

      .st26 {
        fill: #fff;
      }

      .st27 {
        fill: #f5a121;
      }

      .st28 {
        fill: #fbb20b;
      }

      .st29 {
        fill: #fcb30a;
      }

      .st30 {
        fill: #faae11;
      }

      .st31 {
        fill: #febb02;
      }

      .st32 {
        fill: #faaf10;
      }

      .st33 {
        fill: #f7a719;
      }

      .st34 {
        opacity: .2;
      }

      .st35 {
        fill: #f49e24;
      }

      .st36 {
        fill: #fbb10d;
      }

      .st37 {
        fill: #f6a51c;
      }

      .st38 {
        fill: #feba03;
      }

      .st39 {
        fill: #f5a31e;
      }

      .st40 {
        fill: #e1e1e1;
      }

      .st41 {
        fill: #fdb806;
      }

      .st42 {
        fill: #f49f23;
      }

      .st43 {
        fill: #f9ad12;
      }

      .st44 {
        fill: #fdb607;
      }

      .st45 {
        fill: #f29b28;
      }

      .st46 {
        clip-path: url(#clippath);
      }

      .st47 {
        fill: #f6a61b;
      }

      .st48 {
        fill: #eed7ff;
      }

      .st49 {
        fill: #f7a818;
      }

      .st50 {
        fill: #fcb508;
      }

      .st51 {
        fill: #f1982d;
      }

      .st52 {
        fill: #fdb904;
      }
    </style>
    <clipPath id="clippath">
      <circle class="st1" cx="102" cy="135.3" r="37.4"/>
    </clipPath>
    <clipPath id="clippath-1">
      <path class="st1" d="M344.9,362.1l-106.8-.5c-1.1,0-2-1.2-2-2.7v-27.9c.1-1.5,1-2.7,2.1-2.7l106.8.5c1.1,0,2,1.2,2,2.7v27.9c-.1,1.5-1,2.7-2.1,2.7h0Z"/>
    </clipPath>
  </defs>
  <g id="Layer_1-2">
    <g>
      <g>
        <path class="st26" d="M21.3,497l6.2,1.8,3.4-6.1c1.5.1,3,.2,4.5,0l3.2,6.2,6.2-1.5-.2-7c1.4-.6,2.7-1.3,3.9-2.2l5.9,3.9,4.6-4.5-3.6-6c.9-1.2,1.6-2.5,2.3-3.8l7,.4,1.8-6.2-6.1-3.4c.2-1.5.2-3,0-4.5l6.3-3.1-1.6-6.2-7,.2c-.6-1.4-1.3-2.7-2.2-3.9l3.8-5.9-4.5-4.6-6,3.6c-1.2-.9-2.5-1.6-3.8-2.3l.4-7-6.2-1.8-3.4,6.1c-1.5-.1-3-.2-4.5,0l-3.1-6.2-6.2,1.5.2,7c-1.4.6-2.7,1.3-3.9,2.2l-5.9-3.9-4.6,4.5,3.6,6c-.9,1.2-1.6,2.5-2.3,3.8l-7-.4-1.8,6.2,6.1,3.4c-.2,1.5-.2,3,0,4.5l-6.2,3.1,1.5,6.2,7-.2c.6,1.4,1.3,2.7,2.2,3.9l-3.8,5.9,4.5,4.6,6-3.6c1.2.9,2.5,1.6,3.8,2.3l-.4,7h0ZM17.7,461.5c2.5-8.8,11.7-13.8,20.4-11.3,8.8,2.5,13.8,11.7,11.3,20.4-2.5,8.8-11.7,13.8-20.4,11.3-8.8-2.5-13.8-11.7-11.3-20.4Z"/>
        <path d="M38.5,499.5c-.2,0-.4-.1-.5-.3l-3-5.9c-1.2,0-2.5,0-3.8,0l-3.2,5.8c-.1.2-.4.3-.6.3l-6.2-1.8c-.2,0-.4-.3-.4-.6l.4-6.6c-1.1-.6-2.2-1.2-3.3-2l-5.7,3.4c-.2.1-.5.1-.7,0l-4.5-4.6c-.2-.2-.2-.5,0-.7l3.6-5.5c-.7-1.1-1.3-2.2-1.9-3.3H2.1q0,.1,0,.1c-.3,0-.5-.2-.5-.4l-1.5-6.2c0-.3,0-.5.3-.6l5.9-3c0-1.3,0-2.5,0-3.8l-5.8-3.2c-.2-.1-.3-.4-.3-.6l1.8-6.2c0-.2.3-.4.6-.4l6.6.4c.6-1.1,1.2-2.2,2-3.3l-3.4-5.7c-.1-.2,0-.5,0-.7l4.6-4.5c.2-.2.5-.2.7,0l5.6,3.6c1.1-.7,2.2-1.3,3.3-1.9v-6.6c-.1-.3,0-.5.3-.6l6.2-1.5c.3,0,.5,0,.6.3l3,5.9c1.3,0,2.5,0,3.8,0l3.2-5.8c.1-.2.4-.3.7-.3l6.2,1.8c.2,0,.4.3.4.6l-.4,6.6c1.2.6,2.2,1.2,3.3,2l5.7-3.4c.2-.1.5-.1.7,0l4.5,4.6c.2.2.2.5,0,.7l-3.6,5.5c.7,1.1,1.3,2.2,1.8,3.3h6.6q0-.1,0-.1c.3,0,.5.2.6.4l1.6,6.2c0,.3,0,.5-.3.6l-5.9,3c0,1.3,0,2.5,0,3.8l5.8,3.2c.2.1.3.4.3.6l-1.8,6.2c0,.2-.3.4-.6.4l-6.6-.4c-.6,1.1-1.2,2.2-2,3.3l3.4,5.7c.1.2,0,.5,0,.7l-4.6,4.5c-.2.2-.5.2-.7,0l-5.5-3.6c-1.1.7-2.2,1.3-3.3,1.9l.2,6.6c0,.3-.2.5-.4.6l-6.2,1.5s0,0-.1,0ZM35.3,492.2c.2,0,.4.1.5.3l2.9,5.9,5.3-1.3-.2-6.6c0-.2.1-.4.3-.5,1.3-.6,2.6-1.3,3.8-2.1.2-.1.4-.1.6,0l5.5,3.6,4-3.8-3.4-5.6c-.1-.2-.1-.4,0-.6.8-1.2,1.6-2.4,2.2-3.8,0-.2.3-.3.5-.3l6.5.4,1.5-5.3-5.8-3.1c-.2-.1-.3-.3-.3-.5.2-1.5.2-2.9,0-4.4,0-.2.1-.4.3-.5l5.9-2.9-1.3-5.4h-6.6c-.2.1-.4,0-.5-.2-.6-1.3-1.3-2.6-2.1-3.8-.1-.2-.1-.4,0-.6l3.6-5.5-3.8-4-5.6,3.4c-.2.1-.4.1-.6,0-1.2-.8-2.4-1.6-3.8-2.2-.2-.1-.3-.3-.3-.5l.4-6.5-5.3-1.5-3.2,5.8c-.1.2-.3.3-.5.3-1.5-.1-2.9-.2-4.4,0-.2,0-.4-.1-.5-.3l-2.9-5.9-5.4,1.3v6.6c.1.2,0,.4-.2.5-1.3.6-2.6,1.3-3.8,2.1-.2.1-.4.1-.6,0l-5.5-3.6-4,3.8,3.4,5.6c.1.2.1.4,0,.6-.8,1.2-1.6,2.4-2.2,3.8-.1.2-.3.3-.5.3l-6.6-.4-1.5,5.3,5.8,3.1c.2.1.3.3.3.5-.2,1.5-.2,2.9,0,4.4,0,.2-.1.4-.3.5l-5.8,2.9,1.3,5.4h6.6c.2-.1.4,0,.5.2.6,1.3,1.3,2.6,2.1,3.8.1.2.1.4,0,.6l-3.6,5.5,3.8,4,5.6-3.4c.2-.1.4-.1.6,0,1.2.8,2.4,1.6,3.8,2.2.2.1.3.3.3.5l-.4,6.5,5.3,1.5,3.1-5.8c.1-.2.3-.3.5-.3,1.5.1,2.9.2,4.4,0h0ZM33.6,483.1c-1.6,0-3.2-.2-4.7-.7-9-2.6-14.3-12.1-11.7-21.1,1.3-4.4,4.1-8,8.1-10.2,4-2.2,8.6-2.7,13-1.5,9,2.6,14.3,12.1,11.7,21.1-1.3,4.4-4.2,8-8.1,10.2-2.6,1.4-5.4,2.1-8.2,2.1h0ZM18.2,461.6c-2.4,8.5,2.5,17.3,10.9,19.7,4.1,1.2,8.4.7,12.1-1.4,3.7-2.1,6.4-5.5,7.6-9.5,2.4-8.5-2.5-17.3-10.9-19.7-4.1-1.2-8.4-.7-12.1,1.4-3.7,2.1-6.4,5.5-7.6,9.5Z"/>
      </g>
      <g>
        <path class="st26" d="M397.1,307.7l10.5,3,5.8-10.5c2.6.3,5.1.3,7.6.1l5.4,10.7,10.6-2.6-.3-12c2.3-1,4.6-2.3,6.7-3.7l10,6.6,7.9-7.6-6.2-10.2c1.5-2,2.8-4.2,3.9-6.6l12,.7,3-10.5-10.5-5.8c.3-2.6.3-5.1.1-7.6l10.7-5.4-2.6-10.6-12,.3c-1-2.3-2.3-4.6-3.7-6.7l6.6-10-7.6-7.9-10.2,6.2c-2-1.5-4.2-2.8-6.6-3.9l.7-12-10.5-3-5.8,10.5c-2.6-.3-5.1-.3-7.6-.1l-5.4-10.7-10.6,2.6.3,12c-2.3,1.1-4.6,2.3-6.7,3.7l-10-6.6-7.9,7.6,6.2,10.2c-1.5,2.1-2.8,4.2-3.9,6.6l-12-.7-3,10.6,10.5,5.8c-.3,2.6-.3,5.1-.1,7.6l-10.7,5.4,2.6,10.6,12-.3c1,2.3,2.3,4.6,3.7,6.7l-6.6,10,7.6,7.9,10.2-6.2c2,1.5,4.2,2.8,6.6,3.9l-.7,12h0ZM390.9,246.8c4.3-15,20-23.7,35-19.4,15,4.3,23.7,19.9,19.4,35-4.3,15-20,23.7-35,19.4-15-4.3-23.7-20-19.4-35Z"/>
        <path d="M426.4,311.6c-.2,0-.4-.1-.5-.3l-5.2-10.4c-2.3.1-4.6,0-7-.1l-5.6,10.2c-.1.2-.4.3-.6.3l-10.5-3c-.2,0-.4-.3-.4-.6l.7-11.6c-2.1-1.1-4.1-2.3-6-3.6l-9.9,6c-.2.1-.5.1-.7,0l-7.6-7.9c-.2-.2-.2-.5,0-.7l6.4-9.7c-1.3-2-2.4-4-3.4-6.1l-11.6.3c-.3,0-.5-.2-.6-.4l-2.6-10.6c0-.3,0-.5.3-.6l10.4-5.2c-.1-2.3,0-4.6.1-7l-10.2-5.6c-.2-.1-.3-.4-.3-.6l3-10.6c0-.2.3-.4.6-.4l11.6.7c1.1-2.1,2.3-4.1,3.6-6l-6-9.9c-.1-.2-.1-.5,0-.7l7.9-7.6c.2-.2.5-.2.7,0l9.7,6.4c2-1.3,4-2.4,6.1-3.4l-.3-11.6c0-.3.2-.5.4-.6l10.6-2.6c.3,0,.5,0,.6.3l5.2,10.4c2.3-.1,4.6,0,7,.1l5.6-10.2c.1-.2.4-.3.6-.3l10.5,3c.2,0,.4.3.4.6l-.7,11.6c2.1,1.1,4.1,2.3,6,3.6l9.9-6c.2-.1.5-.1.7,0l7.6,7.9c.2.2.2.5,0,.7l-6.4,9.7c1.3,1.9,2.4,4,3.4,6.1l11.6-.3h0c.3,0,.5.2.5.4l2.6,10.6c0,.3,0,.5-.3.6l-10.4,5.2c.1,2.3,0,4.6-.1,7l10.2,5.6c.2.1.3.4.3.6l-3,10.5c0,.2-.3.4-.6.4l-11.6-.7c-1.1,2.1-2.3,4.1-3.6,6l6,9.9c.1.2.1.5,0,.7l-7.9,7.6c-.2.2-.5.2-.7,0l-9.7-6.4c-1.9,1.3-4,2.4-6.1,3.4l.3,11.6c0,.3-.2.5-.4.6l-10.6,2.6s0,0-.1,0h0ZM421,299.8c.2,0,.4.1.5.3l5.2,10.3,9.8-2.4-.3-11.5c0-.2.1-.4.3-.5,2.3-1,4.5-2.3,6.6-3.7.2-.1.4-.1.6,0l9.6,6.3,7.2-7-6-9.9c-.1-.2-.1-.4,0-.6,1.5-2,2.8-4.2,3.9-6.5.1-.2.3-.3.5-.3l11.5.7,2.8-9.7-10.1-5.5c-.2-.1-.3-.3-.3-.5.3-2.5.3-5.1.1-7.6,0-.2.1-.4.3-.5l10.3-5.2-2.4-9.8-11.5.3c-.2,0-.4-.1-.5-.3-1-2.3-2.3-4.5-3.7-6.6-.1-.2-.1-.4,0-.6l6.3-9.6-7-7.2-9.9,6c-.2.1-.4.1-.6,0-2-1.4-4.2-2.8-6.5-3.9-.2-.1-.3-.3-.3-.5l.7-11.5-9.7-2.8-5.5,10.1c-.1.2-.3.3-.5.3-2.5-.3-5.1-.3-7.5-.1-.2,0-.4-.1-.5-.3l-5.2-10.3-9.8,2.4.3,11.5c0,.2-.1.4-.3.5-2.3,1-4.5,2.3-6.6,3.7-.2.1-.4.1-.6,0l-9.6-6.3-7.2,7,6,9.9c.1.2.1.4,0,.6-1.5,2-2.8,4.2-3.9,6.5-.1.2-.3.3-.5.3l-11.5-.7-2.8,9.7,10.1,5.6c.2.1.3.3.3.6-.3,2.5-.3,5.1-.1,7.5,0,.2-.1.4-.3.5l-10.3,5.2,2.4,9.8,11.5-.3c.2,0,.4.1.5.3,1,2.3,2.3,4.5,3.7,6.6.1.2.1.4,0,.6l-6.3,9.6,7,7.2,9.9-6c.2-.1.4-.1.6,0,2,1.5,4.2,2.8,6.5,3.9.2.1.3.3.3.5l-.7,11.5,9.7,2.8,5.5-10.1c.1-.2.3-.3.5-.3,2.5.3,5.1.3,7.5.1h0ZM418,283.4c-2.6,0-5.3-.4-7.9-1.1-7.4-2.1-13.5-7-17.3-13.7s-4.6-14.5-2.5-21.9c2.1-7.4,7-13.5,13.7-17.3s14.5-4.6,21.9-2.5c7.4,2.1,13.5,7,17.3,13.7s4.6,14.5,2.5,21.9c-3.6,12.6-15.2,20.9-27.7,20.9h0ZM390.9,246.8l.5.2c-2,7.1-1.2,14.6,2.4,21.1s9.5,11.2,16.6,13.2c2.5.7,5.1,1.1,7.6,1.1,12,0,23.1-7.9,26.6-20.1,2-7.1,1.2-14.6-2.4-21.1s-9.5-11.2-16.6-13.2-14.6-1.2-21.1,2.4-11.2,9.5-13.2,16.6l-.5-.2h0Z"/>
      </g>
      <g>
        <path d="M428.7,155.6c-.1,0-.3,0-.4-.2-.2-.2-.2-.6,0-.8l2-2c.2-.2.6-.2.8,0s.2.6,0,.8l-2,2c-.1.1-.2.2-.4.2Z"/>
        <path d="M436.1,148.2c-.1,0-.3,0-.4-.2-.2-.2-.2-.6,0-.8l2-2c.2-.2.6-.2.8,0s.2.6,0,.8l-2,2c-.1.1-.2.2-.4.2Z"/>
        <path d="M438,155.6c-.1,0-.3,0-.4-.2l-2-2c-.2-.2-.2-.6,0-.8s.6-.2.8,0l2,2c.2.2.2.6,0,.8-.1.1-.2.2-.4.2Z"/>
        <path d="M430.6,148.2c-.1,0-.3,0-.4-.2l-2-2c-.2-.2-.2-.6,0-.8s.6-.2.8,0l2,2c.2.2.2.6,0,.8-.1.1-.2.2-.4.2Z"/>
      </g>
      <g>
        <path d="M24.2,238.5c0,0-.2,0-.2,0-.3-.1-.4-.5-.3-.8l1.1-2.5c.1-.3.5-.4.7-.3s.4.5.3.7l-1.1,2.5c0,.2-.3.3-.5.3h0Z"/>
        <path d="M28.5,229c0,0-.2,0-.2,0-.3-.1-.4-.5-.3-.8l1.1-2.5c.1-.3.5-.4.7-.3s.4.5.3.8l-1.1,2.5c0,.2-.3.3-.5.3Z"/>
        <path d="M33,235.3c0,0-.2,0-.2,0l-2.5-1.1c-.3-.1-.4-.5-.3-.8.1-.3.5-.4.7-.3l2.5,1.1c.3.1.4.5.3.8,0,.2-.3.3-.5.3Z"/>
        <path d="M23.4,230.9c0,0-.2,0-.2,0l-2.5-1.1c-.3-.1-.4-.5-.3-.8.1-.3.5-.4.7-.3l2.5,1.1c.3.1.4.5.3.7,0,.2-.3.3-.5.3h0Z"/>
      </g>
      <path d="M49.5,269.4c-2.2,0-4-1.8-4-4s1.8-4,4-4,4,1.8,4,4-1.8,4-4,4ZM49.5,262.4c-1.6,0-2.9,1.3-2.9,2.9s1.3,2.9,2.9,2.9,2.9-1.3,2.9-2.9-1.3-2.9-2.9-2.9Z"/>
      <g>
        <g>
          <g class="st46">
            <polygon class="st2" points="88 97.9 64.5 125.8 64.5 97.9 88 97.9"/>
            <polygon class="st31" points="125.7 97.9 139.4 109.4 139.4 111.2 87.4 172.8 78.2 172.8 64.5 161.2 64.5 125.8 88 97.9 125.7 97.9"/>
            <polygon class="st31" points="139.4 121.7 96.4 172.8 87.4 172.8 139.4 111.2 139.4 121.7"/>
            <polygon class="st38" points="139.4 132.3 105.3 172.8 96.4 172.8 139.4 121.7 139.4 132.3"/>
            <polygon class="st52" points="139.4 142.9 114.2 172.8 105.3 172.8 139.4 132.3 139.4 142.9"/>
            <polygon class="st41" points="139.4 153.5 123.2 172.8 114.2 172.8 139.4 142.9 139.4 153.5"/>
            <polygon class="st44" points="139.4 164.1 132.1 172.8 123.2 172.8 139.4 153.5 139.4 164.1"/>
            <polygon class="st50" points="132.1 172.8 139.4 164.1 139.4 172.8 132.1 172.8"/>
          </g>
          <path d="M102,173.3c-20.9,0-37.9-17-37.9-37.9s17-37.9,37.9-37.9,37.9,17,37.9,37.9-17,37.9-37.9,37.9ZM102,98.4c-20.4,0-36.9,16.6-36.9,36.9s16.6,36.9,36.9,36.9,36.9-16.6,36.9-36.9-16.6-36.9-36.9-36.9Z"/>
        </g>
        <g>
          <g>
            <path class="st26" d="M110.7,130.1l-.2-11.9c0-3.8-3.1-7-7-7.2-4.2-.2-7.7,3.3-7.6,7.5v3.7c.1,1.3-.9,2.3-2.2,2.3-1.2,0-2.1-1-2.1-2.2v-3.5c-.2-6.8,5.2-12.4,12.2-12.1h0c5.8.2,11.1,5.3,11.2,11.5l.2,12-4.5-.2h0Z"/>
            <path d="M115.1,130.8h0l-4.5-.2c-.3,0-.5-.2-.5-.6l-.2-11.9c0-3.5-2.9-6.4-6.4-6.6-1.9,0-3.7.6-5,1.9-1.3,1.3-2.1,3.1-2,5v3.7c0,.8-.2,1.5-.8,2.1-.6.5-1.3.8-2.1.8-1.5,0-2.7-1.3-2.7-2.8v-3.5c-.1-3.5,1.2-6.8,3.6-9.2,2.4-2.4,5.7-3.6,9.2-3.5h0c6.2.3,11.6,5.8,11.7,12.1l.2,12c0,.1,0,.3-.2.4-.1.1-.2.2-.4.2h0ZM111.2,129.5h3.3c0,.1-.1-11.3-.1-11.3-.1-5.7-5-10.8-10.7-11h0c-3.2-.1-6.1,1-8.3,3.2-2.2,2.2-3.4,5.2-3.3,8.3v3.5c0,.9.8,1.6,1.7,1.6.5,0,.9-.2,1.2-.5s.5-.8.5-1.2v-3.7c-.1-2.2.7-4.3,2.3-5.8,1.6-1.5,3.6-2.3,5.8-2.2,4.1.2,7.4,3.6,7.5,7.7l.2,11.4h0Z"/>
          </g>
          <path class="st26" d="M105.7,162.7l-5,.2c-6.9-.2-13.1-8.5-12.4-18.2l1.1-15.6,29.5-.2c2.6,0,4.8,2.3,4.6,4.9l-.9,13.2c-.6,8.9-8,15.7-16.8,15.7h0Z"/>
          <g>
            <path class="st26" d="M100.8,162.5c-9.8,0-17.5-8.3-16.8-18l1-15.1h31.2c1.4,0,2.6,1.2,2.5,2.6l-1,14.7c-.6,8.9-8,15.7-16.8,15.7h0Z"/>
            <path d="M100.8,163c-4.9,0-9.4-2-12.7-5.5-3.3-3.6-5-8.2-4.7-13.1l1-15.1c0-.3.3-.5.6-.5h31.2c.8,0,1.7.4,2.2,1s.9,1.4.8,2.3l-1,14.7c-.6,9.1-8.3,16.3-17.4,16.3h0ZM85.6,129.9l-1,14.6c-.3,4.6,1.2,8.9,4.4,12.2,3.1,3.3,7.3,5.2,11.9,5.2,8.6,0,15.7-6.7,16.3-15.2l1-14.7c0-.5-.2-1-.5-1.4-.4-.4-.9-.6-1.4-.6h-30.6Z"/>
          </g>
          <g>
            <path d="M100.5,152.9c-.8,0-1.4-.7-1.4-1.5l.8-11.8c0-.7.7-1.3,1.4-1.3s1.4.7,1.4,1.5l-.8,11.8c0,.7-.7,1.3-1.4,1.3Z"/>
            <circle cx="100.9" cy="140.8" r="5.1"/>
          </g>
        </g>
      </g>
      <g>
        <g>
          <path class="st18" d="M362.6,424.1l-143.9-.7c-17.3,0-31.3-14.2-31.2-31.5l1.5-360.7c0-17.3,14.2-31.3,31.5-31.2l143.9.7c17.3,0,31.3,14.2,31.2,31.5l-1.5,360.7c0,17.3-14.2,31.3-31.5,31.2h0Z"/>
          <path class="st26" d="M364.2,13.1h-27.9c-3.7-.2-6.8,3-6.8,6.9v5.1c0,3.9-3.1,7.1-6.8,7.1l-54.4-.2c-3.7,0-6.8-3.2-6.7-7.1v-5.1c0-3.9-3-7.1-6.7-7.1h-9.8c0,0-24.4-.2-24.4-.2-12.1,0-22,9.7-22.1,21.9l-1.5,352.1c0,12.1,9.7,22,21.9,22l143.6.7c12.1,0,22-9.7,22-21.9l1.5-352.1c0-12.1-9.7-22-21.9-22Z"/>
          <g>
            <g>
              <g class="st23">
                <rect class="st2" x="236.1" y="328.4" width="0" height="33.8"/>
                <rect class="st2" x="236.1" y="328.4" width="24.4" height="33.8"/>
                <rect class="st31" x="260.5" y="328.4" width="24.4" height="33.8"/>
                <rect class="st31" x="284.9" y="328.4" width="3.5" height="33.8"/>
                <rect class="st38" x="288.4" y="328.4" width="3.5" height="33.8"/>
                <rect class="st52" x="291.9" y="328.4" width="3.5" height="33.8"/>
                <rect class="st41" x="295.3" y="328.4" width="3.5" height="33.8"/>
                <rect class="st44" x="298.8" y="328.4" width="3.5" height="33.8"/>
                <rect class="st50" x="302.3" y="328.4" width="3.5" height="33.8"/>
                <rect class="st24" x="305.8" y="328.4" width="3.5" height="33.8"/>
                <rect class="st24" x="309.3" y="328.4" width="1.5" height="33.8"/>
                <rect class="st29" x="310.7" y="328.4" width="1.5" height="33.8"/>
                <rect class="st28" x="312.2" y="328.4" width="1.5" height="33.8"/>
                <rect class="st21" x="313.6" y="328.4" width="1.5" height="33.8"/>
                <rect class="st36" x="315.1" y="328.4" width="1.5" height="33.8"/>
                <rect class="st13" x="316.5" y="328.4" width="1.5" height="33.8"/>
                <rect class="st32" x="318" y="328.4" width="1.5" height="33.8"/>
                <rect class="st30" x="319.4" y="328.4" width="1.5" height="33.8"/>
                <rect class="st43" x="320.9" y="328.4" width="1.5" height="33.8"/>
                <rect class="st0" x="322.3" y="328.4" width="1.5" height="33.8"/>
                <rect class="st3" x="323.8" y="328.4" width="1.5" height="33.8"/>
                <rect class="st8" x="325.2" y="328.4" width="1.5" height="33.8"/>
                <rect class="st19" x="326.7" y="328.4" width="1.5" height="33.8"/>
                <rect class="st19" x="328.1" y="328.4" width=".8" height="33.8"/>
                <rect class="st4" x="329" y="328.4" width=".8" height="33.8"/>
                <rect class="st49" x="329.8" y="328.4" width=".8" height="33.8"/>
                <rect class="st33" x="330.6" y="328.4" width=".8" height="33.8"/>
                <rect class="st9" x="331.4" y="328.4" width=".8" height="33.8"/>
                <rect class="st47" x="332.2" y="328.4" width=".8" height="33.8"/>
                <rect class="st37" x="333" y="328.4" width=".8" height="33.8"/>
                <rect class="st22" x="333.9" y="328.4" width=".8" height="33.8"/>
                <rect class="st39" x="334.7" y="328.4" width=".8" height="33.8"/>
                <rect class="st7" x="335.5" y="328.4" width=".8" height="33.8"/>
                <rect class="st27" x="336.3" y="328.4" width=".8" height="33.8"/>
                <rect class="st20" x="337.1" y="328.4" width=".8" height="33.8"/>
                <rect class="st42" x="337.9" y="328.4" width=".8" height="33.8"/>
                <rect class="st35" x="338.8" y="328.4" width=".8" height="33.8"/>
                <rect class="st14" x="339.6" y="328.4" width=".8" height="33.8"/>
                <rect class="st10" x="340.4" y="328.4" width=".8" height="33.8"/>
                <rect class="st25" x="341.2" y="328.4" width=".8" height="33.8"/>
                <rect class="st45" x="342" y="328.4" width=".8" height="33.8"/>
                <rect class="st15" x="342.8" y="328.4" width=".8" height="33.8"/>
                <rect class="st15" x="343.7" y="328.4" width=".7" height="33.8"/>
                <rect class="st11" x="344.3" y="328.4" width=".7" height="33.8"/>
                <rect class="st17" x="345" y="328.4" width=".7" height="33.8"/>
                <rect class="st51" x="345.7" y="328.4" width=".7" height="33.8"/>
                <rect class="st16" x="346.3" y="328.4" width=".7" height="33.8"/>
                <rect class="st16" x="347" y="328.4" width="0" height="33.8"/>
              </g>
              <path d="M344.9,362.6h0l-106.8-.5c-.6,0-1.1-.2-1.5-.7-.6-.6-.9-1.5-.9-2.5v-27.9c.1-1.7,1.2-3.2,2.6-3.2l106.8.5c.6,0,1.1.2,1.5.7.6.6.9,1.5.9,2.5v27.9c-.1,1-.5,1.9-1.1,2.5-.4.4-1,.7-1.5.7ZM238.2,328.8c-.8,0-1.5,1-1.5,2.2v27.9c-.1.7.1,1.4.5,1.8.2.2.5.4.8.4l106.8.5c.3,0,.7-.2.8-.4.4-.4.7-1.1.7-1.8v-27.9c.1-.7-.1-1.4-.5-1.8-.2-.2-.5-.4-.8-.4l-106.8-.5Z"/>
            </g>
            <g class="st6">
              <g class="st6">
                <path d="M267.6,347.6l.3-.7c.6.6,1.6,1,2.6,1,1.5,0,2.2-.6,2.2-1.5,0-2.3-4.9-.9-4.9-4,0-1.2.9-2.3,3-2.3.9,0,1.8.3,2.5.8l-.3.7c-.7-.5-1.5-.7-2.2-.7-1.5,0-2.1.7-2.1,1.5,0,2.3,4.9.9,4.9,4,0,1.2-1,2.3-3,2.3-1.2,0-2.4-.5-3-1.1Z"/>
                <path d="M275.5,340.3h.8s0,8.4,0,8.4h-.8s0-8.4,0-8.4Z"/>
                <path d="M284.6,344.5h.8s0,3.2,0,3.2c-.8.7-1.8,1.1-3,1.1-2.4,0-4.2-1.8-4.2-4.3,0-2.4,1.8-4.2,4.3-4.2,1.2,0,2.3.4,3,1.2l-.5.6c-.7-.7-1.5-1-2.4-1-2,0-3.4,1.5-3.5,3.4,0,2,1.4,3.5,3.4,3.5.8,0,1.5-.2,2.1-.6v-2.8Z"/>
                <path d="M294.5,340.4v8.4s-.7,0-.7,0l-5.1-6.8v6.8s-.9,0-.9,0v-8.4s.7,0,.7,0l5.1,6.8v-6.8s.9,0,.9,0Z"/>
                <path d="M300,345.2v-4.8s.9,0,.9,0v4.8c0,2,.9,2.9,2.4,2.9,1.6,0,2.5-.9,2.5-2.9v-4.8s.8,0,.8,0v4.8c0,2.4-1.3,3.6-3.3,3.6-2.1,0-3.3-1.3-3.3-3.7Z"/>
                <path d="M315.5,343.3c0,1.8-1.3,2.8-3.3,2.8h-2.2s0,2.6,0,2.6h-.8s0-8.4,0-8.4h3c2,0,3.3,1.1,3.3,2.9ZM314.6,343.3c0-1.3-.8-2.1-2.4-2.1h-2.1s0,4.2,0,4.2h2.1c1.6,0,2.5-.7,2.5-2.1Z"/>
              </g>
            </g>
          </g>
        </g>
        <g>
          <g>
            <rect class="st48" x="237.4" y="101.4" width="6.8" height="37.1" transform="translate(119.9 360.2) rotate(-89.7)"/>
            <g class="st5">
              <rect class="st48" x="237.4" y="101.4" width="6.8" height="37.1" transform="translate(119.9 360.2) rotate(-89.7)"/>
            </g>
          </g>
          <path class="st40" d="M368,158.3s.3,0,.9-.2c.5-.2,1.3-.8,1.4-1.9,0-2.3,0-5.6,0-9.9v-9.2c0-.7,0-1.4-.4-1.9-.4-.5-1-.9-1.7-.9h-2.3c-6.1,0-13.1,0-20.8,0-30.9-.1-73.5-.3-120.5-.4-.6,0-1.2.3-1.6.8-.4.5-.4,1.1-.4,1.9,0,1.5,0,2.9,0,4.4,0,2.9,0,5.8,0,8.7,0,1.4,0,2.9,0,4.3,0,.7,0,1.5,0,2,.1.6.6,1.1,1.1,1.3.3.1.6.2.9.1h3.2c1.4,0,2.8,0,4.2,0,11.1,0,21.8.1,32,.2,20.4.1,38.7.2,54.2.3,15.4.1,27.9.2,36.5.3,4.3,0,7.6,0,9.9.1,1.1,0,2,0,2.6,0,.6,0,.9,0,.9,0,0,0-.3,0-.9,0-.6,0-1.5,0-2.6,0-2.3,0-5.6,0-9.9,0-8.6,0-21.1,0-36.5,0-15.4,0-33.8-.1-54.2-.2-10.2,0-20.9,0-32-.1-1.4,0-2.8,0-4.2,0h-3.2c-.4,0-.8,0-1.2-.2-.8-.3-1.4-1-1.6-1.8-.1-.4,0-.8,0-1.1v-1.1c0-1.4,0-2.9,0-4.3,0-2.9,0-5.8,0-8.7,0-1.4,0-2.9,0-4.4,0-.4,0-.7,0-1.1,0-.4.2-.8.5-1.2.5-.7,1.3-1.1,2.2-1.1,47,.3,89.6.5,120.5.7,7.7,0,14.7.1,20.8.1.8,0,1.5,0,2.3,0,.8,0,1.6.4,2,1.1.5.6.5,1.5.5,2.1,0,.7,0,1.4,0,2,0,2.6,0,5,0,7.2,0,4.3,0,7.6-.1,9.9-.1,1.2-1,1.8-1.5,2-.6.2-.9.1-.9.1h0Z"/>
          <g>
            <rect class="st48" x="237.2" y="163.4" width="6.8" height="37" transform="translate(57.6 421.6) rotate(-89.7)"/>
            <g class="st5">
              <rect class="st48" x="237.2" y="163.4" width="6.8" height="37" transform="translate(57.6 421.6) rotate(-89.7)"/>
            </g>
          </g>
          <path class="st40" d="M367,220.3s.3,0,.9-.2c.5-.2,1.4-.6,1.8-1.6.2-.5.3-1.1.2-1.8v-2.3c0-1.7,0-3.6,0-5.7v-9.1c0-.7,0-1.3-.4-1.9-.4-.6-.9-1-1.6-1.2-.6-.2-1.4,0-2.2-.1-6.1,0-13.1,0-20.7,0-30.8-.1-73.2-.3-120.1-.4-1.3,0-2.5,1-2.6,2.3,0,1.4,0,2.9,0,4.3,0,2.9,0,5.8,0,8.6,0,1.4,0,2.9,0,4.3,0,.7,0,1.4,0,2,.2.6.5,1.1,1.1,1.5.5.4,1.1.5,1.8.5h2.1c1.4,0,2.8,0,4.2,0,11.1,0,21.7.1,31.9.2,20.3.1,38.6.2,54,.3,15.3.1,27.8.2,36.4.3,4.3,0,7.6,0,9.9.1,1.1,0,2,0,2.6,0,.6,0,.9,0,.9,0,0,0-.3,0-.9,0-.6,0-1.5,0-2.6,0-2.3,0-5.6,0-9.9,0-8.6,0-21,0-36.4,0-15.4,0-33.7-.1-54-.2-10.2,0-20.8,0-31.9-.1-1.4,0-2.8,0-4.2,0h-2.1c-.7,0-1.6-.1-2.2-.6-.6-.4-1.1-1.1-1.4-1.9-.2-.8,0-1.5-.1-2.2,0-1.4,0-2.8,0-4.3,0-2.9,0-5.7,0-8.6,0-1.5,0-2.9,0-4.4.2-1.7,1.7-3,3.4-3,46.9.3,89.3.5,120.1.7,7.7,0,14.6.1,20.7.1.8,0,1.5,0,2.3.2.8.2,1.4.8,1.8,1.4.4.6.5,1.4.5,2.1,0,.7,0,1.4,0,2,0,2.6,0,5,0,7.1,0,2.1,0,4.1,0,5.7,0,.8,0,1.6,0,2.3,0,.7,0,1.4-.3,1.9-.5,1.1-1.4,1.5-1.9,1.6-.6.1-.9,0-.9,0h0Z"/>
          <g>
            <rect class="st48" x="236.9" y="228.1" width="6.8" height="37.1" transform="translate(-7.4 485.8) rotate(-89.7)"/>
            <g class="st5">
              <rect class="st48" x="236.9" y="228.1" width="6.8" height="37.1" transform="translate(-7.4 485.8) rotate(-89.7)"/>
            </g>
          </g>
          <path class="st40" d="M366.8,285s.3,0,.9-.2c.5-.2,1.4-.6,1.8-1.6.2-.5.3-1.1.2-1.8v-17.1c0-.7,0-1.3-.4-1.9-.4-.6-.9-1-1.6-1.2-.6-.2-1.4,0-2.2-.1-6.1,0-13.1,0-20.7,0-30.8-.1-73.2-.3-120.1-.4-1.3,0-2.5,1-2.6,2.3,0,1.4,0,2.9,0,4.3,0,2.9,0,5.8,0,8.6,0,1.4,0,2.9,0,4.3,0,.7,0,1.4,0,2,.2.6.5,1.1,1.1,1.5.5.4,1.1.5,1.8.5h2.1c1.4,0,2.8,0,4.2,0,11.1,0,21.7.1,31.9.2,20.3.1,38.6.2,54,.3,15.4.1,27.8.2,36.4.3,4.3,0,7.6,0,9.9.1,1.1,0,2,0,2.6,0,.6,0,.9,0,.9,0,0,0-.3,0-.9,0-.6,0-1.5,0-2.6,0-2.3,0-5.6,0-9.9,0-8.6,0-21,0-36.4,0-15.4,0-33.7-.1-54-.2-10.2,0-20.8,0-31.9-.1-1.4,0-2.8,0-4.2,0h-2.1c-.7,0-1.6-.1-2.2-.6-.6-.5-1.1-1.1-1.4-1.9-.2-.8,0-1.5-.1-2.2,0-1.4,0-2.8,0-4.3,0-2.9,0-5.7,0-8.6,0-1.5,0-2.9,0-4.4.2-1.7,1.7-3,3.4-3,46.9.3,89.3.5,120.1.7,7.7,0,14.6.1,20.7.1.8,0,1.5,0,2.3.2.8.2,1.4.8,1.8,1.4.4.6.5,1.4.5,2.1,0,.7,0,1.4,0,2,0,2.6,0,5,0,7.1s0,4,0,5.7c0,.8,0,1.6,0,2.3,0,.7,0,1.4-.3,1.9-.5,1.1-1.4,1.5-1.9,1.6-.6.1-.9,0-.9,0h0Z"/>
          <g>
            <g>
              <path class="st48" d="M238.1,273.3c0,1.7-1.3,3.1-3,3.1s-3-1.4-2.9-3.2c0-1.7,1.3-3.1,3-3.1s3,1.4,2.9,3.2Z"/>
              <path class="st48" d="M247.3,273.3c0,1.7-1.3,3.1-3,3.1s-3-1.4-2.9-3.2c0-1.7,1.3-3.1,3-3.1s3,1.4,2.9,3.2Z"/>
              <path class="st48" d="M256.5,273.4c0,1.7-1.3,3.1-3,3.1s-3-1.4-2.9-3.2c0-1.7,1.3-3.1,3-3.1s3,1.4,2.9,3.2Z"/>
              <path class="st48" d="M265.7,273.4c0,1.7-1.3,3.1-3,3.1s-3-1.4-3-3.2c0-1.7,1.3-3.1,3-3.1s3,1.4,3,3.2Z"/>
              <path class="st48" d="M274.9,273.4c0,1.8-1.3,3.1-3,3.1s-3-1.4-3-3.2c0-1.8,1.3-3.1,3-3.1s3,1.4,3,3.2Z"/>
              <path class="st48" d="M284,273.5c0,1.8-1.3,3.1-3,3.1s-3-1.4-3-3.2c0-1.8,1.3-3.1,3-3.1s3,1.4,3,3.2Z"/>
              <path class="st48" d="M293.2,273.5c0,1.8-1.3,3.1-3,3.1s-3-1.4-3-3.2c0-1.8,1.3-3.1,3-3.1s3,1.4,3,3.2Z"/>
              <path class="st48" d="M302.4,273.6c0,1.8-1.3,3.1-3,3.1s-3-1.4-3-3.2c0-1.7,1.3-3.1,3-3.1s3,1.4,3,3.2Z"/>
              <path class="st48" d="M311.6,273.6c0,1.7-1.3,3.1-3,3.1s-3-1.4-3-3.2c0-1.7,1.3-3.1,3-3.1s3,1.4,3,3.2Z"/>
            </g>
            <g class="st34">
              <path class="st48" d="M238.1,273.3c0,1.7-1.3,3.1-3,3.1s-3-1.4-2.9-3.2c0-1.7,1.3-3.1,3-3.1s3,1.4,2.9,3.2Z"/>
              <path class="st48" d="M247.3,273.3c0,1.7-1.3,3.1-3,3.1s-3-1.4-2.9-3.2c0-1.7,1.3-3.1,3-3.1s3,1.4,2.9,3.2Z"/>
              <path class="st48" d="M256.5,273.4c0,1.7-1.3,3.1-3,3.1s-3-1.4-2.9-3.2c0-1.7,1.3-3.1,3-3.1s3,1.4,2.9,3.2Z"/>
              <path class="st48" d="M265.7,273.4c0,1.7-1.3,3.1-3,3.1s-3-1.4-3-3.2c0-1.7,1.3-3.1,3-3.1s3,1.4,3,3.2Z"/>
              <path class="st48" d="M274.9,273.4c0,1.8-1.3,3.1-3,3.1s-3-1.4-3-3.2c0-1.8,1.3-3.1,3-3.1s3,1.4,3,3.2Z"/>
              <path class="st48" d="M284,273.5c0,1.8-1.3,3.1-3,3.1s-3-1.4-3-3.2c0-1.8,1.3-3.1,3-3.1s3,1.4,3,3.2Z"/>
              <path class="st48" d="M293.2,273.5c0,1.8-1.3,3.1-3,3.1s-3-1.4-3-3.2c0-1.8,1.3-3.1,3-3.1s3,1.4,3,3.2Z"/>
              <path class="st48" d="M302.4,273.6c0,1.8-1.3,3.1-3,3.1s-3-1.4-3-3.2c0-1.7,1.3-3.1,3-3.1s3,1.4,3,3.2Z"/>
              <path class="st48" d="M311.6,273.6c0,1.7-1.3,3.1-3,3.1s-3-1.4-3-3.2c0-1.7,1.3-3.1,3-3.1s3,1.4,3,3.2Z"/>
            </g>
          </g>
        </g>
      </g>
      <g>
        <path class="st26" d="M125.3,397.4c-10.7,14.8-18.8,40.1-25,69.5-.4,1.9-5.1,36.1-3.2,36.7,39.4,12.4,42.2,12.4,68.6,14.1,6.7.4,34.9,0,54.4-.5,1.7,0,3.1-1.2,3.1-2.8-2.4-44.5-6.6-98.1-6.6-98.1l-91.3-18.7h0Z"/>
        <path d="M223.2,514.8c-.3,0-.5-.2-.6-.5-2.3-41.9-6.2-92.5-6.6-97.6l-90.5-18.5c-9.6,13.4-17.9,36.6-24.7,69-.6,2.8-4.6,33.7-3.4,36.1.2.1.3.4.2.6,0,.3-.4.5-.7.4-.7-.2-1.6-.5.3-18.4.9-8.6,2.2-17.8,2.4-18.9,6.9-32.7,15.4-56.1,25.1-69.7.1-.2.3-.3.6-.2l91.3,18.7c.2,0,.4.3.4.5,0,.5,4.2,54.1,6.6,98.1,0,.3-.2.6-.5.6h0Z"/>
        <g>
          <g>
            <path class="st26" d="M239.3,286.8s24.7,16.6,36.2,13.5c16.2-4.4,23.4-45.7,24.1-49.4.7-3.7,3.8-22.3,7.1-29.2,3-6.5,4.9-13.2,5.9-17.3.6-2.5,2.3-3.7,4-3.4,1.5.2,2.4,1.4,1.6,5.1-1,4.3-1.8,8.6-2.6,12.2-.2,1.1-.7,2.2.1,1.4,1.9-1.9,4.9-4,8-5.1,1.4-.4,12.1-12.1,15-10.7,2.6,1.3-12,17.2-11.4,19.2,1.4,4.7.6,11-1.7,16.7-3.9,9.7-10.1,8.6-11.2,13.1-1.1,4.5-6.7,62.3-11.2,72.9-6.5,15.2-68.3,4.1-68.3,4.1l4.5-43h0Z"/>
            <path d="M275.5,334.4c-18.5,0-39.3-3.7-40.8-3.9-.3,0-.5-.3-.5-.6l4.5-43c0-.2.1-.4.3-.5.2,0,.4,0,.6,0,.2.2,24.6,16.4,35.7,13.4,13.9-3.8,21.1-35.1,23.6-48.5v-.5c.2-.4.3-1,.4-1.8,1.1-5.8,3.9-21.4,6.8-27.6,3-6.3,4.8-12.8,5.8-17.2.6-2.6,2.5-4.2,4.6-3.8.8.1,1.4.5,1.8,1.1.6.9.7,2.5.2,4.7-.6,2.7-1.1,5.4-1.7,7.9-.3,1.5-.6,2.9-.9,4.3,0,0,0,0,0,.1,1.8-1.6,4.5-3.4,7.4-4.4.3-.1,1.9-1.5,3.2-2.7,5.4-5,10.1-9,12.2-7.9.3.1.5.4.6.7.4,1.6-2.3,5.3-6.7,11.3-2.1,2.9-5,6.7-5,7.5,1.4,4.5.8,10.9-1.7,17-2.3,5.7-5.5,7.9-7.8,9.4-1.7,1.1-2.9,1.9-3.3,3.7-.3,1.3-1,7.2-1.9,14.8-2.3,18.9-6.1,50.6-9.3,58.2-2.7,6.5-14.8,8.4-28.2,8.4h0ZM235.4,329.4c6,1,61.3,10,67.2-3.9,3.2-7.4,6.9-39,9.2-57.9.9-7.9,1.6-13.5,1.9-14.9.5-2.1,2-3.2,3.8-4.3,2.3-1.6,5.2-3.5,7.4-8.9,2.4-5.9,3-12,1.6-16.3-.3-1,1.2-3.1,5.2-8.5,2.6-3.5,7-9.4,6.5-10.4-1.6-.8-7.9,5-10.9,7.8-2.1,1.9-3.1,2.8-3.6,3-3.2,1.1-6.2,3.3-7.8,4.9-.2.2-.6.6-1.1.4-.5-.3-.3-.8-.1-1.6,0-.2.1-.5.2-.8.3-1.4.6-2.8.9-4.3.5-2.6,1.1-5.2,1.7-7.9.4-1.8.4-3.1,0-3.8-.2-.3-.6-.5-1.1-.6-1.5-.2-2.8,1-3.3,3-1,4.4-2.9,11-5.9,17.4-2.8,6.1-5.6,21.5-6.7,27.3-.1.8-.2,1.4-.3,1.8v.5c-2.6,13.5-10,45.4-24.5,49.4-1,.3-2.2.4-3.4.4-11.2,0-28.6-10.9-32.5-13.5l-4.4,41.6h0Z"/>
          </g>
          <path class="st18" d="M135.5,264.4c29.7-13.3,87.2-10.5,127.5,32.8,4.7,5.1-8.9,43.5-21.2,40.8-10.8-2.3-19.6-5-20.4,1.2-1.1,8.6,6.6,77.8-4.7,97.3-20.1,34.9-80.2,29.6-111.1,12.7-8.2-4.5.4-16.8,6.4-57.1,4.5-30,7.1-54.9,1.5-45.3-2.7,4.7-31.1-23.6-28.2-32,6.5-18.5,17.9-36,50-50.3h0Z"/>
          <path class="st18" d="M293,254.6l23.8,3.2c1.6,54.9-3.6,94.3-75,80.1l9.6-51c26.6,18.6,36.5-4,41.6-32.3h0Z"/>
          <path class="st18" d="M92.1,301c-34.7,50.5-14.8,153.6,32.3,154.4l-1.2-44.6c-3.9-5-5.9-54.2,1.5-69.8l-32.6-40Z"/>
          <path class="st26" d="M103.6,448.1s0,0-.2,0c-.3,0-.5-.4-.4-.7,7-25.2,10.9-65.4,12.2-94.7,0-.3.3-.5.6-.5.3,0,.6.3.5.6-1.3,29.4-5.2,69.7-12.3,95,0,.2-.3.4-.5.4h0Z"/>
        </g>
        <g>
          <g>
            <path class="st26" d="M153.5,259.8c.3-1.2,12-10.9,8.9-32.7,0,0-15.8-21.5-11-31,4.8-9.5,4.4-23.5,20.6-23.6,16.2-.1,25.7,7.1,29.4,16.6s4.7,18.9,5.1,24.4c.2,4.1-.3,13.1-.6,17.6-.1,1.5-1.2,2.8-2.6,3.2l-4.9,1.4c-1.6.4-2.7,1.9-2.6,3.6l.2,8.7c.8,21.3-6.1,18.4-11.2,19.5-12.9,2.9-32.9-1.4-31.2-7.6h0Z"/>
            <path d="M175.3,269c-8.8,0-17.9-2.2-21.2-5.6-1.1-1.1-1.5-2.4-1.2-3.7,0-.3.4-.6.9-1.3,2.6-3.2,10.5-12.8,8-31-1.4-1.9-15.8-22-11-31.5,1.1-2.2,2-4.8,2.8-7.3,2.7-8.1,5.6-16.5,18.2-16.6,14.7-.1,25.6,6.1,29.9,16.9,2.8,7.1,4.5,15.3,5.1,24.5.2,4-.3,12.8-.6,17.6-.1,1.8-1.3,3.3-3,3.7l-4.9,1.4c-1.3.4-2.3,1.6-2.2,3l.2,8.7c.7,18.7-4.7,19.3-9.4,19.8-.8,0-1.5.2-2.2.3-2.9.7-6.2,1-9.5,1h0ZM154,260c-.2.9,0,1.7.9,2.6,4.2,4.4,19.4,6.6,29.6,4.3.8-.2,1.6-.3,2.4-.3,4.4-.5,9-.9,8.4-18.6l-.2-8.7c0-1.9,1.2-3.6,3.1-4.1l4.9-1.4c1.2-.4,2.1-1.4,2.2-2.7.3-4.8.8-13.6.6-17.5-.6-9.1-2.3-17.2-5-24.2-4.1-10.4-14.6-16.3-28.9-16.2-11.9,0-14.4,7.7-17.2,15.9-.9,2.5-1.7,5.1-2.9,7.5-4.6,9.1,10.8,30.2,11,30.4,0,0,0,.2.1.2,2.6,18.8-5.6,28.7-8.2,32-.3.4-.6.8-.7.9h0Z"/>
          </g>
          <path class="st18" d="M195.9,203.7c2-.8,3.2-2.7,3.3-4.8,0-2.5-1.5-8.4,2.2-9.7,10-3.6,6.1-15.6.2-20-5.9-4.4-29.1-11.8-40.9-5.4,0,0-4.6,3.9-3.6,7.8,0,0-9.4.3-11.5,7.2-2.2,6.9-5.9,32.4,17.4,51.6,0,0,6,.7,12.7-1.1,3.9-1,6.7-4.4,7.3-8.4.8-6.1,3.3-15.5,5-18.3,0,0-1.1-4.3,1.4-5.4,1.6-.7,3.5,1.1,4.4,2.6l2.2,4h0Z"/>
          <path d="M205.2,233.2h0c0,0-8.8-1.6-10.8-11,0-.3.1-.6.4-.7.3,0,.6.1.7.4,1.9,8.7,9.8,10.1,9.9,10.1.3,0,.5.3.5.6,0,.3-.3.5-.6.5h0Z"/>
          <path d="M194.2,213.3h0c-.3,0-7.3-.3-9.2-12.7,0-.3.2-.6.5-.6.3,0,.6.2.6.5,1.7,11.4,7.8,11.8,8.1,11.8.3,0,.6.3.5.6,0,.3-.3.6-.6.6h0Z"/>
        </g>
      </g>
    </g>
    <g>
      <g>
        <path class="st12" d="M265.3,66.4h12.5l-7.3,12.9h6.9v3.5h-13.2l7.4-12.9h-6.2v-3.5h0Z"/>
        <path class="st12" d="M294.9,75.8h-13.2c.2,1.2.7,2.1,1.5,2.8.8.7,1.9,1,3.2,1s2.9-.5,4-1.6l3.5,1.6c-.9,1.2-1.9,2.1-3.1,2.7-1.2.6-2.6.9-4.3.9-2.6,0-4.6-.8-6.3-2.4-1.6-1.6-2.4-3.6-2.4-6.1s.8-4.6,2.4-6.2c1.6-1.7,3.6-2.5,6-2.5s4.7.8,6.3,2.5c1.6,1.7,2.4,3.8,2.4,6.5v.8s0,0,0,0ZM290.8,72.6c-.3-.9-.8-1.7-1.6-2.2-.8-.6-1.7-.9-2.8-.9s-2.1.3-3,1c-.5.4-1,1.1-1.5,2.1h8.9,0Z"/>
        <path class="st12" d="M296.5,66.4h4.1v1.7c.9-.8,1.8-1.3,2.5-1.6s1.5-.5,2.3-.5c1.6,0,3,.6,4.1,1.7,1,1,1.4,2.4,1.4,4.3v10.8h-4v-7.2c0-1.9,0-3.2-.3-3.9s-.5-1.1-.9-1.5c-.4-.3-1-.5-1.6-.5s-1.5.3-2.1.8c-.6.6-1,1.3-1.2,2.3-.1.5-.2,1.6-.2,3.3v6.6h-4.1v-16.3h0Z"/>
        <path class="st12" d="M329.3,69.7l-3.4,1.9c-.6-.7-1.3-1.1-1.9-1.4-.6-.3-1.4-.4-2.2-.4-1.5,0-2.8.5-3.7,1.4s-1.4,2.1-1.4,3.5.5,2.5,1.4,3.4c.9.9,2.1,1.3,3.6,1.3s3.3-.6,4.3-1.9l3.2,2.2c-1.8,2.3-4.2,3.4-7.4,3.4s-5.1-.8-6.8-2.6c-1.6-1.7-2.4-3.7-2.4-6s.4-3,1.2-4.4,1.9-2.4,3.3-3.1c1.4-.8,3-1.1,4.8-1.1s3.1.3,4.4,1,2.4,1.6,3.2,2.8h0Z"/>
        <path class="st12" d="M329.3,66.4h4.2l4.2,10.2,4.7-10.2h4.2l-10.2,22.3h-4.2l3.4-7.2-6.2-15.1h0Z"/>
      </g>
      <g>
        <path class="st12" d="M249.6,83.2h0c-.5,0-.9-.2-1.2-.7l-11.4-18.6c-.8-1.3-.8-2.8,0-4.1s2-2.1,3.5-2.1h18.3c1.5,0,2.8.8,3.5,2.1s.7,2.8,0,4.1l-1.2-.7,1.2.7-11.4,18.6c-.2.4-.7.7-1.2.7h0ZM240.5,60.6c-.7,0-1,.5-1.1.7-.1.2-.3.7,0,1.3l10.3,16.7,10.3-16.7h0c.4-.6.1-1.1,0-1.3-.1-.2-.5-.7-1.1-.7h-18.3,0Z"/>
        <path class="st12" d="M258.8,91.3h-18.3c-1.5,0-2.8-.8-3.5-2.1s-.7-2.8,0-4.1h0l11.4-18.6c.2-.4.7-.7,1.2-.7h0c.5,0,.9.2,1.2.7l11.4,18.6c.8,1.3.8,2.8,0,4.1s-2,2.1-3.5,2.1ZM239.4,86.6c-.4.6-.1,1.1,0,1.3s.4.7,1.1.7h18.3c.7,0,1-.5,1.1-.7.1-.2.3-.7,0-1.3l-10.3-16.7-10.3,16.7h0Z"/>
      </g>
    </g>
  </g>
</svg>