<?xml version="1.0" encoding="UTF-8"?>
<svg id="Layer_2" data-name="Layer 2" xmlns="http://www.w3.org/2000/svg" viewBox="0 0 497.64 104.73">
  <defs>
    <style>
      .cls-1, .cls-2, .cls-3 {
        stroke-width: 0px;
      }

      .cls-2 {
        fill: #fff;
      }

      .cls-3 {
        fill: #66f;
      }
    </style>
  </defs>
  <g id="Layer_2-2" data-name="Layer 2">
    <path class="cls-3" d="m32.51,51.22c-5.61,5.72-10.58,12.49-14.03,19.96-3.67,7.94-7.66,17.39-2.59,25.56s15.32,8.17,23.42,6.54,15.11-5.95,21.26-11.79l-19.32-8.64c0,3.15-.11,6.42-.22,9.57-.22,7.7,7.45,14.24,14.35,11.79,12.52-4.32,22.34-12.37,30.33-23.57,3.02-4.2,1.51-11.32-1.73-14.82-3.56-3.85-9.39-4.55-13.71-1.87-7.01,4.32-9.5,13.19-6.91,21.24,3.13,9.57,12.3,13.42,21.15,12.37,14.57-1.87,28.6-10.74,38.31-22.41,7.12-8.4.32-24.74-11.01-20.54-8.09,3.03-13.27,11.9-10.68,21.24,2.27,8.4,9.71,12.95,17.27,14.12,14.14,2.22,28.82-3.62,38.2-15.29,8.42-10.39-2.05-25.91-13.71-19.26-14.14,8.05-9.61,31.51,4.53,36.41,8.2,2.8,16.73-.23,23.31-5.6,5.18-4.2,8.96-10.62,14.79-13.65l-16.62-13.89c-4.96,13.3,4.96,26.37,16.08,30.69,5.94,2.33,12.3,1.75,18.35.35,3.89-.82,11.87-4.43,14.46-3.38l-4.96-3.15c1.73,1.63,3.02,4.9,4.86,6.89,2.48,2.57,5.72,4.32,9.07,5.13,6.37,1.63,13.06.12,19.1-1.98,13.38-4.67,25.36-12.37,35.83-22.41l-18.89-11.9c-3.35,10.27-2.27,23.34,8.2,28.24,11.01,5.13,23.96-4.9,33.67-9.8-5.5-4.55-11.12-9.22-16.62-13.89-.97,2.92-2.05,5.95-3.02,8.87-3.02,8.99,6.15,17.51,13.92,15.05,5.94-1.87,11.66-4.32,17.16-7.35-5.5-4.55-11.12-9.22-16.62-13.89-1.4,4.78-3.56,9.34-6.58,13.19s-4.32,8.52-2.37,13.42c1.73,4.2,5.83,7.94,10.36,7.47,6.91-.58,13.06-2.45,19.32-5.49,2.48-1.17,4.86-2.45,7.23-3.85,1.3-.7,2.7-1.52,3.99-2.33l1.62-.93c3.24-1.4,1.94-1.87-3.67-1.17l-4.1-4.43.32.82-1.19-9.45-.22.82,2.91-5.37,3.02-1.63h6.04l-.54-.23c2.59,2.8,5.29,5.72,7.88,8.52l-.22-.7c-1.73,4.55-3.45,9.22-5.18,13.89,17.16-11.9,35.51-21.12,55.04-27.54-3.67-6.77-7.34-13.65-11.01-20.42-6.37,6.54-12.84,12.95-19.21,19.49-9.71,9.8,2.59,25.56,13.71,19.26,7.77-4.32,15.65-8.05,23.85-11.2-4.32-5.95-8.53-12.02-12.84-17.97-3.45,8.05-7.88,14.7-14.03,20.54-8.2,7.82.43,24.86,11.01,20.42,10.58-4.43,20.51-8.52,30.76-12.84-3.67-6.77-7.34-13.65-11.01-20.42-7.01,8.05-14.14,16.1-21.26,24.04-9.17,10.39,2.37,25.21,13.71,19.26,15.11-7.82,30.11-15.64,45.22-23.46-4.53-6.42-9.17-12.84-13.71-19.26-4.53,5.72-9.61,10.97-15,15.64-8.63,7.59.65,24.74,11.01,20.54,13.27-5.49,26.44-10.97,39.72-16.46-4.32-5.95-8.53-12.02-12.84-17.97-3.35,5.37-7.55,10.39-12.3,14.35-3.67,3.03-6.15,6.89-5.4,12.25.65,4.43,3.67,9.34,8.09,10.15,6.37,1.17,12.2,1.28,18.45-.23,12.73-2.92,9.5-24.04-3.02-24.04-20.4,0-40.69-.23-61.08-.23-9.28,0-18.89-.7-28.17,0-9.28.7-17.16,3.73-21.8,12.49-2.81,5.25-1.51,12.14,2.91,15.87,4.1,3.38,11.22,3.85,14.89-.93,2.59-3.38,5.18-6.89,7.77-10.27,6.48-8.52,2.05-19.84-7.99-20.89-18.35-2.1-37.02-1.05-55.36-.93-18.35.12-37.23.12-55.8.23-18.56.12-36.37.47-54.5,2.68-9.17,1.17-18.13,2.8-27.2,4.78-8.53,1.87-16.84,3.73-25.47,3.15-18.67-1.28-35.61-11.55-54.61-9.69l10.9,15.52c2.16-7.59,3.13-15.52,2.7-23.46-.32-5.95-4.96-13.19-11.33-12.25-16.73,2.45-33.56,3.97-50.51,4.9l5.72,22.87c1.83-1.4.97-.23,0-.47.43,0,1.3.12,1.62.47,1.62,1.05,3.24,2.22,4.86,3.38,4.53,3.27,9.5,6.07,14.89,7.12,10.9,2.33,21.8.23,32.59-2.57,22.12-5.72,43.6-14,64.97-22.29-3.67-6.77-7.34-13.65-11.01-20.42l-8.2,9.34c-9.17,10.5,2.27,24.97,13.71,19.26,8.09-4.08,17.05-6.77,25.79-7.47,4.64-.47,9.39-.47,14.03-.12,1.83.12,3.56.35,5.4.58s3.45,1.63.32-1.28c-3.45-3.27-1.19.82,0,2.92,5.29,9.8,18.99,10.97,28.28,11.09,5.29,0,10.58-.7,15.76-1.98s9.82-3.73,14.79-4.55c8.63-1.4,17.59,3.62,26.12,5.02,11.22,1.87,22.12,0,33.24-2.1,20.61-4.08,41.12-6.54,61.95-3.85,24.07,3.03,47.16,9.22,71.44,4.9,6.04-1.05,9.39-9.22,7.88-15.05-1.73-6.89-7.88-9.57-13.92-8.52-19.43,3.38-39.18-1.98-58.39-4.9-20.83-3.03-41.01-2.22-61.73,1.28-9.71,1.63-19.53,4.43-29.35,4.67-8.74.23-16.62-3.5-25.15-5.13-11.01-2.1-19.53.7-30,3.85-4.21,1.28-8.2,1.87-12.63,1.87-2.27,0-4.53-.12-6.8-.58-1.3-.23-2.59-.58-3.89-.93-1.94-.58-1.83-.58.11,0l2.91,5.37c-3.02-7.94-5.61-13.77-14.03-15.64-7.01-1.63-14.57-2.1-21.69-1.87-14.68.58-28.71,4.55-41.98,11.2,4.53,6.42,9.17,12.84,13.71,19.26l8.2-9.34c7.34-8.4.22-24.74-11.01-20.42-22.02,8.4-44.14,17.04-67.02,22.76-8.53,2.1-17.91,4.2-25.69-1.05-9.5-6.42-20.83-13.3-31.51-4.9-4.1,3.27-6.58,8.17-5.18,13.89,1.3,5.02,5.94,9.22,10.9,8.99,16.84-.93,33.67-2.57,50.51-4.9l-11.33-12.25c.32,5.95-.22,11.32-1.83,17.04-2.05,7.12,3.67,16.22,10.9,15.52,16.19-1.52,31.19,6.3,47.05,8.75,18.56,2.92,35.94-3.03,54.18-6.07,35.83-5.95,72.95-3.62,109.11-3.85,20.83,0,42.09-1.4,62.81.93-2.7-7-5.4-13.89-7.99-20.89-2.59,3.38-5.18,6.89-7.77,10.27,5.94,4.9,11.87,9.92,17.81,14.82-.11.23-.65.47-.86.47-.54,0,3.78-.93,2.48-.7,3.45-.58,7.12-.12,10.58-.12,8.96,0,17.81,0,26.76.12,17.48,0,34.97.23,52.56.23l-3.02-24.04c-2.16.47-4.32.58-6.48.23l2.7,22.41c8.09-6.65,14.68-14,20.4-23.11,5.4-8.4-3.67-21.82-12.84-17.97-13.27,5.49-26.44,10.97-39.72,16.46,3.67,6.77,7.34,13.65,11.01,20.54,5.4-4.78,10.47-9.92,15-15.64,8.53-10.62-2.05-25.32-13.71-19.26-15.11,7.82-30.11,15.64-45.22,23.46,4.53,6.42,9.17,12.84,13.71,19.26,7.01-8.05,14.14-16.1,21.26-24.04,7.23-8.17.11-25.09-11.01-20.54-10.25,4.32-20.51,8.52-30.76,12.84,3.67,6.77,7.34,13.65,11.01,20.42,7.45-7,13.49-15.75,17.59-25.44,1.94-4.55,2.16-9.45-.86-13.65-2.7-3.62-7.55-6.07-11.87-4.43-10.04,3.85-19.75,8.4-29.25,13.65,4.53,6.42,9.17,12.84,13.71,19.26,6.37-6.54,12.84-12.95,19.21-19.49,8.2-8.29-.32-24.04-11.01-20.42-21.26,7-41.66,17.04-60.44,29.99-4.1,2.8-6.8,8.52-5.18,13.89,2.81,9.34,12.73,13.07,19.97,6.54s6.48-18.21-1.83-23.34c-12.73-7.94-26.33,9.92-38.96,11.09,2.7,7,5.4,13.89,7.99,20.89,5.61-7.24,9.71-14.94,12.41-24.04,3.24-10.85-8.31-18.44-16.62-13.89-3.78,2.1-7.66,3.62-11.76,4.9,4.64,5.02,9.28,10.04,13.92,15.05.97-2.92,2.05-5.95,3.02-8.87,3.78-10.97-8.63-17.86-16.62-13.89-4.53,2.33-10.58,4.2-14.68,7.35-.43.35-.97.47-1.4.58,3.56.58,5.72,2.22,6.48,5.13-.22.23.76-3.15,1.08-3.85,3.99-12.37-11.12-19.37-18.89-11.9-6.15,5.84-13.17,10.74-20.83,14.12-3.24,1.52-8.09,3.38-11.01,3.73-1.51-.23-1.83-.12-1.08.23-1.83-.7-1.73-.35.43.7-.65-1.28-1.4-2.8-2.37-4.2-7.55-9.92-19.1-6.07-29.03-3.27-3.13.93-7.45,2.57-10.14,1.05-.32-.12-1.4-.93-1.19-.82-.97-1.98-.97-1.63-.22.93-.22.93,0,.7.43-.93,1.62-4.43-.86-10.27-4.1-12.84-3.78-3.15-8.31-3.27-12.63-.93-6.69,3.5-10.68,9.8-16.19,14.7-.76.7-2.59,1.52-3.02,2.1-.97,1.28-1.3-1.52.22.93.86,1.4,1.51.7,1.83,2.57.22,1.63-1.3,4.2-2.48,4.9-4.53-6.42-9.17-12.84-13.71-19.26-3.02,3.73-6.48,6.54-11.01,7.94-1.94.58-3.67.82-5.72.82-.43,0-2.48-.23-2.37-.23l-1.4-.47c3.24,1.63,3.89,5.02,1.62,10.04l-4.96,3.15,1.08-.35c-3.67-6.77-7.34-13.65-11.01-20.54-4.21,5.02-8.85,8.99-14.46,11.9-2.48,1.28-4.96,2.22-7.66,2.92-.54.12-3.13.58-3.24.58h0c4.53,3.27,4.64,7.12.22,11.79l-15.54-16.81c-4.21,5.84-10.36,10.04-16.84,12.25l14.35,11.79c0-3.15.11-6.42.22-9.57.22-11.2-12.3-15.4-19.32-8.64-2.05,1.98-4.53,3.5-7.12,4.43-1.3.47-2.81.93-4.21,1.05h-1.83c-2.27-.12-2.27,0,0,.35l4.1,4.43c0,4.78.43,5.6,1.19,2.45.22-.82.54-1.63.97-2.33.86-1.98,1.94-3.97,3.02-5.84,2.16-3.73,4.86-7,7.88-10.04,10.58-10.85-5.4-28.24-16.08-17.27h0v-.23Z"/>
    <path class="cls-1" d="m2.17,5.65c-.17-.72-.64-.94-1.36-.94h-.81V0h3.61c2.12,0,3.27.51,3.74,2.46l4.12,17.98c.38,1.7.51,3.19.51,3.19h.08s.17-1.44.64-3.19L18.19.08h4.72l5.18,20.36c.47,1.74.6,3.19.6,3.19h.08s.13-1.49.51-3.19l4.17-17.98c.42-1.96,1.57-2.46,3.7-2.46h3.65v4.72h-.81c-.76,0-1.19.21-1.36.94l-6.29,24.52h-6.42l-4.59-17.08c-.51-1.91-.76-3.74-.76-3.74h-.08s-.25,1.78-.81,3.74l-4.8,17.08h-6.46L2.17,5.65Z"/>
    <path class="cls-1" d="m51.59,7.99c6.2,0,9.6,4.55,9.6,10.28,0,.64-.13,2-.13,2h-14.96c.42,3.82,3.23,5.82,6.5,5.82,3.48,0,6.08-2.42,6.08-2.42l2.25,3.74s-3.31,3.27-8.71,3.27c-7.18,0-11.64-5.18-11.64-11.35,0-6.67,4.5-11.35,11.01-11.35Zm4.08,8.54c-.08-2.59-1.87-4.38-4.08-4.38-2.76,0-4.72,1.66-5.31,4.38h9.39Z"/>
    <path class="cls-1" d="m77.52,5.52c0-.64-.34-.94-.94-.94h-1.7V0h5.14c2,0,2.89.89,2.89,2.85v7.61c0,1.06-.08,1.83-.08,1.83h.08c1.02-2.08,3.7-4.29,7.44-4.29,4.84,0,7.56,2.51,7.56,8.24v8.46c0,.59.34.94.93.94h1.7v4.55h-5.14c-2,0-2.85-.85-2.85-2.89v-9.94c0-2.63-.72-4.42-3.44-4.42s-5.06,1.87-5.87,4.5c-.25.85-.34,1.78-.34,2.8v9.94h-5.4V5.52Z"/>
    <path class="cls-1" d="m115.64,16.57h.68v-.17c0-3.1-1.23-4.25-4-4.25-.98,0-2.89.25-2.89,1.44v1.15h-5.02v-2.29c0-4.04,5.7-4.46,7.95-4.46,7.22,0,9.35,3.78,9.35,8.63v8.07c0,.59.34.94.93.94h1.7v4.55h-4.85c-2,0-2.76-1.1-2.76-2.38,0-.55.04-.93.04-.93h-.09s-1.66,3.82-6.54,3.82c-3.87,0-7.39-2.42-7.39-6.76,0-6.8,9.35-7.35,12.88-7.35Zm-4.17,9.9c2.89,0,4.93-3.06,4.93-5.69v-.51h-.94c-2.8,0-7.27.38-7.27,3.4,0,1.44,1.06,2.8,3.27,2.8Z"/>
    <path class="cls-1" d="m126.91,13.85c-.21-.55-.6-.77-1.19-.77h-.47v-4.59h3.1c1.78,0,2.63.55,3.19,2.04l4.08,11.39c.47,1.27.81,3.1.81,3.1h.08s.34-1.83.76-3.1l4.08-11.39c.55-1.49,1.45-2.04,3.19-2.04h2.89v4.59h-.51c-.59,0-.98.21-1.19.77l-6.2,16.32h-6.42l-6.2-16.32Z"/>
    <path class="cls-1" d="m159.84,7.99c6.2,0,9.6,4.55,9.6,10.28,0,.64-.13,2-.13,2h-14.96c.42,3.82,3.23,5.82,6.5,5.82,3.48,0,6.08-2.42,6.08-2.42l2.25,3.74s-3.31,3.27-8.71,3.27c-7.18,0-11.64-5.18-11.64-11.35,0-6.67,4.5-11.35,11.01-11.35Zm4.08,8.54c-.08-2.59-1.87-4.38-4.08-4.38-2.76,0-4.72,1.66-5.31,4.38h9.39Z"/>
    <path class="cls-1" d="m185.94,14.02c0-.64-.34-.94-.94-.94h-1.7v-4.59h4.97c1.91,0,2.85.89,2.85,2.42v.64c0,.47-.08.94-.08.94h.08c.94-1.83,3.27-4.5,7.65-4.5,4.8,0,7.56,2.51,7.56,8.24v8.46c0,.59.34.94.93.94h1.7v4.55h-5.14c-2.04,0-2.89-.85-2.89-2.89v-9.94c0-2.63-.68-4.42-3.4-4.42-2.89,0-5.06,1.83-5.82,4.42-.3.89-.42,1.87-.42,2.89v9.94h-5.35V14.02Z"/>
    <path class="cls-1" d="m222.96,7.99c6.63,0,11.9,4.72,11.9,11.35s-5.27,11.35-11.9,11.35-11.86-4.67-11.86-11.35,5.27-11.35,11.86-11.35Zm0,18.1c3.53,0,6.46-2.72,6.46-6.76s-2.93-6.76-6.46-6.76-6.42,2.76-6.42,6.76,2.93,6.76,6.42,6.76Z"/>
    <path class="cls-1" d="m239.83,12.79h-2.8v-4.29h2.93V2.59h5.27v5.91h4.93v4.29h-4.93v8.75c0,3.57,2.8,4.08,4.29,4.08.59,0,.98-.08.98-.08v4.72s-.68.13-1.66.13c-3.02,0-9.01-.89-9.01-8.16v-9.43Z"/>
    <path class="cls-1" d="m255.05,5.52c0-.64-.34-.94-.94-.94h-1.7V0h5.14c2,0,2.89.89,2.89,2.85v7.61c0,1.06-.08,1.83-.08,1.83h.08c1.02-2.08,3.7-4.29,7.44-4.29,4.84,0,7.56,2.51,7.56,8.24v8.46c0,.59.34.94.93.94h1.7v4.55h-5.14c-2,0-2.85-.85-2.85-2.89v-9.94c0-2.63-.72-4.42-3.44-4.42s-5.06,1.87-5.87,4.5c-.25.85-.34,1.78-.34,2.8v9.94h-5.4V5.52Z"/>
    <path class="cls-1" d="m282.59,14.02c0-.64-.34-.94-.94-.94h-1.7v-4.59h5.14c2,0,2.85.89,2.85,2.89v13.3c0,.59.34.94.94.94h1.7v4.55h-5.14c-2,0-2.85-.85-2.85-2.89v-13.26Zm.25-14.02h4.67v4.97h-4.67V0Z"/>
    <path class="cls-1" d="m295.12,14.02c0-.64-.34-.94-.94-.94h-1.7v-4.59h4.97c1.91,0,2.85.89,2.85,2.42v.64c0,.47-.08.94-.08.94h.08c.94-1.83,3.27-4.5,7.65-4.5,4.8,0,7.56,2.51,7.56,8.24v8.46c0,.59.34.94.93.94h1.7v4.55h-5.14c-2.04,0-2.89-.85-2.89-2.89v-9.94c0-2.63-.68-4.42-3.4-4.42-2.89,0-5.06,1.83-5.82,4.42-.3.89-.42,1.87-.42,2.89v9.94h-5.35V14.02Z"/>
    <path class="cls-1" d="m329.89,7.99c5.02,0,6.67,3.06,6.67,3.06h.09v-.55c0-.98.68-2,2.38-2h5.01v4.59h-1.66c-.55,0-.93.3-.93.85v14.92c0,7.44-5.78,10.24-11.43,10.24-2.72,0-5.61-.77-7.69-1.87l1.66-4.25s2.68,1.44,5.99,1.44,6.12-1.4,6.12-5.31v-1.02c0-.51.04-1.15.04-1.15h-.09c-1.27,1.83-3.14,2.8-6.03,2.8-6.2,0-9.73-5.01-9.73-10.96s3.36-10.79,9.6-10.79Zm6.33,10.84c0-4.93-2.46-6.25-5.4-6.25-3.27,0-5.06,2.38-5.06,6.03s1.91,6.59,5.4,6.59c2.59,0,5.06-1.49,5.06-6.37Z"/>
    <path class="cls-1" d="m359.81,12.79h-2.8v-4.29h2.93V2.59h5.27v5.91h4.93v4.29h-4.93v8.75c0,3.57,2.8,4.08,4.29,4.08.59,0,.98-.08.98-.08v4.72s-.68.13-1.66.13c-3.02,0-9.01-.89-9.01-8.16v-9.43Z"/>
    <path class="cls-1" d="m384.8,7.99c6.63,0,11.9,4.72,11.9,11.35s-5.27,11.35-11.9,11.35-11.86-4.67-11.86-11.35,5.27-11.35,11.86-11.35Zm0,18.1c3.53,0,6.46-2.72,6.46-6.76s-2.93-6.76-6.46-6.76-6.42,2.76-6.42,6.76,2.93,6.76,6.42,6.76Z"/>
    <path class="cls-1" d="m412.68,5.52c0-.64-.34-.94-.94-.94h-1.7V0h5.14c2,0,2.89.89,2.89,2.85v7.61c0,1.06-.08,1.83-.08,1.83h.08c1.02-2.08,3.7-4.29,7.44-4.29,4.84,0,7.56,2.51,7.56,8.24v8.46c0,.59.34.94.93.94h1.7v4.55h-5.14c-2,0-2.85-.85-2.85-2.89v-9.94c0-2.63-.72-4.42-3.44-4.42s-5.06,1.87-5.87,4.5c-.25.85-.34,1.78-.34,2.8v9.94h-5.4V5.52Z"/>
    <path class="cls-1" d="m440.22,14.02c0-.64-.34-.94-.93-.94h-1.7v-4.59h5.14c2,0,2.85.89,2.85,2.89v13.3c0,.59.34.94.94.94h1.7v4.55h-5.14c-2,0-2.85-.85-2.85-2.89v-13.26Zm.25-14.02h4.67v4.97h-4.67V0Z"/>
    <path class="cls-1" d="m460.45,7.99c4.72,0,6.25,2.63,6.25,2.63h.08s-.04-.55-.04-1.27v-3.82c0-.64-.34-.94-.93-.94h-1.7V0h5.14c2,0,2.89.89,2.89,2.89v21.8c0,.59.34.94.93.94h1.66v4.55h-4.97c-1.96,0-2.68-.94-2.68-2.21v-.81h-.08s-1.79,3.53-6.76,3.53c-5.87,0-9.65-4.63-9.65-11.35s4.12-11.35,9.86-11.35Zm6.42,11.3c0-3.36-1.74-6.67-5.35-6.67-2.97,0-5.44,2.42-5.44,6.71s2.17,6.8,5.35,6.8c2.8,0,5.44-2.04,5.44-6.84Z"/>
    <path class="cls-1" d="m488.03,7.99c6.2,0,9.6,4.55,9.6,10.28,0,.64-.13,2-.13,2h-14.96c.42,3.82,3.23,5.82,6.5,5.82,3.49,0,6.08-2.42,6.08-2.42l2.25,3.74s-3.31,3.27-8.71,3.27c-7.18,0-11.64-5.18-11.64-11.35,0-6.67,4.5-11.35,11.01-11.35Zm4.08,8.54c-.08-2.59-1.87-4.38-4.08-4.38-2.76,0-4.72,1.66-5.31,4.38h9.39Z"/>
    <path class="cls-2" d="m30.42,66.09h-2.68v-4.29h2.68v-.64c0-7.1,5.82-8.03,8.84-8.03,1.1,0,1.83.13,1.83.13v4.59s-.47-.08-1.1-.08c-1.53,0-4.17.38-4.17,3.53v.51h4.63v4.29h-4.63v17.38h-5.4v-17.38Z"/>
    <path class="cls-2" d="m45.08,67.32c0-.64-.34-.93-.94-.93h-1.7v-4.59h4.93c1.91,0,2.89.81,2.89,2.63v1.28c0,.81-.08,1.36-.08,1.36h.08c.98-3.1,3.57-5.57,6.88-5.57.47,0,.98.08.98.08v5.31s-.55-.08-1.32-.08c-2.29,0-4.93,1.32-5.91,4.55-.3,1.06-.47,2.25-.47,3.53v8.58h-5.35v-16.15Z"/>
    <path class="cls-2" d="m71.48,61.29c6.63,0,11.9,4.72,11.9,11.35s-5.27,11.35-11.9,11.35-11.86-4.67-11.86-11.35,5.27-11.35,11.86-11.35Zm0,18.1c3.53,0,6.46-2.72,6.46-6.76s-2.93-6.76-6.46-6.76-6.42,2.76-6.42,6.76,2.93,6.76,6.42,6.76Z"/>
    <path class="cls-2" d="m88.26,67.32c0-.64-.34-.93-.93-.93h-1.7v-4.59h4.97c1.91,0,2.85.89,2.85,2.42v.64c0,.47-.04.93-.04.93h.08c1.02-2.12,3.61-4.5,7.01-4.5s5.4,1.53,6.33,4.46h.09c1.15-2.34,3.95-4.46,7.39-4.46,4.5,0,7.1,2.55,7.1,8.24v8.46c0,.59.34.93.94.93h1.66v4.55h-5.1c-2.04,0-2.89-.85-2.89-2.89v-10.03c0-2.46-.47-4.33-2.97-4.33-2.68,0-4.59,2.25-5.18,4.97-.25.85-.34,1.74-.34,2.76v9.52h-5.4v-12.92c0-2.34-.34-4.33-2.93-4.33-2.72,0-4.55,2.25-5.23,5.01-.21.85-.34,1.74-.34,2.72v9.52h-5.36v-16.15Z"/>
    <path class="cls-2" d="m149.29,61.29c6.63,0,11.9,4.72,11.9,11.35s-5.27,11.35-11.9,11.35-11.86-4.67-11.86-11.35,5.27-11.35,11.86-11.35Zm0,18.1c3.53,0,6.46-2.72,6.46-6.76s-2.93-6.76-6.46-6.76-6.42,2.76-6.42,6.76,2.93,6.76,6.42,6.76Z"/>
    <path class="cls-2" d="m166,67.32c0-.64-.34-.93-.94-.93h-1.7v-4.59h5.14c2,0,2.85.89,2.85,2.85v9.99c0,2.63.68,4.42,3.36,4.42,3.91,0,6.08-3.44,6.08-7.31v-9.94h5.4v16.19c0,.59.34.93.93.93h1.7v4.55h-4.97c-1.87,0-2.85-.89-2.85-2.42v-.59c0-.51.04-.98.04-.98h-.08c-1.02,2.25-3.74,4.5-7.48,4.5-4.63,0-7.48-2.34-7.48-8.24v-8.41Z"/>
    <path class="cls-2" d="m193.2,67.32c0-.64-.34-.93-.94-.93h-1.7v-4.59h4.93c1.91,0,2.89.81,2.89,2.63v1.28c0,.81-.08,1.36-.08,1.36h.08c.98-3.1,3.57-5.57,6.88-5.57.47,0,.98.08.98.08v5.31s-.55-.08-1.32-.08c-2.29,0-4.93,1.32-5.91,4.55-.3,1.06-.47,2.25-.47,3.53v8.58h-5.35v-16.15Z"/>
    <path class="cls-2" d="m222.65,58.02h-2.76v-4.72h12.28c9.31,0,15.38,5.52,15.38,15.04s-6.08,15.13-15.38,15.13h-6.63c-2.04,0-2.89-.85-2.89-2.89v-22.57Zm6.5,20.74h2.72c6.04,0,9.9-3.61,9.9-10.41s-3.95-10.33-9.9-10.33h-3.65v19.8c0,.59.34.93.94.93Z"/>
    <path class="cls-2" d="m264.98,61.8c0-2.38-1.78-3.91-4.38-3.91-2.38,0-3.95,1.23-3.95,2.38v1.32h-5.02v-2.97c0-3.99,5.27-5.82,9.18-5.82,5.27,0,9.77,3.31,9.77,8.92,0,10.2-14.58,10.79-14.58,16.28,0,.55.34.76,1.15.76h8.84c.59,0,.93-.34.93-.93v-1.83h5.01v4.59c0,2.04-.85,2.89-2.89,2.89h-15.72c-2.63,0-3.1-1.15-3.1-4,0-10.92,14.75-10.33,14.75-17.68Z"/>
    <path class="cls-2" d="m290.1,52.79c3.87,0,11.43,1.62,11.43,6.76v3.36h-5.06v-1.7c0-2.21-3.61-3.23-6.25-3.23-5.4,0-9.65,3.87-9.65,10.16,0,5.91,4.33,10.67,9.82,10.67s9.14-3.99,9.14-3.99l2.93,3.99s-4.38,5.18-12.15,5.18c-9.22,0-15.51-6.93-15.51-15.85s6.54-15.34,15.3-15.34Z"/>
    <path class="cls-2" d="m319.08,58.02h-2.76v-4.72h13.05c5.44,0,9.35,2.8,9.35,7.78,0,3.36-1.83,5.52-3.65,6.46v.09c3.27.98,4.84,4.04,4.84,7.1,0,6.03-4.8,8.75-10.41,8.75h-7.52c-2,0-2.89-.85-2.89-2.89v-22.57Zm10.33,7.61c2.34,0,3.65-1.7,3.65-3.87s-1.27-3.74-3.74-3.74h-4.68v7.61h4.76Zm-3.82,13.13h4.33c2.72,0,4.25-1.83,4.25-4.38s-1.57-4.33-4.25-4.33h-5.27v7.78c0,.59.34.93.94.93Z"/>
    <path class="cls-2" d="m345.18,67.32c0-.64-.34-.93-.94-.93h-1.7v-4.59h4.93c1.91,0,2.89.81,2.89,2.63v1.28c0,.81-.08,1.36-.08,1.36h.08c.98-3.1,3.57-5.57,6.88-5.57.47,0,.98.08.98.08v5.31s-.55-.08-1.32-.08c-2.29,0-4.93,1.32-5.91,4.55-.3,1.06-.47,2.25-.47,3.53v8.58h-5.35v-16.15Z"/>
    <path class="cls-2" d="m372.17,69.87h.68v-.17c0-3.1-1.23-4.25-3.99-4.25-.98,0-2.89.26-2.89,1.45v1.15h-5.01v-2.29c0-4.04,5.69-4.46,7.95-4.46,7.22,0,9.35,3.78,9.35,8.63v8.07c0,.59.34.93.94.93h1.7v4.55h-4.84c-2,0-2.76-1.1-2.76-2.38,0-.55.04-.93.04-.93h-.08s-1.66,3.82-6.54,3.82c-3.87,0-7.39-2.42-7.39-6.76,0-6.8,9.35-7.35,12.88-7.35Zm-4.17,9.9c2.89,0,4.93-3.06,4.93-5.69v-.51h-.93c-2.8,0-7.27.38-7.27,3.4,0,1.44,1.06,2.8,3.27,2.8Z"/>
    <path class="cls-2" d="m385.22,67.32c0-.64-.34-.93-.93-.93h-1.7v-4.59h4.97c1.91,0,2.85.89,2.85,2.42v.64c0,.47-.08.93-.08.93h.08c.93-1.83,3.27-4.5,7.65-4.5,4.8,0,7.56,2.51,7.56,8.24v8.46c0,.59.34.93.93.93h1.7v4.55h-5.14c-2.04,0-2.89-.85-2.89-2.89v-9.94c0-2.63-.68-4.42-3.4-4.42-2.89,0-5.06,1.83-5.82,4.42-.3.89-.42,1.87-.42,2.89v9.94h-5.36v-16.15Z"/>
    <path class="cls-2" d="m420.23,61.29c4.72,0,6.25,2.63,6.25,2.63h.08s-.04-.55-.04-1.27v-3.82c0-.64-.34-.94-.93-.94h-1.7v-4.59h5.14c2,0,2.89.89,2.89,2.89v21.8c0,.59.34.93.93.93h1.66v4.55h-4.97c-1.96,0-2.68-.93-2.68-2.21v-.81h-.08s-1.79,3.53-6.76,3.53c-5.86,0-9.65-4.63-9.65-11.35s4.12-11.35,9.86-11.35Zm6.42,11.3c0-3.36-1.74-6.67-5.35-6.67-2.97,0-5.44,2.42-5.44,6.71s2.17,6.8,5.35,6.8c2.8,0,5.44-2.04,5.44-6.84Z"/>
    <path class="cls-2" d="m439.06,76.59s2.76,3.19,6.46,3.19c1.66,0,2.93-.68,2.93-2.12,0-3.06-11.43-3.02-11.43-10.03,0-4.33,3.91-6.33,8.41-6.33,2.93,0,7.61.98,7.61,4.5v2.25h-4.76v-1.06c0-1.02-1.53-1.53-2.72-1.53-1.91,0-3.23.68-3.23,1.96,0,3.4,11.52,2.72,11.52,9.94,0,4.08-3.61,6.63-8.33,6.63-5.95,0-9.01-3.87-9.01-3.87l2.55-3.53Z"/>
  </g>
</svg>