<?xml version="1.0" encoding="utf-8"?>
<!-- Generator: Adobe Illustrator 28.0.0, SVG Export Plug-In . SVG Version: 6.00 Build 0)  -->
<svg version="1.1" id="Layer_2_00000171707011715065109720000012218550938870900376_"
	 xmlns="http://www.w3.org/2000/svg" xmlns:xlink="http://www.w3.org/1999/xlink" x="0px" y="0px" viewBox="0 0 1262.1 517.8"
	 style="enable-background:new 0 0 1262.1 517.8;" xml:space="preserve">
<style type="text/css">
	.st0{fill:#FFFFFF;}
	.st1{clip-path:url(#SVGID_00000107561781771849949290000009238549649257344916_);}
	.st2{fill:#FFBD00;}
	.st3{fill:#FEBB02;}
	.st4{fill:#FEBA03;}
	.st5{fill:#FDB904;}
	.st6{fill:#FDB806;}
	.st7{fill:#FDB607;}
	.st8{fill:#FCB508;}
	.st9{fill:#6666FF;}
	.st10{clip-path:url(#SVGID_00000162349624365757094090000004832742061047969669_);}
	.st11{fill:#FCB409;}
	.st12{fill:#FCB30A;}
	.st13{fill:#FBB20B;}
	.st14{fill:#FBB20C;}
	.st15{fill:#FBB10D;}
	.st16{fill:#FAB00E;}
	.st17{fill:#FAAF10;}
	.st18{fill:#FAAE11;}
	.st19{fill:#F9AD12;}
	.st20{fill:#F9AD13;}
	.st21{fill:#F9AC14;}
	.st22{fill:#F8AB15;}
	.st23{fill:#F8AA16;}
	.st24{fill:#F8A917;}
	.st25{fill:#F7A818;}
	.st26{fill:#F7A719;}
	.st27{fill:#F7A61A;}
	.st28{fill:#F6A61B;}
	.st29{fill:#F6A51C;}
	.st30{fill:#F6A41D;}
	.st31{fill:#F5A31E;}
	.st32{fill:#F5A220;}
	.st33{fill:#F5A121;}
	.st34{fill:#F4A022;}
	.st35{fill:#F49F23;}
	.st36{fill:#F49E24;}
	.st37{fill:#F39E25;}
	.st38{fill:#F39D26;}
	.st39{fill:#F39C27;}
	.st40{fill:#F29B28;}
	.st41{fill:#F29A29;}
	.st42{fill:#F2992A;}
	.st43{fill:#F2992C;}
	.st44{fill:#F1982D;}
	.st45{fill:#F1972E;}
	.st46{fill:#EED7FF;}
	.st47{opacity:0.1;}
	.st48{fill:#E1E1E1;}
	.st49{opacity:0.2;}
	.st50{fill:#CECECE;}
</style>
<g>
	<g>
		<path class="st0" d="M100.2,497l6.2,1.8l3.4-6.1c1.5,0.2,3,0.2,4.5,0l3.2,6.2l6.2-1.6l-0.2-7c1.4-0.6,2.7-1.3,3.9-2.2l5.9,3.8
			l4.6-4.5l-3.6-6c0.9-1.2,1.6-2.5,2.3-3.8l7,0.4l1.8-6.2l-6.1-3.4c0.2-1.5,0.2-3,0-4.5l6.3-3.2l-1.6-6.2l-7,0.2
			c-0.6-1.4-1.3-2.7-2.2-3.9l3.8-5.9l-4.5-4.6l-6,3.6c-1.2-0.9-2.5-1.6-3.8-2.3l0.4-7l-6.2-1.8l-3.4,6.2c-1.5-0.2-3-0.2-4.5,0
			l-3.1-6.2l-6.2,1.6l0.2,7c-1.4,0.6-2.7,1.3-3.9,2.2l-5.9-3.8l-4.6,4.5l3.6,6c-0.9,1.2-1.6,2.5-2.3,3.8l-7-0.4l-1.8,6.2l6.1,3.4
			c-0.2,1.5-0.2,3,0,4.5l-6.2,3.2l1.5,6.2l7-0.2c0.6,1.4,1.3,2.7,2.2,3.9l-3.8,5.9l4.5,4.6l6-3.6c1.2,0.9,2.5,1.6,3.8,2.3l-0.4,7
			l0,0L100.2,497z M96.6,461.5c2.5-8.8,11.7-13.8,20.4-11.3c8.8,2.5,13.8,11.7,11.3,20.4c-2.5,8.8-11.7,13.8-20.4,11.3
			C99.1,479.4,94.1,470.2,96.6,461.5z"/>
		<path d="M117.4,499.6c-0.2,0-0.4-0.1-0.5-0.3l-3-5.9c-1.2,0-2.5,0-3.8,0l-3.2,5.8c-0.1,0.2-0.4,0.3-0.6,0.3l-6.2-1.8
			c-0.2,0-0.4-0.3-0.4-0.6l0.4-6.6c-1.1-0.6-2.2-1.2-3.3-2l-5.7,3.4c-0.2,0.1-0.5,0-0.7,0l-4.5-4.6c-0.2-0.2-0.2-0.5,0-0.7l3.6-5.6
			c-0.7-1.1-1.3-2.2-1.9-3.3l-6.6,0.2l0,0c-0.3,0-0.5-0.2-0.5-0.4l-1.5-6.2c0-0.3,0-0.5,0.3-0.6l5.9-3c0-1.3,0-2.5,0-3.8l-5.8-3.2
			c-0.2-0.1-0.3-0.4-0.3-0.7l1.8-6.2c0-0.2,0.3-0.4,0.6-0.4l6.6,0.4c0.6-1.2,1.2-2.2,2-3.3l-3.4-5.7c-0.1-0.2,0-0.5,0-0.7l4.6-4.5
			c0.2-0.2,0.5-0.2,0.7,0l5.6,3.6c1.1-0.7,2.2-1.3,3.3-1.8v-6.6c-0.1-0.3,0-0.5,0.3-0.6l6.2-1.6c0.3,0,0.5,0,0.6,0.3l3,5.9
			c1.3,0,2.5,0,3.8,0l3.2-5.8c0.1-0.2,0.4-0.3,0.7-0.3l6.2,1.8c0.2,0,0.4,0.3,0.4,0.6l-0.4,6.6c1.2,0.6,2.2,1.2,3.3,2l5.7-3.4
			c0.2-0.1,0.5,0,0.7,0l4.5,4.6c0.2,0.2,0.2,0.5,0,0.7l-3.6,5.6c0.7,1.1,1.3,2.2,1.8,3.3l6.6-0.2l0,0c0.3,0,0.5,0.2,0.6,0.4l1.6,6.2
			c0,0.3,0,0.5-0.3,0.6l-5.9,3c0,1.3,0,2.5,0,3.8l5.8,3.2c0.2,0.1,0.3,0.4,0.3,0.7l-1.8,6.2c0,0.2-0.3,0.4-0.6,0.4l-6.6-0.4
			c-0.6,1.2-1.2,2.2-2,3.3l3.4,5.7c0.1,0.2,0,0.5,0,0.7l-4.6,4.5c-0.2,0.2-0.5,0.2-0.7,0l-5.5-3.6c-1.1,0.7-2.2,1.3-3.3,1.8l0.2,6.6
			c0,0.3-0.2,0.5-0.4,0.6l-6.2,1.6c0,0,0,0-0.1,0H117.4z M114.2,492.2c0.2,0,0.4,0.1,0.5,0.3l2.9,5.8l5.3-1.3l-0.2-6.6
			c0-0.2,0.1-0.4,0.3-0.5c1.3-0.6,2.6-1.3,3.8-2.1c0.2-0.1,0.4-0.1,0.6,0l5.5,3.6l4-3.8l-3.4-5.6c-0.1-0.2-0.1-0.4,0-0.6
			c0.8-1.2,1.6-2.4,2.2-3.8c0-0.2,0.3-0.3,0.5-0.3l6.5,0.4l1.5-5.3l-5.8-3.2c-0.2-0.1-0.3-0.3-0.3-0.6c0.2-1.5,0.2-2.9,0-4.4
			c0-0.2,0.1-0.4,0.3-0.5l5.9-2.9l-1.3-5.3l-6.6,0.2c-0.2,0-0.4-0.1-0.5-0.3c-0.6-1.3-1.3-2.6-2.1-3.8c-0.1-0.2-0.1-0.4,0-0.6
			l3.6-5.5l-3.8-4l-5.6,3.4c-0.2,0.1-0.4,0.1-0.6,0c-1.2-0.8-2.4-1.6-3.8-2.2c-0.2,0-0.3-0.3-0.3-0.5l0.4-6.6l-5.3-1.5l-3.2,5.8
			c-0.1,0.2-0.3,0.3-0.5,0.3c-1.5-0.2-2.9-0.2-4.4,0c-0.2,0-0.4-0.1-0.5-0.3l-2.9-5.8l-5.4,1.3v6.6c0.1,0.2,0,0.4-0.2,0.5
			c-1.3,0.6-2.6,1.3-3.8,2.1c-0.2,0.1-0.4,0.1-0.6,0l-5.5-3.6l-4,3.8l3.4,5.6c0.1,0.2,0.1,0.4,0,0.6c-0.8,1.2-1.6,2.4-2.2,3.8
			c-0.1,0.2-0.3,0.3-0.5,0.3l-6.6-0.4L80,460l5.8,3.2c0.2,0.1,0.3,0.3,0.3,0.6c-0.2,1.5-0.2,2.9,0,4.4c0,0.2-0.1,0.4-0.3,0.5
			l-5.8,2.9l1.3,5.3l6.6-0.2c0.2,0,0.4,0.1,0.5,0.3c0.6,1.3,1.3,2.6,2.1,3.8c0.1,0.2,0.1,0.4,0,0.6l-3.6,5.5l3.8,4l5.6-3.4
			c0.2-0.1,0.4-0.1,0.6,0c1.2,0.8,2.4,1.6,3.8,2.2c0.2,0,0.3,0.3,0.3,0.5l-0.4,6.6l5.3,1.5l3.1-5.8c0.1-0.2,0.3-0.3,0.5-0.3
			c1.5,0.2,2.9,0.2,4.4,0l0,0H114.2z M112.5,483.1c-1.6,0-3.2-0.2-4.7-0.7c-9-2.6-14.3-12.1-11.7-21.1c1.3-4.4,4.1-8,8.1-10.2
			s8.6-2.7,13-1.5c9,2.6,14.3,12.1,11.7,21.1c-1.3,4.4-4.2,8-8.1,10.2c-2.6,1.4-5.4,2.2-8.2,2.2l0,0H112.5z M97.1,461.6
			c-2.4,8.5,2.5,17.3,10.9,19.7c4.1,1.2,8.4,0.7,12.1-1.4s6.4-5.5,7.6-9.6c2.4-8.5-2.5-17.3-10.9-19.7c-4.1-1.2-8.4-0.7-12.1,1.4
			S98.3,457.5,97.1,461.6z"/>
	</g>
	<g>
		<path class="st0" d="M476,307.7l10.5,3l5.8-10.5c2.6,0.3,5.1,0.3,7.6,0.2l5.4,10.7l10.6-2.7l-0.3-12c2.3-1.1,4.6-2.3,6.7-3.7
			l10,6.6l7.9-7.6l-6.2-10.2c1.5-2.1,2.8-4.2,3.9-6.6l12,0.7l3-10.6l-10.5-5.8c0.3-2.6,0.3-5.1,0.1-7.7l10.7-5.4l-2.6-10.7l-12,0.3
			c-1-2.3-2.3-4.6-3.7-6.7l6.6-10l-7.6-7.9l-10.2,6.2c-2-1.5-4.2-2.8-6.6-3.9l0.7-12l-10.5-3l-5.8,10.5c-2.6-0.3-5.1-0.3-7.6-0.2
			l-5.4-10.7l-10.6,2.7l0.3,12c-2.3,1.1-4.6,2.3-6.7,3.7l-10-6.6l-7.9,7.6l6.2,10.2c-1.5,2.1-2.8,4.2-3.9,6.6l-12-0.7l-3,10.6
			l10.5,5.8c-0.3,2.6-0.3,5.1-0.1,7.7l-10.7,5.4l2.6,10.7l12-0.3c1,2.3,2.3,4.6,3.7,6.7l-6.6,10l7.6,7.9l10.2-6.2
			c2,1.5,4.2,2.8,6.6,3.9L476,307.7L476,307.7L476,307.7z M469.8,246.8c4.3-15,20-23.7,35-19.4s23.7,19.9,19.4,35
			c-4.3,15-20,23.7-35,19.4C474.2,277.5,465.5,261.9,469.8,246.8L469.8,246.8z"/>
		<path d="M505.3,311.6c-0.2,0-0.4-0.1-0.5-0.3l-5.2-10.4c-2.3,0.1-4.6,0-7-0.1L487,311c-0.1,0.2-0.4,0.3-0.6,0.3l-10.5-3
			c-0.2,0-0.4-0.3-0.4-0.6l0.7-11.6c-2.1-1.1-4.1-2.3-6-3.6l-9.9,6c-0.2,0.1-0.5,0-0.7,0l-7.6-7.9c-0.2-0.2-0.2-0.5,0-0.7l6.4-9.7
			c-1.3-1.9-2.4-4-3.4-6.1l-11.6,0.3c-0.3,0-0.5-0.2-0.6-0.4l-2.6-10.7c0-0.3,0-0.5,0.3-0.6l10.4-5.2c-0.1-2.3,0-4.7,0.1-7
			l-10.2-5.6c-0.2-0.1-0.3-0.4-0.3-0.7l3-10.6c0-0.2,0.3-0.4,0.6-0.4l11.6,0.7c1.1-2.1,2.3-4.1,3.6-6l-6-9.9c-0.1-0.2-0.1-0.5,0-0.7
			l7.9-7.6c0.2-0.2,0.5-0.2,0.7,0l9.7,6.4c2-1.3,4-2.4,6.1-3.4l-0.3-11.6c0-0.3,0.2-0.5,0.4-0.6l10.6-2.7c0.3,0,0.5,0,0.6,0.3
			l5.2,10.4c2.3-0.1,4.6,0,7,0.1l5.6-10.2c0.1-0.2,0.4-0.3,0.6-0.3l10.5,3c0.2,0,0.4,0.3,0.4,0.6l-0.7,11.6c2.1,1.1,4.1,2.3,6,3.6
			l9.9-6c0.2-0.1,0.5,0,0.7,0l7.6,7.9c0.2,0.2,0.2,0.5,0,0.7l-6.4,9.7c1.3,1.9,2.4,4,3.4,6.1l11.6-0.3l0,0c0.3,0,0.5,0.2,0.5,0.4
			l2.6,10.7c0,0.3,0,0.5-0.3,0.6l-10.4,5.2c0.1,2.3,0,4.7-0.1,7l10.2,5.6c0.2,0.1,0.3,0.4,0.3,0.7l-3,10.6c0,0.2-0.3,0.4-0.6,0.4
			l-11.6-0.7c-1.1,2.1-2.3,4.1-3.6,6l6,9.9c0.1,0.2,0.1,0.5,0,0.7l-7.9,7.6c-0.2,0.2-0.5,0.2-0.7,0l-9.7-6.4c-1.9,1.3-4,2.4-6.1,3.4
			l0.3,11.6c0,0.3-0.2,0.5-0.4,0.6L505.3,311.6C505.3,311.6,505.3,311.6,505.3,311.6L505.3,311.6L505.3,311.6z M499.9,299.8
			c0.2,0,0.4,0.1,0.5,0.3l5.2,10.3l9.8-2.4l-0.3-11.5c0-0.2,0.1-0.4,0.3-0.5c2.3-1,4.5-2.3,6.6-3.7c0.2-0.1,0.4-0.1,0.6,0l9.6,6.3
			l7.2-7l-6-9.8c-0.1-0.2-0.1-0.4,0-0.6c1.5-2,2.8-4.2,3.9-6.5c0.1-0.2,0.3-0.3,0.5-0.3l11.5,0.7l2.8-9.7l-10.1-5.6
			c-0.2-0.1-0.3-0.3-0.3-0.6c0.3-2.5,0.3-5.1,0.1-7.6c0-0.2,0.1-0.4,0.3-0.5l10.3-5.2l-2.4-9.8l-11.5,0.3c-0.2,0-0.4-0.1-0.5-0.3
			c-1-2.3-2.3-4.5-3.7-6.6c-0.1-0.2-0.1-0.4,0-0.6l6.3-9.7l-7-7.2l-9.9,6c-0.2,0.1-0.4,0.1-0.6,0c-2-1.4-4.2-2.8-6.5-3.9
			c-0.2,0-0.3-0.3-0.3-0.5l0.7-11.5l-9.7-2.8l-5.5,10.1c-0.1,0.2-0.3,0.3-0.5,0.3c-2.5-0.3-5.1-0.3-7.5-0.2c-0.2,0-0.4-0.1-0.5-0.3
			l-5.2-10.3l-9.8,2.4l0.3,11.5c0,0.2-0.1,0.4-0.3,0.5c-2.3,1-4.5,2.3-6.6,3.7c-0.2,0.1-0.4,0.1-0.6,0l-9.6-6.3l-7.2,7l6,9.8
			c0.1,0.2,0.1,0.4,0,0.6c-1.5,2-2.8,4.2-3.9,6.5c-0.1,0.2-0.3,0.3-0.5,0.3l-11.5-0.7l-2.8,9.7l10.1,5.6c0.2,0.1,0.3,0.3,0.3,0.6
			c-0.3,2.5-0.3,5.1-0.1,7.6c0,0.2-0.1,0.4-0.3,0.5l-10.3,5.2l2.4,9.8l11.5-0.3c0.2,0,0.4,0.1,0.5,0.3c1,2.3,2.3,4.5,3.7,6.6
			c0.1,0.2,0.1,0.4,0,0.6l-6.3,9.7l7,7.2l9.9-6c0.2-0.1,0.4-0.1,0.6,0c2,1.4,4.2,2.8,6.5,3.9c0.2,0,0.3,0.3,0.3,0.5l-0.7,11.5
			l9.7,2.8l5.5-10.1c0.1-0.2,0.3-0.3,0.5-0.3C494.9,299.9,497.5,299.9,499.9,299.8L499.9,299.8L499.9,299.8z M496.9,283.4
			c-2.6,0-5.3-0.4-7.9-1.1c-7.4-2.1-13.5-7-17.3-13.7s-4.6-14.5-2.5-21.9s7-13.5,13.7-17.3s14.5-4.6,21.9-2.5s13.5,7,17.3,13.7
			s4.6,14.5,2.5,21.9C521,275.1,509.4,283.4,496.9,283.4L496.9,283.4L496.9,283.4z M469.8,246.8l0.5,0.2c-2,7.1-1.2,14.6,2.4,21.1
			s9.5,11.2,16.6,13.2c2.5,0.7,5.1,1.1,7.6,1.1c12,0,23.1-7.9,26.6-20.1c2-7.1,1.2-14.6-2.4-21.1c-3.6-6.5-9.5-11.2-16.6-13.2
			s-14.6-1.2-21.1,2.4s-11.2,9.5-13.2,16.6l-0.5-0.2l0,0L469.8,246.8z"/>
	</g>
	<g>
		<path d="M507.6,155.7c-0.1,0-0.3,0-0.4-0.2c-0.2-0.2-0.2-0.6,0-0.8l2-2c0.2-0.2,0.6-0.2,0.8,0s0.2,0.6,0,0.8l-2,2
			C507.9,155.6,507.8,155.7,507.6,155.7z"/>
		<path d="M515,148.2c-0.1,0-0.3,0-0.4-0.2c-0.2-0.2-0.2-0.6,0-0.8l2-2c0.2-0.2,0.6-0.2,0.8,0s0.2,0.6,0,0.8l-2,2
			C515.3,148.1,515.2,148.2,515,148.2L515,148.2z"/>
		<path d="M516.9,155.7c-0.1,0-0.3,0-0.4-0.2l-2-2c-0.2-0.2-0.2-0.6,0-0.8s0.6-0.2,0.8,0l2,2c0.2,0.2,0.2,0.6,0,0.8
			C517.2,155.6,517.1,155.7,516.9,155.7L516.9,155.7z"/>
		<path d="M509.5,148.2c-0.1,0-0.3,0-0.4-0.2l-2-2c-0.2-0.2-0.2-0.6,0-0.8s0.6-0.2,0.8,0l2,2c0.2,0.2,0.2,0.6,0,0.8
			C509.8,148.1,509.7,148.2,509.5,148.2z"/>
	</g>
	<g>
		<path d="M103.1,238.5h-0.2c-0.3-0.1-0.4-0.5-0.3-0.8l1.1-2.5c0.1-0.3,0.5-0.4,0.7-0.3s0.4,0.5,0.3,0.7l-1.1,2.5
			c0,0.2-0.3,0.3-0.5,0.3l0,0V238.5z"/>
		<path d="M107.4,229h-0.2c-0.3-0.1-0.4-0.5-0.3-0.8l1.1-2.5c0.1-0.3,0.5-0.4,0.7-0.3s0.4,0.5,0.3,0.8l-1.1,2.5
			C107.9,228.9,107.6,229,107.4,229L107.4,229z"/>
		<path d="M111.9,235.3h-0.2l-2.5-1.2c-0.3-0.1-0.4-0.5-0.3-0.8s0.5-0.4,0.7-0.3l2.5,1.2c0.3,0.1,0.4,0.5,0.3,0.8
			C112.4,235.2,112.1,235.3,111.9,235.3L111.9,235.3z"/>
		<path d="M102.3,230.9h-0.2l-2.5-1.2c-0.3-0.1-0.4-0.5-0.3-0.8s0.5-0.4,0.7-0.3l2.5,1.2c0.3,0.1,0.4,0.5,0.3,0.7
			c0,0.2-0.3,0.3-0.5,0.3l0,0V230.9z"/>
	</g>
	<path d="M128.4,269.4c-2.2,0-4-1.8-4-4.1s1.8-4.1,4-4.1s4,1.8,4,4.1S130.6,269.4,128.4,269.4z M128.4,262.4c-1.6,0-2.9,1.3-2.9,2.9
		s1.3,2.9,2.9,2.9c1.6,0,2.9-1.3,2.9-2.9S130,262.4,128.4,262.4z"/>
	<g>
		<g>
			<g>
				<defs>
					
						<ellipse id="SVGID_1_" transform="matrix(1.570735e-02 -0.9999 0.9999 1.570735e-02 42.6552 313.8256)" cx="180.7" cy="135.2" rx="37.4" ry="37.4"/>
				</defs>
				<clipPath id="SVGID_00000169535024638098784450000018076551464340539570_">
					<use xlink:href="#SVGID_1_"  style="overflow:visible;"/>
				</clipPath>
				<g style="clip-path:url(#SVGID_00000169535024638098784450000018076551464340539570_);">
					<polygon class="st2" points="167,97.9 143.4,125.8 143.4,97.9 					"/>
					<polygon class="st3" points="204.6,97.9 218.3,109.4 218.3,111.2 166.3,172.8 157.1,172.8 143.4,161.2 143.4,125.8 167,97.9 
											"/>
					<polygon class="st3" points="218.3,121.7 175.3,172.8 166.3,172.8 218.3,111.2 					"/>
					<polygon class="st4" points="218.3,132.3 184.2,172.8 175.3,172.8 218.3,121.7 					"/>
					<polygon class="st5" points="218.3,142.9 193.1,172.8 184.2,172.8 218.3,132.3 					"/>
					<polygon class="st6" points="218.3,153.5 202.1,172.8 193.1,172.8 218.3,142.9 					"/>
					<polygon class="st7" points="218.3,164.1 211,172.8 202.1,172.8 218.3,153.5 					"/>
					<polygon class="st8" points="211,172.8 218.3,164.1 218.3,172.8 					"/>
				</g>
			</g>
			<path d="M180.9,173.3c-20.9,0-37.9-17-37.9-37.9s17-37.9,37.9-37.9s37.9,17,37.9,37.9S201.8,173.3,180.9,173.3L180.9,173.3z
				 M180.9,98.4c-20.4,0-36.9,16.6-36.9,36.9s16.6,36.9,36.9,36.9s36.9-16.6,36.9-36.9S201.2,98.4,180.9,98.4L180.9,98.4z"/>
		</g>
		<g>
			<g>
				<path class="st0" d="M189.6,130.1l-0.2-11.9c0-3.8-3.1-7-7-7.2c-4.2-0.2-7.7,3.3-7.6,7.5v3.7c0.1,1.3-0.9,2.3-2.2,2.3
					c-1.2,0-2.1-1-2.1-2.2v-3.5c-0.2-6.8,5.2-12.4,12.2-12.1l0,0c5.8,0.2,11.1,5.3,11.2,11.5l0.2,12L189.6,130.1L189.6,130.1
					L189.6,130.1z"/>
				<path d="M194,130.8L194,130.8l-4.5-0.2c-0.3,0-0.5-0.2-0.5-0.6l-0.2-11.9c0-3.5-2.9-6.4-6.4-6.6c-1.9,0-3.7,0.6-5,1.9
					s-2.1,3.1-2,5v3.7c0,0.8-0.2,1.5-0.8,2.1c-0.6,0.5-1.3,0.8-2.1,0.8c-1.5,0-2.7-1.3-2.7-2.8v-3.5c-0.1-3.5,1.2-6.8,3.6-9.2
					c2.4-2.4,5.7-3.6,9.2-3.5l0,0c6.2,0.3,11.6,5.8,11.7,12.1l0.2,12c0,0.2,0,0.3-0.2,0.4c-0.1,0-0.2,0.2-0.4,0.2l0,0L194,130.8z
					 M190.1,129.5h3.3c0,0.1-0.1-11.3-0.1-11.3c-0.1-5.7-5-10.8-10.7-11l0,0c-3.2-0.1-6.1,1-8.3,3.2s-3.4,5.2-3.3,8.3v3.5
					c0,0.9,0.8,1.6,1.7,1.6c0.5,0,0.9-0.2,1.2-0.5s0.5-0.8,0.5-1.2v-3.7c-0.1-2.2,0.7-4.3,2.3-5.8s3.6-2.3,5.8-2.2
					c4.1,0.2,7.4,3.6,7.5,7.7l0.2,11.3l0,0L190.1,129.5z"/>
			</g>
			<path class="st0" d="M184.6,162.7l-5,0.2c-6.9-0.2-13.1-8.5-12.4-18.2l1.1-15.6l29.5-0.2c2.6,0,4.8,2.3,4.6,4.9l-0.9,13.2
				c-0.6,8.9-8,15.7-16.8,15.7l0,0L184.6,162.7z"/>
			<g>
				<path class="st0" d="M179.8,162.5c-9.8,0-17.5-8.3-16.8-18l1-15.1h31.2c1.4,0,2.6,1.2,2.5,2.6l-1,14.7
					c-0.6,8.9-8,15.7-16.8,15.7l0,0L179.8,162.5z"/>
				<path d="M179.8,163c-4.9,0-9.4-2-12.7-5.5c-3.3-3.6-5-8.2-4.7-13.1l1-15.1c0-0.3,0.3-0.5,0.6-0.5h31.2c0.8,0,1.7,0.3,2.2,1
					s0.9,1.4,0.8,2.3l-1,14.7C196.6,155.9,188.9,163.1,179.8,163L179.8,163L179.8,163z M164.5,129.9l-1,14.6
					c-0.3,4.6,1.2,8.9,4.4,12.2s7.3,5.2,11.9,5.2c8.6,0,15.7-6.7,16.3-15.2l1-14.7c0-0.5-0.2-1-0.5-1.4c-0.4-0.4-0.9-0.6-1.4-0.6
					h-30.6L164.5,129.9z"/>
			</g>
			<g>
				<path d="M179.4,152.9c-0.8,0-1.4-0.7-1.4-1.5l0.8-11.8c0-0.7,0.7-1.3,1.4-1.3s1.4,0.7,1.4,1.5l-0.8,11.8
					C180.8,152.3,180.1,152.9,179.4,152.9z"/>
				<circle cx="179.9" cy="140.8" r="5.1"/>
			</g>
		</g>
	</g>
	<g>
		<g>
			<path class="st9" d="M441.5,424.1l-143.9-0.7c-17.3,0-31.3-14.2-31.2-31.5l1.5-360.7C268,13.9,282.1,0,299.4,0l143.9,0.7
				c17.3,0,31.3,14.2,31.2,31.5L473,392.9C473,410.2,458.8,424.2,441.5,424.1L441.5,424.1L441.5,424.1z"/>
			<path class="st0" d="M443.1,13.1h-27.9c-3.7-0.2-6.8,3-6.8,6.9v5.1c0,3.9-3.1,7.1-6.8,7.1L347.2,32c-3.7,0-6.8-3.2-6.7-7.1v-5.1
				c0-3.9-3-7.1-6.7-7.1H324l-24.4-0.2c-12.1,0-22,9.7-22.1,21.9L276,386.5c0,12.1,9.7,22,21.9,22l143.6,0.7c12.1,0,22-9.7,22-21.9
				L465,35.2c0-12.1-9.7-22-21.9-22l0,0L443.1,13.1z"/>
			<g>
				<g>
					<g>
						<defs>
							<path id="SVGID_00000106836427512195515980000011957585875872894356_" d="M423.8,362.1L317,361.6c-1.1,0-2-1.2-2-2.7V331
								c0.1-1.5,1-2.7,2.1-2.7l106.8,0.5c1.1,0,2,1.2,2,2.7v27.9C425.8,360.9,424.9,362.1,423.8,362.1L423.8,362.1L423.8,362.1z"/>
						</defs>
						<clipPath id="SVGID_00000109733639673436889810000000358476138651889854_">
							<use xlink:href="#SVGID_00000106836427512195515980000011957585875872894356_"  style="overflow:visible;"/>
						</clipPath>
						<g style="clip-path:url(#SVGID_00000109733639673436889810000000358476138651889854_);">
							<rect x="315" y="328.4" class="st2" width="0" height="33.8"/>
							<rect x="315" y="328.4" class="st2" width="24.4" height="33.8"/>
							<rect x="339.4" y="328.4" class="st3" width="24.4" height="33.8"/>
							<rect x="363.8" y="328.4" class="st3" width="3.5" height="33.8"/>
							<rect x="367.3" y="328.4" class="st4" width="3.5" height="33.8"/>
							<rect x="370.8" y="328.4" class="st5" width="3.5" height="33.8"/>
							<rect x="374.2" y="328.4" class="st6" width="3.5" height="33.8"/>
							<rect x="377.7" y="328.4" class="st7" width="3.5" height="33.8"/>
							<rect x="381.2" y="328.4" class="st8" width="3.5" height="33.8"/>
							<rect x="384.7" y="328.4" class="st11" width="3.5" height="33.8"/>
							<rect x="388.2" y="328.4" class="st11" width="1.5" height="33.8"/>
							<rect x="389.6" y="328.4" class="st12" width="1.5" height="33.8"/>
							<rect x="391.1" y="328.4" class="st13" width="1.5" height="33.8"/>
							<rect x="392.5" y="328.4" class="st14" width="1.5" height="33.8"/>
							<rect x="394" y="328.4" class="st15" width="1.5" height="33.8"/>
							<rect x="395.4" y="328.4" class="st16" width="1.5" height="33.8"/>
							<rect x="396.9" y="328.4" class="st17" width="1.5" height="33.8"/>
							<rect x="398.3" y="328.4" class="st18" width="1.5" height="33.8"/>
							<rect x="399.8" y="328.4" class="st19" width="1.5" height="33.8"/>
							<rect x="401.2" y="328.4" class="st20" width="1.5" height="33.8"/>
							<rect x="402.7" y="328.4" class="st21" width="1.5" height="33.8"/>
							<rect x="404.1" y="328.4" class="st22" width="1.5" height="33.8"/>
							<rect x="405.6" y="328.4" class="st23" width="1.5" height="33.8"/>
							<rect x="407" y="328.4" class="st23" width="0.8" height="33.8"/>
							<rect x="407.9" y="328.4" class="st24" width="0.8" height="33.8"/>
							<rect x="408.7" y="328.4" class="st25" width="0.8" height="33.8"/>
							<rect x="409.5" y="328.4" class="st26" width="0.8" height="33.8"/>
							<rect x="410.3" y="328.4" class="st27" width="0.8" height="33.8"/>
							<rect x="411.1" y="328.4" class="st28" width="0.8" height="33.8"/>
							<rect x="411.9" y="328.4" class="st29" width="0.8" height="33.8"/>
							<rect x="412.8" y="328.4" class="st30" width="0.8" height="33.8"/>
							<rect x="413.6" y="328.4" class="st31" width="0.8" height="33.8"/>
							<rect x="414.4" y="328.4" class="st32" width="0.8" height="33.8"/>
							<rect x="415.2" y="328.4" class="st33" width="0.8" height="33.8"/>
							<rect x="416" y="328.4" class="st34" width="0.8" height="33.8"/>
							<rect x="416.8" y="328.4" class="st35" width="0.8" height="33.8"/>
							<rect x="417.7" y="328.4" class="st36" width="0.8" height="33.8"/>
							<rect x="418.5" y="328.4" class="st37" width="0.8" height="33.8"/>
							<rect x="419.3" y="328.4" class="st38" width="0.8" height="33.8"/>
							<rect x="420.1" y="328.4" class="st39" width="0.8" height="33.8"/>
							<rect x="420.9" y="328.4" class="st40" width="0.8" height="33.8"/>
							<rect x="421.8" y="328.4" class="st41" width="0.8" height="33.8"/>
							<rect x="422.6" y="328.4" class="st41" width="0.7" height="33.8"/>
							<rect x="423.2" y="328.4" class="st42" width="0.7" height="33.8"/>
							<rect x="423.9" y="328.4" class="st43" width="0.7" height="33.8"/>
							<rect x="424.6" y="328.4" class="st44" width="0.7" height="33.8"/>
							<rect x="425.2" y="328.4" class="st45" width="0.7" height="33.8"/>
							<rect x="425.9" y="328.4" class="st45" width="0" height="33.8"/>
						</g>
					</g>
					<path d="M423.8,362.6L423.8,362.6L317,362.1c-0.6,0-1.1-0.2-1.5-0.7c-0.6-0.6-0.9-1.5-0.9-2.5V331c0.1-1.7,1.2-3.2,2.6-3.2
						l106.8,0.5c0.6,0,1.1,0.2,1.5,0.7c0.6,0.6,0.9,1.5,0.9,2.5v27.9c-0.1,1-0.5,1.9-1.1,2.5C424.9,362.3,424.3,362.6,423.8,362.6z
						 M317.1,328.9c-0.8,0-1.5,1-1.5,2.2V359c-0.1,0.7,0.1,1.4,0.5,1.8c0.2,0.2,0.5,0.4,0.8,0.4l106.8,0.5c0.4,0,0.7-0.2,0.8-0.4
						c0.4-0.4,0.7-1.1,0.7-1.8v-27.9c0.1-0.7-0.1-1.4-0.5-1.8c-0.2-0.2-0.5-0.4-0.8-0.4L317.1,328.9L317.1,328.9z"/>
				</g>
				<g>
					<g>
						<path d="M346.5,347.6l0.3-0.7c0.6,0.6,1.6,1,2.6,1c1.5,0,2.2-0.6,2.2-1.5c0-2.3-4.9-0.9-4.9-4c0-1.2,0.9-2.3,3-2.3
							c0.9,0,1.8,0.3,2.5,0.8l-0.3,0.7c-0.7-0.5-1.5-0.7-2.2-0.7c-1.5,0-2.1,0.7-2.1,1.5c0,2.3,4.9,0.9,4.9,4c0,1.2-1,2.3-3,2.3
							C348.3,348.7,347.1,348.2,346.5,347.6L346.5,347.6z"/>
						<path d="M354.4,340.3h0.8v8.4h-0.8V340.3z"/>
						<path d="M363.5,344.5h0.8v3.2c-0.8,0.7-1.8,1.1-3,1c-2.4,0-4.2-1.8-4.2-4.3c0-2.4,1.8-4.2,4.3-4.2c1.2,0,2.3,0.4,3,1.2
							l-0.5,0.6c-0.7-0.7-1.5-1-2.4-1c-2,0-3.4,1.5-3.5,3.4c0,2,1.4,3.5,3.4,3.5c0.8,0,1.5-0.2,2.1-0.6L363.5,344.5L363.5,344.5z"/>
						<path d="M373.4,340.4v8.4h-0.7l-5.1-6.8v6.8h-0.9v-8.4h0.7l5.1,6.8v-6.8H373.4z"/>
						<path d="M378.9,345.2v-4.8h0.9v4.8c0,2,0.9,2.9,2.4,2.9c1.6,0,2.5-0.9,2.5-2.9v-4.8h0.8v4.8c0,2.4-1.3,3.6-3.3,3.6
							c-2.1,0-3.3-1.3-3.3-3.7V345.2z"/>
						<path d="M394.4,343.3c0,1.8-1.3,2.8-3.3,2.8h-2.2v2.6h-0.8v-8.4h3c2,0,3.3,1.1,3.3,2.9V343.3z M393.6,343.3
							c0-1.3-0.8-2.1-2.4-2.1h-2.1v4.2h2.1c1.6,0,2.5-0.7,2.5-2.1H393.6z"/>
					</g>
				</g>
			</g>
		</g>
		<g>
			<g>
				
					<rect x="316.7" y="101.5" transform="matrix(5.236017e-03 -1 1 5.236017e-03 198.4158 439.5224)" class="st46" width="6.8" height="37.1"/>
				<g class="st47">
					
						<rect x="316.7" y="101.5" transform="matrix(5.236017e-03 -1 1 5.236017e-03 198.4158 439.5224)" class="st46" width="6.8" height="37.1"/>
				</g>
			</g>
			<path class="st48" d="M446.9,158.3c0,0,0.3,0,0.9-0.2c0.5-0.2,1.3-0.8,1.4-1.9c0-2.3,0-5.6,0-9.9v-9.2c0-0.7,0-1.3-0.4-1.9
				c-0.4-0.5-1-0.9-1.7-0.9h-2.3c-6.1,0-13.1,0-20.8,0c-30.9-0.1-73.5-0.3-120.5-0.4c-0.6,0-1.2,0.3-1.6,0.8s-0.4,1.1-0.4,1.9
				c0,1.5,0,2.9,0,4.4c0,2.9,0,5.8,0,8.7c0,1.4,0,2.9,0,4.3c0,0.7,0,1.5,0,2c0.1,0.6,0.6,1.1,1.1,1.3c0.3,0.1,0.6,0.2,0.9,0.2h3.2
				c1.4,0,2.8,0,4.2,0c11.1,0,21.8,0.1,32,0.2c20.4,0.1,38.7,0.2,54.2,0.3c15.4,0.1,27.9,0.2,36.5,0.3c4.3,0,7.6,0,9.9,0.1
				c1.1,0,2,0,2.6,0s0.9,0,0.9,0s-0.3,0-0.9,0s-1.5,0-2.6,0c-2.3,0-5.6,0-9.9,0c-8.6,0-21.1,0-36.5,0s-33.8-0.1-54.2-0.2
				c-10.2,0-20.9,0-32-0.1c-1.4,0-2.8,0-4.2,0h-3.2c-0.4,0-0.8,0-1.2-0.2c-0.8-0.3-1.4-1-1.6-1.8c-0.1-0.4,0-0.8,0-1.2v-1.1
				c0-1.4,0-2.8,0-4.3c0-2.9,0-5.8,0-8.7c0-1.4,0-2.9,0-4.4c0-0.4,0-0.7,0-1.2c0-0.4,0.2-0.8,0.5-1.2c0.5-0.7,1.3-1.1,2.2-1.1
				c47,0.3,89.6,0.5,120.5,0.7c7.7,0,14.7,0.1,20.8,0.2c0.8,0,1.5,0,2.3,0s1.6,0.4,2,1.1c0.5,0.6,0.5,1.5,0.5,2.1c0,0.7,0,1.3,0,2
				c0,2.6,0,5,0,7.2c0,4.3,0,7.6-0.1,9.9c-0.1,1.2-1,1.8-1.5,2C447.3,158.3,447,158.2,446.9,158.3L446.9,158.3L446.9,158.3z"/>
			<g>
				
					<rect x="316.4" y="163.5" transform="matrix(5.236017e-03 -1 1 5.236017e-03 136.1423 500.7706)" class="st46" width="6.8" height="37"/>
				<g class="st47">
					
						<rect x="316.4" y="163.5" transform="matrix(5.236017e-03 -1 1 5.236017e-03 136.1423 500.7706)" class="st46" width="6.8" height="37"/>
				</g>
			</g>
			<path class="st48" d="M446,220.3c0,0,0.3,0,0.9-0.2c0.5-0.2,1.4-0.6,1.8-1.6c0.2-0.5,0.3-1.1,0.2-1.8v-2.3c0-1.7,0-3.6,0-5.7
				v-9.2c0-0.7,0-1.3-0.4-1.9c-0.4-0.6-0.9-1-1.6-1.2c-0.6-0.2-1.4,0-2.2-0.1c-6.1,0-13.1,0-20.7,0c-30.8-0.1-73.2-0.3-120.1-0.4
				c-1.3,0-2.5,1-2.6,2.3c0,1.4,0,2.9,0,4.3c0,2.9,0,5.8,0,8.6c0,1.4,0,2.8,0,4.3c0,0.7,0,1.4,0,2c0.2,0.6,0.5,1.1,1.1,1.5
				c0.5,0.4,1.1,0.5,1.8,0.5h2.1c1.4,0,2.8,0,4.2,0c11.1,0,21.7,0.1,31.9,0.2c20.3,0.1,38.6,0.2,54,0.3c15.3,0.1,27.8,0.2,36.4,0.3
				c4.3,0,7.6,0,9.9,0.1c1.1,0,2,0,2.6,0s0.9,0,0.9,0s-0.3,0-0.9,0s-1.5,0-2.6,0c-2.3,0-5.6,0-9.9,0c-8.6,0-21,0-36.4,0
				s-33.7-0.1-54-0.2c-10.2,0-20.8,0-31.9-0.1c-1.4,0-2.8,0-4.2,0h-2.1c-0.7,0-1.6-0.1-2.2-0.6c-0.6-0.4-1.1-1.1-1.4-1.9
				c-0.2-0.8,0-1.5-0.1-2.2c0-1.4,0-2.8,0-4.3c0-2.8,0-5.7,0-8.6c0-1.5,0-2.9,0-4.4c0.2-1.7,1.7-3,3.4-3
				c46.9,0.3,89.3,0.5,120.1,0.7c7.7,0,14.6,0.1,20.7,0.2c0.8,0,1.5,0,2.3,0.2s1.4,0.8,1.8,1.4c0.4,0.6,0.5,1.4,0.5,2.1
				c0,0.7,0,1.3,0,2c0,2.6,0,5,0,7.2c0,2.1,0,4.1,0,5.7c0,0.8,0,1.6,0,2.3s0,1.4-0.3,1.9c-0.5,1.1-1.4,1.5-1.9,1.6
				c-0.6,0.1-0.9,0-0.9,0l0,0L446,220.3z"/>
			<g>
				
					<rect x="316.1" y="228.2" transform="matrix(5.236017e-03 -1 1 5.236017e-03 71.053 565.0177)" class="st46" width="6.8" height="37.1"/>
				<g class="st47">
					
						<rect x="316.1" y="228.2" transform="matrix(5.236017e-03 -1 1 5.236017e-03 71.053 565.0177)" class="st46" width="6.8" height="37.1"/>
				</g>
			</g>
			<path class="st48" d="M445.7,285c0,0,0.3,0,0.9-0.2c0.5-0.2,1.4-0.6,1.8-1.6c0.2-0.5,0.3-1.1,0.2-1.8v-17.2c0-0.7,0-1.3-0.4-1.9
				s-0.9-1-1.6-1.2c-0.6-0.2-1.4,0-2.2-0.1c-6.1,0-13.1,0-20.7,0c-30.8-0.1-73.2-0.3-120.1-0.4c-1.3,0-2.5,1-2.6,2.3
				c0,1.4,0,2.9,0,4.3c0,2.9,0,5.8,0,8.6c0,1.4,0,2.8,0,4.3c0,0.7,0,1.4,0,2c0.2,0.6,0.5,1.1,1.1,1.5c0.5,0.4,1.1,0.5,1.8,0.5h2.1
				c1.4,0,2.8,0,4.2,0c11.1,0,21.7,0.1,31.9,0.2c20.3,0.1,38.6,0.2,54,0.3c15.4,0.1,27.8,0.2,36.4,0.3c4.3,0,7.6,0,9.9,0.1
				c1.1,0,2,0,2.6,0s0.9,0,0.9,0s-0.3,0-0.9,0s-1.5,0-2.6,0c-2.3,0-5.6,0-9.9,0c-8.6,0-21,0-36.4,0s-33.7-0.1-54-0.2
				c-10.2,0-20.8,0-31.9-0.1c-1.4,0-2.8,0-4.2,0h-2.1c-0.7,0-1.6-0.1-2.2-0.6c-0.6-0.4-1.1-1.1-1.4-1.9c-0.2-0.8,0-1.5-0.1-2.2
				c0-1.4,0-2.8,0-4.3c0-2.9,0-5.7,0-8.6c0-1.5,0-2.9,0-4.4c0.2-1.7,1.7-3,3.4-3c46.9,0.3,89.3,0.5,120.1,0.7
				c7.7,0,14.6,0.1,20.7,0.2c0.8,0,1.5,0,2.3,0.2s1.4,0.8,1.8,1.4s0.5,1.4,0.5,2.1s0,1.3,0,2c0,2.6,0,5,0,7.2s0,4.1,0,5.7
				c0,0.8,0,1.6,0,2.3c0,0.7,0,1.4-0.3,1.9c-0.5,1.1-1.4,1.5-1.9,1.6c-0.6,0.1-0.9,0-0.9,0l0,0L445.7,285z"/>
			<g>
				<g>
					<path class="st46" d="M317,273.3c0,1.7-1.3,3.2-3,3.2s-3-1.4-2.9-3.2c0-1.7,1.3-3.2,3-3.2S317.1,271.5,317,273.3z"/>
					<path class="st46" d="M326.2,273.3c0,1.7-1.3,3.2-3,3.2s-3-1.4-2.9-3.2c0-1.7,1.3-3.2,3-3.2S326.3,271.5,326.2,273.3z"/>
					<path class="st46" d="M335.4,273.4c0,1.7-1.3,3.2-3,3.2s-3-1.4-2.9-3.2c0-1.7,1.3-3.2,3-3.2S335.5,271.6,335.4,273.4z"/>
					<path class="st46" d="M344.6,273.4c0,1.7-1.3,3.2-3,3.2s-3-1.4-3-3.2c0-1.7,1.3-3.2,3-3.2S344.6,271.6,344.6,273.4z"/>
					<path class="st46" d="M353.8,273.4c0,1.8-1.3,3.2-3,3.2s-3-1.4-3-3.2c0-1.8,1.3-3.2,3-3.2S353.8,271.6,353.8,273.4z"/>
					<path class="st46" d="M362.9,273.5c0,1.8-1.3,3.2-3,3.2s-3-1.4-3-3.2c0-1.8,1.3-3.2,3-3.2S362.9,271.7,362.9,273.5z"/>
					<path class="st46" d="M372.1,273.5c0,1.8-1.3,3.2-3,3.2s-3-1.4-3-3.2c0-1.8,1.3-3.2,3-3.2S372.1,271.7,372.1,273.5z"/>
					<path class="st46" d="M381.3,273.6c0,1.8-1.3,3.2-3,3.2s-3-1.4-3-3.2c0-1.7,1.3-3.2,3-3.2S381.3,271.8,381.3,273.6z"/>
					<path class="st46" d="M390.5,273.6c0,1.7-1.3,3.2-3,3.2s-3-1.4-3-3.2c0-1.7,1.3-3.2,3-3.2S390.5,271.8,390.5,273.6z"/>
				</g>
				<g class="st49">
					<path class="st46" d="M317,273.3c0,1.7-1.3,3.2-3,3.2s-3-1.4-2.9-3.2c0-1.7,1.3-3.2,3-3.2S317.1,271.5,317,273.3z"/>
					<path class="st46" d="M326.2,273.3c0,1.7-1.3,3.2-3,3.2s-3-1.4-2.9-3.2c0-1.7,1.3-3.2,3-3.2S326.3,271.5,326.2,273.3z"/>
					<path class="st46" d="M335.4,273.4c0,1.7-1.3,3.2-3,3.2s-3-1.4-2.9-3.2c0-1.7,1.3-3.2,3-3.2S335.5,271.6,335.4,273.4z"/>
					<path class="st46" d="M344.6,273.4c0,1.7-1.3,3.2-3,3.2s-3-1.4-3-3.2c0-1.7,1.3-3.2,3-3.2S344.6,271.6,344.6,273.4z"/>
					<path class="st46" d="M353.8,273.4c0,1.8-1.3,3.2-3,3.2s-3-1.4-3-3.2c0-1.8,1.3-3.2,3-3.2S353.8,271.6,353.8,273.4z"/>
					<path class="st46" d="M362.9,273.5c0,1.8-1.3,3.2-3,3.2s-3-1.4-3-3.2c0-1.8,1.3-3.2,3-3.2S362.9,271.7,362.9,273.5z"/>
					<path class="st46" d="M372.1,273.5c0,1.8-1.3,3.2-3,3.2s-3-1.4-3-3.2c0-1.8,1.3-3.2,3-3.2S372.1,271.7,372.1,273.5z"/>
					<path class="st46" d="M381.3,273.6c0,1.8-1.3,3.2-3,3.2s-3-1.4-3-3.2c0-1.7,1.3-3.2,3-3.2S381.3,271.8,381.3,273.6z"/>
					<path class="st46" d="M390.5,273.6c0,1.7-1.3,3.2-3,3.2s-3-1.4-3-3.2c0-1.7,1.3-3.2,3-3.2S390.5,271.8,390.5,273.6z"/>
				</g>
			</g>
		</g>
	</g>
	<g>
		<path class="st0" d="M204.2,397.4c-10.7,14.8-18.8,40.1-25,69.4c-0.4,1.9-5.1,36.1-3.2,36.7c39.4,12.4,42.2,12.4,68.6,14.1
			c6.7,0.4,34.9,0,54.4-0.6c1.7,0,3.1-1.2,3.1-2.8c-2.4-44.5-6.6-98.1-6.6-98.1L204.2,397.4L204.2,397.4z"/>
		<path d="M302.1,514.8c-0.3,0-0.5-0.2-0.6-0.5c-2.3-41.9-6.2-92.5-6.6-97.7l-90.5-18.5c-9.6,13.4-17.9,36.6-24.7,68.9
			c-0.6,2.8-4.6,33.7-3.4,36.1c0.2,0.1,0.3,0.4,0.2,0.6c0,0.3-0.4,0.5-0.7,0.4c-0.7-0.2-1.6-0.5,0.3-18.4c0.9-8.7,2.2-17.8,2.4-18.9
			c6.9-32.7,15.4-56.2,25.1-69.7c0.1-0.2,0.3-0.3,0.6-0.2l91.3,18.7c0.2,0,0.4,0.3,0.4,0.5c0,0.5,4.2,54.1,6.6,98.1
			c0,0.3-0.2,0.6-0.5,0.6l0,0L302.1,514.8z"/>
		<g>
			<g>
				<path class="st0" d="M318.2,286.8c0,0,24.7,16.6,36.2,13.5c16.2-4.4,23.4-45.7,24.1-49.4s3.8-22.3,7.1-29.2
					c3-6.5,4.9-13.2,5.9-17.3c0.6-2.5,2.3-3.7,4-3.4c1.5,0.2,2.4,1.4,1.6,5.1c-1,4.3-1.8,8.6-2.6,12.2c-0.2,1.2-0.7,2.2,0.1,1.4
					c1.9-1.9,4.9-4,8-5.1c1.4-0.4,12.1-12.1,15-10.7c2.6,1.3-12,17.2-11.4,19.2c1.4,4.7,0.6,11-1.7,16.7
					c-3.9,9.7-10.1,8.6-11.2,13.1s-6.7,62.3-11.2,72.8c-6.5,15.2-68.3,4.1-68.3,4.1L318.2,286.8L318.2,286.8L318.2,286.8z"/>
				<path d="M354.4,334.4c-18.5,0-39.3-3.7-40.8-3.9c-0.3,0-0.5-0.3-0.5-0.6l4.5-43c0-0.2,0.1-0.4,0.3-0.4c0.2,0,0.4,0,0.6,0
					c0.2,0.2,24.6,16.4,35.7,13.4c13.9-3.8,21.1-35.2,23.6-48.5v-0.5c0.2-0.4,0.3-1,0.4-1.8c1.1-5.8,3.9-21.3,6.8-27.6
					c3-6.3,4.8-12.8,5.8-17.2c0.6-2.6,2.5-4.2,4.6-3.8c0.8,0.1,1.4,0.5,1.8,1.1c0.6,0.9,0.7,2.5,0.2,4.7c-0.6,2.7-1.1,5.3-1.7,7.9
					c-0.3,1.5-0.6,2.9-0.9,4.3c0,0,0,0,0,0.1c1.8-1.6,4.5-3.4,7.4-4.4c0.3-0.1,1.9-1.5,3.2-2.7c5.4-5,10.1-9,12.2-7.9
					c0.3,0.2,0.5,0.4,0.6,0.7c0.4,1.6-2.3,5.3-6.7,11.3c-2.1,2.8-5,6.7-5,7.5c1.4,4.5,0.8,10.9-1.7,17c-2.3,5.7-5.5,7.8-7.8,9.4
					c-1.7,1.1-2.9,1.9-3.3,3.7c-0.3,1.3-1,7.2-1.9,14.8c-2.3,18.9-6.1,50.6-9.3,58.2c-2.7,6.5-14.8,8.4-28.2,8.4l0,0L354.4,334.4z
					 M314.3,329.4c6,1,61.3,10,67.2-3.9c3.2-7.4,6.9-39,9.2-57.9c0.9-7.9,1.6-13.5,1.9-14.9c0.5-2.2,2-3.2,3.8-4.3
					c2.3-1.6,5.2-3.5,7.4-8.9c2.4-5.9,3-12,1.6-16.3c-0.3-1,1.2-3.1,5.2-8.5c2.6-3.5,7-9.3,6.5-10.3c-1.6-0.8-7.9,5-10.9,7.8
					c-2.1,1.9-3.1,2.8-3.6,3c-3.2,1.1-6.2,3.3-7.8,4.9c-0.2,0.2-0.6,0.6-1.1,0.4c-0.5-0.3-0.3-0.8-0.1-1.6c0-0.2,0.1-0.5,0.2-0.8
					c0.3-1.3,0.6-2.8,0.9-4.3c0.5-2.6,1.1-5.2,1.7-7.9c0.4-1.8,0.4-3.1,0-3.8c-0.2-0.3-0.6-0.5-1.1-0.6c-1.5-0.2-2.8,1-3.3,3
					c-1,4.4-2.9,11-5.9,17.4c-2.8,6.1-5.6,21.5-6.7,27.3c-0.1,0.8-0.2,1.4-0.3,1.8v0.5c-2.6,13.5-10,45.4-24.5,49.4
					c-1,0.3-2.2,0.4-3.4,0.4c-11.2,0-28.6-10.9-32.5-13.4l-4.4,41.6l0,0L314.3,329.4z"/>
			</g>
			<path class="st9" d="M214.4,264.4c29.7-13.3,87.2-10.5,127.5,32.8c4.7,5.1-8.9,43.5-21.2,40.8c-10.8-2.3-19.6-5-20.4,1.2
				c-1.1,8.6,6.6,77.8-4.7,97.3c-20.1,34.8-80.2,29.6-111.1,12.7c-8.2-4.5,0.4-16.8,6.4-57.1c4.5-30,7.1-54.8,1.5-45.3
				c-2.7,4.7-31.1-23.6-28.2-32.1c6.5-18.5,17.9-36,50-50.3l0,0L214.4,264.4z"/>
			<path class="st9" d="M372,254.6l23.8,3.2c1.6,54.9-3.6,94.3-75,80.1l9.6-51.1C357,305.4,366.9,282.8,372,254.6L372,254.6
				L372,254.6z"/>
			<path class="st9" d="M171,301c-34.7,50.4-14.8,153.6,32.3,154.4l-1.2-44.6c-3.9-5-5.9-54.2,1.5-69.8L171,301L171,301z"/>
			<path class="st0" d="M182.5,448.1c0,0,0,0-0.2,0c-0.3,0-0.5-0.4-0.4-0.7c7-25.2,10.9-65.4,12.2-94.7c0-0.3,0.3-0.6,0.6-0.5
				c0.3,0,0.6,0.3,0.5,0.6c-1.3,29.4-5.2,69.7-12.3,95c0,0.2-0.3,0.4-0.5,0.4l0,0L182.5,448.1z"/>
		</g>
		<g>
			<g>
				<path class="st0" d="M232.4,259.8c0.3-1.2,12-10.9,8.9-32.7c0,0-15.8-21.5-11-31s4.4-23.5,20.6-23.6s25.7,7.1,29.4,16.6
					s4.7,18.9,5.1,24.4c0.2,4.1-0.3,13.1-0.6,17.6c-0.1,1.5-1.2,2.8-2.6,3.2l-4.9,1.4c-1.6,0.4-2.7,1.9-2.6,3.6l0.2,8.7
					c0.8,21.3-6.1,18.4-11.2,19.5c-12.9,2.9-32.9-1.4-31.2-7.6l0,0L232.4,259.8z"/>
				<path d="M254.2,269c-8.8,0-17.9-2.2-21.2-5.6c-1.1-1.2-1.5-2.4-1.2-3.7c0-0.3,0.4-0.6,0.9-1.3c2.6-3.2,10.5-12.8,8-31
					c-1.4-1.9-15.8-22-11-31.5c1.1-2.2,2-4.8,2.8-7.3c2.7-8.1,5.6-16.5,18.2-16.6c14.7,0,25.6,6.1,29.9,16.9
					c2.8,7.1,4.5,15.3,5.1,24.5c0.2,4-0.3,12.8-0.6,17.7c-0.1,1.8-1.3,3.3-3,3.7l-4.9,1.4c-1.3,0.4-2.3,1.6-2.2,3l0.2,8.7
					c0.7,18.7-4.7,19.3-9.4,19.8c-0.8,0-1.5,0.2-2.2,0.3C260.7,268.7,257.4,269,254.2,269L254.2,269L254.2,269z M232.9,260
					c-0.2,0.9,0,1.7,0.9,2.6c4.2,4.4,19.4,6.6,29.6,4.3c0.8-0.2,1.6-0.3,2.4-0.3c4.4-0.5,9-0.9,8.4-18.6l-0.2-8.7
					c0-1.9,1.2-3.6,3.1-4.1l4.9-1.4c1.2-0.3,2.1-1.4,2.2-2.7c0.3-4.8,0.8-13.6,0.6-17.5c-0.6-9.1-2.3-17.2-5-24.2
					c-4.1-10.4-14.6-16.3-28.9-16.2c-11.9,0-14.4,7.7-17.2,15.8c-0.9,2.5-1.7,5.1-2.9,7.5c-4.6,9.1,10.8,30.2,11,30.4
					c0,0,0,0.2,0.1,0.2c2.6,18.8-5.6,28.7-8.2,32c-0.3,0.4-0.6,0.8-0.7,0.9l0,0H232.9z"/>
			</g>
			<path class="st9" d="M274.8,203.7c2-0.8,3.2-2.7,3.3-4.8c0-2.5-1.5-8.4,2.2-9.7c10-3.6,6.1-15.6,0.2-20s-29.1-11.8-40.9-5.4
				c0,0-4.6,3.9-3.6,7.8c0,0-9.4,0.3-11.5,7.2c-2.2,6.9-5.9,32.4,17.4,51.6c0,0,6,0.7,12.7-1.1c3.9-1,6.7-4.4,7.3-8.4
				c0.8-6.1,3.3-15.5,5-18.3c0,0-1.1-4.3,1.4-5.4c1.6-0.7,3.5,1.1,4.4,2.6l2.2,4l0,0L274.8,203.7z"/>
			<path d="M284.1,233.2L284.1,233.2c0,0-8.8-1.6-10.8-11c0-0.3,0.1-0.6,0.4-0.7c0.3,0,0.6,0.1,0.7,0.4c1.9,8.7,9.8,10.1,9.9,10.1
				c0.3,0,0.5,0.3,0.5,0.7c0,0.3-0.3,0.5-0.6,0.5l0,0H284.1z"/>
			<path d="M273.2,213.3L273.2,213.3c-0.3,0-7.3-0.3-9.2-12.7c0-0.3,0.2-0.6,0.5-0.6s0.6,0.2,0.6,0.5c1.7,11.4,7.8,11.8,8.1,11.8
				c0.3,0,0.6,0.3,0.5,0.6c0,0.3-0.3,0.6-0.6,0.6l0,0L273.2,213.3z"/>
		</g>
	</g>
</g>
<path class="st9" d="M689.6,248.7c-5.6,5.3-10.6,11.5-14,18.5c-3.7,7.3-7.7,16.1-2.6,23.6s15.3,7.6,23.4,6
	c8.1-1.5,15.1-5.5,21.3-10.9l-19.3-8c0,2.9-0.1,5.9-0.2,8.8c-0.2,7.1,7.4,13.2,14.4,10.9c12.5-4,22.3-11.4,30.3-21.8
	c3-3.9,1.5-10.5-1.7-13.7c-3.6-3.6-9.4-4.2-13.7-1.7c-7,4-9.5,12.2-6.9,19.6c3.1,8.8,12.3,12.4,21.2,11.4
	c14.6-1.7,28.6-9.9,38.3-20.7c7.1-7.8,0.3-22.9-11-19c-8.1,2.8-13.3,11-10.7,19.6c2.3,7.8,9.7,12,17.3,13.1
	c14.1,2.1,28.8-3.3,38.2-14.1c8.4-9.6-2.1-24-13.7-17.8c-14.1,7.4-9.6,29.1,4.5,33.7c8.2,2.6,16.7-0.2,23.3-5.2
	c5.2-3.9,9-9.8,14.8-12.6L826,255.6c-5,12.3,5,24.4,16.1,28.4c5.9,2.2,12.3,1.6,18.3,0.3c3.9-0.8,11.9-4.1,14.5-3.1l-5-2.9
	c1.7,1.5,3,4.5,4.9,6.4c2.5,2.4,5.7,4,9.1,4.7c6.4,1.5,13.1,0.1,19.1-1.8c13.4-4.3,25.4-11.4,35.8-20.7l-18.9-11
	c-3.3,9.5-2.3,21.6,8.2,26.1c11,4.7,24-4.5,33.7-9.1c-5.5-4.2-11.1-8.5-16.6-12.8c-1,2.7-2.1,5.5-3,8.2c-3,8.3,6.2,16.2,13.9,13.9
	c5.9-1.7,11.7-4,17.2-6.8c-5.5-4.2-11.1-8.5-16.6-12.8c-1.4,4.4-3.6,8.6-6.6,12.2c-3,3.6-4.3,7.9-2.4,12.4c1.7,3.9,5.8,7.3,10.4,6.9
	c6.9-0.5,13.1-2.3,19.3-5.1c2.5-1.1,4.9-2.3,7.2-3.6c1.3-0.6,2.7-1.4,4-2.2l1.6-0.9c3.2-1.3,1.9-1.7-3.7-1.1l-4.1-4.1l0.3,0.8
	l-1.2-8.7l-0.2,0.8l2.9-5l3-1.5h6l-0.5-0.2c2.6,2.6,5.3,5.3,7.9,7.9l-0.2-0.6c-1.7,4.2-3.5,8.5-5.2,12.8c17.2-11,35.5-19.5,55-25.5
	c-3.7-6.3-7.3-12.6-11-18.9c-6.4,6-12.8,12-19.2,18c-9.7,9.1,2.6,23.6,13.7,17.8c7.8-4,15.6-7.4,23.9-10.4
	c-4.3-5.5-8.5-11.1-12.8-16.6c-3.5,7.4-7.9,13.6-14,19c-8.2,7.2,0.4,23,11,18.9c10.6-4.1,20.5-7.9,30.8-11.9
	c-3.7-6.3-7.3-12.6-11-18.9c-7,7.4-14.1,14.9-21.3,22.2c-9.2,9.6,2.4,23.3,13.7,17.8c15.1-7.2,30.1-14.5,45.2-21.7
	c-4.5-5.9-9.2-11.9-13.7-17.8c-4.5,5.3-9.6,10.1-15,14.5c-8.6,7,0.6,22.9,11,19c13.3-5.1,26.4-10.1,39.7-15.2
	c-4.3-5.5-8.5-11.1-12.8-16.6c-3.3,5-7.6,9.6-12.3,13.3c-3.7,2.8-6.2,6.4-5.4,11.3c0.6,4.1,3.7,8.6,8.1,9.4
	c6.4,1.1,12.2,1.2,18.5-0.2c12.7-2.7,9.5-22.2-3-22.2c-20.4,0-40.7-0.2-61.1-0.2c-9.3,0-18.9-0.6-28.2,0
	c-9.3,0.6-17.2,3.5-21.8,11.5c-2.8,4.9-1.5,11.2,2.9,14.7c4.1,3.1,11.2,3.6,14.9-0.9c2.6-3.1,5.2-6.4,7.8-9.5
	c6.5-7.9,2.1-18.3-8-19.3c-18.3-1.9-37-1-55.4-0.9c-18.3,0.1-37.2,0.1-55.8,0.2s-36.4,0.4-54.5,2.5c-9.2,1.1-18.1,2.6-27.2,4.4
	c-8.5,1.7-16.8,3.5-25.5,2.9c-18.7-1.2-35.6-10.7-54.6-9l10.9,14.4c2.2-7,3.1-14.4,2.7-21.7c-0.3-5.5-5-12.2-11.3-11.3
	c-16.7,2.3-33.6,3.7-50.5,4.5l5.7,21.2c1.8-1.3,1-0.2,0-0.4c0.4,0,1.3,0.1,1.6,0.4c1.6,1,3.2,2.1,4.9,3.1c4.5,3,9.5,5.6,14.9,6.6
	c10.9,2.2,21.8,0.2,32.6-2.4c22.1-5.3,43.6-13,65-20.6c-3.7-6.3-7.3-12.6-11-18.9l-8.2,8.6c-9.2,9.7,2.3,23.1,13.7,17.8
	c8.1-3.8,17.1-6.3,25.8-6.9c4.6-0.4,9.4-0.4,14-0.1c1.8,0.1,3.6,0.3,5.4,0.5c1.8,0.2,3.5,1.5,0.3-1.2c-3.5-3-1.2,0.8,0,2.7
	c5.3,9.1,19,10.1,28.3,10.3c5.3,0,10.6-0.6,15.8-1.8c5.2-1.2,9.8-3.5,14.8-4.2c8.6-1.3,17.6,3.3,26.1,4.6c11.2,1.7,22.1,0,33.2-1.9
	c20.6-3.8,41.1-6,61.9-3.6c24.1,2.8,47.2,8.5,71.4,4.5c6-1,9.4-8.5,7.9-13.9c-1.7-6.4-7.9-8.8-13.9-7.9c-19.4,3.1-39.2-1.8-58.4-4.5
	c-20.8-2.8-41-2.1-61.7,1.2c-9.7,1.5-19.5,4.1-29.4,4.3c-8.7,0.2-16.6-3.2-25.1-4.7c-11-1.9-19.5,0.6-30,3.6
	c-4.2,1.2-8.2,1.7-12.6,1.7c-2.3,0-4.5-0.1-6.8-0.5c-1.3-0.2-2.6-0.5-3.9-0.9c-1.9-0.5-1.8-0.5,0.1,0l2.9,5c-3-7.3-5.6-12.7-14-14.5
	c-7-1.5-14.6-1.9-21.7-1.7c-14.7,0.5-28.7,4.2-42,10.4c4.5,5.9,9.2,11.9,13.7,17.8l8.2-8.6c7.3-7.8,0.2-22.9-11-18.9
	c-22,7.8-44.1,15.8-67,21c-8.5,1.9-17.9,3.9-25.7-1c-9.5-5.9-20.8-12.3-31.5-4.5c-4.1,3-6.6,7.6-5.2,12.8c1.3,4.6,5.9,8.5,10.9,8.3
	c16.8-0.9,33.7-2.4,50.5-4.5L738.7,258c0.3,5.5-0.2,10.5-1.8,15.8c-2.1,6.6,3.7,15,10.9,14.4c16.2-1.4,31.2,5.8,47.1,8.1
	c18.6,2.7,35.9-2.8,54.2-5.6c35.8-5.5,73-3.3,109.1-3.6c20.8,0,42.1-1.3,62.8,0.9c-2.7-6.5-5.4-12.8-8-19.3
	c-2.6,3.1-5.2,6.4-7.8,9.5c5.9,4.5,11.9,9.2,17.8,13.7c-0.1,0.2-0.6,0.4-0.9,0.4c-0.5,0,3.8-0.9,2.5-0.6c3.5-0.5,7.1-0.1,10.6-0.1
	c9,0,17.8,0,26.8,0.1c17.5,0,35,0.2,52.6,0.2l-3-22.2c-2.2,0.4-4.3,0.5-6.5,0.2l2.7,20.7c8.1-6.2,14.7-13,20.4-21.4
	c5.4-7.8-3.7-20.2-12.8-16.6c-13.3,5.1-26.4,10.1-39.7,15.2c3.7,6.3,7.3,12.6,11,19c5.4-4.4,10.5-9.2,15-14.5
	c8.5-9.8-2.1-23.4-13.7-17.8c-15.1,7.2-30.1,14.5-45.2,21.7c4.5,5.9,9.2,11.9,13.7,17.8c7-7.4,14.1-14.9,21.3-22.2
	c7.2-7.6,0.1-23.2-11-19c-10.3,4-20.5,7.9-30.8,11.9c3.7,6.3,7.3,12.6,11,18.9c7.4-6.5,13.5-14.6,17.6-23.5
	c1.9-4.2,2.2-8.7-0.9-12.6c-2.7-3.3-7.6-5.6-11.9-4.1c-10,3.6-19.7,7.8-29.2,12.6c4.5,5.9,9.2,11.9,13.7,17.8c6.4-6,12.8-12,19.2-18
	c8.2-7.7-0.3-22.2-11-18.9c-21.3,6.5-41.7,15.8-60.4,27.7c-4.1,2.6-6.8,7.9-5.2,12.8c2.8,8.6,12.7,12.1,20,6
	c7.2-6,6.5-16.8-1.8-21.6c-12.7-7.3-26.3,9.2-39,10.3c2.7,6.5,5.4,12.8,8,19.3c5.6-6.7,9.7-13.8,12.4-22.2
	c3.2-10-8.3-17.1-16.6-12.8c-3.8,1.9-7.7,3.3-11.8,4.5c4.6,4.6,9.3,9.3,13.9,13.9c1-2.7,2.1-5.5,3-8.2c3.8-10.1-8.6-16.5-16.6-12.8
	c-4.5,2.2-10.6,3.9-14.7,6.8c-0.4,0.3-1,0.4-1.4,0.5c3.6,0.5,5.7,2.1,6.5,4.7c-0.2,0.2,0.8-2.9,1.1-3.6c4-11.4-11.1-17.9-18.9-11
	c-6.2,5.4-13.2,9.9-20.8,13.1c-3.2,1.4-8.1,3.1-11,3.5c-1.5-0.2-1.8-0.1-1.1,0.2c-1.8-0.6-1.7-0.3,0.4,0.6c-0.6-1.2-1.4-2.6-2.4-3.9
	c-7.6-9.2-19.1-5.6-29-3c-3.1,0.9-7.4,2.4-10.1,1c-0.3-0.1-1.4-0.9-1.2-0.8c-1-1.8-1-1.5-0.2,0.9c-0.2,0.9,0,0.6,0.4-0.9
	c1.6-4.1-0.9-9.5-4.1-11.9c-3.8-2.9-8.3-3-12.6-0.9c-6.7,3.2-10.7,9.1-16.2,13.6c-0.8,0.6-2.6,1.4-3,1.9c-1,1.2-1.3-1.4,0.2,0.9
	c0.9,1.3,1.5,0.6,1.8,2.4c0.2,1.5-1.3,3.9-2.5,4.5c-4.5-5.9-9.2-11.9-13.7-17.8c-3,3.5-6.5,6-11,7.3c-1.9,0.5-3.7,0.8-5.7,0.8
	c-0.4,0-2.5-0.2-2.4-0.2l-1.4-0.4c3.2,1.5,3.9,4.6,1.6,9.3l-5,2.9l1.1-0.3c-3.7-6.3-7.3-12.6-11-19c-4.2,4.6-8.8,8.3-14.5,11
	c-2.5,1.2-5,2.1-7.7,2.7c-0.5,0.1-3.1,0.5-3.2,0.5l0,0c4.5,3,4.6,6.6,0.2,10.9l-15.5-15.5c-4.2,5.4-10.4,9.3-16.8,11.3l14.4,10.9
	c0-2.9,0.1-5.9,0.2-8.8c0.2-10.4-12.3-14.2-19.3-8c-2.1,1.8-4.5,3.2-7.1,4.1c-1.3,0.4-2.8,0.9-4.2,1c-0.6,0-1.2,0-1.8,0
	c-2.3-0.1-2.3,0,0,0.3l4.1,4.1c0,4.4,0.4,5.2,1.2,2.3c0.2-0.8,0.5-1.5,1-2.2c0.9-1.8,1.9-3.7,3-5.4c2.2-3.5,4.9-6.5,7.9-9.3
	c10.6-10-5.4-26.1-16.1-16l0,0L689.6,248.7z"/>
<g>
	<g>
		<path class="st50" d="M344.2,66.4h12.5l-7.3,12.9h6.9v3.5h-13.2l7.4-12.9h-6.2L344.2,66.4L344.2,66.4L344.2,66.4z"/>
		<path class="st50" d="M373.8,75.8h-13.2c0.2,1.2,0.7,2.1,1.5,2.8c0.8,0.7,1.9,1,3.2,1s2.9-0.5,4-1.6l3.5,1.6
			c-0.9,1.2-1.9,2.1-3.1,2.7s-2.6,0.9-4.3,0.9c-2.6,0-4.6-0.8-6.3-2.4c-1.6-1.6-2.4-3.6-2.4-6.1s0.8-4.6,2.4-6.2
			c1.6-1.7,3.6-2.5,6-2.5s4.7,0.8,6.3,2.5c1.6,1.7,2.4,3.8,2.4,6.5V75.8C373.8,75.8,373.8,75.8,373.8,75.8z M369.7,72.6
			c-0.3-0.9-0.8-1.7-1.6-2.2c-0.8-0.6-1.7-0.9-2.8-0.9s-2.1,0.3-3,1c-0.5,0.4-1,1.1-1.5,2.1H369.7L369.7,72.6z"/>
		<path class="st50" d="M375.4,66.4h4.1v1.7c0.9-0.8,1.8-1.3,2.5-1.6s1.5-0.5,2.3-0.5c1.6,0,3,0.6,4.1,1.7c1,1,1.4,2.4,1.4,4.3v10.8
			h-4v-7.2c0-1.9,0-3.2-0.3-3.9s-0.5-1.1-0.9-1.5c-0.4-0.3-1-0.5-1.6-0.5s-1.5,0.3-2.1,0.8c-0.6,0.6-1,1.3-1.2,2.3
			c-0.1,0.5-0.2,1.6-0.2,3.3v6.6h-4.1L375.4,66.4L375.4,66.4L375.4,66.4z"/>
		<path class="st50" d="M408.2,69.7l-3.4,1.9c-0.6-0.7-1.3-1.1-1.9-1.4s-1.4-0.4-2.2-0.4c-1.5,0-2.8,0.5-3.7,1.4s-1.4,2.1-1.4,3.5
			s0.5,2.5,1.4,3.4s2.1,1.3,3.6,1.3s3.3-0.6,4.3-1.9l3.2,2.2c-1.8,2.3-4.2,3.4-7.4,3.4s-5.1-0.8-6.8-2.6c-1.6-1.7-2.4-3.7-2.4-6
			s0.4-3,1.2-4.4s1.9-2.4,3.3-3.1c1.4-0.8,3-1.1,4.8-1.1s3.1,0.3,4.4,1s2.4,1.6,3.2,2.8l0,0L408.2,69.7z"/>
		<path class="st50" d="M408.2,66.4h4.2l4.2,10.2l4.7-10.2h4.2l-10.2,22.3h-4.2l3.4-7.2l-6.2-15.1l0,0H408.2z"/>
	</g>
	<g>
		<path class="st50" d="M328.6,83.2L328.6,83.2c-0.5,0-0.9-0.2-1.2-0.7L316,63.9c-0.8-1.3-0.8-2.8,0-4.1s2-2.1,3.5-2.1h18.3
			c1.5,0,2.8,0.8,3.5,2.1s0.7,2.8,0,4.1l-1.2-0.7l1.2,0.7l-11.4,18.6C329.7,82.9,329.2,83.2,328.6,83.2L328.6,83.2L328.6,83.2z
			 M319.4,60.6c-0.7,0-1,0.5-1.1,0.7s-0.3,0.7,0,1.3l10.3,16.7l10.3-16.7l0,0c0.4-0.6,0.1-1.1,0-1.3s-0.5-0.7-1.1-0.7L319.4,60.6
			L319.4,60.6L319.4,60.6z"/>
		<path class="st50" d="M337.7,91.3h-18.3c-1.5,0-2.8-0.8-3.5-2.1s-0.7-2.8,0-4.1l0,0l11.4-18.6c0.2-0.4,0.7-0.7,1.2-0.7l0,0
			c0.5,0,0.9,0.2,1.2,0.7l11.4,18.6c0.8,1.3,0.8,2.8,0,4.1C340.4,90.5,339.1,91.3,337.7,91.3L337.7,91.3z M318.3,86.6
			c-0.4,0.6-0.1,1.1,0,1.3s0.4,0.7,1.1,0.7h18.3c0.7,0,1-0.5,1.1-0.7s0.3-0.7,0-1.3l-10.3-16.7L318.3,86.6L318.3,86.6L318.3,86.6z"
			/>
	</g>
</g>
<g>
	<path d="M686.8,203.4c-0.2-0.7-0.6-0.9-1.4-0.9h-0.8v-4.7h3.6c2.1,0,3.3,0.5,3.7,2.5l4.1,18c0.4,1.7,0.5,3.2,0.5,3.2h0.1
		c0,0,0.2-1.4,0.6-3.2l5.5-20.4h4.7l5.2,20.4c0.5,1.7,0.6,3.2,0.6,3.2h0.1c0,0,0.1-1.5,0.5-3.2l4.2-18c0.4-2,1.6-2.5,3.7-2.5h3.7
		v4.7h-0.8c-0.8,0-1.2,0.2-1.4,0.9l-6.3,24.5h-6.4l-4.6-17.1c-0.5-1.9-0.8-3.7-0.8-3.7h-0.1c0,0-0.3,1.8-0.8,3.7l-4.8,17.1h-6.5
		L686.8,203.4z"/>
	<path d="M736.3,205.7c6.2,0,9.6,4.5,9.6,10.3c0,0.6-0.1,2-0.1,2h-15c0.4,3.8,3.2,5.8,6.5,5.8c3.5,0,6.1-2.4,6.1-2.4l2.3,3.7
		c0,0-3.3,3.3-8.7,3.3c-7.2,0-11.6-5.2-11.6-11.3C725.3,210.4,729.8,205.7,736.3,205.7z M740.4,214.3c-0.1-2.6-1.9-4.4-4.1-4.4
		c-2.8,0-4.7,1.7-5.3,4.4H740.4z"/>
	<path d="M762.2,203.3c0-0.6-0.3-0.9-0.9-0.9h-1.7v-4.6h5.1c2,0,2.9,0.9,2.9,2.8v7.6c0,1.1-0.1,1.8-0.1,1.8h0.1
		c1-2.1,3.7-4.3,7.4-4.3c4.8,0,7.6,2.5,7.6,8.2v8.5c0,0.6,0.3,0.9,0.9,0.9h1.7v4.5h-5.1c-2,0-2.8-0.9-2.8-2.9v-9.9
		c0-2.6-0.7-4.4-3.4-4.4c-2.8,0-5.1,1.9-5.9,4.5c-0.3,0.8-0.3,1.8-0.3,2.8v9.9h-5.4V203.3z"/>
	<path d="M800.3,214.3h0.7v-0.2c0-3.1-1.2-4.2-4-4.2c-1,0-2.9,0.3-2.9,1.4v1.1h-5v-2.3c0-4,5.7-4.5,7.9-4.5c7.2,0,9.3,3.8,9.3,8.6
		v8.1c0,0.6,0.3,0.9,0.9,0.9h1.7v4.5h-4.8c-2,0-2.8-1.1-2.8-2.4c0-0.6,0-0.9,0-0.9h-0.1c0,0-1.7,3.8-6.5,3.8c-3.9,0-7.4-2.4-7.4-6.8
		C787.4,214.9,796.8,214.3,800.3,214.3z M796.2,224.2c2.9,0,4.9-3.1,4.9-5.7V218h-0.9c-2.8,0-7.3,0.4-7.3,3.4
		C792.9,222.9,793.9,224.2,796.2,224.2z"/>
	<path d="M811.6,211.6c-0.2-0.6-0.6-0.8-1.2-0.8h-0.5v-4.6h3.1c1.8,0,2.6,0.6,3.2,2l4.1,11.4c0.5,1.3,0.8,3.1,0.8,3.1h0.1
		c0,0,0.3-1.8,0.8-3.1l4.1-11.4c0.6-1.5,1.4-2,3.2-2h2.9v4.6h-0.5c-0.6,0-1,0.2-1.2,0.8l-6.2,16.3h-6.4L811.6,211.6z"/>
	<path d="M844.5,205.7c6.2,0,9.6,4.5,9.6,10.3c0,0.6-0.1,2-0.1,2h-15c0.4,3.8,3.2,5.8,6.5,5.8c3.5,0,6.1-2.4,6.1-2.4l2.3,3.7
		c0,0-3.3,3.3-8.7,3.3c-7.2,0-11.6-5.2-11.6-11.3C833.5,210.4,838,205.7,844.5,205.7z M848.6,214.3c-0.1-2.6-1.9-4.4-4.1-4.4
		c-2.8,0-4.7,1.7-5.3,4.4H848.6z"/>
	<path d="M870.6,211.8c0-0.6-0.3-0.9-0.9-0.9H868v-4.6h5c1.9,0,2.8,0.9,2.8,2.4v0.6c0,0.5-0.1,0.9-0.1,0.9h0.1
		c0.9-1.8,3.3-4.5,7.7-4.5c4.8,0,7.6,2.5,7.6,8.2v8.5c0,0.6,0.3,0.9,0.9,0.9h1.7v4.5h-5.1c-2,0-2.9-0.9-2.9-2.9v-9.9
		c0-2.6-0.7-4.4-3.4-4.4c-2.9,0-5.1,1.8-5.8,4.4c-0.3,0.9-0.4,1.9-0.4,2.9v9.9h-5.4V211.8z"/>
	<path d="M907.6,205.7c6.6,0,11.9,4.7,11.9,11.3c0,6.7-5.3,11.3-11.9,11.3c-6.6,0-11.9-4.7-11.9-11.3
		C895.8,210.5,901.1,205.7,907.6,205.7z M907.6,223.8c3.5,0,6.5-2.7,6.5-6.8c0-4-2.9-6.8-6.5-6.8c-3.5,0-6.4,2.8-6.4,6.8
		C901.2,221.1,904.2,223.8,907.6,223.8z"/>
	<path d="M924.5,210.5h-2.8v-4.3h2.9v-5.9h5.3v5.9h4.9v4.3h-4.9v8.8c0,3.6,2.8,4.1,4.3,4.1c0.6,0,1-0.1,1-0.1v4.7
		c0,0-0.7,0.1-1.7,0.1c-3,0-9-0.9-9-8.2V210.5z"/>
	<path d="M939.7,203.3c0-0.6-0.3-0.9-0.9-0.9h-1.7v-4.6h5.1c2,0,2.9,0.9,2.9,2.8v7.6c0,1.1-0.1,1.8-0.1,1.8h0.1
		c1-2.1,3.7-4.3,7.4-4.3c4.8,0,7.6,2.5,7.6,8.2v8.5c0,0.6,0.3,0.9,0.9,0.9h1.7v4.5h-5.1c-2,0-2.8-0.9-2.8-2.9v-9.9
		c0-2.6-0.7-4.4-3.4-4.4c-2.8,0-5.1,1.9-5.9,4.5c-0.3,0.8-0.3,1.8-0.3,2.8v9.9h-5.4V203.3z"/>
	<path d="M967.3,211.8c0-0.6-0.3-0.9-0.9-0.9h-1.7v-4.6h5.1c2,0,2.8,0.9,2.8,2.9v13.3c0,0.6,0.3,0.9,0.9,0.9h1.7v4.5h-5.1
		c-2,0-2.8-0.9-2.8-2.9V211.8z M967.5,197.8h4.7v5h-4.7V197.8z"/>
	<path d="M979.8,211.8c0-0.6-0.3-0.9-0.9-0.9h-1.7v-4.6h5c1.9,0,2.8,0.9,2.8,2.4v0.6c0,0.5-0.1,0.9-0.1,0.9h0.1
		c0.9-1.8,3.3-4.5,7.7-4.5c4.8,0,7.6,2.5,7.6,8.2v8.5c0,0.6,0.3,0.9,0.9,0.9h1.7v4.5h-5.1c-2,0-2.9-0.9-2.9-2.9v-9.9
		c0-2.6-0.7-4.4-3.4-4.4c-2.9,0-5.1,1.8-5.8,4.4c-0.3,0.9-0.4,1.9-0.4,2.9v9.9h-5.4V211.8z"/>
	<path d="M1014.6,205.7c5,0,6.7,3.1,6.7,3.1h0.1c0,0,0-0.3,0-0.6c0-1,0.7-2,2.4-2h5v4.6h-1.7c-0.6,0-0.9,0.3-0.9,0.9v14.9
		c0,7.4-5.8,10.2-11.4,10.2c-2.7,0-5.6-0.8-7.7-1.9l1.7-4.2c0,0,2.7,1.4,6,1.4c3.3,0,6.1-1.4,6.1-5.3v-1c0-0.5,0-1.1,0-1.1h-0.1
		c-1.3,1.8-3.1,2.8-6,2.8c-6.2,0-9.7-5-9.7-11C1005,210.6,1008.3,205.7,1014.6,205.7z M1020.9,216.6c0-4.9-2.5-6.2-5.4-6.2
		c-3.3,0-5.1,2.4-5.1,6c0,3.8,1.9,6.6,5.4,6.6C1018.4,223,1020.9,221.5,1020.9,216.6z"/>
	<path d="M1044.5,210.5h-2.8v-4.3h2.9v-5.9h5.3v5.9h4.9v4.3h-4.9v8.8c0,3.6,2.8,4.1,4.3,4.1c0.6,0,1-0.1,1-0.1v4.7
		c0,0-0.7,0.1-1.7,0.1c-3,0-9-0.9-9-8.2V210.5z"/>
	<path d="M1069.5,205.7c6.6,0,11.9,4.7,11.9,11.3c0,6.7-5.3,11.3-11.9,11.3c-6.6,0-11.9-4.7-11.9-11.3
		C1057.6,210.5,1062.9,205.7,1069.5,205.7z M1069.5,223.8c3.5,0,6.5-2.7,6.5-6.8c0-4-2.9-6.8-6.5-6.8c-3.5,0-6.4,2.8-6.4,6.8
		C1063.1,221.1,1066,223.8,1069.5,223.8z"/>
	<path d="M1097.4,203.3c0-0.6-0.3-0.9-0.9-0.9h-1.7v-4.6h5.1c2,0,2.9,0.9,2.9,2.8v7.6c0,1.1-0.1,1.8-0.1,1.8h0.1
		c1-2.1,3.7-4.3,7.4-4.3c4.8,0,7.6,2.5,7.6,8.2v8.5c0,0.6,0.3,0.9,0.9,0.9h1.7v4.5h-5.1c-2,0-2.8-0.9-2.8-2.9v-9.9
		c0-2.6-0.7-4.4-3.4-4.4c-2.8,0-5.1,1.9-5.9,4.5c-0.3,0.8-0.3,1.8-0.3,2.8v9.9h-5.4V203.3z"/>
	<path d="M1124.9,211.8c0-0.6-0.3-0.9-0.9-0.9h-1.7v-4.6h5.1c2,0,2.8,0.9,2.8,2.9v13.3c0,0.6,0.3,0.9,0.9,0.9h1.7v4.5h-5.1
		c-2,0-2.8-0.9-2.8-2.9V211.8z M1125.2,197.8h4.7v5h-4.7V197.8z"/>
	<path d="M1145.1,205.7c4.7,0,6.2,2.6,6.2,2.6h0.1c0,0,0-0.6,0-1.3v-3.8c0-0.6-0.3-0.9-0.9-0.9h-1.7v-4.6h5.1c2,0,2.9,0.9,2.9,2.9
		v21.8c0,0.6,0.3,0.9,0.9,0.9h1.7v4.5h-5c-2,0-2.7-0.9-2.7-2.2c0-0.5,0-0.8,0-0.8h-0.1c0,0-1.8,3.5-6.8,3.5c-5.9,0-9.6-4.6-9.6-11.3
		C1135.3,210.2,1139.4,205.7,1145.1,205.7z M1151.5,217c0-3.4-1.7-6.7-5.4-6.7c-3,0-5.4,2.4-5.4,6.7c0,4.1,2.2,6.8,5.4,6.8
		C1148.9,223.9,1151.5,221.8,1151.5,217z"/>
	<path d="M1172.7,205.7c6.2,0,9.6,4.5,9.6,10.3c0,0.6-0.1,2-0.1,2h-15c0.4,3.8,3.2,5.8,6.5,5.8c3.5,0,6.1-2.4,6.1-2.4l2.3,3.7
		c0,0-3.3,3.3-8.7,3.3c-7.2,0-11.6-5.2-11.6-11.3C1161.7,210.4,1166.2,205.7,1172.7,205.7z M1176.8,214.3c-0.1-2.6-1.9-4.4-4.1-4.4
		c-2.8,0-4.7,1.7-5.3,4.4H1176.8z"/>
	<path class="st0" d="M687.5,261.5h-2.7v-4.3h2.7v-0.6c0-7.1,5.8-8,8.8-8c1.1,0,1.8,0.1,1.8,0.1v4.6c0,0-0.5-0.1-1.1-0.1
		c-1.5,0-4.2,0.4-4.2,3.5v0.5h4.6v4.3h-4.6v17.4h-5.4V261.5z"/>
	<path class="st0" d="M702.2,262.8c0-0.6-0.3-0.9-0.9-0.9h-1.7v-4.6h4.9c1.9,0,2.9,0.8,2.9,2.6v1.3c0,0.8-0.1,1.4-0.1,1.4h0.1
		c1-3.1,3.6-5.6,6.9-5.6c0.5,0,1,0.1,1,0.1v5.3c0,0-0.6-0.1-1.3-0.1c-2.3,0-4.9,1.3-5.9,4.5c-0.3,1.1-0.5,2.3-0.5,3.5v8.6h-5.4
		V262.8z"/>
	<path class="st0" d="M728.6,256.7c6.6,0,11.9,4.7,11.9,11.3c0,6.7-5.3,11.3-11.9,11.3c-6.6,0-11.9-4.7-11.9-11.3
		C716.7,261.5,722,256.7,728.6,256.7z M728.6,274.8c3.5,0,6.5-2.7,6.5-6.8c0-4-2.9-6.8-6.5-6.8c-3.5,0-6.4,2.8-6.4,6.8
		C722.2,272.1,725.1,274.8,728.6,274.8z"/>
	<path class="st0" d="M745.4,262.8c0-0.6-0.3-0.9-0.9-0.9h-1.7v-4.6h5c1.9,0,2.8,0.9,2.8,2.4v0.6c0,0.5,0,0.9,0,0.9h0.1
		c1-2.1,3.6-4.5,7-4.5c3.3,0,5.4,1.5,6.3,4.5h0.1c1.1-2.3,4-4.5,7.4-4.5c4.5,0,7.1,2.5,7.1,8.2v8.5c0,0.6,0.3,0.9,0.9,0.9h1.7v4.5
		H776c-2,0-2.9-0.9-2.9-2.9v-10c0-2.5-0.5-4.3-3-4.3c-2.7,0-4.6,2.3-5.2,5c-0.3,0.9-0.3,1.7-0.3,2.8v9.5h-5.4V266
		c0-2.3-0.3-4.3-2.9-4.3c-2.7,0-4.5,2.3-5.2,5c-0.2,0.9-0.3,1.7-0.3,2.7v9.5h-5.4V262.8z"/>
	<path class="st0" d="M806.4,256.7c6.6,0,11.9,4.7,11.9,11.3c0,6.7-5.3,11.3-11.9,11.3c-6.6,0-11.9-4.7-11.9-11.3
		C794.5,261.5,799.8,256.7,806.4,256.7z M806.4,274.8c3.5,0,6.5-2.7,6.5-6.8c0-4-2.9-6.8-6.5-6.8c-3.5,0-6.4,2.8-6.4,6.8
		C800,272.1,802.9,274.8,806.4,274.8z"/>
	<path class="st0" d="M823.1,262.8c0-0.6-0.3-0.9-0.9-0.9h-1.7v-4.6h5.1c2,0,2.8,0.9,2.8,2.8v10c0,2.6,0.7,4.4,3.4,4.4
		c3.9,0,6.1-3.4,6.1-7.3v-9.9h5.4v16.2c0,0.6,0.3,0.9,0.9,0.9h1.7v4.5h-5c-1.9,0-2.8-0.9-2.8-2.4v-0.6c0-0.5,0-1,0-1h-0.1
		c-1,2.3-3.7,4.5-7.5,4.5c-4.6,0-7.5-2.3-7.5-8.2V262.8z"/>
	<path class="st0" d="M850.3,262.8c0-0.6-0.3-0.9-0.9-0.9h-1.7v-4.6h4.9c1.9,0,2.9,0.8,2.9,2.6v1.3c0,0.8-0.1,1.4-0.1,1.4h0.1
		c1-3.1,3.6-5.6,6.9-5.6c0.5,0,1,0.1,1,0.1v5.3c0,0-0.6-0.1-1.3-0.1c-2.3,0-4.9,1.3-5.9,4.5c-0.3,1.1-0.5,2.3-0.5,3.5v8.6h-5.4
		V262.8z"/>
	<path class="st0" d="M879.8,253.5H877v-4.7h12.3c9.3,0,15.4,5.5,15.4,15c0,9.5-6.1,15.1-15.4,15.1h-6.6c-2,0-2.9-0.9-2.9-2.9V253.5
		z M886.3,274.2h2.7c6,0,9.9-3.6,9.9-10.4c0-6.7-4-10.3-9.9-10.3h-3.7v19.8C885.3,273.9,885.7,274.2,886.3,274.2z"/>
	<path class="st0" d="M922.1,257.3c0-2.4-1.8-3.9-4.4-3.9c-2.4,0-4,1.2-4,2.4v1.3h-5v-3c0-4,5.3-5.8,9.2-5.8c5.3,0,9.8,3.3,9.8,8.9
		c0,10.2-14.6,10.8-14.6,16.3c0,0.6,0.3,0.8,1.1,0.8h8.8c0.6,0,0.9-0.3,0.9-0.9v-1.8h5v4.6c0,2-0.9,2.9-2.9,2.9h-15.7
		c-2.6,0-3.1-1.1-3.1-4C907.3,264,922.1,264.6,922.1,257.3z"/>
	<path class="st0" d="M947.2,248.2c3.9,0,11.4,1.6,11.4,6.8v3.4h-5.1v-1.7c0-2.2-3.6-3.2-6.2-3.2c-5.4,0-9.6,3.9-9.6,10.2
		c0,5.9,4.3,10.7,9.8,10.7c5.7,0,9.1-4,9.1-4l2.9,4c0,0-4.4,5.2-12.2,5.2c-9.2,0-15.5-6.9-15.5-15.9
		C931.9,254.9,938.4,248.2,947.2,248.2z"/>
	<path class="st0" d="M976.2,253.5h-2.8v-4.7h13c5.4,0,9.3,2.8,9.3,7.8c0,3.4-1.8,5.5-3.7,6.5v0.1c3.3,1,4.8,4,4.8,7.1
		c0,6-4.8,8.8-10.4,8.8h-7.5c-2,0-2.9-0.9-2.9-2.9V253.5z M986.5,261.1c2.3,0,3.7-1.7,3.7-3.9s-1.3-3.7-3.7-3.7h-4.7v7.6H986.5z
		 M982.7,274.2h4.3c2.7,0,4.2-1.8,4.2-4.4c0-2.5-1.6-4.3-4.2-4.3h-5.3v7.8C981.8,273.9,982.1,274.2,982.7,274.2z"/>
	<path class="st0" d="M1002.3,262.8c0-0.6-0.3-0.9-0.9-0.9h-1.7v-4.6h4.9c1.9,0,2.9,0.8,2.9,2.6v1.3c0,0.8-0.1,1.4-0.1,1.4h0.1
		c1-3.1,3.6-5.6,6.9-5.6c0.5,0,1,0.1,1,0.1v5.3c0,0-0.6-0.1-1.3-0.1c-2.3,0-4.9,1.3-5.9,4.5c-0.3,1.1-0.5,2.3-0.5,3.5v8.6h-5.4
		V262.8z"/>
	<path class="st0" d="M1029.3,265.3h0.7v-0.2c0-3.1-1.2-4.2-4-4.2c-1,0-2.9,0.3-2.9,1.4v1.1h-5v-2.3c0-4,5.7-4.5,7.9-4.5
		c7.2,0,9.3,3.8,9.3,8.6v8.1c0,0.6,0.3,0.9,0.9,0.9h1.7v4.5h-4.8c-2,0-2.8-1.1-2.8-2.4c0-0.6,0-0.9,0-0.9h-0.1c0,0-1.7,3.8-6.5,3.8
		c-3.9,0-7.4-2.4-7.4-6.8C1016.4,265.9,1025.7,265.3,1029.3,265.3z M1025.1,275.2c2.9,0,4.9-3.1,4.9-5.7V269h-0.9
		c-2.8,0-7.3,0.4-7.3,3.4C1021.8,273.9,1022.9,275.2,1025.1,275.2z"/>
	<path class="st0" d="M1042.3,262.8c0-0.6-0.3-0.9-0.9-0.9h-1.7v-4.6h5c1.9,0,2.8,0.9,2.8,2.4v0.6c0,0.5-0.1,0.9-0.1,0.9h0.1
		c0.9-1.8,3.3-4.5,7.6-4.5c4.8,0,7.6,2.5,7.6,8.2v8.5c0,0.6,0.3,0.9,0.9,0.9h1.7v4.5h-5.1c-2,0-2.9-0.9-2.9-2.9v-9.9
		c0-2.6-0.7-4.4-3.4-4.4c-2.9,0-5.1,1.8-5.8,4.4c-0.3,0.9-0.4,1.9-0.4,2.9v9.9h-5.4V262.8z"/>
	<path class="st0" d="M1077.3,256.7c4.7,0,6.2,2.6,6.2,2.6h0.1c0,0,0-0.6,0-1.3v-3.8c0-0.6-0.3-0.9-0.9-0.9h-1.7v-4.6h5.1
		c2,0,2.9,0.9,2.9,2.9v21.8c0,0.6,0.3,0.9,0.9,0.9h1.7v4.5h-5c-2,0-2.7-0.9-2.7-2.2c0-0.5,0-0.8,0-0.8h-0.1c0,0-1.8,3.5-6.8,3.5
		c-5.9,0-9.6-4.6-9.6-11.3C1067.5,261.2,1071.6,256.7,1077.3,256.7z M1083.8,268c0-3.4-1.7-6.7-5.4-6.7c-3,0-5.4,2.4-5.4,6.7
		c0,4.1,2.2,6.8,5.4,6.8C1081.1,274.9,1083.8,272.8,1083.8,268z"/>
	<path class="st0" d="M1096.2,272c0,0,2.8,3.2,6.5,3.2c1.7,0,2.9-0.7,2.9-2.1c0-3.1-11.4-3-11.4-10c0-4.3,3.9-6.3,8.4-6.3
		c2.9,0,7.6,1,7.6,4.5v2.3h-4.8v-1.1c0-1-1.5-1.5-2.7-1.5c-1.9,0-3.2,0.7-3.2,2c0,3.4,11.5,2.7,11.5,9.9c0,4.1-3.6,6.6-8.3,6.6
		c-5.9,0-9-3.9-9-3.9L1096.2,272z"/>
</g>
</svg>
