<?xml version="1.0" encoding="UTF-8"?>
<svg id="Layer_2" xmlns="http://www.w3.org/2000/svg" version="1.1" viewBox="0 0 381 205">
  <!-- Generator: Adobe Illustrator 29.5.1, SVG Export Plug-In . SVG Version: 2.1.0 Build 141)  -->
  <defs>
    <style>
      .st0 {
        fill: #ffbd00;
      }

      .st1 {
        fill: #ef4e16;
      }

      .st2 {
        isolation: isolate;
      }

      .st3 {
        fill: #fff;
      }

      .st4 {
        fill: #ffce31;
      }
    </style>
  </defs>
  <g id="Layer_1-2">
    <g class="st2">
      <g class="st2">
        <path d="M33.1,179c0-.3-.3-.4-.6-.4h-.3v-1.6h1.1c.9,0,1.4.2,1.6,1.1l2.1,8.5c.2.7.3,1.4.3,1.4h0s.1-.7.3-1.4l2.7-9.6h1.7l2.5,9.6c.2.7.3,1.4.3,1.4h0s0-.7.2-1.4l2.1-8.5c.2-.9.7-1.1,1.6-1.1h1.1v1.6h-.3c-.3,0-.5,0-.6.4l-2.9,11.3h-2.2l-2.3-8.4c-.2-.9-.4-1.8-.4-1.8h0s-.2,1-.4,1.8l-2.4,8.4h-2.2l-2.9-11.3Z"/>
        <path d="M52.8,188.7h1.3v-10.1h-1.3v-1.6h4.4v1.6h-1.3v10.1h1.3v1.6h-4.4v-1.6Z"/>
        <path d="M64.9,178.6h-2.7c-.3,0-.4.1-.4.4v.8h-1.7v-1.8c0-.8.3-1.1,1.1-1.1h9.2c.8,0,1.1.3,1.1,1.1v1.8h-1.7v-.8c0-.3-.2-.4-.4-.4h-2.7v11.7h-1.9v-11.7Z"/>
        <path d="M75.6,179c0-.3-.2-.4-.4-.4h-.8v-1.6h1.9c.8,0,1.2.4,1.2,1.2v4.7h6.8v-4.7c0-.8.4-1.2,1.2-1.2h1.9v1.6h-.8c-.3,0-.4.1-.4.4v11.3h-1.9v-5.8h-6.8v5.8h-1.9v-11.3Z"/>
        <path d="M98.7,187.2s1.4,1.6,3.3,1.6,2.3-.8,2.3-2c0-2.8-6.4-2.4-6.4-6.5s1.8-3.6,4.3-3.6,3.8.6,3.8,2.4v1.1h-1.7v-.6c0-.7-1-1.2-2.1-1.2s-2.3.8-2.3,1.8c0,2.7,6.4,2.1,6.4,6.5s-1.6,3.8-4.2,3.8-4.4-2-4.4-2l1.1-1.3Z"/>
        <path d="M110.8,178.6h-1.2v-1.6h5.9c2.4,0,4.2,1.6,4.2,4.2s-1.7,4.2-4.2,4.2h-2.7v4.9h-1.9v-11.7ZM115.1,183.8c1.6,0,2.5-1,2.5-2.6s-1-2.5-2.5-2.5h-2.5v5.1h2.4Z"/>
      </g>
      <g class="st2">
        <path d="M129.3,176.8c3.8,0,6.8,3,6.8,6.8s-3,7-6.8,7-6.8-3-6.8-7,3-6.8,6.8-6.8ZM129.3,188.7c2.7,0,4.9-2.3,4.9-5.2s-2.2-5-4.9-5-4.9,2.2-4.9,5,2.2,5.2,4.9,5.2Z"/>
      </g>
      <g class="st2">
        <path d="M143.4,178.6h-2.7c-.3,0-.4.1-.4.4v.8h-1.7v-1.8c0-.8.3-1.1,1.1-1.1h9.2c.8,0,1.1.3,1.1,1.1v1.8h-1.7v-.8c0-.3-.2-.4-.4-.4h-2.7v11.7h-1.9v-11.7Z"/>
        <path d="M154.1,179c0-.3-.2-.4-.4-.4h-.8v-1.6h1.9c.8,0,1.2.4,1.2,1.2v10.1c0,.3.2.4.4.4h3.7c.3,0,.4-.2.4-.4v-.8h1.7v1.7c0,.8-.4,1.2-1.2,1.2h-5.7c-.8,0-1.2-.4-1.2-1.2v-10.1Z"/>
        <path d="M165.1,188.7h1.3v-10.1h-1.3v-1.6h4.4v1.6h-1.3v10.1h1.3v1.6h-4.4v-1.6Z"/>
      </g>
      <g class="st2">
        <path d="M179.5,176.8c3.2,0,4.7,1.6,4.7,1.6l-1.1,1.4s-1.4-1.3-3.6-1.3-4.8,2.1-4.8,5.1,2.1,5.2,4.8,5.2,3.8-1.7,3.8-1.7v-1.3c0-.3-.2-.4-.4-.4h-.8v-1.6h1.8c.8,0,1.2.4,1.2,1.2v5.4h-1.7v-.8c0-.3,0-.6,0-.6h0s-1.5,1.6-4.1,1.6-6.5-2.8-6.5-6.9,2.9-6.8,6.7-6.8Z"/>
      </g>
      <g class="st2">
        <path d="M189.7,179c0-.3-.2-.4-.4-.4h-.8v-1.6h1.9c.8,0,1.2.4,1.2,1.2v4.7h6.8v-4.7c0-.8.4-1.2,1.2-1.2h1.9v1.6h-.8c-.3,0-.4.1-.4.4v11.3h-1.9v-5.8h-6.8v5.8h-1.9v-11.3Z"/>
      </g>
      <g class="st2">
        <path d="M209.1,178.6h-2.7c-.3,0-.4.1-.4.4v.8h-1.7v-1.8c0-.8.3-1.1,1.1-1.1h9.2c.8,0,1.1.3,1.1,1.1v1.8h-1.7v-.8c0-.3-.2-.4-.4-.4h-2.7v11.7h-1.9v-11.7Z"/>
      </g>
      <g class="st2">
        <path d="M226.4,178.6h-1.2v-1.6h5.7c2.2,0,3.9,1.2,3.9,3.4s-.8,2.4-1.7,2.9h0c1.4.5,2.2,1.8,2.2,3.3,0,2.5-1.9,3.8-4.3,3.8h-3.4c-.8,0-1.2-.4-1.2-1.2v-10.5ZM230.9,182.6c1.2,0,1.9-.8,1.9-2s-.7-2-2-2h-2.6v4h2.6ZM228.7,188.7h2.4c1.4,0,2.2-.9,2.2-2.3s-.9-2.3-2.2-2.3h-2.8v4.1c0,.3.2.4.4.4Z"/>
      </g>
      <g class="st2">
        <path d="M242.3,184.5l-3.4-5.4c-.2-.4-.4-.5-.8-.5h-.4v-1.6h.9c.9,0,1.3.1,1.8,1l2,3.4c.4.7.8,1.5.8,1.5h0s.4-.8.8-1.5l2-3.4c.5-.9.9-1,1.8-1h.9v1.6h-.4c-.4,0-.6,0-.8.5l-3.4,5.4v5.8h-1.9v-5.8Z"/>
      </g>
      <g class="st2">
        <path d="M257.4,189l6.6-9.2c.5-.7,1-1.2,1-1.2h0s-.4,0-1,0h-4.3c-.3,0-.4.1-.4.4v.8h-1.7v-1.7c0-.8.4-1.2,1.2-1.2h8.5v1.2l-6.6,9.2c-.5.7-1,1.2-1,1.2h0s.4,0,1,0h4.7c.3,0,.4-.2.4-.4v-.8h1.7v1.7c0,.8-.4,1.2-1.2,1.2h-8.9v-1.2Z"/>
        <path d="M271.8,178.6h-1.2v-1.6h7.8c.8,0,1.2.4,1.2,1.2v1.7h-1.7v-.8c0-.3-.2-.4-.4-.4h-3.8v4.2h4.7v1.6h-4.7v3.9c0,.3.2.4.4.4h3.9c.3,0,.4-.2.4-.4v-.8h1.7v1.7c0,.8-.4,1.2-1.2,1.2h-5.9c-.8,0-1.2-.4-1.2-1.2v-10.5Z"/>
        <path d="M283.2,188.7h.8c.3,0,.4-.2.4-.4v-11.3h1.7l5.9,8.4c.5.7,1.1,1.8,1.1,1.8h0s-.1-1.1-.1-1.8v-7.2c0-.8.4-1.2,1.2-1.2h1.9v1.6h-.8c-.3,0-.4.1-.4.4v11.3h-1.7l-5.9-8.4c-.5-.7-1.1-1.8-1.1-1.8h0s.1,1.1.1,1.8v7.2c0,.8-.4,1.2-1.2,1.2h-1.9v-1.6Z"/>
      </g>
      <g class="st2">
        <path d="M306.1,176.8c1.8,0,5,.8,5,2.9v1.3h-1.7v-.8c0-1.1-1.9-1.7-3.2-1.7-2.7,0-4.7,2-4.7,5s2.1,5.2,4.8,5.2,4.2-1.8,4.2-1.8l1,1.4s-1.9,2.2-5.2,2.2-6.7-3.1-6.7-7,2.9-6.8,6.7-6.8Z"/>
      </g>
      <g class="st2">
        <path d="M318.4,184.5l-3.4-5.4c-.2-.4-.4-.5-.8-.5h-.4v-1.6h.9c.9,0,1.3.1,1.8,1l2,3.4c.4.7.8,1.5.8,1.5h0s.4-.8.8-1.5l2-3.4c.5-.9.9-1,1.8-1h.9v1.6h-.4c-.4,0-.6,0-.8.5l-3.4,5.4v5.8h-1.9v-5.8Z"/>
      </g>
    </g>
    <path class="st0" d="M288.6,21.7c-1.7,6.2-4,11.8-7.4,17.2-5.2,8.3,5.5,19.7,13.9,13.9,4.4-3.1,8.8-6.2,13.3-9.3s6.6-8.9,3.6-13.9c-2.6-4.4-9.4-6.8-13.9-3.6s-8.8,6.2-13.3,9.3l13.9,13.9c4.3-6.8,7.3-14.3,9.4-22,3.5-12.6-16.1-18-19.6-5.4h0Z"/>
    <g>
      <path class="st0" d="M331.6,51.8c-11.3-.8-21.8,0-26.4,10.7-4,9.3,12.9,16.9,18.2,7.8,1.6-2.8,3.2-5.6,4.8-8.4,2.7-4.7,1.6-12-5.4-13.5-14.3-3.1-29.1-2.6-43.7-3.3-14.6-.7-29.4-1.8-44-1.1-7.3.4-14.5,1.1-21.5,2.8-5.3,1.4-11.7,4.1-17.5,3.1-4.8-.8-9.1-3.8-13.3-5.7-6.9-3.1-13.1-4.5-20.8-3.9l11.9,11.7c1.6-6.4,2.6-12.8,2.6-19.4,0-6-5.7-10.3-12.4-9.3-8.7,1.4-17.4,2.2-26.2,2.5l8.1,13.9.9-1-3.8,3c-4,2.3-7.1-2.3-4.3.8.8.9,1.5,1.8,2.3,2.6,2.1,2.2,4.6,4.1,7.4,5.5,7.1,3.5,15,2.7,22.3.4,14.5-4.5,27.9-11.3,41.2-18l-13.2-13c-1.7,2.6-3.4,5.1-5.1,7.7-5.8,8.8,6.4,18.1,15.3,11.7,6.3-4.5,14.2-6,22-3.4l-4.3-2.5c-.5-.4-.7-2.2-.3-.2.2,1,.7,2,1,3,1,2.4,2.4,4.4,4.5,6.2,4.3,3.5,10.5,5,16.2,4.8,5.3-.2,9.8-1.9,14.7-3.2,4-1,5.5-.9,9.4.9,5.9,2.7,10.7,3.7,17.2,3.2,5.5-.4,10.8-1.4,16.1-2.5,5-.9,10.1-2,15.2-1.8,4.7.1,10.6,1.5,14.5,2.2,5.4,1.1,11-.7,12.8-5.6,1.5-4.2-1.1-10.3-6.5-11.4-7-1.4-14.2-3.2-21.4-3.2-7.3,0-14.3,1.3-21.3,2.6-5.5,1-11.8,3-16.8.9-7.1-3.1-13.1-4.9-21.1-3.5-4.8.9-10.1,3.2-14.4,3.5-.6,0-1.2-.3-1.7-.6l1.4,1.3c.3.7.3.5,0-.6-.2-.6-.4-1.2-.6-1.8-1.3-3.5-3.3-6.4-7.1-8.2-13.9-6.6-31.8-1.6-43.1,6.5,5.1,3.9,10.2,7.8,15.3,11.7,1.7-2.6,3.4-5.1,5.1-7.7,4.8-7.3-4-17.6-13.2-13-7.4,3.7-14.8,7.5-22.5,10.8-5.9,2.6-13.1,6.5-19.8,7.1-3.9.4-5.6-4-8.6-6.5-7.4-6.2-16.3-5.7-22.7,1.1-4.8,5,.8,14.1,8.1,13.9,10.6-.3,21.2-1.2,31.7-2.8-4.1-3.1-8.2-6.2-12.4-9.3,0,4.9-.5,9.8-1.7,14.6-1.8,7.1,3.9,12.3,11.9,11.7,3.9-.3,8.6,2.9,11.8,4.5,5.8,2.9,11.8,5.4,18.5,5.6,6.7.3,12.8-1.3,19-3,6.2-1.7,12.1-2.7,18.4-3.1,13.9-.8,28.2.4,42.1,1,13.2.6,27.3-.3,40.2,2.5-1.8-4.5-3.6-9-5.4-13.5-1.6,2.8-3.2,5.6-4.8,8.4,6.1,2.6,12.1,5.2,18.2,7.8-.2.4-.7.6-1,.9-.4.5,0,.1.3.1,2.3,0,4.6.3,6.9.4,13,.9,13.9-17,.9-17.9h0Z"/>
      <path class="st0" d="M141.1,25.9c-3.6,4.8-6.7,10.1-8.9,15.6s-4.6,12.7-1.5,18.3,10.3,7.8,16.9,6.6c7.1-1.3,12.4-5.6,16.4-10.7l-18.6-5.5c-.2,2.7-.4,5.4-.5,8.1-.5,6.8,8.1,11.6,14.8,8.5,8.2-3.8,14-10.2,18-17.5,2.2-4,2.2-8.6-2-11.7-3.7-2.7-9.7-3.2-13.3,0-9.2,8.1-4.7,24.8,9.8,25,12.4.2,22.5-10.3,28-19,4.6-7.2-3.9-17.9-13.2-13-11.3,6-9,21.9,3.3,26.1,12.2,4.2,23.6-3.4,29.2-12.5,5.2-8.6-6.4-18.8-15.3-11.7-10.2,8-5.9,27.9,9.5,28.3,6.7.2,11.7-3.9,15.4-8.4,1.4-1.7,2.6-3.6,3.8-5.4.7-1,1.3-1.9,2.1-2.9,1-1.4-1.2.7.8-.8-5.5-3.2-11-6.4-16.5-9.6-2.6,8.4-.3,17.8,7.7,23.5,4.3,3.1,9.6,3.7,14.8,2.5,2-.5,4.4-.9,6.3-1.7,1.6-.7,2.5-1.5,4-1.6l-5.4-.3,1.2.2-4.3-2.5c-1.1-1.3.3,1.1.4,1.2.3.6.5,1.2.7,1.7,1,2.1,2.4,3.9,4.4,5.3,4.8,3.4,11.1,3.2,16.7,1.7,11.1-3.1,18.8-11.1,25.2-19.2-6.1-2.6-12.1-5.2-18.2-7.8-.4,1-.4,1,.1,0-.7.9-.4.7.8-.8l14.3.7h0c.7,2.9,1.4,5.8,2.2,8.8-1,2.7.1,0,.8-.8-6.1-2.6-12.1-5.2-18.2-7.8-2.4,8.4-3.5,22.7,10.3,23.8,8.4.7,14.5-5.3,20.4-9.6-5.5-3.2-11-6.4-16.5-9.6-.7,2.5-1.4,4.9-2.1,7.4-2.2,7.6,6.1,14.2,14.4,10.9,3.9-1.6,7.3-3.7,10.6-6-5.5-3.2-11-6.4-16.5-9.6-1.2,4.6-2.6,9.2-5.1,13.3-3.7,6.3,1.5,16,10.8,13.7,8-2,13.4-6.4,20.1-10.2l-5.2,1h1.9c0,0-9.4-7-9.4-7l.3.9,1.4-6.8h.3c5.1,3.8,10.2,7.7,15.3,11.6,3.8-4.7,9.3-7.9,14.2-11.5,4.1-3,8.4-6.4,13.6-7.8-3.6-4.6-7.2-9.2-10.8-13.7-3.9,5.3-7.9,10.6-11.8,15.8-6.4,8.6,6.7,18.2,15.3,11.7,3.8-2.8,7.7-5.4,12-7.7,4.7-2.5,6.9-7.6,4.3-12.1-2.4-4.1-9-6.4-13.7-3.9-5.7,3-11.2,6.4-16.3,10.3,5.1,3.9,10.2,7.8,15.3,11.7,3.9-5.3,7.9-10.6,11.8-15.8,4.6-6.2-2.1-15.9-10.8-13.7-8.1,2.1-15.2,6.1-21.5,11-6.7,5.1-13.6,9.5-18.8,15.9-6.6,8.2,7.2,18.9,15.3,11.7,3.3-3,5.8-6.7,4.1-11.1-1.5-3.8-4.6-6.8-9.4-7.1-9.6-.5-13.8,7.5-22.3,9.5,3.6,4.6,7.2,9.2,10.8,13.7,3.3-5.6,5.8-11.3,7.3-17.5,2.2-8.6-8.3-15.5-16.5-9.6-2,1.4-4,2.5-6.4,3.4,4.8,3.6,9.6,7.3,14.4,10.9.7-2.5,1.4-4.9,2.1-7.4,2.5-8.7-8.4-15.3-16.5-9.6-1.1.8-2.2,1.7-3.2,2.5-.7.5-1.3,1-2,1.5,0,0-2.6,1.6-1.3.9-.4.3-1.8,1.4-1.2.6,1.8-2.2,10.2,1.7,9.1,4.1.8-1.6.3-2.6.9-4.5,2.8-9.6-11.6-16.6-18.2-7.8-1.2,1.5-2.4,3.2-3,5-1.1,3-.3,6.5,2.2,8.8h0c3.9,3.8,10,3.8,14.3.8,2.3-1.6,3.8-4.4,4.7-6.8,3.5-9.8-11.7-16.1-18.2-7.8-3.1,4-6.6,8.3-11.4,10.9-.5.3-2.2.8-2.6,1.1-.7-.2-1.2,0-1.4.4,1.7.4,3.1,1.1,4.1,2.2,0,0-.5-1.4-.9-2.3-.4-.8-.8-1.7-1.3-2.5-2.2-3.4-5.8-5.6-10.3-5.8s-7.2,1.5-10.7,3c1.4-.6-2.5.7-2.2.6-1.9.2-1.7.5.6.9,2.1.9,2.5.9,1-.3,0-1-.6-2.5-.4-3.3,2.7-8.7-8.6-15.3-16.5-9.6-4.5,3.2-6.9,8.4-10.1,12.5-.1.1-.4,1.4-1.4,1.3.4,0,1.4-.7,1.9-.8,2.2-.5,3.9.7,5.6,1.6.4.2.5,1,.8,1.2-.2-1-.3-1.2-.2-.6,0,.5,0,.4,0-.1-.3-2.2.4-.3-1.1.9-5.1-3.9-10.2-7.8-15.3-11.7-.8,1.4-1.7,2.9-2.9,4,0,0-2.3,1.8-2.3,1.6,0-.4,3,2.9,1.7,1.5.9,1.4,1.2,1.7.9.8-.1-.5-.1-.5,0,0,0,.5,0,1.4-.3,1.7l-3.8,3,.7-.4-13.2-13c-2.2,3.4-4.6,6.8-8.1,9.2-.6.4-.9.6-1.6,1-.6.3-1.3.6-2,.9h.4c0-.4,5.7,3.4,5.8,3.7,0,.7,0,.7,0,0,.1-1.6-.4-.8-1.7,2.5-5.1-3.9-10.2-7.8-15.3-11.7-2.4,4.5-5.3,9-10.4,11.4,5,2.8,9.9,5.7,14.8,8.5.2-2.7.4-5.4.5-8.1.6-9.1-13-12.5-18.6-5.5-.7.9-1.3,1.7-2.3,2.3-.3.2-1.7.8-1.7.8,1.7-.2,2.9.7,3.6,2.7,2.1,3.4,3.2,3.8,3.1,1.4.4-.5.6-2.4.8-2.9,1.7-5.1,4.4-9.7,7.6-14.1,7.1-9.6-9.9-19.5-17-9.9h0Z"/>
    </g>
    <g>
      <g class="st2">
        <g class="st2">
          <path d="M14.2,20.3h21.8v7.4h-7.2v32h-7.6V27.7h-7v-7.4Z"/>
          <path d="M40.3,30.6h7.4v14.1c0,2.7.2,4.6.6,5.7.4,1.1,1,1.9,1.8,2.5.8.6,1.9.9,3.1.9s2.3-.3,3.1-.9c.9-.6,1.5-1.4,1.9-2.6.3-.8.5-2.6.5-5.4v-14.3h7.3v12.4c0,5.1-.4,8.6-1.2,10.5-1,2.3-2.4,4-4.3,5.3-1.9,1.2-4.3,1.8-7.3,1.8s-5.8-.7-7.8-2.1-3.4-3.4-4.2-6c-.6-1.8-.9-5-.9-9.7v-12.1Z"/>
          <path d="M71.6,30.6h6.3v3.7c.7-1.4,1.6-2.5,2.7-3.3,1.1-.8,2.4-1.1,3.7-1.1s1.9.3,3,.8l-2.3,6.3c-.9-.4-1.6-.6-2.1-.6-1.1,0-2.1.7-2.9,2.1-.8,1.4-1.2,4.1-1.2,8.2v1.4s0,11.8,0,11.8h-7.3v-29.2Z"/>
          <path d="M90.9,30.6h7.3v3c1.7-1.4,3.2-2.4,4.5-2.9,1.3-.5,2.7-.8,4.1-.8,2.9,0,5.3,1,7.4,3,1.7,1.7,2.5,4.3,2.5,7.6v19.3h-7.2v-12.8c0-3.5-.2-5.8-.5-6.9-.3-1.1-.9-2-1.6-2.6-.8-.6-1.7-.9-2.9-.9s-2.8.5-3.8,1.5c-1.1,1-1.8,2.4-2.2,4.1-.2.9-.3,2.9-.3,5.9v11.7h-7.3v-29.2Z"/>
          <path d="M137,20.3h7.7l9.9,28,10.1-28h7.7l-14.2,39.4h-7.2l-14-39.4Z"/>
          <path d="M180.5,18.6c1.3,0,2.4.5,3.3,1.4.9.9,1.4,2.1,1.4,3.4s-.5,2.4-1.4,3.3c-.9.9-2,1.4-3.3,1.4s-2.4-.5-3.3-1.4c-.9-.9-1.4-2.1-1.4-3.4s.5-2.4,1.4-3.3c.9-.9,2-1.4,3.3-1.4ZM176.8,30.6h7.3v29.2h-7.3v-29.2Z"/>
          <path d="M208.7,34.7l-4.5,4.5c-1.8-1.8-3.5-2.7-5-2.7s-1.5.2-1.9.5-.7.8-.7,1.3.1.8.4,1.1c.3.3,1,.8,2.2,1.4l2.7,1.3c2.8,1.4,4.8,2.8,5.8,4.3,1.1,1.4,1.6,3.1,1.6,5.1s-1,4.8-2.9,6.5c-1.9,1.7-4.5,2.6-7.7,2.6s-7.7-1.7-10.2-5l4.5-4.9c.9,1,1.9,1.8,3,2.4s2.2.9,3.1.9,1.7-.2,2.3-.7.9-1,.9-1.6c0-1.1-1.1-2.2-3.2-3.3l-2.5-1.2c-4.7-2.4-7.1-5.4-7.1-8.9s.9-4.3,2.7-5.9c1.8-1.6,4.1-2.5,6.8-2.5s3.7.4,5.3,1.2c1.7.8,3.1,2,4.3,3.6Z"/>
          <path d="M217.8,18.6c1.3,0,2.4.5,3.3,1.4.9.9,1.4,2.1,1.4,3.4s-.5,2.4-1.4,3.3c-.9.9-2,1.4-3.3,1.4s-2.4-.5-3.3-1.4c-.9-.9-1.4-2.1-1.4-3.4s.5-2.4,1.4-3.3c.9-.9,2-1.4,3.3-1.4ZM214.2,30.6h7.3v29.2h-7.3v-29.2Z"/>
          <path d="M235.4,19.4v14.5c1.3-1.3,2.8-2.3,4.3-3,1.5-.7,3.2-1,4.9-1,3.8,0,7,1.4,9.7,4.3,2.7,2.9,4,6.6,4,11.1s-1.4,8-4.1,10.9c-2.8,2.9-6,4.4-9.8,4.4s-3.2-.3-4.7-.9-2.9-1.6-4.3-2.9v3.1h-7.3V19.4h7.3ZM243.1,36.6c-2.3,0-4.2.8-5.7,2.4-1.5,1.6-2.3,3.6-2.3,6.2s.8,4.7,2.3,6.3,3.4,2.4,5.7,2.4,4.1-.8,5.6-2.4c1.5-1.6,2.3-3.7,2.3-6.2s-.8-4.6-2.3-6.2-3.4-2.4-5.7-2.4Z"/>
          <path d="M267.2,18.6c1.3,0,2.4.5,3.3,1.4.9.9,1.4,2.1,1.4,3.4s-.5,2.4-1.4,3.3c-.9.9-2,1.4-3.3,1.4s-2.4-.5-3.3-1.4c-.9-.9-1.4-2.1-1.4-3.4s.5-2.4,1.4-3.3c.9-.9,2-1.4,3.3-1.4ZM263.6,30.6h7.3v29.2h-7.3v-29.2Z"/>
          <path d="M276.8,19.4h7.3v40.4h-7.3V19.4Z"/>
          <path d="M293.6,18.6c1.3,0,2.4.5,3.3,1.4.9.9,1.4,2.1,1.4,3.4s-.5,2.4-1.4,3.3c-.9.9-2,1.4-3.3,1.4s-2.4-.5-3.3-1.4c-.9-.9-1.4-2.1-1.4-3.4s.5-2.4,1.4-3.3c.9-.9,2-1.4,3.3-1.4ZM289.9,30.6h7.3v29.2h-7.3v-29.2Z"/>
          <path d="M304.8,19.9h7.3v10.8h4.3v6.3h-4.3v22.9h-7.3v-22.9h-3.8v-6.3h3.8v-10.8Z"/>
          <path d="M317.1,30.6h7.5l7.6,18.3,8.4-18.3h7.5l-18.3,39.9h-7.6l6-12.9-11.1-27Z"/>
        </g>
        <g class="st2">
          <path d="M20.1,78.4c1.3,0,2.4.5,3.3,1.4.9.9,1.4,2.1,1.4,3.4s-.5,2.4-1.4,3.3c-.9.9-2,1.4-3.3,1.4s-2.4-.5-3.3-1.4c-.9-.9-1.4-2.1-1.4-3.4s.5-2.4,1.4-3.3c.9-.9,2-1.4,3.3-1.4ZM16.5,90.4h7.3v29.2h-7.3v-29.2Z"/>
          <path d="M30.4,90.4h7.3v3c1.7-1.4,3.2-2.4,4.5-2.9,1.3-.5,2.7-.8,4.1-.8,2.9,0,5.3,1,7.4,3,1.7,1.7,2.5,4.3,2.5,7.6v19.3h-7.2v-12.8c0-3.5-.2-5.8-.5-6.9-.3-1.1-.9-2-1.6-2.6-.8-.6-1.7-.9-2.9-.9s-2.8.5-3.8,1.5c-1.1,1-1.8,2.4-2.2,4.1-.2.9-.3,2.9-.3,5.9v11.7h-7.3v-29.2Z"/>
          <path d="M64.3,79.7h7.3v10.8h4.3v6.3h-4.3v22.9h-7.3v-22.9h-3.8v-6.3h3.8v-10.8Z"/>
          <path d="M93.6,89.7c2.8,0,5.3.7,7.8,2.1,2.4,1.4,4.3,3.2,5.7,5.6,1.4,2.4,2,4.9,2,7.6s-.7,5.3-2.1,7.7c-1.4,2.4-3.2,4.3-5.6,5.6s-5,2-7.8,2c-4.2,0-7.8-1.5-10.7-4.5-3-3-4.4-6.6-4.4-10.8s1.7-8.4,5-11.4c2.9-2.6,6.3-4,10.1-4ZM93.7,96.6c-2.3,0-4.2.8-5.7,2.4-1.5,1.6-2.3,3.6-2.3,6.1s.7,4.6,2.2,6.2c1.5,1.6,3.4,2.4,5.7,2.4s4.2-.8,5.7-2.4c1.5-1.6,2.3-3.6,2.3-6.1s-.7-4.5-2.2-6.1-3.4-2.3-5.7-2.3Z"/>
          <path d="M128.2,80.2h7.7l9.9,28,10.1-28h7.7l-14.2,39.4h-7.2l-14-39.4Z"/>
          <path d="M198.1,107.1h-23.5c.3,2.1,1.2,3.7,2.7,4.9,1.5,1.2,3.4,1.8,5.6,1.8s5.1-1,7.1-2.9l6.2,2.9c-1.5,2.2-3.4,3.8-5.5,4.8-2.1,1-4.7,1.6-7.6,1.6-4.6,0-8.3-1.4-11.2-4.3-2.9-2.9-4.3-6.5-4.3-10.8s1.4-8.1,4.3-11.1c2.9-2.9,6.5-4.4,10.8-4.4s8.3,1.5,11.2,4.4c2.9,2.9,4.3,6.8,4.3,11.7v1.4ZM190.7,101.4c-.5-1.6-1.4-3-2.9-4-1.4-1-3.1-1.5-5-1.5s-3.8.6-5.4,1.7c-1,.7-1.9,2-2.7,3.8h15.9Z"/>
          <path d="M203.2,79.2h7.3v40.4h-7.3v-40.4Z"/>
          <path d="M230.9,89.7c2.8,0,5.3.7,7.8,2.1,2.4,1.4,4.3,3.2,5.7,5.6,1.4,2.4,2,4.9,2,7.6s-.7,5.3-2.1,7.7c-1.4,2.4-3.2,4.3-5.6,5.6-2.4,1.3-5,2-7.8,2-4.2,0-7.8-1.5-10.7-4.5-3-3-4.4-6.6-4.4-10.8s1.7-8.4,5-11.4c2.9-2.6,6.3-4,10.1-4ZM231,96.6c-2.3,0-4.2.8-5.7,2.4-1.5,1.6-2.3,3.6-2.3,6.1s.7,4.6,2.2,6.2,3.4,2.4,5.7,2.4,4.2-.8,5.7-2.4c1.5-1.6,2.3-3.6,2.3-6.1s-.7-4.5-2.2-6.1c-1.5-1.6-3.4-2.3-5.7-2.3Z"/>
          <path d="M280.9,96.3l-6.1,3.4c-1.1-1.2-2.3-2-3.4-2.5-1.1-.5-2.4-.7-3.9-.7-2.7,0-5,.8-6.6,2.5s-2.5,3.7-2.5,6.3.8,4.5,2.4,6.1c1.6,1.6,3.8,2.4,6.4,2.4s5.8-1.1,7.7-3.4l5.8,4c-3.1,4.1-7.5,6.1-13.2,6.1s-9.1-1.5-12.1-4.6c-2.9-3-4.4-6.6-4.4-10.7s.7-5.4,2.1-7.8c1.4-2.4,3.4-4.2,5.9-5.6,2.5-1.4,5.4-2,8.5-2s5.5.6,7.8,1.7,4.2,2.8,5.7,4.9Z"/>
          <path d="M290.3,78.4c1.3,0,2.4.5,3.3,1.4.9.9,1.4,2.1,1.4,3.4s-.5,2.4-1.4,3.3c-.9.9-2,1.4-3.3,1.4s-2.4-.5-3.3-1.4c-.9-.9-1.4-2.1-1.4-3.4s.5-2.4,1.4-3.3c.9-.9,2-1.4,3.3-1.4ZM286.7,90.4h7.3v29.2h-7.3v-29.2Z"/>
          <path d="M301.5,79.7h7.3v10.8h4.3v6.3h-4.3v22.9h-7.3v-22.9h-3.8v-6.3h3.8v-10.8Z"/>
          <path d="M313.9,90.4h7.5l7.6,18.3,8.4-18.3h7.5l-18.3,39.9h-7.6l6-12.9-11.1-27Z"/>
        </g>
      </g>
      <g>
        <polygon class="st1" points="353.9 103.2 344.4 97.9 355.1 98.3 351.9 91.8 357.7 95.9 357 86.8 361.2 94.3 367.5 85.7 364.8 96.4 374.4 93.3 366.8 100.2 376 102 367.1 104 372.1 112.9 364 108 363.6 117.3 360.3 108.8 355.8 115.5 356 107.5 348.3 110.4 353.9 103.2"/>
        <polygon class="st4" points="356.7 102.4 351.1 99.8 357.3 99.6 355.6 95.9 358.9 97.8 358.8 92.8 361 97 364.3 92.7 362.9 98.1 368.4 96.7 363.9 100.6 369.5 101.9 364.3 103.1 368 108.6 362.4 104.9 362.3 109.8 360.3 105.3 358 108.6 358.1 104.6 354 106.4 356.7 102.4"/>
        <polygon class="st3" points="358.8 101.7 356.4 100.6 359 100.5 358.3 99 359.7 99.8 359.6 97.6 360.6 99.4 362 97.6 361.4 99.9 363.7 99.3 361.8 100.9 364.2 101.5 362 102 363.5 104.4 361.2 102.8 361.1 104.8 360.3 102.9 359.3 104.4 359.3 102.6 357.6 103.4 358.8 101.7"/>
      </g>
    </g>
  </g>
</svg>