<?xml version="1.0" encoding="UTF-8"?>
<svg id="Layer_2" xmlns="http://www.w3.org/2000/svg" xmlns:xlink="http://www.w3.org/1999/xlink" version="1.1" viewBox="0 0 1026.9 439">
  <!-- Generator: Adobe Illustrator 29.5.1, SVG Export Plug-In . SVG Version: 2.1.0 Build 141)  -->
  <defs>
    <style>
      .st0 {
        fill: none;
      }

      .st1 {
        fill: #ffbd00;
      }

      .st2 {
        fill: #f8ac13;
      }

      .st3 {
        fill: #f2992b;
      }

      .st4 {
        fill: #424368;
      }

      .st5 {
        fill: #f5a220;
      }

      .st6 {
        fill: #f8ab15;
      }

      .st7 {
        fill: #fbb40a;
      }

      .st8 {
        fill: #f7aa16;
      }

      .st9 {
        fill: #fab20c;
      }

      .st10 {
        fill: #3f4162;
      }

      .st11 {
        fill: #f49e25;
      }

      .st12 {
        fill: #f6a41e;
      }

      .st13 {
        fill: #f9af0f;
      }

      .st14 {
        fill: #fab00e;
      }

      .st15 {
        fill: #414266;
      }

      .st16 {
        fill: #3f4061;
      }

      .st17 {
        fill: #414265;
      }

      .st18 {
        fill: #3f4060;
      }

      .st19 {
        fill: #f1972e;
      }

      .st20 {
        fill: #424469;
      }

      .st21 {
        fill: #f2992c;
      }

      .st22 {
        fill: #66f;
      }

      .st23 {
        fill: #ef4e16;
      }

      .st24 {
        isolation: isolate;
      }

      .st25 {
        fill: #f29b29;
      }

      .st26 {
        fill: #c6c6c6;
      }

      .st27 {
        fill: #cf89ff;
      }

      .st28 {
        fill: #fcb608;
      }

      .st29 {
        clip-path: url(#clippath-1);
      }

      .st30 {
        clip-path: url(#clippath-2);
      }

      .st31 {
        fill: #f39e26;
      }

      .st32 {
        fill: #f4a122;
      }

      .st33 {
        fill: #f4a023;
      }

      .st34 {
        fill: #fff;
      }

      .st35 {
        fill: #f9ae11;
      }

      .st36 {
        fill: #ffbc01;
      }

      .st37 {
        fill: #fdb707;
      }

      .st38 {
        fill: #f49f24;
      }

      .st39 {
        fill: #f6a61a;
      }

      .st40 {
        fill: #fbb30b;
      }

      .st41 {
        fill: #f9af10;
      }

      .st42 {
        fill: #febb02;
      }

      .st43 {
        fill: #3d3e5c;
      }

      .st44 {
        fill: #f7a719;
      }

      .st45 {
        fill: #fab10d;
      }

      .st46 {
        fill: #ffce31;
      }

      .st47 {
        fill: #fdb805;
      }

      .st48 {
        fill: #f39d27;
      }

      .st49 {
        fill: #3e3f5f;
      }

      .st50 {
        fill: #f5a31f;
      }

      .st51 {
        fill: #3d3e5d;
      }

      .st52 {
        fill: #f6a51c;
      }

      .st53 {
        fill: #f2f2f2;
      }

      .st54 {
        fill: #3e3f5e;
      }

      .st55 {
        fill: #feba03;
      }

      .st56 {
        fill: #43446a;
      }

      .st57 {
        fill: #383838;
      }

      .st58 {
        fill: #f7a917;
      }

      .st59 {
        fill: #424367;
      }

      .st60 {
        fill: #f9ad12;
      }

      .st61 {
        fill: #43456b;
      }

      .st62 {
        fill: #404163;
      }

      .st63 {
        fill: #404264;
      }

      .st64 {
        fill: #f5a221;
      }

      .st65 {
        fill: #f39c28;
      }

      .st66 {
        fill: #f8ab14;
      }

      .st67 {
        fill: #f29a2a;
      }

      .st68 {
        clip-path: url(#clippath);
      }

      .st69 {
        fill: #f6a61b;
      }

      .st70 {
        fill: #fcb509;
      }

      .st71 {
        fill: #f7a818;
      }

      .st72 {
        fill: #f1982d;
      }

      .st73 {
        fill: #fdb904;
      }
    </style>
    <clipPath id="clippath">
      <rect class="st0" x="73.1" y="404" width="388.5" height="5.6"/>
    </clipPath>
    <clipPath id="clippath-1">
      <rect class="st0" x="163.1" y="184.8" width="93.8" height="93.8" rx="9.8" ry="9.8"/>
    </clipPath>
    <clipPath id="clippath-2">
      <polygon class="st0" points="478.1 209.6 480.4 224.8 489.9 219.9 480.8 213.3 480.3 209.8 516.5 193.7 478.1 209.6"/>
    </clipPath>
  </defs>
  <g id="Layer_1-2">
    <g class="st24">
      <g class="st24">
        <path d="M649.2,310.8c0-.4-.3-.4-.7-.4h-.3v-1.7h1.1c1,0,1.5.2,1.7,1.1l2.1,8.9c.2.7.3,1.5.3,1.5h0s.1-.7.3-1.5l2.8-9.9h1.8l2.6,9.9c.2.8.3,1.5.3,1.5h0s0-.7.3-1.5l2.2-8.9c.2-.9.7-1.1,1.7-1.1h1.1v1.7h-.3c-.4,0-.6,0-.7.4l-3,11.7h-2.3l-2.3-8.7c-.2-.9-.4-1.9-.4-1.9h0s-.2,1-.4,1.9l-2.5,8.7h-2.3l-3-11.7Z"/>
        <path d="M669.5,320.8h1.3v-10.4h-1.3v-1.7h4.5v1.7h-1.3v10.4h1.3v1.7h-4.5v-1.7Z"/>
        <path d="M682.1,310.4h-2.8c-.3,0-.4.1-.4.4v.9h-1.7v-1.8c0-.9.3-1.2,1.2-1.2h9.5c.9,0,1.2.3,1.2,1.2v1.8h-1.7v-.9c0-.3-.2-.4-.4-.4h-2.8v12.1h-2v-12.1Z"/>
        <path d="M693.2,310.8c0-.3-.2-.4-.4-.4h-.8v-1.7h2c.9,0,1.2.4,1.2,1.2v4.8h7v-4.8c0-.9.4-1.2,1.2-1.2h2v1.7h-.8c-.3,0-.4.1-.4.4v11.7h-2v-6h-7v6h-2v-11.7Z"/>
        <path d="M717.1,319.3s1.4,1.7,3.5,1.7,2.4-.8,2.4-2c0-2.9-6.7-2.4-6.7-6.7s1.8-3.7,4.4-3.7,3.9.7,3.9,2.5v1.1h-1.8v-.6c0-.7-1-1.2-2.1-1.2s-2.4.8-2.4,1.9c0,2.8,6.6,2.2,6.6,6.7s-1.6,3.9-4.4,3.9-4.6-2-4.6-2l1.2-1.4Z"/>
        <path d="M729.6,310.4h-1.3v-1.7h6.1c2.5,0,4.3,1.7,4.3,4.3s-1.8,4.4-4.3,4.4h-2.8v5.1h-2v-12.1ZM734.1,315.7c1.6,0,2.6-1,2.6-2.7s-1-2.6-2.6-2.6h-2.6v5.3h2.5Z"/>
      </g>
      <g class="st24">
        <path d="M748.8,308.5c4,0,7.1,3.1,7.1,7s-3.1,7.2-7.1,7.2-7.1-3.2-7.1-7.2,3.1-7,7.1-7ZM748.8,320.9c2.8,0,5.1-2.3,5.1-5.4s-2.3-5.2-5.1-5.2-5,2.3-5,5.2,2.2,5.4,5,5.4Z"/>
      </g>
      <g class="st24">
        <path d="M763.4,310.4h-2.8c-.3,0-.4.1-.4.4v.9h-1.7v-1.8c0-.9.3-1.2,1.2-1.2h9.5c.9,0,1.2.3,1.2,1.2v1.8h-1.7v-.9c0-.3-.2-.4-.4-.4h-2.8v12.1h-2v-12.1Z"/>
        <path d="M774.5,310.8c0-.3-.2-.4-.4-.4h-.8v-1.7h2c.9,0,1.2.4,1.2,1.2v10.4c0,.3.2.4.4.4h3.8c.3,0,.4-.2.4-.4v-.9h1.8v1.7c0,.9-.4,1.2-1.2,1.2h-5.9c-.9,0-1.2-.4-1.2-1.2v-10.4Z"/>
        <path d="M785.8,320.8h1.3v-10.4h-1.3v-1.7h4.5v1.7h-1.3v10.4h1.3v1.7h-4.5v-1.7Z"/>
      </g>
      <g class="st24">
        <path d="M800.8,308.5c3.3,0,4.9,1.7,4.9,1.7l-1.1,1.4s-1.5-1.3-3.8-1.3-5,2.2-5,5.3,2.2,5.3,5,5.3,3.9-1.7,3.9-1.7v-1.4c0-.3-.2-.4-.4-.4h-.8v-1.7h1.8c.9,0,1.2.4,1.2,1.2v5.6h-1.7v-.9c0-.3,0-.6,0-.6h0s-1.5,1.7-4.3,1.7-6.7-2.9-6.7-7.2,3-7.1,6.9-7.1Z"/>
      </g>
      <g class="st24">
        <path d="M811.3,310.8c0-.3-.2-.4-.4-.4h-.8v-1.7h2c.9,0,1.2.4,1.2,1.2v4.8h7v-4.8c0-.9.4-1.2,1.2-1.2h2v1.7h-.8c-.3,0-.4.1-.4.4v11.7h-2v-6h-7v6h-2v-11.7Z"/>
      </g>
      <g class="st24">
        <path d="M831.4,310.4h-2.8c-.3,0-.4.1-.4.4v.9h-1.7v-1.8c0-.9.3-1.2,1.2-1.2h9.5c.9,0,1.2.3,1.2,1.2v1.8h-1.7v-.9c0-.3-.2-.4-.4-.4h-2.8v12.1h-2v-12.1Z"/>
      </g>
      <g class="st24">
        <path d="M849.3,310.4h-1.3v-1.7h5.9c2.3,0,4,1.3,4,3.5s-.8,2.5-1.7,3h0c1.5.5,2.3,1.8,2.3,3.4,0,2.6-2,3.9-4.4,3.9h-3.5c-.9,0-1.2-.4-1.2-1.2v-10.8ZM854,314.5c1.2,0,2-.9,2-2.1s-.7-2-2-2h-2.7v4.1h2.7ZM851.7,320.8h2.5c1.5,0,2.3-.9,2.3-2.3s-.9-2.4-2.3-2.4h-2.9v4.3c0,.3.2.4.4.4Z"/>
      </g>
      <g class="st24">
        <path d="M865.8,316.5l-3.5-5.6c-.3-.4-.4-.5-.8-.5h-.4v-1.7h.9c.9,0,1.3.1,1.9,1.1l2.1,3.5c.4.8.8,1.5.8,1.5h0s.4-.8.8-1.5l2.1-3.5c.5-.9.9-1.1,1.9-1.1h.9v1.7h-.4c-.4,0-.6,0-.9.5l-3.5,5.6v6h-2v-6Z"/>
      </g>
      <g class="st24">
        <path d="M881.4,321.2l6.8-9.6c.5-.8,1-1.3,1-1.3h0s-.4,0-1,0h-4.4c-.3,0-.4.1-.4.4v.9h-1.8v-1.7c0-.9.4-1.2,1.2-1.2h8.8v1.3l-6.8,9.6c-.5.8-1,1.2-1,1.2h0s.4,0,1,0h4.9c.3,0,.4-.2.4-.4v-.9h1.8v1.7c0,.9-.4,1.2-1.2,1.2h-9.3v-1.3Z"/>
        <path d="M896.4,310.4h-1.3v-1.7h8.1c.9,0,1.2.4,1.2,1.2v1.7h-1.8v-.9c0-.3-.2-.4-.4-.4h-3.9v4.3h4.8v1.7h-4.8v4c0,.3.2.4.4.4h4c.3,0,.4-.2.4-.4v-.9h1.8v1.7c0,.9-.4,1.2-1.2,1.2h-6.1c-.9,0-1.2-.4-1.2-1.2v-10.8Z"/>
        <path d="M908.1,320.8h.8c.3,0,.4-.2.4-.4v-11.7h1.8l6.1,8.7c.5.7,1.2,1.9,1.2,1.9h0s-.1-1.1-.1-1.9v-7.5c0-.9.4-1.2,1.3-1.2h2v1.7h-.8c-.3,0-.4.1-.4.4v11.7h-1.8l-6.1-8.7c-.5-.7-1.1-1.9-1.1-1.9h0s.1,1.1.1,1.9v7.5c0,.9-.4,1.2-1.2,1.2h-2v-1.7Z"/>
      </g>
      <g class="st24">
        <path d="M931.8,308.5c1.9,0,5.2.8,5.2,3v1.3h-1.8v-.8c0-1.2-2-1.7-3.3-1.7-2.8,0-4.9,2.1-4.9,5.2s2.2,5.4,5,5.4,4.3-1.9,4.3-1.9l1.1,1.4s-2,2.3-5.4,2.3-7-3.2-7-7.2,3-7,6.9-7Z"/>
      </g>
      <g class="st24">
        <path d="M944.6,316.5l-3.5-5.6c-.3-.4-.4-.5-.8-.5h-.4v-1.7h.9c.9,0,1.3.1,1.9,1.1l2.1,3.5c.4.8.8,1.5.8,1.5h0s.4-.8.8-1.5l2.1-3.5c.5-.9.9-1.1,1.9-1.1h.9v1.7h-.4c-.4,0-.6,0-.9.5l-3.5,5.6v6h-2v-6Z"/>
      </g>
    </g>
    <path class="st1" d="M936.3,135.9c-1.8,6.4-4.1,12.2-7.6,17.8-5.4,8.6,5.7,20.4,14.4,14.4,4.6-3.2,9.2-6.4,13.7-9.6s6.8-9.2,3.8-14.4c-2.7-4.6-9.7-7-14.4-3.8s-9.2,6.4-13.7,9.6l14.4,14.4c4.4-7,7.5-14.8,9.8-22.8,3.6-13-16.6-18.6-20.2-5.6h0Z"/>
    <g>
      <path class="st1" d="M974.9,156.7c-11.8-.2-22.6,1.3-26.7,14.1-3.6,11.1,14.3,19.1,19.2,8.1,1.5-3.4,3-6.8,4.6-10.1,2.5-5.6,1-14.1-6.3-15.4-15-2.8-30.2-1.3-45.4-1.2s-30.5-.4-45.5,1.3c-7.5.9-15,2.1-22.1,4.6-5.5,1.9-11.9,5.5-17.9,4.7-5-.6-9.6-3.9-14.1-5.9-7.3-3.2-13.8-4.5-21.8-3.3l12.9,12.9c1.3-7.6,2-15.1,1.7-22.8-.3-7-6.5-11.7-13.3-10.1-8.9,2.1-17.9,3.7-27,4.5l9.1,15.8.9-1.2-3.8,3.8c-4,3-7.5-2.3-4.4,1.2.8,1,1.7,2,2.5,2.9,2.3,2.4,5,4.6,8,6,7.5,3.6,15.7,2.3,23.1-.8,14.8-6.1,28.3-14.9,41.6-23.5l-14.4-14.4c-1.6,3.1-3.2,6.2-4.8,9.3-5.5,10.7,7.5,20.8,16.5,12.7,6.3-5.7,14.4-7.8,22.5-5.3l-4.6-2.7c-.5-.5-.8-2.5-.3-.2.3,1.2.8,2.3,1.2,3.4,1.1,2.8,2.7,5.1,5,6.9,4.7,3.8,11.1,5.2,17,4.6,5.4-.6,10-2.8,15.1-4.6,4.1-1.4,5.7-1.3,9.8.5,6.2,2.8,11.3,3.6,18,2.7,5.6-.8,11.1-2.3,16.5-3.8,5.1-1.4,10.3-2.9,15.6-3.1,4.9-.1,11,1.1,15.1,1.8,5.6.9,11.3-1.5,12.9-7.3,1.4-5-1.7-12-7.3-12.9-7.3-1.2-14.9-2.9-22.3-2.4-7.5.5-14.7,2.4-21.9,4.4-5.6,1.5-12,4.3-17.3,2-7.5-3.2-13.8-5-22-2.8-4.9,1.3-10.3,4.4-14.7,5-.6,0-1.2-.2-1.8-.6l1.5,1.4c.4.8.3.5-.1-.7-.2-.7-.4-1.4-.7-2.1-1.5-4-3.8-7.3-7.8-9.2-14.7-6.9-33,0-44.2,10.1,5.5,4.2,11,8.5,16.5,12.7,1.6-3.1,3.2-6.2,4.8-9.3,4.6-8.8-5.1-20.4-14.4-14.4-7.5,4.8-15,9.6-22.7,14-6,3.4-13.2,8.3-20.2,9.5-4,.7-6-4.3-9.2-7-8-6.9-17.2-5.8-23.4,2.6-4.7,6.2,1.6,16.5,9.1,15.8,11-1,21.9-2.7,32.6-5.2-4.4-3.4-8.9-6.8-13.3-10.1.2,5.8,0,11.5-1,17.2-1.5,8.4,4.7,14.1,12.9,12.9,4-.6,9.1,2.9,12.5,4.5,6.2,3,12.4,5.6,19.4,5.5s13.2-2.3,19.5-4.6,12.4-3.9,18.9-4.7c14.4-1.8,29.2-1.2,43.6-1.3,13.7,0,28.2-2,41.7.5-2.1-5.1-4.2-10.3-6.3-15.4-1.5,3.4-3,6.8-4.6,10.1,6.4,2.7,12.8,5.4,19.2,8.1-.2.5-.7.7-1,1.1-.4.6,0,.2.3.1,2.4-.2,4.8,0,7.1.1,13.5.3,13.5-20.7,0-21h0Z"/>
      <path class="st1" d="M776.5,137.9c-3.5,5.9-6.4,12.2-8.4,18.7s-4.1,15.1-.6,21.4,11.1,8.5,17.8,6.7c7.2-1.9,12.6-7.3,16.4-13.5l-19.6-5.3c0,3.1,0,6.3-.1,9.5-.1,8,9,13.1,15.8,9.1,8.3-4.9,14-12.7,17.7-21.5,2-4.8,1.8-10.1-2.7-13.6-4-3-10.2-3.1-13.8.8-9.1,10-3.6,29.2,11.4,28.6,12.8-.5,22.8-13.4,28-23.9,4.3-8.7-5-20.7-14.4-14.4-11.3,7.7-8.2,26.1,4.8,30.3,12.8,4.1,24.3-5.4,29.5-16.4,5-10.4-7.6-21.6-16.5-12.7-10.1,10-4.6,33,11.3,32.5,6.9-.2,11.9-5.2,15.5-10.7,1.4-2.1,2.5-4.4,3.7-6.6.6-1.2,1.3-2.3,2-3.5,1-1.7-1.2.9.8-.9-5.8-3.4-11.7-6.8-17.5-10.2-2.2,10,.6,20.9,9.2,27.1,4.6,3.3,10.1,3.7,15.5,2,2.1-.7,4.5-1.4,6.4-2.4,1.7-.9,2.5-1.9,4-2.1h-5.6l1.2.2-4.6-2.7c-1.2-1.4.4,1.3.4,1.4.3.6.5,1.3.8,2,1.2,2.4,2.7,4.4,4.8,6,5.1,3.7,11.7,3.1,17.4.9,11.3-4.3,18.8-14.1,25-24-6.4-2.7-12.8-5.4-19.2-8.1-.4,1.2-.3,1.2.2,0-.7,1.1-.4.8.8-1h14.8,0c.9,3.3,1.8,6.7,2.7,10.1-.8,3.2.1,0,.8-1-6.4-2.7-12.8-5.4-19.2-8.1-2.1,10-2.4,26.7,11.9,27.2,8.7.3,14.7-7.1,20.6-12.4-5.8-3.4-11.7-6.8-17.5-10.2-.6,2.9-1.2,5.9-1.8,8.8-1.8,9,7,16.3,15.4,11.9,3.9-2.1,7.4-4.7,10.7-7.7-5.8-3.4-11.7-6.8-17.5-10.2-1,5.4-2.2,10.9-4.5,15.9-3.5,7.6,2.4,18.7,11.9,15.4,8.2-2.8,13.5-8.3,20.3-13.2l-5.3,1.4h1.9l-10.1-7.7.4,1,1.1-8.1h.3c5.5,4.1,11,8.3,16.5,12.6,3.6-5.7,9.2-9.8,14.1-14.3,4-3.8,8.4-8,13.7-9.9-4-5.1-7.9-10.3-11.9-15.4-3.8,6.4-7.6,12.8-11.4,19.2-6.2,10.4,7.9,20.9,16.5,12.7,3.8-3.6,7.7-6.8,12-9.7,4.7-3.1,6.8-9.3,3.8-14.4-2.7-4.7-9.6-6.9-14.4-3.8-5.8,3.9-11.2,8.2-16.3,13,5.5,4.2,11,8.5,16.5,12.7,3.8-6.4,7.6-12.8,11.4-19.2,4.4-7.5-3-18.5-11.9-15.4-8.3,2.9-15.4,8.1-21.7,14.1-6.7,6.3-13.6,11.9-18.6,19.7-6.4,9.9,8.5,21.6,16.5,12.7,3.3-3.7,5.7-8.2,3.7-13.2-1.7-4.4-5.2-7.7-10.1-7.7-10,0-13.9,9.5-22.5,12.5,4,5.1,7.9,10.3,11.9,15.4,3.1-6.8,5.4-13.6,6.7-20.9,1.8-10.2-9.4-17.6-17.5-10.2-2,1.8-4,3.1-6.4,4.4,5.1,3.9,10.3,7.9,15.4,11.9.6-2.9,1.2-5.9,1.8-8.8,2.1-10.4-9.5-17.4-17.5-10.2-1.1,1-2.1,2.1-3.2,3.1-.7.6-1.3,1.2-2,1.8,0,0-2.6,2.1-1.3,1.1-.5.3-1.8,1.8-1.2.8,1.7-2.6,10.6,1.4,9.6,4.2.7-1.9.2-3,.7-5.3,2.4-11.4-12.9-18.7-19.2-8.1-1.1,1.9-2.3,3.9-2.9,6-1,3.6,0,7.6,2.7,10.2h0c4.2,4.2,10.5,3.9,14.8,0,2.3-2,3.7-5.4,4.5-8.2,3.1-11.6-12.9-18.2-19.2-8.1-3,4.9-6.4,10.1-11.2,13.4-.5.3-2.2,1.1-2.6,1.4-.8-.2-1.2,0-1.4.5,1.8.4,3.2,1.2,4.4,2.4,0,0-.5-1.6-1-2.6-.4-1-.9-1.9-1.5-2.8-2.5-3.8-6.3-6.2-10.9-6.2s-7.3,2.1-10.9,4.1c1.4-.8-2.5,1-2.2.8-1.9.4-1.7.7.7,1,2.2,1,2.6.9,1-.4,0-1.2-.8-2.9-.6-3.9,2.3-10.3-9.7-17.4-17.5-10.2-4.5,4.1-6.7,10.2-9.7,15.3,0,.2-.3,1.6-1.3,1.6.4,0,1.5-.9,1.9-1.1,2.2-.7,4.1.5,5.9,1.5.5.2.6,1.2.9,1.3-.2-1.1-.3-1.3-.2-.6,0,.5,0,.5,0-.2-.4-2.5.4-.3-1.1,1.1-5.5-4.2-11-8.5-16.5-12.7-.8,1.6-1.6,3.4-2.8,4.9,0,0-2.3,2.2-2.3,2,0-.5,3.3,3.2,1.8,1.7,1,1.6,1.3,1.9,1,.9-.1-.6-.2-.6,0,0,0,.5.1,1.6-.2,2.1l-3.8,3.8.7-.5-14.4-14.4c-2.1,4.1-4.3,8.2-7.9,11.3-.6.5-.9.8-1.6,1.2-.6.4-1.3.8-2,1.2l.4-.2c0-.3,6,3.8,6.2,4.1,0,.8,0,.9,0,0,0-1.9-.5-.9-1.6,3.1-5.5-4.2-11-8.5-16.5-12.7-2.3,5.4-5,10.9-10.2,13.9,5.3,3,10.5,6,15.8,9.1,0-3.1,0-6.3.1-9.5.2-10.7-14.2-13.9-19.6-5.3-.7,1-1.3,2.1-2.2,2.9-.3.2-1.7,1.1-1.7,1,1.7-.4,3,.6,3.8,2.9,2.4,3.8,3.5,4.3,3.3,1.5.4-.7.5-2.8.7-3.5,1.5-6,4-11.6,7.2-16.9,6.8-11.7-11.3-22.3-18.1-10.6h0Z"/>
    </g>
    <g>
      <g class="st24">
        <g class="st24">
          <path d="M646.5,134.9h22.6v7.7h-7.4v33.2h-7.9v-33.2h-7.2v-7.7Z"/>
          <path d="M673.6,145.5h7.7v14.6c0,2.8.2,4.8.6,5.9.4,1.1,1,2,1.9,2.6s1.9.9,3.2.9,2.3-.3,3.2-.9c.9-.6,1.5-1.5,2-2.7.3-.9.5-2.7.5-5.6v-14.8h7.6v12.8c0,5.3-.4,8.9-1.2,10.8-1,2.4-2.5,4.2-4.5,5.5-2,1.3-4.5,1.9-7.6,1.9s-6-.7-8-2.2-3.5-3.5-4.3-6.2c-.6-1.8-.9-5.2-.9-10v-12.6Z"/>
          <path d="M706,145.5h6.5v3.8c.7-1.5,1.6-2.6,2.8-3.4,1.2-.8,2.4-1.2,3.8-1.2s2,.3,3.1.8l-2.4,6.5c-.9-.4-1.6-.7-2.2-.7-1.2,0-2.2.7-3,2.2-.8,1.4-1.2,4.3-1.2,8.5v1.5s0,12.2,0,12.2h-7.5v-30.2Z"/>
          <path d="M725.9,145.5h7.6v3.1c1.7-1.4,3.3-2.5,4.7-3,1.4-.6,2.8-.8,4.3-.8,3,0,5.5,1,7.6,3.1,1.8,1.8,2.6,4.4,2.6,7.9v20h-7.5v-13.2c0-3.6-.2-6-.5-7.2-.3-1.2-.9-2.1-1.7-2.7-.8-.6-1.8-.9-3-.9s-2.8.5-3.9,1.5c-1.1,1-1.9,2.4-2.3,4.3-.2.9-.3,3-.3,6.1v12.1h-7.6v-30.2Z"/>
          <path d="M773.7,134.9h8l10.3,29,10.4-29h8l-14.7,40.9h-7.5l-14.5-40.9Z"/>
          <path d="M818.8,133c1.3,0,2.5.5,3.4,1.4,1,1,1.4,2.1,1.4,3.5s-.5,2.5-1.4,3.5c-.9,1-2.1,1.4-3.4,1.4s-2.5-.5-3.4-1.5c-1-1-1.4-2.2-1.4-3.5s.5-2.5,1.4-3.4,2.1-1.4,3.4-1.4ZM815,145.5h7.6v30.2h-7.6v-30.2Z"/>
          <path d="M848,149.7l-4.7,4.7c-1.9-1.9-3.6-2.8-5.2-2.8s-1.5.2-2,.5-.7.8-.7,1.3.2.8.5,1.1c.3.3,1.1.8,2.3,1.4l2.8,1.4c2.9,1.4,4.9,2.9,6,4.4,1.1,1.5,1.6,3.3,1.6,5.3s-1,4.9-3,6.7c-2,1.8-4.6,2.7-7.9,2.7s-7.9-1.7-10.6-5.2l4.7-5.1c.9,1,1.9,1.9,3.1,2.5s2.3,1,3.2,1,1.8-.2,2.4-.7c.6-.5.9-1,.9-1.7,0-1.2-1.1-2.3-3.3-3.4l-2.6-1.3c-4.9-2.5-7.3-5.5-7.3-9.2s.9-4.4,2.8-6.1c1.8-1.7,4.2-2.5,7.1-2.5s3.8.4,5.5,1.3c1.7.9,3.2,2.1,4.4,3.7Z"/>
          <path d="M857.4,133c1.3,0,2.5.5,3.4,1.4s1.4,2.1,1.4,3.5-.5,2.5-1.4,3.5c-.9,1-2.1,1.4-3.4,1.4s-2.5-.5-3.4-1.5c-1-1-1.4-2.2-1.4-3.5s.5-2.5,1.4-3.4c.9-.9,2.1-1.4,3.4-1.4ZM853.6,145.5h7.6v30.2h-7.6v-30.2Z"/>
          <path d="M875.6,133.8v15c1.4-1.4,2.9-2.4,4.4-3.1,1.6-.7,3.3-1,5.1-1,3.9,0,7.3,1.5,10.1,4.5s4.1,6.8,4.1,11.5-1.4,8.3-4.3,11.3c-2.9,3-6.2,4.5-10.1,4.5s-3.4-.3-4.9-.9-3-1.6-4.5-3v3.2h-7.5v-41.9h7.5ZM883.6,151.7c-2.4,0-4.4.8-5.9,2.4-1.6,1.6-2.4,3.8-2.4,6.4s.8,4.9,2.4,6.5c1.6,1.7,3.6,2.5,5.9,2.5s4.3-.8,5.8-2.5c1.6-1.7,2.4-3.8,2.4-6.4s-.8-4.7-2.3-6.4c-1.6-1.7-3.5-2.5-5.9-2.5Z"/>
          <path d="M908.6,133c1.3,0,2.5.5,3.4,1.4s1.4,2.1,1.4,3.5-.5,2.5-1.4,3.5c-.9,1-2.1,1.4-3.4,1.4s-2.5-.5-3.4-1.5c-1-1-1.4-2.2-1.4-3.5s.5-2.5,1.4-3.4c.9-.9,2.1-1.4,3.4-1.4ZM904.8,145.5h7.6v30.2h-7.6v-30.2Z"/>
          <path d="M918.5,133.8h7.6v41.9h-7.6v-41.9Z"/>
          <path d="M935.9,133c1.3,0,2.5.5,3.4,1.4s1.4,2.1,1.4,3.5-.5,2.5-1.4,3.5c-.9,1-2.1,1.4-3.4,1.4s-2.5-.5-3.4-1.5c-1-1-1.4-2.2-1.4-3.5s.5-2.5,1.4-3.4c.9-.9,2.1-1.4,3.4-1.4ZM932.1,145.5h7.6v30.2h-7.6v-30.2Z"/>
          <path d="M947.5,134.4h7.6v11.1h4.5v6.5h-4.5v23.7h-7.6v-23.7h-3.9v-6.5h3.9v-11.1Z"/>
          <path d="M960.3,145.5h7.7l7.8,19,8.7-19h7.8l-18.9,41.3h-7.8l6.2-13.3-11.5-28Z"/>
        </g>
        <g class="st24">
          <path d="M652.7,195c1.3,0,2.5.5,3.4,1.4,1,1,1.4,2.1,1.4,3.5s-.5,2.5-1.4,3.5c-.9,1-2.1,1.4-3.4,1.4s-2.5-.5-3.4-1.5c-1-1-1.4-2.2-1.4-3.5s.5-2.5,1.4-3.4,2.1-1.4,3.4-1.4ZM648.9,207.4h7.6v30.2h-7.6v-30.2Z"/>
          <path d="M663.4,207.4h7.6v3.1c1.7-1.4,3.3-2.5,4.7-3,1.4-.6,2.8-.8,4.3-.8,3,0,5.5,1,7.6,3.1,1.8,1.8,2.6,4.4,2.6,7.9v20h-7.5v-13.2c0-3.6-.2-6-.5-7.2-.3-1.2-.9-2.1-1.7-2.7-.8-.6-1.8-.9-3-.9s-2.8.5-3.9,1.5c-1.1,1-1.9,2.4-2.3,4.3-.2.9-.3,3-.3,6.1v12.1h-7.6v-30.2Z"/>
          <path d="M698.4,196.3h7.6v11.1h4.5v6.5h-4.5v23.7h-7.6v-23.7h-3.9v-6.5h3.9v-11.1Z"/>
          <path d="M728.7,206.7c2.9,0,5.5.7,8,2.1,2.5,1.4,4.5,3.4,5.9,5.8,1.4,2.4,2.1,5.1,2.1,7.9s-.7,5.5-2.1,8c-1.4,2.5-3.3,4.4-5.8,5.8s-5.1,2.1-8.1,2.1c-4.3,0-8-1.5-11.1-4.6s-4.6-6.8-4.6-11.2,1.7-8.7,5.2-11.8c3-2.7,6.5-4.1,10.5-4.1ZM728.9,213.8c-2.4,0-4.3.8-5.9,2.5s-2.4,3.7-2.4,6.3.8,4.8,2.3,6.4c1.5,1.6,3.5,2.4,5.9,2.4s4.3-.8,5.9-2.5c1.6-1.6,2.4-3.8,2.4-6.4s-.8-4.7-2.3-6.3-3.5-2.4-5.9-2.4Z"/>
          <path d="M764.6,196.8h8l10.3,29,10.4-29h8l-14.7,40.9h-7.5l-14.5-40.9Z"/>
          <path d="M837,224.7h-24.4c.4,2.1,1.3,3.9,2.8,5.1,1.5,1.3,3.5,1.9,5.8,1.9s5.3-1,7.3-3l6.4,3c-1.6,2.3-3.5,3.9-5.7,5-2.2,1.1-4.9,1.6-7.9,1.6-4.7,0-8.6-1.5-11.6-4.5-3-3-4.5-6.7-4.5-11.2s1.5-8.4,4.5-11.5c3-3,6.7-4.6,11.2-4.6s8.6,1.5,11.6,4.6c3,3,4.5,7.1,4.5,12.1v1.4ZM829.4,218.8c-.5-1.7-1.5-3.1-3-4.1-1.5-1.1-3.2-1.6-5.1-1.6s-4,.6-5.6,1.8c-1,.7-1.9,2-2.8,3.9h16.4Z"/>
          <path d="M842.3,195.8h7.6v41.9h-7.6v-41.9Z"/>
          <path d="M870.9,206.7c2.9,0,5.5.7,8,2.1s4.5,3.4,5.9,5.8,2.1,5.1,2.1,7.9-.7,5.5-2.1,8-3.3,4.4-5.8,5.8c-2.4,1.4-5.1,2.1-8.1,2.1-4.3,0-8-1.5-11.1-4.6s-4.6-6.8-4.6-11.2,1.7-8.7,5.2-11.8c3-2.7,6.5-4.1,10.5-4.1ZM871.1,213.8c-2.4,0-4.3.8-5.9,2.5-1.6,1.6-2.4,3.7-2.4,6.3s.8,4.8,2.3,6.4,3.5,2.4,5.9,2.4,4.3-.8,5.9-2.5c1.6-1.6,2.4-3.8,2.4-6.4s-.8-4.7-2.3-6.3c-1.5-1.6-3.5-2.4-5.9-2.4Z"/>
          <path d="M922.7,213.6l-6.3,3.5c-1.2-1.2-2.4-2.1-3.5-2.6-1.2-.5-2.5-.7-4.1-.7-2.8,0-5.1.8-6.9,2.5s-2.6,3.9-2.6,6.5.8,4.7,2.5,6.3c1.7,1.6,3.9,2.4,6.6,2.4s6-1.2,7.9-3.5l6,4.1c-3.2,4.2-7.8,6.3-13.7,6.3s-9.5-1.6-12.5-4.7c-3-3.1-4.5-6.8-4.5-11.1s.7-5.6,2.2-8.1c1.5-2.5,3.5-4.4,6.1-5.8,2.6-1.4,5.6-2.1,8.8-2.1s5.7.6,8.1,1.8,4.3,2.9,5.9,5.1Z"/>
          <path d="M932.5,195c1.3,0,2.5.5,3.4,1.4s1.4,2.1,1.4,3.5-.5,2.5-1.4,3.5c-.9,1-2.1,1.4-3.4,1.4s-2.5-.5-3.4-1.5c-1-1-1.4-2.2-1.4-3.5s.5-2.5,1.4-3.4c.9-.9,2.1-1.4,3.4-1.4ZM928.7,207.4h7.6v30.2h-7.6v-30.2Z"/>
          <path d="M944.1,196.3h7.6v11.1h4.5v6.5h-4.5v23.7h-7.6v-23.7h-3.9v-6.5h3.9v-11.1Z"/>
          <path d="M956.9,207.4h7.7l7.8,19,8.7-19h7.8l-18.9,41.3h-7.8l6.2-13.3-11.5-28Z"/>
        </g>
      </g>
      <g>
        <polygon class="st23" points="1004 221.9 994.1 216.4 1005.2 216.9 1001.9 210.1 1007.9 214.3 1007.2 204.9 1011.5 212.7 1018.1 203.7 1015.3 214.9 1025.2 211.6 1017.3 218.8 1026.9 220.6 1017.7 222.8 1022.9 231.9 1014.4 226.9 1014.1 236.5 1010.6 227.7 1006 234.7 1006.2 226.3 998.2 229.3 1004 221.9"/>
        <polygon class="st46" points="1006.9 221 1001.1 218.3 1007.5 218.1 1005.8 214.3 1009.2 216.3 1009 211.1 1011.3 215.4 1014.8 211 1013.3 216.6 1019 215.1 1014.3 219.1 1020.1 220.5 1014.8 221.8 1018.6 227.5 1012.8 223.6 1012.7 228.7 1010.6 224 1008.2 227.5 1008.3 223.3 1004.1 225.2 1006.9 221"/>
        <polygon class="st34" points="1009 220.3 1006.6 219.2 1009.3 219.1 1008.6 217.5 1010 218.3 1010 216.1 1010.9 218 1012.4 216.1 1011.7 218.4 1014.2 217.8 1012.2 219.6 1014.6 220.1 1012.4 220.6 1014 223.1 1011.5 221.4 1011.5 223.6 1010.6 221.6 1009.6 223.1 1009.6 221.3 1007.8 222.1 1009 220.3"/>
      </g>
    </g>
    <g>
      <path d="M132.1,439l-10-10.8-13.4,6.1-3.2-14.3-14.6-1.4,4.4-14-12-8.5,10.8-10-6.1-13.4,14.3-3.2,1.4-14.6,14,4.4,8.6-12,10,10.8,13.4-6.1,3.2,14.3,14.6,1.4-4.3,14,11.9,8.6-10.8,10,6.1,13.4-14.3,3.2-1.4,14.6-14-4.3-8.5,11.9ZM122.3,427l9.6,10.4,8.3-11.5,13.6,4.2,1.4-14.1,13.8-3.1-5.9-12.9,10.4-9.6-11.5-8.3,4.2-13.5-14.1-1.4-3.1-13.9-12.9,5.9-9.6-10.4-8.3,11.5-13.5-4.2-1.4,14.1-13.8,3.1,5.9,12.9-10.4,9.6,11.5,8.3-4.2,13.6,14.1,1.4,3.1,13.8,12.9-5.9Z"/>
      <g>
        <g>
          <path class="st57" d="M408.5,411H126.1V49.9c0-14,10.7-25.5,23.9-25.5h234.6c11.7,0,21.9,9.3,23.6,21.6h0c.2,1.3.3,2.6.3,3.9v361.1h0ZM129.1,408h276.4V49.9c0-1.2,0-2.3-.2-3.4h0c-1.5-10.8-10.4-19-20.7-19h-234.6c-11.5,0-20.9,10.1-20.9,22.5v358.1h0Z"/>
          <path class="st53" d="M398,409.5V89c0-5.8-4.4-10.5-9.8-10.5h-241.6c-5.4,0-9.8,4.7-9.8,10.5v320.5h261.2Z"/>
          <path class="st53" d="M313.1,56h-91.6c-1.4,0-2.6,1.2-2.6,2.8s1.2,2.8,2.6,2.8h91.6c1.4,0,2.6-1.2,2.6-2.8s-1.2-2.8-2.6-2.8Z"/>
        </g>
        <g class="st68">
          <rect class="st61" x="73.1" y="404" width="388.5" height=".1"/>
          <rect class="st56" x="73.1" y="404.1" width="388.5" height=".3"/>
          <rect class="st20" x="73.1" y="404.4" width="388.5" height=".3"/>
          <rect class="st4" x="73.1" y="404.8" width="388.5" height=".3"/>
          <rect class="st59" x="73.1" y="405.1" width="388.5" height=".3"/>
          <rect class="st15" x="73.1" y="405.4" width="388.5" height=".3"/>
          <rect class="st17" x="73.1" y="405.8" width="388.5" height=".3"/>
          <rect class="st63" x="73.1" y="406.1" width="388.5" height=".3"/>
          <rect class="st62" x="73.1" y="406.4" width="388.5" height=".3"/>
          <rect class="st10" x="73.1" y="406.7" width="388.5" height=".3"/>
          <rect class="st16" x="73.1" y="407.1" width="388.5" height=".3"/>
          <rect class="st18" x="73.1" y="407.4" width="388.5" height=".3"/>
          <rect class="st49" x="73.1" y="407.7" width="388.5" height=".3"/>
          <rect class="st54" x="73.1" y="408.1" width="388.5" height=".3"/>
          <rect class="st51" x="73.1" y="408.4" width="388.5" height=".3"/>
          <rect class="st43" x="73.1" y="408.7" width="388.5" height=".3"/>
          <rect class="st43" x="73.1" y="409.1" width="388.5" height=".5"/>
        </g>
        <g>
          <path class="st22" d="M435.2,311.6h57.5c2.6,0,4.7,2.1,4.7,4.7v36.5c0,2.6-2.1,4.7-4.7,4.7h-37.3l-11.8,9.5v-9.5h-8.3c-2.6,0-4.7-2.1-4.7-4.7v-36.5c0-2.6,2.1-4.7,4.7-4.7h0Z"/>
          <polygon class="st34" points="463.9 318.9 459.2 328.6 448.5 330.1 456.2 337.6 454.4 348.3 463.9 343.2 473.5 348.3 471.6 337.6 479.4 330.1 468.7 328.6 463.9 318.9"/>
        </g>
        <g>
          <path class="st22" d="M99.8,178h-54.2c-2.9,0-5.2,2.3-5.2,5.2v40.8c0,2.9,2.3,5.2,5.2,5.2h31.7l13.2,10.6v-10.6h9.3c2.9,0,5.2-2.3,5.2-5.2v-40.8c0-2.9-2.3-5.2-5.2-5.2h0Z"/>
          <path class="st34" d="M84.5,197.4h-10c.5-2.7.9-5.4.8-6.8,0-2.4-1-4.5-3.2-5.3-1.5-.5-3.1.6-3.1,2.2v3c0,1.4-.3,2.8-1,4l-4.2,7.7h-5.9c-.8,0-1.5.7-1.5,1.5v11.2c0,.9.7,1.5,1.5,1.5h5.9l3,1.6c.5.3,1.1.4,1.7.4h10.5c1.6,0,3.1-.8,4.1-2.1,3.2-4.5,5.5-9.2,5.8-14.5.2-2.5-1.9-4.5-4.4-4.5h0Z"/>
        </g>
        <g>
          <path class="st27" d="M4.6,96h47.3c2.5,0,4.6,2,4.6,4.6v35.7c0,2.5-2,4.6-4.6,4.6h-27.7l-11.6,9.2v-9.2H4.6c-2.5,0-4.6-2-4.6-4.6v-35.7c0-2.5,2-4.6,4.6-4.6Z"/>
          <path class="st34" d="M39.7,110.2c-2.2-3.9-8.1-4.2-11.5-.6-3.4-3.6-9.3-3.4-11.5.6-4.1,7.3,5,13.2,11.5,19.2,6.6-6,15.6-11.9,11.5-19.2Z"/>
        </g>
        <g>
          <rect class="st26" x="165.1" y="288" width="93.8" height="93.8" rx="9.8" ry="9.8"/>
          <rect class="st26" x="278.8" y="288" width="93.8" height="93.8" rx="9.8" ry="9.8"/>
          <path class="st53" d="M218.9,335.8c-.8-1.2-1.2-2.7-1.2-4.2v-4.3c0-1.1.2-2.3.5-3.4.7-2.1,1.5-4.1,2.5-5.8.7-1.3,1.1-2.7,1.1-4.1v-8c0-.5-.4-.9-.9-.9h-1.5c-.5,0-.9.4-.9.9v5.7c0,1.2-.6,2.3-1.5,3-2.3,1.5-5,1.9-8,1.9-3,0-5.7-.4-8-1.9-1-.6-1.5-1.8-1.5-3v-5.7c0-.5-.4-.9-.9-.9h-1.5c-.5,0-.9.4-.9.9v8c0,1.5.4,2.9,1.1,4.1,1,1.7,1.8,3.7,2.5,5.8.4,1.1.5,2.2.5,3.4v4.3c0,1.5-.4,3-1.2,4.2-4.7,7.1-5.8,17.1-4.7,28.9h29.3c1.1-11.8,0-21.7-4.7-28.9h0Z"/>
          <path class="st53" d="M347.6,312.8s7.1,4.9,7.1,13.8-7.1,7.4-7.1,18.8v7.4h-3.4v-14.7c0-1.6-1.5-2.6-3-2.1-3.2,1.1-8.1,3.4-9.9,7-2.7,5.6-4.9,9.8-9.1,9.8h-26.8c-2.1,0-3.5-2.2-2.6-4.1h0c.9-1.9,2.6-3.4,4.7-3.9,3.8-1,10-2.8,13.1-5.2,4.7-3.6,13.2,5,15.3,2.6s4.2-6.3,7.3-7.7c3.1-1.4-1.1-11.3,6.1-16.3,7.2-5,8.3-5.4,8.3-5.4h0Z"/>
          <g class="st29">
            <rect class="st1" x="163.1" y="184.8" width="15" height="93.8"/>
            <rect class="st1" x="178.1" y="184.8" width="2.2" height="93.8"/>
            <rect class="st36" x="180.3" y="184.8" width="2.2" height="93.8"/>
            <rect class="st42" x="182.5" y="184.8" width="2.2" height="93.8"/>
            <rect class="st55" x="184.6" y="184.8" width="2.2" height="93.8"/>
            <rect class="st73" x="186.8" y="184.8" width="2.2" height="93.8"/>
            <rect class="st47" x="189" y="184.8" width="2.2" height="93.8"/>
            <rect class="st37" x="191.1" y="184.8" width="2.2" height="93.8"/>
            <rect class="st28" x="193.3" y="184.8" width="2.2" height="93.8"/>
            <rect class="st70" x="195.5" y="184.8" width="2.2" height="93.8"/>
            <rect class="st7" x="197.6" y="184.8" width="2.2" height="93.8"/>
            <rect class="st40" x="199.8" y="184.8" width="2.2" height="93.8"/>
            <rect class="st9" x="202" y="184.8" width="2.2" height="93.8"/>
            <rect class="st45" x="204.1" y="184.8" width="2.2" height="93.8"/>
            <rect class="st45" x="206.3" y="184.8" width="1.5" height="93.8"/>
            <rect class="st14" x="207.8" y="184.8" width="1.5" height="93.8"/>
            <rect class="st13" x="209.3" y="184.8" width="1.5" height="93.8"/>
            <rect class="st41" x="210.9" y="184.8" width="1.5" height="93.8"/>
            <rect class="st35" x="212.4" y="184.8" width="1.5" height="93.8"/>
            <rect class="st60" x="214" y="184.8" width="1.5" height="93.8"/>
            <rect class="st2" x="215.5" y="184.8" width="1.5" height="93.8"/>
            <rect class="st66" x="217" y="184.8" width="1.5" height="93.8"/>
            <rect class="st6" x="218.6" y="184.8" width="1.5" height="93.8"/>
            <rect class="st8" x="220.1" y="184.8" width="1.5" height="93.8"/>
            <rect class="st58" x="221.6" y="184.8" width="1.5" height="93.8"/>
            <rect class="st71" x="223.2" y="184.8" width="1.5" height="93.8"/>
            <rect class="st44" x="224.7" y="184.8" width="1.5" height="93.8"/>
            <rect class="st39" x="226.2" y="184.8" width="1.5" height="93.8"/>
            <rect class="st69" x="227.8" y="184.8" width="1.5" height="93.8"/>
            <rect class="st52" x="229.3" y="184.8" width="1.5" height="93.8"/>
            <rect class="st12" x="230.8" y="184.8" width="1.5" height="93.8"/>
            <rect class="st50" x="232.4" y="184.8" width="1.5" height="93.8"/>
            <rect class="st5" x="233.9" y="184.8" width="1.5" height="93.8"/>
            <rect class="st64" x="235.4" y="184.8" width="1.5" height="93.8"/>
            <rect class="st32" x="237" y="184.8" width="1.5" height="93.8"/>
            <rect class="st33" x="238.5" y="184.8" width="1.5" height="93.8"/>
            <rect class="st38" x="240" y="184.8" width="1.5" height="93.8"/>
            <rect class="st11" x="241.6" y="184.8" width="1.5" height="93.8"/>
            <rect class="st31" x="243.1" y="184.8" width="1.5" height="93.8"/>
            <rect class="st48" x="244.6" y="184.8" width="1.5" height="93.8"/>
            <rect class="st65" x="246.2" y="184.8" width="1.5" height="93.8"/>
            <rect class="st25" x="247.7" y="184.8" width="1.5" height="93.8"/>
            <rect class="st67" x="249.2" y="184.8" width="1.5" height="93.8"/>
            <rect class="st3" x="250.8" y="184.8" width="1.5" height="93.8"/>
            <rect class="st21" x="252.3" y="184.8" width="1.5" height="93.8"/>
            <rect class="st72" x="253.9" y="184.8" width="1.5" height="93.8"/>
            <rect class="st19" x="255.4" y="184.8" width="1.5" height="93.8"/>
            <path class="st19" d="M256.9,278.6v-93.8,93.8Z"/>
          </g>
          <rect class="st26" x="276.8" y="184.8" width="93.8" height="93.8" rx="9.8" ry="9.8"/>
        </g>
        <g>
          <g>
            <path class="st57" d="M227.4,120.3h18.5l-10.9,19.1h10.2v5.1h-19.6l10.9-19.1h-9.3v-5.1h0Z"/>
            <path class="st57" d="M271.3,134.1h-19.5c.3,1.7,1,3.1,2.3,4.1,1.2,1,2.8,1.5,4.7,1.5s4.2-.8,5.9-2.4l5.1,2.4c-1.3,1.8-2.8,3.1-4.6,4-1.8.9-3.9,1.3-6.3,1.3-3.8,0-6.9-1.2-9.3-3.6-2.4-2.4-3.6-5.4-3.6-9s1.2-6.8,3.6-9.2c2.4-2.4,5.4-3.7,9-3.7s6.9,1.2,9.3,3.7c2.4,2.4,3.6,5.7,3.6,9.7v1.2s0,0,0,0ZM265.2,129.3c-.4-1.3-1.2-2.4-2.4-3.3-1.2-.8-2.5-1.3-4.1-1.3s-3.2.5-4.5,1.4c-.8.6-1.6,1.6-2.2,3.1h13.2,0Z"/>
            <path class="st57" d="M273.7,120.3h6.1v2.5c1.4-1.2,2.6-2,3.7-2.4s2.3-.7,3.4-.7c2.4,0,4.4.8,6.1,2.5,1.4,1.4,2.1,3.5,2.1,6.3v16h-6v-10.6c0-2.9-.1-4.8-.4-5.8s-.7-1.7-1.4-2.2-1.4-.7-2.4-.7-2.3.4-3.2,1.2-1.5,2-1.8,3.4c-.2.8-.3,2.4-.3,4.9v9.7h-6.1v-24.2h0Z"/>
            <path class="st57" d="M322.2,125.2l-5.1,2.8c-1-1-1.9-1.7-2.8-2.1s-2-.6-3.3-.6c-2.3,0-4.1.7-5.5,2-1.4,1.4-2.1,3.1-2.1,5.2s.7,3.7,2,5c1.4,1.3,3.1,1.9,5.3,1.9s4.8-.9,6.4-2.8l4.8,3.3c-2.6,3.4-6.3,5.1-11,5.1s-7.6-1.3-10-3.8-3.6-5.5-3.6-8.9.6-4.5,1.8-6.5c1.2-2,2.8-3.5,4.9-4.7,2.1-1.1,4.5-1.7,7-1.7s4.6.5,6.5,1.4,3.5,2.3,4.7,4.1h0Z"/>
            <path class="st57" d="M322.2,120.3h6.2l6.3,15.2,6.9-15.2h6.2l-15.2,33.1h-6.3l5-10.7-9.2-22.4h0Z"/>
          </g>
          <g>
            <path class="st57" d="M204.2,145.2h0c-.7,0-1.4-.4-1.7-1l-16.9-27.6c-1.1-1.9-1.2-4.1-.1-6s3-3.1,5.2-3.1h27.1c2.2,0,4.1,1.1,5.2,3.1,1.1,1.9,1,4.2-.1,6l-1.7-1.1,1.7,1.1-16.9,27.6c-.4.6-1,1-1.7,1ZM190.6,111.6c-1,0-1.5.7-1.7,1-.2.3-.5,1.1,0,1.9l15.2,24.8,15.2-24.8h0c.5-.9.2-1.7,0-1.9-.2-.3-.7-1-1.7-1,0,0-27.1,0-27.1,0Z"/>
            <path class="st57" d="M217.8,157.2h-27.1c-2.2,0-4.1-1.1-5.2-3.1s-1-4.2.1-6h0l16.9-27.6c.4-.6,1-1,1.7-1h0c.7,0,1.4.4,1.7,1l16.9,27.6c1.1,1.9,1.2,4.1.1,6s-3,3.1-5.2,3.1ZM189,150.2c-.5.9-.2,1.6,0,1.9.2.3.7,1,1.7,1h27.1c1,0,1.5-.7,1.7-1,.2-.3.5-1.1,0-1.9l-15.2-24.8-15.2,24.8h0Z"/>
          </g>
        </g>
        <g>
          <path class="st53" d="M341,259.9l-.6-14.6c0-.6-.5-1.1-1.1-1.1h-28.4c-.6,0-1.1.5-1.1,1.1l-.6,14.6c-.1,2.5,1.9,4.6,4.4,4.6h22.9c2.5,0,4.5-2.1,4.4-4.6ZM325.1,258.7c-3.1,0-5.6-2.5-5.6-5.6s2.5-5.6,5.6-5.6,5.6,2.5,5.6,5.6-2.5,5.6-5.6,5.6Z"/>
          <path class="st53" d="M335.4,200.9h-20.8c-1,0-1.5-1.3-.8-1.9.8-.7,1.8-1.1,3-1.1h16.4c1.1,0,2.2.4,3,1.1.8.7.3,1.9-.8,1.9h0Z"/>
          <path class="st53" d="M337.8,234.8h-25.6c-.5,0-.9-.3-1.1-.8-2.1-7.9-2.8-14.1-3.1-21.8l-2-4.3c-1-2.2.6-4.7,3-4.7h29.4c1.8,0,3.2,1.4,3.3,3.2.4,9.4-.6,18.6-3,27.7-.1.5-.6.8-1.1.8h0Z"/>
          <path class="st53" d="M349.7,213.7v5c0,3.5-2.2,6.5-5.5,7.6-1.4.4-1.5-1.8-.5-2.2,1.1-.4,3.8-1.8,3.8-5.4v-5c0-1.4-1-2.5-2.3-2.7-1.4-.2-1.1-2.4.3-2.2,2.4.3,4.2,2.4,4.2,4.9h0Z"/>
          <path class="st53" d="M338.6,242h-27c-.7,0-1.3-.7-1.1-1.4l.8-2.8c.1-.5.6-.8,1.1-.8h25.5c.5,0,.9.3,1.1.8l.8,2.8c.2.7-.3,1.4-1.1,1.4h0Z"/>
          <circle class="st53" cx="325.1" cy="253.1" r="3.3"/>
        </g>
        <g>
          <path class="st34" d="M179.4,234.3c.2.6,1.4,3.6,5.7,3.6,2.5,0,4.9-.5,7.3-1.2,2-.6,4.2-1,6.3-1.1,3,0,6,.4,8.9,1,4.1.9,8.4,1.3,12.6,1.3,13.9,0,19.9-3,21.5-4v-1.6c0-1.9-1.5-3.5-3.4-3.6-4.4-.2-10.4-.8-14-2.2-.4-.2-.9-.4-1.3-.6l-1.9,2.5c-.4.5-1.1.6-1.6.2-.5-.4-.6-1.1-.2-1.6h0l1.6-2.2c-1.1-.6-2.4-1.4-3.7-2.2l-1.8,2.4c-.4.5-1.1.6-1.6.2-.5-.4-.6-1.1-.2-1.6h0l1.7-2.2c-1.2-.8-2.4-1.6-3.6-2.4l-1.9,2.5c-.4.5-1.1.6-1.6.2-.5-.4-.6-1.1-.2-1.6l1.8-2.4c-1.3-.9-2.5-1.7-3.6-2.4l-2.1,2.8c-.4.5-1.1.6-1.6.2-.5-.4-.6-1.1-.2-1.6l2.1-2.8-.7-.5c-1.4-.9-3.2-.6-4.2.6l-6.2,7.7c-2.2,2.8-6.3,3.2-9.1,1-1.5-1.2-2.4-3.1-2.4-5.1v-.9c0-.3-.3-.5-.6-.5-.1,0-.2,0-.3.2-.5.7-1.4,2.5-1.4,6.6v11.2h0Z"/>
          <path class="st34" d="M205,211.7c.8.6,2,1.4,3.4,2.4l-3.1-4.7c-.4-.6-1.1-.9-1.8-.9s-1.3.5-1.6,1.1l-.5,1.2c.1,0,.3,0,.4,0,1.1,0,2.2.3,3.1,1h0Z"/>
          <path class="st34" d="M178.4,237.1c0,.3,0,.6,0,.8v4.5c0,1.2,1,2.3,2.3,2.3h44.2c8.8,0,13.6-3,15.7-4.8.8-.7,1.3-1.8,1.3-2.9v-.6c-2.9,1.4-9.4,3.7-21.5,3.7-4.4,0-8.8-.4-13-1.3-2.8-.6-5.6-.9-8.5-1-1.9,0-3.9.4-5.7,1-2.6.8-5.2,1.2-7.9,1.3-2.6.1-5.1-1-6.7-3.1h0Z"/>
        </g>
        <g>
          <g>
            <path d="M458.5,201.6l16.5,9,3.5,18.1h0c.1.6.6,1,1.4.6l13-8.9,7.1,3.9c.4.2.9.1,1.2-.2l29.5-35.7h0s0,0,0,0c.5-.6,0-1.6-.8-1.5,0,0,0,0,0,0l-71.1,13c-.9.2-1,1.3-.3,1.7h0ZM500.4,222.3l-17.5-9.6.2-1.3c14.7-7.1,39-18.8,43.7-21l-26.3,31.9h0ZM520.6,190.4l-45.3,17.5c-.2,0-.4.2-.5.4l-13.1-7.2,58.9-10.8Z"/>
            <path d="M416.7,248.7c1.4-.8-.8-1.9-1.2-6.2-.1-1.2-2-1-1.9.2.2,1.7,1.3,6.9,3,6Z"/>
            <path d="M406.4,267.2c1.9.6,3.7,1,5.5,1.4,0,0,0,0,0,0,.5,0,.9-.3,1-.7.1-.5-.2-1-.7-1.1-1.7-.3-3.5-.8-5.3-1.4-.5-.1-1,.1-1.2.6s.1,1,.6,1.2h0Z"/>
            <path d="M443.1,251.7c-.4,1.2,1.4,1.8,1.8.6.7-1.9,1-3.9,1.1-5.7,0-.5-.3-1-.9-1-1.6,0-.5,1.5-2,6.1h0Z"/>
            <path d="M478.8,232.9c-.5-.1-1,.1-1.2.6-.6,1.7-1.3,3.4-2.1,5-.2.5,0,1,.4,1.2.4.2,1,0,1.2-.4.9-1.7,1.6-3.5,2.2-5.3.2-.5-.1-1-.6-1.2h0Z"/>
            <path d="M443.6,241.2c.3,1.2,2.1.7,1.8-.5-.7-1.9-2-6.7-3.7-5.6-.4.3-.5.9-.3,1.3,1.6,2.5,2.1,4.6,2.1,4.8h0Z"/>
            <path d="M472.7,243.1c-1,1.5-2.2,2.9-3.4,4.2-.4.4-.3,1,0,1.3.4.4,1,.3,1.3,0,1.3-1.4,2.5-2.9,3.6-4.4.3-.4.2-1-.2-1.3-.4-.3-1-.2-1.3.2h0Z"/>
            <path d="M451.2,260c1.9-.5,3.7-1,5.4-1.7.5-.2.7-.7.5-1.2-.5-1.3-1.4,0-6.4,1.1-1.2.3-.8,2.1.4,1.8h0Z"/>
            <path d="M465.3,251.1c-1.4,1.1-2.9,2.2-4.5,3.1-.4.3-.6.8-.3,1.3s.8.6,1.3.3c1.6-.9,3.2-2.1,4.7-3.2.4-.3.5-.9.1-1.3-.3-.4-.9-.5-1.3-.1h0Z"/>
            <path d="M415,238c1.5.6.9-1.7,4-4.9.9-.9-.5-2.2-1.3-1.3-1.4,1.4-2.5,3.2-3.2,4.9-.2.5,0,1,.5,1.2h0Z"/>
            <path d="M437.9,232.5c.9.8,2.1-.6,1.2-1.4-1.1-.9-5.6-4.2-6.3-2.4-.5,1.5,1.5.9,5.1,3.8h0Z"/>
            <path d="M428.7,259c.2,0,3.8,1.3,5.6,1.5,1.2.1,1.4-1.6.3-1.8-3-.6-5.1-1.4-5.2-1.4-1.1-.4-1.8,1.3-.6,1.8Z"/>
            <path d="M438.7,262c.3-.3.6-.6.9-.9.6.3,5,0,6,0,.5,0,.9-.5.8-1-.1-1.3-1.2-.6-5.4-.7,1-1.2,2-2.4,1-3.1-1.3-.8-1.1,1-4.6,4.5-.9.9.5,2.2,1.3,1.3h0Z"/>
            <path d="M417.5,269.4h0c2,.1,3.9,0,5.7-.1.5,0,.9-.5.8-1s-.5-.9-1-.8c-1.7.2-3.5.2-5.4.1-.5,0-1,.4-1,.9,0,.5.3.9.8,1h0Z"/>
            <path d="M423.9,256.6c.4,0,.7-.1.9-.4.8-1.3-1.2-1.3-4.5-4.5-.9-.9-2.2.5-1.3,1.3,1,.9,4.1,3.6,5,3.6h0Z"/>
            <path d="M423.2,230.2c4.2-1.9,6-.5,5.9-2.1,0-2-5.2-.2-6.7.4-1.1.5-.4,2.2.8,1.7h0Z"/>
            <path d="M433.2,264c-4.2,2.6-5.9,2-5.4,3.4.2.5.7.8,1.2.6,1.8-.6,3.6-1.4,5.2-2.5,1-.6,0-2.2-1-1.6h0Z"/>
          </g>
          <g class="st30">
            <rect class="st1" x="510.4" y="193.7" width="6.1" height="31.1"/>
            <rect class="st1" x="509.5" y="193.7" width=".9" height="31.1"/>
            <rect class="st36" x="508.6" y="193.7" width=".9" height="31.1"/>
            <rect class="st42" x="507.7" y="193.7" width=".9" height="31.1"/>
            <rect class="st55" x="506.8" y="193.7" width=".9" height="31.1"/>
            <rect class="st73" x="505.9" y="193.7" width=".9" height="31.1"/>
            <rect class="st47" x="505.1" y="193.7" width=".9" height="31.1"/>
            <rect class="st37" x="504.2" y="193.7" width=".9" height="31.1"/>
            <rect class="st28" x="503.3" y="193.7" width=".9" height="31.1"/>
            <rect class="st70" x="502.4" y="193.7" width=".9" height="31.1"/>
            <rect class="st7" x="501.5" y="193.7" width=".9" height="31.1"/>
            <rect class="st40" x="500.6" y="193.7" width=".9" height="31.1"/>
            <rect class="st9" x="499.7" y="193.7" width=".9" height="31.1"/>
            <rect class="st45" x="498.9" y="193.7" width=".9" height="31.1"/>
            <rect class="st45" x="498.2" y="193.7" width=".6" height="31.1"/>
            <rect class="st14" x="497.6" y="193.7" width=".6" height="31.1"/>
            <rect class="st13" x="497" y="193.7" width=".6" height="31.1"/>
            <rect class="st41" x="496.3" y="193.7" width=".6" height="31.1"/>
            <rect class="st35" x="495.7" y="193.7" width=".6" height="31.1"/>
            <rect class="st60" x="495.1" y="193.7" width=".6" height="31.1"/>
            <rect class="st2" x="494.5" y="193.7" width=".6" height="31.1"/>
            <rect class="st66" x="493.8" y="193.7" width=".6" height="31.1"/>
            <rect class="st6" x="493.2" y="193.7" width=".6" height="31.1"/>
            <rect class="st8" x="492.6" y="193.7" width=".6" height="31.1"/>
            <rect class="st58" x="491.9" y="193.7" width=".6" height="31.1"/>
            <rect class="st71" x="491.3" y="193.7" width=".6" height="31.1"/>
            <rect class="st44" x="490.7" y="193.7" width=".6" height="31.1"/>
            <rect class="st39" x="490.1" y="193.7" width=".6" height="31.1"/>
            <rect class="st69" x="489.4" y="193.7" width=".6" height="31.1"/>
            <rect class="st52" x="488.8" y="193.7" width=".6" height="31.1"/>
            <rect class="st12" x="488.2" y="193.7" width=".6" height="31.1"/>
            <rect class="st50" x="487.5" y="193.7" width=".6" height="31.1"/>
            <rect class="st5" x="486.9" y="193.7" width=".6" height="31.1"/>
            <rect class="st64" x="486.3" y="193.7" width=".6" height="31.1"/>
            <rect class="st32" x="485.7" y="193.7" width=".6" height="31.1"/>
            <rect class="st33" x="485" y="193.7" width=".6" height="31.1"/>
            <rect class="st38" x="484.4" y="193.7" width=".6" height="31.1"/>
            <rect class="st11" x="483.8" y="193.7" width=".6" height="31.1"/>
            <rect class="st31" x="483.1" y="193.7" width=".6" height="31.1"/>
            <rect class="st48" x="482.5" y="193.7" width=".6" height="31.1"/>
            <rect class="st65" x="481.9" y="193.7" width=".6" height="31.1"/>
            <rect class="st25" x="481.3" y="193.7" width=".6" height="31.1"/>
            <rect class="st67" x="480.6" y="193.7" width=".6" height="31.1"/>
            <rect class="st3" x="480" y="193.7" width=".6" height="31.1"/>
            <rect class="st21" x="479.4" y="193.7" width=".6" height="31.1"/>
            <rect class="st72" x="478.7" y="193.7" width=".6" height="31.1"/>
            <rect class="st19" x="478.1" y="193.7" width=".6" height="31.1"/>
            <path class="st19" d="M478.1,193.7v31.1-31.1Z"/>
          </g>
        </g>
      </g>
      <path d="M85.5,164.5c-4,0-7.2-3.3-7.2-7.2s3.3-7.2,7.2-7.2,7.2,3.3,7.2,7.2-3.3,7.2-7.2,7.2ZM85.5,150.5c-3.7,0-6.8,3-6.8,6.8s3,6.8,6.8,6.8,6.8-3,6.8-6.8-3-6.8-6.8-6.8Z"/>
      <path d="M516.5,312.3c-4,0-7.2-3.3-7.2-7.2s3.3-7.2,7.2-7.2,7.2,3.3,7.2,7.2-3.3,7.2-7.2,7.2ZM516.5,298.3c-3.7,0-6.8,3-6.8,6.8s3,6.8,6.8,6.8,6.8-3,6.8-6.8-3-6.8-6.8-6.8Z"/>
      <path d="M483.4,295.2c-2.2,0-4-1.8-4-4s1.8-4,4-4,4,1.8,4,4-1.8,4-4,4ZM483.4,287.8c-1.9,0-3.5,1.6-3.5,3.5s1.6,3.5,3.5,3.5,3.5-1.6,3.5-3.5-1.6-3.5-3.5-3.5Z"/>
      <path d="M13.2,243v-.7c-.6-4.7-3.1-8.9-7-11.6l-.6-.4h.7c4.7-.6,8.9-3.1,11.6-7l.4-.6v.7c.6,4.7,3.1,8.9,7,11.6l.6.4h-.7c-4.7.6-8.9,3.1-11.6,7l-.4.6ZM6.9,230.6c3.6,2.6,5.9,6.6,6.6,11,2.6-3.6,6.6-5.9,11-6.6-3.6-2.6-5.9-6.6-6.6-11-2.6,3.6-6.6,5.9-11,6.6Z"/>
      <polygon class="st22" points="388.1 24.3 383.7 30.3 385.4 37.5 378.6 40.5 376.5 47.6 369.2 46.8 363.8 51.8 357.8 47.5 350.6 49.2 347.6 42.4 340.5 40.3 341.3 32.9 336.2 27.6 340.6 21.6 338.9 14.4 345.7 11.4 347.8 4.3 355.1 5.1 360.5 0 366.5 4.4 373.7 2.7 376.7 9.4 383.8 11.5 383 18.9 388.1 24.3"/>
    </g>
    <path class="st34" d="M553.7,378.4h-10c.5-2.7.9-5.4.8-6.8,0-2.4-1-4.5-3.2-5.3-1.5-.5-3,.6-3,2.2v3c0,1.4-.3,2.8-1,4l-4.2,7.7h-5.9c-.8,0-1.5.7-1.5,1.5v11.2c0,.9.7,1.5,1.5,1.5h5.9l3,1.6c.5.3,1.1.4,1.7.4h10.5c1.6,0,3.1-.8,4.1-2.1,3.2-4.5,5.5-9.2,5.8-14.5.2-2.5-1.9-4.5-4.4-4.5h0Z"/>
  </g>
</svg>