<?xml version="1.0" encoding="UTF-8"?>
<svg id="Layer_2" data-name="Layer 2" xmlns="http://www.w3.org/2000/svg" xmlns:xlink="http://www.w3.org/1999/xlink" viewBox="0 0 531.01 438.97">
  <defs>
    <style>
      .cls-1 {
        fill: url(#linear-gradient-3);
      }

      .cls-2 {
        fill: url(#linear-gradient-2);
      }

      .cls-3 {
        fill: url(#linear-gradient);
      }

      .cls-4 {
        fill: #66f;
      }

      .cls-5 {
        fill: #c6c6c6;
      }

      .cls-6 {
        fill: #cf89ff;
      }

      .cls-7 {
        fill: #fff;
      }

      .cls-8 {
        stroke-width: .5px;
      }

      .cls-8, .cls-9 {
        fill: none;
        stroke: #000;
        stroke-miterlimit: 10;
      }

      .cls-10 {
        fill: #f2f2f2;
      }

      .cls-11 {
        fill: #383838;
      }
    </style>
    <linearGradient id="linear-gradient" x1="267.33" y1="389.53" x2="267.33" y2="409.26" gradientUnits="userSpaceOnUse">
      <stop offset="0" stop-color="#555897"/>
      <stop offset=".99" stop-color="#3d3e5c"/>
    </linearGradient>
    <linearGradient id="linear-gradient-2" x1="163.14" y1="231.69" x2="256.92" y2="231.69" gradientUnits="userSpaceOnUse">
      <stop offset=".16" stop-color="#ffbd00"/>
      <stop offset=".46" stop-color="#fab10d"/>
      <stop offset="1" stop-color="#f1972e"/>
    </linearGradient>
    <linearGradient id="linear-gradient-3" x1="-443.27" y1="209.28" x2="-404.88" y2="209.28" gradientTransform="translate(73.25) rotate(-180) scale(1 -1)" xlink:href="#linear-gradient-2"/>
  </defs>
  <g id="Layer_1-2" data-name="Layer 1">
    <g>
      <polygon class="cls-9" points="174.33 390.18 163.74 399.99 169.71 413.15 155.62 416.33 154.23 430.71 140.43 426.44 132.03 438.18 122.21 427.59 109.06 433.56 105.87 419.47 91.49 418.08 95.77 404.28 84.02 395.88 94.62 386.06 88.64 372.91 102.73 369.72 104.13 355.34 117.92 359.62 126.33 347.87 136.14 358.47 149.3 352.49 152.48 366.59 166.86 367.98 162.59 381.77 174.33 390.18"/>
      <g>
        <g>
          <path class="cls-11" d="M408.55,411.04H126.11V49.9c0-14.04,10.73-25.45,23.92-25.45h234.61c11.72,0,21.88,9.28,23.64,21.59h0c.18,1.27.27,2.56.27,3.86v361.14ZM129.11,408.04h276.44V49.9c0-1.15-.08-2.31-.24-3.44h0c-1.55-10.84-10.44-19.02-20.67-19.02h-234.61c-11.53,0-20.92,10.07-20.92,22.45v358.14Z"/>
          <path class="cls-10" d="M397.95,409.54V89c0-5.81-4.41-10.52-9.84-10.52h-241.56c-5.44,0-9.84,4.71-9.84,10.52v320.54h261.24Z"/>
          <path class="cls-10" d="M313.13,55.98h-91.59c-1.45,0-2.62,1.25-2.62,2.8s1.17,2.8,2.62,2.8h91.59c1.44,0,2.62-1.25,2.62-2.8s-1.17-2.8-2.62-2.8Z"/>
        </g>
        <rect class="cls-3" x="73.07" y="403.96" width="388.52" height="5.58"/>
        <g>
          <path class="cls-4" d="M435.21,311.64h57.47c2.58,0,4.67,2.09,4.67,4.67v36.52c0,2.58-2.09,4.67-4.67,4.67h-37.34l-11.83,9.46v-9.46h-8.29c-2.58,0-4.67-2.09-4.67-4.67v-36.52c0-2.58,2.09-4.67,4.67-4.67Z"/>
          <polygon class="cls-7" points="463.94 318.91 459.17 328.57 448.51 330.12 456.22 337.64 454.4 348.26 463.94 343.25 473.47 348.26 471.65 337.64 479.37 330.12 468.71 328.57 463.94 318.91"/>
        </g>
        <g>
          <path class="cls-4" d="M99.8,178h-54.22c-2.88,0-5.22,2.34-5.22,5.22v40.84c0,2.88,2.34,5.22,5.22,5.22h31.71l13.23,10.58v-10.58h9.27c2.88,0,5.22-2.34,5.22-5.22v-40.84c0-2.88-2.34-5.22-5.22-5.22Z"/>
          <path class="cls-7" d="M84.53,197.4h-9.98c.46-2.71.92-5.41.83-6.83,0-2.38-1.02-4.53-3.24-5.28-1.5-.51-3.05.64-3.05,2.23v3c0,1.41-.35,2.8-1.03,4.04l-4.19,7.72h-5.87c-.85,0-1.54.69-1.54,1.54v11.24c0,.85.69,1.54,1.54,1.54h5.87l2.99,1.56c.52.27,1.1.41,1.69.41h10.49c1.62,0,3.11-.81,4.06-2.13,3.21-4.47,5.46-9.22,5.84-14.53.17-2.47-1.91-4.51-4.39-4.51Z"/>
        </g>
        <g>
          <path class="cls-6" d="M4.56,95.99h47.33c2.52,0,4.56,2.04,4.56,4.56v35.65c0,2.52-2.04,4.56-4.56,4.56h-27.69l-11.55,9.24v-9.24H4.56c-2.52,0-4.56-2.04-4.56-4.56v-35.65c0-2.52,2.04-4.56,4.56-4.56Z"/>
          <path class="cls-7" d="M39.73,110.18c-2.22-3.92-8.08-4.2-11.5-.56-3.42-3.64-9.29-3.36-11.5.56-4.11,7.27,4.95,13.23,11.5,19.2,6.56-5.97,15.62-11.93,11.5-19.2Z"/>
        </g>
        <g>
          <rect class="cls-5" x="165.13" y="287.99" width="93.78" height="93.78" rx="9.78" ry="9.78"/>
          <rect class="cls-5" x="278.82" y="287.99" width="93.78" height="93.78" rx="9.78" ry="9.78"/>
          <path class="cls-10" d="M218.92,335.81c-.83-1.24-1.23-2.71-1.23-4.2v-4.32c0-1.14.16-2.28.52-3.36.7-2.11,1.49-4.07,2.46-5.78.72-1.27,1.08-2.7,1.08-4.15v-8.05c0-.48-.39-.86-.86-.86h-1.54c-.48,0-.86.39-.86.86v5.71c0,1.18-.56,2.32-1.54,2.96-2.27,1.47-5,1.93-7.99,1.85-2.99.08-5.72-.38-7.99-1.85-.99-.64-1.54-1.78-1.54-2.96v-5.71c0-.48-.39-.86-.86-.86h-1.54c-.48,0-.86.39-.86.86v8.05c0,1.46.36,2.89,1.08,4.15.97,1.7,1.77,3.67,2.46,5.78.36,1.08.52,2.22.52,3.36v4.32c0,1.49-.41,2.96-1.23,4.2-4.73,7.11-5.83,17.1-4.68,28.85h29.3c1.15-11.75.05-21.74-4.68-28.85Z"/>
          <path class="cls-10" d="M347.59,312.75s7.11,4.9,7.11,13.81-7.11,7.41-7.11,18.82v7.41h-3.4v-14.68c0-1.57-1.55-2.65-3.04-2.13-3.23,1.13-8.12,3.38-9.87,7-2.7,5.6-4.94,9.81-9.07,9.81h-26.78c-2.09,0-3.48-2.17-2.61-4.07h0c.89-1.94,2.6-3.37,4.67-3.91,3.79-.98,9.96-2.84,13.08-5.24,4.7-3.6,13.21,5,15.31,2.6,2.1-2.4,4.2-6.31,7.31-7.71,3.1-1.4-1.1-11.31,6.1-16.31,7.21-5,8.31-5.4,8.31-5.4Z"/>
          <rect class="cls-2" x="163.14" y="184.8" width="93.78" height="93.78" rx="9.78" ry="9.78"/>
          <rect class="cls-5" x="276.83" y="184.8" width="93.78" height="93.78" rx="9.78" ry="9.78"/>
        </g>
        <g>
          <g>
            <path class="cls-11" d="M227.37,120.26h18.54l-10.88,19.07h10.25v5.14h-19.58l10.93-19.07h-9.26v-5.14Z"/>
            <path class="cls-11" d="M271.3,134.13h-19.51c.28,1.72,1.03,3.09,2.26,4.11,1.22,1.02,2.78,1.52,4.68,1.52,2.27,0,4.22-.79,5.85-2.38l5.12,2.4c-1.28,1.81-2.8,3.15-4.58,4.02-1.78.87-3.89,1.3-6.34,1.3-3.8,0-6.89-1.2-9.28-3.59-2.39-2.4-3.58-5.4-3.58-9s1.19-6.76,3.57-9.2c2.38-2.44,5.37-3.66,8.96-3.66,3.81,0,6.91,1.22,9.3,3.66,2.39,2.44,3.58,5.66,3.58,9.67l-.02,1.16ZM265.22,129.34c-.4-1.35-1.19-2.45-2.37-3.29-1.18-.85-2.55-1.27-4.11-1.27-1.69,0-3.18.47-4.46,1.42-.8.59-1.55,1.64-2.23,3.14h13.17Z"/>
            <path class="cls-11" d="M273.66,120.26h6.07v2.48c1.38-1.16,2.63-1.97,3.74-2.42s2.26-.68,3.43-.68c2.4,0,4.44.84,6.11,2.51,1.41,1.42,2.11,3.53,2.11,6.32v16h-6.01v-10.6c0-2.89-.13-4.81-.39-5.76-.26-.95-.71-1.67-1.35-2.17-.64-.5-1.44-.74-2.39-.74-1.23,0-2.28.41-3.16,1.23-.88.82-1.49,1.96-1.83,3.41-.18.76-.27,2.39-.27,4.91v9.71h-6.07v-24.21Z"/>
            <path class="cls-11" d="M322.23,125.16l-5.06,2.78c-.95-.99-1.89-1.68-2.82-2.07-.93-.39-2.02-.58-3.26-.58-2.27,0-4.11.68-5.51,2.03-1.4,1.36-2.11,3.09-2.11,5.21s.68,3.74,2.03,5.04c1.35,1.3,3.13,1.95,5.32,1.95,2.72,0,4.83-.93,6.35-2.78l4.79,3.28c-2.6,3.38-6.26,5.06-10.99,5.06-4.26,0-7.59-1.26-10-3.78-2.41-2.52-3.62-5.47-3.62-8.86,0-2.34.59-4.5,1.76-6.48,1.17-1.97,2.81-3.52,4.91-4.65,2.1-1.13,4.45-1.69,7.04-1.69,2.4,0,4.56.48,6.48,1.44s3.48,2.32,4.69,4.08Z"/>
            <path class="cls-11" d="M322.23,120.26h6.21l6.29,15.19,6.94-15.19h6.23l-15.16,33.07h-6.27l4.98-10.66-9.2-22.4Z"/>
          </g>
          <g>
            <path class="cls-11" d="M204.19,145.17s0,0,0,0c-.7,0-1.35-.36-1.72-.96l-16.92-27.56c-1.14-1.86-1.19-4.12-.12-6.03s3.01-3.05,5.2-3.05h27.12c2.19,0,4.13,1.14,5.2,3.05,1.07,1.91,1.02,4.16-.12,6.03l-1.72-1.05,1.72,1.05-16.92,27.56c-.37.6-1.02.96-1.72.96ZM190.64,111.6c-1.02,0-1.52.69-1.68.99-.17.3-.49,1.08.04,1.95l15.2,24.76,15.2-24.76h0c.53-.87.21-1.65.04-1.95-.17-.3-.66-.99-1.68-.99h-27.12Z"/>
            <path class="cls-11" d="M217.75,157.17h-27.12c-2.19,0-4.13-1.14-5.2-3.05s-1.02-4.16.12-6.03h0s16.92-27.56,16.92-27.56c.37-.6,1.02-.96,1.72-.96,0,0,0,0,0,0,.7,0,1.35.36,1.72.96l16.92,27.56c1.14,1.86,1.19,4.12.12,6.03-1.07,1.91-3.01,3.05-5.2,3.05ZM188.99,150.2c-.53.87-.21,1.65-.04,1.95.17.3.66.99,1.68.99h27.12c1.02,0,1.52-.69,1.68-.99.17-.3.49-1.08-.04-1.95l-15.2-24.76-15.2,24.76h0Z"/>
          </g>
        </g>
        <g>
          <path class="cls-10" d="M340.96,259.92l-.6-14.6c-.02-.6-.51-1.07-1.11-1.07h-28.39c-.6,0-1.09.47-1.11,1.07l-.6,14.6c-.1,2.53,1.91,4.63,4.44,4.63h22.93c2.53,0,4.55-2.1,4.44-4.63ZM325.12,258.71c-3.07,0-5.56-2.49-5.56-5.56s2.49-5.56,5.56-5.56,5.56,2.49,5.56,5.56-2.49,5.56-5.56,5.56Z"/>
          <path class="cls-10" d="M335.38,200.89h-20.8c-1.01,0-1.51-1.26-.75-1.93.79-.7,1.82-1.13,2.96-1.13h16.4c1.13,0,2.17.43,2.96,1.13.76.67.26,1.93-.75,1.93Z"/>
          <path class="cls-10" d="M337.84,234.8h-25.58c-.5,0-.94-.34-1.07-.82-2.13-7.86-2.76-14.1-3.07-21.81l-2-4.32c-1.02-2.22.6-4.74,3.03-4.74h29.44c1.79,0,3.25,1.4,3.33,3.19.42,9.35-.59,18.65-3.01,27.68-.13.48-.57.82-1.07.82Z"/>
          <path class="cls-10" d="M349.72,213.66v5.03c0,3.48-2.23,6.52-5.54,7.58-1.36.43-1.45-1.82-.5-2.19,1.12-.43,3.81-1.83,3.81-5.39v-5.03c0-1.37-1-2.5-2.32-2.71-1.43-.22-1.14-2.41.29-2.21,2.4.34,4.25,2.41,4.25,4.91Z"/>
          <path class="cls-10" d="M338.56,242.03h-27.01c-.73,0-1.26-.69-1.07-1.4l.75-2.78c.13-.49.57-.82,1.07-.82h25.52c.5,0,.94.34,1.07.82l.75,2.78c.19.71-.34,1.4-1.07,1.4h0Z"/>
          <circle class="cls-10" cx="325.12" cy="253.15" r="3.34"/>
        </g>
        <g>
          <path class="cls-7" d="M179.45,234.33c.21.62,1.41,3.56,5.66,3.56,2.47-.06,4.92-.46,7.28-1.19,2.04-.64,4.17-1.01,6.31-1.08,3,.02,5.99.35,8.91,1,4.14.88,8.37,1.3,12.6,1.26,13.89,0,19.95-3.04,21.52-4v-1.6c0-1.91-1.49-3.49-3.4-3.59-4.42-.23-10.43-.78-14-2.21-.4-.16-.85-.37-1.33-.6l-1.88,2.5c-.37.5-1.08.6-1.59.23-.5-.37-.6-1.08-.23-1.59,0,0,0,0,0,0l1.65-2.2c-1.15-.64-2.41-1.39-3.73-2.21l-1.78,2.37c-.37.5-1.08.6-1.59.23-.5-.37-.6-1.08-.23-1.59,0,0,0,0,0,0l1.67-2.22c-1.2-.77-2.42-1.56-3.61-2.35l-1.91,2.54c-.38.5-1.09.6-1.59.23-.5-.38-.6-1.09-.23-1.59l1.83-2.44c-1.28-.86-2.48-1.69-3.56-2.43l-2.13,2.83c-.38.5-1.09.6-1.59.23-.5-.38-.6-1.09-.23-1.59l2.08-2.77-.74-.52c-1.36-.91-3.18-.65-4.23.61l-6.17,7.72c-2.24,2.8-6.32,3.25-9.12,1.01-1.54-1.23-2.43-3.09-2.43-5.06v-.94c-.03-.28-.28-.49-.57-.46-.12.01-.24.07-.33.16-.51.69-1.37,2.46-1.37,6.6v11.16Z"/>
          <path class="cls-7" d="M204.98,211.69c.78.55,1.99,1.39,3.42,2.38l-3.06-4.74c-.38-.59-1.05-.92-1.75-.87-.7.05-1.32.48-1.6,1.13l-.52,1.16c.14-.01.28-.02.42-.02,1.11,0,2.19.34,3.09.97Z"/>
          <path class="cls-7" d="M178.38,237.07c-.04.27-.06.55-.06.82v4.53c0,1.25,1.01,2.26,2.26,2.26h44.16c8.83,0,13.63-2.98,15.7-4.76.83-.73,1.3-1.78,1.28-2.89v-.58c-2.88,1.41-9.4,3.69-21.52,3.69-4.38.04-8.75-.4-13.03-1.3-2.79-.62-5.63-.94-8.49-.96-1.94.08-3.87.41-5.72,1-2.55.78-5.2,1.21-7.87,1.26-2.61.11-5.11-1.03-6.73-3.08Z"/>
        </g>
        <g>
          <g>
            <path d="M458.53,201.58l16.53,9.02,3.52,18.08v.02c.12.55.56.95,1.44.62l13.04-8.89,7.06,3.86c.39.22.88.12,1.16-.22l29.49-35.68s0,0,0,0l.02-.03s0-.02.01-.03c.47-.63,0-1.58-.83-1.46-.02,0-.04-.01-.07,0l-71.12,13.01c-.86.16-1.04,1.31-.28,1.73ZM500.35,222.29l-17.53-9.57.19-1.26c14.72-7.08,39.04-18.79,43.67-21.02l-26.33,31.86ZM520.64,190.43l-45.31,17.54c-.21.08-.37.22-.47.4l-13.13-7.17,58.91-10.77Z"/>
            <path d="M416.66,248.73c1.44-.79-.77-1.94-1.18-6.18-.12-1.24-1.97-1.04-1.85.18.17,1.74,1.34,6.93,3.03,6Z"/>
            <path d="M406.41,267.22c1.88.58,3.73,1.05,5.5,1.4.03,0,.05,0,.08.01.47.05.92-.27,1.01-.74.1-.5-.23-.99-.73-1.09-1.71-.34-3.49-.79-5.3-1.35-.49-.14-1.01.12-1.16.61-.15.49.12,1.01.61,1.16Z"/>
            <path d="M443.06,251.69c-.4,1.17,1.36,1.77,1.76.6.66-1.94,1.03-3.89,1.13-5.7.03-.51-.34-.96-.88-.98-1.57-.09-.45,1.5-2.01,6.08Z"/>
            <path d="M478.77,232.87c-.48-.15-1.01.11-1.17.59-.56,1.71-1.26,3.39-2.08,5.02-.23.46-.05,1.02.41,1.25.44.23,1.01.06,1.25-.41.86-1.7,1.6-3.48,2.19-5.27.16-.49-.11-1.01-.59-1.17Z"/>
            <path d="M443.57,241.25c.32,1.18,2.12.71,1.8-.48-.68-1.85-2.02-6.69-3.66-5.61-.43.28-.55.85-.27,1.28,1.64,2.51,2.07,4.61,2.14,4.8Z"/>
            <path d="M472.73,243.14c-1.04,1.49-2.19,2.91-3.42,4.23-.35.37-.33.96.04,1.31.37.35.96.33,1.31-.04,1.29-1.38,2.5-2.87,3.59-4.43.29-.42.19-1-.23-1.3-.42-.29-1-.19-1.3.23Z"/>
            <path d="M451.24,260.03c1.86-.45,3.69-1.04,5.44-1.74.48-.19.71-.73.51-1.21-.54-1.34-1.41-.06-6.39,1.14-1.17.29-.78,2.09.44,1.81Z"/>
            <path d="M465.32,251.07c-1.42,1.15-2.93,2.19-4.47,3.09-.44.26-.59.83-.33,1.27.26.44.83.59,1.27.33,1.62-.95,3.2-2.05,4.69-3.25.4-.32.46-.91.14-1.31-.32-.4-.91-.46-1.31-.14Z"/>
            <path d="M414.96,238.03c1.5.59.92-1.7,4.02-4.85.86-.88-.46-2.18-1.33-1.3-1.42,1.45-2.54,3.16-3.23,4.95-.18.48.06,1.02.53,1.2Z"/>
            <path d="M437.92,232.52c.93.78,2.14-.65,1.18-1.43-1.09-.89-5.6-4.18-6.26-2.39-.55,1.46,1.51.9,5.08,3.83Z"/>
            <path d="M428.74,258.98c.18.05,3.83,1.31,5.59,1.5,1.17.13,1.43-1.62.27-1.84-3.03-.58-5.06-1.36-5.24-1.41-1.14-.42-1.79,1.33-.62,1.75Z"/>
            <path d="M438.67,261.98c.31-.31.61-.62.9-.94.64.29,4.95.04,6.04-.06.51-.05.89-.5.83-1.01-.13-1.32-1.23-.59-5.42-.66.95-1.23,2.02-2.42.98-3.09-1.3-.81-1.15.98-4.65,4.45-.88.87.45,2.17,1.31,1.32Z"/>
            <path d="M417.51,269.35s.03,0,.05,0c1.97.11,3.89.07,5.72-.14.51-.06.88-.52.82-1.03-.06-.51-.51-.87-1.03-.82-1.73.19-3.55.24-5.41.13-.51-.03-.95.36-.98.87-.03.5.34.92.83.98Z"/>
            <path d="M423.93,256.62c.35.04.7-.12.89-.44.8-1.3-1.19-1.26-4.55-4.54-.89-.86-2.17.48-1.3,1.33.95.93,4.14,3.56,4.96,3.65Z"/>
            <path d="M423.24,230.2c4.17-1.9,5.98-.49,5.93-2.14-.05-1.96-5.21-.23-6.7.45-1.12.51-.35,2.2.77,1.69Z"/>
            <path d="M433.17,263.99c-4.2,2.63-5.91,1.97-5.43,3.44.16.5.7.75,1.17.6,1.81-.59,3.57-1.41,5.24-2.45,1.05-.65.05-2.23-.98-1.58Z"/>
          </g>
          <polygon class="cls-1" points="478.12 209.57 480.39 224.84 489.85 219.86 480.76 213.26 480.29 209.81 516.51 193.72 478.12 209.57"/>
        </g>
      </g>
      <circle class="cls-8" cx="85.47" cy="157.22" r="7"/>
      <circle class="cls-8" cx="516.51" cy="305.09" r="7"/>
      <circle class="cls-8" cx="483.41" cy="291.27" r="3.72"/>
      <path class="cls-8" d="M18.04,223.39h0c.53,4.78,3.11,9.08,7.08,11.79h0s0,0,0,0c-4.78.53-9.08,3.11-11.79,7.08h0s0,0,0,0c-.53-4.78-3.11-9.08-7.08-11.79h0s0,0,0,0c4.78-.53,9.08-3.11,11.79-7.08h0Z"/>
      <polygon class="cls-4" points="388.09 24.29 383.72 30.27 385.44 37.48 378.65 40.46 376.55 47.56 369.18 46.76 363.8 51.85 357.82 47.48 350.62 49.2 347.63 42.41 340.53 40.31 341.33 32.94 336.24 27.56 340.62 21.58 338.89 14.38 345.68 11.39 347.78 4.29 355.15 5.09 360.53 0 366.51 4.38 373.72 2.65 376.7 9.44 383.8 11.54 383 18.91 388.09 24.29"/>
    </g>
  </g>
</svg>