<?xml version="1.0" encoding="UTF-8"?>
<svg id="Layer_2" xmlns="http://www.w3.org/2000/svg" xmlns:xlink="http://www.w3.org/1999/xlink" version="1.1" viewBox="0 0 1003.8 317.2">
  <!-- Generator: Adobe Illustrator 29.5.1, SVG Export Plug-In . SVG Version: 2.1.0 Build 141)  -->
  <defs>
    <style>
      .st0 {
        fill: none;
      }

      .st1 {
        fill: #ffbd00;
      }

      .st2 {
        fill: #f8ac13;
      }

      .st3 {
        fill: #f2992b;
      }

      .st4 {
        fill: #f5a220;
      }

      .st5 {
        fill: #f8ab15;
      }

      .st6 {
        fill: #fbb40a;
      }

      .st7 {
        fill: #f7aa16;
      }

      .st8 {
        fill: #fab20c;
      }

      .st9 {
        fill: #f49e25;
      }

      .st10 {
        fill: #b28769;
      }

      .st11 {
        fill: #f6a41e;
      }

      .st12 {
        fill: #f9af0f;
      }

      .st13 {
        fill: #fab00e;
      }

      .st14 {
        fill: #f1972e;
      }

      .st15 {
        fill: #754e27;
      }

      .st16 {
        fill: #f2992c;
      }

      .st17 {
        fill: #3e4347;
      }

      .st18 {
        isolation: isolate;
      }

      .st19 {
        fill: #f29b29;
      }

      .st20 {
        fill: #cf89ff;
      }

      .st21 {
        fill: #fcb608;
      }

      .st22 {
        clip-path: url(#clippath-1);
      }

      .st23 {
        fill: #f39e26;
      }

      .st24 {
        fill: #f4a122;
      }

      .st25 {
        fill: #f4a023;
      }

      .st26 {
        fill: #fff;
      }

      .st27 {
        fill: #f9ae11;
      }

      .st28 {
        fill: #ffbc01;
      }

      .st29 {
        fill: #fdb707;
      }

      .st30 {
        fill: #f49f24;
      }

      .st31 {
        fill: #f6a61a;
      }

      .st32 {
        fill: #fbb30b;
      }

      .st33 {
        fill: #f9af10;
      }

      .st34 {
        fill: #febb02;
      }

      .st35 {
        fill: #f7a719;
      }

      .st36 {
        fill: #fab10d;
      }

      .st37 {
        fill: #fdb805;
      }

      .st38 {
        fill: #f39d27;
      }

      .st39 {
        fill: #f5a31f;
      }

      .st40 {
        fill: #f6a51c;
      }

      .st41 {
        fill: #feba03;
      }

      .st42 {
        fill: #428bc1;
      }

      .st43 {
        fill: #f7a917;
      }

      .st44 {
        fill: #ed4c5c;
      }

      .st45 {
        fill: #f9ad12;
      }

      .st46 {
        fill: #f2b200;
      }

      .st47 {
        fill: #f5a221;
      }

      .st48 {
        fill: #f39c28;
      }

      .st49 {
        fill: #f8ab14;
      }

      .st50 {
        fill: #f29a2a;
      }

      .st51 {
        fill: #c94747;
      }

      .st52 {
        clip-path: url(#clippath);
      }

      .st53 {
        fill: #f6a61b;
      }

      .st54 {
        fill: #fcb509;
      }

      .st55 {
        fill: #f7a818;
      }

      .st56 {
        fill: #f1982d;
      }

      .st57 {
        fill: #fdb904;
      }
    </style>
    <clipPath id="clippath">
      <polygon class="st0" points="78.6 293.4 85.2 283.7 91.9 293.4 101.5 300 91.8 306.6 85.2 316.3 78.6 306.6 68.9 300 78.6 293.4"/>
    </clipPath>
    <clipPath id="clippath-1">
      <polygon class="st0" points="337.3 16.3 347.9 .9 358.5 16.4 373.9 26.9 358.5 37.5 347.9 52.9 337.3 37.5 321.9 26.9 337.3 16.3"/>
    </clipPath>
  </defs>
  <g id="Layer_1-2">
    <path class="st1" d="M716.8,235c55.2-4.4,110.5-8.7,165.9-5.3,6.8.4,6.7-10.1,0-10.5-55.3-3.4-110.7,1-165.9,5.3-6.7.5-6.8,11,0,10.5h0Z"/>
    <g>
      <path class="st26" d="M930.2,199.8c6.5-6.4,5.5-18-2.3-26s-19.4-9.3-25.9-2.9c-6.5,6.4-5.5,18,2.3,26s19.4,9.3,25.9,2.9Z"/>
      <path class="st44" d="M919.4,186.2c.8-.8.5-2.4-.6-3.6-1.2-1.2-2.8-1.5-3.6-.7s-.5,2.4.6,3.6c1.2,1.2,2.8,1.5,3.6.7Z"/>
      <path class="st42" d="M911.9,178.9c-2.4,2.4-2,6.7.8,9.6,2.9,3,7.2,3.4,9.6,1.1.5-.5.9-1.1,1.2-1.8.7-2.4,0-5.4-2.2-7.7-2.2-2.2-5.2-3.1-7.6-2.4-.7.2-1.3.6-1.8,1.1h0ZM921.6,174.8c.3.2.7.4,1,.6.1.1.3.2.4.3.2.1.4.3.6.5.3.3.6.6,1,.9s.6.6.9,1c.2.2.3.4.5.6,0,.1.2.3.3.4.2.3.4.7.6,1,0,0,0,0,0,0,2.8,4.8,2.5,10.5-1,14-4.3,4.2-11.9,3.5-16.9-1.7-5-5.1-5.6-12.8-1.3-17,3.5-3.4,9.3-3.6,14-.7,0,0,0,0,0,0h0Z"/>
      <path class="st17" d="M904.5,172.4c-5.6,5.5-4.7,15.5,2,22.4s16.7,8,22.3,2.5c2.3-2.2,3.5-5.1,3.7-8.3.2-4.7-1.8-9.9-5.7-13.9-4-4.1-9.1-6.1-13.8-6.1-3.2.1-6.2,1.2-8.4,3.4h0ZM929.7,172c.3.3.5.6.8.9,8.1,9,8.9,21.7,1.7,28.8-7.5,7.3-20.8,5.9-29.6-3.2-8.8-9.1-9.9-22.4-2.4-29.7,7.3-7.1,20-6,28.8,2.4.3.3.6.5.8.8h0Z"/>
      <rect class="st26" x="917.7" y="175.1" width="13.9" height="4" transform="translate(139.1 696) rotate(-44.3)"/>
      <polygon class="st46" points="924.2 173.1 928.7 159.6 933.7 167.2 924.6 176.1 924.2 173.1"/>
      <polygon class="st51" points="925.9 168.1 925.3 169.9 926.6 174.5 927.8 173.4 925.9 168.1"/>
      <polygon class="st51" points="927.6 162.9 927 164.7 930.1 171.1 931.2 170 927.6 162.9"/>
      <polygon class="st46" points="928.6 177.5 942.2 173.4 934.7 168.2 925.6 177.1 928.6 177.5"/>
      <polygon class="st51" points="933.6 176 931.8 176.6 927.2 175.1 928.3 174 933.6 176"/>
      <polygon class="st51" points="938.8 174.5 937.1 175 930.7 171.8 931.8 170.6 938.8 174.5"/>
      <path class="st15" d="M935.2,168.2c-1.3,1.2-14.8,14.5-16.6,16.2,0,.1-.2.2-.3.3-.5.5-1.9-1-1.4-1.5,1.3-1.2,14.8-14.5,16.6-16.2,0-.1.2-.2.3-.3.5-.5,1.9,1,1.4,1.5h0Z"/>
      <path class="st10" d="M934.5,168.2c-1.2,1.2-14.2,13.9-15.9,15.6,0,.1-.2.2-.3.3-.5.5-1.2-.3-.8-.8,1.2-1.2,14.2-13.9,15.9-15.6,0,0,.2-.2.3-.3.5-.5,1.2.3.8.8Z"/>
    </g>
    <g class="st18">
      <g class="st18">
        <path d="M649.5,38h8.2c4.5,0,7.7.4,9.6,1.2s3.5,2.1,4.6,4c1.2,1.9,1.7,4.1,1.7,6.6s-.6,4.9-1.9,6.7c-1.3,1.8-3.2,3.2-5.8,4.1l9.7,18.2h-8.5l-9.2-17.3h-.7v17.3h-7.8v-40.9ZM657.3,53.9h2.4c2.5,0,4.2-.3,5.1-1,.9-.6,1.4-1.7,1.4-3.2s-.2-1.7-.7-2.3c-.5-.7-1.1-1.1-1.9-1.4-.8-.3-2.2-.4-4.3-.4h-2.1v8.4Z"/>
        <path d="M711.4,65.9h-24.4c.4,2.1,1.3,3.9,2.8,5.1,1.5,1.3,3.5,1.9,5.8,1.9s5.3-1,7.3-3l6.4,3c-1.6,2.3-3.5,3.9-5.7,5-2.2,1.1-4.9,1.6-7.9,1.6-4.7,0-8.6-1.5-11.6-4.5-3-3-4.5-6.7-4.5-11.2s1.5-8.4,4.5-11.5c3-3,6.7-4.6,11.2-4.6s8.6,1.5,11.6,4.6c3,3,4.5,7.1,4.5,12.1v1.4ZM703.9,59.9c-.5-1.7-1.5-3.1-3-4.1-1.5-1.1-3.2-1.6-5.1-1.6s-4,.6-5.6,1.8c-1,.7-1.9,2-2.8,3.9h16.4Z"/>
        <path d="M739.9,48.6h7.6v30.2h-7.6v-3.2c-1.5,1.4-3,2.4-4.5,3-1.5.6-3.1.9-4.8.9-3.9,0-7.3-1.5-10.1-4.5-2.8-3-4.3-6.8-4.3-11.3s1.4-8.5,4.1-11.5,6.1-4.5,10-4.5,3.5.3,5.1,1c1.6.7,3.1,1.7,4.4,3.1v-3.3ZM731.9,54.8c-2.3,0-4.3.8-5.8,2.5-1.5,1.7-2.3,3.8-2.3,6.4s.8,4.8,2.4,6.4c1.6,1.7,3.5,2.5,5.8,2.5s4.4-.8,5.9-2.5,2.4-3.8,2.4-6.5-.8-4.8-2.4-6.4c-1.6-1.6-3.6-2.4-6-2.4Z"/>
        <path d="M754.3,36.9h7.6v41.9h-7.6v-41.9Z"/>
        <path d="M769.8,60.2h14.1v7.1h-14.1v-7.1Z"/>
        <path d="M793.6,37.5h7.6v11.1h4.5v6.5h-4.5v23.7h-7.6v-23.7h-3.9v-6.5h3.9v-11.1Z"/>
        <path d="M812.7,36.1c1.3,0,2.5.5,3.4,1.4s1.4,2.1,1.4,3.5-.5,2.5-1.4,3.5c-.9,1-2.1,1.4-3.4,1.4s-2.5-.5-3.4-1.5c-1-1-1.4-2.2-1.4-3.5s.5-2.5,1.4-3.4c.9-.9,2.1-1.4,3.4-1.4ZM808.9,48.6h7.6v30.2h-7.6v-30.2Z"/>
        <path d="M823.3,48.6h7.6v3.5c1.3-1.4,2.7-2.5,4.3-3.2,1.6-.7,3.3-1.1,5.2-1.1s3.6.5,5.1,1.4,2.7,2.3,3.7,4.1c1.2-1.8,2.7-3.1,4.4-4.1s3.7-1.4,5.7-1.4,4,.5,5.7,1.5,2.8,2.3,3.5,3.9c.7,1.6,1.1,4.2,1.1,7.9v17.7h-7.6v-15.3c0-3.4-.4-5.7-1.3-7s-2.1-1.8-3.8-1.8-2.5.4-3.5,1.1c-1,.7-1.8,1.8-2.3,3.1-.5,1.3-.8,3.4-.8,6.3v13.6h-7.6v-14.6c0-2.7-.2-4.7-.6-5.9-.4-1.2-1-2.1-1.8-2.7-.8-.6-1.8-.9-2.9-.9s-2.4.4-3.4,1.1-1.8,1.8-2.3,3.2c-.5,1.4-.8,3.5-.8,6.4v13.4h-7.6v-30.2Z"/>
        <path d="M907.1,65.9h-24.4c.4,2.1,1.3,3.9,2.8,5.1,1.5,1.3,3.5,1.9,5.8,1.9s5.3-1,7.3-3l6.4,3c-1.6,2.3-3.5,3.9-5.7,5-2.2,1.1-4.9,1.6-7.9,1.6-4.7,0-8.6-1.5-11.6-4.5-3-3-4.5-6.7-4.5-11.2s1.5-8.4,4.5-11.5c3-3,6.7-4.6,11.2-4.6s8.6,1.5,11.6,4.6c3,3,4.5,7.1,4.5,12.1v1.4ZM899.5,59.9c-.5-1.7-1.5-3.1-3-4.1-1.5-1.1-3.2-1.6-5.1-1.6s-4,.6-5.6,1.8c-1,.7-1.9,2-2.8,3.9h16.4Z"/>
      </g>
      <g class="st18">
        <path d="M686.6,107.1l-5.4,5.2c-3.7-3.9-7.9-5.9-12.5-5.9s-7.2,1.3-9.9,4c-2.7,2.7-4,6-4,9.9s.6,5.1,1.8,7.3c1.2,2.1,2.9,3.8,5,5,2.2,1.2,4.6,1.8,7.2,1.8s4.3-.4,6.2-1.3c1.9-.8,3.9-2.4,6.2-4.6l5.3,5.5c-3,2.9-5.9,5-8.6,6.1-2.7,1.1-5.7,1.7-9.2,1.7-6.4,0-11.5-2-15.6-6-4-4-6.1-9.2-6.1-15.5s.9-7.7,2.8-10.9c1.8-3.2,4.5-5.7,7.9-7.6,3.4-1.9,7.1-2.9,11.1-2.9s6.6.7,9.7,2.1c3.1,1.4,5.8,3.4,8.1,6.1Z"/>
        <path d="M692.6,98.9h7.5v14.7c1.5-1.3,3-2.2,4.5-2.9s3-1,4.6-1c3,0,5.5,1,7.6,3.1,1.8,1.8,2.6,4.4,2.6,7.9v20h-7.5v-13.2c0-3.5-.2-5.9-.5-7.1-.3-1.2-.9-2.2-1.7-2.8-.8-.6-1.8-.9-3-.9s-2.9.5-4,1.5c-1.1,1-1.9,2.4-2.3,4.2-.2.9-.3,3-.3,6.2v12.1h-7.5v-41.9Z"/>
        <path d="M749,110.5h7.6v30.2h-7.6v-3.2c-1.5,1.4-3,2.4-4.5,3-1.5.6-3.1.9-4.8.9-3.9,0-7.3-1.5-10.1-4.5-2.8-3-4.3-6.8-4.3-11.3s1.4-8.5,4.1-11.5,6.1-4.5,10-4.5,3.5.3,5.1,1c1.6.7,3.1,1.7,4.4,3.1v-3.3ZM741,116.8c-2.3,0-4.3.8-5.8,2.5-1.5,1.7-2.3,3.8-2.3,6.4s.8,4.8,2.4,6.4c1.6,1.7,3.5,2.5,5.8,2.5s4.4-.8,5.9-2.5,2.4-3.8,2.4-6.5-.8-4.8-2.4-6.4c-1.6-1.6-3.6-2.4-6-2.4Z"/>
        <path d="M765.1,99.4h7.6v11.1h4.5v6.5h-4.5v23.7h-7.6v-23.7h-3.9v-6.5h3.9v-11.1Z"/>
        <path d="M819.5,105.5l-5.8,5.1c-2-2.8-4.1-4.2-6.2-4.2s-1.9.3-2.5.8c-.6.5-1,1.2-1,1.8s.2,1.3.7,1.9c.6.8,2.5,2.6,5.7,5.2,3,2.5,4.8,4,5.4,4.7,1.6,1.6,2.7,3.1,3.4,4.6.7,1.5,1,3,1,4.8,0,3.4-1.2,6.1-3.5,8.3-2.3,2.2-5.3,3.3-9.1,3.3s-5.4-.7-7.6-2.1c-2.2-1.4-4-3.7-5.5-6.7l6.5-3.9c2,3.6,4.2,5.4,6.8,5.4s2.5-.4,3.4-1.2c.9-.8,1.4-1.7,1.4-2.7s-.3-1.9-1-2.8c-.7-.9-2.2-2.3-4.5-4.2-4.5-3.6-7.3-6.4-8.6-8.4-1.3-2-1.9-3.9-1.9-5.9,0-2.8,1.1-5.3,3.2-7.3,2.2-2,4.8-3,8-3s4,.5,5.8,1.4,3.8,2.7,6,5.2Z"/>
        <path d="M826.7,110.5h7.7v14.6c0,2.8.2,4.8.6,5.9.4,1.1,1,2,1.9,2.6s1.9.9,3.2.9,2.3-.3,3.2-.9c.9-.6,1.5-1.5,2-2.7.3-.9.5-2.7.5-5.6v-14.8h7.6v12.8c0,5.3-.4,8.9-1.2,10.8-1,2.4-2.5,4.2-4.5,5.5-2,1.3-4.5,1.9-7.6,1.9s-6-.7-8-2.2-3.5-3.5-4.3-6.2c-.6-1.8-.9-5.2-.9-10v-12.6Z"/>
        <path d="M868.4,110.5v3.3c1.4-1.4,2.9-2.4,4.4-3.1,1.6-.7,3.3-1,5.1-1,3.9,0,7.3,1.5,10.1,4.5s4.1,6.8,4.1,11.5-1.4,8.3-4.3,11.3c-2.9,3-6.2,4.5-10.1,4.5s-3.4-.3-4.9-.9-3-1.6-4.5-3v14.2h-7.5v-41.3h7.5ZM876.4,116.8c-2.4,0-4.4.8-5.9,2.4-1.6,1.6-2.4,3.8-2.4,6.4s.8,4.9,2.4,6.5c1.6,1.7,3.6,2.5,5.9,2.5s4.3-.8,5.8-2.5c1.6-1.7,2.4-3.8,2.4-6.4s-.8-4.7-2.3-6.4c-1.6-1.7-3.5-2.5-5.9-2.5Z"/>
        <path d="M906,110.5v3.3c1.4-1.4,2.9-2.4,4.4-3.1,1.6-.7,3.3-1,5.1-1,3.9,0,7.3,1.5,10.1,4.5s4.1,6.8,4.1,11.5-1.4,8.3-4.3,11.3c-2.9,3-6.2,4.5-10.1,4.5s-3.4-.3-4.9-.9-3-1.6-4.5-3v14.2h-7.5v-41.3h7.5ZM913.9,116.8c-2.4,0-4.4.8-5.9,2.4-1.6,1.6-2.4,3.8-2.4,6.4s.8,4.9,2.4,6.5c1.6,1.7,3.6,2.5,5.9,2.5s4.3-.8,5.8-2.5c1.6-1.7,2.4-3.8,2.4-6.4s-.8-4.7-2.3-6.4c-1.6-1.7-3.5-2.5-5.9-2.5Z"/>
        <path d="M950.2,109.8c2.9,0,5.5.7,8,2.1,2.5,1.4,4.5,3.4,5.9,5.8,1.4,2.4,2.1,5.1,2.1,7.9s-.7,5.5-2.1,8c-1.4,2.5-3.3,4.4-5.8,5.8s-5.1,2.1-8.1,2.1c-4.3,0-8-1.5-11.1-4.6s-4.6-6.8-4.6-11.2,1.7-8.7,5.2-11.8c3-2.7,6.5-4.1,10.5-4.1ZM950.3,116.9c-2.4,0-4.3.8-5.9,2.5s-2.4,3.7-2.4,6.3.8,4.8,2.3,6.4c1.5,1.6,3.5,2.4,5.9,2.4s4.3-.8,5.9-2.5c1.6-1.6,2.4-3.8,2.4-6.4s-.8-4.7-2.3-6.3-3.5-2.4-5.9-2.4Z"/>
        <path d="M970.6,110.5h6.5v3.8c.7-1.5,1.6-2.6,2.8-3.4,1.2-.8,2.4-1.2,3.8-1.2s2,.3,3.1.8l-2.4,6.5c-.9-.4-1.6-.7-2.2-.7-1.2,0-2.2.7-3,2.2-.8,1.4-1.2,4.3-1.2,8.5v1.5s0,12.2,0,12.2h-7.5v-30.2Z"/>
        <path d="M991.5,99.4h7.6v11.1h4.5v6.5h-4.5v23.7h-7.6v-23.7h-3.9v-6.5h3.9v-11.1Z"/>
      </g>
      <g class="st18">
        <path d="M670.5,172.5h7.6v30.2h-7.6v-3.2c-1.5,1.4-3,2.4-4.5,3-1.5.6-3.1.9-4.8.9-3.9,0-7.3-1.5-10.1-4.5-2.8-3-4.3-6.8-4.3-11.3s1.4-8.5,4.1-11.5c2.8-3,6.1-4.5,10-4.5s3.5.3,5.1,1c1.6.7,3.1,1.7,4.4,3.1v-3.3ZM662.5,178.7c-2.3,0-4.3.8-5.8,2.5-1.6,1.7-2.3,3.8-2.3,6.4s.8,4.8,2.4,6.4c1.6,1.7,3.5,2.5,5.8,2.5s4.4-.8,5.9-2.5,2.4-3.8,2.4-6.5-.8-4.8-2.4-6.4c-1.6-1.6-3.6-2.4-6-2.4Z"/>
        <path d="M686.6,161.4h7.6v11.1h4.5v6.5h-4.5v23.7h-7.6v-23.7h-3.9v-6.5h3.9v-11.1Z"/>
        <path d="M717.4,161.9h24.7l-14.5,33.4h13.6v7.5h-25l14.5-33.2h-13.3v-7.7Z"/>
        <path d="M777.4,189.8h-24.4c.4,2.1,1.3,3.9,2.8,5.1,1.5,1.3,3.5,1.9,5.8,1.9s5.3-1,7.3-3l6.4,3c-1.6,2.3-3.5,3.9-5.7,5-2.2,1.1-4.9,1.6-7.9,1.6-4.7,0-8.6-1.5-11.6-4.5-3-3-4.5-6.7-4.5-11.2s1.5-8.4,4.5-11.5c3-3,6.7-4.6,11.2-4.6s8.6,1.5,11.6,4.6c3,3,4.5,7.1,4.5,12.1v1.4ZM769.8,183.8c-.5-1.7-1.5-3.1-3-4.1-1.5-1.1-3.2-1.6-5.1-1.6s-4,.6-5.6,1.8c-1,.7-1.9,2-2.8,3.9h16.4Z"/>
        <path d="M783.5,172.5h7.6v3.1c1.7-1.4,3.3-2.5,4.7-3,1.4-.6,2.8-.8,4.3-.8,3,0,5.5,1,7.6,3.1,1.8,1.8,2.6,4.4,2.6,7.9v20h-7.5v-13.2c0-3.6-.2-6-.5-7.2-.3-1.2-.9-2.1-1.7-2.7-.8-.6-1.8-.9-3-.9s-2.8.5-3.9,1.5c-1.1,1-1.9,2.4-2.3,4.3-.2.9-.3,3-.3,6.1v12.1h-7.6v-30.2Z"/>
        <path d="M847.3,178.6l-6.3,3.5c-1.2-1.2-2.4-2.1-3.5-2.6-1.2-.5-2.5-.7-4.1-.7-2.8,0-5.1.8-6.9,2.5-1.8,1.7-2.6,3.9-2.6,6.5s.8,4.7,2.5,6.3c1.7,1.6,3.9,2.4,6.6,2.4s6-1.2,7.9-3.5l6,4.1c-3.2,4.2-7.8,6.3-13.7,6.3s-9.5-1.6-12.5-4.7c-3-3.1-4.5-6.8-4.5-11.1s.7-5.6,2.2-8.1c1.5-2.5,3.5-4.4,6.1-5.8,2.6-1.4,5.5-2.1,8.8-2.1s5.7.6,8.1,1.8,4.3,2.9,5.9,5.1Z"/>
        <path d="M850.7,172.5h7.7l7.8,19,8.7-19h7.8l-18.9,41.3h-7.8l6.2-13.3-11.5-28Z"/>
      </g>
    </g>
    <g class="st18">
      <g class="st18">
        <path d="M649.8,294.6h.3c.4,0,.5,0,.6-.4l4.3-11.7h2l4.3,11.7c.1.4.3.4.6.4h.3v1.7h-1.1c-1,0-1.3-.2-1.6-1.1l-1-2.8h-5.1l-1,2.8c-.3.9-.6,1.1-1.6,1.1h-1.1v-1.7ZM658.1,290.7l-1.5-4.2c-.3-.7-.5-1.9-.5-1.9h0s-.3,1.2-.5,1.9l-1.5,4.2h4.1Z"/>
        <path d="M664.4,284.6c-.1-.4-.3-.4-.6-.4h-.3v-1.7h1.1c1,0,1.3.2,1.6,1.1l3,8.5c.3.7.5,1.9.5,1.9h0s.3-1.2.5-1.9l3-8.5c.3-.9.6-1.1,1.6-1.1h1.1v1.7h-.3c-.4,0-.5,0-.6.4l-4.3,11.7h-2.1l-4.3-11.7Z"/>
      </g>
      <g class="st18">
        <path d="M678.4,294.6h.3c.4,0,.5,0,.6-.4l4.3-11.7h2l4.3,11.7c.1.4.3.4.6.4h.3v1.7h-1.1c-1,0-1.3-.2-1.6-1.1l-1-2.8h-5.1l-1,2.8c-.3.9-.6,1.1-1.6,1.1h-1.1v-1.7ZM686.7,290.7l-1.5-4.2c-.3-.7-.5-1.9-.5-1.9h0s-.3,1.2-.5,1.9l-1.5,4.2h4.1Z"/>
        <path d="M693.9,294.6h1.3v-10.4h-1.3v-1.7h4.5v1.7h-1.3v10.4h1.3v1.7h-4.5v-1.7Z"/>
      </g>
      <g class="st18">
        <path d="M703.2,284.6c0-.3-.2-.4-.4-.4h-.8v-1.7h2c.9,0,1.2.4,1.2,1.2v10.4c0,.3.2.4.4.4h3.8c.3,0,.4-.2.4-.4v-.9h1.8v1.7c0,.9-.4,1.2-1.2,1.2h-5.9c-.9,0-1.2-.4-1.2-1.2v-10.4Z"/>
      </g>
      <g class="st18">
        <path d="M714.1,294.6h.3c.4,0,.5,0,.6-.4l4.3-11.7h2l4.3,11.7c.1.4.3.4.6.4h.3v1.7h-1.1c-1,0-1.3-.2-1.6-1.1l-1-2.8h-5.1l-1,2.8c-.3.9-.6,1.1-1.6,1.1h-1.1v-1.7ZM722.4,290.7l-1.5-4.2c-.3-.7-.5-1.9-.5-1.9h0s-.3,1.2-.5,1.9l-1.5,4.2h4.1Z"/>
        <path d="M730.8,284.2h-1.3v-1.7h5.9c2.3,0,4,1.3,4,3.5s-.8,2.5-1.7,3h0c1.5.5,2.3,1.8,2.3,3.4,0,2.6-2,3.9-4.4,3.9h-3.5c-.9,0-1.2-.4-1.2-1.2v-10.8ZM735.4,288.3c1.2,0,2-.9,2-2.1s-.7-2-2-2h-2.7v4.1h2.7ZM733.2,294.6h2.5c1.5,0,2.3-.9,2.3-2.3s-.9-2.4-2.3-2.4h-2.9v4.3c0,.3.2.4.4.4Z"/>
      </g>
      <g class="st18">
        <path d="M744.8,284.6c0-.3-.2-.4-.4-.4h-.8v-1.7h2c.9,0,1.2.4,1.2,1.2v10.4c0,.3.2.4.4.4h3.8c.3,0,.4-.2.4-.4v-.9h1.8v1.7c0,.9-.4,1.2-1.2,1.2h-5.9c-.9,0-1.2-.4-1.2-1.2v-10.4Z"/>
      </g>
      <g class="st18">
        <path d="M756.7,284.2h-1.3v-1.7h8.1c.9,0,1.2.4,1.2,1.2v1.7h-1.8v-.9c0-.3-.2-.4-.4-.4h-3.9v4.3h4.8v1.7h-4.8v4c0,.3.2.4.4.4h4c.3,0,.4-.2.4-.4v-.9h1.8v1.7c0,.9-.4,1.2-1.2,1.2h-6.1c-.9,0-1.2-.4-1.2-1.2v-10.8Z"/>
      </g>
      <g class="st18">
        <path d="M782.7,286.3c0-1.3-.9-2.2-2.4-2.2s-2.1.6-2.1,1.3v.6h-1.8v-1.2c0-1.8,2.4-2.5,4-2.5,2.5,0,4.3,1.6,4.3,4,0,4.7-7,4.8-7,8s.2.4.5.4h4.9c.3,0,.4-.2.4-.4v-.9h1.8v1.7c0,.9-.4,1.2-1.2,1.2h-7.1c-1.1,0-1.3-.5-1.3-1.6,0-5.1,7-4.7,7-8.4Z"/>
      </g>
      <g class="st18">
        <path d="M788,291.4l6.2-8.9h2.2v8.4h2.1v1.7h-2.1v3.6h-2v-3.6h-6.5v-1.2ZM794.5,286.2c0-.6,0-1.4,0-1.4h0s-.4.7-.7,1.2l-3,4.1c-.4.5-.7.9-.7.9h0s.6,0,1.2,0h3.2v-4.7Z"/>
        <path d="M805.4,289.2l-2.8-4.5c-.3-.4-.5-.5-.9-.5h-.5v-1.7h1.2c.9,0,1.3.2,1.8,1.1l1.5,2.6c.4.8.9,1.6.9,1.6h0s.4-.9.8-1.6l1.6-2.6c.5-.9.9-1.1,1.9-1.1h1.1v1.7h-.5c-.4,0-.6,0-.9.5l-2.8,4.5,4.3,7.1h-2.2l-2.5-4.2c-.4-.8-.9-1.6-.9-1.6h0s-.4.8-.8,1.6l-2.5,4.2h-2.2l4.3-7.1Z"/>
        <path d="M821.4,285.4c.4-.8.8-1.3.8-1.3h0s-.3,0-1,0h-4.2c-.3,0-.4.1-.4.4v.9h-1.8v-1.7c0-.9.3-1.2,1.2-1.2h8.4v1.3l-6.7,12.4h-2.2l5.8-10.8Z"/>
      </g>
    </g>
    <g>
      <g>
        <path d="M309,280.5h-82.8c-.7,0-1.3-.3-1.8-.7-.5-.5-.7-1.1-.7-1.8,0-11.1,4.4-21.7,12.3-29.6,7.8-7.8,18.5-12.2,29.6-12.3h4.3c11.1,0,21.7,4.4,29.5,12.3,7.8,7.8,12.2,18.5,12.3,29.6,0,.7-.3,1.3-.7,1.8s-1.1.7-1.8.7h0ZM228.8,275.4h77.5c-.6-9.3-4.8-18-11.6-24.3-6.8-6.4-15.7-9.9-25-9.9h-4.3c-9.3,0-18.2,3.5-25,9.9-6.8,6.3-10.9,15-11.6,24.3h0Z"/>
        <path d="M309,291.9h-82.8c-.7,0-1.3-.3-1.8-.7-.5-.5-.7-1.1-.7-1.8v-11.4c0-.7.3-1.3.7-1.8.5-.5,1.1-.7,1.8-.7h82.8c.7,0,1.3.3,1.8.7.5.5.7,1.1.7,1.8v11.4c0,.7-.3,1.3-.7,1.8-.5.5-1.1.7-1.8.7ZM228.7,286.8h77.7v-6.3h-77.7v6.3h0Z"/>
        <path d="M152.5,297c-3.9,0-7.7-.9-11.2-2.5s-6.6-4.1-9-7.2l-23.6-29.9c-2.1-2.6-3.7-5.7-4.6-8.9s-1.2-6.7-.8-10,1.4-6.6,3.1-9.6c1.7-2.9,3.9-5.6,6.5-7.6,2.7-2.1,5.7-3.6,8.9-4.6,3.3-.9,6.7-1.2,10-.8,3.4.4,6.6,1.5,9.6,3.1,2.9,1.7,5.5,3.9,7.6,6.5l23.6,29.9c3,3.8,4.9,8.3,5.4,13.1.5,4.8-.3,9.6-2.4,14-2.1,4.4-5.4,8-9.5,10.6-4.1,2.6-8.8,3.9-13.6,3.9h0ZM128.8,220.7c-3.9,0-7.7,1.1-10.9,3.2s-5.9,5-7.6,8.5-2.4,7.4-1.9,11.2c.4,3.9,1.9,7.5,4.3,10.6l23.6,29.9c3.4,4.3,8.4,7.1,13.8,7.7s10.9-.9,15.2-4.3c4.3-3.4,7.1-8.4,7.7-13.8s-.9-10.9-4.3-15.2l-23.6-29.9c-1.9-2.4-4.4-4.4-7.2-5.8-2.8-1.4-5.9-2.1-9-2.1h0Z"/>
        <path d="M166.8,292c-.5,0-1-.2-1.5-.5-.4-.3-.8-.7-.9-1.2-.2-.5-.2-1,0-1.5.1-.5.4-1,.9-1.3,4.3-3.4,7.1-8.4,7.7-13.8s-.9-10.9-4.3-15.2l-23.6-29.9c-3.4-4.3-8.4-7.1-13.8-7.7-5.4-.6-10.9.9-15.2,4.3-.5.4-1.1.6-1.8.5-.6,0-1.2-.3-1.7-.8-.4-.5-.7-1.1-.7-1.7s.2-1.2.7-1.7c.4-.4,8.8-9.6,21.4-10.1,8.4-.4,16.6,3.1,24.3,10.3,10.3,9.6,18.2,17.2,23.4,22.4,3.8,3.8,6,8.9,6.2,14.3.5,13-5.7,23.5-19.7,33.1-.4.3-.9.5-1.4.5h0ZM135.1,216.4c5.5,1.4,10.5,4.5,14,9l23.6,29.9c2.1,2.6,3.7,5.7,4.6,8.9.9,3.2,1.2,6.6.8,10,0,.5-.1,1.1-.2,1.6,3.6-5,5.5-11.1,5.1-17.2-.2-4.1-1.9-8-4.8-11-3.5-3.6-10.4-10.4-23.2-22.3-6.4-6-13-9-19.7-9h-.2Z"/>
        <path d="M269.3,214.3h-108.2c-2.7,0-5.2-1.1-7.1-2.9-1.9-1.9-2.9-4.4-2.9-7.1v-37.2c0-11.4,4.6-22.4,12.7-30.5s19.1-12.6,30.5-12.7h42c11.4,0,22.4,4.6,30.5,12.7,8.1,8.1,12.6,19.1,12.7,30.5v37.2c0,2.7-1.1,5.2-2.9,7.1s-4.4,3-7.1,3h0ZM194.2,128.9c-10.1,0-19.8,4-26.9,11.2s-11.2,16.8-11.2,26.9v37.2c0,1.3.5,2.6,1.5,3.5.9.9,2.2,1.5,3.5,1.5h108.2c1.3,0,2.6-.5,3.5-1.5.9-.9,1.5-2.2,1.5-3.5v-37.2c0-10.1-4-19.8-11.2-26.9-7.1-7.1-16.8-11.2-26.9-11.2h-42,0Z"/>
        <path d="M234.4,256.7h-48.9c-.7,0-1.3-.3-1.8-.7-.5-.5-.7-1.1-.7-1.8s.3-1.3.7-1.8,1.1-.7,1.8-.7h48.9c.7,0,1.3.3,1.8.7.5.5.7,1.1.7,1.8s-.3,1.3-.7,1.8c-.5.5-1.1.7-1.8.7h0Z"/>
        <path d="M295.7,251c-.5,0-.9-.1-1.3-.4-.4-.2-.7-.6-.9-.9-.2-.4-.3-.8-.3-1.3s.1-.9.4-1.3c.9-1.5,1.4-3.2,1.4-4.9v-68.3c0-13.3-3.3-26.4-9.7-38.1-.3-.5-.4-1.2-.2-1.8s.5-1.1,1-1.5l13.2-9.8c.3-.2.6-.3.9-.4.3,0,.7,0,1,0,.3,0,.6.2.9.3s.5.4.7.7c1.8,2.5,5.2,6.2,11.9,10.3,5,3.1,9.6,4,13.5,2.8,3.6-1.1,6.7-4.3,8.6-8.8.8-1.8,4-11.1-8.3-17.6-10.2-5.4-21.7-2.2-21.8-2.2-.5.2-1.1.1-1.7,0s-1-.6-1.3-1.1c-.3-.5-.4-1.1-.3-1.6s.4-1.1.8-1.5c.8-1.9,3.2-8.6,4.2-19.5.5-5.6-.8-10-3.9-12.7-3.1-2.7-7.9-3.8-12.9-2.7-3.2.7-10.6,3.7-11,17.1-.3,8.2,4.6,14.2,7.5,17,.2.2.5.5.6.9.1.3.2.7.2,1s-.1.7-.2,1-.4.6-.6.8l-12.9,11.1c-.5.4-1.1.6-1.8.6s-1.2-.3-1.7-.7c-7.4-7.4-16.1-13.3-25.8-17.3-9.7-4-20-6.1-30.5-6-43.9,0-79.6,35.7-79.6,79.6v41.7c0,.7-.3,1.3-.7,1.8-.5.5-1.1.7-1.8.7s-1.3-.3-1.8-.7c-.5-.5-.7-1.1-.7-1.8v-41.6c0-16.6,4.9-32.8,13.9-46.6,9.1-13.8,22.1-24.7,37.3-31.2,15.2-6.6,32-8.5,48.3-5.6s31.4,10.5,43.4,21.9l9.1-7.8c-3.4-3.9-7.4-10.3-7.1-18.8.5-17.4,11.6-21.2,15-21.9,6.5-1.4,13,0,17.3,3.9,3,2.7,6.4,7.8,5.5,17-.8,8-2.2,13.9-3.4,17.5,5-.6,13-.6,20.7,3.5,11.8,6.2,13.8,16.6,10.6,24.1-2.5,5.9-6.7,10-11.8,11.6-5.4,1.7-11.3.6-17.6-3.3-5.8-3.6-9.5-7-11.8-9.7l-9.4,7c6.1,11.9,9.3,25.1,9.3,38.6v68.3c0,2.7-.7,5.3-2.1,7.6-.2.4-.5.7-.9.9s-.8.3-1.2.3h0Z"/>
        <path d="M294.5,98.5c-1.4,0-2.2-1.1-2.5-1.6-1.2-1.7-6.8-11.2-5-16.5,1.1-3.2,3.8-5.4,7-5.5,1.4,0,2.8.3,4,1.1,1.2.8,2.1,1.8,2.6,3.1,2,4.7-2.4,14.9-3.8,17.9-.2.4-.5.8-.9,1.1s-.9.4-1.4.4h0ZM294.3,80h0c-.8,0-1.9.6-2.4,2.1-.5,1.6.8,5.3,2.2,8.3,1.5-4,2.4-7.9,1.9-9.2-.1-.3-.4-.6-.6-.8-.3-.2-.6-.3-1-.3h0Z"/>
        <path d="M322.7,128.8c-5.6,0-12.9-7.9-14.1-9.5-.4-.5-1.2-1.5-.8-2.9.1-.5.4-.9.8-1.2.4-.3.8-.5,1.3-.6,3.3-.5,14.3-1.8,18.2,1.5,1.1.9,1.9,2.1,2.2,3.4.4,1.3.3,2.8-.1,4.1-1,3-3.9,5-7.3,5.1h-.2ZM315.5,119.2c2.4,2.2,5.6,4.6,7.2,4.5,1.6,0,2.4-.9,2.7-1.7.1-.3.1-.7,0-1.1-.1-.4-.3-.7-.6-.9-1-.9-5-1.1-9.3-.9h0,0Z"/>
        <path class="st20" d="M357.7,129c-.6,0-1.2-.2-1.6-.5-.5-.4-.8-.8-1-1.4-.2-.6-.2-1.2,0-1.7.2-.6.5-1,1-1.4.2-.2,21.8-15.8,32.8-47.4.1-.3.3-.7.5-.9.2-.3.5-.5.9-.7s.7-.2,1-.3c.4,0,.7,0,1.1.2s.7.3.9.6c.3.2.5.5.6.9.2.3.2.7.3,1s0,.7-.1,1.1c-11.6,33.3-33.9,49.4-34.8,50.1-.5.3-1,.5-1.6.5h0Z"/>
        <path class="st20" d="M374.6,135.1c-.6,0-1.2-.2-1.7-.6s-.8-1-1-1.6,0-1.3.2-1.8.8-1,1.3-1.3c.3-.1,25.7-11.4,40.2-26.8.2-.3.5-.5.9-.6.3-.2.7-.2,1.1-.3.4,0,.7,0,1.1.2.3.1.7.3.9.6.3.2.5.6.6.9s.2.7.2,1.1c0,.4,0,.7-.2,1.1s-.3.7-.6.9c-15.3,16.2-40.9,27.6-42,28-.4.1-.7.2-1.1.2h0Z"/>
        <path class="st20" d="M38.4,233.6c-17.6,0-35.2-4.4-36.4-4.7-.4,0-.7-.2-1-.5-.3-.2-.5-.5-.7-.8-.2-.3-.3-.7-.4-1,0-.4,0-.7,0-1.1,0-.4.2-.7.5-1,.2-.3.5-.5.8-.7.6-.4,1.4-.5,2.1-.3.4.1,40,10,57.7.2.3-.2.7-.3,1-.3.4,0,.7,0,1.1,0,.3.1.7.3,1,.5.3.2.5.5.7.8.2.3.3.7.3,1s0,.7,0,1.1c0,.4-.3.7-.5,1s-.5.5-.8.7c-6.8,3.7-16,4.9-25.3,4.9h0Z"/>
        <path class="st20" d="M13.7,280.7c-.6,0-1.3-.2-1.8-.6s-.8-1-1-1.6c-.1-.6,0-1.3.3-1.9.3-.6.8-1,1.4-1.2l52.4-20.4c.3-.1.7-.2,1.1-.2.4,0,.7,0,1.1.2.3.1.6.4.9.6s.4.6.6.9c.1.3.2.7.2,1.1,0,.4,0,.7-.2,1-.2.3-.4.6-.6.9s-.6.5-.9.6l-52.3,20.4c-.3.1-.7.2-1,.2h0Z"/>
        <path d="M329.4,225.7c-9.4,0-16.6-2-21.5-4.1-8.3-3.5-12.2-8-12.4-8.2-.4-.5-.7-1.2-.6-1.8,0-.7.4-1.3.9-1.7s1.2-.7,1.8-.6c.7,0,1.3.4,1.7.9,0,0,3.6,4,10.8,7,6.8,2.8,18.2,5.4,34.6,1.8.7-.1,1.3,0,1.9.3s1,.9,1.1,1.6c.1.7,0,1.3-.3,1.9s-.9,1-1.6,1.1c-5.4,1.2-11,1.9-16.5,1.9h0Z"/>
        <path class="st20" d="M485.8,193.4l-28.7-43.5c-5.6-8.4-17.4-10.5-26.3-4.6l-41.6,27.4c1.6.3,3.1.9,4.6,1.5,9.1,4.6-.4,14.9-4.3,16.4-7.6,2.9-26.3-.8-26.3-.8l-11.5,7.6c-4.3,2.8-7.3,7-8.5,12-.6,2.4-.7,4.9-.3,7.3.4,2.4,1.3,4.7,2.6,6.8l33.5,50.9c.1.1.2.3.3.4l24.7,25.4c.3.4.8.7,1.2,1s1,.4,1.5.3c.5,0,.9,0,1.3-.2.8-.3,1.4-.8,1.9-1.5.4-.7.6-1.5.5-2.4,0,0,0-.1,0-.2l-5.8-25.2c0-.9.1-1.8.5-2.6s1-1.5,1.8-2l72.6-47.9c9-5.9,11.7-17.6,6.2-26h0Z"/>
        <path class="st26" d="M382.8,236.4c4.8,0,8.7-3.9,8.7-8.7s-3.9-8.7-8.7-8.7-8.7,3.9-8.7,8.7,3.9,8.7,8.7,8.7Z"/>
        <path d="M382.8,238.9c-2.2,0-4.4-.7-6.2-1.9-1.9-1.2-3.3-3-4.1-5s-1.1-4.3-.6-6.5,1.5-4.2,3.1-5.7,3.6-2.6,5.7-3.1c2.2-.4,4.4-.2,6.5.6,2,.9,3.8,2.3,5,4.1,1.2,1.8,1.9,4,1.9,6.2s-1.2,5.8-3.3,7.9c-2.1,2.1-5,3.3-7.9,3.3h0ZM382.8,221.6c-1.2,0-2.4.4-3.4,1-1,.7-1.8,1.6-2.3,2.8-.5,1.1-.6,2.4-.4,3.6s.8,2.3,1.7,3.1,2,1.4,3.1,1.7c1.2.2,2.4.1,3.5-.4,1.1-.5,2.1-1.2,2.8-2.3s1-2.2,1-3.4-.6-3.2-1.8-4.3c-1.1-1.1-2.7-1.8-4.3-1.8h0Z"/>
        <path class="st26" d="M415.7,215.1c4.8,0,8.7-3.9,8.7-8.7s-3.9-8.7-8.7-8.7-8.7,3.9-8.7,8.7,3.9,8.7,8.7,8.7Z"/>
        <path d="M415.7,217.6c-2.2,0-4.4-.7-6.2-1.9-1.9-1.2-3.3-3-4.1-5s-1.1-4.3-.6-6.5c.4-2.2,1.5-4.2,3.1-5.7s3.6-2.6,5.7-3.1c2.2-.4,4.4-.2,6.5.6,2,.9,3.8,2.3,5,4.1,1.2,1.9,1.9,4,1.9,6.2s-1.2,5.8-3.3,7.9c-2.1,2.1-5,3.3-7.9,3.3h0ZM415.7,200.3c-1.2,0-2.4.4-3.4,1-1,.7-1.8,1.6-2.3,2.8-.5,1.1-.6,2.4-.4,3.6.2,1.2.8,2.3,1.7,3.1s2,1.4,3.1,1.7c1.2.2,2.4.1,3.5-.4,1.1-.5,2.1-1.2,2.8-2.3s1-2.2,1-3.4-.6-3.2-1.8-4.3-2.7-1.8-4.3-1.8h0Z"/>
        <path class="st26" d="M446.7,196.2c4.8,0,8.7-3.9,8.7-8.7s-3.9-8.7-8.7-8.7-8.7,3.9-8.7,8.7,3.9,8.7,8.7,8.7Z"/>
        <path d="M446.7,198.8c-2.2,0-4.4-.7-6.2-1.9-1.9-1.2-3.3-3-4.1-5s-1.1-4.3-.6-6.5,1.5-4.2,3.1-5.7,3.6-2.6,5.7-3.1c2.2-.4,4.4-.2,6.5.6,2,.9,3.8,2.3,5,4.1,1.2,1.9,1.9,4,1.9,6.2s-1.2,5.8-3.3,7.9c-2.1,2.1-5,3.3-7.9,3.3h0ZM446.7,181.4c-1.2,0-2.4.4-3.4,1-1,.7-1.8,1.6-2.3,2.8-.5,1.1-.6,2.4-.4,3.6s.8,2.3,1.7,3.1,2,1.4,3.1,1.7c1.2.2,2.4.1,3.5-.4,1.1-.5,2.1-1.2,2.8-2.3.7-1,1-2.2,1-3.4s-.6-3.2-1.8-4.3-2.7-1.8-4.3-1.8h0Z"/>
        <path d="M380.9,194.2c-8,0-16.8-1.7-18.2-1.9-.3,0-.6-.2-.9-.4-.3-.2-.5-.4-.7-.7s-.3-.6-.4-.9,0-.7,0-1,.2-.6.4-.9c.2-.3.4-.5.7-.7.3-.2.6-.3.9-.4s.7,0,1,0c5,1,19.2,3.1,24.9.9,1.8-.7,6.3-5,6.5-8.4,0-.9-.2-2.2-2.4-3.3-2.6-1.3-8.9-2.6-16.1-2.6-7.5,0-13.4,1.4-16,3.8-4.7,4.4-15.3,11.8-33.4,12.5-23.7,1-31.7-14.4-32-15.1-.3-.6-.3-1.3-.1-1.9s.7-1.1,1.3-1.4,1.3-.4,1.9-.1c.6.2,1.2.6,1.5,1.2.3.6,7,13.1,27.3,12.3,17.1-.7,26.7-8,30.1-11.2,4.9-4.6,14.3-5.2,19.5-5.2,7.2,0,14.6,1.3,18.3,3.2,4.8,2.4,5.3,6.1,5.2,8.1-.3,5.8-6.5,11.7-9.7,12.9-2.5.9-5.9,1.3-9.5,1.3h0Z"/>
        <path d="M133.1,188.3c-.3,0-.5,0-.8-.1-14.8-4.6-24.9-11.3-33.6-22.3-5.9-7.3-8.8-24.3-10.6-34.5-.5-2.9-1-5.6-1.3-6.5-.5-1.6-6.7-5.7-13.2-8.8-.3-.1-.6-.3-.8-.6-.2-.2-.4-.5-.5-.8-.1-.3-.2-.7-.2-1,0-.3,0-.7.2-1,.1-.3.3-.6.6-.8s.5-.4.8-.5c.3-.1.7-.2,1-.2.3,0,.7,0,1,.2,3.3,1.6,14.3,7,15.9,11.8.4,1.2.8,3.6,1.4,7.2,1.6,9,4.5,25.9,9.5,32.2,8.1,10.1,17.4,16.3,31.2,20.6.6.2,1.1.6,1.4,1.1.3.5.4,1.1.4,1.7,0,.6-.4,1.1-.9,1.5-.5.4-1.1.6-1.7.6h0Z"/>
        <path class="st20" d="M168.7,72.1l-12.3-50.6c-.6-2.4-1.7-4.6-3.1-6.6-1.5-1.9-3.4-3.6-5.5-4.7-4.4-2.5-9.6-3.2-14.6-1.9L41.2,30.6c-4.9,1.2-9.2,4.2-12,8.4-1.4,2-2.3,4.3-2.7,6.8-.4,2.4-.4,4.9.2,7.3,0,0,14.5,59.6,14.6,59.7l14.7,32.2c.2.7.7,1.3,1.3,1.7.6.4,1.3.7,2.1.6h0c.8,0,1.6-.3,2.3-.8s1.1-1.3,1.2-2.1c0,0,0-.2,0-.2l3.1-25.7c.2-.9.7-1.7,1.4-2.3.7-.6,1.5-1.1,2.3-1.2l36.6-8.9c1.2-6.5,4.3-19.4,10.4-20.4,5.6-.9,8.8,2.8,10.3,5.2.7,1.2.9,2.6.6,3.9-.4,1.4-.9,3.7-1.5,6.4l28.1-6.8c4.9-1.2,9.2-4.2,12.1-8.4,1.4-2,2.3-4.3,2.7-6.8.4-2.4.4-4.9-.2-7.3h0Z"/>
        <path d="M43.1,54.5c-.6,0-1.2-.2-1.7-.6s-.8-1-.8-1.6c0-.6,0-1.2.4-1.8s.9-.9,1.5-1l81.7-20.1c.7-.2,1.3,0,1.9.3.6.4,1,.9,1.2,1.6.2.6,0,1.3-.3,1.9-.3.6-.9,1-1.6,1.2l-81.7,20.1c-.2,0-.4,0-.6,0h0Z"/>
        <path d="M47.2,74.6c-.6,0-1.2-.2-1.7-.6-.5-.4-.8-1-.8-1.6,0-.6,0-1.2.4-1.8.3-.5.9-.9,1.5-1l50.5-12.6c.3,0,.7-.1,1,0,.3,0,.7.2.9.3s.5.4.7.7c.2.3.3.6.4.9,0,.3,0,.7,0,1,0,.3-.2.7-.3.9-.2.3-.4.5-.7.7-.3.2-.6.3-.9.4l-50.5,12.6c-.2,0-.4,0-.6,0Z"/>
        <path d="M49.8,92.7c-.6,0-1.2-.2-1.7-.6-.5-.4-.8-1-.8-1.6,0-.6,0-1.2.4-1.8.4-.5.9-.9,1.5-1l81.4-19.5c.7-.2,1.4,0,1.9.3.6.3,1,.9,1.1,1.6.2.7,0,1.3-.3,1.9-.4.6-.9,1-1.6,1.1l-81.4,19.5c-.2,0-.4,0-.6,0Z"/>
        <path d="M133.1,157.2c-.6,0-1.1-.2-1.6-.6-.5-.4-13.3-10.9-13.3-23s5.3-32.6,6.9-39.4c.2-.7,0-1.4-.3-2-2-3.2-4.6-4.6-7.7-4.1-4.3.7-7.8,13.6-8.8,22,0,.7-.4,1.3-.9,1.7-.5.4-1.2.6-1.9.5-.7,0-1.3-.4-1.7-.9-.4-.5-.6-1.2-.5-1.9.5-4.1,1.4-8.1,2.5-12,2.6-8.9,6.1-13.7,10.6-14.4,5.2-.9,9.9,1.5,12.9,6.4.5.9.9,1.8,1.1,2.8s.1,2-.1,3c-1.6,6.7-6.8,29.2-6.8,38.2s11.3,18.9,11.4,19c.4.3.7.8.8,1.3.1.5.1,1,0,1.5-.2.5-.5.9-.9,1.2s-.9.5-1.5.5h0Z"/>
      </g>
      <g>
        <g class="st52">
          <rect class="st1" x="68.9" y="283.7" width="5.2" height="32.6"/>
          <rect class="st1" x="74.1" y="283.7" width=".8" height="32.6"/>
          <rect class="st28" x="74.9" y="283.7" width=".8" height="32.6"/>
          <rect class="st34" x="75.6" y="283.7" width=".8" height="32.6"/>
          <rect class="st41" x="76.4" y="283.7" width=".8" height="32.6"/>
          <rect class="st57" x="77.1" y="283.7" width=".8" height="32.6"/>
          <rect class="st37" x="77.9" y="283.7" width=".8" height="32.6"/>
          <rect class="st29" x="78.6" y="283.7" width=".8" height="32.6"/>
          <rect class="st21" x="79.4" y="283.7" width=".8" height="32.6"/>
          <rect class="st54" x="80.1" y="283.7" width=".8" height="32.6"/>
          <rect class="st6" x="80.9" y="283.7" width=".8" height="32.6"/>
          <rect class="st32" x="81.6" y="283.7" width=".8" height="32.6"/>
          <rect class="st8" x="82.4" y="283.7" width=".8" height="32.6"/>
          <rect class="st36" x="83.2" y="283.7" width=".8" height="32.6"/>
          <rect class="st36" x="83.9" y="283.7" width=".5" height="32.6"/>
          <rect class="st13" x="84.4" y="283.7" width=".5" height="32.6"/>
          <rect class="st12" x="85" y="283.7" width=".5" height="32.6"/>
          <rect class="st33" x="85.5" y="283.7" width=".5" height="32.6"/>
          <rect class="st27" x="86" y="283.7" width=".5" height="32.6"/>
          <rect class="st45" x="86.6" y="283.7" width=".5" height="32.6"/>
          <rect class="st2" x="87.1" y="283.7" width=".5" height="32.6"/>
          <rect class="st49" x="87.6" y="283.7" width=".5" height="32.6"/>
          <rect class="st5" x="88.2" y="283.7" width=".5" height="32.6"/>
          <rect class="st7" x="88.7" y="283.7" width=".5" height="32.6"/>
          <rect class="st43" x="89.2" y="283.7" width=".5" height="32.6"/>
          <rect class="st55" x="89.8" y="283.7" width=".5" height="32.6"/>
          <rect class="st35" x="90.3" y="283.7" width=".5" height="32.6"/>
          <rect class="st31" x="90.8" y="283.7" width=".5" height="32.6"/>
          <rect class="st53" x="91.4" y="283.7" width=".5" height="32.6"/>
          <rect class="st40" x="91.9" y="283.7" width=".5" height="32.6"/>
          <rect class="st11" x="92.4" y="283.7" width=".5" height="32.6"/>
          <rect class="st39" x="93" y="283.7" width=".5" height="32.6"/>
          <rect class="st4" x="93.5" y="283.7" width=".5" height="32.6"/>
          <rect class="st47" x="94" y="283.7" width=".5" height="32.6"/>
          <rect class="st24" x="94.6" y="283.7" width=".5" height="32.6"/>
          <rect class="st25" x="95.1" y="283.7" width=".5" height="32.6"/>
          <rect class="st30" x="95.6" y="283.7" width=".5" height="32.6"/>
          <rect class="st9" x="96.2" y="283.7" width=".5" height="32.6"/>
          <rect class="st23" x="96.7" y="283.7" width=".5" height="32.6"/>
          <rect class="st38" x="97.2" y="283.7" width=".5" height="32.6"/>
          <rect class="st48" x="97.8" y="283.7" width=".5" height="32.6"/>
          <rect class="st19" x="98.3" y="283.7" width=".5" height="32.6"/>
          <rect class="st50" x="98.8" y="283.7" width=".5" height="32.6"/>
          <rect class="st3" x="99.4" y="283.7" width=".5" height="32.6"/>
          <rect class="st16" x="99.9" y="283.7" width=".5" height="32.6"/>
          <rect class="st56" x="100.4" y="283.7" width=".5" height="32.6"/>
          <rect class="st14" x="101" y="283.7" width=".5" height="32.6"/>
          <path class="st14" d="M101.5,316.3v-32.6,32.6Z"/>
        </g>
        <path d="M85.2,317.2l-7-10.2-10.2-7,10.2-7,7-10.2,7,10.2,10.2,6.9-10.2,7-7,10.2ZM69.8,300l9.2,6.3,6.2,9.1,6.3-9.2,9.1-6.2-9.2-6.3-6.3-9.1-6.3,9.2-9.1,6.2Z"/>
      </g>
      <g>
        <g class="st22">
          <rect class="st1" x="321.9" y=".9" width="8.3" height="52"/>
          <rect class="st1" x="330.2" y=".9" width="1.2" height="52"/>
          <rect class="st28" x="331.4" y=".9" width="1.2" height="52"/>
          <rect class="st34" x="332.6" y=".9" width="1.2" height="52"/>
          <rect class="st41" x="333.8" y=".9" width="1.2" height="52"/>
          <rect class="st57" x="335" y=".9" width="1.2" height="52"/>
          <rect class="st37" x="336.2" y=".9" width="1.2" height="52"/>
          <rect class="st29" x="337.4" y=".9" width="1.2" height="52"/>
          <rect class="st21" x="338.6" y=".9" width="1.2" height="52"/>
          <rect class="st54" x="339.8" y=".9" width="1.2" height="52"/>
          <rect class="st6" x="341" y=".9" width="1.2" height="52"/>
          <rect class="st32" x="342.2" y=".9" width="1.2" height="52"/>
          <rect class="st8" x="343.4" y=".9" width="1.2" height="52"/>
          <rect class="st36" x="344.6" y=".9" width="1.2" height="52"/>
          <rect class="st36" x="345.8" y=".9" width=".9" height="52"/>
          <rect class="st13" x="346.7" y=".9" width=".9" height="52"/>
          <rect class="st12" x="347.5" y=".9" width=".9" height="52"/>
          <rect class="st33" x="348.4" y=".9" width=".9" height="52"/>
          <rect class="st27" x="349.2" y=".9" width=".9" height="52"/>
          <rect class="st45" x="350.1" y=".9" width=".9" height="52"/>
          <rect class="st2" x="350.9" y=".9" width=".9" height="52"/>
          <rect class="st49" x="351.8" y=".9" width=".9" height="52"/>
          <rect class="st5" x="352.6" y=".9" width=".9" height="52"/>
          <rect class="st7" x="353.5" y=".9" width=".9" height="52"/>
          <rect class="st43" x="354.3" y=".9" width=".9" height="52"/>
          <rect class="st55" x="355.2" y=".9" width=".9" height="52"/>
          <rect class="st35" x="356" y=".9" width=".9" height="52"/>
          <rect class="st31" x="356.9" y=".9" width=".9" height="52"/>
          <rect class="st53" x="357.7" y=".9" width=".9" height="52"/>
          <rect class="st40" x="358.6" y=".9" width=".9" height="52"/>
          <rect class="st11" x="359.4" y=".9" width=".9" height="52"/>
          <rect class="st39" x="360.3" y=".9" width=".9" height="52"/>
          <rect class="st4" x="361.1" y=".9" width=".9" height="52"/>
          <rect class="st47" x="362" y=".9" width=".9" height="52"/>
          <rect class="st24" x="362.8" y=".9" width=".9" height="52"/>
          <rect class="st25" x="363.7" y=".9" width=".9" height="52"/>
          <rect class="st30" x="364.5" y=".9" width=".9" height="52"/>
          <rect class="st9" x="365.4" y=".9" width=".9" height="52"/>
          <rect class="st23" x="366.2" y=".9" width=".9" height="52"/>
          <rect class="st38" x="367.1" y=".9" width=".9" height="52"/>
          <rect class="st48" x="367.9" y=".9" width=".9" height="52"/>
          <rect class="st19" x="368.8" y=".9" width=".9" height="52"/>
          <rect class="st50" x="369.6" y=".9" width=".9" height="52"/>
          <rect class="st3" x="370.5" y=".9" width=".9" height="52"/>
          <rect class="st16" x="371.3" y=".9" width=".9" height="52"/>
          <rect class="st56" x="372.2" y=".9" width=".9" height="52"/>
          <rect class="st14" x="373" y=".9" width=".9" height="52"/>
          <path class="st14" d="M373.9,52.9V.9v52Z"/>
        </g>
        <path d="M347.9,53.8l-10.9-16-16-10.9,16-10.9L347.9,0l11,16,15.9,10.9-16,10.9-10.9,16ZM322.8,26.9l15,10.3,10.1,14.8,10.3-15,14.8-10.2-14.9-10.2-10.2-14.9-10.3,15-14.8,10.2Z"/>
      </g>
      <rect x="212.7" y="65.7" width="5" height="28.5"/>
      <path d="M215.2,67.8c-6.1,0-11-4.9-11-11s4.9-11,11-11,11,4.9,11,11-4.9,11-11,11ZM215.2,50.9c-3.3,0-6,2.7-6,6s2.7,6,6,6,6-2.7,6-6-2.7-6-6-6Z"/>
      <path d="M188,164.5c-5.5,0-10-4.5-10-10s4.5-10,10-10,10,4.5,10,10-4.5,10-10,10ZM188,147.5c-3.8,0-7,3.1-7,7s3.1,7,7,7,7-3.1,7-7-3.1-7-7-7Z"/>
      <path d="M237.3,164.5c-5.5,0-10-4.5-10-10s4.5-10,10-10,10,4.5,10,10-4.5,10-10,10ZM237.3,147.5c-3.8,0-7,3.1-7,7s3.1,7,7,7,7-3.1,7-7-3.1-7-7-7Z"/>
      <path d="M239.1,199.2h-50.2c-5.4,0-9.8-4.4-9.8-9.8v-4.9c0-2.8,1.1-5.2,3.1-6.5,2-1.4,4.5-1.6,7.2-.6,15.8,6,33.3,6,49.1,0,2.7-1,5.2-.8,7.2.6,2,1.4,3.1,3.7,3.1,6.5v4.9c0,5.4-4.4,9.8-9.8,9.8ZM186.2,179.8c-.9,0-1.6.2-2.3.7-1.1.8-1.8,2.2-1.8,4.1v4.9c0,3.7,3,6.8,6.8,6.8h50.2c3.7,0,6.8-3,6.8-6.8v-4.9c0-1.8-.6-3.3-1.8-4.1-1.1-.8-2.7-.9-4.4-.2-16.5,6.2-34.7,6.2-51.2,0-.8-.3-1.5-.4-2.2-.4Z"/>
    </g>
  </g>
</svg>