<?xml version="1.0" encoding="UTF-8"?>
<svg id="Layer_2" xmlns="http://www.w3.org/2000/svg" version="1.1" viewBox="0 0 359.4 271">
  <!-- Generator: Adobe Illustrator 29.5.1, SVG Export Plug-In . SVG Version: 2.1.0 Build 141)  -->
  <defs>
    <style>
      .st0 {
        fill: #ffbd00;
      }

      .st1 {
        fill: #b28769;
      }

      .st2 {
        fill: #754e27;
      }

      .st3 {
        fill: #3e4347;
      }

      .st4 {
        isolation: isolate;
      }

      .st5 {
        fill: #fff;
      }

      .st6 {
        fill: #428bc1;
      }

      .st7 {
        fill: #ed4c5c;
      }

      .st8 {
        fill: #f2b200;
      }

      .st9 {
        fill: #c94747;
      }
    </style>
  </defs>
  <g id="Layer_1-2">
    <path class="st0" d="M72.4,205.1c55.2-4.4,110.6-8.7,165.9-5.3,6.8.4,6.7-10.1,0-10.5-55.4-3.4-110.7,1-165.9,5.3-6.7.5-6.8,11,0,10.5h0Z"/>
    <g>
      <path class="st5" d="M327.8,174.6c5.5-5.3,4.6-15-1.9-21.7s-16.2-7.8-21.7-2.4-4.6,15,1.9,21.7c6.5,6.7,16.2,7.8,21.7,2.4Z"/>
      <path class="st7" d="M318.9,163.3c.7-.7.5-2-.5-3-1-1-2.3-1.2-3-.6s-.5,2,.5,3c1,1,2.3,1.2,3,.6Z"/>
      <path class="st6" d="M312.6,157.2c-2,2-1.7,5.6.7,8.1,2.4,2.5,6,2.9,8,.9.4-.4.8-.9,1-1.5.6-2,0-4.6-1.8-6.4-1.8-1.9-4.3-2.6-6.4-2-.6.2-1.1.5-1.5.9h0ZM320.7,153.7c.3.2.5.3.8.5.1,0,.2.2.3.3.2.1.3.3.5.4.3.2.5.5.8.7s.5.5.7.8c.1.2.3.3.4.5,0,.1.2.2.2.3.2.3.4.6.5.8,0,0,0,0,0,0,2.3,4,2.1,8.8-.8,11.7-3.6,3.5-10,2.9-14.1-1.4-4.2-4.3-4.7-10.7-1.1-14.2,3-2.9,7.7-3,11.7-.6,0,0,0,0,0,0h0Z"/>
      <path class="st3" d="M306.4,151.7c-4.7,4.6-4,12.9,1.6,18.7,5.6,5.7,13.9,6.7,18.6,2.1,1.9-1.8,2.9-4.3,3.1-6.9.2-4-1.5-8.3-4.8-11.7s-7.6-5.1-11.5-5.1c-2.7.1-5.1,1-7,2.9h0ZM327.5,151.4c.2.2.4.5.7.7,6.8,7.5,7.4,18.2,1.4,24.1-6.3,6.1-17.3,4.9-24.7-2.6-7.4-7.6-8.3-18.7-2-24.8,6.1-5.9,16.7-5,24,2,.2.2.5.4.7.7h0Z"/>
      <rect class="st5" x="317.4" y="154" width="11.6" height="3.3" transform="translate(-16.8 269.9) rotate(-44.3)"/>
      <polygon class="st8" points="322.9 152.3 326.6 141 330.8 147.3 323.2 154.8 322.9 152.3"/>
      <polygon class="st9" points="324.3 148.1 323.8 149.6 324.9 153.5 325.8 152.5 324.3 148.1"/>
      <polygon class="st9" points="325.7 143.8 325.2 145.2 327.8 150.6 328.7 149.7 325.7 143.8"/>
      <polygon class="st8" points="326.5 156 337.9 152.6 331.6 148.2 324 155.6 326.5 156"/>
      <polygon class="st9" points="330.7 154.7 329.2 155.2 325.4 154 326.3 153.1 330.7 154.7"/>
      <polygon class="st9" points="335.1 153.4 333.6 153.9 328.3 151.2 329.2 150.2 335.1 153.4"/>
      <path class="st2" d="M332,148.2c-1.1,1-12.4,12.1-13.9,13.5,0,0-.2.2-.3.3-.4.4-1.6-.8-1.2-1.2,1.1-1,12.4-12.1,13.9-13.5,0,0,.2-.2.3-.3.4-.4,1.6.8,1.2,1.2h0Z"/>
      <path class="st1" d="M331.4,148.2c-1,1-11.9,11.6-13.3,13,0,0-.2.2-.2.2-.4.4-1-.3-.6-.7,1-1,11.9-11.6,13.3-13,0,0,.2-.2.2-.2.4-.4,1,.3.6.7Z"/>
    </g>
    <g class="st4">
      <g class="st4">
        <path d="M48.8,11.6h8.2c4.5,0,7.7.4,9.6,1.2s3.5,2.1,4.6,4c1.2,1.9,1.7,4.1,1.7,6.6s-.6,4.9-1.9,6.7c-1.3,1.8-3.2,3.2-5.8,4.1l9.7,18.2h-8.5l-9.2-17.3h-.7v17.3h-7.8V11.6ZM56.6,27.6h2.4c2.5,0,4.2-.3,5.1-1,.9-.6,1.4-1.7,1.4-3.2s-.2-1.7-.7-2.3c-.5-.7-1.1-1.1-1.9-1.4-.8-.3-2.2-.4-4.3-.4h-2.1v8.4Z"/>
        <path d="M110.7,39.6h-24.4c.4,2.1,1.3,3.9,2.8,5.1,1.5,1.3,3.5,1.9,5.8,1.9s5.3-1,7.3-3l6.4,3c-1.6,2.3-3.5,3.9-5.7,5-2.2,1.1-4.9,1.6-7.9,1.6-4.7,0-8.6-1.5-11.6-4.5-3-3-4.5-6.7-4.5-11.2s1.5-8.4,4.5-11.5c3-3,6.7-4.6,11.2-4.6s8.6,1.5,11.6,4.6c3,3,4.5,7.1,4.5,12.1v1.4ZM103.1,33.6c-.5-1.7-1.5-3.1-3-4.1-1.5-1.1-3.2-1.6-5.1-1.6s-4,.6-5.6,1.8c-1,.7-1.9,2-2.8,3.9h16.4Z"/>
        <path d="M139.2,22.3h7.6v30.2h-7.6v-3.2c-1.5,1.4-3,2.4-4.5,3-1.5.6-3.1.9-4.8.9-3.9,0-7.3-1.5-10.1-4.5s-4.3-6.8-4.3-11.3,1.4-8.5,4.1-11.5c2.8-3,6.1-4.5,10-4.5s3.5.3,5.1,1c1.6.7,3.1,1.7,4.4,3.1v-3.3ZM131.2,28.5c-2.3,0-4.3.8-5.8,2.5-1.6,1.7-2.3,3.8-2.3,6.4s.8,4.8,2.4,6.4c1.6,1.7,3.5,2.5,5.8,2.5s4.4-.8,5.9-2.5,2.4-3.8,2.4-6.5-.8-4.8-2.4-6.4c-1.6-1.6-3.6-2.4-6-2.4Z"/>
        <path d="M153.6,10.6h7.6v41.9h-7.6V10.6Z"/>
        <path d="M169.1,33.9h14.1v7.1h-14.1v-7.1Z"/>
        <path d="M192.8,11.1h7.6v11.1h4.5v6.5h-4.5v23.7h-7.6v-23.7h-3.9v-6.5h3.9v-11.1Z"/>
        <path d="M211.9,9.8c1.3,0,2.5.5,3.4,1.4,1,1,1.4,2.1,1.4,3.5s-.5,2.5-1.4,3.5c-.9,1-2.1,1.4-3.4,1.4s-2.5-.5-3.4-1.5c-1-1-1.4-2.2-1.4-3.5s.5-2.5,1.4-3.4,2.1-1.4,3.4-1.4ZM208.2,22.3h7.6v30.2h-7.6v-30.2Z"/>
        <path d="M222.6,22.3h7.6v3.5c1.3-1.4,2.7-2.5,4.3-3.2,1.6-.7,3.3-1.1,5.2-1.1s3.6.5,5.1,1.4,2.7,2.3,3.7,4.1c1.2-1.8,2.7-3.1,4.4-4.1s3.7-1.4,5.7-1.4,4,.5,5.7,1.5c1.6,1,2.8,2.3,3.5,3.9.7,1.6,1.1,4.2,1.1,7.9v17.7h-7.6v-15.3c0-3.4-.4-5.7-1.3-7s-2.1-1.8-3.8-1.8-2.5.4-3.5,1.1-1.8,1.8-2.3,3.1c-.5,1.3-.8,3.4-.8,6.3v13.6h-7.6v-14.6c0-2.7-.2-4.7-.6-5.9-.4-1.2-1-2.1-1.8-2.7-.8-.6-1.8-.9-2.9-.9s-2.4.4-3.4,1.1-1.8,1.8-2.3,3.2c-.5,1.4-.8,3.5-.8,6.4v13.4h-7.6v-30.2Z"/>
        <path d="M306.4,39.6h-24.4c.4,2.1,1.3,3.9,2.8,5.1,1.5,1.3,3.5,1.9,5.8,1.9s5.3-1,7.3-3l6.4,3c-1.6,2.3-3.5,3.9-5.7,5-2.2,1.1-4.9,1.6-7.9,1.6-4.7,0-8.6-1.5-11.6-4.5-3-3-4.5-6.7-4.5-11.2s1.5-8.4,4.5-11.5c3-3,6.7-4.6,11.2-4.6s8.6,1.5,11.6,4.6c3,3,4.5,7.1,4.5,12.1v1.4ZM298.8,33.6c-.5-1.7-1.5-3.1-3-4.1-1.5-1.1-3.2-1.6-5.1-1.6s-4,.6-5.6,1.8c-1,.7-1.9,2-2.8,3.9h16.4Z"/>
      </g>
      <g class="st4">
        <path d="M38.6,80.8l-5.4,5.2c-3.7-3.9-7.9-5.9-12.5-5.9s-7.2,1.3-9.9,4-4,6-4,9.9.6,5.1,1.8,7.3c1.2,2.1,2.9,3.8,5,5,2.2,1.2,4.6,1.8,7.2,1.8s4.3-.4,6.2-1.3c1.9-.8,3.9-2.4,6.2-4.6l5.3,5.5c-3,2.9-5.9,5-8.6,6.1-2.7,1.1-5.7,1.7-9.2,1.7-6.4,0-11.5-2-15.6-6-4-4-6.1-9.2-6.1-15.5s.9-7.7,2.8-10.9,4.5-5.7,7.9-7.6c3.4-1.9,7.1-2.9,11.1-2.9s6.6.7,9.7,2.1c3.1,1.4,5.8,3.4,8.1,6.1Z"/>
        <path d="M44.6,72.6h7.5v14.7c1.5-1.3,3-2.2,4.5-2.9,1.5-.6,3-1,4.6-1,3,0,5.5,1,7.6,3.1,1.8,1.8,2.6,4.4,2.6,7.9v20h-7.5v-13.2c0-3.5-.2-5.9-.5-7.1-.3-1.2-.9-2.2-1.7-2.8-.8-.6-1.8-.9-3-.9s-2.9.5-4,1.5c-1.1,1-1.9,2.4-2.3,4.2-.2.9-.3,3-.3,6.2v12.1h-7.5v-41.9Z"/>
        <path d="M101,84.2h7.6v30.2h-7.6v-3.2c-1.5,1.4-3,2.4-4.5,3-1.5.6-3.1.9-4.8.9-3.9,0-7.3-1.5-10.1-4.5s-4.3-6.8-4.3-11.3,1.4-8.5,4.1-11.5c2.8-3,6.1-4.5,10-4.5s3.5.3,5.1,1c1.6.7,3.1,1.7,4.4,3.1v-3.3ZM93.1,90.5c-2.3,0-4.3.8-5.8,2.5-1.6,1.7-2.3,3.8-2.3,6.4s.8,4.8,2.4,6.4c1.6,1.7,3.5,2.5,5.8,2.5s4.4-.8,5.9-2.5,2.4-3.8,2.4-6.5-.8-4.8-2.4-6.4c-1.6-1.6-3.6-2.4-6-2.4Z"/>
        <path d="M117.2,73.1h7.6v11.1h4.5v6.5h-4.5v23.7h-7.6v-23.7h-3.9v-6.5h3.9v-11.1Z"/>
        <path d="M171.5,79.2l-5.8,5.1c-2-2.8-4.1-4.2-6.2-4.2s-1.9.3-2.5.8c-.6.5-1,1.2-1,1.8s.2,1.3.7,1.9c.6.8,2.5,2.6,5.7,5.2,3,2.5,4.8,4,5.4,4.7,1.6,1.6,2.7,3.1,3.4,4.6.7,1.5,1,3,1,4.8,0,3.4-1.2,6.1-3.5,8.3-2.3,2.2-5.3,3.3-9.1,3.3s-5.4-.7-7.6-2.1c-2.2-1.4-4-3.7-5.5-6.7l6.5-3.9c2,3.6,4.2,5.4,6.8,5.4s2.5-.4,3.4-1.2c.9-.8,1.4-1.7,1.4-2.7s-.3-1.9-1-2.8c-.7-.9-2.2-2.3-4.5-4.2-4.5-3.6-7.3-6.4-8.6-8.4-1.3-2-1.9-3.9-1.9-5.9,0-2.8,1.1-5.3,3.2-7.3s4.8-3,8-3,4,.5,5.8,1.4c1.8.9,3.8,2.7,6,5.2Z"/>
        <path d="M178.8,84.2h7.7v14.6c0,2.8.2,4.8.6,5.9.4,1.1,1,2,1.9,2.6.9.6,1.9.9,3.2.9s2.3-.3,3.2-.9c.9-.6,1.5-1.5,2-2.7.3-.9.5-2.7.5-5.6v-14.8h7.6v12.8c0,5.3-.4,8.9-1.2,10.8-1,2.4-2.5,4.2-4.5,5.5-2,1.3-4.5,1.9-7.6,1.9s-6-.7-8-2.2c-2-1.5-3.5-3.5-4.3-6.2-.6-1.8-.9-5.2-.9-10v-12.6Z"/>
        <path d="M220.5,84.2v3.3c1.4-1.4,2.9-2.4,4.4-3.1,1.6-.7,3.3-1,5.1-1,3.9,0,7.3,1.5,10.1,4.5s4.1,6.8,4.1,11.5-1.4,8.3-4.3,11.3-6.2,4.5-10.1,4.5-3.4-.3-4.9-.9c-1.5-.6-3-1.6-4.5-3v14.2h-7.5v-41.3h7.5ZM228.5,90.5c-2.4,0-4.4.8-5.9,2.4-1.6,1.6-2.4,3.8-2.4,6.4s.8,4.9,2.4,6.5c1.6,1.7,3.6,2.5,5.9,2.5s4.3-.8,5.8-2.5c1.6-1.7,2.4-3.8,2.4-6.4s-.8-4.7-2.3-6.4c-1.6-1.7-3.5-2.5-5.9-2.5Z"/>
        <path d="M258,84.2v3.3c1.4-1.4,2.9-2.4,4.4-3.1,1.6-.7,3.3-1,5.1-1,3.9,0,7.3,1.5,10.1,4.5s4.1,6.8,4.1,11.5-1.4,8.3-4.3,11.3-6.2,4.5-10.1,4.5-3.4-.3-4.9-.9c-1.5-.6-3-1.6-4.5-3v14.2h-7.5v-41.3h7.5ZM266,90.5c-2.4,0-4.4.8-5.9,2.4-1.6,1.6-2.4,3.8-2.4,6.4s.8,4.9,2.4,6.5c1.6,1.7,3.6,2.5,5.9,2.5s4.3-.8,5.8-2.5c1.6-1.7,2.4-3.8,2.4-6.4s-.8-4.7-2.3-6.4c-1.6-1.7-3.5-2.5-5.9-2.5Z"/>
        <path d="M302.2,83.5c2.9,0,5.5.7,8,2.1s4.5,3.4,5.9,5.8,2.1,5.1,2.1,7.9-.7,5.5-2.1,8-3.3,4.4-5.8,5.8c-2.4,1.4-5.1,2.1-8.1,2.1-4.3,0-8-1.5-11.1-4.6s-4.6-6.8-4.6-11.2,1.7-8.7,5.2-11.8c3-2.7,6.5-4.1,10.5-4.1ZM302.4,90.6c-2.4,0-4.3.8-5.9,2.5-1.6,1.6-2.4,3.7-2.4,6.3s.8,4.8,2.3,6.4,3.5,2.4,5.9,2.4,4.3-.8,5.9-2.5c1.6-1.6,2.4-3.8,2.4-6.4s-.8-4.7-2.3-6.3c-1.5-1.6-3.5-2.4-5.9-2.4Z"/>
        <path d="M322.7,84.2h6.5v3.8c.7-1.5,1.6-2.6,2.8-3.4,1.2-.8,2.4-1.2,3.8-1.2s2,.3,3.1.8l-2.4,6.5c-.9-.4-1.6-.7-2.2-.7-1.2,0-2.2.7-3,2.2-.8,1.4-1.2,4.3-1.2,8.5v1.5s0,12.2,0,12.2h-7.5v-30.2Z"/>
        <path d="M343.6,73.1h7.6v11.1h4.5v6.5h-4.5v23.7h-7.6v-23.7h-3.9v-6.5h3.9v-11.1Z"/>
      </g>
      <g class="st4">
        <path d="M82.8,146.2h7.6v30.2h-7.6v-3.2c-1.5,1.4-3,2.4-4.5,3-1.5.6-3.1.9-4.8.9-3.9,0-7.3-1.5-10.1-4.5s-4.3-6.8-4.3-11.3,1.4-8.5,4.1-11.5c2.8-3,6.1-4.5,10-4.5s3.5.3,5.1,1c1.6.7,3.1,1.7,4.4,3.1v-3.3ZM74.9,152.4c-2.3,0-4.3.8-5.8,2.5-1.6,1.7-2.3,3.8-2.3,6.4s.8,4.8,2.4,6.4c1.6,1.7,3.5,2.5,5.8,2.5s4.4-.8,5.9-2.5,2.4-3.8,2.4-6.5-.8-4.8-2.4-6.4c-1.6-1.6-3.6-2.4-6-2.4Z"/>
        <path d="M99,135.1h7.6v11.1h4.5v6.5h-4.5v23.7h-7.6v-23.7h-3.9v-6.5h3.9v-11.1Z"/>
        <path d="M129.7,135.6h24.7l-14.5,33.4h13.6v7.5h-25l14.5-33.2h-13.3v-7.7Z"/>
        <path d="M189.8,163.5h-24.4c.4,2.1,1.3,3.9,2.8,5.1,1.5,1.3,3.5,1.9,5.8,1.9s5.3-1,7.3-3l6.4,3c-1.6,2.3-3.5,3.9-5.7,5-2.2,1.1-4.9,1.6-7.9,1.6-4.7,0-8.6-1.5-11.6-4.5-3-3-4.5-6.7-4.5-11.2s1.5-8.4,4.5-11.5c3-3,6.7-4.6,11.2-4.6s8.6,1.5,11.6,4.6c3,3,4.5,7.1,4.5,12.1v1.4ZM182.2,157.5c-.5-1.7-1.5-3.1-3-4.1-1.5-1.1-3.2-1.6-5.1-1.6s-4,.6-5.6,1.8c-1,.7-1.9,2-2.8,3.9h16.4Z"/>
        <path d="M195.9,146.2h7.6v3.1c1.7-1.4,3.3-2.5,4.7-3,1.4-.6,2.8-.8,4.3-.8,3,0,5.5,1,7.6,3.1,1.8,1.8,2.6,4.4,2.6,7.9v20h-7.5v-13.2c0-3.6-.2-6-.5-7.2-.3-1.2-.9-2.1-1.7-2.7-.8-.6-1.8-.9-3-.9s-2.8.5-3.9,1.5c-1.1,1-1.9,2.4-2.3,4.3-.2.9-.3,3-.3,6.1v12.1h-7.6v-30.2Z"/>
        <path d="M259.6,152.3l-6.3,3.5c-1.2-1.2-2.4-2.1-3.5-2.6-1.2-.5-2.5-.7-4.1-.7-2.8,0-5.1.8-6.9,2.5s-2.6,3.9-2.6,6.5.8,4.7,2.5,6.3c1.7,1.6,3.9,2.4,6.6,2.4s6-1.2,7.9-3.5l6,4.1c-3.2,4.2-7.8,6.3-13.7,6.3s-9.5-1.6-12.5-4.7c-3-3.1-4.5-6.8-4.5-11.1s.7-5.6,2.2-8.1c1.5-2.5,3.5-4.4,6.1-5.8,2.6-1.4,5.6-2.1,8.8-2.1s5.7.6,8.1,1.8,4.3,2.9,5.9,5.1Z"/>
        <path d="M263.1,146.2h7.7l7.8,19,8.7-19h7.8l-18.9,41.3h-7.8l6.2-13.3-11.5-28Z"/>
      </g>
    </g>
    <g class="st4">
      <g class="st4">
        <path d="M96.1,259h.3c.4,0,.5,0,.6-.4l4.3-11.7h2l4.3,11.7c.1.4.3.4.6.4h.3v1.7h-1.1c-1,0-1.3-.2-1.6-1.1l-1-2.8h-5.1l-1,2.8c-.3.9-.6,1.1-1.6,1.1h-1.1v-1.7ZM104.4,255.1l-1.5-4.2c-.3-.7-.5-1.9-.5-1.9h0s-.3,1.2-.5,1.9l-1.5,4.2h4.1Z"/>
        <path d="M110.7,249.1c-.1-.4-.3-.4-.6-.4h-.3v-1.7h1.1c1,0,1.3.2,1.6,1.1l3,8.5c.3.7.5,1.9.5,1.9h0s.3-1.2.5-1.9l3-8.5c.3-.9.6-1.1,1.6-1.1h1.1v1.7h-.3c-.4,0-.5,0-.6.4l-4.3,11.7h-2.1l-4.3-11.7Z"/>
      </g>
      <g class="st4">
        <path d="M124.7,259h.3c.4,0,.5,0,.6-.4l4.3-11.7h2l4.3,11.7c.1.4.3.4.6.4h.3v1.7h-1.1c-1,0-1.3-.2-1.6-1.1l-1-2.8h-5.1l-1,2.8c-.3.9-.6,1.1-1.6,1.1h-1.1v-1.7ZM133,255.1l-1.5-4.2c-.3-.7-.5-1.9-.5-1.9h0s-.3,1.2-.5,1.9l-1.5,4.2h4.1Z"/>
        <path d="M140.2,259h1.3v-10.4h-1.3v-1.7h4.5v1.7h-1.3v10.4h1.3v1.7h-4.5v-1.7Z"/>
      </g>
      <g class="st4">
        <path d="M149.5,249.1c0-.3-.2-.4-.4-.4h-.8v-1.7h2c.9,0,1.2.4,1.2,1.2v10.4c0,.3.2.4.4.4h3.8c.3,0,.4-.2.4-.4v-.9h1.8v1.7c0,.9-.4,1.2-1.2,1.2h-5.9c-.9,0-1.2-.4-1.2-1.2v-10.4Z"/>
      </g>
      <g class="st4">
        <path d="M160.5,259h.3c.4,0,.5,0,.6-.4l4.3-11.7h2l4.3,11.7c.1.4.3.4.6.4h.3v1.7h-1.1c-1,0-1.3-.2-1.6-1.1l-1-2.8h-5.1l-1,2.8c-.3.9-.6,1.1-1.6,1.1h-1.1v-1.7ZM168.8,255.1l-1.5-4.2c-.3-.7-.5-1.9-.5-1.9h0s-.3,1.2-.5,1.9l-1.5,4.2h4.1Z"/>
        <path d="M177.2,248.6h-1.3v-1.7h5.9c2.3,0,4,1.3,4,3.5s-.8,2.5-1.7,3h0c1.5.5,2.3,1.8,2.3,3.4,0,2.6-2,3.9-4.4,3.9h-3.5c-.9,0-1.2-.4-1.2-1.2v-10.8ZM181.8,252.7c1.2,0,2-.9,2-2.1s-.7-2-2-2h-2.7v4.1h2.7ZM179.5,259h2.5c1.5,0,2.3-.9,2.3-2.3s-.9-2.4-2.3-2.4h-2.9v4.3c0,.3.2.4.4.4Z"/>
      </g>
      <g class="st4">
        <path d="M191.2,249.1c0-.3-.2-.4-.4-.4h-.8v-1.7h2c.9,0,1.2.4,1.2,1.2v10.4c0,.3.2.4.4.4h3.8c.3,0,.4-.2.4-.4v-.9h1.8v1.7c0,.9-.4,1.2-1.2,1.2h-5.9c-.9,0-1.2-.4-1.2-1.2v-10.4Z"/>
      </g>
      <g class="st4">
        <path d="M203.1,248.6h-1.3v-1.7h8.1c.9,0,1.2.4,1.2,1.2v1.7h-1.8v-.9c0-.3-.2-.4-.4-.4h-3.9v4.3h4.8v1.7h-4.8v4c0,.3.2.4.4.4h4c.3,0,.4-.2.4-.4v-.9h1.8v1.7c0,.9-.4,1.2-1.2,1.2h-6.1c-.9,0-1.2-.4-1.2-1.2v-10.8Z"/>
      </g>
      <g class="st4">
        <path d="M229,250.7c0-1.3-.9-2.2-2.4-2.2s-2.1.6-2.1,1.3v.6h-1.8v-1.2c0-1.8,2.4-2.5,4-2.5,2.5,0,4.3,1.6,4.3,4,0,4.7-7,4.8-7,8s.2.4.5.4h4.9c.3,0,.4-.2.4-.4v-.9h1.8v1.7c0,.9-.4,1.2-1.2,1.2h-7.1c-1.1,0-1.3-.5-1.3-1.6,0-5.1,7-4.7,7-8.4Z"/>
      </g>
      <g class="st4">
        <path d="M234.4,255.8l6.2-8.9h2.2v8.4h2.1v1.7h-2.1v3.6h-2v-3.6h-6.5v-1.2ZM240.9,250.7c0-.6,0-1.4,0-1.4h0s-.4.7-.7,1.2l-3,4.1c-.4.5-.7.9-.7.9h0s.6,0,1.2,0h3.2v-4.7Z"/>
        <path d="M251.7,253.6l-2.8-4.5c-.3-.4-.5-.5-.9-.5h-.5v-1.7h1.2c.9,0,1.3.2,1.8,1.1l1.5,2.6c.4.8.9,1.6.9,1.6h0s.4-.9.8-1.6l1.6-2.6c.5-.9.9-1.1,1.9-1.1h1.1v1.7h-.5c-.4,0-.6,0-.9.5l-2.8,4.5,4.3,7.1h-2.2l-2.5-4.2c-.4-.8-.9-1.6-.9-1.6h0s-.4.8-.8,1.6l-2.5,4.2h-2.2l4.3-7.1Z"/>
        <path d="M267.8,249.9c.4-.8.8-1.3.8-1.3h0s-.3,0-1,0h-4.2c-.3,0-.4.1-.4.4v.9h-1.8v-1.7c0-.9.3-1.2,1.2-1.2h8.4v1.3l-6.7,12.4h-2.2l5.9-10.8Z"/>
      </g>
    </g>
  </g>
</svg>