<?xml version="1.0" encoding="UTF-8"?>
<svg id="Layer_2" data-name="Layer 2" xmlns="http://www.w3.org/2000/svg" xmlns:xlink="http://www.w3.org/1999/xlink" viewBox="0 0 488.68 317.16">
  <defs>
    <style>
      .cls-1 {
        fill: url(#linear-gradient-2);
      }

      .cls-1, .cls-2, .cls-3, .cls-4 {
        stroke: #000;
        stroke-miterlimit: 10;
      }

      .cls-5 {
        fill: #cf89ff;
      }

      .cls-2 {
        fill: url(#linear-gradient);
      }

      .cls-6 {
        fill: #fff;
      }

      .cls-3 {
        stroke-width: 5px;
      }

      .cls-3, .cls-4 {
        fill: none;
      }

      .cls-4 {
        stroke-width: 3px;
      }
    </style>
    <linearGradient id="linear-gradient" x1="68.91" y1="299.97" x2="101.51" y2="299.97" gradientUnits="userSpaceOnUse">
      <stop offset=".16" stop-color="#ffbd00"/>
      <stop offset=".46" stop-color="#fab10d"/>
      <stop offset="1" stop-color="#f1972e"/>
    </linearGradient>
    <linearGradient id="linear-gradient-2" x1="321.91" y1="26.88" x2="373.9" y2="26.88" xlink:href="#linear-gradient"/>
  </defs>
  <g id="Layer_1-2" data-name="Layer 1">
    <g>
      <g>
        <path d="M308.99,280.49h-82.79c-.67,0-1.32-.27-1.8-.74-.48-.48-.74-1.12-.74-1.79.01-11.08,4.42-21.71,12.26-29.55,7.84-7.84,18.46-12.25,29.55-12.26h4.26c11.08.01,21.71,4.42,29.55,12.26,7.84,7.84,12.24,18.46,12.26,29.55,0,.67-.27,1.32-.74,1.79-.48.48-1.12.74-1.8.74ZM228.83,275.41h77.54c-.65-9.27-4.79-17.96-11.59-24.3-6.8-6.35-15.74-9.88-25.04-9.89h-4.27c-9.3.01-18.25,3.54-25.04,9.89-6.8,6.34-10.94,15.03-11.59,24.3h0Z"/>
        <path d="M308.99,291.92h-82.79c-.67,0-1.32-.27-1.8-.74-.48-.48-.74-1.12-.74-1.8v-11.41c0-.67.27-1.32.74-1.79.48-.48,1.12-.74,1.8-.74h82.79c.67,0,1.32.27,1.8.74.48.48.74,1.12.74,1.79v11.41c0,.67-.27,1.32-.74,1.8-.48.48-1.12.74-1.8.74ZM228.74,286.84h77.71v-6.33h-77.71v6.33Z"/>
        <path d="M152.5,296.96c-3.89.01-7.73-.86-11.23-2.55-3.5-1.69-6.57-4.15-8.99-7.2l-23.62-29.92c-2.1-2.65-3.66-5.69-4.59-8.94-.93-3.25-1.2-6.66-.81-10.02.39-3.36,1.44-6.61,3.09-9.56,1.65-2.95,3.86-5.55,6.52-7.65,2.65-2.1,5.7-3.65,8.95-4.57,3.26-.92,6.66-1.19,10.02-.79,3.36.4,6.61,1.46,9.56,3.11,2.95,1.66,5.54,3.88,7.63,6.54l23.62,29.92c2.99,3.79,4.86,8.34,5.39,13.14.52,4.8-.31,9.65-2.41,14-2.11,4.35-5.39,8.01-9.48,10.58-4.09,2.57-8.82,3.93-13.65,3.93h0ZM128.82,220.69c-3.87,0-7.67,1.1-10.95,3.16-3.28,2.06-5.92,5-7.61,8.49-1.69,3.49-2.36,7.38-1.94,11.23.42,3.85,1.92,7.51,4.32,10.55l23.62,29.93c3.4,4.29,8.36,7.06,13.79,7.7,5.43.64,10.9-.9,15.2-4.28,4.3-3.39,7.07-8.35,7.71-13.79.64-5.44-.91-10.9-4.3-15.2l-23.62-29.92c-1.93-2.45-4.4-4.43-7.21-5.79-2.81-1.36-5.89-2.06-9.02-2.05Z"/>
        <path d="M166.84,291.98c-.53,0-1.04-.16-1.47-.47-.43-.31-.75-.74-.93-1.23-.17-.5-.19-1.04-.04-1.54.15-.51.45-.96.86-1.28,4.3-3.39,7.07-8.35,7.71-13.79.64-5.44-.91-10.91-4.3-15.2l-23.62-29.92c-3.4-4.29-8.36-7.06-13.79-7.7-5.43-.64-10.9.9-15.2,4.28-.5.4-1.13.59-1.76.54-.63-.05-1.23-.33-1.66-.8-.44-.46-.68-1.08-.69-1.71s.23-1.25.65-1.73c.36-.39,8.75-9.55,21.44-10.11,8.4-.36,16.59,3.1,24.33,10.32,10.32,9.61,18.18,17.16,23.37,22.42,3.8,3.83,6.02,8.94,6.24,14.33.52,13-5.74,23.53-19.71,33.15-.42.29-.92.45-1.44.45ZM135.05,216.37c5.53,1.36,10.46,4.53,13.98,9.01l23.62,29.92c2.1,2.65,3.66,5.68,4.57,8.94.92,3.25,1.18,6.65.78,10.01-.06.53-.14,1.06-.23,1.58,3.65-4.98,5.46-11.07,5.13-17.24-.17-4.12-1.88-8.04-4.78-10.97-3.53-3.58-10.43-10.36-23.21-22.28-6.4-5.96-13.02-8.98-19.68-8.98h-.18Z"/>
        <path d="M269.34,214.29h-108.21c-2.67,0-5.23-1.07-7.12-2.95-1.89-1.89-2.95-4.45-2.95-7.12v-37.22c.01-11.44,4.57-22.41,12.66-30.5,8.09-8.09,19.06-12.64,30.5-12.66h42c11.44.02,22.41,4.57,30.5,12.66,8.09,8.09,12.64,19.06,12.66,30.5v37.21c0,2.67-1.06,5.23-2.94,7.12-1.88,1.89-4.44,2.96-7.11,2.97ZM194.24,128.91c-10.1.01-19.78,4.03-26.92,11.17-7.14,7.14-11.16,16.82-11.17,26.92v37.22c0,1.32.52,2.6,1.46,3.53.94.94,2.2,1.47,3.53,1.47h108.21c1.32,0,2.59-.53,3.53-1.46.94-.94,1.46-2.21,1.46-3.53v-37.22c-.01-10.1-4.03-19.78-11.17-26.91-7.14-7.14-16.82-11.16-26.92-11.17h-42.01Z"/>
        <path d="M234.39,256.73h-48.9c-.67,0-1.32-.27-1.8-.74-.48-.48-.74-1.12-.74-1.8s.27-1.32.74-1.79,1.12-.74,1.8-.74h48.9c.67,0,1.32.27,1.8.74.48.48.74,1.12.74,1.79s-.27,1.32-.74,1.8c-.48.48-1.12.74-1.8.74Z"/>
        <path d="M295.66,251.01c-.45,0-.9-.12-1.29-.35-.39-.23-.71-.56-.94-.95-.22-.39-.33-.84-.33-1.29,0-.45.14-.9.37-1.28.91-1.49,1.39-3.2,1.39-4.94v-68.35c0-13.3-3.32-26.4-9.67-38.09-.29-.54-.38-1.17-.25-1.77.13-.6.48-1.13.98-1.5l13.16-9.82c.27-.2.58-.35.91-.43.33-.08.67-.1,1-.04.33.05.65.17.94.35.29.18.54.41.73.69,1.76,2.46,5.24,6.25,11.9,10.33,5.03,3.1,9.56,4.04,13.46,2.8,3.63-1.15,6.69-4.27,8.62-8.76.77-1.81,3.99-11.1-8.29-17.61-10.25-5.44-21.72-2.18-21.83-2.15-.55.16-1.13.13-1.66-.08-.53-.21-.97-.59-1.26-1.08-.29-.49-.4-1.07-.32-1.63.08-.56.35-1.08.76-1.48.79-1.93,3.21-8.57,4.25-19.5.53-5.6-.8-9.99-3.86-12.69-3.06-2.7-7.9-3.75-12.87-2.68-3.18.68-10.62,3.72-11.03,17.09-.26,8.21,4.58,14.19,7.49,17.03.25.25.45.54.58.87.13.33.19.68.18,1.03-.01.35-.1.7-.25,1.02-.15.32-.37.6-.64.83l-12.89,11.06c-.49.41-1.11.63-1.75.61-.64-.02-1.24-.29-1.7-.74-7.38-7.42-16.15-13.3-25.82-17.3-9.67-4.01-20.03-6.05-30.49-6.02-43.92,0-79.64,35.73-79.64,79.64v41.66c0,.67-.27,1.32-.74,1.8-.48.48-1.12.74-1.8.74s-1.32-.27-1.8-.74c-.48-.48-.74-1.12-.74-1.8v-41.64c0-16.56,4.85-32.75,13.95-46.58,9.1-13.83,22.06-24.69,37.26-31.24,15.2-6.55,32-8.5,48.3-5.61,16.3,2.89,31.4,10.49,43.43,21.87l9.11-7.82c-3.37-3.89-7.38-10.34-7.12-18.81.55-17.43,11.65-21.18,15.05-21.91,6.53-1.41,13.02.03,17.31,3.85,3.01,2.67,6.41,7.8,5.54,16.99-.76,8.02-2.22,13.87-3.36,17.49,4.98-.6,13.04-.62,20.74,3.46,11.76,6.24,13.78,16.6,10.58,24.09-2.51,5.87-6.68,9.99-11.75,11.61-5.36,1.7-11.3.59-17.65-3.32-5.78-3.55-9.47-6.99-11.77-9.67l-9.43,7.04c6.09,11.94,9.26,25.15,9.26,38.55v68.35c0,2.68-.74,5.31-2.14,7.59-.23.37-.55.68-.93.89-.38.21-.81.32-1.25.32Z"/>
        <path d="M294.54,98.54c-1.41,0-2.18-1.06-2.54-1.57-1.18-1.65-6.79-11.16-4.97-16.47,1.09-3.22,3.84-5.38,6.98-5.51,1.4-.06,2.78.31,3.95,1.06,1.18.75,2.1,1.85,2.63,3.14,2.04,4.66-2.36,14.87-3.76,17.89-.2.44-.52.81-.93,1.07-.41.26-.88.4-1.36.4ZM294.3,80.04h-.08c-.82.03-1.88.6-2.38,2.08-.53,1.55.84,5.3,2.25,8.26,1.45-3.99,2.4-7.94,1.85-9.18-.12-.34-.35-.63-.64-.83-.29-.21-.65-.31-1-.31h0Z"/>
        <path d="M322.71,128.8c-5.58,0-12.91-7.9-14.15-9.49-.38-.49-1.18-1.52-.78-2.87.14-.46.41-.88.78-1.19.37-.32.82-.52,1.3-.59,3.29-.47,14.32-1.77,18.21,1.52,1.08.88,1.87,2.07,2.25,3.42.38,1.34.34,2.77-.12,4.09-1.02,2.97-3.88,4.98-7.28,5.11h-.21ZM315.46,119.2c2.43,2.2,5.64,4.58,7.25,4.52,1.57-.06,2.42-.91,2.68-1.69.12-.35.13-.74.02-1.09-.11-.36-.34-.67-.64-.89-1.01-.88-5.05-1.1-9.31-.86h-.01Z"/>
        <path class="cls-5" d="M357.69,129.03c-.59,0-1.16-.19-1.63-.53-.47-.35-.83-.83-1-1.39-.18-.56-.17-1.16.01-1.71.19-.56.54-1.04,1.02-1.38.22-.15,21.82-15.83,32.78-47.4.12-.34.3-.66.55-.93.24-.27.53-.49.86-.65.33-.16.68-.25,1.04-.27.36-.02.73.03,1.07.15.34.12.66.31.93.55.27.24.49.54.65.86.16.33.25.68.27,1.04.02.36-.03.73-.15,1.07-11.57,33.33-33.85,49.43-34.8,50.1-.47.33-1.03.51-1.6.51Z"/>
        <path class="cls-5" d="M374.58,135.07c-.63,0-1.25-.22-1.74-.62-.49-.4-.83-.96-.96-1.58-.13-.62-.04-1.27.25-1.83.29-.56.76-1.01,1.34-1.27.26-.11,25.69-11.38,40.19-26.76.25-.27.55-.49.88-.64.33-.15.69-.24,1.06-.26.37-.01.73.05,1.08.17.34.13.66.32.92.58.27.25.48.55.63.89s.23.7.24,1.06c0,.37-.06.73-.19,1.07-.13.34-.34.65-.59.91-15.28,16.21-40.91,27.57-41.99,28.03-.35.15-.73.23-1.11.23Z"/>
        <path class="cls-5" d="M38.44,233.57c-17.57,0-35.24-4.41-36.36-4.69-.35-.09-.68-.25-.97-.46-.29-.22-.54-.49-.72-.8-.19-.31-.31-.66-.36-1.02-.05-.36-.03-.72.06-1.08.09-.35.25-.68.46-.97.22-.29.49-.54.8-.72.63-.38,1.38-.49,2.09-.31.4.1,39.95,9.96,57.65.25.32-.17.67-.28,1.03-.32.36-.04.73,0,1.07.09.35.1.67.27.96.5.28.23.52.51.69.83.17.32.28.67.32,1.03.04.36,0,.73-.09,1.08-.1.35-.27.67-.5.96s-.51.52-.83.69c-6.76,3.72-16.02,4.95-25.31,4.95Z"/>
        <path class="cls-5" d="M13.74,280.71c-.65,0-1.27-.22-1.77-.63-.5-.41-.84-.98-.96-1.62-.12-.63-.01-1.29.3-1.86.31-.57.82-1,1.42-1.23l52.36-20.4c.34-.13.7-.2,1.06-.19.36,0,.72.09,1.05.23.33.15.63.36.88.62.25.26.45.57.58.91.13.34.2.7.19,1.06,0,.36-.09.72-.23,1.05-.15.33-.36.63-.62.88-.26.25-.57.45-.91.58l-52.35,20.4c-.32.12-.66.19-1,.19Z"/>
        <path d="M329.41,225.69c-9.43,0-16.58-1.99-21.5-4.07-8.27-3.5-12.24-8.02-12.4-8.21-.44-.51-.66-1.17-.61-1.84.05-.67.36-1.29.87-1.73.51-.44,1.17-.66,1.84-.62.67.05,1.3.36,1.74.86.06.07,3.57,3.99,10.84,6.99,6.75,2.8,18.25,5.38,34.64,1.79.66-.14,1.34-.02,1.91.34.57.36.97.94,1.11,1.59.14.66.02,1.34-.34,1.91-.36.57-.94.97-1.59,1.11-5.42,1.22-10.95,1.85-16.5,1.87Z"/>
        <path class="cls-5" d="M485.8,193.36l-28.66-43.53c-5.56-8.45-17.38-10.52-26.34-4.63l-41.61,27.42c1.58.34,3.11.85,4.58,1.52,9.13,4.57-.44,14.89-4.26,16.35-7.62,2.9-26.28-.78-26.28-.78l-11.53,7.59c-4.26,2.76-7.3,7.04-8.51,11.97-.6,2.38-.7,4.86-.29,7.28.4,2.42,1.31,4.73,2.65,6.78l33.53,50.92c.1.14.21.28.33.4l24.69,25.41c.33.41.75.74,1.23.97.48.23,1,.35,1.53.34.45,0,.89-.08,1.31-.24.78-.29,1.44-.83,1.87-1.54.43-.71.6-1.55.48-2.37,0-.08-.02-.15-.04-.23l-5.77-25.18c-.08-.9.1-1.81.5-2.62.4-.81,1.02-1.49,1.79-1.97l72.64-47.86c8.96-5.89,11.72-17.57,6.16-26.02Z"/>
        <path class="cls-6" d="M382.8,236.4c4.79,0,8.68-3.88,8.68-8.68s-3.88-8.68-8.68-8.68-8.68,3.89-8.68,8.68,3.89,8.68,8.68,8.68Z"/>
        <path d="M382.8,238.94c-2.22,0-4.39-.66-6.23-1.89-1.85-1.23-3.28-2.98-4.13-5.03-.85-2.05-1.07-4.3-.64-6.48.43-2.18,1.5-4.17,3.07-5.74,1.57-1.57,3.57-2.64,5.74-3.07,2.17-.43,4.43-.21,6.48.63,2.05.85,3.8,2.28,5.03,4.13,1.23,1.84,1.89,4.01,1.89,6.23,0,2.97-1.19,5.82-3.29,7.93-2.1,2.1-4.95,3.29-7.93,3.3ZM382.8,221.59c-1.21,0-2.4.36-3.41,1.04-1.01.67-1.8,1.63-2.26,2.75-.46,1.12-.59,2.36-.35,3.55.24,1.19.82,2.28,1.68,3.14.86.86,1.96,1.44,3.15,1.68,1.19.24,2.42.11,3.55-.35,1.12-.47,2.08-1.25,2.75-2.26.67-1.01,1.03-2.2,1.03-3.41,0-1.63-.65-3.18-1.8-4.33-1.15-1.15-2.71-1.79-4.34-1.79Z"/>
        <path class="cls-6" d="M415.67,215.1c4.79,0,8.68-3.89,8.68-8.68s-3.89-8.68-8.68-8.68-8.68,3.88-8.68,8.68,3.88,8.68,8.68,8.68Z"/>
        <path d="M415.67,217.64c-2.22,0-4.39-.66-6.23-1.89-1.85-1.23-3.28-2.98-4.13-5.03-.85-2.05-1.07-4.3-.64-6.48.43-2.17,1.5-4.17,3.07-5.74,1.57-1.57,3.57-2.64,5.74-3.07,2.18-.43,4.43-.21,6.48.64,2.05.85,3.8,2.29,5.03,4.13,1.23,1.85,1.89,4.01,1.89,6.23,0,2.97-1.19,5.82-3.29,7.92-2.1,2.1-4.95,3.29-7.92,3.29ZM415.67,200.29c-1.21,0-2.4.36-3.41,1.03-1.01.68-1.8,1.63-2.26,2.76-.46,1.12-.58,2.36-.35,3.55.24,1.19.82,2.28,1.68,3.14.86.86,1.95,1.44,3.14,1.68,1.19.24,2.42.11,3.55-.35,1.12-.46,2.08-1.25,2.75-2.26.67-1.01,1.03-2.2,1.03-3.41,0-1.63-.65-3.19-1.8-4.34-1.15-1.15-2.71-1.8-4.34-1.8Z"/>
        <path class="cls-6" d="M446.71,196.22c4.79,0,8.68-3.88,8.68-8.68s-3.88-8.68-8.68-8.68-8.68,3.89-8.68,8.68,3.89,8.68,8.68,8.68Z"/>
        <path d="M446.71,198.76c-2.22,0-4.39-.66-6.23-1.89-1.85-1.23-3.28-2.98-4.13-5.03-.85-2.05-1.07-4.3-.64-6.48.43-2.18,1.5-4.17,3.07-5.74,1.57-1.57,3.57-2.64,5.74-3.07,2.17-.43,4.43-.21,6.48.64,2.05.85,3.8,2.29,5.03,4.13,1.23,1.85,1.89,4.01,1.89,6.23,0,2.97-1.19,5.82-3.29,7.92-2.1,2.1-4.95,3.28-7.92,3.29ZM446.71,181.41c-1.21,0-2.4.36-3.41,1.03-1.01.68-1.8,1.63-2.26,2.75-.46,1.12-.59,2.36-.35,3.55.24,1.19.82,2.28,1.68,3.14.86.86,1.95,1.44,3.14,1.68,1.19.24,2.42.12,3.55-.35,1.12-.47,2.08-1.25,2.75-2.26.68-1.01,1.04-2.2,1.04-3.41,0-1.63-.65-3.19-1.8-4.34-1.15-1.15-2.71-1.8-4.34-1.8Z"/>
        <path d="M380.93,194.16c-7.98,0-16.82-1.68-18.19-1.95-.33-.06-.65-.18-.94-.37-.28-.18-.53-.42-.72-.7-.19-.28-.32-.59-.39-.92-.07-.33-.07-.67,0-1,.07-.33.2-.65.38-.93.19-.28.43-.52.72-.71.28-.19.6-.31.93-.37.33-.06.67-.05,1,.02,4.99.99,19.19,3.07,24.87.9,1.78-.68,6.28-4.98,6.45-8.43.04-.94-.19-2.17-2.42-3.26-2.58-1.29-8.93-2.62-16.08-2.65-7.51-.02-13.35,1.35-16,3.81-4.69,4.35-15.26,11.77-33.35,12.51-23.74.96-31.72-14.44-32.05-15.1-.29-.6-.33-1.29-.11-1.92.22-.63.67-1.15,1.26-1.45.59-.3,1.28-.35,1.92-.15.63.2,1.16.65,1.47,1.24.29.57,7.01,13.14,27.31,12.3,17.08-.7,26.74-8.04,30.11-11.16,4.91-4.56,14.31-5.18,19.48-5.17,7.22.04,14.58,1.32,18.32,3.19,4.77,2.39,5.32,6.08,5.22,8.07-.29,5.82-6.45,11.68-9.71,12.92-2.5.94-5.91,1.28-9.49,1.28Z"/>
        <path d="M133.06,188.26c-.26,0-.52-.04-.76-.12-14.78-4.65-24.86-11.32-33.64-22.3-5.87-7.33-8.81-24.33-10.58-34.48-.5-2.9-.98-5.62-1.26-6.48-.54-1.64-6.74-5.72-13.25-8.75-.3-.14-.57-.34-.8-.58-.23-.25-.4-.53-.52-.85-.11-.31-.17-.65-.15-.98.01-.33.09-.66.23-.96.14-.3.34-.57.58-.8s.53-.4.85-.51c.31-.12.65-.17.98-.15.33.01.66.09.96.23,3.33,1.55,14.33,6.97,15.92,11.75.41,1.22.82,3.6,1.45,7.22,1.57,9.04,4.49,25.87,9.54,32.18,8.11,10.13,17.44,16.3,31.19,20.62.58.18,1.07.56,1.4,1.08.32.51.45,1.13.35,1.73-.09.6-.4,1.15-.86,1.54-.46.4-1.05.61-1.66.61h0Z"/>
        <path class="cls-5" d="M168.73,72.11l-12.29-50.63c-.58-2.38-1.66-4.62-3.15-6.57-1.5-1.95-3.38-3.56-5.53-4.74-4.43-2.47-9.63-3.16-14.55-1.93L41.17,30.58c-4.94,1.16-9.24,4.16-12.05,8.39-1.37,2.04-2.31,4.33-2.74,6.75-.44,2.42-.37,4.9.21,7.28,0,0,14.49,59.57,14.57,59.73l14.67,32.25c.25.7.71,1.31,1.32,1.74.61.43,1.34.66,2.09.65h.06c.83,0,1.64-.3,2.28-.83.64-.53,1.09-1.26,1.25-2.08,0-.08.03-.16.04-.24l3.06-25.65c.24-.87.71-1.66,1.36-2.29.66-.62,1.47-1.05,2.35-1.24l36.64-8.89c1.18-6.53,4.26-19.41,10.37-20.43,5.55-.93,8.78,2.75,10.3,5.23.72,1.18.95,2.59.63,3.93-.36,1.45-.87,3.72-1.48,6.45l28.07-6.82c4.94-1.16,9.24-4.16,12.05-8.39,1.37-2.04,2.31-4.34,2.74-6.75.44-2.41.37-4.89-.21-7.28Z"/>
        <path d="M43.11,54.48c-.62,0-1.22-.23-1.68-.64-.46-.41-.76-.98-.84-1.6-.07-.62.08-1.24.43-1.75.35-.51.88-.87,1.48-1.02l81.73-20.09c.65-.16,1.35-.05,1.92.29.58.35.99.91,1.15,1.57.16.65.05,1.35-.29,1.92-.35.58-.91.99-1.57,1.15l-81.72,20.09c-.2.05-.4.07-.61.07Z"/>
        <path d="M47.2,74.57c-.62,0-1.22-.23-1.68-.64-.46-.41-.76-.98-.84-1.59-.08-.61.08-1.23.43-1.75.35-.51.88-.87,1.48-1.03l50.47-12.63c.32-.09.66-.11,1-.06.33.05.65.16.94.33s.54.4.74.67c.2.27.35.58.43.9.08.33.1.66.05,1-.05.33-.17.65-.34.94-.17.29-.4.54-.68.73-.27.2-.58.34-.91.42l-50.47,12.63c-.2.05-.41.08-.62.08Z"/>
        <path d="M49.83,92.68c-.62,0-1.22-.23-1.69-.64-.46-.41-.76-.98-.83-1.6-.07-.62.08-1.24.44-1.75.36-.51.89-.87,1.49-1.02l81.39-19.48c.66-.16,1.35-.05,1.92.31.57.35.98.92,1.14,1.57.16.66.05,1.35-.31,1.92-.35.57-.92.98-1.57,1.14l-81.39,19.48c-.19.05-.39.07-.59.07Z"/>
        <path d="M133.05,157.21c-.58,0-1.15-.2-1.6-.57-.54-.44-13.26-10.94-13.26-22.97,0-9.57,5.27-32.55,6.89-39.36.16-.69.05-1.42-.33-2.02-1.96-3.22-4.56-4.58-7.72-4.05-4.32.72-7.84,13.55-8.85,22-.08.67-.42,1.27-.95,1.69-.53.42-1.2.6-1.87.52-.67-.08-1.28-.42-1.69-.95-.42-.53-.61-1.2-.53-1.87.53-4.05,1.36-8.06,2.48-12,2.6-8.94,6.06-13.65,10.58-14.41,5.17-.86,9.87,1.48,12.88,6.42.53.87.89,1.83,1.05,2.83.16,1,.12,2.03-.12,3.01-1.58,6.68-6.75,29.17-6.75,38.19,0,9.6,11.28,18.94,11.39,19.03.41.33.7.78.84,1.29.14.5.12,1.04-.05,1.54-.18.49-.5.92-.93,1.22-.43.3-.94.46-1.47.46h0Z"/>
      </g>
      <polygon class="cls-2" points="78.59 293.35 85.21 283.67 91.88 293.39 101.51 299.97 91.84 306.6 85.21 316.27 78.59 306.6 68.91 299.97 78.59 293.35"/>
      <polygon class="cls-1" points="337.34 16.31 347.9 .88 358.54 16.38 373.9 26.88 358.47 37.45 347.9 52.88 337.34 37.45 321.91 26.88 337.34 16.31"/>
      <line class="cls-3" x1="215.23" y1="65.72" x2="215.23" y2="94.19"/>
      <circle class="cls-3" cx="215.25" cy="56.86" r="8.48"/>
      <circle class="cls-4" cx="188.02" cy="154.51" r="8.48"/>
      <circle class="cls-4" cx="237.31" cy="154.51" r="8.48"/>
      <path class="cls-4" d="M239.14,197.75h-50.18c-4.55,0-8.25-3.69-8.25-8.25v-4.92c0-4.85,3.71-7.41,8.25-5.71h0c16.17,6.08,34.01,6.08,50.18,0h0c4.54-1.71,8.25.86,8.25,5.71v4.92c0,4.55-3.69,8.25-8.25,8.25Z"/>
    </g>
  </g>
</svg>