<?xml version="1.0" encoding="utf-8"?>
<!-- Generator: Adobe Illustrator 28.0.0, SVG Export Plug-In . SVG Version: 6.00 Build 0)  -->
<svg version="1.1" id="Layer_2_00000058548292026108062160000014942370200595622076_"
	 xmlns="http://www.w3.org/2000/svg" xmlns:xlink="http://www.w3.org/1999/xlink" x="0px" y="0px" viewBox="0 0 1003.8 317.2"
	 style="enable-background:new 0 0 1003.8 317.2;" xml:space="preserve">
<style type="text/css">
	.st0{fill:#3F84FF;}
	.st1{fill:#CF89FF;}
	.st2{fill:#FFFFFF;}
	.st3{clip-path:url(#SVGID_00000125588645785472528690000008035856622121053589_);}
	.st4{fill:#191CFF;}
	.st5{fill:#1A1FFF;}
	.st6{fill:#1B21FF;}
	.st7{fill:#1C24FF;}
	.st8{fill:#1D26FF;}
	.st9{fill:#1E29FF;}
	.st10{fill:#202EFF;}
	.st11{fill:#2130FF;}
	.st12{fill:#2233FF;}
	.st13{fill:#2336FF;}
	.st14{fill:#2539FF;}
	.st15{fill:#263BFF;}
	.st16{fill:#273EFF;}
	.st17{fill:#2841FF;}
	.st18{fill:#2944FF;}
	.st19{fill:#2A45FF;}
	.st20{fill:#2B48FF;}
	.st21{fill:#2C4CFF;}
	.st22{fill:#2D4EFF;}
	.st23{fill:#2E51FF;}
	.st24{fill:#2F53FF;}
	.st25{fill:#3055FF;}
	.st26{fill:#3158FF;}
	.st27{fill:#325BFF;}
	.st28{fill:#335FFF;}
	.st29{fill:#3461FF;}
	.st30{fill:#3562FF;}
	.st31{fill:#3666FF;}
	.st32{fill:#386BFF;}
	.st33{fill:#3A6EFF;}
	.st34{fill:#3B74FF;}
	.st35{fill:#3C76FF;}
	.st36{fill:#3D79FF;}
	.st37{fill:#3E7EFF;}
	.st38{fill:#4089FF;}
	.st39{fill:#4189FF;}
	.st40{fill:#428EFF;}
	.st41{fill:#4392FF;}
	.st42{fill:#4595FF;}
	.st43{fill:#4699FF;}
	.st44{fill:#479DFF;}
	.st45{fill:#489EFF;}
	.st46{fill:#49A1FF;}
	.st47{fill:#4AA5FF;}
	.st48{clip-path:url(#SVGID_00000029759637495000583800000016278698656477334421_);}
	.st49{enable-background:new    ;}
</style>
<path class="st0" d="M581.8,235c55.2-4.4,110.5-8.7,165.9-5.3c6.8,0.4,6.7-10.1,0-10.5c-55.3-3.4-110.7,1-165.9,5.3
	C575.1,225,575,235.5,581.8,235L581.8,235L581.8,235z"/>
<g>
	<g>
		<path d="M309,280.5h-82.8c-0.7,0-1.3-0.3-1.8-0.7c-0.5-0.5-0.7-1.1-0.7-1.8c0-11.1,4.4-21.7,12.3-29.6
			c7.8-7.8,18.5-12.2,29.6-12.3h4.3c11.1,0,21.7,4.4,29.5,12.3c7.8,7.8,12.2,18.5,12.3,29.6c0,0.7-0.3,1.3-0.7,1.8s-1.1,0.7-1.8,0.7
			l0,0H309z M228.8,275.4h77.5c-0.6-9.3-4.8-18-11.6-24.3c-6.8-6.4-15.7-9.9-25-9.9h-4.3c-9.3,0-18.2,3.5-25,9.9
			C233.6,257.4,229.5,266.1,228.8,275.4L228.8,275.4L228.8,275.4z"/>
		<path d="M309,291.9h-82.8c-0.7,0-1.3-0.3-1.8-0.7c-0.5-0.5-0.7-1.1-0.7-1.8V278c0-0.7,0.3-1.3,0.7-1.8c0.5-0.5,1.1-0.7,1.8-0.7
			H309c0.7,0,1.3,0.3,1.8,0.7c0.5,0.5,0.7,1.1,0.7,1.8v11.4c0,0.7-0.3,1.3-0.7,1.8C310.3,291.7,309.7,291.9,309,291.9z M228.7,286.8
			h77.7v-6.3h-77.7V286.8L228.7,286.8z"/>
		<path d="M152.5,297c-3.9,0-7.7-0.9-11.2-2.5s-6.6-4.1-9-7.2l-23.6-29.9c-2.1-2.6-3.7-5.7-4.6-8.9s-1.2-6.7-0.8-10s1.4-6.6,3.1-9.6
			c1.7-2.9,3.9-5.6,6.5-7.6c2.7-2.1,5.7-3.6,8.9-4.6c3.3-0.9,6.7-1.2,10-0.8c3.4,0.4,6.6,1.5,9.6,3.1c2.9,1.7,5.5,3.9,7.6,6.5
			l23.6,29.9c3,3.8,4.9,8.3,5.4,13.1s-0.3,9.6-2.4,14c-2.1,4.4-5.4,8-9.5,10.6S157.3,297,152.5,297L152.5,297L152.5,297z
			 M128.8,220.7c-3.9,0-7.7,1.1-10.9,3.2s-5.9,5-7.6,8.5s-2.4,7.4-1.9,11.2c0.4,3.9,1.9,7.5,4.3,10.6l23.6,29.9
			c3.4,4.3,8.4,7.1,13.8,7.7s10.9-0.9,15.2-4.3s7.1-8.4,7.7-13.8s-0.9-10.9-4.3-15.2l-23.6-29.9c-1.9-2.4-4.4-4.4-7.2-5.8
			C135.1,221.4,132,220.7,128.8,220.7L128.8,220.7L128.8,220.7z"/>
		<path d="M166.8,292c-0.5,0-1-0.2-1.5-0.5c-0.4-0.3-0.8-0.7-0.9-1.2c-0.2-0.5-0.2-1,0-1.5c0.1-0.5,0.4-1,0.9-1.3
			c4.3-3.4,7.1-8.4,7.7-13.8s-0.9-10.9-4.3-15.2l-23.6-29.9c-3.4-4.3-8.4-7.1-13.8-7.7c-5.4-0.6-10.9,0.9-15.2,4.3
			c-0.5,0.4-1.1,0.6-1.8,0.5c-0.6,0-1.2-0.3-1.7-0.8c-0.4-0.5-0.7-1.1-0.7-1.7s0.2-1.2,0.7-1.7c0.4-0.4,8.8-9.6,21.4-10.1
			c8.4-0.4,16.6,3.1,24.3,10.3c10.3,9.6,18.2,17.2,23.4,22.4c3.8,3.8,6,8.9,6.2,14.3c0.5,13-5.7,23.5-19.7,33.1
			C167.8,291.8,167.3,292,166.8,292L166.8,292L166.8,292z M135.1,216.4c5.5,1.4,10.5,4.5,14,9l23.6,29.9c2.1,2.6,3.7,5.7,4.6,8.9
			c0.9,3.2,1.2,6.6,0.8,10c0,0.5-0.1,1.1-0.2,1.6c3.6-5,5.5-11.1,5.1-17.2c-0.2-4.1-1.9-8-4.8-11c-3.5-3.6-10.4-10.4-23.2-22.3
			c-6.4-6-13-9-19.7-9h-0.2L135.1,216.4z"/>
		<path d="M269.3,214.3H161.1c-2.7,0-5.2-1.1-7.1-2.9c-1.9-1.9-2.9-4.4-2.9-7.1v-37.2c0-11.4,4.6-22.4,12.7-30.5
			s19.1-12.6,30.5-12.7h42c11.4,0,22.4,4.6,30.5,12.7c8.1,8.1,12.6,19.1,12.7,30.5v37.2c0,2.7-1.1,5.2-2.9,7.1s-4.4,3-7.1,3l0,0
			L269.3,214.3z M194.2,128.9c-10.1,0-19.8,4-26.9,11.2s-11.2,16.8-11.2,26.9v37.2c0,1.3,0.5,2.6,1.5,3.5c0.9,0.9,2.2,1.5,3.5,1.5
			h108.2c1.3,0,2.6-0.5,3.5-1.5c0.9-0.9,1.5-2.2,1.5-3.5V167c0-10.1-4-19.8-11.2-26.9c-7.1-7.1-16.8-11.2-26.9-11.2L194.2,128.9
			L194.2,128.9L194.2,128.9z"/>
		<path d="M234.4,256.7h-48.9c-0.7,0-1.3-0.3-1.8-0.7c-0.5-0.5-0.7-1.1-0.7-1.8s0.3-1.3,0.7-1.8s1.1-0.7,1.8-0.7h48.9
			c0.7,0,1.3,0.3,1.8,0.7c0.5,0.5,0.7,1.1,0.7,1.8s-0.3,1.3-0.7,1.8C235.7,256.5,235.1,256.7,234.4,256.7L234.4,256.7z"/>
		<path d="M295.7,251c-0.5,0-0.9-0.1-1.3-0.4c-0.4-0.2-0.7-0.6-0.9-0.9c-0.2-0.4-0.3-0.8-0.3-1.3s0.1-0.9,0.4-1.3
			c0.9-1.5,1.4-3.2,1.4-4.9v-68.3c0-13.3-3.3-26.4-9.7-38.1c-0.3-0.5-0.4-1.2-0.2-1.8s0.5-1.1,1-1.5l13.2-9.8
			c0.3-0.2,0.6-0.3,0.9-0.4c0.3,0,0.7,0,1,0s0.6,0.2,0.9,0.3s0.5,0.4,0.7,0.7c1.8,2.5,5.2,6.2,11.9,10.3c5,3.1,9.6,4,13.5,2.8
			c3.6-1.1,6.7-4.3,8.6-8.8c0.8-1.8,4-11.1-8.3-17.6c-10.2-5.4-21.7-2.2-21.8-2.2c-0.5,0.2-1.1,0.1-1.7,0s-1-0.6-1.3-1.1
			s-0.4-1.1-0.3-1.6s0.4-1.1,0.8-1.5c0.8-1.9,3.2-8.6,4.2-19.5c0.5-5.6-0.8-10-3.9-12.7s-7.9-3.8-12.9-2.7
			c-3.2,0.7-10.6,3.7-11,17.1c-0.3,8.2,4.6,14.2,7.5,17c0.2,0.2,0.5,0.5,0.6,0.9c0.1,0.3,0.2,0.7,0.2,1s-0.1,0.7-0.2,1
			s-0.4,0.6-0.6,0.8l-12.9,11.1c-0.5,0.4-1.1,0.6-1.8,0.6s-1.2-0.3-1.7-0.7c-7.4-7.4-16.1-13.3-25.8-17.3c-9.7-4-20-6.1-30.5-6
			c-43.9,0-79.6,35.7-79.6,79.6v41.7c0,0.7-0.3,1.3-0.7,1.8c-0.5,0.5-1.1,0.7-1.8,0.7s-1.3-0.3-1.8-0.7c-0.5-0.5-0.7-1.1-0.7-1.8
			v-41.6c0-16.6,4.9-32.8,13.9-46.6c9.1-13.8,22.1-24.7,37.3-31.2c15.2-6.6,32-8.5,48.3-5.6s31.4,10.5,43.4,21.9l9.1-7.8
			c-3.4-3.9-7.4-10.3-7.1-18.8c0.5-17.4,11.6-21.2,15-21.9c6.5-1.4,13,0,17.3,3.9c3,2.7,6.4,7.8,5.5,17c-0.8,8-2.2,13.9-3.4,17.5
			c5-0.6,13-0.6,20.7,3.5c11.8,6.2,13.8,16.6,10.6,24.1c-2.5,5.9-6.7,10-11.8,11.6c-5.4,1.7-11.3,0.6-17.6-3.3
			c-5.8-3.6-9.5-7-11.8-9.7l-9.4,7c6.1,11.9,9.3,25.1,9.3,38.6v68.3c0,2.7-0.7,5.3-2.1,7.6c-0.2,0.4-0.5,0.7-0.9,0.9
			s-0.8,0.3-1.2,0.3l0,0L295.7,251z"/>
		<path d="M294.5,98.5c-1.4,0-2.2-1.1-2.5-1.6c-1.2-1.7-6.8-11.2-5-16.5c1.1-3.2,3.8-5.4,7-5.5c1.4,0,2.8,0.3,4,1.1
			c1.2,0.8,2.1,1.8,2.6,3.1c2,4.7-2.4,14.9-3.8,17.9c-0.2,0.4-0.5,0.8-0.9,1.1S295,98.5,294.5,98.5L294.5,98.5L294.5,98.5z
			 M294.3,80L294.3,80c-0.8,0-1.9,0.6-2.4,2.1c-0.5,1.6,0.8,5.3,2.2,8.3c1.5-4,2.4-7.9,1.9-9.2c-0.1-0.3-0.4-0.6-0.6-0.8
			c-0.3-0.2-0.6-0.3-1-0.3l0,0L294.3,80z"/>
		<path d="M322.7,128.8c-5.6,0-12.9-7.9-14.1-9.5c-0.4-0.5-1.2-1.5-0.8-2.9c0.1-0.5,0.4-0.9,0.8-1.2c0.4-0.3,0.8-0.5,1.3-0.6
			c3.3-0.5,14.3-1.8,18.2,1.5c1.1,0.9,1.9,2.1,2.2,3.4c0.4,1.3,0.3,2.8-0.1,4.1c-1,3-3.9,5-7.3,5.1L322.7,128.8L322.7,128.8z
			 M315.5,119.2c2.4,2.2,5.6,4.6,7.2,4.5c1.6,0,2.4-0.9,2.7-1.7c0.1-0.3,0.1-0.7,0-1.1s-0.3-0.7-0.6-0.9
			C323.8,119.1,319.8,118.9,315.5,119.2L315.5,119.2L315.5,119.2L315.5,119.2z"/>
		<path class="st1" d="M357.7,129c-0.6,0-1.2-0.2-1.6-0.5c-0.5-0.4-0.8-0.8-1-1.4s-0.2-1.2,0-1.7c0.2-0.6,0.5-1,1-1.4
			c0.2-0.2,21.8-15.8,32.8-47.4c0.1-0.3,0.3-0.7,0.5-0.9c0.2-0.3,0.5-0.5,0.9-0.7s0.7-0.2,1-0.3c0.4,0,0.7,0,1.1,0.2
			s0.7,0.3,0.9,0.6c0.3,0.2,0.5,0.5,0.6,0.9c0.2,0.3,0.2,0.7,0.3,1s0,0.7-0.1,1.1c-11.6,33.3-33.9,49.4-34.8,50.1
			C358.8,128.9,358.3,129.1,357.7,129L357.7,129L357.7,129z"/>
		<path class="st1" d="M374.6,135.1c-0.6,0-1.2-0.2-1.7-0.6s-0.8-1-1-1.6s0-1.3,0.2-1.8s0.8-1,1.3-1.3c0.3-0.1,25.7-11.4,40.2-26.8
			c0.2-0.3,0.5-0.5,0.9-0.6c0.3-0.2,0.7-0.2,1.1-0.3c0.4,0,0.7,0,1.1,0.2c0.3,0.1,0.7,0.3,0.9,0.6c0.3,0.2,0.5,0.6,0.6,0.9
			s0.2,0.7,0.2,1.1s0,0.7-0.2,1.1s-0.3,0.7-0.6,0.9c-15.3,16.2-40.9,27.6-42,28c-0.4,0.1-0.7,0.2-1.1,0.2l0,0L374.6,135.1z"/>
		<path class="st1" d="M38.4,233.6c-17.6,0-35.2-4.4-36.4-4.7c-0.4,0-0.7-0.2-1-0.5c-0.3-0.2-0.5-0.5-0.7-0.8s-0.3-0.7-0.4-1
			c0-0.4,0-0.7,0-1.1c0-0.4,0.2-0.7,0.5-1c0.2-0.3,0.5-0.5,0.8-0.7c0.6-0.4,1.4-0.5,2.1-0.3c0.4,0.1,40,10,57.7,0.2
			c0.3-0.2,0.7-0.3,1-0.3c0.4,0,0.7,0,1.1,0c0.3,0.1,0.7,0.3,1,0.5c0.3,0.2,0.5,0.5,0.7,0.8s0.3,0.7,0.3,1s0,0.7,0,1.1
			c0,0.4-0.3,0.7-0.5,1s-0.5,0.5-0.8,0.7c-6.8,3.7-16,4.9-25.3,4.9l0,0L38.4,233.6z"/>
		<path class="st1" d="M13.7,280.7c-0.6,0-1.3-0.2-1.8-0.6s-0.8-1-1-1.6c-0.1-0.6,0-1.3,0.3-1.9s0.8-1,1.4-1.2L65,255
			c0.3-0.1,0.7-0.2,1.1-0.2s0.7,0,1.1,0.2c0.3,0.1,0.6,0.4,0.9,0.6s0.4,0.6,0.6,0.9c0.1,0.3,0.2,0.7,0.2,1.1s0,0.7-0.2,1
			s-0.4,0.6-0.6,0.9s-0.6,0.5-0.9,0.6l-52.3,20.4c-0.3,0.1-0.7,0.2-1,0.2l0,0H13.7z"/>
		<path d="M329.4,225.7c-9.4,0-16.6-2-21.5-4.1c-8.3-3.5-12.2-8-12.4-8.2c-0.4-0.5-0.7-1.2-0.6-1.8c0-0.7,0.4-1.3,0.9-1.7
			s1.2-0.7,1.8-0.6c0.7,0,1.3,0.4,1.7,0.9c0,0,3.6,4,10.8,7c6.8,2.8,18.2,5.4,34.6,1.8c0.7-0.1,1.3,0,1.9,0.3s1,0.9,1.1,1.6
			c0.1,0.7,0,1.3-0.3,1.9s-0.9,1-1.6,1.1c-5.4,1.2-11,1.9-16.5,1.9l0,0L329.4,225.7z"/>
		<path class="st1" d="M485.8,193.4l-28.7-43.5c-5.6-8.4-17.4-10.5-26.3-4.6l-41.6,27.4c1.6,0.3,3.1,0.9,4.6,1.5
			c9.1,4.6-0.4,14.9-4.3,16.4c-7.6,2.9-26.3-0.8-26.3-0.8l-11.5,7.6c-4.3,2.8-7.3,7-8.5,12c-0.6,2.4-0.7,4.9-0.3,7.3
			c0.4,2.4,1.3,4.7,2.6,6.8l33.5,50.9c0.1,0.1,0.2,0.3,0.3,0.4l24.7,25.4c0.3,0.4,0.8,0.7,1.2,1s1,0.4,1.5,0.3c0.5,0,0.9,0,1.3-0.2
			c0.8-0.3,1.4-0.8,1.9-1.5c0.4-0.7,0.6-1.5,0.5-2.4c0,0,0-0.1,0-0.2l-5.8-25.2c0-0.9,0.1-1.8,0.5-2.6s1-1.5,1.8-2l72.6-47.9
			C488.5,213.6,491.2,201.9,485.8,193.4L485.8,193.4L485.8,193.4z"/>
		<path class="st2" d="M382.8,236.4c4.8,0,8.7-3.9,8.7-8.7s-3.9-8.7-8.7-8.7s-8.7,3.9-8.7,8.7S378,236.4,382.8,236.4z"/>
		<path d="M382.8,238.9c-2.2,0-4.4-0.7-6.2-1.9c-1.9-1.2-3.3-3-4.1-5s-1.1-4.3-0.6-6.5s1.5-4.2,3.1-5.7s3.6-2.6,5.7-3.1
			c2.2-0.4,4.4-0.2,6.5,0.6c2,0.9,3.8,2.3,5,4.1s1.9,4,1.9,6.2s-1.2,5.8-3.3,7.9c-2.1,2.1-5,3.3-7.9,3.3l0,0L382.8,238.9z
			 M382.8,221.6c-1.2,0-2.4,0.4-3.4,1c-1,0.7-1.8,1.6-2.3,2.8c-0.5,1.1-0.6,2.4-0.4,3.6s0.8,2.3,1.7,3.1s2,1.4,3.1,1.7
			c1.2,0.2,2.4,0.1,3.5-0.4s2.1-1.2,2.8-2.3s1-2.2,1-3.4s-0.6-3.2-1.8-4.3C385.9,222.3,384.3,221.6,382.8,221.6L382.8,221.6
			L382.8,221.6z"/>
		<path class="st2" d="M415.7,215.1c4.8,0,8.7-3.9,8.7-8.7s-3.9-8.7-8.7-8.7s-8.7,3.9-8.7,8.7S410.9,215.1,415.7,215.1z"/>
		<path d="M415.7,217.6c-2.2,0-4.4-0.7-6.2-1.9c-1.9-1.2-3.3-3-4.1-5s-1.1-4.3-0.6-6.5c0.4-2.2,1.5-4.2,3.1-5.7s3.6-2.6,5.7-3.1
			c2.2-0.4,4.4-0.2,6.5,0.6c2,0.9,3.8,2.3,5,4.1c1.2,1.9,1.9,4,1.9,6.2s-1.2,5.8-3.3,7.9c-2.1,2.1-5,3.3-7.9,3.3l0,0L415.7,217.6z
			 M415.7,200.3c-1.2,0-2.4,0.4-3.4,1c-1,0.7-1.8,1.6-2.3,2.8c-0.5,1.1-0.6,2.4-0.4,3.6c0.2,1.2,0.8,2.3,1.7,3.1s2,1.4,3.1,1.7
			c1.2,0.2,2.4,0.1,3.5-0.4s2.1-1.2,2.8-2.3s1-2.2,1-3.4s-0.6-3.2-1.8-4.3S417.2,200.3,415.7,200.3L415.7,200.3L415.7,200.3z"/>
		<path class="st2" d="M446.7,196.2c4.8,0,8.7-3.9,8.7-8.7s-3.9-8.7-8.7-8.7s-8.7,3.9-8.7,8.7S441.9,196.2,446.7,196.2z"/>
		<path d="M446.7,198.8c-2.2,0-4.4-0.7-6.2-1.9c-1.9-1.2-3.3-3-4.1-5s-1.1-4.3-0.6-6.5s1.5-4.2,3.1-5.7s3.6-2.6,5.7-3.1
			c2.2-0.4,4.4-0.2,6.5,0.6c2,0.9,3.8,2.3,5,4.1c1.2,1.9,1.9,4,1.9,6.2s-1.2,5.8-3.3,7.9c-2.1,2.1-5,3.3-7.9,3.3l0,0L446.7,198.8z
			 M446.7,181.4c-1.2,0-2.4,0.4-3.4,1c-1,0.7-1.8,1.6-2.3,2.8c-0.5,1.1-0.6,2.4-0.4,3.6s0.8,2.3,1.7,3.1s2,1.4,3.1,1.7
			c1.2,0.2,2.4,0.1,3.5-0.4s2.1-1.2,2.8-2.3c0.7-1,1-2.2,1-3.4s-0.6-3.2-1.8-4.3S448.2,181.4,446.7,181.4L446.7,181.4L446.7,181.4z"
			/>
		<path d="M380.9,194.2c-8,0-16.8-1.7-18.2-1.9c-0.3,0-0.6-0.2-0.9-0.4s-0.5-0.4-0.7-0.7s-0.3-0.6-0.4-0.9s0-0.7,0-1
			s0.2-0.6,0.4-0.9c0.2-0.3,0.4-0.5,0.7-0.7c0.3-0.2,0.6-0.3,0.9-0.4s0.7,0,1,0c5,1,19.2,3.1,24.9,0.9c1.8-0.7,6.3-5,6.5-8.4
			c0-0.9-0.2-2.2-2.4-3.3c-2.6-1.3-8.9-2.6-16.1-2.6c-7.5,0-13.4,1.4-16,3.8c-4.7,4.4-15.3,11.8-33.4,12.5
			c-23.7,1-31.7-14.4-32-15.1c-0.3-0.6-0.3-1.3-0.1-1.9s0.7-1.1,1.3-1.4s1.3-0.4,1.9-0.1c0.6,0.2,1.2,0.6,1.5,1.2
			c0.3,0.6,7,13.1,27.3,12.3c17.1-0.7,26.7-8,30.1-11.2c4.9-4.6,14.3-5.2,19.5-5.2c7.2,0,14.6,1.3,18.3,3.2c4.8,2.4,5.3,6.1,5.2,8.1
			c-0.3,5.8-6.5,11.7-9.7,12.9c-2.5,0.9-5.9,1.3-9.5,1.3l0,0L380.9,194.2z"/>
		<path d="M133.1,188.3c-0.3,0-0.5,0-0.8-0.1c-14.8-4.6-24.9-11.3-33.6-22.3c-5.9-7.3-8.8-24.3-10.6-34.5c-0.5-2.9-1-5.6-1.3-6.5
			c-0.5-1.6-6.7-5.7-13.2-8.8c-0.3-0.1-0.6-0.3-0.8-0.6c-0.2-0.2-0.4-0.5-0.5-0.8s-0.2-0.7-0.2-1s0-0.7,0.2-1
			c0.1-0.3,0.3-0.6,0.6-0.8s0.5-0.4,0.8-0.5s0.7-0.2,1-0.2s0.7,0,1,0.2c3.3,1.6,14.3,7,15.9,11.8c0.4,1.2,0.8,3.6,1.4,7.2
			c1.6,9,4.5,25.9,9.5,32.2c8.1,10.1,17.4,16.3,31.2,20.6c0.6,0.2,1.1,0.6,1.4,1.1c0.3,0.5,0.4,1.1,0.4,1.7c0,0.6-0.4,1.1-0.9,1.5
			s-1.1,0.6-1.7,0.6l0,0L133.1,188.3z"/>
		<path class="st1" d="M168.7,72.1l-12.3-50.6c-0.6-2.4-1.7-4.6-3.1-6.6c-1.5-1.9-3.4-3.6-5.5-4.7c-4.4-2.5-9.6-3.2-14.6-1.9
			l-92,22.3c-4.9,1.2-9.2,4.2-12,8.4c-1.4,2-2.3,4.3-2.7,6.8c-0.4,2.4-0.4,4.9,0.2,7.3c0,0,14.5,59.6,14.6,59.7L56,145
			c0.2,0.7,0.7,1.3,1.3,1.7s1.3,0.7,2.1,0.6l0,0c0.8,0,1.6-0.3,2.3-0.8s1.1-1.3,1.2-2.1v-0.2l3.1-25.7c0.2-0.9,0.7-1.7,1.4-2.3
			c0.7-0.6,1.5-1.1,2.3-1.2l36.6-8.9c1.2-6.5,4.3-19.4,10.4-20.4c5.6-0.9,8.8,2.8,10.3,5.2c0.7,1.2,0.9,2.6,0.6,3.9
			c-0.4,1.4-0.9,3.7-1.5,6.4l28.1-6.8c4.9-1.2,9.2-4.2,12.1-8.4c1.4-2,2.3-4.3,2.7-6.8c0.4-2.4,0.4-4.9-0.2-7.3l0,0L168.7,72.1z"/>
		<path d="M43.1,54.5c-0.6,0-1.2-0.2-1.7-0.6s-0.8-1-0.8-1.6s0-1.2,0.4-1.8s0.9-0.9,1.5-1l81.7-20.1c0.7-0.2,1.3,0,1.9,0.3
			c0.6,0.4,1,0.9,1.2,1.6c0.2,0.6,0,1.3-0.3,1.9c-0.3,0.6-0.9,1-1.6,1.2L43.7,54.5C43.5,54.5,43.3,54.5,43.1,54.5L43.1,54.5z"/>
		<path d="M47.2,74.6c-0.6,0-1.2-0.2-1.7-0.6s-0.8-1-0.8-1.6s0-1.2,0.4-1.8c0.3-0.5,0.9-0.9,1.5-1L97.1,57c0.3,0,0.7-0.1,1,0
			c0.3,0,0.7,0.2,0.9,0.3s0.5,0.4,0.7,0.7s0.3,0.6,0.4,0.9c0,0.3,0,0.7,0,1s-0.2,0.7-0.3,0.9c-0.2,0.3-0.4,0.5-0.7,0.7
			c-0.3,0.2-0.6,0.3-0.9,0.4L47.7,74.5C47.5,74.5,47.3,74.5,47.2,74.6L47.2,74.6z"/>
		<path d="M49.8,92.7c-0.6,0-1.2-0.2-1.7-0.6s-0.8-1-0.8-1.6s0-1.2,0.4-1.8c0.4-0.5,0.9-0.9,1.5-1l81.4-19.5c0.7-0.2,1.4,0,1.9,0.3
			c0.6,0.3,1,0.9,1.1,1.6c0.2,0.7,0,1.3-0.3,1.9c-0.4,0.6-0.9,1-1.6,1.1L50.3,92.6C50.1,92.6,49.9,92.6,49.8,92.7L49.8,92.7z"/>
		<path d="M133.1,157.2c-0.6,0-1.1-0.2-1.6-0.6c-0.5-0.4-13.3-10.9-13.3-23s5.3-32.6,6.9-39.4c0.2-0.7,0-1.4-0.3-2
			c-2-3.2-4.6-4.6-7.7-4.1c-4.3,0.7-7.8,13.6-8.8,22c0,0.7-0.4,1.3-0.9,1.7c-0.5,0.4-1.2,0.6-1.9,0.5c-0.7,0-1.3-0.4-1.7-0.9
			c-0.4-0.5-0.6-1.2-0.5-1.9c0.5-4.1,1.4-8.1,2.5-12c2.6-8.9,6.1-13.7,10.6-14.4c5.2-0.9,9.9,1.5,12.9,6.4c0.5,0.9,0.9,1.8,1.1,2.8
			s0.1,2-0.1,3c-1.6,6.7-6.8,29.2-6.8,38.2s11.3,18.9,11.4,19c0.4,0.3,0.7,0.8,0.8,1.3s0.1,1,0,1.5c-0.2,0.5-0.5,0.9-0.9,1.2
			s-0.9,0.5-1.5,0.5l0,0L133.1,157.2z"/>
	</g>
	<g>
		<path d="M85.2,317.2l-7-10.2L68,300l10.2-7l7-10.2l7,10.2l10.2,6.9l-10.2,7l-7,10.2V317.2z M69.8,300l9.2,6.3l6.2,9.1l6.3-9.2
			l9.1-6.2l-9.2-6.3l-6.3-9.1l-6.3,9.2l-9.1,6.2H69.8z"/>
	</g>
	<g>
		<g>
			<g>
				<defs>
					<polygon id="SVGID_1_" points="337.3,16.3 347.9,0.9 358.5,16.4 373.9,26.9 358.5,37.5 347.9,52.9 337.3,37.5 321.9,26.9 					
						"/>
				</defs>
				<clipPath id="SVGID_00000036212786371162111880000007191356024131617172_">
					<use xlink:href="#SVGID_1_"  style="overflow:visible;"/>
				</clipPath>
				<g style="clip-path:url(#SVGID_00000036212786371162111880000007191356024131617172_);">
					<rect x="321.9" y="0.9" class="st4" width="8.3" height="52"/>
					<rect x="330.2" y="0.9" class="st4" width="1.2" height="52"/>
					<rect x="331.4" y="0.9" class="st5" width="1.2" height="52"/>
					<rect x="332.6" y="0.9" class="st6" width="1.2" height="52"/>
					<rect x="333.8" y="0.9" class="st7" width="1.2" height="52"/>
					<rect x="335" y="0.9" class="st8" width="1.2" height="52"/>
					<rect x="336.2" y="0.9" class="st9" width="1.2" height="52"/>
					<rect x="337.4" y="0.9" class="st10" width="1.2" height="52"/>
					<rect x="338.6" y="0.9" class="st11" width="1.2" height="52"/>
					<rect x="339.8" y="0.9" class="st12" width="1.2" height="52"/>
					<rect x="341" y="0.9" class="st13" width="1.2" height="52"/>
					<rect x="342.2" y="0.9" class="st14" width="1.2" height="52"/>
					<rect x="343.4" y="0.9" class="st15" width="1.2" height="52"/>
					<rect x="344.6" y="0.9" class="st16" width="1.2" height="52"/>
					<rect x="345.8" y="0.9" class="st16" width="0.9" height="52"/>
					<rect x="346.7" y="0.9" class="st17" width="0.9" height="52"/>
					<rect x="347.5" y="0.9" class="st18" width="0.9" height="52"/>
					<rect x="348.4" y="0.9" class="st19" width="0.9" height="52"/>
					<rect x="349.2" y="0.9" class="st20" width="0.9" height="52"/>
					<rect x="350.1" y="0.9" class="st21" width="0.9" height="52"/>
					<rect x="350.9" y="0.9" class="st22" width="0.9" height="52"/>
					<rect x="351.8" y="0.9" class="st23" width="0.9" height="52"/>
					<rect x="352.6" y="0.9" class="st24" width="0.9" height="52"/>
					<rect x="353.5" y="0.9" class="st25" width="0.9" height="52"/>
					<rect x="354.3" y="0.9" class="st26" width="0.9" height="52"/>
					<rect x="355.2" y="0.9" class="st27" width="0.9" height="52"/>
					<rect x="356" y="0.9" class="st28" width="0.9" height="52"/>
					<rect x="356.9" y="0.9" class="st29" width="0.9" height="52"/>
					<rect x="357.7" y="0.9" class="st30" width="0.9" height="52"/>
					<rect x="358.6" y="0.9" class="st31" width="0.9" height="52"/>
					<rect x="359.4" y="0.9" class="st32" width="0.9" height="52"/>
					<rect x="360.3" y="0.9" class="st33" width="0.9" height="52"/>
					<rect x="361.1" y="0.9" class="st34" width="0.9" height="52"/>
					<rect x="362" y="0.9" class="st35" width="0.9" height="52"/>
					<rect x="362.8" y="0.9" class="st36" width="0.9" height="52"/>
					<rect x="363.7" y="0.9" class="st37" width="0.9" height="52"/>
					<rect x="364.5" y="0.9" class="st0" width="0.9" height="52"/>
					<rect x="365.4" y="0.9" class="st38" width="0.9" height="52"/>
					<rect x="366.2" y="0.9" class="st39" width="0.9" height="52"/>
					<rect x="367.1" y="0.9" class="st40" width="0.9" height="52"/>
					<rect x="367.9" y="0.9" class="st41" width="0.9" height="52"/>
					<rect x="368.8" y="0.9" class="st42" width="0.9" height="52"/>
					<rect x="369.6" y="0.9" class="st43" width="0.9" height="52"/>
					<rect x="370.5" y="0.9" class="st44" width="0.9" height="52"/>
					<rect x="371.3" y="0.9" class="st45" width="0.9" height="52"/>
					<rect x="372.2" y="0.9" class="st46" width="0.9" height="52"/>
					<rect x="373" y="0.9" class="st47" width="0.9" height="52"/>
					<path class="st47" d="M373.9,52.9v-52V52.9z"/>
				</g>
			</g>
		</g>
		<path d="M347.9,53.8l-10.9-16l-16-10.9L337,16l10.9-16l11,16l15.9,10.9l-16,10.9L347.9,53.8z M322.8,26.9l15,10.3L347.9,52
			l10.3-15L373,26.8l-14.9-10.2L347.9,1.7l-10.3,15L322.8,26.9z"/>
	</g>
	<g>
		<g>
			<g>
				<defs>
					<polygon id="SVGID_00000079466881436297118660000006931574001044519594_" points="63.3,170.3 73.9,154.9 84.5,170.4 
						99.9,180.9 84.5,191.5 73.9,206.9 63.3,191.5 47.9,180.9 					"/>
				</defs>
				<clipPath id="SVGID_00000008133307729642108930000001430075416467763859_">
					<use xlink:href="#SVGID_00000079466881436297118660000006931574001044519594_"  style="overflow:visible;"/>
				</clipPath>
				<g style="clip-path:url(#SVGID_00000008133307729642108930000001430075416467763859_);">
					<rect x="47.9" y="154.9" class="st4" width="8.3" height="52"/>
					<rect x="56.2" y="154.9" class="st4" width="1.2" height="52"/>
					<rect x="57.4" y="154.9" class="st5" width="1.2" height="52"/>
					<rect x="58.6" y="154.9" class="st6" width="1.2" height="52"/>
					<rect x="59.8" y="154.9" class="st7" width="1.2" height="52"/>
					<rect x="61" y="154.9" class="st8" width="1.2" height="52"/>
					<rect x="62.2" y="154.9" class="st9" width="1.2" height="52"/>
					<rect x="63.4" y="154.9" class="st10" width="1.2" height="52"/>
					<rect x="64.6" y="154.9" class="st11" width="1.2" height="52"/>
					<rect x="65.8" y="154.9" class="st12" width="1.2" height="52"/>
					<rect x="67" y="154.9" class="st13" width="1.2" height="52"/>
					<rect x="68.2" y="154.9" class="st14" width="1.2" height="52"/>
					<rect x="69.4" y="154.9" class="st15" width="1.2" height="52"/>
					<rect x="70.6" y="154.9" class="st16" width="1.2" height="52"/>
					<rect x="71.8" y="154.9" class="st16" width="0.9" height="52"/>
					<rect x="72.7" y="154.9" class="st17" width="0.9" height="52"/>
					<rect x="73.5" y="154.9" class="st18" width="0.9" height="52"/>
					<rect x="74.4" y="154.9" class="st19" width="0.9" height="52"/>
					<rect x="75.2" y="154.9" class="st20" width="0.9" height="52"/>
					<rect x="76.1" y="154.9" class="st21" width="0.9" height="52"/>
					<rect x="76.9" y="154.9" class="st22" width="0.9" height="52"/>
					<rect x="77.8" y="154.9" class="st23" width="0.9" height="52"/>
					<rect x="78.6" y="154.9" class="st24" width="0.9" height="52"/>
					<rect x="79.5" y="154.9" class="st25" width="0.9" height="52"/>
					<rect x="80.3" y="154.9" class="st26" width="0.9" height="52"/>
					<rect x="81.2" y="154.9" class="st27" width="0.9" height="52"/>
					<rect x="82" y="154.9" class="st28" width="0.9" height="52"/>
					<rect x="82.9" y="154.9" class="st29" width="0.9" height="52"/>
					<rect x="83.7" y="154.9" class="st30" width="0.9" height="52"/>
					<rect x="84.6" y="154.9" class="st31" width="0.9" height="52"/>
					<rect x="85.4" y="154.9" class="st32" width="0.9" height="52"/>
					<rect x="86.3" y="154.9" class="st33" width="0.9" height="52"/>
					<rect x="87.1" y="154.9" class="st34" width="0.9" height="52"/>
					<rect x="88" y="154.9" class="st35" width="0.9" height="52"/>
					<rect x="88.8" y="154.9" class="st36" width="0.9" height="52"/>
					<rect x="89.7" y="154.9" class="st37" width="0.9" height="52"/>
					<rect x="90.5" y="154.9" class="st0" width="0.9" height="52"/>
					<rect x="91.4" y="154.9" class="st38" width="0.9" height="52"/>
					<rect x="92.2" y="154.9" class="st39" width="0.9" height="52"/>
					<rect x="93.1" y="154.9" class="st40" width="0.9" height="52"/>
					<rect x="93.9" y="154.9" class="st41" width="0.9" height="52"/>
					<rect x="94.8" y="154.9" class="st42" width="0.9" height="52"/>
					<rect x="95.6" y="154.9" class="st43" width="0.9" height="52"/>
					<rect x="96.5" y="154.9" class="st44" width="0.9" height="52"/>
					<rect x="97.3" y="154.9" class="st45" width="0.9" height="52"/>
					<rect x="98.2" y="154.9" class="st46" width="0.9" height="52"/>
					<rect x="99" y="154.9" class="st47" width="0.9" height="52"/>
					<path class="st47" d="M99.9,206.9v-52V206.9z"/>
				</g>
			</g>
		</g>
		<path d="M73.9,207.8l-10.9-16l-16-10.9L63,170l10.9-16l11,16l15.9,10.9l-16,10.9L73.9,207.8z M48.8,180.9l15,10.3L73.9,206
			l10.3-15L99,180.8l-14.9-10.2l-10.2-14.9l-10.3,15C63.6,170.7,48.8,180.9,48.8,180.9z"/>
	</g>
	<rect x="212.7" y="65.7" width="5" height="28.5"/>
	<path d="M215.2,67.8c-6.1,0-11-4.9-11-11s4.9-11,11-11s11,4.9,11,11S221.3,67.8,215.2,67.8z M215.2,50.9c-3.3,0-6,2.7-6,6
		s2.7,6,6,6s6-2.7,6-6S218.5,50.9,215.2,50.9z"/>
	<path d="M188,164.5c-5.5,0-10-4.5-10-10s4.5-10,10-10s10,4.5,10,10S193.5,164.5,188,164.5z M188,147.5c-3.8,0-7,3.1-7,7s3.1,7,7,7
		s7-3.1,7-7S191.9,147.5,188,147.5z"/>
	<path d="M237.3,164.5c-5.5,0-10-4.5-10-10s4.5-10,10-10s10,4.5,10,10S242.8,164.5,237.3,164.5z M237.3,147.5c-3.8,0-7,3.1-7,7
		s3.1,7,7,7s7-3.1,7-7S241.2,147.5,237.3,147.5z"/>
	<path d="M239.1,199.2h-50.2c-5.4,0-9.8-4.4-9.8-9.8v-4.9c0-2.8,1.1-5.2,3.1-6.5c2-1.4,4.5-1.6,7.2-0.6c15.8,6,33.3,6,49.1,0
		c2.7-1,5.2-0.8,7.2,0.6c2,1.4,3.1,3.7,3.1,6.5v4.9c0,5.4-4.4,9.8-9.8,9.8H239.1z M186.2,179.8c-0.9,0-1.6,0.2-2.3,0.7
		c-1.1,0.8-1.8,2.2-1.8,4.1v4.9c0,3.7,3,6.8,6.8,6.8h50.2c3.7,0,6.8-3,6.8-6.8v-4.9c0-1.8-0.6-3.3-1.8-4.1c-1.1-0.8-2.7-0.9-4.4-0.2
		c-16.5,6.2-34.7,6.2-51.2,0c-0.8-0.3-1.5-0.4-2.2-0.4L186.2,179.8z"/>
</g>
<g>
	<g class="st49">
		<path d="M572.5,98.5c-0.2-0.8-0.8-1.1-1.7-1.1h-1V92h4.5c2.6,0,4.1,0.6,4.6,2.9l5.1,21c0.5,2,0.6,3.7,0.6,3.7h0.1
			c0,0,0.2-1.7,0.8-3.7l6.8-23.8h5.8l6.4,23.8c0.6,2,0.7,3.7,0.7,3.7h0.1c0,0,0.2-1.7,0.6-3.7l5.2-21c0.5-2.3,1.9-2.9,4.6-2.9h4.5
			v5.5h-1c-0.9,0-1.5,0.2-1.7,1.1l-7.8,28.6h-8l-5.7-19.9c-0.6-2.2-0.9-4.4-0.9-4.4h-0.1c0,0-0.3,2.1-1,4.4l-6,19.9h-8L572.5,98.5z"
			/>
		<path d="M625.4,98.4c0-0.7-0.4-1.1-1.2-1.1h-2.1V92h6.4c2.5,0,3.6,1,3.6,3.3v8.9c0,1.2-0.1,2.1-0.1,2.1h0.1c1.3-2.4,4.6-5,9.2-5
			c6,0,9.4,2.9,9.4,9.6v9.9c0,0.7,0.4,1.1,1.2,1.1h2.1v5.3h-6.4c-2.5,0-3.5-1-3.5-3.4v-11.6c0-3.1-0.9-5.2-4.3-5.2
			c-3.5,0-6.3,2.2-7.3,5.3c-0.3,1-0.4,2.1-0.4,3.3v11.6h-6.7V98.4z"/>
		<path d="M670.3,101.3c7.7,0,11.9,5.3,11.9,12c0,0.7-0.2,2.3-0.2,2.3h-18.5c0.5,4.5,4,6.8,8.1,6.8c4.3,0,7.5-2.8,7.5-2.8l2.8,4.4
			c0,0-4.1,3.8-10.8,3.8c-8.9,0-14.4-6.1-14.4-13.2C656.6,106.7,662.2,101.3,670.3,101.3z M675.3,111.2c-0.1-3-2.3-5.1-5.1-5.1
			c-3.4,0-5.8,1.9-6.6,5.1H675.3z"/>
		<path d="M688.7,108.3c0-0.7-0.4-1.1-1.2-1.1h-2.1v-5.4h6.2c2.4,0,3.5,1,3.5,2.8v0.7c0,0.5-0.1,1.1-0.1,1.1h0.1
			c1.2-2.1,4.1-5.3,9.5-5.3c6,0,9.4,2.9,9.4,9.6v9.9c0,0.7,0.4,1.1,1.2,1.1h2.1v5.3h-6.4c-2.5,0-3.6-1-3.6-3.4v-11.6
			c0-3.1-0.8-5.2-4.2-5.2c-3.6,0-6.3,2.1-7.2,5.2c-0.4,1-0.5,2.2-0.5,3.4v11.6h-6.6V108.3z"/>
		<path d="M736.7,108.3c0-0.7-0.4-1.1-1.2-1.1h-2.1v-5.4h6.4c2.5,0,3.5,1,3.5,3.4v15.5c0,0.7,0.4,1.1,1.2,1.1h2.1v5.3h-6.4
			c-2.5,0-3.5-1-3.5-3.4V108.3z M737,92h5.8v5.8H737V92z"/>
		<path d="M752.3,108.3c0-0.7-0.4-1.1-1.2-1.1H749v-5.4h6.2c2.4,0,3.5,1,3.5,2.8v0.7c0,0.5-0.1,1.1-0.1,1.1h0.1
			c1.2-2.1,4.1-5.3,9.5-5.3c6,0,9.4,2.9,9.4,9.6v9.9c0,0.7,0.4,1.1,1.2,1.1h2.1v5.3h-6.4c-2.5,0-3.6-1-3.6-3.4v-11.6
			c0-3.1-0.8-5.2-4.2-5.2c-3.6,0-6.3,2.1-7.2,5.2c-0.4,1-0.5,2.2-0.5,3.4v11.6h-6.6V108.3z"/>
		<path d="M809.6,101.3c5.8,0,7.7,3.1,7.7,3.1h0.1c0,0-0.1-0.6-0.1-1.5v-4.5c0-0.7-0.4-1.1-1.2-1.1h-2.1V92h6.4c2.5,0,3.6,1,3.6,3.4
			v25.4c0,0.7,0.4,1.1,1.2,1.1h2.1v5.3h-6.2c-2.4,0-3.3-1.1-3.3-2.6c0-0.5,0-0.9,0-0.9h-0.1c0,0-2.2,4.1-8.4,4.1
			c-7.3,0-12-5.4-12-13.2C797.4,106.5,802.5,101.3,809.6,101.3z M817.6,114.5c0-3.9-2.2-7.8-6.6-7.8c-3.7,0-6.7,2.8-6.7,7.8
			c0,4.8,2.7,7.9,6.6,7.9C814.3,122.5,817.6,120.1,817.6,114.5z"/>
		<path d="M844.9,101.3c8.2,0,14.7,5.5,14.7,13.2c0,7.8-6.5,13.2-14.7,13.2c-8.2,0-14.7-5.5-14.7-13.2
			C830.2,106.8,836.7,101.3,844.9,101.3z M844.9,122.4c4.4,0,8-3.2,8-7.9c0-4.7-3.6-7.9-8-7.9c-4.3,0-8,3.2-8,7.9
			C836.9,119.2,840.5,122.4,844.9,122.4z"/>
		<path d="M865.6,108.3c0-0.7-0.4-1.1-1.2-1.1h-2.1v-5.4h6.4c2.5,0,3.5,1,3.5,3.3v11.7c0,3.1,0.8,5.2,4.2,5.2c4.8,0,7.5-4,7.5-8.5
			v-11.6h6.7v18.9c0,0.7,0.4,1.1,1.2,1.1h2.1v5.3h-6.2c-2.3,0-3.5-1-3.5-2.8v-0.7c0-0.6,0.1-1.1,0.1-1.1h-0.1
			c-1.3,2.6-4.6,5.3-9.3,5.3c-5.7,0-9.3-2.7-9.3-9.6V108.3z"/>
		<path d="M899,98.4c0-0.7-0.4-1.1-1.2-1.1h-2.1V92h6.4c2.5,0,3.6,1,3.6,3.4v7.3c0,1.2-0.1,2.1-0.1,2.1h0.1c0,0,2.4-3.5,8.1-3.5
			c7.3,0,11.9,5.4,11.9,13.2c0,8-5.2,13.2-12.3,13.2c-5.6,0-8-3.6-8-3.6h-0.1c0,0,0.1,0.7,0.1,1.7v1.3H899V98.4z M912.2,122.5
			c3.6,0,6.7-2.8,6.7-7.8c0-4.8-2.7-7.9-6.7-7.9c-3.5,0-6.7,2.4-6.7,8C905.5,118.6,907.7,122.5,912.2,122.5z"/>
		<path d="M931.9,106.9h-3.5v-5h3.6V95h6.5v6.9h6.1v5h-6.1v10.2c0,4.2,3.5,4.8,5.3,4.8c0.7,0,1.2-0.1,1.2-0.1v5.5
			c0,0-0.8,0.1-2.1,0.1c-3.7,0-11.2-1-11.2-9.5V106.9z"/>
		<path d="M954.6,114.6c0-7.2,8.7-8.3,8.7-13.4c0-2.3-2.2-4.1-5.1-4.1c-3,0-5.6,2.1-5.6,2.1l-3.7-4.3c0,0,3.6-3.6,9.9-3.6
			c6,0,11.5,3.5,11.5,9.3c0,8.2-9.2,9.1-9.2,14.5v1.9h-6.5V114.6z M954.6,121.3h6.5v5.9h-6.5V121.3z"/>
	</g>
	<g class="st49">
		<path d="M574.2,157h-3.4v-5.5H586c11.5,0,19.1,6.4,19.1,17.6c0,11.1-7.5,17.7-19.1,17.7h-8.2c-2.5,0-3.6-1-3.6-3.4V157z
			 M582.3,181.2h3.4c7.5,0,12.3-4.2,12.3-12.2c0-7.8-4.9-12.1-12.3-12.1h-4.5v23.1C581.1,180.8,581.5,181.2,582.3,181.2z"/>
		<path d="M611.4,167.8c0-0.7-0.4-1.1-1.2-1.1h-2.1v-5.4h6.1c2.4,0,3.6,0.9,3.6,3.1v1.5c0,0.9-0.1,1.6-0.1,1.6h0.1
			c1.2-3.6,4.4-6.5,8.5-6.5c0.6,0,1.2,0.1,1.2,0.1v6.2c0,0-0.7-0.1-1.6-0.1c-2.8,0-6.1,1.5-7.3,5.3c-0.4,1.2-0.6,2.6-0.6,4.1v10
			h-6.6V167.8z"/>
		<path d="M644.1,160.8c8.2,0,14.7,5.5,14.7,13.2c0,7.8-6.5,13.2-14.7,13.2c-8.2,0-14.7-5.5-14.7-13.2
			C629.4,166.3,635.9,160.8,644.1,160.8z M644.1,181.9c4.4,0,8-3.2,8-7.9c0-4.7-3.6-7.9-8-7.9c-4.3,0-8,3.2-8,7.9
			C636.2,178.7,639.8,181.9,644.1,181.9z"/>
		<path d="M664.9,167.8c0-0.7-0.4-1.1-1.2-1.1h-2.1v-5.4h6c2.5,0,3.4,1,3.4,2.4c0,0.6,0,1,0,1h0.1c0,0,2.3-4,8.5-4
			c7.3,0,12,5.4,12,13.2c0,8-5.3,13.2-12.3,13.2c-5.3,0-7.7-3.3-7.7-3.3h-0.1c0,0,0.1,0.9,0.1,2.2v10.5h-6.6V167.8z M678,182
			c3.7,0,6.8-2.8,6.8-7.8c0-4.8-2.7-7.9-6.7-7.9c-3.5,0-6.7,2.4-6.7,8C671.4,178.1,673.6,182,678,182z"/>
		<path d="M711.5,167.8c0-0.7-0.4-1.1-1.2-1.1h-2.1v-5.4h6.4c2.5,0,3.5,1,3.5,3.3v11.7c0,3.1,0.8,5.2,4.2,5.2c4.8,0,7.5-4,7.5-8.5
			v-11.6h6.7v18.9c0,0.7,0.4,1.1,1.2,1.1h2.1v5.3h-6.2c-2.3,0-3.5-1-3.5-2.8v-0.7c0-0.6,0.1-1.1,0.1-1.1H730
			c-1.3,2.6-4.6,5.3-9.3,5.3c-5.7,0-9.3-2.7-9.3-9.6V167.8z"/>
		<path d="M745.3,178.6c0,0,3.4,3.7,8,3.7c2.1,0,3.6-0.8,3.6-2.5c0-3.6-14.2-3.5-14.2-11.7c0-5.1,4.8-7.4,10.4-7.4
			c3.6,0,9.4,1.1,9.4,5.3v2.6h-5.9v-1.2c0-1.2-1.9-1.8-3.4-1.8c-2.4,0-4,0.8-4,2.3c0,4,14.3,3.2,14.3,11.6c0,4.8-4.5,7.7-10.3,7.7
			c-7.4,0-11.2-4.5-11.2-4.5L745.3,178.6z"/>
		<path d="M797.1,170.8h0.8v-0.2c0-3.6-1.5-5-5-5c-1.2,0-3.6,0.3-3.6,1.7v1.3h-6.2V166c0-4.7,7.1-5.2,9.8-5.2
			c9,0,11.6,4.4,11.6,10.1v9.4c0,0.7,0.4,1.1,1.2,1.1h2.1v5.3h-6c-2.5,0-3.4-1.3-3.4-2.8c0-0.6,0.1-1.1,0.1-1.1h-0.1
			c0,0-2.1,4.5-8.1,4.5c-4.8,0-9.2-2.8-9.2-7.9C781.2,171.4,792.8,170.8,797.1,170.8z M792,182.4c3.6,0,6.1-3.6,6.1-6.6v-0.6h-1.2
			c-3.5,0-9,0.4-9,4C787.9,180.8,789.2,182.4,792,182.4z"/>
		<path d="M813.3,167.8c0-0.7-0.4-1.1-1.2-1.1H810v-5.4h6.2c2.4,0,3.5,1,3.5,2.8v0.7c0,0.5-0.1,1.1-0.1,1.1h0.1
			c1.2-2.1,4.1-5.3,9.5-5.3c6,0,9.4,2.9,9.4,9.6v9.9c0,0.7,0.4,1.1,1.2,1.1h2.1v5.3h-6.4c-2.5,0-3.6-1-3.6-3.4v-11.6
			c0-3.1-0.8-5.2-4.2-5.2c-3.6,0-6.3,2.1-7.2,5.2c-0.4,1-0.5,2.2-0.5,3.4v11.6h-6.6V167.8z"/>
		<path d="M862,157h-3.4v-5.5h22.6c2.5,0,3.6,1,3.6,3.4v5.4h-6.3V158c0-0.7-0.4-1.1-1.2-1.1h-8.4v9.2H881v5.5h-12.1v8.4
			c0,0.7,0.4,1.1,1.2,1.1h8.6c0.7,0,1.2-0.4,1.2-1.1v-2.1h6.3v5.4c0,2.4-1.1,3.4-3.6,3.4h-17c-2.5,0-3.6-1-3.6-3.4V157z"/>
		<path d="M888.1,181.2h1.6c0.7,0,1.1-0.4,1.2-1.1l2.4-28.6h7.2l7.7,16.8c0.9,2,1.8,4.7,1.8,4.7h0.1c0,0,0.9-2.7,1.8-4.7l7.7-16.8
			h7.2l2.4,28.6c0.1,0.7,0.4,1.1,1.2,1.1h1.6v5.5h-6c-2.5,0-3.3-1-3.5-3.4l-1.3-15.7c-0.2-2.3-0.1-5.5-0.1-5.5h-0.1
			c0,0-1.1,3.5-2.1,5.5l-6.2,13h-5.6l-6.2-13c-0.9-2-2.1-5.5-2.1-5.5h-0.1c0,0,0.2,3.2-0.1,5.5l-1.2,15.7c-0.2,2.4-1.1,3.4-3.6,3.4
			h-6V181.2z"/>
		<path d="M950.7,170.8h0.8v-0.2c0-3.6-1.5-5-5-5c-1.2,0-3.6,0.3-3.6,1.7v1.3h-6.2V166c0-4.7,7.1-5.2,9.8-5.2
			c9,0,11.6,4.4,11.6,10.1v9.4c0,0.7,0.4,1.1,1.2,1.1h2.1v5.3h-6c-2.5,0-3.4-1.3-3.4-2.8c0-0.6,0.1-1.1,0.1-1.1H952
			c0,0-2.1,4.5-8.1,4.5c-4.8,0-9.2-2.8-9.2-7.9C934.8,171.4,946.3,170.8,950.7,170.8z M945.6,182.4c3.6,0,6.1-3.6,6.1-6.6v-0.6h-1.2
			c-3.5,0-9,0.4-9,4C941.5,180.8,942.8,182.4,945.6,182.4z"/>
		<path d="M967.1,167.8c0-0.7-0.4-1.1-1.2-1.1h-2.1v-5.4h6.4c2.5,0,3.5,1,3.5,3.4v15.5c0,0.7,0.4,1.1,1.2,1.1h2.1v5.3h-6.4
			c-2.5,0-3.5-1-3.5-3.4V167.8z M967.4,151.5h5.8v5.8h-5.8V151.5z"/>
		<path d="M982.5,157.9c0-0.7-0.4-1.1-1.2-1.1h-2.1v-5.4h6.4c2.5,0,3.6,1,3.6,3.4v25.4c0,0.7,0.4,1.1,1.2,1.1h2.1v5.3h-6.3
			c-2.5,0-3.6-1-3.6-3.4V157.9z"/>
	</g>
</g>
</svg>
