<?xml version="1.0" encoding="UTF-8"?>
<svg id="Layer_2" data-name="Layer 2" xmlns="http://www.w3.org/2000/svg" viewBox="0 0 421.59 143.76">
  <defs>
    <style>
      .cls-1 {
        isolation: isolate;
      }

      .cls-2, .cls-3 {
        stroke-width: 0px;
      }

      .cls-3 {
        fill: #3f84ff;
      }
    </style>
  </defs>
  <g id="Layer_2-2" data-name="Layer 2">
    <path class="cls-3" d="m11.01,143.74c55.2-4.4,110.5-8.7,165.9-5.3,6.8.4,6.7-10.1,0-10.5-55.3-3.4-110.7,1-165.9,5.3-6.7.5-6.8,11,0,10.5h0Z"/>
    <g class="cls-1">
      <path class="cls-2" d="m11.74,7.29c-.21-.84-.79-1.09-1.69-1.09h-1V.69h4.48c2.63,0,4.06.6,4.63,2.88l5.11,20.98c.47,1.98.63,3.72.63,3.72h.11s.21-1.69.79-3.72L31.6.79h5.85l6.43,23.76c.58,2.03.74,3.72.74,3.72h.11s.16-1.74.63-3.72l5.16-20.98c.53-2.28,1.95-2.88,4.58-2.88h4.53v5.51h-1c-.95,0-1.47.25-1.69,1.09l-7.8,28.62h-7.95l-5.69-19.94c-.63-2.23-.95-4.37-.95-4.37h-.11s-.32,2.08-1,4.37l-5.95,19.94h-8.01L11.74,7.29Z"/>
      <path class="cls-2" d="m64.62,7.14c0-.74-.42-1.09-1.16-1.09h-2.11V.69h6.37c2.48,0,3.58,1.04,3.58,3.32v8.88c0,1.24-.11,2.13-.11,2.13h.11c1.26-2.43,4.58-5.01,9.22-5.01,6,0,9.38,2.93,9.38,9.62v9.87c0,.69.42,1.09,1.16,1.09h2.11v5.31h-6.37c-2.48,0-3.53-.99-3.53-3.37v-11.61c0-3.08-.9-5.16-4.27-5.16s-6.27,2.18-7.27,5.26c-.32.99-.42,2.08-.42,3.27v11.61h-6.69V7.14Z"/>
      <path class="cls-2" d="m109.5,10.02c7.69,0,11.9,5.31,11.9,12,0,.74-.16,2.33-.16,2.33h-18.54c.53,4.46,4,6.8,8.06,6.8,4.32,0,7.53-2.83,7.53-2.83l2.79,4.37s-4.11,3.82-10.8,3.82c-8.9,0-14.43-6.05-14.43-13.24,0-7.79,5.58-13.25,13.64-13.25Zm5.06,9.97c-.11-3.03-2.32-5.11-5.06-5.11-3.42,0-5.85,1.93-6.58,5.11h11.64Z"/>
      <path class="cls-2" d="m127.88,17.06c0-.74-.42-1.09-1.16-1.09h-2.11v-5.36h6.16c2.37,0,3.53,1.04,3.53,2.83v.74c0,.55-.11,1.09-.11,1.09h.11c1.16-2.13,4.06-5.26,9.48-5.26,5.95,0,9.38,2.93,9.38,9.62v9.87c0,.69.42,1.09,1.16,1.09h2.11v5.31h-6.37c-2.53,0-3.58-.99-3.58-3.37v-11.61c0-3.08-.84-5.16-4.21-5.16-3.58,0-6.27,2.13-7.22,5.16-.37,1.04-.53,2.18-.53,3.37v11.61h-6.64v-18.85Z"/>
      <path class="cls-2" d="m175.92,17.06c0-.74-.42-1.09-1.16-1.09h-2.11v-5.36h6.37c2.48,0,3.53,1.04,3.53,3.37v15.53c0,.69.42,1.09,1.16,1.09h2.11v5.31h-6.37c-2.48,0-3.53-.99-3.53-3.37v-15.48Zm.32-16.37h5.79v5.8h-5.79V.69Z"/>
      <path class="cls-2" d="m191.46,17.06c0-.74-.42-1.09-1.16-1.09h-2.11v-5.36h6.16c2.37,0,3.53,1.04,3.53,2.83v.74c0,.55-.11,1.09-.11,1.09h.11c1.16-2.13,4.06-5.26,9.48-5.26,5.95,0,9.38,2.93,9.38,9.62v9.87c0,.69.42,1.09,1.16,1.09h2.11v5.31h-6.37c-2.53,0-3.58-.99-3.58-3.37v-11.61c0-3.08-.84-5.16-4.21-5.16-3.58,0-6.27,2.13-7.22,5.16-.37,1.04-.53,2.18-.53,3.37v11.61h-6.64v-18.85Z"/>
      <path class="cls-2" d="m248.82,10.02c5.85,0,7.74,3.08,7.74,3.08h.11s-.05-.65-.05-1.49v-4.46c0-.74-.42-1.09-1.16-1.09h-2.11V.69h6.37c2.48,0,3.58,1.04,3.58,3.37v25.45c0,.69.42,1.09,1.16,1.09h2.05v5.31h-6.16c-2.42,0-3.32-1.09-3.32-2.58v-.94h-.11s-2.21,4.12-8.38,4.12c-7.27,0-11.96-5.41-11.96-13.24s5.11-13.25,12.22-13.25Zm7.95,13.2c0-3.92-2.16-7.79-6.64-7.79-3.69,0-6.74,2.83-6.74,7.84s2.69,7.94,6.64,7.94c3.48,0,6.74-2.38,6.74-7.99Z"/>
      <path class="cls-2" d="m284.06,10.02c8.22,0,14.75,5.51,14.75,13.25s-6.53,13.24-14.75,13.24-14.7-5.46-14.7-13.24,6.53-13.25,14.7-13.25Zm0,21.13c4.37,0,8.01-3.17,8.01-7.89s-3.63-7.89-8.01-7.89-7.95,3.22-7.95,7.89,3.63,7.89,7.95,7.89Z"/>
      <path class="cls-2" d="m304.76,17.06c0-.74-.42-1.09-1.16-1.09h-2.11v-5.36h6.37c2.48,0,3.53,1.04,3.53,3.32v11.66c0,3.08.84,5.16,4.16,5.16,4.85,0,7.53-4.02,7.53-8.53v-11.61h6.69v18.9c0,.69.42,1.09,1.16,1.09h2.11v5.31h-6.16c-2.32,0-3.53-1.04-3.53-2.83v-.69c0-.6.05-1.14.05-1.14h-.11c-1.26,2.63-4.64,5.26-9.27,5.26-5.74,0-9.27-2.73-9.27-9.62v-9.82Z"/>
      <path class="cls-2" d="m338.26,7.14c0-.74-.42-1.09-1.16-1.09h-2.11V.69h6.37c2.48,0,3.58,1.04,3.58,3.37v7.34c0,1.24-.11,2.13-.11,2.13h.11s2.37-3.52,8.06-3.52c7.27,0,11.9,5.41,11.9,13.25s-5.21,13.24-12.33,13.24c-5.58,0-8.01-3.57-8.01-3.57h-.11s.11.69.11,1.69v1.29h-6.32V7.14Zm13.17,24.06c3.63,0,6.74-2.83,6.74-7.84s-2.74-7.94-6.69-7.94c-3.48,0-6.74,2.38-6.74,7.99,0,3.92,2.21,7.79,6.69,7.79Z"/>
      <path class="cls-2" d="m371.13,15.63h-3.48v-5.01h3.63V3.72h6.53v6.9h6.11v5.01h-6.11v10.22c0,4.17,3.48,4.76,5.32,4.76.74,0,1.21-.1,1.21-.1v5.51s-.84.15-2.05.15c-3.74,0-11.17-1.04-11.17-9.52v-11.01Z"/>
      <path class="cls-2" d="m393.78,23.36c0-7.19,8.69-8.33,8.69-13.44,0-2.33-2.21-4.12-5.11-4.12s-5.64,2.08-5.64,2.08l-3.69-4.32s3.63-3.57,9.9-3.57,11.48,3.47,11.48,9.33c0,8.19-9.17,9.13-9.17,14.48v1.93h-6.48v-2.38Zm0,6.7h6.48v5.85h-6.48v-5.85Z"/>
    </g>
    <g class="cls-1">
      <path class="cls-2" d="m3.42,65.7H0v-5.51h15.22c11.54,0,19.07,6.45,19.07,17.56s-7.53,17.66-19.07,17.66H7.01c-2.53,0-3.58-.99-3.58-3.37v-26.34Zm8.06,24.21h3.37c7.48,0,12.27-4.22,12.27-12.15s-4.9-12.06-12.27-12.06h-4.53v23.12c0,.69.42,1.09,1.16,1.09Z"/>
      <path class="cls-2" d="m40.61,76.56c0-.74-.42-1.09-1.16-1.09h-2.11v-5.36h6.11c2.37,0,3.58.94,3.58,3.08v1.49c0,.94-.11,1.59-.11,1.59h.11c1.21-3.62,4.42-6.5,8.53-6.5.58,0,1.21.1,1.21.1v6.2s-.69-.1-1.63-.1c-2.84,0-6.11,1.54-7.32,5.31-.37,1.24-.58,2.63-.58,4.12v10.02h-6.64v-18.85Z"/>
      <path class="cls-2" d="m73.32,69.52c8.22,0,14.75,5.51,14.75,13.25s-6.53,13.24-14.75,13.24-14.7-5.46-14.7-13.24,6.53-13.25,14.7-13.25Zm0,21.13c4.37,0,8.01-3.17,8.01-7.89s-3.63-7.89-8.01-7.89-7.95,3.22-7.95,7.89,3.63,7.89,7.95,7.89Z"/>
      <path class="cls-2" d="m94.13,76.56c0-.74-.42-1.09-1.16-1.09h-2.11v-5.36h5.95c2.48,0,3.37,1.04,3.37,2.43v.99h.11s2.26-4.02,8.53-4.02c7.27,0,11.96,5.41,11.96,13.25s-5.27,13.24-12.33,13.24c-5.32,0-7.69-3.32-7.69-3.32h-.11s.11.89.11,2.18v10.47h-6.64v-28.77Zm13.12,14.14c3.69,0,6.79-2.83,6.79-7.84s-2.74-7.94-6.69-7.94c-3.48,0-6.74,2.38-6.74,7.99,0,3.92,2.21,7.79,6.64,7.79Z"/>
      <path class="cls-2" d="m140.69,76.56c0-.74-.42-1.09-1.16-1.09h-2.11v-5.36h6.37c2.48,0,3.53,1.04,3.53,3.32v11.66c0,3.08.84,5.16,4.16,5.16,4.85,0,7.53-4.02,7.53-8.53v-11.61h6.69v18.9c0,.7.42,1.09,1.16,1.09h2.11v5.31h-6.16c-2.32,0-3.53-1.04-3.53-2.83v-.7c0-.59.05-1.14.05-1.14h-.11c-1.26,2.63-4.64,5.26-9.27,5.26-5.74,0-9.27-2.73-9.27-9.62v-9.82Z"/>
      <path class="cls-2" d="m174.5,87.38s3.42,3.72,8.01,3.72c2.05,0,3.63-.79,3.63-2.48,0-3.57-14.17-3.52-14.17-11.71,0-5.06,4.85-7.39,10.43-7.39,3.63,0,9.43,1.14,9.43,5.26v2.63h-5.9v-1.24c0-1.19-1.9-1.79-3.37-1.79-2.37,0-4,.79-4,2.28,0,3.97,14.27,3.17,14.27,11.61,0,4.76-4.48,7.74-10.32,7.74-7.37,0-11.17-4.51-11.17-4.51l3.16-4.12Z"/>
      <path class="cls-2" d="m226.33,79.54h.84v-.2c0-3.62-1.53-4.96-4.95-4.96-1.21,0-3.58.3-3.58,1.69v1.34h-6.21v-2.68c0-4.71,7.06-5.21,9.85-5.21,8.95,0,11.59,4.42,11.59,10.07v9.42c0,.7.42,1.09,1.16,1.09h2.11v5.31h-6c-2.48,0-3.42-1.29-3.42-2.78,0-.64.05-1.09.05-1.09h-.11s-2.05,4.46-8.11,4.46c-4.79,0-9.17-2.83-9.17-7.89,0-7.94,11.59-8.58,15.96-8.58Zm-5.16,11.56c3.58,0,6.11-3.57,6.11-6.65v-.59h-1.16c-3.48,0-9.01.45-9.01,3.97,0,1.69,1.32,3.27,4.06,3.27Z"/>
      <path class="cls-2" d="m242.51,76.56c0-.74-.42-1.09-1.16-1.09h-2.11v-5.36h6.16c2.37,0,3.53,1.04,3.53,2.83v.74c0,.54-.11,1.09-.11,1.09h.11c1.16-2.13,4.06-5.26,9.48-5.26,5.95,0,9.38,2.93,9.38,9.62v9.87c0,.7.42,1.09,1.16,1.09h2.11v5.31h-6.37c-2.53,0-3.58-.99-3.58-3.37v-11.61c0-3.08-.84-5.16-4.21-5.16-3.58,0-6.27,2.13-7.22,5.16-.37,1.04-.53,2.18-.53,3.37v11.61h-6.64v-18.85Z"/>
      <path class="cls-2" d="m291.18,65.7h-3.42v-5.51h22.6c2.48,0,3.58,1.04,3.58,3.37v5.36h-6.27v-2.13c0-.69-.42-1.09-1.16-1.09h-8.43v9.23h12.11v5.51h-12.11v8.38c0,.69.42,1.09,1.16,1.09h8.64c.74,0,1.16-.4,1.16-1.09v-2.13h6.27v5.36c0,2.38-1.11,3.37-3.58,3.37h-16.96c-2.53,0-3.58-.99-3.58-3.37v-26.34Z"/>
      <path class="cls-2" d="m317.35,89.91h1.63c.74,0,1.11-.4,1.16-1.09l2.42-28.62h7.16l7.69,16.77c.9,2.03,1.84,4.71,1.84,4.71h.11s.95-2.68,1.84-4.71l7.69-16.77h7.16l2.42,28.62c.05.69.42,1.09,1.16,1.09h1.63v5.51h-5.95c-2.48,0-3.32-.99-3.53-3.37l-1.26-15.68c-.21-2.33-.05-5.46-.05-5.46h-.11s-1.11,3.47-2.05,5.46l-6.21,13h-5.58l-6.21-13c-.95-1.98-2.05-5.51-2.05-5.51h-.11s.16,3.18-.05,5.51l-1.21,15.68c-.21,2.38-1.11,3.37-3.58,3.37h-5.95v-5.51Z"/>
      <path class="cls-2" d="m379.93,79.54h.84v-.2c0-3.62-1.53-4.96-4.95-4.96-1.21,0-3.58.3-3.58,1.69v1.34h-6.21v-2.68c0-4.71,7.06-5.21,9.85-5.21,8.95,0,11.59,4.42,11.59,10.07v9.42c0,.7.42,1.09,1.16,1.09h2.11v5.31h-6c-2.48,0-3.42-1.29-3.42-2.78,0-.64.05-1.09.05-1.09h-.11s-2.05,4.46-8.11,4.46c-4.79,0-9.17-2.83-9.17-7.89,0-7.94,11.59-8.58,15.96-8.58Zm-5.16,11.56c3.58,0,6.11-3.57,6.11-6.65v-.59h-1.16c-3.48,0-9.01.45-9.01,3.97,0,1.69,1.32,3.27,4.06,3.27Z"/>
      <path class="cls-2" d="m396.31,76.56c0-.74-.42-1.09-1.16-1.09h-2.11v-5.36h6.37c2.48,0,3.53,1.04,3.53,3.37v15.53c0,.7.42,1.09,1.16,1.09h2.11v5.31h-6.37c-2.48,0-3.53-.99-3.53-3.37v-15.48Zm.32-16.37h5.79v5.8h-5.79v-5.8Z"/>
      <path class="cls-2" d="m411.69,66.64c0-.74-.42-1.09-1.16-1.09h-2.11v-5.36h6.37c2.48,0,3.58,1.04,3.58,3.37v25.45c0,.7.42,1.09,1.16,1.09h2.05v5.31h-6.32c-2.53,0-3.58-.99-3.58-3.37v-25.4Z"/>
    </g>
  </g>
</svg>