<?xml version="1.0" encoding="UTF-8"?>
<svg id="Layer_2" xmlns="http://www.w3.org/2000/svg" version="1.1" viewBox="0 0 360.9 304.2">
  <!-- Generator: Adobe Illustrator 29.5.1, SVG Export Plug-In . SVG Version: 2.1.0 Build 141)  -->
  <defs>
    <style>
      .st0 {
        fill: #ffbd00;
      }

      .st1 {
        isolation: isolate;
      }

      .st2 {
        fill: #f5a300;
      }

      .st3 {
        fill: #fff;
      }

      .st4 {
        fill: #ffce31;
      }
    </style>
  </defs>
  <g id="Layer_1-2">
    <g class="st1">
      <g class="st1">
        <g class="st1">
          <path d="M38.6,22.7c5.8,0,10.8,2.1,14.9,6.3,4.2,4.2,6.2,9.3,6.2,15.3s-2.1,11-6.2,15.1c-4.1,4.1-9.1,6.2-14.9,6.2s-11.2-2.1-15.3-6.4c-4.1-4.2-6.1-9.3-6.1-15.1s.9-7.5,2.8-10.8,4.5-5.9,7.8-7.8c3.3-1.9,6.9-2.9,10.7-2.9ZM38.5,30.3c-3.8,0-7,1.3-9.5,3.9s-3.9,6-3.9,10,1.6,8.1,4.9,10.7c2.5,2.1,5.4,3.1,8.7,3.1s6.8-1.3,9.4-4c2.6-2.7,3.9-6,3.9-9.9s-1.3-7.2-3.9-9.9c-2.6-2.7-5.8-4-9.5-4Z"/>
          <path d="M66.2,34.4h7.6v3.1c1.7-1.5,3.3-2.5,4.7-3,1.4-.6,2.8-.9,4.3-.9,3,0,5.5,1,7.6,3.1,1.8,1.8,2.6,4.4,2.6,7.9v20h-7.5v-13.2c0-3.6-.2-6-.5-7.2-.3-1.2-.9-2.1-1.7-2.7-.8-.6-1.8-.9-3-.9s-2.9.5-3.9,1.5c-1.1,1-1.9,2.4-2.3,4.3-.2.9-.3,3-.3,6.1v12.1h-7.6v-30.2Z"/>
          <path d="M107.9,22.7v15c1.4-1.4,2.9-2.4,4.4-3.1,1.6-.7,3.3-1,5.1-1,3.9,0,7.3,1.5,10.1,4.5,2.8,3,4.1,6.8,4.1,11.5s-1.4,8.3-4.3,11.3c-2.9,3-6.2,4.5-10.1,4.5s-3.4-.3-4.9-.9c-1.5-.6-3-1.6-4.5-3v3.2h-7.5V22.7h7.5ZM115.9,40.6c-2.4,0-4.4.8-5.9,2.4-1.6,1.6-2.4,3.8-2.4,6.4s.8,4.9,2.4,6.5c1.6,1.7,3.6,2.5,5.9,2.5s4.3-.8,5.8-2.5,2.4-3.8,2.4-6.4-.8-4.7-2.3-6.4c-1.6-1.7-3.5-2.5-5.9-2.5Z"/>
          <path d="M152.1,33.6c2.9,0,5.5.7,8,2.1,2.5,1.4,4.5,3.4,5.9,5.8,1.4,2.4,2.1,5.1,2.1,7.9s-.7,5.5-2.1,8c-1.4,2.5-3.3,4.4-5.8,5.8-2.4,1.4-5.1,2.1-8.1,2.1-4.3,0-8-1.5-11.1-4.6s-4.6-6.8-4.6-11.2,1.7-8.7,5.2-11.8c3-2.7,6.5-4.1,10.5-4.1ZM152.3,40.7c-2.4,0-4.3.8-5.9,2.5-1.6,1.6-2.4,3.7-2.4,6.3s.8,4.8,2.3,6.4,3.5,2.4,5.9,2.4,4.4-.8,5.9-2.5c1.6-1.6,2.4-3.8,2.4-6.4s-.8-4.7-2.3-6.3c-1.5-1.6-3.5-2.4-5.9-2.4Z"/>
          <path d="M196.7,34.4h7.6v30.2h-7.6v-3.2c-1.5,1.4-3,2.4-4.5,3-1.5.6-3.1.9-4.8.9-3.9,0-7.3-1.5-10.1-4.5s-4.3-6.8-4.3-11.3,1.4-8.5,4.1-11.5c2.8-3,6.1-4.5,10-4.5s3.5.3,5.1,1c1.6.7,3.1,1.7,4.4,3.1v-3.3ZM188.7,40.6c-2.3,0-4.3.8-5.8,2.5-1.6,1.7-2.3,3.8-2.3,6.4s.8,4.8,2.4,6.4c1.6,1.7,3.5,2.5,5.8,2.5s4.4-.8,5.9-2.5c1.6-1.7,2.4-3.8,2.4-6.5s-.8-4.8-2.4-6.4c-1.6-1.6-3.6-2.4-6-2.4Z"/>
          <path d="M210.1,34.4h6.5v3.8c.7-1.5,1.6-2.6,2.8-3.4,1.2-.8,2.4-1.2,3.8-1.2s2,.3,3.1.8l-2.4,6.5c-.9-.4-1.6-.7-2.2-.7-1.2,0-2.2.7-3,2.2-.8,1.4-1.2,4.3-1.2,8.5v1.5s0,12.2,0,12.2h-7.5v-30.2Z"/>
          <path d="M252.4,22.7h7.6v41.9h-7.6v-3.2c-1.5,1.4-3,2.4-4.5,3-1.5.6-3.1.9-4.8.9-3.9,0-7.3-1.5-10.1-4.5-2.8-3-4.3-6.8-4.3-11.3s1.4-8.5,4.1-11.5c2.8-3,6.1-4.5,10-4.5s3.5.3,5.1,1c1.6.7,3.1,1.7,4.4,3.1v-15ZM244.5,40.6c-2.3,0-4.3.8-5.8,2.5-1.6,1.7-2.3,3.8-2.3,6.4s.8,4.8,2.4,6.4c1.6,1.7,3.5,2.5,5.8,2.5s4.4-.8,5.9-2.5c1.6-1.7,2.4-3.8,2.4-6.5s-.8-4.8-2.4-6.4c-1.6-1.6-3.6-2.4-6-2.4Z"/>
          <path d="M270.6,21.9c1.3,0,2.5.5,3.4,1.4,1,1,1.4,2.1,1.4,3.5s-.5,2.5-1.4,3.5c-.9,1-2.1,1.4-3.4,1.4s-2.5-.5-3.4-1.5c-1-1-1.4-2.2-1.4-3.5s.5-2.5,1.4-3.4c.9-.9,2.1-1.4,3.4-1.4ZM266.8,34.4h7.6v30.2h-7.6v-30.2Z"/>
          <path d="M281.3,34.4h7.6v3.1c1.7-1.5,3.3-2.5,4.7-3,1.4-.6,2.8-.9,4.3-.9,3,0,5.5,1,7.6,3.1,1.8,1.8,2.6,4.4,2.6,7.9v20h-7.5v-13.2c0-3.6-.2-6-.5-7.2-.3-1.2-.9-2.1-1.7-2.7-.8-.6-1.8-.9-3-.9s-2.9.5-3.9,1.5c-1.1,1-1.9,2.4-2.3,4.3-.2.9-.3,3-.3,6.1v12.1h-7.6v-30.2Z"/>
          <path d="M337.8,34.4h7.6v25.9c0,5.1-1,8.9-3.1,11.3-2.8,3.3-6.9,4.9-12.5,4.9s-5.5-.4-7.5-1.1c-2-.7-3.7-1.8-5.1-3.3-1.4-1.4-2.4-3.2-3.1-5.2h8.4c.7.9,1.7,1.5,2.9,1.9,1.2.4,2.5.7,4.1.7s3.7-.3,4.9-.9c1.2-.6,2.1-1.4,2.6-2.4.5-1,.8-2.7.8-5.2-1.3,1.3-2.7,2.3-4.2,2.9-1.5.6-3.1.9-5,.9-4.1,0-7.5-1.5-10.3-4.4s-4.2-6.6-4.2-11.1,1.5-8.6,4.4-11.6c2.7-2.6,5.9-3.9,9.6-3.9s3.4.3,4.9,1c1.5.6,3.1,1.7,4.7,3.2v-3.3ZM329.9,40.7c-2.4,0-4.4.8-5.9,2.4-1.6,1.6-2.3,3.6-2.3,6s.8,4.6,2.4,6.2c1.6,1.6,3.6,2.4,6,2.4s4.3-.8,5.8-2.4c1.5-1.6,2.3-3.6,2.3-6.2s-.8-4.6-2.3-6.1-3.5-2.4-5.9-2.4Z"/>
        </g>
      </g>
      <g class="st1">
        <g class="st1">
          <path d="M38.6,85.6h8.3c4.5,0,7.7.4,9.7,1.2s3.5,2.2,4.7,4c1.1,1.8,1.7,4.1,1.7,6.6s-.7,5.2-2.2,7.1c-1.5,1.9-3.5,3.2-6.1,3.9-1.5.4-4.2.6-8.2.6v17.3h-7.8v-40.9ZM46.4,101.6h2.5c1.9,0,3.3-.1,4.1-.4.8-.3,1.4-.7,1.8-1.4.4-.6.7-1.4.7-2.3,0-1.6-.6-2.7-1.8-3.5-.9-.5-2.5-.8-4.9-.8h-2.2v8.4Z"/>
          <path d="M67.9,96.3h6.5v3.8c.7-1.5,1.6-2.6,2.8-3.4,1.2-.8,2.4-1.2,3.8-1.2s2,.3,3.1.8l-2.4,6.5c-.9-.4-1.6-.7-2.2-.7-1.2,0-2.2.7-3,2.2-.8,1.4-1.2,4.3-1.2,8.5v1.5s0,12.2,0,12.2h-7.5v-30.2Z"/>
          <path d="M102.1,95.5c2.9,0,5.5.7,8,2.1,2.5,1.4,4.5,3.4,5.9,5.8,1.4,2.4,2.1,5.1,2.1,7.9s-.7,5.5-2.1,8c-1.4,2.5-3.3,4.4-5.8,5.8-2.4,1.4-5.1,2.1-8.1,2.1-4.3,0-8-1.5-11.1-4.6s-4.6-6.8-4.6-11.2,1.7-8.7,5.2-11.8c3-2.7,6.5-4.1,10.5-4.1ZM102.2,102.6c-2.4,0-4.3.8-5.9,2.5-1.6,1.6-2.4,3.7-2.4,6.3s.8,4.8,2.3,6.4,3.5,2.4,5.9,2.4,4.4-.8,5.9-2.5c1.6-1.6,2.4-3.8,2.4-6.4s-.8-4.7-2.3-6.3c-1.5-1.6-3.5-2.4-5.9-2.4Z"/>
          <path d="M153.9,102.4l-6.3,3.5c-1.2-1.2-2.4-2.1-3.5-2.6-1.2-.5-2.5-.7-4.1-.7-2.8,0-5.1.8-6.9,2.5s-2.6,3.9-2.6,6.5.8,4.7,2.5,6.3c1.7,1.6,3.9,2.4,6.6,2.4s6-1.2,7.9-3.5l6,4.1c-3.2,4.2-7.8,6.3-13.7,6.3s-9.5-1.6-12.5-4.7c-3-3.1-4.5-6.8-4.5-11.1s.7-5.6,2.2-8.1c1.5-2.5,3.5-4.4,6.1-5.8,2.6-1.4,5.6-2.1,8.8-2.1s5.7.6,8.1,1.8c2.4,1.2,4.3,2.9,5.9,5.1Z"/>
          <path d="M191,113.6h-24.4c.4,2.1,1.3,3.9,2.8,5.1,1.5,1.3,3.5,1.9,5.8,1.9s5.3-1,7.3-3l6.4,3c-1.6,2.3-3.5,3.9-5.7,5-2.2,1.1-4.9,1.6-7.9,1.6-4.7,0-8.6-1.5-11.6-4.5-3-3-4.5-6.7-4.5-11.2s1.5-8.4,4.5-11.5c3-3,6.7-4.6,11.2-4.6s8.6,1.5,11.6,4.6c3,3,4.5,7.1,4.5,12.1v1.4ZM183.4,107.6c-.5-1.7-1.5-3.1-3-4.1s-3.2-1.6-5.1-1.6-4,.6-5.6,1.8c-1,.7-1.9,2-2.8,3.9h16.4Z"/>
          <path d="M215.7,100.5l-4.7,4.7c-1.9-1.9-3.6-2.8-5.2-2.8s-1.5.2-2,.5-.7.8-.7,1.3.2.8.5,1.1,1.1.8,2.3,1.4l2.8,1.4c2.9,1.4,4.9,2.9,6,4.4,1.1,1.5,1.6,3.3,1.6,5.3s-1,4.9-3,6.7-4.6,2.7-7.9,2.7-7.9-1.7-10.6-5.2l4.7-5.1c.9,1,1.9,1.9,3.1,2.5,1.2.6,2.3,1,3.2,1s1.8-.2,2.4-.7c.6-.5.9-1,.9-1.7,0-1.2-1.1-2.3-3.3-3.4l-2.6-1.3c-4.9-2.5-7.3-5.5-7.3-9.3s.9-4.4,2.8-6.1,4.2-2.5,7.1-2.5,3.8.4,5.5,1.3c1.7.9,3.2,2.1,4.4,3.7Z"/>
          <path d="M240.7,100.5l-4.7,4.7c-1.9-1.9-3.6-2.8-5.2-2.8s-1.5.2-2,.5-.7.8-.7,1.3.2.8.5,1.1,1.1.8,2.3,1.4l2.8,1.4c2.9,1.4,4.9,2.9,6,4.4,1.1,1.5,1.6,3.3,1.6,5.3s-1,4.9-3,6.7-4.6,2.7-7.9,2.7-7.9-1.7-10.6-5.2l4.7-5.1c.9,1,1.9,1.9,3.1,2.5,1.2.6,2.3,1,3.2,1s1.8-.2,2.4-.7c.6-.5.9-1,.9-1.7,0-1.2-1.1-2.3-3.3-3.4l-2.6-1.3c-4.9-2.5-7.3-5.5-7.3-9.3s.9-4.4,2.8-6.1c1.8-1.7,4.2-2.5,7.1-2.5s3.8.4,5.5,1.3c1.7.9,3.2,2.1,4.4,3.7Z"/>
          <path d="M259.5,96.3h2.7c0-4,0-6.3.2-7,.2-1.7.9-3,2.1-4,1.2-1,2.9-1.5,5.1-1.5s3.4.4,5.3,1.1v5.8c-1.1-.3-2-.5-2.7-.5s-1.5.2-1.9.6c-.3.3-.4.9-.4,1.7v3.8s4.8,0,4.8,0v6.4h-4.8v23.8h-7.6v-23.8h-2.7v-6.4Z"/>
          <path d="M293.3,95.5c2.9,0,5.5.7,8,2.1,2.5,1.4,4.5,3.4,5.9,5.8,1.4,2.4,2.1,5.1,2.1,7.9s-.7,5.5-2.1,8c-1.4,2.5-3.3,4.4-5.8,5.8-2.4,1.4-5.1,2.1-8.1,2.1-4.3,0-8-1.5-11.1-4.6s-4.6-6.8-4.6-11.2,1.7-8.7,5.2-11.8c3-2.7,6.5-4.1,10.5-4.1ZM293.4,102.6c-2.4,0-4.3.8-5.9,2.5-1.6,1.6-2.4,3.7-2.4,6.3s.8,4.8,2.3,6.4c1.5,1.6,3.5,2.4,5.9,2.4s4.4-.8,5.9-2.5c1.6-1.6,2.4-3.8,2.4-6.4s-.8-4.7-2.3-6.3-3.5-2.4-5.9-2.4Z"/>
          <path d="M313.7,96.3h6.5v3.8c.7-1.5,1.6-2.6,2.8-3.4,1.2-.8,2.4-1.2,3.8-1.2s2,.3,3.1.8l-2.4,6.5c-.9-.4-1.6-.7-2.2-.7-1.2,0-2.2.7-3,2.2-.8,1.4-1.2,4.3-1.2,8.5v1.5s0,12.2,0,12.2h-7.5v-30.2Z"/>
        </g>
      </g>
      <g class="st1">
        <g class="st1">
          <path d="M27.9,147.6h9.2c5.9,0,10.4.7,13.2,2.2s5.3,3.9,7.1,7.2,2.8,7.2,2.8,11.6-.5,6-1.6,8.7-2.5,4.8-4.3,6.6c-1.8,1.7-3.8,2.9-6,3.6-2.1.7-5.9,1-11.2,1h-9.4v-40.9ZM35.6,155.1v25.8h3.6c3.6,0,6.1-.4,7.7-1.2,1.6-.8,2.9-2.2,3.9-4.1s1.5-4.3,1.5-7.1c0-4.3-1.2-7.7-3.6-10.1-2.2-2.2-5.7-3.2-10.5-3.2h-2.6Z"/>
          <path d="M73,160.8h-7.6c.2-4.4,1.6-7.9,4.2-10.4s5.9-3.8,9.9-3.8,4.7.5,6.6,1.6c1.9,1,3.4,2.6,4.6,4.5,1.1,2,1.7,4,1.7,6s-.7,5-2.1,7.8c-1.4,2.8-3.9,6.1-7.6,9.9l-4.6,4.8h14.6v7.2h-28.3v-3.7l12.6-12.9c3.1-3.1,5.1-5.6,6.1-7.5,1-1.9,1.5-3.6,1.5-5.1s-.5-2.9-1.6-3.9c-1-1-2.4-1.5-4-1.5s-3.1.6-4.2,1.9c-1.1,1.2-1.7,2.9-1.8,5.1Z"/>
          <path d="M137.1,154.8l-5.4,5.2c-3.7-3.9-7.9-5.9-12.5-5.9s-7.2,1.3-9.9,4c-2.7,2.7-4,6-4,9.9s.6,5.1,1.8,7.3c1.2,2.1,2.9,3.8,5,5,2.2,1.2,4.6,1.8,7.2,1.8s4.3-.4,6.2-1.3,3.9-2.4,6.2-4.6l5.3,5.5c-3,2.9-5.9,5-8.6,6.1-2.7,1.1-5.8,1.7-9.2,1.7-6.4,0-11.6-2-15.6-6-4-4-6.1-9.2-6.1-15.5s.9-7.7,2.8-10.9c1.8-3.2,4.5-5.7,7.9-7.6,3.4-1.9,7.1-2.9,11.1-2.9s6.6.7,9.7,2.1c3.1,1.4,5.8,3.4,8.1,6.1Z"/>
          <path d="M159.9,188.5v-40.9h6.4c3.7,0,6.5.2,8.2.7,2.4.6,4.4,1.9,5.8,3.6,1.4,1.8,2.2,3.8,2.2,6.2s-.3,3-1,4.2c-.7,1.3-1.7,2.5-3.2,3.6,2.5,1.2,4.3,2.6,5.4,4.4,1.1,1.8,1.7,3.8,1.7,6.2s-.6,4.4-1.8,6.3c-1.2,1.9-2.7,3.3-4.6,4.2-1.9.9-4.5,1.4-7.8,1.4h-11.5ZM167.6,155v8.6h1.7c1.9,0,3.3-.4,4.2-1.2.9-.8,1.4-1.9,1.4-3.2s-.4-2.3-1.3-3c-.9-.8-2.2-1.1-4-1.1h-2ZM167.6,170.6v10.5h2c3.2,0,5.4-.4,6.5-1.2,1.1-.8,1.7-2,1.7-3.6s-.7-3.1-2-4.2-3.5-1.5-6.6-1.5h-1.6Z"/>
          <path d="M190.3,158.3h6.5v3.8c.7-1.5,1.6-2.6,2.8-3.4,1.2-.8,2.4-1.2,3.8-1.2s2,.3,3.1.8l-2.4,6.5c-.9-.4-1.6-.7-2.2-.7-1.2,0-2.2.7-3,2.2-.8,1.4-1.2,4.3-1.2,8.5v1.5s0,12.2,0,12.2h-7.5v-30.2Z"/>
          <path d="M232.5,158.3h7.6v30.2h-7.6v-3.2c-1.5,1.4-3,2.4-4.5,3-1.5.6-3.1.9-4.8.9-3.9,0-7.3-1.5-10.1-4.5-2.8-3-4.3-6.8-4.3-11.3s1.4-8.5,4.1-11.5c2.8-3,6.1-4.5,10-4.5s3.5.3,5.1,1c1.6.7,3.1,1.7,4.4,3.1v-3.3ZM224.6,164.5c-2.3,0-4.3.8-5.8,2.5-1.6,1.7-2.3,3.8-2.3,6.4s.8,4.8,2.4,6.4c1.6,1.7,3.5,2.5,5.8,2.5s4.4-.8,5.9-2.5c1.6-1.7,2.4-3.8,2.4-6.5s-.8-4.8-2.4-6.4c-1.6-1.6-3.6-2.4-6-2.4Z"/>
          <path d="M247.8,158.3h7.6v3.1c1.7-1.5,3.3-2.5,4.7-3,1.4-.6,2.8-.9,4.3-.9,3,0,5.5,1,7.6,3.1,1.8,1.8,2.6,4.4,2.6,7.9v20h-7.5v-13.2c0-3.6-.2-6-.5-7.2-.3-1.2-.9-2.1-1.7-2.7-.8-.6-1.8-.9-3-.9s-2.9.5-3.9,1.5c-1.1,1-1.9,2.4-2.3,4.3-.2.9-.3,3-.3,6.1v12.1h-7.6v-30.2Z"/>
          <path d="M304.3,146.6h7.6v41.9h-7.6v-3.2c-1.5,1.4-3,2.4-4.5,3-1.5.6-3.1.9-4.8.9-3.9,0-7.3-1.5-10.1-4.5-2.8-3-4.3-6.8-4.3-11.3s1.4-8.5,4.1-11.5c2.8-3,6.1-4.5,10-4.5s3.5.3,5.1,1c1.6.7,3.1,1.7,4.4,3.1v-15ZM296.3,164.5c-2.3,0-4.3.8-5.8,2.5-1.6,1.7-2.3,3.8-2.3,6.4s.8,4.8,2.4,6.4c1.6,1.7,3.5,2.5,5.8,2.5s4.4-.8,5.9-2.5c1.6-1.7,2.4-3.8,2.4-6.5s-.8-4.8-2.4-6.4c-1.6-1.6-3.6-2.4-6-2.4Z"/>
          <path d="M338,162.5l-4.7,4.7c-1.9-1.9-3.6-2.8-5.2-2.8s-1.5.2-2,.5-.7.8-.7,1.3.2.8.5,1.1,1.1.8,2.3,1.4l2.8,1.4c2.9,1.4,4.9,2.9,6,4.4,1.1,1.5,1.6,3.3,1.6,5.3s-1,4.9-3,6.7-4.6,2.7-7.9,2.7-7.9-1.7-10.6-5.2l4.7-5.1c.9,1,1.9,1.9,3.1,2.5,1.2.6,2.3,1,3.2,1s1.8-.2,2.4-.7c.6-.5.9-1,.9-1.7,0-1.2-1.1-2.3-3.3-3.4l-2.6-1.3c-4.9-2.5-7.3-5.5-7.3-9.3s.9-4.4,2.8-6.1c1.8-1.7,4.2-2.5,7.1-2.5s3.8.4,5.5,1.3,3.2,2.1,4.4,3.7Z"/>
        </g>
      </g>
    </g>
    <path class="st0" d="M33.2,207.6h187.9v-5c-16.8,1.6-33.5,3.4-50.1,5.6-16.7,2.2-33.4,4.7-50.1,7.6-9.4,1.6-18.8,3.3-28.1,5.1-2.8.5-2.2,5.1.7,4.9,27.2-1.6,54.3-3.3,81.5-4.9,7.6-.5,15.2-.9,22.9-1.4,3.2-.2,3.2-5.2,0-5-27.2,1.6-54.3,3.3-81.5,4.9-7.6.5-15.2.9-22.9,1.4l.7,4.9c16.4-3.2,32.9-6.1,49.5-8.6,16.4-2.5,32.9-4.8,49.4-6.6,9.4-1.1,18.8-2.1,28.2-2.9,1.3-.1,2.5-1.1,2.5-2.5s-1.1-2.5-2.5-2.5H33.4c-3.2,0-3.2,5,0,5h-.2Z"/>
    <g>
      <polygon class="st2" points="266.1 258.6 264.9 266.3 273.6 270.7 263.9 272.3 262.3 282 241.1 265.2 266.1 258.6"/>
      <polygon class="st3" points="258.8 271.5 252.9 272.5 257.2 268.2 254.5 262.9 259.8 265.6 264 261.3 263.1 267.2 268.4 269.9 262.5 270.9 261.5 276.8 258.8 271.5"/>
      <polygon class="st3" points="258.8 271.5 252.9 272.5 257.2 268.2 254.5 262.9 259.8 265.6 264 261.3 263.1 267.2 268.4 269.9 262.5 270.9 261.5 276.8 258.8 271.5"/>
      <polygon class="st4" points="255.1 267.9 254 269 241.1 265.2 254.4 266.3 255.1 267.9"/>
      <polygon class="st4" points="241.1 265.2 252.3 262.2 253.5 264.6 241.1 265.2"/>
      <polygon class="st4" points="250.4 272.6 241.1 265.2 252.5 270.5 250.4 272.6"/>
    </g>
    <g class="st1">
      <g class="st1">
        <g class="st1">
          <path d="M113.3,262.3c3.3,0,4.9,1.7,4.9,1.7l-1.1,1.4s-1.5-1.3-3.8-1.3-5,2.2-5,5.3,2.2,5.3,5,5.3,3.9-1.7,3.9-1.7v-1.4c0-.3-.2-.4-.4-.4h-.8v-1.7h1.8c.9,0,1.2.4,1.2,1.2v5.6h-1.7v-.9c0-.3,0-.6,0-.6h0s-1.5,1.7-4.3,1.7-6.7-2.9-6.7-7.2,3-7.1,6.9-7.1Z"/>
        </g>
      </g>
      <g class="st1">
        <g class="st1">
          <path d="M123.8,264.2h-1.3v-1.7h8.1c.9,0,1.2.4,1.2,1.2v1.7h-1.8v-.9c0-.3-.2-.4-.4-.4h-3.9v4.3h4.8v1.7h-4.8v4c0,.3.2.4.4.4h4c.3,0,.4-.2.4-.4v-.9h1.8v1.7c0,.9-.4,1.2-1.2,1.2h-6.1c-.9,0-1.2-.4-1.2-1.2v-10.8Z"/>
        </g>
      </g>
      <g class="st1">
        <g class="st1">
          <path d="M139.9,264.2h-2.8c-.3,0-.4.1-.4.4v.9h-1.7v-1.8c0-.9.3-1.2,1.2-1.2h9.5c.9,0,1.2.3,1.2,1.2v1.8h-1.7v-.9c0-.3-.2-.4-.4-.4h-2.8v12.1h-2v-12.1Z"/>
        </g>
      </g>
      <g class="st1">
        <g class="st1">
          <path d="M149.3,269.9h5.7v1.7h-5.7v-1.7Z"/>
        </g>
      </g>
      <g class="st1">
        <g class="st1">
          <path d="M159.6,273.1s1.4,1.7,3.5,1.7,2.4-.8,2.4-2c0-2.9-6.6-2.4-6.6-6.7s1.8-3.7,4.4-3.7,3.9.7,3.9,2.5v1.1h-1.8v-.6c0-.7-1-1.2-2.1-1.2s-2.4.8-2.4,1.9c0,2.8,6.6,2.2,6.6,6.7s-1.6,3.9-4.4,3.9-4.6-2-4.6-2l1.2-1.4Z"/>
        </g>
      </g>
      <g class="st1">
        <g class="st1">
          <path d="M172.2,264.2h-1.3v-1.7h8.1c.9,0,1.2.4,1.2,1.2v1.7h-1.8v-.9c0-.3-.2-.4-.4-.4h-3.9v4.3h4.8v1.7h-4.8v4c0,.3.2.4.4.4h4c.3,0,.4-.2.4-.4v-.9h1.8v1.7c0,.9-.4,1.2-1.2,1.2h-6.1c-.9,0-1.2-.4-1.2-1.2v-10.8Z"/>
        </g>
      </g>
      <g class="st1">
        <g class="st1">
          <path d="M188.3,264.2h-2.8c-.3,0-.4.1-.4.4v.9h-1.7v-1.8c0-.9.3-1.2,1.2-1.2h9.5c.9,0,1.2.3,1.2,1.2v1.8h-1.7v-.9c0-.3-.2-.4-.4-.4h-2.8v12.1h-2v-12.1Z"/>
        </g>
      </g>
      <g class="st1">
        <g class="st1">
          <path d="M197.6,269.9h5.7v1.7h-5.7v-1.7Z"/>
        </g>
      </g>
      <g class="st1">
        <g class="st1">
          <path d="M214.5,262.3c3.3,0,4.9,1.7,4.9,1.7l-1.1,1.4s-1.5-1.3-3.8-1.3-5,2.2-5,5.3,2.2,5.3,5,5.3,3.9-1.7,3.9-1.7v-1.4c0-.3-.2-.4-.4-.4h-.8v-1.7h1.8c.9,0,1.2.4,1.2,1.2v5.6h-1.7v-.9c0-.3,0-.6,0-.6h0s-1.5,1.7-4.3,1.7-6.7-2.9-6.7-7.2,3-7.1,6.9-7.1Z"/>
          <path d="M229,262.3c4,0,7.1,3.1,7.1,7s-3.1,7.2-7.1,7.2-7.1-3.2-7.1-7.2,3.1-7,7.1-7ZM229,274.7c2.8,0,5.1-2.3,5.1-5.4s-2.3-5.2-5.1-5.2-5,2.3-5,5.2,2.2,5.4,5,5.4Z"/>
        </g>
      </g>
    </g>
  </g>
</svg>