<?xml version="1.0" encoding="UTF-8"?>
<svg id="Layer_2" xmlns="http://www.w3.org/2000/svg" xmlns:xlink="http://www.w3.org/1999/xlink" version="1.1" viewBox="0 0 1053.6 461.8">
  <!-- Generator: Adobe Illustrator 29.5.1, SVG Export Plug-In . SVG Version: 2.1.0 Build 141)  -->
  <defs>
    <style>
      .st0 {
        fill: #f9ad13;
      }

      .st1 {
        fill: none;
      }

      .st2 {
        fill: #ffbd00;
      }

      .st3 {
        fill: #f9ac14;
      }

      .st4 {
        fill: #f8a917;
      }

      .st5 {
        fill: #f5a220;
      }

      .st6 {
        fill: #f8ab15;
      }

      .st7 {
        fill: #f7a61a;
      }

      .st8 {
        fill: #f39d26;
      }

      .st9 {
        fill: #f2992a;
      }

      .st10 {
        fill: #fab00e;
      }

      .st11 {
        fill: #f39e25;
      }

      .st12 {
        fill: #f29a29;
      }

      .st13 {
        fill: #f1972e;
      }

      .st14 {
        fill: #f2992c;
      }

      .st15 {
        isolation: isolate;
      }

      .st16 {
        fill: #f8aa16;
      }

      .st17 {
        fill: #f4a022;
      }

      .st18 {
        fill: #fbb20c;
      }

      .st19 {
        fill: #f6a41d;
      }

      .st20 {
        clip-path: url(#clippath-1);
      }

      .st21 {
        clip-path: url(#clippath-3);
      }

      .st22 {
        clip-path: url(#clippath-4);
      }

      .st23 {
        clip-path: url(#clippath-2);
      }

      .st24 {
        clip-path: url(#clippath-7);
      }

      .st25 {
        clip-path: url(#clippath-6);
      }

      .st26 {
        clip-path: url(#clippath-9);
      }

      .st27 {
        clip-path: url(#clippath-8);
      }

      .st28 {
        clip-path: url(#clippath-5);
      }

      .st29 {
        fill: #fcb409;
      }

      .st30 {
        fill: #f39c27;
      }

      .st31 {
        fill: #f5a121;
      }

      .st32 {
        fill: #fbb20b;
      }

      .st33 {
        fill: #fcb30a;
      }

      .st34 {
        fill: #faae11;
      }

      .st35 {
        fill: #febb02;
      }

      .st36 {
        fill: #faaf10;
      }

      .st37 {
        fill: #f7a719;
      }

      .st38 {
        fill: #f49e24;
      }

      .st39 {
        fill: #ff0064;
      }

      .st40 {
        fill: #fbb10d;
      }

      .st41 {
        fill: #f6a51c;
      }

      .st42 {
        fill: #feba03;
      }

      .st43 {
        fill: #f5a31e;
      }

      .st44 {
        fill: #fdb806;
      }

      .st45 {
        fill: #f49f23;
      }

      .st46 {
        fill: #f9ad12;
      }

      .st47 {
        fill: #fdb607;
      }

      .st48 {
        fill: #f29b28;
      }

      .st49 {
        clip-path: url(#clippath);
      }

      .st50 {
        fill: #f6a61b;
      }

      .st51 {
        fill: #f7a818;
      }

      .st52 {
        fill: #fcb508;
      }

      .st53 {
        fill: #f1982d;
      }

      .st54 {
        fill: #ececec;
      }

      .st55 {
        fill: #fdb904;
      }
    </style>
    <clipPath id="clippath">
      <ellipse class="st1" cx="169.6" cy="280.2" rx="6.3" ry="15.4" transform="translate(-59.4 46) rotate(-13.2)"/>
    </clipPath>
    <clipPath id="clippath-1">
      <ellipse class="st1" cx="181.4" cy="316.2" rx="6.3" ry="15.4" transform="translate(-67.3 49.7) rotate(-13.2)"/>
    </clipPath>
    <clipPath id="clippath-2">
      <path class="st1" d="M212.6,278h35.4v10.6h-35.4c-2.9,0-5.3-2.4-5.3-5.3h0c0-2.9,2.4-5.3,5.3-5.3h0Z"/>
    </clipPath>
    <clipPath id="clippath-3">
      <path class="st1" d="M212.6,306.8h35.4v10.6h-35.4c-2.9,0-5.3-2.4-5.3-5.3h0c0-2.9,2.4-5.3,5.3-5.3h0Z"/>
    </clipPath>
    <clipPath id="clippath-4">
      <path class="st1" d="M54.1,103.4l11.9,4s12.5-9.3,20.8-9.1c0,0-16.5-11.2-32.7,5.2h0Z"/>
    </clipPath>
    <clipPath id="clippath-5">
      <path class="st1" d="M80.5,166.3l14.9-2.9s1.6-8.6,8.3-10.9,26.2-4.7,36.5-22.8c10.4-18.1-2.3-40.9-5-44-2.2-2.6-12.2-15.6-32.5-18,0,0,19.7,8.6,25.8,26.8,0,0,9.5,30.6-14.8,44.8,0,0-13.4,5.6-18.1,7.2-4.7,1.6-13.1,2.7-15.2,19.8h0Z"/>
    </clipPath>
    <clipPath id="clippath-6">
      <path class="st1" d="M103.4,302.8s-15.6,3-10.9,21.7c0,0-1.1,3.4,8.9,6.4,0,0,1.2-12.2,2.8-13l1.6-.7s-3.6-7.1-2.4-14.4h0Z"/>
    </clipPath>
    <clipPath id="clippath-7">
      <path class="st1" d="M385.4,151.4s28.8,4.6,38.9-18.1c.3-.7,1.4-.8,1.7,0l8.1,18s-6.2,23.5-40.8,17.6l-8.4-15.5.5-1.9h0Z"/>
    </clipPath>
    <clipPath id="clippath-8">
      <path class="st1" d="M306.6,299.6s0,8-3.2,16.1c0,0,8.9,1,13.2-5.7,4.3-6.8,3.5-18.3,3.5-18.3,0,0-5.8,7-13.5,7.9h0Z"/>
    </clipPath>
    <clipPath id="clippath-9">
      <path class="st1" d="M61.1,162.9s15,4.8,14.6,19.9c-.4,15.1-6.7,20.4-20.6,24.7,0,0,7.8,2.6,17.5-3.4,9.7-6,11.9-19.3,8.5-26.7s-11-13.6-20-14.5h0Z"/>
    </clipPath>
  </defs>
  <g id="Layer_1-2">
    <path class="st2" d="M937.1,210.9c0,4.3-4.7,7.4-8,9.3-6.9,4.1-14.8,6.6-22.4,8.9-25,7.3-51.2,10.9-77,13.7-33.8,3.6-67.8,5.3-101.8,5.1-28.5-.1-57.3-1.3-85.5-5.6-9.5-1.4-19.1-3.2-28.2-6.2-3.9-1.3-10.4-3-12.6-6.9-5.1-9.4,17.7-16.5,22.9-18.2,23.4-7.9,48.5-11.6,73-14.6,33.1-4.1,66.5-6,99.8-6.4,29.8-.3,59.8.6,89.4,4.3,10.6,1.3,21.3,3,31.7,5.8,5.4,1.5,12.5,3.1,16.8,7,1.2,1.1,1.9,2.2,2,3.9.2,2.2,6.9,4.9,6.7,2.8-.3-5-5.3-8.5-9.2-10.7-6.9-4-14.9-6.3-22.7-8.1-26.5-6.3-54.1-8-81.2-9-36.3-1.2-72.7-.2-108.8,2.9-29.8,2.5-59.9,6.2-89,13.7-8.9,2.3-18,4.9-26.3,8.9-4.4,2.1-10.5,5.2-12.2,10.2-3.8,11.2,17.5,17.5,24.5,19.6,24.3,7.1,50.4,9,75.6,10.3,35.8,1.8,71.8,1.2,107.6-1.3,31.4-2.2,63-5.6,93.8-12.6,10.2-2.3,20.3-4.9,30-8.8,5.5-2.2,12.2-5,15.9-9.9,1.2-1.5,1.9-3.2,1.9-5.1,0-2.2-6.7-5-6.7-2.8h0Z"/>
    <g class="st15">
      <g class="st15">
        <path d="M605.8,138.2h8l10.3,29,10.4-29h8l-14.7,40.9h-7.5l-14.5-40.9Z"/>
        <path d="M678.2,166.1h-24.4c.4,2.1,1.3,3.9,2.8,5.1,1.5,1.3,3.5,1.9,5.8,1.9s5.3-1,7.3-3l6.4,3c-1.6,2.3-3.5,3.9-5.7,5-2.2,1.1-4.9,1.6-7.9,1.6-4.7,0-8.6-1.5-11.6-4.5-3-3-4.5-6.7-4.5-11.2s1.5-8.4,4.5-11.5c3-3,6.7-4.6,11.2-4.6s8.6,1.5,11.6,4.6c3,3,4.5,7.1,4.5,12.1v1.4ZM670.6,160.2c-.5-1.7-1.5-3.1-3-4.1-1.5-1.1-3.2-1.6-5.1-1.6s-4,.6-5.6,1.8c-1,.7-1.9,2-2.8,3.9h16.4Z"/>
        <path d="M684.3,148.8h7.6v3.1c1.7-1.4,3.3-2.5,4.7-3,1.4-.6,2.8-.8,4.3-.8,3,0,5.5,1,7.6,3.1,1.8,1.8,2.6,4.4,2.6,7.9v20h-7.5v-13.2c0-3.6-.2-6-.5-7.2-.3-1.2-.9-2.1-1.7-2.7-.8-.6-1.8-.9-3-.9s-2.8.5-3.9,1.5c-1.1,1-1.9,2.4-2.3,4.3-.2.9-.3,3-.3,6.1v12.1h-7.6v-30.2Z"/>
        <path d="M740.7,137.2h7.6v41.9h-7.6v-3.2c-1.5,1.4-3,2.4-4.5,3-1.5.6-3.1.9-4.8.9-3.9,0-7.3-1.5-10.1-4.5-2.8-3-4.3-6.8-4.3-11.3s1.4-8.5,4.1-11.5,6.1-4.5,10-4.5,3.5.3,5.1,1c1.6.7,3.1,1.7,4.4,3.1v-15ZM732.8,155c-2.3,0-4.3.8-5.8,2.5-1.5,1.7-2.3,3.8-2.3,6.4s.8,4.8,2.4,6.4c1.6,1.7,3.5,2.5,5.8,2.5s4.4-.8,5.9-2.5,2.4-3.8,2.4-6.5-.8-4.8-2.4-6.4c-1.6-1.6-3.6-2.4-6-2.4Z"/>
        <path d="M770.2,148c2.9,0,5.5.7,8,2.1,2.5,1.4,4.5,3.4,5.9,5.8,1.4,2.4,2.1,5.1,2.1,7.9s-.7,5.5-2.1,8c-1.4,2.5-3.3,4.4-5.8,5.8s-5.1,2.1-8.1,2.1c-4.3,0-8-1.5-11.1-4.6s-4.6-6.8-4.6-11.2,1.7-8.7,5.2-11.8c3-2.7,6.5-4.1,10.5-4.1ZM770.3,155.2c-2.4,0-4.3.8-5.9,2.5s-2.4,3.7-2.4,6.3.8,4.8,2.3,6.4c1.5,1.6,3.5,2.4,5.9,2.4s4.3-.8,5.9-2.5c1.6-1.6,2.4-3.8,2.4-6.4s-.8-4.7-2.3-6.3-3.5-2.4-5.9-2.4Z"/>
        <path d="M790.6,148.8h6.5v3.8c.7-1.5,1.6-2.6,2.8-3.4,1.2-.8,2.4-1.2,3.8-1.2s2,.3,3.1.8l-2.4,6.5c-.9-.4-1.6-.7-2.2-.7-1.2,0-2.2.7-3,2.2-.8,1.4-1.2,4.3-1.2,8.5v1.5s0,12.2,0,12.2h-7.5v-30.2Z"/>
      </g>
      <g class="st15">
        <path d="M628.2,199.1c5.8,0,10.8,2.1,14.9,6.3,4.2,4.2,6.2,9.3,6.2,15.3s-2.1,11-6.2,15.1c-4.1,4.1-9.1,6.2-14.9,6.2s-11.2-2.1-15.3-6.4c-4.1-4.2-6.1-9.3-6.1-15.1s.9-7.5,2.8-10.8c1.9-3.3,4.5-5.9,7.8-7.8,3.3-1.9,6.9-2.9,10.7-2.9ZM628.1,206.7c-3.8,0-7,1.3-9.5,3.9-2.6,2.6-3.9,6-3.9,10s1.6,8.1,4.9,10.7c2.5,2.1,5.4,3.1,8.7,3.1s6.8-1.3,9.4-4c2.6-2.7,3.9-6,3.9-9.9s-1.3-7.2-3.9-9.9-5.8-4-9.5-4Z"/>
        <path d="M655.8,210.8h7.6v3.1c1.7-1.4,3.3-2.5,4.7-3,1.4-.6,2.8-.8,4.3-.8,3,0,5.5,1,7.6,3.1,1.8,1.8,2.6,4.4,2.6,7.9v20h-7.5v-13.2c0-3.6-.2-6-.5-7.2-.3-1.2-.9-2.1-1.7-2.7-.8-.6-1.8-.9-3-.9s-2.8.5-3.9,1.5c-1.1,1-1.9,2.4-2.3,4.3-.2.9-.3,3-.3,6.1v12.1h-7.6v-30.2Z"/>
        <path d="M697.5,199.1v15c1.4-1.4,2.9-2.4,4.4-3.1,1.6-.7,3.3-1,5.1-1,3.9,0,7.3,1.5,10.1,4.5s4.1,6.8,4.1,11.5-1.4,8.3-4.3,11.3-6.2,4.5-10.1,4.5-3.4-.3-4.9-.9c-1.5-.6-3-1.6-4.5-3v3.2h-7.5v-41.9h7.5ZM705.5,217c-2.4,0-4.4.8-5.9,2.4-1.6,1.6-2.4,3.8-2.4,6.4s.8,4.9,2.4,6.5c1.6,1.7,3.6,2.5,5.9,2.5s4.3-.8,5.8-2.5c1.6-1.7,2.4-3.8,2.4-6.4s-.8-4.7-2.3-6.4c-1.6-1.7-3.5-2.5-5.9-2.5Z"/>
        <path d="M741.7,210c2.9,0,5.5.7,8,2.1,2.5,1.4,4.5,3.4,5.9,5.8,1.4,2.4,2.1,5.1,2.1,7.9s-.7,5.5-2.1,8c-1.4,2.5-3.3,4.4-5.8,5.8s-5.1,2.1-8.1,2.1c-4.3,0-8-1.5-11.1-4.6s-4.6-6.8-4.6-11.2,1.7-8.7,5.2-11.8c3-2.7,6.5-4.1,10.5-4.1ZM741.8,217.1c-2.4,0-4.3.8-5.9,2.5s-2.4,3.7-2.4,6.3.8,4.8,2.3,6.4c1.5,1.6,3.5,2.4,5.9,2.4s4.3-.8,5.9-2.5c1.6-1.6,2.4-3.8,2.4-6.4s-.8-4.7-2.3-6.3-3.5-2.4-5.9-2.4Z"/>
        <path d="M786.2,210.8h7.6v30.2h-7.6v-3.2c-1.5,1.4-3,2.4-4.5,3-1.5.6-3.1.9-4.8.9-3.9,0-7.3-1.5-10.1-4.5-2.8-3-4.3-6.8-4.3-11.3s1.4-8.5,4.1-11.5,6.1-4.5,10-4.5,3.5.3,5.1,1c1.6.7,3.1,1.7,4.4,3.1v-3.3ZM778.2,217c-2.3,0-4.3.8-5.8,2.5-1.5,1.7-2.3,3.8-2.3,6.4s.8,4.8,2.4,6.4c1.6,1.7,3.5,2.5,5.8,2.5s4.4-.8,5.9-2.5,2.4-3.8,2.4-6.5-.8-4.8-2.4-6.4c-1.6-1.6-3.6-2.4-6-2.4Z"/>
        <path d="M799.7,210.8h6.5v3.8c.7-1.5,1.6-2.6,2.8-3.4,1.2-.8,2.4-1.2,3.8-1.2s2,.3,3.1.8l-2.4,6.5c-.9-.4-1.6-.7-2.2-.7-1.2,0-2.2.7-3,2.2-.8,1.4-1.2,4.3-1.2,8.5v1.5s0,12.2,0,12.2h-7.5v-30.2Z"/>
        <path d="M842,199.1h7.6v41.9h-7.6v-3.2c-1.5,1.4-3,2.4-4.5,3-1.5.6-3.1.9-4.8.9-3.9,0-7.3-1.5-10.1-4.5-2.8-3-4.3-6.8-4.3-11.3s1.4-8.5,4.1-11.5,6.1-4.5,10-4.5,3.5.3,5.1,1c1.6.7,3.1,1.7,4.4,3.1v-15ZM834,217c-2.3,0-4.3.8-5.8,2.5-1.5,1.7-2.3,3.8-2.3,6.4s.8,4.8,2.4,6.4c1.6,1.7,3.5,2.5,5.8,2.5s4.4-.8,5.9-2.5,2.4-3.8,2.4-6.5-.8-4.8-2.4-6.4c-1.6-1.6-3.6-2.4-6-2.4Z"/>
        <path d="M860.2,198.3c1.3,0,2.5.5,3.4,1.4s1.4,2.1,1.4,3.5-.5,2.5-1.4,3.5c-.9,1-2.1,1.4-3.4,1.4s-2.5-.5-3.4-1.5c-1-1-1.4-2.2-1.4-3.5s.5-2.5,1.4-3.4c.9-.9,2.1-1.4,3.4-1.4ZM856.4,210.8h7.6v30.2h-7.6v-30.2Z"/>
        <path d="M870.8,210.8h7.6v3.1c1.7-1.4,3.3-2.5,4.7-3,1.4-.6,2.8-.8,4.3-.8,3,0,5.5,1,7.6,3.1,1.8,1.8,2.6,4.4,2.6,7.9v20h-7.5v-13.2c0-3.6-.2-6-.5-7.2-.3-1.2-.9-2.1-1.7-2.7-.8-.6-1.8-.9-3-.9s-2.8.5-3.9,1.5c-1.1,1-1.9,2.4-2.3,4.3-.2.9-.3,3-.3,6.1v12.1h-7.6v-30.2Z"/>
        <path d="M927.3,210.8h7.6v25.9c0,5.1-1,8.9-3.1,11.3-2.8,3.3-6.9,4.9-12.5,4.9s-5.5-.4-7.5-1.1c-2-.7-3.7-1.8-5.1-3.3s-2.4-3.2-3.1-5.2h8.4c.7.9,1.7,1.5,2.9,1.9,1.2.4,2.5.7,4.1.7s3.7-.3,4.9-.9,2.1-1.4,2.6-2.4c.5-1,.8-2.7.8-5.2-1.3,1.3-2.7,2.3-4.2,2.9s-3.1.9-5,.9c-4.1,0-7.5-1.5-10.3-4.4-2.8-2.9-4.2-6.6-4.2-11.1s1.5-8.6,4.4-11.6c2.7-2.6,5.9-3.9,9.6-3.9s3.4.3,4.9,1,3.1,1.7,4.7,3.2v-3.3ZM919.4,217.1c-2.4,0-4.4.8-5.9,2.4-1.6,1.6-2.3,3.6-2.3,6s.8,4.6,2.4,6.2c1.6,1.6,3.6,2.4,6,2.4s4.3-.8,5.8-2.4c1.5-1.6,2.3-3.6,2.3-6.2s-.8-4.6-2.3-6.1c-1.5-1.6-3.5-2.4-5.9-2.4Z"/>
      </g>
      <g class="st15">
        <path d="M608.9,262.1h7.9v14.1l11.1-14.1h9.3l-14.3,18.2,15.7,22.6h-9.2l-12.6-18.2v18.2h-7.9v-40.9Z"/>
        <path d="M643.3,272.7h7.6v3.1c1.7-1.4,3.3-2.5,4.7-3,1.4-.6,2.8-.8,4.3-.8,3,0,5.5,1,7.6,3.1,1.8,1.8,2.6,4.4,2.6,7.9v20h-7.5v-13.2c0-3.6-.2-6-.5-7.2-.3-1.2-.9-2.1-1.7-2.7-.8-.6-1.8-.9-3-.9s-2.8.5-3.9,1.5c-1.1,1-1.9,2.4-2.3,4.3-.2.9-.3,3-.3,6.1v12.1h-7.6v-30.2Z"/>
        <path d="M691.7,272c2.9,0,5.5.7,8,2.1,2.5,1.4,4.5,3.4,5.9,5.8,1.4,2.4,2.1,5.1,2.1,7.9s-.7,5.5-2.1,8c-1.4,2.5-3.3,4.4-5.8,5.8s-5.1,2.1-8.1,2.1c-4.3,0-8-1.5-11.1-4.6s-4.6-6.8-4.6-11.2,1.7-8.7,5.2-11.8c3-2.7,6.5-4.1,10.5-4.1ZM691.8,279.1c-2.4,0-4.3.8-5.9,2.5s-2.4,3.7-2.4,6.3.8,4.8,2.3,6.4c1.5,1.6,3.5,2.4,5.9,2.4s4.3-.8,5.9-2.5c1.6-1.6,2.4-3.8,2.4-6.4s-.8-4.7-2.3-6.3-3.5-2.4-5.9-2.4Z"/>
        <path d="M710.5,272.7h7.4l6.1,17.2,6.5-17.2h4.5l6.4,17,6.1-17h7.5l-11,30.2h-4.8l-6.4-17.2-6.6,17.2h-4.7l-10.9-30.2Z"/>
        <path d="M758.5,261.1h7.6v41.9h-7.6v-41.9Z"/>
        <path d="M803.3,290h-24.4c.4,2.1,1.3,3.9,2.8,5.1,1.5,1.3,3.5,1.9,5.8,1.9s5.3-1,7.3-3l6.4,3c-1.6,2.3-3.5,3.9-5.7,5-2.2,1.1-4.9,1.6-7.9,1.6-4.7,0-8.6-1.5-11.6-4.5-3-3-4.5-6.7-4.5-11.2s1.5-8.4,4.5-11.5c3-3,6.7-4.6,11.2-4.6s8.6,1.5,11.6,4.6c3,3,4.5,7.1,4.5,12.1v1.4ZM795.7,284.1c-.5-1.7-1.5-3.1-3-4.1-1.5-1.1-3.2-1.6-5.1-1.6s-4,.6-5.6,1.8c-1,.7-1.9,2-2.8,3.9h16.4Z"/>
        <path d="M831.7,261.1h7.6v41.9h-7.6v-3.2c-1.5,1.4-3,2.4-4.5,3-1.5.6-3.1.9-4.8.9-3.9,0-7.3-1.5-10.1-4.5-2.8-3-4.3-6.8-4.3-11.3s1.4-8.5,4.1-11.5c2.8-3,6.1-4.5,10-4.5s3.5.3,5.1,1c1.6.7,3.1,1.7,4.4,3.1v-15ZM823.7,279c-2.3,0-4.3.8-5.8,2.5-1.6,1.7-2.3,3.8-2.3,6.4s.8,4.8,2.4,6.4c1.6,1.7,3.5,2.5,5.8,2.5s4.4-.8,5.9-2.5,2.4-3.8,2.4-6.5-.8-4.8-2.4-6.4c-1.6-1.6-3.6-2.4-6-2.4Z"/>
        <path d="M869.3,272.7h7.6v25.9c0,5.1-1,8.9-3.1,11.3-2.8,3.3-6.9,4.9-12.5,4.9s-5.5-.4-7.5-1.1c-2-.7-3.7-1.8-5.1-3.3s-2.4-3.2-3.1-5.2h8.4c.7.9,1.7,1.5,2.9,1.9,1.2.4,2.5.7,4.1.7s3.7-.3,4.9-.9,2.1-1.4,2.6-2.4c.5-1,.8-2.7.8-5.2-1.3,1.3-2.7,2.3-4.2,2.9s-3.1.9-5,.9c-4.1,0-7.5-1.5-10.3-4.4-2.8-2.9-4.2-6.6-4.2-11.1s1.5-8.6,4.4-11.6c2.7-2.6,5.9-3.9,9.6-3.9s3.4.3,4.9,1,3.1,1.7,4.7,3.2v-3.3ZM861.4,279c-2.4,0-4.4.8-5.9,2.4-1.6,1.6-2.3,3.6-2.3,6s.8,4.6,2.4,6.2c1.6,1.6,3.6,2.4,6,2.4s4.3-.8,5.8-2.4c1.5-1.6,2.3-3.6,2.3-6.2s-.8-4.6-2.3-6.1c-1.5-1.6-3.5-2.4-5.9-2.4Z"/>
        <path d="M914.8,290h-24.4c.4,2.1,1.3,3.9,2.8,5.1,1.5,1.3,3.5,1.9,5.8,1.9s5.3-1,7.3-3l6.4,3c-1.6,2.3-3.5,3.9-5.7,5-2.2,1.1-4.9,1.6-7.9,1.6-4.7,0-8.6-1.5-11.6-4.5-3-3-4.5-6.7-4.5-11.2s1.5-8.4,4.5-11.5c3-3,6.7-4.6,11.2-4.6s8.6,1.5,11.6,4.6c3,3,4.5,7.1,4.5,12.1v1.4ZM907.2,284.1c-.5-1.7-1.5-3.1-3-4.1-1.5-1.1-3.2-1.6-5.1-1.6s-4,.6-5.6,1.8c-1,.7-1.9,2-2.8,3.9h16.4Z"/>
        <path d="M928.4,261.1v15c1.4-1.4,2.9-2.4,4.4-3.1,1.6-.7,3.3-1,5.1-1,3.9,0,7.3,1.5,10.1,4.5s4.1,6.8,4.1,11.5-1.4,8.3-4.3,11.3-6.2,4.5-10.1,4.5-3.4-.3-4.9-.9c-1.5-.6-3-1.6-4.5-3v3.2h-7.5v-41.9h7.5ZM936.4,279c-2.4,0-4.4.8-5.9,2.4-1.6,1.6-2.4,3.8-2.4,6.4s.8,4.9,2.4,6.5c1.6,1.7,3.6,2.5,5.9,2.5s4.3-.8,5.8-2.5c1.6-1.7,2.4-3.8,2.4-6.4s-.8-4.7-2.3-6.4c-1.6-1.7-3.5-2.5-5.9-2.5Z"/>
        <path d="M980.8,272.7h7.6v30.2h-7.6v-3.2c-1.5,1.4-3,2.4-4.5,3-1.5.6-3.1.9-4.8.9-3.9,0-7.3-1.5-10.1-4.5-2.8-3-4.3-6.8-4.3-11.3s1.4-8.5,4.1-11.5,6.1-4.5,10-4.5,3.5.3,5.1,1c1.6.7,3.1,1.7,4.4,3.1v-3.3ZM972.8,279c-2.3,0-4.3.8-5.8,2.5-1.5,1.7-2.3,3.8-2.3,6.4s.8,4.8,2.4,6.4c1.6,1.7,3.5,2.5,5.8,2.5s4.4-.8,5.9-2.5,2.4-3.8,2.4-6.5-.8-4.8-2.4-6.4c-1.6-1.6-3.6-2.4-6-2.4Z"/>
        <path d="M1014.5,277l-4.7,4.7c-1.9-1.9-3.6-2.8-5.2-2.8s-1.5.2-2,.5-.7.8-.7,1.3.2.8.5,1.1c.3.3,1.1.8,2.3,1.4l2.8,1.4c2.9,1.4,4.9,2.9,6,4.4,1.1,1.5,1.6,3.3,1.6,5.3s-1,4.9-3,6.7c-2,1.8-4.6,2.7-7.9,2.7s-7.9-1.7-10.6-5.2l4.7-5.1c.9,1,1.9,1.9,3.1,2.5s2.3,1,3.2,1,1.8-.2,2.4-.7c.6-.5.9-1,.9-1.7,0-1.2-1.1-2.3-3.3-3.4l-2.6-1.3c-4.9-2.5-7.3-5.5-7.3-9.2s.9-4.4,2.8-6.1c1.8-1.7,4.2-2.5,7.1-2.5s3.8.4,5.5,1.3c1.7.9,3.2,2.1,4.4,3.7Z"/>
        <path d="M1051.3,290h-24.4c.4,2.1,1.3,3.9,2.8,5.1,1.5,1.3,3.5,1.9,5.8,1.9s5.3-1,7.3-3l6.4,3c-1.6,2.3-3.5,3.9-5.7,5-2.2,1.1-4.9,1.6-7.9,1.6-4.7,0-8.6-1.5-11.6-4.5-3-3-4.5-6.7-4.5-11.2s1.5-8.4,4.5-11.5c3-3,6.7-4.6,11.2-4.6s8.6,1.5,11.6,4.6c3,3,4.5,7.1,4.5,12.1v1.4ZM1043.7,284.1c-.5-1.7-1.5-3.1-3-4.1-1.5-1.1-3.2-1.6-5.1-1.6s-4,.6-5.6,1.8c-1,.7-1.9,2-2.8,3.9h16.4Z"/>
      </g>
    </g>
    <g>
      <g id="_8">
        <path class="st39" d="M307.9,298.9c-.2,0-.5.1-.7.2-.1,10.1-4.6,20-11.7,27.2-7.4,7.5-13.3,8.5-23.7,8.8-4.2.1-8.8.2-15.1.2-2.5,4.5-5.5,7.1-8.8,7.1-9,0-16.4-19.7-16.5-44.1-.1-24.4,7.1-44.2,16-44.2,3.9,0,7.6,3.8,10.4,10.1,10.7-.1,21.7-.1,31.5,4.8h0c.2,0,.3-.1.5-.2,0,0-1.1-.4-1-.4-2.2-2.8-7.7-10.7-2-11.8,1.9-.4,3.9,1.3,5.4,2.9,2.6,2.8,4.9,5.9,6.9,9.2h0c2.6,1.1,5.5,3.4,7.6,5.3,0-.1-3.5-78-3.5-78.1-.2-3.7.3-4.9-4.1-8.7-5.6-4.9-13-5.8-20.1-7.2-4.3-.8-8.5-1.5-12.9-2v.2c1.7,6.6-2.3,13.3-8.9,14.9-6.6,1.6-13.3-2.4-14.9-8.9l-1.8-7.3c-11.1.4-22.1,2-32.8,4.8-1,.2-1.7,1.1-1.9,2.1-1.6,8.4-10.4,50.8-19.2,92.8,12.1,29.7,12.9,67.4-.1,70.7-4,1-8.6-1.6-13.1-6.8-3.4,16.5-5.6,27.5-5.6,28l143.1-2.5c-.2-4.3-3-67.1-3-67.2h0Z"/>
        <path class="st39" d="M194.5,248.2c-4.6,5.4-9.1,10.8-13.7,16.3-6.3-10.8-13.4-17-19.2-15.5h0c-4.4,1.1-7.4,6.4-8.7,14.4-1.9.5-3.9,1.3-5.7,1.8-11.8,3.3-16.6,5-17.6,5.2.5-6.2,7.3-11.8,11.2-17.1,27.9-37.8,28-34.7,42.2-50.8,6.7-7.6,15.8-15,24.2-20.7"/>
        <path class="st54" d="M289.2,268.6l.6.2c-.2,0-.3.1-.5.2-.1,0-.2-.1-.4-.2l.3-.3h0Z"/>
        <path class="st39" d="M291.7,182.8c5.5.6,9.7,3.3,13.2,7.4,5.8,6.8,53.1,61.6,53.2,61.7,4.1,4.8,4,11.9-.4,16.5-78.1,62-18.8,14.9-52.4,41.6,1.1-3.5,1.8-7.2,1.8-11,1.2-.3,2.3-.7,3.2-1.2,4.7-2.7,10.3-4.2,5.3-12.8-4.8-8.3-12.1-14.4-16.4-16.3h0c-1.2-2.1-2.6-4.1-4.1-6l1.6-1.6h0l7.6-7.5"/>
        <g>
          <path d="M269.7,104.7c.5,0,.6-.7.2-.9-.5-.2-1-.4-1.4-.8-.8-.8-.4-1.8,1-1.8.7,0,1.4.2,2.2.1,1.4-.1,2.6-1.2,3-2.5.4-1.3-.1-2.9-1.3-3.7-.5-.4-1,.4-.5.7.8.6,1.2,1.8.9,2.8-.3,1-1.2,1.8-2.2,1.9-.6,0-1.2,0-2.1-.1-2.2,0-3,2-1.6,3.4.6.6,1.7,1,1.8,1Z"/>
          <path d="M405.6,135.1c5.9-2.1,10.9-2.1,11.9,0,3,6.4-22.8,17.9-25.6,12-.8-1.7,1.1-4.5,4.8-7.3.5-.4,0-1.1-.5-.7-4.2,3.1-6,6.2-5,8.4,3.4,7.2,30.7-5.3,27.2-12.7-1.2-2.7-6.5-2.9-13.1-.5-.6.2-.3,1.1.3.9h0Z"/>
          <path d="M398.6,142.1c.1.6,1,.4.9-.2-2.8-11.1-10.6-20.6-20.9-25.6-6.7-3.2-14.7-4.8-19.4-10.4-3.9-4.7-4.5-11.9-1.4-17.2,3.7-6.4,13-10,20.5-5.5-1.1,3-1.6,6.5-1.6,10.4,0,1.6.1,3.5,1,5.1,2.8,5.5,10.5,3.1,8.9-5.2-.8-4.3-3.5-8.2-7.2-10.6,2.5-6.2,7.6-9.8,12.4-10.2,8.2-.8,20.5,7.6,15.9,29.2-2.5,11.9-9.7,26.3-3.8,38.9.3.6,1.1.2.8-.4-5.7-12.2,1.3-26.5,3.9-38.3,4.7-22-7.9-31.1-16.9-30.3-5,.5-10.4,4.2-13.1,10.6-7.9-4.6-17.7-1-21.6,5.9-3.2,5.6-2.6,13.3,1.5,18.3,4.8,5.8,13,7.4,19.6,10.7,10,4.8,17.7,14.2,20.4,25h0ZM379.1,83.7c3.4,2.3,5.9,5.9,6.6,9.9,1.3,7.2-4.9,9.3-7.2,4.7-.7-1.4-.8-3.2-.9-4.7,0-3.7.5-7,1.5-9.8h0Z"/>
          <path d="M339.6,26.1c.4.4,1.1-.2.6-.6l-7.3-7.4c-.4-.4-1.1.2-.6.6l7.3,7.4Z"/>
          <path d="M298.3,66.2c2.8-.2,5.6.5,8.1,1.8.5.3,1-.5.4-.8-2.6-1.4-5.6-2.1-8.6-1.9-.6,0-.5,1,0,.9h0Z"/>
          <path d="M304.9,134.9c.5,0,4.8-1.4,8.5-4.4.5-.4,0-1.1-.6-.7-2.4,1.9-5.1,3.3-8.1,4.2-.5.1-.4.9.1.9h0Z"/>
          <path d="M330.2,161.7c2.7-2.9,5.2-6.1,7.3-9.4.3-.5-.5-1-.8-.5-2.1,3.3-4.5,6.4-7.2,9.3-.4.4.2,1.1.7.6h0Z"/>
          <path d="M388.3,9.7l3.2-9.1c.2-.6-.7-.9-.9-.3l-3.2,9.1c-.2.6.7.9.9.3Z"/>
          <path d="M425.2,25.4l7.8-6.1c.5-.4,0-1.1-.6-.7l-7.8,6.1c-.5.4,0,1.1.6.7Z"/>
          <path d="M465.2,63.3c-3.8,1.1-7.7,1.8-11.6,2.2-.6,0-.5.9,0,.9,1.3,0,6.8-.8,11.9-2.2.6-.2.3-1-.2-.9h0Z"/>
          <path d="M464.4,105c-4.1.4-8.2,0-12.2-1-.6-.2-.8.7-.2.9,4,1.1,8.2,1.4,12.6,1,.6,0,.5-.9,0-.9Z"/>
          <path d="M175.2,317.6c2.1,8.3,6.3,14.4,9.4,13.7,3.1-.8,3.8-8.1,1.7-16.5-2.1-8.3-6.3-14.4-9.4-13.7-3.1.8-3.8,8.1-1.7,16.5Z"/>
          <path d="M173.4,295.4c3.1-.8,3.8-8.1,1.7-16.4-2.1-8.3-6.3-14.4-9.3-13.6-3.1.8-3.8,8.1-1.7,16.4,2.1,8.3,6.3,14.4,9.3,13.6Z"/>
          <path d="M39.5,75.6c0,.3,13.3,27.2,13.4,27.6,0,.4.3.7.7.5.2,0,.3-.2.5-.3,2.4.3,9.5,2.9,10.7,3.7.7.5.5.6,1.2.3,1.6-.7,2.5-2.6,9.3-5.8,4.8-2.2,7.1-3.3,11.5-3.3,2.9,1.5,5.8,3.2,6.4,6.4.9,5-.9,8.1-6.4,10.9-8.4,4.3-18.1,6-26.3,10.7-9.9,5.6-10.2,8.5-13.4,17.9-1,3.1-2,6-2.5,9.6,0,.2,0,.4.3.5l35.6,12.1c.3,0,.5,0,.6-.3h0c2.1,0,2.6-.8,11.9-2.5,2.3-.4,2.5-2.8,3.6-4.6,2.5-4.5,5.3-5.8,9.4-7.1,11-3.7,23.8-7.4,31.2-17,9.5-12.3,10.3-37.3-4.9-52.2-7.7-7.5-18-12.9-29.5-14.7-20.3-8.5-44.1-3.8-63.1,7.4-.1,0-.2.2-.2.4h0ZM119.3,79.6c15.1,14.6,14.2,39.2,5,51.1-6.8,8.7-18.2,12.4-28.6,15.9-5.3,1.8-9.8,2.6-13,10.2-1.2,2.8-1.8,5.7-2.3,8.6l-34.8-11.9c.5-3.3,1.4-6.1,2.4-9,3.1-9.4,3.3-11.9,13-17.4,8.1-4.6,17.7-6.3,26.3-10.7,4.1-2.1,8.1-5.1,6.9-11.8-1.3-6.9-14.6-10.6-21.8-10.2-8.5.5-16.9,7.3-18.7,8.3,0-.2-13-26.6-13.2-26.8,25.7-15,57.5-16.8,78.8,3.8h0Z"/>
          <path d="M420.7,255.8c4.3-2.8,9.7-4.2,14.3-6.8,12.6-7.1,18.7-23.8,13.5-37.3-4.2-11-10-12-24.7-47.6,4.2-2.8,7.9-6.9,10.4-12.8.1-.4.1-.8,0-1.1l-7.6-17.4c-.4-.9-1.4-1.1-2.1-.6l-6.2-15.6c20.6-25.9,13.8-64.9-14.6-82.4-12.4-7.6-26.8-9.9-40.7-6.4-28.8,7.3-45.9,37.2-38.4,66.7,6,23.9,27,41.1,50.9,41.9l9.4,15.7c-.1.4-.1.8,0,1.1l8.4,15.5c.2.4.6.7,1,.7,3.3.5,17.5,2.1,28.6-5,14.2,34.4,20.8,37.3,24.6,47.4,5,13.1-.8,29.3-13.1,36.2-4.6,2.6-9.9,3.9-14.3,6.8-6.5,4.3-10.9,12-12,20-14.5,9.5-13.1,28.6-5,44.7,5.6,11,13.5,20.9,18,32.3,3.6,9.2,3,15.1-2.5,23.4-11.5,17.4-34.2,29.9-55.3,20.2-13.5-6.2-16.5-23.6-17.1-30.8-1.1-12.4.4-25.3-3.4-37.3-3.4-10.8-13.2-21.1-24.2-21.1,1-2.3,1.5-4.9,1.3-7.5,53.7-42.6,33.2-26.4,38-30.2,4.5-4.8,4.7-12.1.4-17.1,0-.1-47.4-54.9-53.2-61.7-3.8-4.5-8.3-7-13.5-7.5,0,0-.1,0-.2,0-5.4-1.9-19.4-4.1-25-4.8-6.6-26.2-6.2-24.9-6.3-25.1,4.2-4.9,7.2-10.1,8.9-15.6,2.5-7.9,1.6-14.3.1-20,6.8,2.2,14.7-3.1,15.6-12.8.5-5.5-1.1-11.9-5-16.4,2.2-5.5,4.3-11.4,5-17.6,2.9-25.1-20.5-34.3-29.7-21.3,1-8.7-2.3-14.1-6.4-16.3-5.4-2.9-12.1-.4-16.1,3.6-3.4,3.5-5.3,8-6.9,12.4-1.8-4.6-5.8-8.3-10.6-9.6-12.5-3.4-23.6,9.2-18.6,21.2-1.7-3.9-6.7-5.8-10.9-4.7-10.8,2.8-15.1,20.5-4.9,30.3.8,8.9,3.9,17.5,9,24.8,4.6,28.2,19.4,60.7,47.4,55.6l2.6,10.2c-11,.4-21.9,2-32.3,4.8-.5.1-.7.2-1.1.6-16.6,11.4-22.4,19.1-32,29.4-9.5,10.1-13.9,14.8-33.9,41.8-3.9,5.3-10.6,10.7-11.3,17-10.1,3.2-15.7,6.1-20.8,15.5-2.8,5.2-4.6,11.1-5.1,17.2-4.7,1.5-9,4.4-10.8,8.9-1.8,4.5-1.6,9.2-.1,12.8-5.3-8.7-19.9-4.7-26,1.7-11,11.5-11,32.2-25.6,39.6-6.2,3.1-14.4,2.8-21.4-1-5.9-3.2-11-8.7-15.1-16.1-8.2-15-1.5-22.5,11.7-33.4,9.9-8.1,19.1-17.2,27.4-26.9,5.8-6.8,7.6-12.3,5.6-16.9-2.4-5.8-9.6-7.2-15.5-9-8.9-2.6-15.8-7.6-19.4-14-4.3-7.4-3.5-17.1,1.8-22.6,8.9-9.1,27-5.7,32.8-18.8,2.5.5,4.4.6,6.1.4,11,2.5,22.4-3.8,26.2-14.9,4.8-13.9-4.7-28.7-19.3-29.8-12.3-4.6-25.6,2.1-29.7,14.3-4.3,12.7,2.9,26.5,15.8,29.8-5.7,12.3-23.6,9.1-32.6,18.3-5.6,5.7-6.4,15.9-1.9,23.6,3.8,6.6,10.9,11.7,20,14.4,5.7,1.7,12.6,3.1,14.9,8.5,1.8,4.3,0,9.5-5.5,16-12.8,15.1-23,23-27.4,26.9-13.4,11.1-20.2,19-11.8,34.4,4.2,7.6,9.4,13.2,15.5,16.5,6.7,3.7,15.3,4.5,22.2,1,14.8-7.6,15.1-28.6,25.8-39.8,5.8-6.1,19.8-10,24.7-1.7.7,1.3,1.3,2.5,2.9,2.6.3.2.5.5.8.7-4.7-.5-9.2.4-8.1,5,.4,1.9,2.4,3.4,5.8,4.6,4.1,1.4,8.4,2.4,12.7,2.9,4.1,3.7,13.9,8.4,24.7,9.5,8.1.9,10.6-2.1,11.1-8.4,3.9-.2,8.1-.9,12.8-2.1,4.1-1,8.2-2.3,12.6-3.6,1.8,2.5,3.6,4.7,5.3,6.5-4.5,21.9-5.1,25.3-5.1,25.6s.2.5.4.5h5c-.9,31,2,62.1,8.7,92.5.1.6,1,.4.9-.2-6.7-30.3-9.6-61.4-8.7-92.4l135.3-2.3c0,1.8,14,39.2,2.8,88.4-.1.6.8.8.9.2,6.6-29.2,5.7-59.9-2.8-88.6h1.1c.2,0,.5-.2.5-.5l-2.3-51c4.5-1.3,7.3-3.8,9.2-7.7,10.8-.2,20.5,9.8,23.8,20.5,3.7,11.8,2.2,24.7,3.3,37.1.7,7.4,3.7,25.2,17.6,31.6,20.8,9.5,44.1-1.8,56.5-20.5,5.7-8.6,6.3-14.8,2.6-24.2-4.5-11.6-12.4-21.4-18-32.4-7.8-15.4-9.4-33.6,4-43-.8,7.6,1.1,14.8,5.3,20.1,5,6.3,13.2,9.3,20.4,7.5,11.8-3,18.1-18.5,4.9-28.7-8.4-6.4-20.5-6.1-29.4-.9,1.3-7.8,5.6-14.8,11.5-18.7h0ZM375.6,135.5c-23.6-.7-44.3-17.7-50.3-41.2-7.4-29.1,9.5-58.4,37.8-65.6,13.6-3.5,27.9-1.2,40,6.3,28.1,17.3,34.6,55.9,14.2,81.3-.1.1-.1.3,0,.4l6.5,16.4c-3.2,7.2-12.9,22.5-37.4,18.1-.4,0-.7,0-1,.2l-9.4-15.7c0-.1-.2-.2-.4-.2h0ZM33.1,177.4c4-11.9,16.7-17.9,27.9-14,11.4,3.9,17.5,16.5,13.6,28.1-3.9,11.6-16.3,17.9-27.9,14-11.4-3.9-17.5-16.5-13.6-28.1h0ZM256.2,335c-1.8,3.2-4.7,6.9-8.4,6.9-6.1,0-11.5-9.8-14.2-24h14.5s-.4-10.7-.4-10.7h-15.4c-.5-6.1-.5-12.4,0-18.5h15.9s-.4-10.7-.4-10.7h-14.1c2.6-13.9,7.8-23.4,13.9-23.4h0c3.6,0,7.1,3.5,10,9.9,8.4,18.8,7.9,54.5-1.2,70.6h0ZM258.5,264.7h1.4c9.5-.2,19.5.3,28.4,4.3-2.1,1-3.9,2.2-5.1,3.2-4.6,3.5-2.9,8.2.5,8.3-1.6,1-3.3,2.3-3.5,4.5-.2,2.2,1.2,4.5,3.4,5.2,2.8,1,5.4-1.1,7.8-2.5-.8,1.1-1.2,2.4-1.1,3.7.3,2.1,2,3.8,4,4.1,2.1.2,4.2-1,6.8-2.5-.3.6-.5,1.3-.6,2-.4,3.9,2.4,5.3,6.3,4.6-.2,5.6-1.7,11-4.1,15.9-1.9,3.8-4.4,7.4-7.5,10.5-7.3,7.5-13.1,8.4-23.4,8.6-3.8.1-7.9.2-14.3.2,8.8-16.6,9.2-51.3,1.1-70.1h0ZM306.5,288.4c-4.9,2.6-2,1.8-8,5.1-1.3.7-2.7,1.4-4.1,1.2-1.6-.2-3-1.6-3.2-3.3-.2-1.8,1-3.5,2.7-5,2.7-1.5,5.5-3.2,8.4-4.9.5-.3,0-1-.4-.8-2.8,1.4-5.9,2.9-8.4,5-2.5,1.4-2,1.1-3.5,2-1.9,1.2-4.1,2.5-6.1,1.8-1.7-.6-2.9-2.5-2.8-4.3.2-2,1.8-3.1,3.5-4.2,2.3-1.4-1,.3,11.4-5.6.5-.3.1-1.1-.4-.8-2.7,1.3-7.1,3-10,4.7-1.1.4-2.2.6-3.1,0-1-.6-1.5-2-1.1-3.2.3-1.1,1.1-2.2,2.3-3.1,5.2-4,10.7-6.3,16.3-3.3,4.5,2.4,10.9,8.2,15.2,15.6,2.5,4.2,2.9,7.4-1.1,10-1,.6-4.6,2.5-4.8,2.6-4,1.8-8.4,1.7-8-2.7.1-1.1.7-2.2,1.6-3.2,1.4-.9,2.7-1.8,4.1-2.7.5-.3,0-1-.5-.8h0ZM298.1,267.8c-2.2-.7-4.8-.8-8.2.5,0,0-.8-.3-.7-.3-2.4-3.1-5-7.4-4.2-9.5.3-.8.9-1.2,2-1.4,1.3-.3,3,.7,5,2.8,2.3,2.5,4.4,5.2,6.1,8h0ZM319.9,297.8c.8-3.5,2.7-19.2-22.8-36.4l3.2-3.2h0c12.9,7.6,22,20.9,24.5,35.6l-5,4ZM265.7,178.4c.8,3.1.3,6.2-1.3,9-5.4,9-19.1,7-21.7-3.2,0,0-1.9-7.6-1.9-7.5,2.9-.4,7-6.1,8.9-8.1,3.1-3.4,6-7.1,8.6-10.9.6-.9,1.3-2,1.5-3.1,1.2,4.9-3.1-12.4,6,23.8h0ZM265.2,43.9c5.7-.6,11.9,2.7,15.4,8.2,3,4.7,4.2,11.1,3.4,17.9-.4,3.7-1.4,7.3-2.5,10.7,4.6-24-15.5-40.1-26.8-28.3,0-.5.2-.9.3-1.3,1.8-3.8,5.8-6.8,10.2-7.3h0ZM233.5,36.8c3.7-3.8,10-6.2,15-3.5,6,3.3,6.7,10.9,5.6,17.6-.6,1.3-.9,2.6-1,4,0,.3-.1.5-.1.8,0-3.4-2.5-8.9-5.1-11.3-7.8-7.2-19.2-1.9-21.1,6.7,0-.4-.2-.8-.3-1.2,1.6-4.6,3.6-9.5,7.1-13.1h0ZM194.2,125.6c-2.6-8.9-6-24.8-4.3-34.2,8.5,3.3,15.8,1.8,20.9-2.9,2.7,1.5,6.4,1,9.3,0,3.5-1.2,6.3-4.5,6.5-8.3,2.9,5.5,8.8,7.3,13.1,4.9,2.8-1.5,2.5-4.8,4.6-6.4,6.9,6.4,10.6,12.8,13.8,21.4.2-5.2,1.1-11.7,5.8-14.8,5.1-3.4,10.8-1.8,14.9,2.7-.2.5.2.8.6.7,3.5,4.2,5,10.3,4.5,15.5-.9,9.5-8.9,14.5-15.2,11.7-.3-.2-.7.2-.6.5,1.6,5.8,2.7,12.2.1,20.4-9.4,29.9-55.6,51.3-73.9-11.1h0ZM93.5,337.2c-3.1-1.1-4.9-2.4-5.2-3.9-1.2-5.3,7.2-4.3,12.5-2.9l.6.6c.2,3.4,1.1,6.4,3.4,8.9-3.9-.5-7.7-1.4-11.3-2.7h0ZM130.8,349.5c-6.9-.7-13.7-2.9-19.7-6.2-2.2-1.2-4.5-2.8-6.1-4.8-3.4-4.2-2.9-11-1.7-16.1.4-1.8,1.2-3.1,2.2-3.9,2.2-1.7,5.1-1,5.4,3-.5,3.8-.1,9-.2,12.5h0c0,.6.9.6.9,0,.4-11.1-.5-18,3.3-20.1,1.8-1,4.4-.6,5.8.9,2.1,2.2.9,6.2.7,9.1,0,.9-.2,1.8-.2,2.7-1,3.5-1.2,7.6-1.3,11,0,.6.8.6.9,0,.5-3.8.9-7.4,1.3-11,.8-2.5,2-4.6,4-5.2,1.8-.5,4,.3,5,1.9.8,1.4.8,3.2.6,4.9-.6,8.1-1.1,4.2-1.5,10.7,0,.6.8.7.9.1.4-1.8.7-3.6.9-5.5,1.5-3.7,4.9-4.6,6.6-3.5,2.2,1.4,2.8,5.9,2.6,8.4,0,.7-.1,1.4-.2,2.1-.4,6.7-1.7,9.8-10.2,8.9h0ZM154.3,339.1c-4.6,1.1-8.6,1.8-12.5,2,0-.9.1-1.8.2-2.6.3-2.8-.5-7.5-3-9.2-2.2-1.5-5.3-.1-6.8,1.9.3-3,.8-6.2-.5-8.4-1.2-2-3.8-2.9-6-2.3-1.5.5-2.7,1.6-3.5,3.1.3-3.1,1.4-7-1-9.5-1.7-1.8-4.7-2.3-6.9-1.1-2.3,1.3-2.8,3.7-3.1,5.9-1-2.1-3.2-2.8-5.4-1.8-3.2-10.3-1.5-21.9,3.5-31.2,7.4-13.9,16-13.3,40.3-21.2-2.9,20.7,4.9,52.7,16.9,70.8-4.1,1.3-8.2,2.5-12.3,3.5h0ZM186.5,275c-1.6-3.8-3.3-7.3-5.1-10.5,7.7-9.1-2.1,2.5,9.7-11.6l-4.6,22ZM180.4,264.7h0c2.4,4.1,4.3,8.3,6,12.6h0c0,.1,0,0,0,0,12.1,30.2,12.1,66.3-.1,69.4-4.7,1.2-9.5-3-12.6-6.6-18.5-21.4-28.4-76.3-15.2-88.9.9-.8,2-1.5,3.2-1.8h0c7.3-1.7,14.9,8.8,18.7,15.3h0ZM310.4,365.6c-9.2.2-126.5,2.2-142.1,2.4.5-2.8,3.4-16.8,4.9-24.5,3.1,2.8,6.2,4.2,9.1,4,2.5.7,4.2.1,4.3.1,13.5-3.4,12.6-41.4.5-71.2l.2-.8,18.9-41.1-11.3,13.7c0-.4-.5-.6-.8-.3-3.9,4.7-8.1,9.6-13.2,15.8-4-6.7-11.7-17.1-19.4-15.2h0c-.1,0-.5.1-1,.4-6.8-.1-9.6,8.3-10.7,15-3.2,1.1-9,2.6-19.6,5.9.9-5.8,7.2-11,11.1-16.2,21.5-29.1,26-33.5,33.8-41.7,9.6-10.2,15.5-18.1,32.3-29.5,1.4-.7,16.4-4.3,32.8-4.9,1.8,7.1,1.7,7.1,2.1,8,3.5,10.1,17.4,11.7,23,2.4,1.7-2.8,2.2-6.2,1.5-9.2,5.5.7,19.6,3,24.8,4.9.1,0,.3,0,.4,0,4.9.6,9,2.9,12.6,7.1,5.7,6.7,53.1,61.6,53.2,61.7,4,4.6,3.8,11.5-.4,15.9l-31.6,25.1c-2.6-14.7-11.8-28-24.7-35.6l3.6-3.6c.3-.3,0-.8-.3-.8l-2.7-39.6-4.1,46.1c-.1.1-2.5,2.5-2.4,2.4-2-2.5-5.3-6.5-8.3-5.9-5.3,1.1-2.2,7.3,1,11.7-8.8-3.8-18.5-4.2-28-4.1h-1.8c-3-6.6-6.7-10.1-10.7-10.1h0c-6.5,0-12,9.9-14.7,24.4h-20c-2.9,0-5.2,2.3-5.3,5.2-.1,3,2.3,5.6,5.4,5.6h18.6c-.5,6.3-.4,12.6,0,18.5h-18.6c-2.9,0-5.2,2.3-5.3,5.2-.1,3,2.3,5.6,5.4,5.6h20c1.6,8.5,6.4,24.8,15.1,24.8,3.3,0,6.4-2.5,9.1-7.1,6.6,0,10.9,0,14.8-.2,10.4-.2,16.5-1.2,24-8.9,3.1-3.2,5.7-6.9,7.7-10.9,1.6,0,3.2-.2,4.7-.5l2.3,50.3h0ZM438,276c12.6,9.7,6.6,24.3-4.5,27-6.7,1.7-14.7-1.3-19.4-7.2-4.2-5.3-6-12.6-5-20.2,8.5-5.4,20.6-6,29,.4h0Z"/>
          <path d="M45.7,55.7c.4.5,1.1-.1.7-.6-4.8-5.8-10.3-11.2-16.2-15.9-.5-.4-1,.3-.6.7,5.9,4.7,11.3,10,16,15.8h0Z"/>
          <path d="M54,48.3c-.6-6.4-.7-12.8-.3-19.2,0-.6-.9-.6-.9,0-.4,6.4-.3,12.9.3,19.4,0,.6,1,.5.9,0h0Z"/>
          <path d="M10.6,58.2c11.7,3.2,18.4,7.6,18.9,7.6s.6-.6.2-.8c-6-3.3-12.3-5.8-18.9-7.6-.6-.2-.8.7-.2.9h0Z"/>
          <path d="M255.4,414.7c-.6,2.9-1.4,5.8-3.6,7.3-1.7,1.1-3.3,1-5.2-.4-.3-.2-.7,0-.7.3-1.6,11.2-3.4,22.5-5.2,33.6-.1.6.8.8.9.1,1.8-10.9,3.6-22,5.1-32.9,1.9,1.2,3.8,1.2,5.6,0,2.5-1.7,3.4-4.8,4-7.9.1-.6-.8-.8-.9-.2h0Z"/>
        </g>
      </g>
      <path class="st39" d="M190.3,110.1s-7.7-4.9-9.2-24.2c0,0-14.5-14.4,1.6-29,0,0,7.1-5.2,14.1,3.1,0,0-6-13.4,9.5-20.6,0,0,16.8-4.8,20.1,12.3,0,0,3.1-13.3,16.5-9.8,0,0,8.7,1.7,9.6,14.9,0,0,5.1-14.3,19.5-4.8,14.3,9.5,9.3,32.7,7.8,36.1,0,0-10.4-10-18.4-1,0,0-4.4,9.1-3.4,13,0,0-5.6-13.8-13.8-21,0,0-4,9.8-7.9,7,0,0-5.8,2.1-10-5.8,0,0-.7,12.2-15.6,8.5,0,0-4.4,7.7-18.6,3.7l-2.4-.8s-1.1,15.8.4,18.5h0Z"/>
      <g>
        <g class="st49">
          <polygon class="st2" points="167.4 264.4 161.5 266.2 161.5 264.4 167.4 264.4"/>
          <polygon class="st35" points="174 264.4 175.5 269.4 161.5 273.6 161.5 266.2 167.4 264.4 174 264.4"/>
          <polygon class="st35" points="175.5 269.4 175.8 270.3 161.5 274.6 161.5 273.6 175.5 269.4"/>
          <polygon class="st42" points="175.8 270.3 176.1 271.3 161.5 275.7 161.5 274.6 175.8 270.3"/>
          <polygon class="st55" points="176.1 271.3 176.4 272.3 161.5 276.7 161.5 275.7 176.1 271.3"/>
          <polygon class="st44" points="176.4 272.3 176.7 273.2 161.5 277.8 161.5 276.7 176.4 272.3"/>
          <polygon class="st47" points="176.7 273.2 176.9 274.2 161.5 278.8 161.5 277.8 176.7 273.2"/>
          <polygon class="st52" points="176.9 274.2 177.2 275.2 161.5 279.9 161.5 278.8 176.9 274.2"/>
          <polygon class="st29" points="177.2 275.2 177.5 276.1 161.5 280.9 161.5 279.9 177.2 275.2"/>
          <polygon class="st29" points="177.5 276.1 177.6 276.5 177.6 276.6 161.5 281.4 161.5 280.9 177.5 276.1"/>
          <polygon class="st33" points="177.6 277 161.5 281.8 161.5 281.4 177.6 276.6 177.6 277"/>
          <polygon class="st32" points="177.6 277.4 161.5 282.3 161.5 281.8 177.6 277 177.6 277.4"/>
          <polygon class="st18" points="177.6 277.9 161.5 282.7 161.5 282.3 177.6 277.4 177.6 277.9"/>
          <polygon class="st40" points="177.6 278.3 161.5 283.1 161.5 282.7 177.6 277.9 177.6 278.3"/>
          <polygon class="st10" points="177.6 278.8 161.5 283.6 161.5 283.1 177.6 278.3 177.6 278.8"/>
          <polygon class="st36" points="177.6 279.2 161.6 284 161.5 283.9 161.5 283.6 177.6 278.8 177.6 279.2"/>
          <polygon class="st34" points="177.6 279.6 161.7 284.4 161.6 284 177.6 279.2 177.6 279.6"/>
          <polygon class="st46" points="177.6 280.1 161.8 284.8 161.7 284.4 177.6 279.6 177.6 280.1"/>
          <polygon class="st0" points="177.6 280.5 161.9 285.2 161.8 284.8 177.6 280.1 177.6 280.5"/>
          <polygon class="st3" points="177.6 280.9 162 285.6 161.9 285.2 177.6 280.5 177.6 280.9"/>
          <polygon class="st6" points="177.6 281.4 162.2 286 162 285.6 177.6 280.9 177.6 281.4"/>
          <polygon class="st16" points="177.6 281.8 162.3 286.4 162.2 286 177.6 281.4 177.6 281.8"/>
          <polygon class="st16" points="177.6 282.1 162.3 286.6 162.3 286.4 177.6 281.8 177.6 282.1"/>
          <polygon class="st4" points="177.6 282.3 162.4 286.9 162.3 286.6 177.6 282.1 177.6 282.3"/>
          <polygon class="st51" points="177.6 282.6 162.5 287.1 162.4 286.9 177.6 282.3 177.6 282.6"/>
          <polygon class="st37" points="177.6 282.8 162.5 287.3 162.5 287.1 177.6 282.6 177.6 282.8"/>
          <polygon class="st7" points="177.6 283.1 162.6 287.6 162.5 287.3 177.6 282.8 177.6 283.1"/>
          <polygon class="st50" points="177.6 283.3 162.7 287.8 162.6 287.6 177.6 283.1 177.6 283.3"/>
          <polygon class="st41" points="177.6 283.6 162.7 288 162.7 287.8 177.6 283.3 177.6 283.6"/>
          <polygon class="st19" points="177.6 283.8 162.8 288.2 162.7 288 177.6 283.6 177.6 283.8"/>
          <polygon class="st43" points="177.6 284 162.9 288.5 162.8 288.2 177.6 283.8 177.6 284"/>
          <polygon class="st5" points="177.6 284.3 163 288.7 162.9 288.5 177.6 284 177.6 284.3"/>
          <polygon class="st31" points="177.6 284.5 163 288.9 163 288.7 177.6 284.3 177.6 284.5"/>
          <polygon class="st17" points="177.6 284.8 163.1 289.1 163 288.9 177.6 284.5 177.6 284.8"/>
          <polygon class="st45" points="177.6 285 163.2 289.4 163.1 289.1 177.6 284.8 177.6 285"/>
          <polygon class="st38" points="177.6 285.3 163.2 289.6 163.2 289.4 177.6 285 177.6 285.3"/>
          <polygon class="st11" points="177.6 285.5 163.3 289.8 163.2 289.6 177.6 285.3 177.6 285.5"/>
          <polygon class="st8" points="177.6 285.8 163.4 290 163.3 289.8 177.6 285.5 177.6 285.8"/>
          <polygon class="st30" points="177.6 286 163.4 290.3 163.4 290 177.6 285.8 177.6 286"/>
          <polygon class="st48" points="177.6 286.3 163.5 290.5 163.4 290.3 177.6 286 177.6 286.3"/>
          <polygon class="st12" points="177.6 286.5 163.6 290.7 163.5 290.5 177.6 286.3 177.6 286.5"/>
          <polygon class="st12" points="177.6 286.7 163.6 290.9 163.6 290.7 177.6 286.5 177.6 286.7"/>
          <polygon class="st9" points="177.6 286.9 163.7 291.1 163.6 290.9 177.6 286.7 177.6 286.9"/>
          <polygon class="st14" points="177.6 287.1 163.7 291.3 163.7 291.1 177.6 286.9 177.6 287.1"/>
          <polygon class="st53" points="177.6 287.3 163.8 291.5 163.7 291.3 177.6 287.1 177.6 287.3"/>
          <polygon class="st13" points="177.6 287.5 163.8 291.6 163.8 291.5 177.6 287.3 177.6 287.5"/>
          <polygon class="st13" points="165.1 296 163.8 291.6 177.6 287.5 177.6 296 165.1 296"/>
        </g>
        <path d="M172.5,295.7c-3.5,0-7.6-5.9-9.5-14-2-8.7-.7-16.1,3-17h0c3.7-.9,8.2,5.2,10.2,13.9,2,8.7.7,16.1-3,17-.2,0-.5,0-.7,0ZM166.2,265.7h0c-3,.7-4.1,7.9-2.2,15.8,1.8,7.8,6,13.9,9,13.2,3-.7,4.1-7.9,2.2-15.8-1.8-7.8-6-13.9-9-13.2Z"/>
      </g>
      <g>
        <g class="st20">
          <polygon class="st2" points="179.1 300.4 173.3 302.2 173.3 300.4 179.1 300.4"/>
          <polygon class="st35" points="185.8 300.4 187.3 305.4 173.3 309.6 173.3 302.2 179.1 300.4 185.8 300.4"/>
          <polygon class="st35" points="187.3 305.4 187.6 306.3 173.3 310.6 173.3 309.6 187.3 305.4"/>
          <polygon class="st42" points="187.6 306.3 187.9 307.3 173.3 311.7 173.3 310.6 187.6 306.3"/>
          <polygon class="st55" points="187.9 307.3 188.1 308.3 173.3 312.7 173.3 311.7 187.9 307.3"/>
          <polygon class="st44" points="188.1 308.3 188.4 309.2 173.3 313.8 173.3 312.7 188.1 308.3"/>
          <polygon class="st47" points="188.4 309.2 188.7 310.2 173.3 314.8 173.3 313.8 188.4 309.2"/>
          <polygon class="st52" points="188.7 310.2 189 311.2 173.3 315.9 173.3 314.8 188.7 310.2"/>
          <polygon class="st29" points="189 311.2 189.3 312.1 173.3 316.9 173.3 315.9 189 311.2"/>
          <polygon class="st29" points="189.3 312.1 189.4 312.4 189.4 312.6 173.3 317.4 173.3 316.9 189.3 312.1"/>
          <polygon class="st33" points="189.4 313 173.3 317.8 173.3 317.4 189.4 312.6 189.4 313"/>
          <polygon class="st32" points="189.4 313.4 173.3 318.3 173.3 317.8 189.4 313 189.4 313.4"/>
          <polygon class="st18" points="189.4 313.9 173.3 318.7 173.3 318.3 189.4 313.4 189.4 313.9"/>
          <polygon class="st40" points="189.4 314.3 173.3 319.1 173.3 318.7 189.4 313.9 189.4 314.3"/>
          <polygon class="st10" points="189.4 314.7 173.3 319.6 173.3 319.1 189.4 314.3 189.4 314.7"/>
          <polygon class="st36" points="189.4 315.2 173.3 320 173.3 320 173.3 319.6 189.4 314.7 189.4 315.2"/>
          <polygon class="st34" points="189.4 315.6 173.5 320.4 173.3 320 189.4 315.2 189.4 315.6"/>
          <polygon class="st46" points="189.4 316.1 173.6 320.8 173.5 320.4 189.4 315.6 189.4 316.1"/>
          <polygon class="st0" points="189.4 316.5 173.7 321.2 173.6 320.8 189.4 316.1 189.4 316.5"/>
          <polygon class="st3" points="189.4 316.9 173.8 321.6 173.7 321.2 189.4 316.5 189.4 316.9"/>
          <polygon class="st6" points="189.4 317.4 173.9 322 173.8 321.6 189.4 316.9 189.4 317.4"/>
          <polygon class="st16" points="189.4 317.8 174.1 322.4 173.9 322 189.4 317.4 189.4 317.8"/>
          <polygon class="st16" points="189.4 318.1 174.1 322.6 174.1 322.4 189.4 317.8 189.4 318.1"/>
          <polygon class="st4" points="189.4 318.3 174.2 322.9 174.1 322.6 189.4 318.1 189.4 318.3"/>
          <polygon class="st51" points="189.4 318.6 174.3 323.1 174.2 322.9 189.4 318.3 189.4 318.6"/>
          <polygon class="st37" points="189.4 318.8 174.3 323.3 174.3 323.1 189.4 318.6 189.4 318.8"/>
          <polygon class="st7" points="189.4 319 174.4 323.5 174.3 323.3 189.4 318.8 189.4 319"/>
          <polygon class="st50" points="189.4 319.3 174.5 323.8 174.4 323.5 189.4 319 189.4 319.3"/>
          <polygon class="st41" points="189.4 319.5 174.5 324 174.5 323.8 189.4 319.3 189.4 319.5"/>
          <polygon class="st19" points="189.4 319.8 174.6 324.2 174.5 324 189.4 319.5 189.4 319.8"/>
          <polygon class="st43" points="189.4 320 174.7 324.5 174.6 324.2 189.4 319.8 189.4 320"/>
          <polygon class="st5" points="189.4 320.3 174.7 324.7 174.7 324.5 189.4 320 189.4 320.3"/>
          <polygon class="st31" points="189.4 320.5 174.8 324.9 174.7 324.7 189.4 320.3 189.4 320.5"/>
          <polygon class="st17" points="189.4 320.8 174.9 325.1 174.8 324.9 189.4 320.5 189.4 320.8"/>
          <polygon class="st45" points="189.4 321 174.9 325.4 174.9 325.1 189.4 320.8 189.4 321"/>
          <polygon class="st38" points="189.4 321.3 175 325.6 174.9 325.4 189.4 321 189.4 321.3"/>
          <polygon class="st11" points="189.4 321.5 175.1 325.8 175 325.6 189.4 321.3 189.4 321.5"/>
          <polygon class="st8" points="189.4 321.8 175.1 326 175.1 325.8 189.4 321.5 189.4 321.8"/>
          <polygon class="st30" points="189.4 322 175.2 326.3 175.1 326 189.4 321.8 189.4 322"/>
          <polygon class="st48" points="189.4 322.3 175.3 326.5 175.2 326.3 189.4 322 189.4 322.3"/>
          <polygon class="st12" points="189.4 322.5 175.4 326.7 175.3 326.5 189.4 322.3 189.4 322.5"/>
          <polygon class="st12" points="189.4 322.7 175.4 326.9 175.4 326.7 189.4 322.5 189.4 322.7"/>
          <polygon class="st9" points="189.4 322.9 175.5 327.1 175.4 326.9 189.4 322.7 189.4 322.9"/>
          <polygon class="st14" points="189.4 323.1 175.5 327.3 175.5 327.1 189.4 322.9 189.4 323.1"/>
          <polygon class="st53" points="189.4 323.3 175.6 327.5 175.5 327.3 189.4 323.1 189.4 323.3"/>
          <polygon class="st13" points="189.4 323.5 175.6 327.6 175.6 327.5 189.4 323.3 189.4 323.5"/>
          <polygon class="st13" points="176.9 332 175.6 327.6 189.4 323.5 189.4 332 176.9 332"/>
        </g>
        <path d="M184.3,331.7c-3.5,0-7.6-5.9-9.5-14-2-8.7-.7-16.1,3-17h0c3.7-.9,8.2,5.2,10.2,13.9,2,8.7.7,16.1-3,17-.2,0-.5,0-.7,0ZM178,301.7h0c-3,.7-4.1,7.9-2.2,15.8,1.8,7.8,6,13.9,9,13.2,3-.7,4.1-7.9,2.2-15.8-1.8-7.8-6-13.9-9-13.2Z"/>
      </g>
      <g>
        <g class="st23">
          <polygon class="st2" points="237.2 288.6 241.3 278 248.1 278 248.1 288.6 237.2 288.6"/>
          <polygon class="st2" points="231.8 288.6 235.8 278 241.3 278 237.2 288.6 231.8 288.6"/>
          <polygon class="st35" points="226.4 288.6 230.4 278 235.8 278 231.8 288.6 226.4 288.6"/>
          <polygon class="st35" points="225.6 288.6 229.6 278 230.4 278 226.4 288.6 225.6 288.6"/>
          <polygon class="st42" points="224.8 288.6 228.9 278 229.6 278 225.6 288.6 224.8 288.6"/>
          <polygon class="st55" points="224 288.6 228.1 278 228.9 278 224.8 288.6 224 288.6"/>
          <polygon class="st44" points="223.3 288.6 227.3 278 228.1 278 224 288.6 223.3 288.6"/>
          <polygon class="st47" points="222.5 288.6 226.5 278 227.3 278 223.3 288.6 222.5 288.6"/>
          <polygon class="st52" points="221.7 288.6 225.7 278 226.5 278 222.5 288.6 221.7 288.6"/>
          <polygon class="st29" points="220.9 288.6 225 278 225.7 278 221.7 288.6 220.9 288.6"/>
          <polygon class="st29" points="220.6 288.6 224.6 278 225 278 220.9 288.6 220.6 288.6"/>
          <polygon class="st33" points="220.3 288.6 224.3 278 224.6 278 220.6 288.6 220.3 288.6"/>
          <polygon class="st32" points="220 288.6 224 278 224.3 278 220.3 288.6 220 288.6"/>
          <polygon class="st18" points="219.6 288.6 223.7 278 224 278 220 288.6 219.6 288.6"/>
          <polygon class="st40" points="219.3 288.6 223.4 278 223.7 278 219.6 288.6 219.3 288.6"/>
          <polygon class="st10" points="219 288.6 223 278 223.4 278 219.3 288.6 219 288.6"/>
          <polygon class="st36" points="218.7 288.6 222.7 278 223 278 219 288.6 218.7 288.6"/>
          <polygon class="st34" points="218.3 288.6 222.4 278 222.7 278 218.7 288.6 218.3 288.6"/>
          <polygon class="st46" points="218 288.6 222.1 278 222.4 278 218.3 288.6 218 288.6"/>
          <polygon class="st0" points="217.7 288.6 221.7 278 222.1 278 218 288.6 217.7 288.6"/>
          <polygon class="st3" points="217.4 288.6 221.4 278 221.7 278 217.7 288.6 217.4 288.6"/>
          <polygon class="st6" points="217 288.6 221.1 278 221.4 278 217.4 288.6 217 288.6"/>
          <polygon class="st16" points="216.7 288.6 220.8 278 221.1 278 217 288.6 216.7 288.6"/>
          <polygon class="st16" points="216.5 288.6 220.6 278 220.8 278 216.7 288.6 216.5 288.6"/>
          <polygon class="st4" points="216.4 288.6 220.4 278 220.6 278 216.5 288.6 216.4 288.6"/>
          <polygon class="st51" points="216.2 288.6 220.2 278 220.4 278 216.4 288.6 216.2 288.6"/>
          <polygon class="st37" points="216 288.6 220 278 220.2 278 216.2 288.6 216 288.6"/>
          <polygon class="st7" points="215.8 288.6 219.9 278 220 278 216 288.6 215.8 288.6"/>
          <polygon class="st50" points="215.6 288.6 219.7 278 219.9 278 215.8 288.6 215.6 288.6"/>
          <polygon class="st41" points="215.5 288.6 219.5 278 219.7 278 215.6 288.6 215.5 288.6"/>
          <polygon class="st19" points="215.3 288.6 219.3 278 219.5 278 215.5 288.6 215.3 288.6"/>
          <polygon class="st43" points="215.1 288.6 219.1 278 219.3 278 215.3 288.6 215.1 288.6"/>
          <polygon class="st5" points="214.9 288.6 218.9 278 219.1 278 215.1 288.6 214.9 288.6"/>
          <polygon class="st31" points="214.7 288.6 218.8 278 218.9 278 214.9 288.6 214.7 288.6"/>
          <polygon class="st17" points="214.5 288.6 218.6 278 218.8 278 214.7 288.6 214.5 288.6"/>
          <polygon class="st45" points="214.4 288.6 218.4 278 218.6 278 214.5 288.6 214.4 288.6"/>
          <polygon class="st38" points="214.2 288.6 218.2 278 218.4 278 214.4 288.6 214.2 288.6"/>
          <polygon class="st11" points="214 288.6 218 278 218.2 278 214.2 288.6 214 288.6"/>
          <polygon class="st8" points="213.8 288.6 217.9 278 218 278 214 288.6 213.8 288.6"/>
          <polygon class="st30" points="213.6 288.6 217.7 278 217.9 278 213.8 288.6 213.6 288.6"/>
          <polygon class="st48" points="213.4 288.6 217.5 278 217.7 278 213.6 288.6 213.4 288.6"/>
          <polygon class="st12" points="213.3 288.6 217.3 278 217.5 278 213.4 288.6 213.3 288.6"/>
          <polygon class="st12" points="213.1 288.6 217.2 278 217.3 278 213.3 288.6 213.1 288.6"/>
          <polygon class="st9" points="213 288.6 217 278 217.2 278 213.1 288.6 213 288.6"/>
          <polygon class="st14" points="212.8 288.6 216.9 278 217 278 213 288.6 212.8 288.6"/>
          <polygon class="st53" points="212.7 288.6 216.7 278 216.9 278 212.8 288.6 212.7 288.6"/>
          <polygon class="st13" points="212.5 288.6 216.6 278 216.7 278 212.7 288.6 212.5 288.6"/>
          <polygon class="st13" points="216.6 278 212.5 288.6 207.3 288.6 207.3 278 216.6 278"/>
        </g>
        <path d="M248.5,289.1h-35.9c-3.2,0-5.8-2.6-5.8-5.8s2.3-5.5,5.3-5.8h0s.5,0,.5,0h35.9v11.6ZM212.6,278.5c-2.6,0-4.8,2.2-4.8,4.8s2.2,4.8,4.8,4.8h34.9v-9.6h-34.9Z"/>
      </g>
      <g>
        <g class="st21">
          <polygon class="st2" points="237.2 317.4 241.3 306.8 248.1 306.8 248.1 317.4 237.2 317.4"/>
          <polygon class="st2" points="231.8 317.4 235.8 306.8 241.3 306.8 237.2 317.4 231.8 317.4"/>
          <polygon class="st35" points="226.4 317.4 230.4 306.8 235.8 306.8 231.8 317.4 226.4 317.4"/>
          <polygon class="st35" points="225.6 317.4 229.6 306.8 230.4 306.8 226.4 317.4 225.6 317.4"/>
          <polygon class="st42" points="224.8 317.4 228.9 306.8 229.6 306.8 225.6 317.4 224.8 317.4"/>
          <polygon class="st55" points="224 317.4 228.1 306.8 228.9 306.8 224.8 317.4 224 317.4"/>
          <polygon class="st44" points="223.3 317.4 227.3 306.8 228.1 306.8 224 317.4 223.3 317.4"/>
          <polygon class="st47" points="222.5 317.4 226.5 306.8 227.3 306.8 223.3 317.4 222.5 317.4"/>
          <polygon class="st52" points="221.7 317.4 225.7 306.8 226.5 306.8 222.5 317.4 221.7 317.4"/>
          <polygon class="st29" points="220.9 317.4 225 306.8 225.7 306.8 221.7 317.4 220.9 317.4"/>
          <polygon class="st29" points="220.6 317.4 224.6 306.8 225 306.8 220.9 317.4 220.6 317.4"/>
          <polygon class="st33" points="220.3 317.4 224.3 306.8 224.6 306.8 220.6 317.4 220.3 317.4"/>
          <polygon class="st32" points="220 317.4 224 306.8 224.3 306.8 220.3 317.4 220 317.4"/>
          <polygon class="st18" points="219.6 317.4 223.7 306.8 224 306.8 220 317.4 219.6 317.4"/>
          <polygon class="st40" points="219.3 317.4 223.4 306.8 223.7 306.8 219.6 317.4 219.3 317.4"/>
          <polygon class="st10" points="219 317.4 223 306.8 223.4 306.8 219.3 317.4 219 317.4"/>
          <polygon class="st36" points="218.7 317.4 222.7 306.8 223 306.8 219 317.4 218.7 317.4"/>
          <polygon class="st34" points="218.3 317.4 222.4 306.8 222.7 306.8 218.7 317.4 218.3 317.4"/>
          <polygon class="st46" points="218 317.4 222.1 306.8 222.4 306.8 218.3 317.4 218 317.4"/>
          <polygon class="st0" points="217.7 317.4 221.7 306.8 222.1 306.8 218 317.4 217.7 317.4"/>
          <polygon class="st3" points="217.4 317.4 221.4 306.8 221.7 306.8 217.7 317.4 217.4 317.4"/>
          <polygon class="st6" points="217.1 317.4 221.1 306.8 221.4 306.8 217.4 317.4 217.1 317.4"/>
          <polygon class="st16" points="216.7 317.4 220.8 306.8 221.1 306.8 217.1 317.4 216.7 317.4"/>
          <polygon class="st16" points="216.5 317.4 220.6 306.8 220.8 306.8 216.7 317.4 216.5 317.4"/>
          <polygon class="st4" points="216.4 317.4 220.4 306.8 220.6 306.8 216.5 317.4 216.4 317.4"/>
          <polygon class="st51" points="216.2 317.4 220.2 306.8 220.4 306.8 216.4 317.4 216.2 317.4"/>
          <polygon class="st37" points="216 317.4 220 306.8 220.2 306.8 216.2 317.4 216 317.4"/>
          <polygon class="st7" points="215.8 317.4 219.9 306.8 220 306.8 216 317.4 215.8 317.4"/>
          <polygon class="st50" points="215.6 317.4 219.7 306.8 219.9 306.8 215.8 317.4 215.6 317.4"/>
          <polygon class="st41" points="215.5 317.4 219.5 306.8 219.7 306.8 215.6 317.4 215.5 317.4"/>
          <polygon class="st19" points="215.3 317.4 219.3 306.8 219.5 306.8 215.5 317.4 215.3 317.4"/>
          <polygon class="st43" points="215.1 317.4 219.1 306.8 219.3 306.8 215.3 317.4 215.1 317.4"/>
          <polygon class="st5" points="214.9 317.4 219 306.8 219.1 306.8 215.1 317.4 214.9 317.4"/>
          <polygon class="st31" points="214.7 317.4 218.8 306.8 219 306.8 214.9 317.4 214.7 317.4"/>
          <polygon class="st17" points="214.5 317.4 218.6 306.8 218.8 306.8 214.7 317.4 214.5 317.4"/>
          <polygon class="st45" points="214.4 317.4 218.4 306.8 218.6 306.8 214.5 317.4 214.4 317.4"/>
          <polygon class="st38" points="214.2 317.4 218.2 306.8 218.4 306.8 214.4 317.4 214.2 317.4"/>
          <polygon class="st11" points="214 317.4 218 306.8 218.2 306.8 214.2 317.4 214 317.4"/>
          <polygon class="st8" points="213.8 317.4 217.9 306.8 218 306.8 214 317.4 213.8 317.4"/>
          <polygon class="st30" points="213.6 317.4 217.7 306.8 217.9 306.8 213.8 317.4 213.6 317.4"/>
          <polygon class="st48" points="213.5 317.4 217.5 306.8 217.7 306.8 213.6 317.4 213.5 317.4"/>
          <polygon class="st12" points="213.3 317.4 217.3 306.8 217.5 306.8 213.5 317.4 213.3 317.4"/>
          <polygon class="st12" points="213.1 317.4 217.2 306.8 217.3 306.8 213.3 317.4 213.1 317.4"/>
          <polygon class="st9" points="213 317.4 217 306.8 217.2 306.8 213.1 317.4 213 317.4"/>
          <polygon class="st14" points="212.8 317.4 216.9 306.8 217 306.8 213 317.4 212.8 317.4"/>
          <polygon class="st53" points="212.7 317.4 216.7 306.8 216.9 306.8 212.8 317.4 212.7 317.4"/>
          <polygon class="st13" points="212.5 317.4 216.6 306.8 216.7 306.8 212.7 317.4 212.5 317.4"/>
          <polygon class="st13" points="216.6 306.8 212.5 317.4 207.3 317.4 207.3 306.8 216.6 306.8"/>
        </g>
        <path d="M248.5,317.9h-35.9c-3.2,0-5.8-2.6-5.8-5.8s2.3-5.5,5.3-5.8h0s.5,0,.5,0h35.9v11.6ZM212.6,307.3c-2.6,0-4.8,2.2-4.8,4.8s2.2,4.8,4.8,4.8h34.9v-9.6h-34.9Z"/>
      </g>
      <g>
        <g class="st22">
          <polygon class="st2" points="75.6 107.4 82.4 89.6 86.7 91.3 86.7 107.4 75.6 107.4"/>
          <polygon class="st2" points="71.7 107.4 79 88.3 82.4 89.6 75.6 107.4 71.7 107.4"/>
          <polygon class="st35" points="67.8 107.4 75.6 87.1 75.8 87.1 79 88.3 71.7 107.4 67.8 107.4"/>
          <polygon class="st35" points="67.3 107.4 75 87.1 75.6 87.1 67.8 107.4 67.3 107.4"/>
          <polygon class="st42" points="66.7 107.4 74.5 87.1 75 87.1 67.3 107.4 66.7 107.4"/>
          <polygon class="st55" points="66.2 107.4 73.9 87.1 74.5 87.1 66.7 107.4 66.2 107.4"/>
          <polygon class="st44" points="65.6 107.4 73.4 87.1 73.9 87.1 66.2 107.4 65.6 107.4"/>
          <polygon class="st47" points="65.1 107.4 72.8 87.1 73.4 87.1 65.6 107.4 65.1 107.4"/>
          <polygon class="st52" points="64.5 107.4 72.2 87.1 72.8 87.1 65.1 107.4 64.5 107.4"/>
          <polygon class="st29" points="64 107.4 71.7 87.1 72.2 87.1 64.5 107.4 64 107.4"/>
          <polygon class="st29" points="63.7 107.4 71.5 87.1 71.7 87.1 64 107.4 63.7 107.4"/>
          <polygon class="st33" points="63.5 107.4 71.2 87.1 71.5 87.1 63.7 107.4 63.5 107.4"/>
          <polygon class="st32" points="63.3 107.4 71 87.1 71.2 87.1 63.5 107.4 63.3 107.4"/>
          <polygon class="st18" points="63 107.4 70.8 87.1 71 87.1 63.3 107.4 63 107.4"/>
          <polygon class="st40" points="62.8 107.4 70.5 87.1 70.8 87.1 63 107.4 62.8 107.4"/>
          <polygon class="st10" points="62.6 107.4 70.3 87.1 70.5 87.1 62.8 107.4 62.6 107.4"/>
          <polygon class="st36" points="62.4 107.4 70.1 87.1 70.3 87.1 62.6 107.4 62.4 107.4"/>
          <polygon class="st34" points="62.1 107.4 69.9 87.1 70.1 87.1 62.4 107.4 62.1 107.4"/>
          <polygon class="st46" points="61.9 107.4 69.6 87.1 69.9 87.1 62.1 107.4 61.9 107.4"/>
          <polygon class="st0" points="61.7 107.4 69.4 87.1 69.6 87.1 61.9 107.4 61.7 107.4"/>
          <polygon class="st3" points="61.4 107.4 69.2 87.1 69.4 87.1 61.7 107.4 61.4 107.4"/>
          <polygon class="st6" points="61.2 107.4 68.9 87.1 69.2 87.1 61.4 107.4 61.2 107.4"/>
          <polygon class="st16" points="61 107.4 68.7 87.1 68.9 87.1 61.2 107.4 61 107.4"/>
          <polygon class="st16" points="60.8 107.4 68.6 87.1 68.7 87.1 61 107.4 60.8 107.4"/>
          <polygon class="st4" points="60.7 107.4 68.4 87.1 68.6 87.1 60.8 107.4 60.7 107.4"/>
          <polygon class="st51" points="60.6 107.4 68.3 87.1 68.4 87.1 60.7 107.4 60.6 107.4"/>
          <polygon class="st37" points="60.5 107.4 68.2 87.1 68.3 87.1 60.6 107.4 60.5 107.4"/>
          <polygon class="st7" points="60.3 107.4 68.1 87.1 68.2 87.1 60.5 107.4 60.3 107.4"/>
          <polygon class="st50" points="60.2 107.4 67.9 87.1 68.1 87.1 60.3 107.4 60.2 107.4"/>
          <polygon class="st41" points="60.1 107.4 67.8 87.1 67.9 87.1 60.2 107.4 60.1 107.4"/>
          <polygon class="st19" points="59.9 107.4 67.7 87.1 67.8 87.1 60.1 107.4 59.9 107.4"/>
          <polygon class="st43" points="59.8 107.4 67.5 87.1 67.7 87.1 59.9 107.4 59.8 107.4"/>
          <polygon class="st5" points="59.7 107.4 67.4 87.1 67.5 87.1 59.8 107.4 59.7 107.4"/>
          <polygon class="st31" points="59.5 107.4 67.3 87.1 67.4 87.1 59.7 107.4 59.5 107.4"/>
          <polygon class="st17" points="59.4 107.4 67.2 87.1 67.3 87.1 59.5 107.4 59.4 107.4"/>
          <polygon class="st45" points="59.3 107.4 67 87.1 67.2 87.1 59.4 107.4 59.3 107.4"/>
          <polygon class="st38" points="59.2 107.4 66.9 87.1 67 87.1 59.3 107.4 59.2 107.4"/>
          <polygon class="st11" points="59 107.4 66.8 87.1 66.9 87.1 59.2 107.4 59 107.4"/>
          <polygon class="st8" points="58.9 107.4 66.6 87.1 66.8 87.1 59 107.4 58.9 107.4"/>
          <polygon class="st30" points="58.9 107.4 58.8 107.4 66.5 87.1 66.6 87.1 58.9 107.4 58.9 107.4"/>
          <polygon class="st48" points="58.8 107.4 58.7 107.3 66.4 87.1 66.5 87.1 58.8 107.4"/>
          <polygon class="st12" points="58.7 107.3 58.6 107.3 66.2 87.1 66.4 87.1 58.7 107.3"/>
          <polygon class="st12" points="58.6 107.3 58.5 107.3 66.1 87.1 66.2 87.1 58.6 107.3"/>
          <polygon class="st9" points="58.5 107.3 58.4 107.2 66 87.1 66.1 87.1 58.5 107.3"/>
          <polygon class="st14" points="58.4 107.2 58.3 107.2 65.9 87.1 66 87.1 58.4 107.2"/>
          <polygon class="st53" points="58.3 107.2 58.2 107.1 65.8 87.1 65.9 87.1 58.3 107.2"/>
          <polygon class="st13" points="58.2 107.1 58.1 107.1 65.7 87.1 65.8 87.1 58.2 107.1"/>
          <polygon class="st13" points="58.1 107.1 54.1 105.6 54.1 87.1 65.7 87.1 58.1 107.1"/>
        </g>
        <path d="M66,108l-12-4h-1.1l.8-.9c8.5-8.6,17.1-9.6,22.8-8.8,6.2.8,10.3,3.5,10.5,3.6l1.4.9h-1.7c-8-.2-20.3,8.9-20.5,9l-.2.2ZM55,103.2l10.9,3.6c1.6-1.2,11.4-8.1,19.1-9-4.3-2.2-17.2-7-30,5.3Z"/>
      </g>
      <g>
        <g class="st28">
          <path class="st2" d="M80.5,67.8v98.6-98.6Z"/>
          <rect class="st2" x="80.5" y="67.8" width="14" height="98.6"/>
          <rect class="st35" x="94.6" y="67.8" width="14" height="98.6"/>
          <rect class="st35" x="108.6" y="67.8" width="2" height="98.6"/>
          <rect class="st42" x="110.6" y="67.8" width="2" height="98.6"/>
          <rect class="st55" x="112.6" y="67.8" width="2" height="98.6"/>
          <rect class="st44" x="114.6" y="67.8" width="2" height="98.6"/>
          <rect class="st47" x="116.6" y="67.8" width="2" height="98.6"/>
          <rect class="st52" x="118.6" y="67.8" width="2" height="98.6"/>
          <rect class="st29" x="120.6" y="67.8" width="2" height="98.6"/>
          <rect class="st29" x="122.6" y="67.8" width=".8" height="98.6"/>
          <rect class="st33" x="123.4" y="67.8" width=".8" height="98.6"/>
          <rect class="st32" x="124.3" y="67.8" width=".8" height="98.6"/>
          <rect class="st18" x="125.1" y="67.8" width=".8" height="98.6"/>
          <rect class="st40" x="125.9" y="67.8" width=".8" height="98.6"/>
          <rect class="st10" x="126.8" y="67.8" width=".8" height="98.6"/>
          <rect class="st36" x="127.6" y="67.8" width=".8" height="98.6"/>
          <rect class="st34" x="128.4" y="67.8" width=".8" height="98.6"/>
          <rect class="st46" x="129.3" y="67.8" width=".8" height="98.6"/>
          <rect class="st0" x="130.1" y="67.8" width=".8" height="98.6"/>
          <rect class="st3" x="130.9" y="67.8" width=".8" height="98.6"/>
          <rect class="st6" x="131.8" y="67.8" width=".8" height="98.6"/>
          <rect class="st16" x="132.6" y="67.8" width=".8" height="98.6"/>
          <rect class="st16" x="133.4" y="67.8" width=".5" height="98.6"/>
          <rect class="st4" x="133.9" y="67.8" width=".5" height="98.6"/>
          <rect class="st51" x="134.4" y="67.8" width=".5" height="98.6"/>
          <rect class="st37" x="134.8" y="67.8" width=".5" height="98.6"/>
          <rect class="st7" x="135.3" y="67.8" width=".5" height="98.6"/>
          <rect class="st50" x="135.8" y="67.8" width=".5" height="98.6"/>
          <rect class="st41" x="136.2" y="67.8" width=".5" height="98.6"/>
          <rect class="st19" x="136.7" y="67.8" width=".5" height="98.6"/>
          <rect class="st43" x="137.2" y="67.8" width=".5" height="98.6"/>
          <rect class="st5" x="137.7" y="67.8" width=".5" height="98.6"/>
          <rect class="st31" x="138.1" y="67.8" width=".5" height="98.6"/>
          <rect class="st17" x="138.6" y="67.8" width=".5" height="98.6"/>
          <rect class="st45" x="139.1" y="67.8" width=".5" height="98.6"/>
          <rect class="st38" x="139.5" y="67.8" width=".5" height="98.6"/>
          <rect class="st11" x="140" y="67.8" width=".5" height="98.6"/>
          <rect class="st8" x="140.5" y="67.8" width=".5" height="98.6"/>
          <rect class="st30" x="140.9" y="67.8" width=".5" height="98.6"/>
          <rect class="st48" x="141.4" y="67.8" width=".5" height="98.6"/>
          <rect class="st12" x="141.9" y="67.8" width=".5" height="98.6"/>
          <rect class="st12" x="142.3" y="67.8" width=".4" height="98.6"/>
          <rect class="st9" x="142.7" y="67.8" width=".4" height="98.6"/>
          <rect class="st14" x="143.1" y="67.8" width=".4" height="98.6"/>
          <rect class="st53" x="143.5" y="67.8" width=".4" height="98.6"/>
          <rect class="st13" x="143.9" y="67.8" width=".4" height="98.6"/>
          <rect class="st13" x="144.3" y="67.8" width="6.4" height="98.6"/>
        </g>
        <path d="M81,166.8h-.4v-.5c0,0-.5,0-.5,0,1.9-16,9.3-18.3,14.2-19.8.5-.1.9-.3,1.3-.4,4.7-1.6,18-7.2,18.1-7.2,23.7-13.8,14.6-43.8,14.5-44.1-6-17.8-25.4-26.4-25.6-26.5l-3.1-1.3,3.4.4c12.9,1.5,23.8,7.5,32.4,17.7l.4.5c2.3,2.7,15.7,26,5,44.6-8.9,15.5-24.5,19.7-32.9,21.9-1.6.4-2.9.8-3.9,1.1-6.3,2.2-7.9,10.4-8,10.5v.3c0,0-14.9,2.9-14.9,2.9h0ZM105.8,68.7c5.7,3.1,18.6,11.6,23.4,25.7,0,.3,9.3,31.2-15.1,45.3-.2,0-13.5,5.7-18.2,7.3-.4.1-.9.3-1.3.4-4.6,1.4-11.5,3.6-13.4,18.3l13.9-2.7c.4-1.7,2.3-8.8,8.5-10.9,1.1-.4,2.4-.7,4-1.1,8.2-2.2,23.6-6.3,32.3-21.5,10.4-18.1-2.7-40.8-4.9-43.4l-.4-.5c-7.7-9.2-17.4-14.9-28.7-16.9Z"/>
      </g>
      <g>
        <g class="st25">
          <polygon class="st2" points="97.4 330.9 105.8 309 105.8 330.9 97.4 330.9"/>
          <polygon class="st2" points="95.4 330.9 105.8 303.7 105.8 309 97.4 330.9 95.4 330.9"/>
          <polygon class="st35" points="93.8 330.9 93.4 330.8 104.1 302.8 105.8 302.8 105.8 303.7 95.4 330.9 93.8 330.9"/>
          <polygon class="st35" points="93.4 330.8 93.2 330.7 103.8 302.8 104.1 302.8 93.4 330.8"/>
          <polygon class="st42" points="93.2 330.7 92.9 330.6 103.5 302.8 103.8 302.8 93.2 330.7"/>
          <polygon class="st55" points="92.9 330.6 92.7 330.5 103.2 302.8 103.5 302.8 92.9 330.6"/>
          <polygon class="st44" points="92.7 330.5 92.4 330.4 103 302.8 103.2 302.8 92.7 330.5"/>
          <polygon class="st47" points="92.4 330.4 92.2 330.3 102.7 302.8 103 302.8 92.4 330.4"/>
          <polygon class="st52" points="92.2 330.3 91.9 330.2 102.4 302.8 102.7 302.8 92.2 330.3"/>
          <polygon class="st29" points="91.9 330.2 91.7 330.1 102.1 302.8 102.4 302.8 91.9 330.2"/>
          <polygon class="st29" points="91.7 330.1 91.6 330.1 102 302.8 102.1 302.8 91.7 330.1"/>
          <polygon class="st33" points="91.6 330.1 91.5 330 101.9 302.8 102 302.8 91.6 330.1"/>
          <polygon class="st32" points="91.5 330 91.3 330 101.7 302.8 101.9 302.8 91.5 330"/>
          <polygon class="st18" points="91.3 330 91.2 329.9 101.6 302.8 101.7 302.8 91.3 330"/>
          <polygon class="st40" points="91.2 329.9 91.1 329.9 101.5 302.8 101.6 302.8 91.2 329.9"/>
          <polygon class="st10" points="91.1 329.9 91 329.9 101.4 302.8 101.5 302.8 91.1 329.9"/>
          <polygon class="st36" points="91 329.9 90.9 329.8 101.3 302.8 101.4 302.8 91 329.9"/>
          <polygon class="st34" points="90.9 329.8 90.8 329.8 101.1 302.8 101.3 302.8 90.9 329.8"/>
          <polygon class="st46" points="90.8 329.8 90.7 329.7 101 302.8 101.1 302.8 90.8 329.8"/>
          <polygon class="st0" points="90.7 329.7 90.6 329.7 100.9 302.8 101 302.8 90.7 329.7"/>
          <polygon class="st3" points="90.6 329.7 90.5 329.7 100.8 302.8 100.9 302.8 90.6 329.7"/>
          <polygon class="st6" points="90.5 329.7 90.4 329.6 100.7 302.8 100.8 302.8 90.5 329.7"/>
          <polygon class="st16" points="90.4 329.6 90.3 329.6 100.5 302.8 100.7 302.8 90.4 329.6"/>
          <polygon class="st16" points="90.3 329.6 90.2 329.6 100.5 302.8 100.5 302.8 90.3 329.6"/>
          <polygon class="st4" points="90.2 329.6 90.2 329.5 100.4 302.8 100.5 302.8 90.2 329.6"/>
          <polygon class="st51" points="90.2 329.5 90.1 329.5 100.3 302.8 100.4 302.8 90.2 329.5"/>
          <polygon class="st37" points="90.1 329.5 90.1 329.5 100.3 302.8 100.3 302.8 90.1 329.5"/>
          <polygon class="st7" points="90.1 329.5 90 329.5 100.2 302.8 100.3 302.8 90.1 329.5"/>
          <polygon class="st50" points="90 329.5 89.9 329.4 100.1 302.8 100.2 302.8 90 329.5"/>
          <polygon class="st41" points="89.9 329.4 89.9 329.4 100.1 302.8 100.1 302.8 89.9 329.4"/>
          <polygon class="st19" points="89.9 329.4 89.8 329.4 100 302.8 100.1 302.8 89.9 329.4"/>
          <polygon class="st43" points="89.8 329.4 89.8 329.4 99.9 302.8 100 302.8 89.8 329.4"/>
          <polygon class="st5" points="89.8 329.4 89.7 329.4 99.9 302.8 99.9 302.8 89.8 329.4"/>
          <polygon class="st31" points="89.7 329.4 89.7 329.3 99.8 302.8 99.9 302.8 89.7 329.4"/>
          <polygon class="st17" points="89.7 329.3 89.6 329.3 99.7 302.8 99.8 302.8 89.7 329.3"/>
          <polygon class="st45" points="89.6 329.3 89.5 329.3 99.7 302.8 99.7 302.8 89.6 329.3"/>
          <polygon class="st38" points="89.5 329.3 89.5 329.3 99.6 302.8 99.7 302.8 89.5 329.3"/>
          <polygon class="st11" points="89.5 329.3 89.4 329.2 99.5 302.8 99.6 302.8 89.5 329.3"/>
          <polygon class="st8" points="89.4 329.2 89.4 329.2 99.4 302.8 99.5 302.8 89.4 329.2"/>
          <polygon class="st30" points="89.4 329.2 89.3 329.2 99.4 302.8 99.4 302.8 89.4 329.2"/>
          <polygon class="st48" points="89.3 329.2 89.2 329.2 99.3 302.8 99.4 302.8 89.3 329.2"/>
          <polygon class="st12" points="89.2 329.2 89.2 329.2 99.2 302.8 99.3 302.8 89.2 329.2"/>
          <polygon class="st12" points="89.2 329.2 89.1 329.1 99.2 302.8 99.2 302.8 89.2 329.2"/>
          <polygon class="st9" points="89.1 329.1 89.1 329.1 99.1 302.8 99.2 302.8 89.1 329.1"/>
          <polygon class="st14" points="89.1 329.1 89 329.1 99.1 302.8 99.1 302.8 89.1 329.1"/>
          <polygon class="st53" points="89 329.1 89 329.1 99 302.8 99.1 302.8 89 329.1"/>
          <polygon class="st13" points="89 329.1 88.9 329.1 99 302.8 99 302.8 89 329.1"/>
          <polygon class="st13" points="88.9 329.1 87.9 328.6 87.9 302.8 99 302.8 88.9 329.1"/>
        </g>
        <path d="M101.9,331.6l-.6-.2c-6.1-1.9-8.3-3.9-9-5.3-.4-.8-.4-1.4-.3-1.6-1.5-6.3-1-11.5,1.6-15.5,3.5-5.5,9.5-6.7,9.8-6.7v.4c0,0,.6,0,.6,0v.4h0c-1,7,2.4,13.7,2.4,13.8l.2.5-2.1,1c-.8.5-1.9,6.9-2.5,12.6v.6ZM102.8,303.5c-1.6.5-5.8,2.1-8.4,6.1-2.4,3.8-2.9,8.8-1.4,14.8h0c0,.1,0,.3,0,.3,0,0-.6,2.9,8,5.6.4-4,1.4-12,3-12.8l1.1-.5c-.8-1.7-3.1-7.4-2.3-13.5Z"/>
      </g>
      <g>
        <g class="st24">
          <polygon class="st2" points="413 174.8 429.1 132.5 431.3 132.5 434.1 133.6 434.1 174.8 413 174.8"/>
          <polygon class="st2" points="406.8 174.8 422.9 132.5 429.1 132.5 413 174.8 406.8 174.8"/>
          <polygon class="st35" points="403.3 174.8 401 174 416.8 132.5 422.9 132.5 406.8 174.8 403.3 174.8"/>
          <polygon class="st35" points="401 174 400.2 173.7 415.9 132.5 416.8 132.5 401 174"/>
          <polygon class="st42" points="400.2 173.7 399.5 173.4 415.1 132.5 415.9 132.5 400.2 173.7"/>
          <polygon class="st55" points="399.5 173.4 398.7 173.1 414.2 132.5 415.1 132.5 399.5 173.4"/>
          <polygon class="st44" points="398.7 173.1 397.9 172.8 413.3 132.5 414.2 132.5 398.7 173.1"/>
          <polygon class="st47" points="397.9 172.8 397.2 172.5 412.4 132.5 413.3 132.5 397.9 172.8"/>
          <polygon class="st52" points="397.2 172.5 396.4 172.2 411.5 132.5 412.4 132.5 397.2 172.5"/>
          <polygon class="st29" points="396.4 172.2 395.6 171.9 410.7 132.5 411.5 132.5 396.4 172.2"/>
          <polygon class="st29" points="395.6 171.9 395.3 171.8 410.3 132.5 410.7 132.5 395.6 171.9"/>
          <polygon class="st33" points="395.3 171.8 395 171.7 409.9 132.5 410.3 132.5 395.3 171.8"/>
          <polygon class="st32" points="395 171.7 394.7 171.5 409.6 132.5 409.9 132.5 395 171.7"/>
          <polygon class="st18" points="394.7 171.5 394.4 171.4 409.2 132.5 409.6 132.5 394.7 171.5"/>
          <polygon class="st40" points="394.4 171.4 394.1 171.3 408.8 132.5 409.2 132.5 394.4 171.4"/>
          <polygon class="st10" points="394.1 171.3 393.7 171.2 408.5 132.5 408.8 132.5 394.1 171.3"/>
          <polygon class="st36" points="393.7 171.2 393.4 171.1 408.1 132.5 408.5 132.5 393.7 171.2"/>
          <polygon class="st34" points="393.4 171.1 393.1 170.9 407.8 132.5 408.1 132.5 393.4 171.1"/>
          <polygon class="st46" points="393.1 170.9 392.8 170.8 407.4 132.5 407.8 132.5 393.1 170.9"/>
          <polygon class="st0" points="392.8 170.8 392.5 170.7 407 132.5 407.4 132.5 392.8 170.8"/>
          <polygon class="st3" points="392.5 170.7 392.1 170.6 406.7 132.5 407 132.5 392.5 170.7"/>
          <polygon class="st6" points="392.1 170.6 391.8 170.5 406.3 132.5 406.7 132.5 392.1 170.6"/>
          <polygon class="st16" points="391.8 170.5 391.5 170.3 405.9 132.5 406.3 132.5 391.8 170.5"/>
          <polygon class="st16" points="391.5 170.3 391.3 170.3 405.7 132.5 405.9 132.5 391.5 170.3"/>
          <polygon class="st4" points="391.3 170.3 391.1 170.2 405.5 132.5 405.7 132.5 391.3 170.3"/>
          <polygon class="st51" points="391.1 170.2 391 170.1 405.3 132.5 405.5 132.5 391.1 170.2"/>
          <polygon class="st37" points="391 170.1 390.8 170.1 405.1 132.5 405.3 132.5 391 170.1"/>
          <polygon class="st7" points="390.8 170.1 390.6 170 404.9 132.5 405.1 132.5 390.8 170.1"/>
          <polygon class="st50" points="390.6 170 390.4 169.9 404.7 132.5 404.9 132.5 390.6 170"/>
          <polygon class="st41" points="390.4 169.9 390.3 169.9 404.5 132.5 404.7 132.5 390.4 169.9"/>
          <polygon class="st19" points="390.3 169.9 390.1 169.8 404.3 132.5 404.5 132.5 390.3 169.9"/>
          <polygon class="st43" points="390.1 169.8 389.9 169.7 404.1 132.5 404.3 132.5 390.1 169.8"/>
          <polygon class="st5" points="389.9 169.7 389.7 169.6 403.9 132.5 404.1 132.5 389.9 169.7"/>
          <polygon class="st31" points="389.7 169.6 389.5 169.6 403.7 132.5 403.9 132.5 389.7 169.6"/>
          <polygon class="st17" points="389.5 169.6 389.4 169.5 403.5 132.5 403.7 132.5 389.5 169.6"/>
          <polygon class="st45" points="389.4 169.5 389.2 169.4 403.3 132.5 403.5 132.5 389.4 169.5"/>
          <polygon class="st38" points="389.2 169.4 389 169.4 403.1 132.5 403.3 132.5 389.2 169.4"/>
          <polygon class="st11" points="389 169.4 388.8 169.3 402.8 132.5 403.1 132.5 389 169.4"/>
          <polygon class="st8" points="388.8 169.3 388.6 169.2 402.6 132.5 402.8 132.5 388.8 169.3"/>
          <polygon class="st30" points="388.6 169.2 388.5 169.2 402.4 132.5 402.6 132.5 388.6 169.2"/>
          <polygon class="st48" points="388.5 169.2 388.3 169.1 402.2 132.5 402.4 132.5 388.5 169.2"/>
          <polygon class="st12" points="388.3 169.1 388.1 169 402 132.5 402.2 132.5 388.3 169.1"/>
          <polygon class="st12" points="388.1 169 388 169 401.9 132.5 402 132.5 388.1 169"/>
          <polygon class="st9" points="388 169 387.8 168.9 401.7 132.5 401.9 132.5 388 169"/>
          <polygon class="st14" points="387.8 168.9 387.7 168.9 401.5 132.5 401.7 132.5 387.8 168.9"/>
          <polygon class="st53" points="387.7 168.9 387.5 168.8 401.4 132.5 401.5 132.5 387.7 168.9"/>
          <polygon class="st13" points="387.5 168.8 387.4 168.8 401.2 132.5 401.4 132.5 387.5 168.8"/>
          <polygon class="st13" points="387.4 168.8 384.9 167.8 384.9 132.5 401.2 132.5 387.4 168.8"/>
        </g>
        <path d="M403.8,170.3c-3.2,0-6.7-.3-10.6-1h-.2s-8.6-16-8.6-16l.6-2.2.2-.3h.4c.3.1,28.5,4.4,38.4-17.8.2-.5.7-.9,1.3-.9s0,0,0,0c.6,0,1.1.3,1.3.9l8.1,18.2v.2c-.1.2-5.3,18.9-30.8,18.9ZM393.6,168.4c13.9,2.3,25.2.1,32.7-6.4,5.2-4.5,7-9.7,7.3-10.6l-8-17.9c-.1-.2-.3-.3-.4-.3,0,0,0,0,0,0,0,0-.3,0-.4.3-9.5,21.3-35.3,19-39,18.5l-.3,1.3,8.2,15.1Z"/>
      </g>
      <g>
        <g class="st27">
          <path class="st2" d="M303.4,291.7v25-25Z"/>
          <rect class="st2" x="303.4" y="291.7" width="3.7" height="25"/>
          <rect class="st35" x="307.1" y="291.7" width="3.7" height="25"/>
          <rect class="st35" x="310.8" y="291.7" width=".5" height="25"/>
          <rect class="st42" x="311.3" y="291.7" width=".5" height="25"/>
          <rect class="st55" x="311.9" y="291.7" width=".5" height="25"/>
          <rect class="st44" x="312.4" y="291.7" width=".5" height="25"/>
          <rect class="st47" x="312.9" y="291.7" width=".5" height="25"/>
          <rect class="st52" x="313.5" y="291.7" width=".5" height="25"/>
          <rect class="st29" x="314" y="291.7" width=".5" height="25"/>
          <rect class="st29" x="314.5" y="291.7" width=".2" height="25"/>
          <rect class="st33" x="314.7" y="291.7" width=".2" height="25"/>
          <rect class="st32" x="314.9" y="291.7" width=".2" height="25"/>
          <rect class="st18" x="315.2" y="291.7" width=".2" height="25"/>
          <rect class="st40" x="315.4" y="291.7" width=".2" height="25"/>
          <rect class="st10" x="315.6" y="291.7" width=".2" height="25"/>
          <rect class="st36" x="315.8" y="291.7" width=".2" height="25"/>
          <rect class="st34" x="316" y="291.7" width=".2" height="25"/>
          <rect class="st46" x="316.3" y="291.7" width=".2" height="25"/>
          <rect class="st0" x="316.5" y="291.7" width=".2" height="25"/>
          <rect class="st3" x="316.7" y="291.7" width=".2" height="25"/>
          <rect class="st6" x="316.9" y="291.7" width=".2" height="25"/>
          <rect class="st16" x="317.1" y="291.7" width=".2" height="25"/>
          <rect class="st16" x="317.4" y="291.7" width=".1" height="25"/>
          <rect class="st4" x="317.5" y="291.7" width=".1" height="25"/>
          <rect class="st51" x="317.6" y="291.7" width=".1" height="25"/>
          <rect class="st37" x="317.7" y="291.7" width=".1" height="25"/>
          <rect class="st7" x="317.8" y="291.7" width=".1" height="25"/>
          <rect class="st50" x="318" y="291.7" width=".1" height="25"/>
          <rect class="st41" x="318.1" y="291.7" width=".1" height="25"/>
          <rect class="st19" x="318.2" y="291.7" width=".1" height="25"/>
          <rect class="st43" x="318.3" y="291.7" width=".1" height="25"/>
          <rect class="st5" x="318.5" y="291.7" width=".1" height="25"/>
          <rect class="st31" x="318.6" y="291.7" width=".1" height="25"/>
          <rect class="st17" x="318.7" y="291.7" width=".1" height="25"/>
          <rect class="st45" x="318.8" y="291.7" width=".1" height="25"/>
          <rect class="st38" x="319" y="291.7" width=".1" height="25"/>
          <rect class="st11" x="319.1" y="291.7" width=".1" height="25"/>
          <rect class="st8" x="319.2" y="291.7" width=".1" height="25"/>
          <rect class="st30" x="319.3" y="291.7" width=".1" height="25"/>
          <rect class="st48" x="319.4" y="291.7" width=".1" height="25"/>
          <rect class="st12" x="319.6" y="291.7" width=".1" height="25"/>
          <rect class="st12" x="319.7" y="291.7" width=".1" height="25"/>
          <rect class="st9" x="319.8" y="291.7" width=".1" height="25"/>
          <rect class="st14" x="319.9" y="291.7" width=".1" height="25"/>
          <rect class="st53" x="320" y="291.7" width=".1" height="25"/>
          <rect class="st13" x="320.1" y="291.7" width=".1" height="25"/>
          <rect class="st13" x="320.2" y="291.7" width=".7" height="25"/>
        </g>
        <path d="M304.6,316.3c-.8,0-1.2,0-1.3,0h-.6c0,0,.2-.7.2-.7,3-8,3.2-15.8,3.2-15.9v-1.2s.7.6.7.6c7.3-1.1,12.9-7.7,12.9-7.7l.8-1v1.2c.1.5.8,11.8-3.5,18.6-3.4,5.4-9.7,6-12.4,6ZM304.2,315.3c2.1,0,8.6-.2,12.1-5.5,3.4-5.3,3.5-13.7,3.5-16.8-1.8,1.9-6.6,6.2-12.5,7.1,0,1.7-.5,8.4-3,15.2Z"/>
      </g>
      <g>
        <g class="st26">
          <polygon class="st2" points="66.9 210.1 83.4 166.7 84.6 167.2 84.6 210.1 66.9 210.1"/>
          <polygon class="st2" points="62.9 210.1 79.9 165.4 83.4 166.7 66.9 210.1 62.9 210.1"/>
          <polygon class="st35" points="58.9 210.1 76.4 164.1 79.9 165.4 62.9 210.1 58.9 210.1"/>
          <polygon class="st35" points="58.3 210.1 75.9 163.9 76.4 164.1 58.9 210.1 58.3 210.1"/>
          <polygon class="st42" points="57.7 210.1 75.4 163.7 75.9 163.9 58.3 210.1 57.7 210.1"/>
          <polygon class="st55" points="57.2 210.1 74.9 163.5 75.4 163.7 57.7 210.1 57.2 210.1"/>
          <polygon class="st44" points="56.6 210.1 74.4 163.3 74.9 163.5 57.2 210.1 56.6 210.1"/>
          <polygon class="st47" points="56.2 210.1 56.1 210 73.9 163.1 74.4 163.3 56.6 210.1 56.2 210.1"/>
          <rect class="st52" x="39.6" y="186.2" width="50.2" height=".5" transform="translate(-132.6 180.6) rotate(-69.1)"/>
          <polygon class="st29" points="55.6 209.8 55.1 209.7 55.1 209.5 72.9 162.9 73.4 162.9 73.4 162.9 55.6 209.8"/>
          <polygon class="st29" points="55.1 208.8 72.6 162.9 72.9 162.9 55.1 209.5 55.1 208.8"/>
          <polygon class="st33" points="55.1 208.2 72.4 162.9 72.6 162.9 55.1 208.8 55.1 208.2"/>
          <polygon class="st32" points="55.1 207.6 72.2 162.9 72.4 162.9 55.1 208.2 55.1 207.6"/>
          <polygon class="st18" points="55.1 207 71.9 162.9 72.2 162.9 55.1 207.6 55.1 207"/>
          <polygon class="st40" points="55.1 206.4 71.7 162.9 71.9 162.9 55.1 207 55.1 206.4"/>
          <polygon class="st10" points="55.1 205.7 71.4 162.9 71.7 162.9 55.1 206.4 55.1 205.7"/>
          <polygon class="st36" points="55.1 205.1 71.2 162.9 71.4 162.9 55.1 205.7 55.1 205.1"/>
          <polygon class="st34" points="55.1 204.5 71 162.9 71.2 162.9 55.1 205.1 55.1 204.5"/>
          <polygon class="st46" points="55.1 203.9 70.7 162.9 71 162.9 55.1 204.5 55.1 203.9"/>
          <polygon class="st0" points="55.1 203.2 70.5 162.9 70.7 162.9 55.1 203.9 55.1 203.2"/>
          <polygon class="st3" points="55.1 202.6 70.3 162.9 70.5 162.9 55.1 203.2 55.1 202.6"/>
          <polygon class="st6" points="55.1 202 70 162.9 70.3 162.9 55.1 202.6 55.1 202"/>
          <polygon class="st16" points="55.1 201.4 69.8 162.9 70 162.9 55.1 202 55.1 201.4"/>
          <polygon class="st16" points="55.1 201 69.7 162.9 69.8 162.9 55.1 201.4 55.1 201"/>
          <polygon class="st4" points="55.1 200.7 69.5 162.9 69.7 162.9 55.1 201 55.1 200.7"/>
          <polygon class="st51" points="55.1 200.3 69.4 162.9 69.5 162.9 55.1 200.7 55.1 200.3"/>
          <polygon class="st37" points="55.1 200 69.3 162.9 69.4 162.9 55.1 200.3 55.1 200"/>
          <polygon class="st7" points="55.1 199.6 69.1 162.9 69.3 162.9 55.1 200 55.1 199.6"/>
          <polygon class="st50" points="55.1 199.3 69 162.9 69.1 162.9 55.1 199.6 55.1 199.3"/>
          <polygon class="st41" points="55.1 198.9 68.9 162.9 69 162.9 55.1 199.3 55.1 198.9"/>
          <polygon class="st19" points="55.1 198.6 68.7 162.9 68.9 162.9 55.1 198.9 55.1 198.6"/>
          <polygon class="st43" points="55.1 198.2 68.6 162.9 68.7 162.9 55.1 198.6 55.1 198.2"/>
          <polygon class="st5" points="55.1 197.9 68.5 162.9 68.6 162.9 55.1 198.2 55.1 197.9"/>
          <polygon class="st31" points="55.1 197.5 68.3 162.9 68.5 162.9 55.1 197.9 55.1 197.5"/>
          <polygon class="st17" points="55.1 197.2 68.2 162.9 68.3 162.9 55.1 197.5 55.1 197.2"/>
          <polygon class="st45" points="55.1 196.8 68.1 162.9 68.2 162.9 55.1 197.2 55.1 196.8"/>
          <polygon class="st38" points="55.1 196.5 67.9 162.9 68.1 162.9 55.1 196.8 55.1 196.5"/>
          <polygon class="st11" points="55.1 196.1 67.8 162.9 67.9 162.9 55.1 196.5 55.1 196.1"/>
          <polygon class="st8" points="55.1 195.8 67.6 162.9 67.8 162.9 55.1 196.1 55.1 195.8"/>
          <polygon class="st30" points="55.1 195.4 67.5 162.9 67.6 162.9 55.1 195.8 55.1 195.4"/>
          <polygon class="st48" points="55.1 195.1 67.4 162.9 67.5 162.9 55.1 195.4 55.1 195.1"/>
          <polygon class="st12" points="55.1 194.7 67.2 162.9 67.4 162.9 55.1 195.1 55.1 194.7"/>
          <polygon class="st12" points="55.1 194.4 67.1 162.9 67.2 162.9 55.1 194.7 55.1 194.4"/>
          <polygon class="st9" points="55.1 194.1 67 162.9 67.1 162.9 55.1 194.4 55.1 194.1"/>
          <polygon class="st14" points="55.1 193.9 66.9 162.9 67 162.9 55.1 194.1 55.1 193.9"/>
          <polygon class="st53" points="55.1 193.6 66.8 162.9 66.9 162.9 55.1 193.9 55.1 193.6"/>
          <polygon class="st13" points="55.1 193.3 66.7 162.9 66.8 162.9 55.1 193.6 55.1 193.3"/>
          <polygon class="st13" points="66.7 162.9 55.1 193.3 55.1 162.9 66.7 162.9"/>
        </g>
        <path d="M59.5,208.6c-2.7,0-4.4-.5-4.5-.6l-1.5-.5,1.5-.5c13.1-4,19.9-8.9,20.3-24.2.4-14.6-14.1-19.4-14.3-19.4h-.3c0-.1,0-1,0-1h.5c8.7.9,16.7,6.7,20.4,14.8,3.3,7.2,1.6,21-8.7,27.4-5.4,3.3-10.1,4-13.4,4ZM57.1,207.4c2.8.4,8.6.3,15.2-3.7,9.8-6,11.5-19.3,8.3-26.1-3-6.6-9-11.5-15.7-13.5,4.5,2.5,11.6,8.2,11.3,18.7-.4,15.2-6.8,20.5-19.1,24.6Z"/>
      </g>
    </g>
  </g>
</svg>