<?xml version="1.0" encoding="UTF-8"?>
<svg id="Layer_2" data-name="Layer 2" xmlns="http://www.w3.org/2000/svg" xmlns:xlink="http://www.w3.org/1999/xlink" viewBox="0 0 465.77 461.76">
  <defs>
    <style>
      .cls-1 {
        fill: url(#linear-gradient-10);
      }

      .cls-1, .cls-2, .cls-3, .cls-4, .cls-5, .cls-6, .cls-7, .cls-8, .cls-9, .cls-10 {
        stroke: #000;
        stroke-miterlimit: 10;
      }

      .cls-2 {
        fill: url(#linear-gradient-5);
      }

      .cls-3 {
        fill: url(#linear-gradient-8);
      }

      .cls-4 {
        fill: url(#linear-gradient-7);
      }

      .cls-5 {
        fill: url(#linear-gradient-4);
      }

      .cls-6 {
        fill: url(#linear-gradient-3);
      }

      .cls-7 {
        fill: url(#linear-gradient-2);
      }

      .cls-8 {
        fill: url(#linear-gradient-9);
      }

      .cls-9 {
        fill: url(#linear-gradient-6);
      }

      .cls-10 {
        fill: url(#linear-gradient);
      }

      .cls-11 {
        fill: #ff0064;
      }

      .cls-12 {
        fill: #ececec;
      }
    </style>
    <linearGradient id="linear-gradient" x1="163.02" y1="258.37" x2="172.24" y2="289.13" gradientTransform="translate(68.34 -31.28) rotate(13.18)" gradientUnits="userSpaceOnUse">
      <stop offset="0" stop-color="#ffbd00"/>
      <stop offset=".44" stop-color="#febb02"/>
      <stop offset=".66" stop-color="#fcb409"/>
      <stop offset=".83" stop-color="#f8aa16"/>
      <stop offset=".97" stop-color="#f29a29"/>
      <stop offset="1" stop-color="#f1972e"/>
    </linearGradient>
    <linearGradient id="linear-gradient-2" x1="174.8" y1="294.37" x2="184.03" y2="325.13" gradientTransform="translate(76.86 -33.02) rotate(13.18)" xlink:href="#linear-gradient"/>
    <linearGradient id="linear-gradient-3" x1="238.06" y1="286.46" x2="216.49" y2="278.24" gradientTransform="matrix(1,0,0,1,0,0)" xlink:href="#linear-gradient"/>
    <linearGradient id="linear-gradient-4" x1="238.06" y1="315.2" x2="216.49" y2="306.98" gradientTransform="matrix(1,0,0,1,0,0)" xlink:href="#linear-gradient"/>
    <linearGradient id="linear-gradient-5" x1="77.16" y1="103.21" x2="61.81" y2="97.36" gradientTransform="matrix(1,0,0,1,0,0)" xlink:href="#linear-gradient"/>
    <linearGradient id="linear-gradient-6" x1="80.53" y1="117.06" x2="144.26" y2="117.06" gradientTransform="matrix(1,0,0,1,0,0)" xlink:href="#linear-gradient"/>
    <linearGradient id="linear-gradient-7" x1="102.72" y1="317.02" x2="94.7" y2="313.96" gradientTransform="matrix(1,0,0,1,0,0)" xlink:href="#linear-gradient"/>
    <linearGradient id="linear-gradient-8" x1="420.5" y1="155.04" x2="396.14" y2="145.75" gradientTransform="matrix(1,0,0,1,0,0)" xlink:href="#linear-gradient"/>
    <linearGradient id="linear-gradient-9" x1="303.44" y1="303.73" x2="320.19" y2="303.73" gradientTransform="matrix(1,0,0,1,0,0)" xlink:href="#linear-gradient"/>
    <linearGradient id="linear-gradient-10" x1="74.17" y1="190.89" x2="58.34" y2="184.86" gradientTransform="matrix(1,0,0,1,0,0)" xlink:href="#linear-gradient"/>
  </defs>
  <g id="Layer_1-2" data-name="Layer 1">
    <g>
      <g id="_8" data-name="8">
        <path class="cls-11" d="M307.85,298.85c-.25.07-.49.15-.74.2-.14,10.12-4.64,19.98-11.7,27.24-7.35,7.55-13.26,8.53-23.69,8.78-4.23.11-8.8.19-15.08.19-2.52,4.5-5.54,7.12-8.8,7.14-8.98.05-16.35-19.69-16.48-44.07-.12-24.39,7.05-44.2,16.03-44.24,3.95-.02,7.59,3.79,10.44,10.14,10.68-.14,21.69-.11,31.5,4.78h0c.16-.06.33-.14.49-.2-.09-.04-1.06-.44-.97-.4-2.23-2.8-7.66-10.66-1.96-11.79,1.88-.37,3.9,1.29,5.4,2.91,2.59,2.78,4.94,5.91,6.85,9.21h0c2.58,1.14,5.49,3.44,7.56,5.32,0-.15-3.53-77.99-3.53-78.14-.19-3.73.29-4.91-4.09-8.73-5.62-4.89-13.05-5.8-20.14-7.17-4.26-.82-8.54-1.5-12.85-2.01l.05.24c1.66,6.59-2.34,13.27-8.93,14.93-6.59,1.65-13.27-2.35-14.93-8.94l-1.82-7.3c-11.05.41-22.05,1.99-32.78,4.78-.99.25-1.73,1.06-1.93,2.06-1.63,8.41-10.43,50.76-19.16,92.8,12.07,29.69,12.95,67.4-.15,70.71-3.99,1.01-8.58-1.58-13.09-6.79-3.4,16.51-5.64,27.55-5.64,27.99l143.15-2.46c-.2-4.28-3.04-67.06-3.04-67.16Z"/>
        <path class="cls-11" d="M194.46,248.24c-4.56,5.41-9.11,10.84-13.66,16.26-6.26-10.81-13.35-17.01-19.18-15.53,0,0-.02,0-.03,0-4.39,1.13-7.35,6.45-8.67,14.36-1.95.52-3.91,1.29-5.69,1.79-11.78,3.32-16.63,4.99-17.55,5.24.51-6.25,7.27-11.75,11.22-17.09,27.92-37.79,27.97-34.74,42.18-50.77,6.73-7.59,15.83-15,24.24-20.71"/>
        <path class="cls-12" d="M289.25,268.56l.59.25c-.16.06-.34.14-.5.2-.12-.06-.24-.13-.35-.18l.26-.26Z"/>
        <path class="cls-11" d="M291.67,182.84c5.48.57,9.73,3.28,13.21,7.35,5.83,6.82,53.09,61.6,53.18,61.7,4.14,4.8,3.96,11.95-.41,16.53-78.07,61.98-18.75,14.88-52.37,41.57,1.14-3.53,1.78-7.23,1.83-10.95,1.19-.28,2.32-.74,3.17-1.23,4.67-2.66,10.33-4.21,5.31-12.8-4.81-8.33-12.15-14.4-16.43-16.3h0c-1.2-2.07-2.56-4.06-4.06-5.96l1.63-1.62h0l7.57-7.49"/>
        <g>
          <path d="M269.7,104.73c.49,0,.63-.67.18-.87-.5-.22-1.01-.45-1.37-.81-.82-.82-.38-1.83,1.02-1.85.7-.02,1.36.2,2.22.12,1.4-.13,2.64-1.17,3.02-2.52.38-1.35-.14-2.89-1.27-3.73-.48-.36-1.03.37-.54.73.82.61,1.21,1.77.94,2.76-.28.99-1.22,1.77-2.24,1.86-.62.06-1.16-.1-2.15-.12-2.25.03-3,2.03-1.65,3.39.57.58,1.66,1.04,1.84,1.04Z"/>
          <path d="M405.58,135.15c5.91-2.13,10.93-2.12,11.93.03,3,6.41-22.8,17.91-25.58,11.97-.79-1.68,1.08-4.54,4.75-7.28.48-.36-.07-1.09-.54-.73-4.16,3.11-6.04,6.24-5.03,8.39,3.36,7.18,30.72-5.27,27.23-12.74-1.25-2.66-6.49-2.86-13.06-.5-.56.2-.27,1.05.31.85Z"/>
          <path d="M398.64,142.11c.15.58,1.03.36.88-.22-2.82-11.06-10.63-20.62-20.91-25.58-6.66-3.22-14.69-4.8-19.35-10.43-3.89-4.7-4.49-11.95-1.42-17.23,3.74-6.43,12.95-9.96,20.53-5.47-1.11,3.03-1.65,6.49-1.6,10.36.02,1.61.15,3.47.96,5.08,2.78,5.52,10.45,3.09,8.94-5.23-.78-4.3-3.52-8.17-7.18-10.58,2.54-6.25,7.65-9.77,12.39-10.22,8.21-.79,20.51,7.57,15.89,29.19-2.54,11.88-9.67,26.3-3.78,38.88.26.55,1.08.16.82-.38-5.71-12.2,1.32-26.49,3.85-38.31,4.71-22.03-7.93-31.12-16.86-30.28-5.03.48-10.4,4.15-13.08,10.64-7.94-4.6-17.66-.98-21.65,5.87-3.25,5.6-2.62,13.28,1.51,18.26,4.84,5.85,12.99,7.45,19.65,10.67,10.04,4.84,17.68,14.18,20.43,24.99ZM379.15,83.68c3.38,2.28,5.9,5.88,6.62,9.87,1.31,7.2-4.91,9.28-7.23,4.66-.73-1.45-.84-3.18-.86-4.68-.04-3.67.45-6.97,1.48-9.85Z"/>
          <path d="M339.57,26.1c.42.42,1.07-.21.64-.64l-7.34-7.39c-.42-.43-1.07.21-.64.64l7.34,7.39Z"/>
          <path d="M298.31,66.24c2.77-.18,5.64.47,8.08,1.81.52.29.97-.5.44-.79-2.58-1.42-5.62-2.11-8.57-1.92-.62.04-.52.97.06.91Z"/>
          <path d="M304.94,134.9c.52,0,4.83-1.41,8.5-4.35.47-.37-.09-1.08-.57-.71-2.37,1.89-5.15,3.33-8.06,4.17-.5.14-.4.89.13.89Z"/>
          <path d="M330.16,161.71c2.74-2.88,5.19-6.06,7.29-9.43.32-.51-.45-.99-.77-.48-2.07,3.32-4.48,6.45-7.18,9.29-.41.44.25,1.05.66.63Z"/>
          <path d="M388.29,9.66l3.2-9.05c.2-.57-.66-.87-.86-.3l-3.2,9.05c-.2.57.66.87.86.3Z"/>
          <path d="M425.19,25.41l7.77-6.07c.47-.37-.09-1.09-.56-.71l-7.77,6.07c-.47.37.09,1.09.56.71Z"/>
          <path d="M465.19,63.32c-3.8,1.1-7.72,1.84-11.65,2.2-.57.05-.53.91.04.91,1.26,0,6.81-.77,11.86-2.23.58-.17.32-1.04-.25-.87Z"/>
          <path d="M464.37,104.96c-4.12.4-8.24.07-12.24-1-.57-.16-.82.72-.23.88,3.98,1.06,8.2,1.45,12.56,1.02.58-.06.53-.95-.09-.9Z"/>
          <path d="M175.24,317.61c2.1,8.32,6.29,14.44,9.36,13.66,3.06-.77,3.84-8.15,1.74-16.47-2.1-8.32-6.29-14.44-9.36-13.66-3.06.77-3.84,8.15-1.74,16.47Z"/>
          <path d="M173.36,295.38c3.05-.77,3.83-8.12,1.73-16.42-2.1-8.3-6.27-14.4-9.33-13.62-3.05.77-3.83,8.12-1.73,16.42,2.1,8.3,6.27,14.4,9.33,13.62Z"/>
          <path d="M39.49,75.62c0,.35,13.31,27.19,13.42,27.63-.1.41.35.69.67.51.18-.1.35-.22.52-.32,2.42.3,9.55,2.91,10.67,3.66.68.47.5.59,1.2.3,1.57-.67,2.5-2.58,9.29-5.77,4.78-2.24,7.12-3.33,11.49-3.33,2.94,1.48,5.84,3.19,6.43,6.38.91,4.96-.94,8.11-6.41,10.88-8.45,4.3-18.1,6.03-26.3,10.69-9.91,5.63-10.19,8.48-13.36,17.92-1.04,3.1-2.02,6.03-2.49,9.57-.03.21.1.42.3.49l35.63,12.14c.26.09.54-.07.59-.34,0,0,0-.01,0-.02,2.08.11,2.56-.73,11.92-2.52,2.31-.44,2.51-2.78,3.56-4.61,2.53-4.46,5.29-5.75,9.42-7.14,11.03-3.71,23.8-7.45,31.2-17.04,9.48-12.3,10.34-37.33-4.88-52.18-7.73-7.54-17.97-12.88-29.51-14.71-20.33-8.48-44.13-3.76-63.11,7.45-.14.08-.22.23-.22.39ZM119.27,79.61c15.12,14.64,14.23,39.21,5.01,51.07-6.82,8.74-18.15,12.45-28.59,15.86-5.34,1.77-9.83,2.64-13.02,10.21-1.16,2.77-1.78,5.71-2.34,8.58l-34.78-11.85c.48-3.29,1.41-6.08,2.4-9.03,3.14-9.36,3.34-11.95,12.95-17.42,8.11-4.6,17.74-6.33,26.27-10.67,4.1-2.08,8.13-5.11,6.89-11.85-1.26-6.88-14.58-10.56-21.75-10.15-8.5.51-16.94,7.28-18.65,8.31-.06-.16-13.04-26.61-13.15-26.85,25.7-15.02,57.53-16.77,78.76,3.8Z"/>
          <path d="M420.67,255.75c4.34-2.84,9.68-4.22,14.29-6.79,12.65-7.05,18.7-23.77,13.49-37.28-4.25-11.03-10.04-12.03-24.72-47.63,4.16-2.82,7.87-6.89,10.36-12.76.15-.36.15-.78-.01-1.14l-7.59-17.36c-.39-.88-1.42-1.08-2.12-.61l-6.22-15.57c20.62-25.88,13.84-64.92-14.57-82.42-12.38-7.62-26.84-9.89-40.72-6.37-28.81,7.29-45.91,37.18-38.44,66.68,6.05,23.91,26.97,41.12,50.92,41.93l9.44,15.74c-.12.35-.11.75.09,1.13l8.38,15.53c.21.4.6.67,1.05.74,3.3.49,17.46,2.06,28.65-5.02,14.2,34.41,20.75,37.34,24.64,47.45,5.05,13.1-.82,29.33-13.09,36.16-4.6,2.56-9.86,3.88-14.34,6.82-6.55,4.29-10.87,11.99-12,20.05-14.45,9.55-13.12,28.59-4.96,44.66,5.57,10.97,13.55,20.91,17.97,32.34,3.56,9.21,2.97,15.08-2.53,23.37-11.51,17.37-34.21,29.88-55.33,20.19-13.49-6.2-16.45-23.63-17.09-30.84-1.11-12.4.36-25.31-3.36-37.28-3.35-10.8-13.2-21.07-24.21-21.1.97-2.29,1.49-4.94,1.28-7.45,53.71-42.65,33.19-26.36,38.03-30.2,4.55-4.78,4.73-12.15.42-17.14-.08-.1-47.37-54.91-53.18-61.7-3.84-4.51-8.26-6.96-13.51-7.51-.08,0-.15,0-.22.03-5.38-1.88-19.36-4.15-25.02-4.83-6.6-26.25-6.21-24.9-6.32-25.07,4.16-4.86,7.16-10.09,8.89-15.57,2.5-7.95,1.61-14.32.14-20,6.82,2.19,14.66-3.08,15.62-12.78.54-5.5-1.1-11.9-4.95-16.37,2.18-5.51,4.32-11.4,5.05-17.62,2.92-25.08-20.46-34.33-29.66-21.31.97-8.69-2.28-14.08-6.37-16.31-5.38-2.94-12.15-.4-16.05,3.64-3.37,3.48-5.34,8.03-6.93,12.39-1.79-4.58-5.79-8.29-10.55-9.58-12.51-3.38-23.58,9.21-18.58,21.19-1.72-3.94-6.72-5.77-10.87-4.68-10.78,2.84-15.06,20.45-4.95,30.3.78,8.87,3.89,17.52,8.96,24.84,4.65,28.22,19.4,60.69,47.44,55.62l2.56,10.22c-10.98.45-21.85,2.04-32.31,4.76-.5.13-.73.24-1.15.59-16.57,11.36-22.38,19.14-32.04,29.37-9.5,10.06-13.9,14.75-33.88,41.8-3.91,5.28-10.56,10.7-11.27,17.01-10.07,3.17-15.68,6.07-20.75,15.55-2.79,5.2-4.6,11.09-5.1,17.22-4.72,1.45-9.01,4.42-10.8,8.94-1.8,4.54-1.61,9.25-.12,12.76-5.27-8.68-19.86-4.68-25.97,1.7-10.99,11.48-11.03,32.19-25.56,39.6-6.2,3.15-14.38,2.75-21.35-1.04-5.95-3.24-11.04-8.67-15.12-16.14-8.22-15.02-1.47-22.52,11.75-33.4,9.86-8.12,19.07-17.19,27.38-26.93,5.76-6.75,7.6-12.28,5.64-16.91-2.44-5.75-9.57-7.21-15.47-8.98-8.86-2.65-15.75-7.63-19.42-14.01-4.27-7.44-3.5-17.13,1.79-22.55,8.87-9.09,27.02-5.68,32.85-18.76,2.53.54,4.37.56,6.12.45,11.01,2.47,22.4-3.81,26.17-14.89,4.75-13.94-4.69-28.66-19.33-29.78-12.34-4.63-25.56,2.06-29.72,14.28-4.32,12.7,2.94,26.47,15.85,29.75-5.68,12.34-23.58,9.09-32.59,18.32-5.56,5.69-6.39,15.85-1.93,23.63,3.78,6.58,10.87,11.71,19.95,14.43,5.73,1.72,12.6,3.08,14.89,8.47,1.82,4.28.02,9.5-5.49,15.96-12.84,15.06-23.02,22.99-27.41,26.94-13.45,11.07-20.22,19.05-11.82,34.41,4.17,7.63,9.37,13.19,15.48,16.51,6.73,3.66,15.31,4.55,22.2,1.05,14.84-7.56,15.08-28.58,25.81-39.78,5.81-6.08,19.85-9.98,24.65-1.69.7,1.26,1.31,2.49,2.87,2.62.27.25.54.49.82.72-4.69-.45-9.15.38-8.11,4.98.42,1.87,2.39,3.41,5.83,4.6,4.09,1.41,8.36,2.37,12.69,2.85,4.1,3.66,13.93,8.42,24.72,9.55,8.15.86,10.61-2.07,11.1-8.38,3.94-.23,8.12-.9,12.78-2.06,4.1-1.02,8.24-2.31,12.57-3.64,1.76,2.55,3.55,4.72,5.34,6.45-4.51,21.93-5.15,25.33-5.15,25.64,0,.25.21.45.45.45h0l4.98-.09c-.91,31.07,2.01,62.21,8.69,92.57.13.59,1.02.39.89-.2-6.67-30.3-9.58-61.38-8.67-92.39l135.28-2.33c.07,1.8,13.95,39.24,2.81,88.44-.13.59.75.79.89.2,6.62-29.24,5.66-59.89-2.78-88.65l1.06-.02c.25,0,.46-.21.45-.48l-2.31-51c4.5-1.26,7.27-3.76,9.22-7.68,10.76-.25,20.46,9.84,23.76,20.45,3.66,11.8,2.22,24.74,3.32,37.1.66,7.37,3.69,25.19,17.62,31.59,20.76,9.54,44.07-1.8,56.47-20.51,5.68-8.58,6.27-14.76,2.62-24.2-4.48-11.58-12.43-21.44-18.01-32.43-7.81-15.38-9.36-33.59,4-43.05-.79,7.56,1.12,14.82,5.32,20.12,5,6.31,13.18,9.34,20.35,7.55,11.83-2.96,18.07-18.49,4.85-28.66-8.36-6.43-20.51-6.14-29.35-.86,1.31-7.84,5.58-14.79,11.48-18.66ZM375.63,135.54c-23.65-.68-44.34-17.65-50.31-41.25-7.36-29.07,9.5-58.42,37.78-65.58,13.64-3.45,27.86-1.23,40.02,6.26,28.07,17.3,34.61,55.9,14.17,81.29-.1.13-.13.3-.07.45l6.53,16.35c-3.16,7.21-12.85,22.46-37.36,18.15-.38-.07-.71.03-.99.2l-9.39-15.66c-.08-.13-.22-.22-.38-.22ZM33.11,177.42c4.05-11.86,16.69-17.87,27.91-13.96,11.43,3.89,17.52,16.49,13.57,28.09-3.95,11.59-16.35,17.87-27.91,13.97-11.43-3.9-17.51-16.5-13.57-28.1ZM256.25,335.03c-1.81,3.23-4.71,6.9-8.43,6.9-6.14,0-11.52-9.77-14.2-23.99l14.49-.04-.45-10.68-15.45.04c-.5-6.16-.51-12.42-.04-18.58l15.88-.05-.45-10.68-14.06.04c2.58-13.91,7.8-23.43,13.86-23.46h.02c3.59,0,7.14,3.51,10,9.87,8.44,18.83,7.88,54.46-1.18,70.63ZM258.53,264.66l1.37-.02c9.53-.14,19.54.28,28.35,4.36-2.07.99-3.88,2.24-5.15,3.21-4.56,3.49-2.88,8.17.46,8.31-1.62,1.04-3.28,2.28-3.48,4.55-.19,2.23,1.25,4.47,3.36,5.21,2.77.98,5.42-1.08,7.8-2.49-.8,1.15-1.24,2.4-1.06,3.73.28,2.08,2.01,3.82,4.02,4.06,2.11.25,4.24-1.03,6.76-2.51-.32.64-.51,1.3-.57,1.96-.35,3.94,2.4,5.34,6.26,4.59-.17,5.61-1.66,11.03-4.11,15.9-1.92,3.84-4.43,7.36-7.45,10.45-7.3,7.5-13.15,8.4-23.37,8.64-3.75.1-7.87.18-14.3.19,8.77-16.57,9.23-51.26,1.12-70.14ZM306.5,288.38c-4.86,2.6-1.97,1.75-8.05,5.06-1.32.72-2.72,1.4-4.14,1.23-1.59-.19-3.01-1.63-3.23-3.28-.24-1.83.96-3.54,2.71-5.04,2.71-1.54,5.47-3.16,8.35-4.94.49-.3.08-1.05-.44-.79-2.77,1.35-5.94,2.89-8.38,4.95-2.49,1.41-2.03,1.1-3.5,2.02-1.91,1.19-4.07,2.54-6.08,1.83-1.7-.6-2.91-2.48-2.76-4.28.18-2.05,1.82-3.08,3.55-4.17,2.29-1.44-1.01.3,11.37-5.59.54-.27.14-1.08-.4-.81-2.71,1.34-7.13,2.96-9.95,4.67-1.12.41-2.2.57-3.09.06-.98-.56-1.47-1.95-1.14-3.24.28-1.11,1.06-2.16,2.33-3.13,5.17-3.96,10.7-6.27,16.34-3.3,4.45,2.37,10.94,8.22,15.22,15.62,2.47,4.22,2.94,7.4-1.14,9.99-.95.6-4.63,2.52-4.79,2.59-3.97,1.82-8.38,1.73-7.99-2.72.1-1.11.67-2.24,1.63-3.23,1.39-.87,2.74-1.78,4.06-2.73.46-.33.02-1.03-.48-.77ZM298.08,267.82c-2.23-.73-4.8-.84-8.25.48-.09-.04-.78-.32-.68-.28-2.43-3.07-4.96-7.37-4.16-9.54.27-.75.93-1.22,2.01-1.43,1.34-.26,3.02.67,4.98,2.77,2.3,2.47,4.35,5.16,6.11,8ZM319.88,297.84c.82-3.52,2.69-19.24-22.75-36.43l3.23-3.2s.04.04.06.06c12.89,7.56,22.03,20.84,24.5,35.57l-5.04,4ZM265.74,178.35c.77,3.07.3,6.25-1.32,8.97-5.39,9-19.1,7.02-21.66-3.21-.02-.09-1.9-7.57-1.87-7.46,2.92-.44,7.03-6.09,8.85-8.07,3.11-3.42,5.99-7.07,8.6-10.9.64-.94,1.28-1.96,1.45-3.08,1.22,4.87-3.12-12.43,5.96,23.75ZM265.16,43.94c5.73-.57,11.93,2.74,15.42,8.23,3,4.73,4.22,11.08,3.43,17.9-.43,3.69-1.38,7.27-2.53,10.73,4.59-24.03-15.48-40.12-26.82-28.26.09-.45.18-.89.26-1.34,1.79-3.81,5.76-6.82,10.25-7.26ZM233.48,36.82c3.66-3.79,9.98-6.19,14.96-3.47,6.03,3.29,6.72,10.89,5.59,17.62-.57,1.26-.92,2.6-1,3.96-.09.26-.14.51-.15.75.03-3.44-2.53-8.92-5.08-11.26-7.8-7.17-19.25-1.91-21.15,6.74-.08-.41-.18-.81-.3-1.21,1.63-4.59,3.59-9.5,7.11-13.13ZM194.24,125.63c-2.64-8.95-5.98-24.83-4.3-34.18,8.54,3.32,15.77,1.84,20.87-2.9,2.66,1.47,6.41.96,9.29-.02,3.49-1.18,6.32-4.53,6.5-8.27,2.92,5.5,8.84,7.26,13.05,4.93,2.78-1.54,2.54-4.78,4.61-6.37,6.94,6.4,10.64,12.85,13.79,21.36.16-5.25,1.1-11.73,5.83-14.85,5.12-3.38,10.83-1.81,14.94,2.65-.18.47.16.81.56.65,3.54,4.25,5.04,10.27,4.54,15.46-.94,9.5-8.87,14.49-15.2,11.72-.34-.15-.72.16-.62.53,1.56,5.76,2.66,12.21.1,20.35-9.44,29.88-55.62,51.31-73.95-11.05ZM93.54,337.18c-3.13-1.07-4.89-2.4-5.24-3.94-1.21-5.34,7.24-4.27,12.5-2.91l.64.6c.17,3.4,1.1,6.4,3.43,8.92-3.86-.51-7.66-1.41-11.32-2.67ZM130.75,349.54c-6.87-.72-13.69-2.88-19.72-6.25-2.23-1.25-4.49-2.75-6.1-4.77-3.37-4.19-2.91-10.96-1.68-16.14.42-1.78,1.16-3.09,2.2-3.91,2.16-1.7,5.11-1.02,5.37,2.98-.48,3.75-.11,9-.24,12.5h0c-.02.61.89.62.91.04.42-11.08-.46-18.04,3.26-20.1,1.82-1.01,4.37-.61,5.8.9,2.12,2.24.95,6.21.7,9.12-.08.89-.16,1.78-.24,2.68-1.02,3.52-1.15,7.57-1.26,11-.02.58.83.63.9.08.51-3.83.92-7.44,1.26-10.97.75-2.53,1.98-4.6,4.03-5.21,1.84-.55,4.03.27,4.98,1.86.84,1.42.78,3.2.65,4.91-.64,8.1-1.06,4.16-1.53,10.72-.04.57.78.67.9.12.38-1.81.69-3.65.95-5.5,1.46-3.66,4.9-4.62,6.61-3.49,2.19,1.44,2.84,5.85,2.59,8.37-.07.7-.11,1.41-.16,2.13-.4,6.68-1.73,9.81-10.19,8.92ZM154.31,339.13c-4.56,1.14-8.65,1.79-12.5,2.03.06-.89.1-1.76.18-2.58.28-2.82-.46-7.55-2.99-9.22-2.21-1.45-5.26-.12-6.81,1.89.34-3.05.78-6.23-.5-8.36-1.17-1.96-3.76-2.94-6.02-2.27-1.54.45-2.66,1.58-3.49,3.06.32-3.13,1.4-7-.98-9.51-1.73-1.83-4.7-2.28-6.9-1.07-2.3,1.27-2.79,3.66-3.11,5.87-.96-2.12-3.25-2.77-5.4-1.76-3.18-10.34-1.5-21.86,3.52-31.21,7.41-13.85,16.04-13.32,40.33-21.16-2.89,20.7,4.88,52.67,16.92,70.75-4.1,1.26-8.21,2.54-12.26,3.54ZM186.48,275.04c-1.61-3.82-3.32-7.34-5.12-10.49,7.66-9.12-2.15,2.55,9.7-11.55l-4.58,22.04ZM180.41,264.73h0c2.37,4.1,4.29,8.26,6.04,12.65l-.03.15.05-.1c12.06,30.23,12.14,66.31-.1,69.4-4.68,1.17-9.5-3.02-12.64-6.65-18.47-21.38-28.36-76.33-15.2-88.93.88-.84,1.96-1.52,3.17-1.84h0c7.33-1.73,14.93,8.8,18.71,15.31ZM310.42,365.56c-9.17.16-126.48,2.17-142.14,2.44.5-2.82,3.36-16.77,4.94-24.45,3.12,2.8,6.21,4.24,9.05,4.01,2.48.72,4.22.15,4.32.14,13.53-3.42,12.58-41.37.5-71.19l.17-.82,18.9-41.14-11.26,13.66c-.02-.42-.54-.58-.8-.27-3.93,4.66-8.08,9.61-13.24,15.77-3.98-6.74-11.73-17.12-19.36-15.19h0c-.14.03-.53.15-1.03.35-6.76-.15-9.62,8.29-10.69,14.95-3.23,1.08-9.03,2.57-19.58,5.89.91-5.79,7.25-11.04,11.05-16.18,21.47-29.06,26.03-33.47,33.81-41.71,9.62-10.19,15.54-18.12,32.31-29.53,1.39-.69,16.4-4.27,32.75-4.92,1.79,7.09,1.74,7.09,2.06,8.01,3.5,10.15,17.43,11.71,23.01,2.39,1.69-2.82,2.19-6.16,1.52-9.25,5.5.67,19.63,2.98,24.82,4.86.14.05.28.02.39-.05,4.87.59,9,2.92,12.61,7.15,5.73,6.71,53.09,61.61,53.18,61.7,4,4.64,3.83,11.49-.35,15.88l-31.65,25.13c-2.63-14.74-11.81-28.01-24.72-35.63l3.63-3.59c.29-.28.09-.77-.31-.78l-2.68-39.61-4.11,46.14c-.13.13-2.54,2.5-2.4,2.36-1.99-2.49-5.27-6.54-8.31-5.93-5.33,1.06-2.25,7.28,1.03,11.66-8.8-3.83-18.55-4.23-27.96-4.1l-1.76.03c-3.03-6.63-6.73-10.14-10.7-10.14h-.03c-6.47.03-12.04,9.95-14.74,24.37l-20.03.06c-2.85,0-5.2,2.26-5.33,5.11-.13,3.05,2.31,5.59,5.36,5.58l18.6-.06c-.5,6.38-.45,12.66.03,18.58l-18.61.05c-2.85,0-5.2,2.26-5.33,5.11-.13,3.05,2.31,5.59,5.36,5.58l20.01-.06c1.63,8.61,6.42,24.89,15.12,24.89,3.27-.02,6.39-2.49,9.06-7.14,6.63,0,10.9-.09,14.83-.19,10.43-.25,16.51-1.21,24-8.92,3.13-3.22,5.71-6.85,7.7-10.88,1.58,0,3.17-.16,4.7-.5l2.28,50.34ZM437.99,275.99c12.62,9.7,6.59,24.28-4.51,27.05-6.73,1.68-14.71-1.29-19.42-7.23-4.19-5.29-6.01-12.63-5.04-20.23,8.47-5.41,20.63-6.01,28.97.41Z"/>
          <path d="M45.71,55.68c.38.46,1.08-.11.7-.58-4.81-5.85-10.26-11.21-16.18-15.93-.47-.38-1.04.33-.57.71,5.87,4.68,11.27,10,16.04,15.8Z"/>
          <path d="M54.02,48.34c-.6-6.37-.71-12.84-.32-19.22.04-.6-.87-.65-.91-.05-.39,6.43-.28,12.95.32,19.36.06.59.96.52.9-.09Z"/>
          <path d="M10.61,58.21c11.73,3.17,18.41,7.57,18.92,7.57.47,0,.63-.63.22-.85-5.97-3.26-12.33-5.82-18.9-7.59-.58-.16-.82.72-.24.88Z"/>
          <path d="M255.41,414.74c-.62,2.89-1.41,5.83-3.63,7.33-1.68,1.13-3.33,1.01-5.2-.38-.27-.2-.67-.04-.72.3-1.6,11.16-3.35,22.46-5.22,33.58-.1.59.79.75.9.15,1.83-10.9,3.55-21.96,5.12-32.89,1.95,1.2,3.84,1.2,5.63-.02,2.5-1.69,3.35-4.82,4.01-7.89.13-.59-.76-.77-.89-.19Z"/>
        </g>
      </g>
      <path class="cls-11" d="M190.28,110.08s-7.72-4.88-9.18-24.23c0,0-14.54-14.38,1.57-28.98,0,0,7.05-5.2,14.1,3.08,0,0-6.04-13.43,9.51-20.59,0,0,16.83-4.81,20.05,12.31,0,0,3.11-13.31,16.53-9.85,0,0,8.73,1.68,9.62,14.88,0,0,5.15-14.32,19.47-4.81,14.32,9.51,9.29,32.67,7.83,36.14,0,0-10.4-9.96-18.35-1.01,0,0-4.36,9.06-3.41,13.03,0,0-5.62-13.82-13.8-21.03,0,0-4.04,9.79-7.85,6.99,0,0-5.77,2.13-10.04-5.82,0,0-.7,12.19-15.58,8.5,0,0-4.36,7.72-18.57,3.69l-2.35-.78s-1.11,15.8.45,18.47Z"/>
      <ellipse class="cls-10" cx="169.56" cy="280.2" rx="6.27" ry="15.37" transform="translate(-59.41 46.04) rotate(-13.18)"/>
      <ellipse class="cls-7" cx="181.35" cy="316.21" rx="6.27" ry="15.37" transform="translate(-67.31 49.67) rotate(-13.18)"/>
      <path class="cls-6" d="M212.63,278.03h35.42v10.61h-35.42c-2.93,0-5.3-2.38-5.3-5.3h0c0-2.93,2.38-5.3,5.3-5.3Z"/>
      <path class="cls-5" d="M212.63,306.76h35.42v10.61h-35.42c-2.93,0-5.3-2.38-5.3-5.3h0c0-2.93,2.38-5.3,5.3-5.3Z"/>
      <path class="cls-2" d="M54.09,103.44l11.87,3.96s12.5-9.27,20.77-9.11c0,0-16.51-11.19-32.65,5.15Z"/>
      <path class="cls-9" d="M80.53,166.34l14.9-2.9s1.58-8.58,8.28-10.89,26.15-4.68,36.53-22.83c10.38-18.14-2.32-40.91-4.96-43.99-2.25-2.62-12.16-15.59-32.46-17.96,0,0,19.71,8.56,25.83,26.77,0,0,9.51,30.6-14.83,44.75,0,0-13.38,5.61-18.12,7.24-4.74,1.63-13.11,2.69-15.16,19.81Z"/>
      <path class="cls-4" d="M103.41,302.78s-15.56,2.97-10.92,21.7c0,0-1.1,3.38,8.94,6.44,0,0,1.17-12.25,2.77-12.99l1.59-.74s-3.63-7.08-2.38-14.42Z"/>
      <path class="cls-3" d="M385.4,151.42s28.75,4.63,38.92-18.15c.33-.74,1.37-.75,1.7,0l8.07,18.04s-6.18,23.51-40.83,17.55l-8.38-15.53.51-1.89Z"/>
      <path class="cls-8" d="M306.65,299.62s-.08,7.96-3.2,16.1c0,0,8.86,1.03,13.18-5.72,4.31-6.75,3.51-18.3,3.51-18.3,0,0-5.77,6.95-13.48,7.93Z"/>
      <path class="cls-1" d="M61.13,162.91s15.01,4.8,14.61,19.93c-.4,15.14-6.72,20.41-20.61,24.68,0,0,7.75,2.55,17.49-3.42,9.73-5.97,11.94-19.3,8.52-26.72-3.42-7.42-11.02-13.58-20.01-14.48Z"/>
    </g>
  </g>
</svg>