<?xml version="1.0" encoding="UTF-8"?>
<svg id="Layer_2" xmlns="http://www.w3.org/2000/svg" version="1.1" viewBox="0 0 459.6 190.2">
  <!-- Generator: Adobe Illustrator 29.5.1, SVG Export Plug-In . SVG Version: 2.1.0 Build 141)  -->
  <defs>
    <style>
      .st0 {
        fill: #ffbd00;
      }

      .st1 {
        isolation: isolate;
      }
    </style>
  </defs>
  <g id="Layer_1-2">
    <path class="st0" d="M401.8,82.6c0,4.1-4.7,7-8,8.9-6.9,3.9-14.8,6.3-22.4,8.5-25,7-51.2,10.4-77,13.1-33.8,3.5-67.9,5-101.8,4.9-28.5-.1-57.3-1.3-85.5-5.4-9.5-1.4-19.1-3.1-28.2-5.9-3.9-1.2-10.4-2.9-12.6-6.6-5.1-8.9,17.7-15.7,22.9-17.4,23.4-7.6,48.5-11.1,73-13.9,33.1-3.9,66.5-5.7,99.8-6.1,29.8-.3,59.8.6,89.4,4.1,10.6,1.3,21.3,2.9,31.6,5.6,5.4,1.4,12.5,2.9,16.8,6.6,1.2,1,1.9,2.1,2,3.7.2,2.1,6.9,4.7,6.7,2.7-.4-4.7-5.3-8.1-9.2-10.2-6.9-3.9-14.9-6-22.7-7.8-26.5-6-54.1-7.7-81.2-8.5-36.3-1.2-72.7-.2-108.8,2.7-29.8,2.4-59.9,5.9-89,13-8.9,2.2-18,4.7-26.3,8.5-4.4,2-10.5,5-12.2,9.7-3.8,10.7,17.5,16.7,24.5,18.7,24.3,6.8,50.4,8.6,75.6,9.8,35.8,1.8,71.8,1.2,107.6-1.2,31.4-2.1,63-5.4,93.8-12,10.1-2.2,20.3-4.7,30-8.4,5.5-2.1,12.2-4.8,15.9-9.4,1.1-1.4,1.9-3.1,1.9-4.9,0-2.1-6.7-4.8-6.7-2.7h0Z"/>
    <g class="st1">
      <g class="st1">
        <path d="M130.1,8h8l10.3,29,10.4-29h8l-14.7,40.9h-7.5l-14.5-40.9Z"/>
        <path d="M202.5,35.9h-24.4c.4,2.1,1.3,3.9,2.8,5.1,1.5,1.3,3.5,1.9,5.8,1.9s5.3-1,7.3-3l6.4,3c-1.6,2.3-3.5,3.9-5.7,5-2.2,1.1-4.9,1.6-7.9,1.6-4.7,0-8.6-1.5-11.6-4.5-3-3-4.5-6.7-4.5-11.2s1.5-8.4,4.5-11.5c3-3,6.7-4.6,11.2-4.6s8.6,1.5,11.6,4.6c3,3,4.5,7.1,4.5,12.1v1.4ZM194.9,30c-.5-1.7-1.5-3.1-3-4.1-1.5-1.1-3.2-1.6-5.1-1.6s-4,.6-5.6,1.8c-1,.7-1.9,2-2.8,3.9h16.4Z"/>
        <path d="M208.6,18.6h7.6v3.1c1.7-1.4,3.3-2.5,4.7-3,1.4-.6,2.8-.8,4.3-.8,3,0,5.5,1,7.6,3.1,1.8,1.8,2.6,4.4,2.6,7.9v20h-7.5v-13.2c0-3.6-.2-6-.5-7.2-.3-1.2-.9-2.1-1.7-2.7-.8-.6-1.8-.9-3-.9s-2.8.5-3.9,1.5c-1.1,1-1.9,2.4-2.3,4.3-.2.9-.3,3-.3,6.1v12.1h-7.6v-30.2Z"/>
        <path d="M265,7h7.6v41.9h-7.6v-3.2c-1.5,1.4-3,2.4-4.5,3-1.5.6-3.1.9-4.8.9-3.9,0-7.3-1.5-10.1-4.5-2.8-3-4.3-6.8-4.3-11.3s1.4-8.5,4.1-11.5c2.8-3,6.1-4.5,10-4.5s3.5.3,5.1,1c1.6.7,3.1,1.7,4.4,3.1V7ZM257.1,24.9c-2.3,0-4.3.8-5.8,2.5-1.6,1.7-2.3,3.8-2.3,6.4s.8,4.8,2.4,6.4c1.6,1.7,3.5,2.5,5.8,2.5s4.4-.8,5.9-2.5,2.4-3.8,2.4-6.5-.8-4.8-2.4-6.4c-1.6-1.6-3.6-2.4-6-2.4Z"/>
        <path d="M294.5,17.9c2.9,0,5.5.7,8,2.1s4.5,3.4,5.9,5.8,2.1,5.1,2.1,7.9-.7,5.5-2.1,8-3.3,4.4-5.8,5.8c-2.4,1.4-5.1,2.1-8.1,2.1-4.3,0-8-1.5-11.1-4.6s-4.6-6.8-4.6-11.2,1.7-8.7,5.2-11.8c3-2.7,6.5-4.1,10.5-4.1ZM294.6,25c-2.4,0-4.3.8-5.9,2.5-1.6,1.6-2.4,3.7-2.4,6.3s.8,4.8,2.3,6.4,3.5,2.4,5.9,2.4,4.3-.8,5.9-2.5c1.6-1.6,2.4-3.8,2.4-6.4s-.8-4.7-2.3-6.3c-1.5-1.6-3.5-2.4-5.9-2.4Z"/>
        <path d="M314.9,18.6h6.5v3.8c.7-1.5,1.6-2.6,2.8-3.4,1.2-.8,2.4-1.2,3.8-1.2s2,.3,3.1.8l-2.4,6.5c-.9-.4-1.6-.7-2.2-.7-1.2,0-2.2.7-3,2.2-.8,1.4-1.2,4.3-1.2,8.5v1.5s0,12.2,0,12.2h-7.5v-30.2Z"/>
      </g>
      <g class="st1">
        <path d="M86.5,68.9c5.8,0,10.8,2.1,14.9,6.3,4.2,4.2,6.2,9.3,6.2,15.3s-2.1,11-6.2,15.1c-4.1,4.1-9.1,6.2-14.9,6.2s-11.2-2.1-15.3-6.4c-4.1-4.2-6.1-9.3-6.1-15.1s.9-7.5,2.8-10.8c1.9-3.3,4.5-5.9,7.8-7.8,3.3-1.9,6.9-2.9,10.7-2.9ZM86.4,76.5c-3.8,0-7,1.3-9.5,3.9-2.6,2.6-3.9,6-3.9,10s1.6,8.1,4.9,10.7c2.5,2.1,5.4,3.1,8.7,3.1s6.8-1.3,9.4-4c2.6-2.7,3.9-6,3.9-9.9s-1.3-7.2-3.9-9.9-5.8-4-9.5-4Z"/>
        <path d="M114.1,80.6h7.6v3.1c1.7-1.4,3.3-2.5,4.7-3,1.4-.6,2.8-.8,4.3-.8,3,0,5.5,1,7.6,3.1,1.8,1.8,2.6,4.4,2.6,7.9v20h-7.5v-13.2c0-3.6-.2-6-.5-7.2-.3-1.2-.9-2.1-1.7-2.7-.8-.6-1.8-.9-3-.9s-2.8.5-3.9,1.5c-1.1,1-1.9,2.4-2.3,4.3-.2.9-.3,3-.3,6.1v12.1h-7.6v-30.2Z"/>
        <path d="M155.8,68.9v15c1.4-1.4,2.9-2.4,4.4-3.1,1.6-.7,3.3-1,5.1-1,3.9,0,7.3,1.5,10.1,4.5s4.1,6.8,4.1,11.5-1.4,8.3-4.3,11.3-6.2,4.5-10.1,4.5-3.4-.3-4.9-.9c-1.5-.6-3-1.6-4.5-3v3.2h-7.5v-41.9h7.5ZM163.8,86.8c-2.4,0-4.4.8-5.9,2.4-1.6,1.6-2.4,3.8-2.4,6.4s.8,4.9,2.4,6.5c1.6,1.7,3.6,2.5,5.9,2.5s4.3-.8,5.8-2.5c1.6-1.7,2.4-3.8,2.4-6.4s-.8-4.7-2.3-6.4c-1.6-1.7-3.5-2.5-5.9-2.5Z"/>
        <path d="M200,79.8c2.9,0,5.5.7,8,2.1,2.5,1.4,4.5,3.4,5.9,5.8,1.4,2.4,2.1,5.1,2.1,7.9s-.7,5.5-2.1,8c-1.4,2.5-3.3,4.4-5.8,5.8s-5.1,2.1-8.1,2.1c-4.3,0-8-1.5-11.1-4.6s-4.6-6.8-4.6-11.2,1.7-8.7,5.2-11.8c3-2.7,6.5-4.1,10.5-4.1ZM200.1,86.9c-2.4,0-4.3.8-5.9,2.5s-2.4,3.7-2.4,6.3.8,4.8,2.3,6.4c1.5,1.6,3.5,2.4,5.9,2.4s4.3-.8,5.9-2.5c1.6-1.6,2.4-3.8,2.4-6.4s-.8-4.7-2.3-6.3-3.5-2.4-5.9-2.4Z"/>
        <path d="M244.5,80.6h7.6v30.2h-7.6v-3.2c-1.5,1.4-3,2.4-4.5,3-1.5.6-3.1.9-4.8.9-3.9,0-7.3-1.5-10.1-4.5-2.8-3-4.3-6.8-4.3-11.3s1.4-8.5,4.1-11.5,6.1-4.5,10-4.5,3.5.3,5.1,1c1.6.7,3.1,1.7,4.4,3.1v-3.3ZM236.6,86.8c-2.3,0-4.3.8-5.8,2.5-1.5,1.7-2.3,3.8-2.3,6.4s.8,4.8,2.4,6.4c1.6,1.7,3.5,2.5,5.8,2.5s4.4-.8,5.9-2.5,2.4-3.8,2.4-6.5-.8-4.8-2.4-6.4c-1.6-1.6-3.6-2.4-6-2.4Z"/>
        <path d="M258,80.6h6.5v3.8c.7-1.5,1.6-2.6,2.8-3.4,1.2-.8,2.4-1.2,3.8-1.2s2,.3,3.1.8l-2.4,6.5c-.9-.4-1.6-.7-2.2-.7-1.2,0-2.2.7-3,2.2-.8,1.4-1.2,4.3-1.2,8.5v1.5s0,12.2,0,12.2h-7.5v-30.2Z"/>
        <path d="M300.3,68.9h7.6v41.9h-7.6v-3.2c-1.5,1.4-3,2.4-4.5,3-1.5.6-3.1.9-4.8.9-3.9,0-7.3-1.5-10.1-4.5-2.8-3-4.3-6.8-4.3-11.3s1.4-8.5,4.1-11.5,6.1-4.5,10-4.5,3.5.3,5.1,1c1.6.7,3.1,1.7,4.4,3.1v-15ZM292.3,86.8c-2.3,0-4.3.8-5.8,2.5-1.5,1.7-2.3,3.8-2.3,6.4s.8,4.8,2.4,6.4c1.6,1.7,3.5,2.5,5.8,2.5s4.4-.8,5.9-2.5,2.4-3.8,2.4-6.5-.8-4.8-2.4-6.4c-1.6-1.6-3.6-2.4-6-2.4Z"/>
        <path d="M318.5,68.1c1.3,0,2.5.5,3.4,1.4s1.4,2.1,1.4,3.5-.5,2.5-1.4,3.5c-.9,1-2.1,1.4-3.4,1.4s-2.5-.5-3.4-1.5c-1-1-1.4-2.2-1.4-3.5s.5-2.5,1.4-3.4c.9-.9,2.1-1.4,3.4-1.4ZM314.7,80.6h7.6v30.2h-7.6v-30.2Z"/>
        <path d="M329.2,80.6h7.6v3.1c1.7-1.4,3.3-2.5,4.7-3,1.4-.6,2.8-.8,4.3-.8,3,0,5.5,1,7.6,3.1,1.8,1.8,2.6,4.4,2.6,7.9v20h-7.5v-13.2c0-3.6-.2-6-.5-7.2-.3-1.2-.9-2.1-1.7-2.7-.8-.6-1.8-.9-3-.9s-2.8.5-3.9,1.5c-1.1,1-1.9,2.4-2.3,4.3-.2.9-.3,3-.3,6.1v12.1h-7.6v-30.2Z"/>
        <path d="M385.6,80.6h7.6v25.9c0,5.1-1,8.9-3.1,11.3-2.8,3.3-6.9,4.9-12.5,4.9s-5.5-.4-7.5-1.1c-2-.7-3.7-1.8-5.1-3.3s-2.4-3.2-3.1-5.2h8.4c.7.9,1.7,1.5,2.9,1.9,1.2.4,2.5.7,4.1.7s3.7-.3,4.9-.9,2.1-1.4,2.6-2.4c.5-1,.8-2.7.8-5.2-1.3,1.3-2.7,2.3-4.2,2.9s-3.1.9-5,.9c-4.1,0-7.5-1.5-10.3-4.4-2.8-2.9-4.2-6.6-4.2-11.1s1.5-8.6,4.4-11.6c2.7-2.6,5.9-3.9,9.6-3.9s3.4.3,4.9,1,3.1,1.7,4.7,3.2v-3.3ZM377.8,86.9c-2.4,0-4.4.8-5.9,2.4-1.6,1.6-2.3,3.6-2.3,6s.8,4.6,2.4,6.2c1.6,1.6,3.6,2.4,6,2.4s4.3-.8,5.8-2.4c1.5-1.6,2.3-3.6,2.3-6.2s-.8-4.6-2.3-6.1c-1.5-1.6-3.5-2.4-5.9-2.4Z"/>
      </g>
      <g class="st1">
        <path d="M9.8,131.9h7.9v14.1l11.1-14.1h9.3l-14.3,18.2,15.7,22.6h-9.2l-12.6-18.2v18.2h-7.9v-40.9Z"/>
        <path d="M44.2,142.5h7.6v3.1c1.7-1.4,3.3-2.5,4.7-3,1.4-.6,2.8-.8,4.3-.8,3,0,5.5,1,7.6,3.1,1.8,1.8,2.6,4.4,2.6,7.9v20h-7.5v-13.2c0-3.6-.2-6-.5-7.2-.3-1.2-.9-2.1-1.7-2.7-.8-.6-1.8-.9-3-.9s-2.8.5-3.9,1.5c-1.1,1-1.9,2.4-2.3,4.3-.2.9-.3,3-.3,6.1v12.1h-7.6v-30.2Z"/>
        <path d="M92.5,141.8c2.9,0,5.5.7,8,2.1s4.5,3.4,5.9,5.8,2.1,5.1,2.1,7.9-.7,5.5-2.1,8-3.3,4.4-5.8,5.8c-2.4,1.4-5.1,2.1-8.1,2.1-4.3,0-8-1.5-11.1-4.6s-4.6-6.8-4.6-11.2,1.7-8.7,5.2-11.8c3-2.7,6.5-4.1,10.5-4.1ZM92.6,148.9c-2.4,0-4.3.8-5.9,2.5-1.6,1.6-2.4,3.7-2.4,6.3s.8,4.8,2.3,6.4,3.5,2.4,5.9,2.4,4.3-.8,5.9-2.5c1.6-1.6,2.4-3.8,2.4-6.4s-.8-4.7-2.3-6.3c-1.5-1.6-3.5-2.4-5.9-2.4Z"/>
        <path d="M111.4,142.5h7.4l6.1,17.2,6.5-17.2h4.5l6.4,17,6.1-17h7.5l-11,30.2h-4.8l-6.4-17.2-6.6,17.2h-4.8l-10.9-30.2Z"/>
        <path d="M159.4,130.9h7.6v41.9h-7.6v-41.9Z"/>
        <path d="M204.1,159.8h-24.4c.4,2.1,1.3,3.9,2.8,5.1,1.5,1.3,3.5,1.9,5.8,1.9s5.3-1,7.3-3l6.4,3c-1.6,2.3-3.5,3.9-5.7,5-2.2,1.1-4.9,1.6-7.9,1.6-4.7,0-8.6-1.5-11.6-4.5-3-3-4.5-6.7-4.5-11.2s1.5-8.4,4.5-11.5c3-3,6.7-4.6,11.2-4.6s8.6,1.5,11.6,4.6c3,3,4.5,7.1,4.5,12.1v1.4ZM196.5,153.9c-.5-1.7-1.5-3.1-3-4.1-1.5-1.1-3.2-1.6-5.1-1.6s-4,.6-5.6,1.8c-1,.7-1.9,2-2.8,3.9h16.4Z"/>
        <path d="M232.6,130.9h7.6v41.9h-7.6v-3.2c-1.5,1.4-3,2.4-4.5,3-1.5.6-3.1.9-4.8.9-3.9,0-7.3-1.5-10.1-4.5-2.8-3-4.3-6.8-4.3-11.3s1.4-8.5,4.1-11.5,6.1-4.5,10-4.5,3.5.3,5.1,1c1.6.7,3.1,1.7,4.4,3.1v-15ZM224.6,148.8c-2.3,0-4.3.8-5.8,2.5-1.5,1.7-2.3,3.8-2.3,6.4s.8,4.8,2.4,6.4c1.6,1.7,3.5,2.5,5.8,2.5s4.4-.8,5.9-2.5,2.4-3.8,2.4-6.5-.8-4.8-2.4-6.4c-1.6-1.6-3.6-2.4-6-2.4Z"/>
        <path d="M270.1,142.5h7.6v25.9c0,5.1-1,8.9-3.1,11.3-2.8,3.3-6.9,4.9-12.5,4.9s-5.5-.4-7.5-1.1c-2-.7-3.7-1.8-5.1-3.3s-2.4-3.2-3.1-5.2h8.4c.7.9,1.7,1.5,2.9,1.9,1.2.4,2.5.7,4.1.7s3.7-.3,4.9-.9c1.2-.6,2.1-1.4,2.6-2.4.5-1,.8-2.7.8-5.2-1.3,1.3-2.7,2.3-4.2,2.9-1.5.6-3.1.9-5,.9-4.1,0-7.5-1.5-10.3-4.4-2.8-2.9-4.2-6.6-4.2-11.1s1.5-8.6,4.4-11.6c2.7-2.6,5.9-3.9,9.6-3.9s3.4.3,4.9,1c1.5.6,3.1,1.7,4.7,3.2v-3.3ZM262.3,148.9c-2.4,0-4.4.8-5.9,2.4s-2.3,3.6-2.3,6,.8,4.6,2.4,6.2c1.6,1.6,3.6,2.4,6,2.4s4.3-.8,5.8-2.4c1.5-1.6,2.3-3.6,2.3-6.2s-.8-4.6-2.3-6.1c-1.5-1.6-3.5-2.4-5.9-2.4Z"/>
        <path d="M315.6,159.8h-24.4c.4,2.1,1.3,3.9,2.8,5.1,1.5,1.3,3.5,1.9,5.8,1.9s5.3-1,7.3-3l6.4,3c-1.6,2.3-3.5,3.9-5.7,5-2.2,1.1-4.9,1.6-7.9,1.6-4.7,0-8.6-1.5-11.6-4.5-3-3-4.5-6.7-4.5-11.2s1.5-8.4,4.5-11.5c3-3,6.7-4.6,11.2-4.6s8.6,1.5,11.6,4.6c3,3,4.5,7.1,4.5,12.1v1.4ZM308.1,153.9c-.5-1.7-1.5-3.1-3-4.1-1.5-1.1-3.2-1.6-5.1-1.6s-4,.6-5.6,1.8c-1,.7-1.9,2-2.8,3.9h16.4Z"/>
        <path d="M329.3,130.9v15c1.4-1.4,2.9-2.4,4.4-3.1,1.6-.7,3.3-1,5.1-1,3.9,0,7.3,1.5,10.1,4.5s4.1,6.8,4.1,11.5-1.4,8.3-4.3,11.3c-2.9,3-6.2,4.5-10.1,4.5s-3.4-.3-4.9-.9-3-1.6-4.5-3v3.2h-7.5v-41.9h7.5ZM337.3,148.8c-2.4,0-4.4.8-5.9,2.4-1.6,1.6-2.4,3.8-2.4,6.4s.8,4.9,2.4,6.5c1.6,1.7,3.6,2.5,5.9,2.5s4.3-.8,5.8-2.5c1.6-1.7,2.4-3.8,2.4-6.4s-.8-4.7-2.3-6.4c-1.6-1.7-3.5-2.5-5.9-2.5Z"/>
        <path d="M381.6,142.5h7.6v30.2h-7.6v-3.2c-1.5,1.4-3,2.4-4.5,3-1.5.6-3.1.9-4.8.9-3.9,0-7.3-1.5-10.1-4.5-2.8-3-4.3-6.8-4.3-11.3s1.4-8.5,4.1-11.5c2.8-3,6.1-4.5,10-4.5s3.5.3,5.1,1c1.6.7,3.1,1.7,4.4,3.1v-3.3ZM373.7,148.8c-2.3,0-4.3.8-5.8,2.5-1.6,1.7-2.3,3.8-2.3,6.4s.8,4.8,2.4,6.4c1.6,1.7,3.5,2.5,5.8,2.5s4.4-.8,5.9-2.5,2.4-3.8,2.4-6.5-.8-4.8-2.4-6.4c-1.6-1.6-3.6-2.4-6-2.4Z"/>
        <path d="M415.4,146.8l-4.7,4.7c-1.9-1.9-3.6-2.8-5.2-2.8s-1.5.2-2,.5c-.5.4-.7.8-.7,1.3s.2.8.5,1.1c.3.3,1.1.8,2.3,1.4l2.8,1.4c2.9,1.4,4.9,2.9,6,4.4,1.1,1.5,1.6,3.3,1.6,5.3s-1,4.9-3,6.7-4.6,2.7-7.9,2.7-7.9-1.7-10.6-5.2l4.7-5.1c.9,1,1.9,1.9,3.1,2.5,1.2.6,2.3,1,3.2,1s1.8-.2,2.4-.7c.6-.5.9-1,.9-1.7,0-1.2-1.1-2.3-3.3-3.4l-2.6-1.3c-4.9-2.5-7.3-5.5-7.3-9.2s.9-4.4,2.8-6.1c1.8-1.7,4.2-2.5,7.1-2.5s3.8.4,5.5,1.3c1.7.9,3.2,2.1,4.4,3.7Z"/>
        <path d="M452.2,159.8h-24.4c.4,2.1,1.3,3.9,2.8,5.1,1.5,1.3,3.5,1.9,5.8,1.9s5.3-1,7.3-3l6.4,3c-1.6,2.3-3.5,3.9-5.7,5-2.2,1.1-4.9,1.6-7.9,1.6-4.7,0-8.6-1.5-11.6-4.5-3-3-4.5-6.7-4.5-11.2s1.5-8.4,4.5-11.5c3-3,6.7-4.6,11.2-4.6s8.6,1.5,11.6,4.6c3,3,4.5,7.1,4.5,12.1v1.4ZM444.6,153.9c-.5-1.7-1.5-3.1-3-4.1-1.5-1.1-3.2-1.6-5.1-1.6s-4,.6-5.6,1.8c-1,.7-1.9,2-2.8,3.9h16.4Z"/>
      </g>
    </g>
  </g>
</svg>