<?xml version="1.0" encoding="utf-8"?>
<!-- Generator: Adobe Illustrator 28.0.0, SVG Export Plug-In . SVG Version: 6.00 Build 0)  -->
<svg version="1.1" id="Layer_2_00000075153451937877062750000008175047305005441942_"
	 xmlns="http://www.w3.org/2000/svg" xmlns:xlink="http://www.w3.org/1999/xlink" x="0px" y="0px" viewBox="0 0 1077.4 441.8"
	 style="enable-background:new 0 0 1077.4 441.8;" xml:space="preserve">
<style type="text/css">
	.st0{fill:#FFFFFF;}
	.st1{fill:#383838;}
	.st2{fill:#E1E1FF;}
	.st3{fill:#CF89FF;}
	.st4{fill:#A9B5C4;}
	.st5{fill:none;}
	.st6{fill:#EE541F;}
	.st7{clip-path:url(#SVGID_00000002360924601986510890000003495128683809785007_);}
	.st8{fill:#FFBD00;}
	.st9{fill:#FFBC01;}
	.st10{fill:#FEBB02;}
	.st11{fill:#FEBA03;}
	.st12{fill:#FDB904;}
	.st13{fill:#FDB805;}
	.st14{fill:#FDB707;}
	.st15{fill:#FCB608;}
	.st16{fill:#FCB509;}
	.st17{fill:#FBB40A;}
	.st18{fill:#FBB30B;}
	.st19{fill:#FAB20C;}
	.st20{fill:#FAB10D;}
	.st21{fill:#FAB00E;}
	.st22{fill:#F9AF0F;}
	.st23{fill:#F9AF10;}
	.st24{fill:#F9AE11;}
	.st25{fill:#F9AD12;}
	.st26{fill:#F8AC13;}
	.st27{fill:#F8AB14;}
	.st28{fill:#F8AB15;}
	.st29{fill:#F7AA16;}
	.st30{fill:#F7A917;}
	.st31{fill:#F7A818;}
	.st32{fill:#F7A719;}
	.st33{fill:#F6A61A;}
	.st34{fill:#F6A61B;}
	.st35{fill:#F6A51C;}
	.st36{fill:#F6A41E;}
	.st37{fill:#F5A31F;}
	.st38{fill:#F5A220;}
	.st39{fill:#F5A221;}
	.st40{fill:#F4A122;}
	.st41{fill:#F4A023;}
	.st42{fill:#F49F24;}
	.st43{fill:#F49E25;}
	.st44{fill:#F39E26;}
	.st45{fill:#F39D27;}
	.st46{fill:#F39C28;}
	.st47{fill:#F29B29;}
	.st48{fill:#F29A2A;}
	.st49{fill:#F2992B;}
	.st50{fill:#F2992C;}
	.st51{fill:#F1982D;}
	.st52{fill:#F1972E;}
	.st53{fill:#6666FF;}
	.st54{clip-path:url(#SVGID_00000041255516505503689260000012016943751753466004_);}
	.st55{clip-path:url(#SVGID_00000147910202762968108180000004361837056704509617_);}
	.st56{clip-path:url(#SVGID_00000170240457565200803350000013719050560212511677_);}
	.st57{fill:#CE89FF;}
	.st58{fill:#CD88FF;}
	.st59{fill:#CC88FF;}
	.st60{fill:#CB87FF;}
	.st61{fill:#CA87FF;}
	.st62{fill:#C987FF;}
	.st63{fill:#C786FF;}
	.st64{fill:#C686FF;}
	.st65{fill:#C586FF;}
	.st66{fill:#C485FF;}
	.st67{fill:#C385FF;}
	.st68{fill:#C284FF;}
	.st69{fill:#C184FF;}
	.st70{fill:#C084FF;}
	.st71{fill:#BF83FF;}
	.st72{fill:#BE83FF;}
	.st73{fill:#BD83FF;}
	.st74{fill:#BC82FF;}
	.st75{fill:#BB82FF;}
	.st76{fill:#BA82FF;}
	.st77{fill:#B981FF;}
	.st78{fill:#B881FF;}
	.st79{fill:#B780FF;}
	.st80{fill:#B680FF;}
	.st81{fill:#B580FF;}
	.st82{fill:#B47FFF;}
	.st83{fill:#B37FFF;}
	.st84{fill:#B27FFF;}
	.st85{fill:#B17EFF;}
	.st86{fill:#B07EFF;}
	.st87{fill:#AE7EFF;}
	.st88{fill:#AD7DFF;}
	.st89{fill:#AC7DFF;}
	.st90{fill:#AB7DFF;}
	.st91{fill:#AA7CFF;}
	.st92{fill:#A97CFF;}
	.st93{fill:#A87CFF;}
	.st94{fill:#A77BFF;}
	.st95{fill:#A67BFF;}
	.st96{fill:#A57AFF;}
	.st97{fill:#A47AFF;}
	.st98{fill:#A37AFF;}
	.st99{fill:#A279FF;}
	.st100{fill:#A179FF;}
	.st101{fill:#A079FF;}
	.st102{fill:#9F78FF;}
	.st103{fill:#9E78FF;}
	.st104{fill:#9D78FF;}
	.st105{fill:#9C77FF;}
	.st106{fill:#9B77FF;}
	.st107{fill:#9A77FF;}
	.st108{fill:#9976FF;}
	.st109{fill:#9876FF;}
	.st110{fill:#9776FF;}
	.st111{fill:#9675FF;}
	.st112{fill:#9575FF;}
	.st113{fill:#9475FF;}
	.st114{fill:#9374FF;}
	.st115{fill:#9274FF;}
	.st116{fill:#9174FF;}
	.st117{fill:#9073FF;}
	.st118{fill:#8F73FF;}
	.st119{fill:#8E73FF;}
	.st120{fill:#8D72FF;}
	.st121{fill:#8C72FF;}
	.st122{fill:#8B72FF;}
	.st123{fill:#8A71FF;}
	.st124{fill:#8971FF;}
	.st125{fill:#8871FF;}
	.st126{fill:#8770FF;}
	.st127{fill:#8670FF;}
	.st128{fill:#8570FF;}
	.st129{fill:#846FFF;}
	.st130{fill:#836FFF;}
	.st131{fill:#816FFF;}
	.st132{fill:#806FFF;}
	.st133{fill:#7F6EFF;}
	.st134{fill:#7E6EFF;}
	.st135{fill:#7D6EFF;}
	.st136{fill:#7C6DFF;}
	.st137{fill:#7B6DFF;}
	.st138{fill:#7A6DFF;}
	.st139{fill:#796CFF;}
	.st140{fill:#786CFF;}
	.st141{fill:#776CFF;}
	.st142{fill:#766BFF;}
	.st143{fill:#756BFF;}
	.st144{fill:#746BFF;}
	.st145{fill:#736AFF;}
	.st146{fill:#726AFF;}
	.st147{fill:#716AFF;}
	.st148{fill:#7069FF;}
	.st149{fill:#6F69FF;}
	.st150{fill:#6E69FF;}
	.st151{fill:#6D68FF;}
	.st152{fill:#6C68FF;}
	.st153{fill:#6B68FF;}
	.st154{fill:#6A67FF;}
	.st155{fill:#6967FF;}
	.st156{fill:#6867FF;}
	.st157{fill:#6766FF;}
	.st158{fill:#EF4E16;}
	.st159{fill:#FFCE31;}
	.st160{fill:#DFE8FD;}
	.st161{clip-path:url(#SVGID_00000051381835793943543970000007307848005497146778_);}
</style>
<g>
	<g>
		<g>
			<path class="st0" d="M53,29h160.3c12.9,0,23.3,10.4,23.3,23.3v308c0,12.9-10.4,23.3-23.3,23.3H53c-12.9,0-23.3-10.4-23.3-23.3
				v-308C29.7,39.5,40.1,29,53,29z"/>
			<path class="st1" d="M212.3,384.3H53.8c-13.7,0-25-11.2-25-25V53.3c0-13.7,11.2-25,25-25h158.5c13.7,0,25,11.2,25,25v306.1
				C237.2,373.2,226,384.4,212.3,384.3L212.3,384.3L212.3,384.3z M53.8,29.8c-12.9,0-23.4,10.6-23.4,23.4v306.1
				c0,12.9,10.6,23.4,23.4,23.4h158.5c12.9,0,23.4-10.5,23.4-23.4V53.3c0-12.9-10.5-23.4-23.4-23.4C212.3,29.8,53.8,29.8,53.8,29.8z
				"/>
		</g>
		<path class="st1" d="M214.8,375H51.4c-6.9,0-12.4-5.2-12.4-11.6V49.3c0-6.4,5.6-11.6,12.4-11.6h163.4c6.9,0,12.4,5.2,12.4,11.6
			v314.1C227.2,369.8,221.7,375,214.8,375L214.8,375z M51.4,39.1c-6.1,0-11,4.6-11,10.2v314.1c0,5.6,4.9,10.1,11,10.1h163.4
			c6.1,0,11-4.6,11-10.1V49.3c0-5.6-4.9-10.2-11-10.2H51.4z"/>
		<path class="st1" d="M157,52.9h-48c-0.4,0-0.7-0.4-0.7-0.7s0.4-0.7,0.7-0.7h48c0.4,0,0.7,0.4,0.7,0.7S157.4,52.9,157,52.9z"/>
		<g>
			<g>
				<rect x="129.4" y="112.1" class="st2" width="64.3" height="7.4"/>
				<rect x="129.4" y="125.5" class="st2" width="53.8" height="7.3"/>
				<rect x="129.4" y="138.8" class="st2" width="57.6" height="7.3"/>
				<rect x="129.4" y="152.2" class="st2" width="34.6" height="7.3"/>
			</g>
			<rect x="66.7" y="111.3" class="st2" width="52.8" height="48.2"/>
		</g>
		<g>
			<g>
				<rect x="129.4" y="186.1" class="st2" width="71.9" height="7.3"/>
				<rect x="129.4" y="199.4" class="st2" width="60.1" height="7.3"/>
				<rect x="129.4" y="212.8" class="st2" width="41.4" height="7.3"/>
			</g>
			<rect x="66.7" y="185.3" class="st2" width="52.8" height="48.2"/>
		</g>
		<g>
			<g>
				<rect x="129.4" y="260.1" class="st2" width="50.1" height="7.3"/>
				<rect x="129.4" y="273.4" class="st2" width="65.2" height="7.3"/>
				<rect x="129.4" y="286.8" class="st2" width="57.6" height="7.3"/>
				<rect x="129.4" y="300.1" class="st2" width="26.7" height="7.3"/>
			</g>
			<rect x="66.7" y="259.2" class="st2" width="52.8" height="48.2"/>
		</g>
	</g>
	<g>
		<polygon class="st0" points="317.9,361.7 340.1,395.4 357.8,393.2 335.5,350.1 		"/>
		<path class="st1" d="M340.1,395.9c-0.2,0-0.4-0.1-0.5-0.3l-22.2-33.6c-0.1-0.1-0.1-0.3-0.1-0.4s0.1-0.3,0.2-0.4l17.6-11.6
			c0.1-0.1,0.3-0.1,0.4-0.1c0.1,0.1,0.3,0.1,0.4,0.3l22.3,43.1c0.1,0.1,0.1,0.4,0,0.5c-0.1,0.1-0.2,0.3-0.4,0.3L340.1,395.9
			L340.1,395.9L340.1,395.9L340.1,395.9z M318.7,361.9l21.7,32.8l16.5-2l-21.6-41.9L318.7,361.9L318.7,361.9L318.7,361.9z"/>
	</g>
	<g>
		<polygon class="st0" points="269.9,323.9 251.8,358.8 265.8,369.7 294.4,318.7 		"/>
		<path class="st1" d="M265.8,370.3c-0.1,0-0.2,0-0.4-0.1l-14-10.8c-0.2-0.1-0.3-0.4-0.1-0.7l18.1-35c0.1-0.1,0.2-0.3,0.4-0.3
			l24.6-5.2c0.2,0,0.4,0,0.6,0.2c0.1,0.1,0.1,0.4,0,0.6l-28.6,51.1C266.2,370,266,370.1,265.8,370.3L265.8,370.3L265.8,370.3
			L265.8,370.3z M252.5,358.7l13.2,10.2l27.7-49.4l-23.1,4.9L252.5,358.7L252.5,358.7L252.5,358.7z"/>
	</g>
	<g>
		<path class="st3" d="M246.7,362.9c-2.6,5.6,21.6,44.8,25.4,39.1s-4.5-28.3-2-36.9c0.3-0.9,0.7-2.1,1.4-3.5c-5-4.2-11.1-7.3-17.7-9
			C250.9,357.1,248.7,358.5,246.7,362.9L246.7,362.9L246.7,362.9z"/>
		<path class="st0" d="M246.7,362.9c0.5-1.2,1.1-2,1.6-2.9c5.4-2.4,28.1,35.1,23.1,42.5C266.2,404.3,244.2,368.2,246.7,362.9
			L246.7,362.9L246.7,362.9z"/>
		<path class="st1" d="M271.4,403c-0.1,0-0.2,0-0.3-0.1c-0.3-0.1-0.4-0.5-0.1-0.8c1.5-2.2,0.1-8.3-3.6-16.5
			c-3.4-7.3-8.3-15.3-12.6-20.3c-1.5-1.8-2.8-3.1-3.9-3.9c-1-0.7-1.9-1.1-2.3-0.9c-0.3,0.1-0.7,0-0.7-0.3c-0.1-0.3,0-0.7,0.3-0.7
			c0.9-0.4,2,0,3.5,1c1.2,0.9,2.6,2.2,4.1,4.1c4.3,5.1,9.3,13.2,12.7,20.6c1.8,3.9,3.2,7.5,3.8,10.4c0.8,3.3,0.7,5.8-0.3,7.2
			c-0.1,0.1-0.3,0.2-0.4,0.2l0,0L271.4,403z"/>
		<path class="st4" d="M246.7,362.9L246.7,362.9c4.6-4.6,26.8,35,24.9,39.3l0,0c0,0.1,0,0.1-0.1,0.1
			C266.2,404.2,244.3,368.2,246.7,362.9L246.7,362.9z"/>
	</g>
	<g>
		<path class="st3" d="M361.5,388.2c-2.7-1.6-5.6-4.3-8.5-7.7c-6.6,1-12.9,3.3-18.8,7.2c1.7,5-1.9,10.4,1.4,15.1l50.9-1.4
			C381.8,393.8,377.7,397.7,361.5,388.2L361.5,388.2L361.5,388.2z"/>
		<path class="st0" d="M385,399.3c0.5,0.6,1,1.3,1.5,2.1l-50.9,1.4c-0.8-1.2-1.3-2.3-1.7-3.5L385,399.3L385,399.3z"/>
	</g>
	<path class="st1" d="M195.9,298.6h51.8c3.5,0,6.4,2.8,6.4,6.4v0c0,3.5-2.8,6.4-6.4,6.4h-51.8c-3.5,0-6.4-2.8-6.4-6.4v0
		C189.5,301.4,192.3,298.6,195.9,298.6z"/>
	<path class="st4" d="M223.5,248.3c6.5-0.7,9.3,11.3,9.3,11.3c58-5.6,88.2-7.3,93.5,7.7c5.9,16.5-31.2,90.1-31.2,90.1l-36-21.3
		c0,0,26.3-47.9,24.8-47.9c-1.4,0-42.5,27.3-64.9,11.2C196.7,283.3,223.5,248.3,223.5,248.3L223.5,248.3L223.5,248.3z"/>
	<path class="st4" d="M186.5,263.8c-14.1,56.6,89.2,42.9,89.2,42.9l38.5,75.1l36.6-6.8c0,0-31.2-77.1-48.7-90
		c-17.6-12.9-76.8-15.8-76.8-15.8l-2.7-13.6L186.5,263.8L186.5,263.8L186.5,263.8z"/>
	<path class="st1" d="M317.9,306.6c-0.2,0-0.4-0.1-0.5-0.3c-6.4-10.8-11.6-17.9-15.8-20.9c-4-2.9-10.4-5.5-19.2-7.8
		c-7.1-1.8-15.6-3.5-25.5-4.8c-16.8-2.3-31.6-3-31.7-3c-0.3,0-0.6-0.3-0.5-0.6c0-0.3,0.3-0.6,0.6-0.5c0.3,0.1,15,0.7,31.8,3.1
		c9.9,1.4,18.5,3,25.6,4.8c9,2.3,15.5,5,19.6,8c4.3,3.1,9.7,10.3,16.1,21.3c0.1,0.3,0,0.6-0.2,0.8c-0.1,0-0.2,0.1-0.3,0.1l0,0
		L317.9,306.6z"/>
	<path class="st1" d="M314.2,382.3c-0.3,0-0.5-0.2-0.6-0.4c0-0.3,0.1-0.6,0.4-0.7l36.6-6.8c0.3,0,0.6,0.1,0.7,0.4
		c0.1,0.3-0.1,0.6-0.4,0.7L314.2,382.3L314.2,382.3L314.2,382.3L314.2,382.3z"/>
	<path class="st1" d="M298.3,351.5c-0.2,0-0.4-0.1-0.5-0.3L275.2,307c-0.1-0.3,0-0.7,0.2-0.7c0.3-0.1,0.7,0,0.7,0.2l22.6,44.2
		c0.1,0.3,0,0.7-0.2,0.7C298.5,351.4,298.4,351.4,298.3,351.5L298.3,351.5L298.3,351.5z"/>
	<g>
		<path class="st0" d="M232.5,191c9.5-11.9,39,39.3,39,39.3s-0.6-7.2,4.3-8.5c6.4-1.7,17.1,23.2,2,26.4
			C262.7,251.2,214.6,213.4,232.5,191L232.5,191L232.5,191z"/>
		<path class="st1" d="M275.8,248.8c-5,0-12.3-3-20.2-8.3c-9.3-6.3-17.5-14.5-22.4-22.6c-3-5-4.8-9.7-5.1-14.1
			c-0.4-5,0.9-9.4,4-13.2c1.2-1.4,2.6-2.1,4.4-2c5.1,0.4,12.7,7.4,22.3,21c5.4,7.6,10.1,15.2,12.1,18.5c0-0.6,0.1-1.2,0.3-1.9
			c0.7-2.8,2.2-4.6,4.3-5.2c1.4-0.4,3.1,0.3,4.8,2c3.9,4.1,6.9,12.7,5.1,18.8c-1.1,3.5-3.7,5.9-7.5,6.7
			C277.2,248.8,276.5,248.8,275.8,248.8L275.8,248.8L275.8,248.8z M232.5,191l0.4,0.4c-6.9,8.6-3.2,18.9,1.2,26.1
			c4.8,7.9,12.9,16,22.1,22.2c4.2,2.8,8.4,5.1,12.1,6.4c3.8,1.4,6.9,2,9.3,1.4c3.5-0.7,5.7-2.7,6.7-5.9c0.8-2.7,0.7-6.1-0.4-9.6
			c-0.9-3.2-2.6-6.2-4.4-8.1c-1.3-1.4-2.6-2-3.7-1.7c-4.3,1.2-3.8,7.9-3.8,8c0,0.3-0.1,0.5-0.4,0.6c-0.3,0.1-0.5,0-0.7-0.3
			c0-0.1-5.9-10.1-13-20.1c-9.4-13.1-16.9-20.3-21.6-20.6c-1.4-0.1-2.5,0.4-3.5,1.5L232.5,191L232.5,191L232.5,191z"/>
	</g>
	<path class="st3" d="M244.8,232.9c-15.5-12.4-24-29.1-13.9-45.1c10.2-7.7,20.7,9.6,28.1,18.5L244.8,232.9L244.8,232.9z"/>
	<path class="st3" d="M170.4,189.5c15.1-22.4,54.8-11.6,68-3.5c13.2,8.1-8,67.8-8,67.8l-44,10.1
		C186.5,263.8,168.5,205.2,170.4,189.5L170.4,189.5L170.4,189.5z"/>
	<path class="st1" d="M235.5,135.8c12.4,7-2.2,25.3,3.8,34.5c-15.5,6.4-35.8,6.4-41.4-4.8c-5.7-11.1,6.7-35.6,20.6-36
		C232.4,129.1,235.5,135.7,235.5,135.8L235.5,135.8L235.5,135.8z"/>
	<path class="st0" d="M208.9,153.5l-11.9,24.7c-7.7,0-3,18.1,20.6,24.5c10.2,2.7,8.4-16.9-1.2-19.7l4.5-21L208.9,153.5L208.9,153.5
		L208.9,153.5z"/>
	<g>
		<line class="st5" x1="195.7" y1="180.3" x2="208.9" y2="153.5"/>
		<path class="st1" d="M195.6,180.9c-0.1,0-0.1,0-0.2,0c-0.3-0.1-0.4-0.4-0.3-0.7l13.2-26.8c0.1-0.3,0.4-0.4,0.7-0.3
			c0.3,0.1,0.4,0.4,0.3,0.7l-13.2,26.8C196.1,180.9,195.9,180.9,195.6,180.9L195.6,180.9z"/>
	</g>
	<g>
		<line class="st5" x1="215.8" y1="185.9" x2="221.3" y2="160.3"/>
		<path class="st1" d="M215.8,186.4c0,0-0.1,0-0.1,0c-0.3,0-0.5-0.4-0.4-0.7l5.6-25.6c0-0.3,0.4-0.5,0.7-0.4
			c0.3,0.1,0.5,0.4,0.4,0.7l-5.6,25.6C216.3,186.3,216,186.4,215.8,186.4L215.8,186.4L215.8,186.4z"/>
	</g>
	<path class="st6" d="M191.9,249.2c0,0-0.1,0-0.1,0c-0.2,0-0.4-0.2-0.4-0.4l-17.2-56.9c-0.1-0.3,0.1-0.6,0.4-0.7
		c0.3-0.1,0.6,0.1,0.7,0.4l16.9,56.1l32.7-33.6c0.2-0.2,0.6-0.2,0.8,0c0.2,0.2,0.2,0.6,0,0.8l-33.3,34.4
		C192.2,249.2,192,249.3,191.9,249.2L191.9,249.2L191.9,249.2z"/>
	<g>
		<path class="st0" d="M176,189.2c13.4-1.5,20.6,39.1,20.6,39.1s18.1-23.5,28.9-24.2c10.8-0.7,20.3,6.6,22.3,9.5
			c2,3-9.2-1.3-9.2-1.3c3.5,3,0.7,4.9-1.7,4.3c2.9,4.1-3.9,2.2-3.9,2.2c2.3,4.2-8.6,0-8.6,0s-22.7,41.2-33.9,38.3
			C179.3,254.1,154.7,191.7,176,189.2L176,189.2L176,189.2z"/>
		<path class="st1" d="M191.7,257.8c-0.4,0-0.9,0-1.4-0.1c-2.2-0.6-4.7-3-7.6-7.3c-2.7-4-5.4-9.1-7.8-15c-2.5-6-4.6-12.2-6-18.1
			c-1.5-6.5-2.2-12.1-1.8-16.6c0.2-3.5,1.1-6.2,2.4-8.2c1.5-2.2,3.6-3.5,6.4-3.8c3.3-0.4,6.4,1.5,9.4,5.7c2.3,3.2,4.5,7.8,6.5,13.7
			c2.7,7.9,4.5,16,5.1,18.9c1.5-2,5.2-6.4,9.7-10.9c7.9-8,14.2-12.2,18.9-12.5c6.1-0.4,11.4,1.7,14.8,3.5c4.1,2.1,7,4.8,8,6.3
			c0.5,0.7,0.4,1.2,0.1,1.4c-0.4,0.5-1.4,0.8-5.6-0.4c-0.9-0.3-1.7-0.5-2.4-0.8c0.7,1.1,0.4,2,0.1,2.4c-0.4,0.8-1.4,1.3-2.5,1.3
			c0.1,0.1,0.1,0.4,0.1,0.5c0.1,0.7,0,1-0.2,1.3c-0.4,0.7-1.4,0.9-3,0.7c-0.4,0-0.7-0.1-1-0.1c0,0.4,0,0.8-0.3,1.1
			c-0.4,0.5-1.4,1-5.4,0c-1.4-0.4-2.8-0.9-3.5-1.1c-1.2,2-6.4,11.1-12.5,19.9c-8.7,12.2-15.5,18.4-20.4,18.4l0,0L191.7,257.8z
			 M176,189.8L176,189.8c-4.7,0.5-7.3,4.2-7.8,11c-0.3,4.3,0.3,10,1.8,16.3c1.4,5.8,3.4,11.9,5.9,17.9c5.1,11.9,10.9,20.6,14.7,21.6
			c2.4,0.7,5.6-0.9,9.5-4.6c3.3-3,6.9-7.4,11.1-13.2c6.9-9.8,12.7-20.1,12.7-20.2c0.1-0.2,0.4-0.4,0.7-0.3c0,0,1.9,0.7,3.9,1.2
			c3.7,1,4.3,0.4,4.3,0.4c0.1-0.1,0-0.4-0.2-0.8c-0.1-0.2-0.1-0.4,0-0.7c0.1-0.2,0.4-0.3,0.6-0.2c1.6,0.4,3.5,0.6,3.9,0.1
			c0.1-0.1,0-0.7-0.6-1.5c-0.1-0.2-0.1-0.4,0-0.7c0.1-0.2,0.4-0.3,0.7-0.2c1,0.3,2.1,0,2.5-0.7c0.4-0.7-0.1-1.6-1.4-2.7
			c-0.2-0.1-0.3-0.5-0.1-0.7c0.1-0.2,0.4-0.4,0.7-0.2c0,0,2,0.7,4.1,1.4c3.2,0.9,4.2,0.9,4.6,0.9c0,0,0-0.1-0.1-0.1
			c-0.9-1.4-3.8-3.9-7.6-5.9c-3.3-1.7-8.4-3.7-14.2-3.3c-10.4,0.7-28.4,23.7-28.5,23.9c-0.1,0.1-0.4,0.3-0.6,0.2
			c-0.2-0.1-0.4-0.2-0.4-0.4c0-0.1-1.8-10.2-5.3-20c-5.6-16.1-11.1-18.9-14.8-18.6l0,0L176,189.8z"/>
	</g>
	<path class="st3" d="M170.3,228.1c-4.7-16.7-6.4-40.7,5.4-43.2c16.1-3.4,20.9,22,21.3,35.1L170.3,228.1L170.3,228.1z"/>
	<path class="st1" d="M170.3,228.7c-0.2,0-0.4-0.1-0.5-0.4c-0.1-0.3,0.1-0.6,0.4-0.7l26.3-8c-0.1-3-0.7-10-2.7-17.2
		c-2-7-4.9-12.2-8.4-14.8c-0.2-0.2-0.3-0.6-0.1-0.8c0.2-0.2,0.6-0.3,0.8-0.1c3.8,2.9,6.7,8.1,8.8,15.4c2.2,7.7,2.6,15.1,2.7,17.9
		c0,0.3-0.1,0.5-0.4,0.6l-26.8,8.1C170.5,228.7,170.4,228.7,170.3,228.7L170.3,228.7L170.3,228.7z"/>
	<path class="st1" d="M219.9,143.2c-10.1,14.3-10.8,34.3-10.8,34.3s-11.4-1.4-14.6-10.4C191.2,158.1,202.6,142,219.9,143.2
		L219.9,143.2L219.9,143.2z"/>
	<path class="st0" d="M217,151.5c6.9-8.7,14.1-0.6,16.1-10.3c3.7,0.8,5.6,4.7,5.4,8.7c-0.9,11.4-8.8,21.4-15.4,21.6
		c-6.5,0.2-11.1-13.7-9.8-15.3C208.4,154.5,214.3,142.3,217,151.5L217,151.5L217,151.5z"/>
	<path class="st1" d="M222.8,172c-1.8,0-3.5-0.9-5.2-2.7c-1.7-1.9-2.9-4.3-3.6-5.9c-0.1-0.3,0-0.7,0.3-0.7c0.3-0.1,0.7,0,0.7,0.3
		c0.7,1.6,1.8,3.8,3.4,5.6c1.5,1.7,3,2.5,4.5,2.4c3-0.1,6.5-2.5,9.3-6.4c3-4.1,5.1-9.5,5.5-14.7c0.1-1.9-0.2-3.8-1.1-5.2
		c-0.9-1.5-2.2-2.5-3.8-2.8c-0.3,0-0.5-0.4-0.4-0.7s0.4-0.5,0.7-0.4c2,0.4,3.5,1.6,4.6,3.4c0.9,1.7,1.4,3.8,1.2,5.9
		c-0.4,5.4-2.5,10.9-5.7,15.3C230,169.5,226.2,172,222.8,172l-0.1,0.1L222.8,172z"/>
	<path class="st1" d="M185.1,264.7c-0.3,0-0.5-0.1-0.6-0.4c-0.1-0.3,0.1-0.6,0.4-0.7l47.1-10.8c0.3-0.1,0.6,0.1,0.7,0.4
		s-0.1,0.6-0.4,0.7L185.1,264.7C185.2,264.7,185.1,264.7,185.1,264.7L185.1,264.7L185.1,264.7z"/>
	<path class="st4" d="M261.7,196.4H285c2.3,0,3.5,1.9,2.6,4.2l-17.3,45.2c-0.9,2.3-3.5,4.2-5.8,4.2h-23.3c-2.3,0-3.5-1.9-2.6-4.2
		l17.3-45.2C256.8,198.3,259.4,196.4,261.7,196.4L261.7,196.4L261.7,196.4z"/>
	<path class="st0" d="M241.3,250.6c-1.2,0-2.3-0.5-2.9-1.4c-0.7-0.9-0.7-2.2-0.2-3.6l17.3-45.2c1-2.5,3.8-4.6,6.3-4.6H285
		c0.3,0,0.6,0.3,0.6,0.6s-0.3,0.6-0.6,0.6h-23.3c-2.1,0-4.5,1.7-5.3,3.8l-17.3,45.2c-0.4,1-0.4,1.9,0.1,2.5c0.4,0.6,1.1,0.9,2,0.9
		s0.6,0.3,0.6,0.6S241.5,250.6,241.3,250.6L241.3,250.6L241.3,250.6z"/>
	<path class="st0" d="M272.2,213.2c-2.7,2,5.1,8.2,5.1,8.2s-8.6-2.6-9.5,0c-0.9,2.6,4.3,2.9,4.3,2.9s-5.2-1.4-5,0.7
		c0.3,2.1,5.1,3.3,5.1,3.3s-3.3-1.3-3.8,0.7c-0.4,2,10.2,9.5,13.8,7.2c3.6-2.2,2.2-12.4,0.7-15.3C281.3,218,273.8,212.2,272.2,213.2
		L272.2,213.2L272.2,213.2z"/>
	<path class="st1" d="M276.6,236.2c-0.1,0-0.1,0-0.2,0c-2-0.9-4.2-2.2-5.9-3.6c-2-1.6-2.8-2.8-2.7-3.7c0.1-0.6,0.4-1,0.9-1.3
		c-1.2-0.6-2.2-1.4-2.3-2.5c-0.1-0.7,0.2-1,0.4-1.2c0.2-0.1,0.5-0.3,0.8-0.4c-0.1-0.1-0.2-0.2-0.3-0.4c-0.4-0.6-0.4-1.2-0.2-1.9
		c0.5-1.4,2.3-1.8,5.7-1.4c0.7,0.1,1.5,0.3,2.2,0.4c-1.7-1.6-4.1-4.1-4.1-5.9c0-0.7,0.3-1.2,0.8-1.5c0.4-0.3,0.9-0.3,1.4-0.1
		c2.7,0.7,8.6,5.4,10.1,8c1.2,2.2,2.3,8.3,1.3,12.4c-0.1,0.3-0.4,0.5-0.7,0.4c-0.3-0.1-0.5-0.4-0.4-0.7c0.9-3.8-0.1-9.6-1.2-11.7
		c-1.2-2.3-6.9-6.8-9.3-7.4c-0.4-0.1-0.6,0-0.6,0c-0.2,0.1-0.4,0.4-0.4,0.7c0,1.6,3.3,4.9,5.4,6.7c0.2,0.1,0.3,0.4,0.1,0.7
		c-0.1,0.2-0.4,0.4-0.7,0.3c-3.3-1-8.3-1.8-8.8-0.4c-0.1,0.4,0,0.7,0.1,0.9c0.3,0.4,0.9,0.7,1.6,0.9h0.1c1.1,0.1,2,0.4,2,0.4
		c0.3,0.1,0.4,0.4,0.4,0.7s-0.3,0.5-0.6,0.4c-0.2,0-1.2-0.1-2.3-0.4c-0.9-0.1-1.7,0-2,0.2c0,0-0.1,0.1-0.1,0.3c0.1,1,2.1,2,3.7,2.5
		c0.6,0.1,0.9,0.3,1.1,0.3c0.3,0.1,0.4,0.4,0.4,0.7s-0.4,0.4-0.7,0.4c-0.1,0-0.5-0.1-0.9-0.3c-0.6-0.1-1.3-0.2-1.7,0
		c-0.2,0.1-0.4,0.3-0.4,0.5c0,0.2,0.5,1.2,2.3,2.6c1.7,1.3,3.7,2.6,5.6,3.4c0.3,0.1,0.4,0.4,0.3,0.7
		C277,236,276.8,236.2,276.6,236.2L276.6,236.2L276.6,236.2z"/>
	<path class="st1" d="M295.2,358c-0.1,0-0.2,0-0.3-0.1l-36-21.3c-0.3-0.1-0.4-0.5-0.2-0.8s0.5-0.4,0.8-0.2l36,21.3
		c0.3,0.1,0.4,0.5,0.2,0.8C295.6,357.8,295.4,358,295.2,358L295.2,358z"/>
	<path class="st1" d="M182.7,403.4C182.7,403.4,182.7,403.4,182.7,403.4c-0.4,0-0.6-0.4-0.5-0.7l17.2-94.3c0-0.3,0.4-0.5,0.7-0.4
		c0.3,0,0.5,0.4,0.4,0.7L183.3,403C183.3,403.2,183,403.4,182.7,403.4L182.7,403.4L182.7,403.4z"/>
	<path class="st1" d="M261.3,403.4c-0.3,0-0.5-0.2-0.6-0.4l-17.2-94.3c0-0.3,0.1-0.6,0.4-0.7c0.3,0,0.6,0.1,0.7,0.4l17.2,94.3
		C261.8,403,261.7,403.3,261.3,403.4C261.4,403.4,261.4,403.4,261.3,403.4L261.3,403.4L261.3,403.4z"/>
	<path class="st1" d="M385,399.9h-51.1c-0.3,0-0.6-0.2-0.6-0.6c0-0.4,0.2-0.6,0.6-0.6H385c0.3,0,0.6,0.2,0.6,0.6
		C385.6,399.7,385.3,399.9,385,399.9z"/>
	<path class="st1" d="M335.5,403.4c-0.3,0-0.6-0.2-0.6-0.6c0-0.3,0.2-0.6,0.6-0.6l50.9-1.4l0,0c0.3,0,0.6,0.2,0.6,0.6
		c0,0.3-0.2,0.6-0.6,0.6L335.5,403.4L335.5,403.4z"/>
	<g>
		<g>
			<g>
				<g>
					<defs>
						<polygon id="SVGID_1_" points="179.7,325 109,405.6 97.6,398.7 111.2,318.1 168.3,318.1 						"/>
					</defs>
					<clipPath id="SVGID_00000071560413268023452100000013869370108768888735_">
						<use xlink:href="#SVGID_1_"  style="overflow:visible;"/>
					</clipPath>
					<g style="clip-path:url(#SVGID_00000071560413268023452100000013869370108768888735_);">
						<rect x="97.6" y="318.1" class="st8" width="13.1" height="87.5"/>
						<rect x="110.7" y="318.1" class="st8" width="1.9" height="87.5"/>
						<rect x="112.6" y="318.1" class="st9" width="1.9" height="87.5"/>
						<rect x="114.5" y="318.1" class="st10" width="1.9" height="87.5"/>
						<rect x="116.5" y="318.1" class="st11" width="1.9" height="87.5"/>
						<rect x="118.3" y="318.1" class="st12" width="1.9" height="87.5"/>
						<rect x="120.2" y="318.1" class="st13" width="1.9" height="87.5"/>
						<rect x="122.1" y="318.1" class="st14" width="1.9" height="87.5"/>
						<rect x="124" y="318.1" class="st15" width="1.9" height="87.5"/>
						<rect x="125.9" y="318.1" class="st16" width="1.9" height="87.5"/>
						<rect x="127.8" y="318.1" class="st17" width="1.9" height="87.5"/>
						<rect x="129.7" y="318.1" class="st18" width="1.9" height="87.5"/>
						<rect x="131.6" y="318.1" class="st19" width="1.9" height="87.5"/>
						<rect x="133.4" y="318.1" class="st20" width="1.9" height="87.5"/>
						<rect x="135.3" y="318.1" class="st20" width="1.4" height="87.5"/>
						<rect x="136.7" y="318.1" class="st21" width="1.4" height="87.5"/>
						<rect x="138.1" y="318.1" class="st22" width="1.4" height="87.5"/>
						<rect x="139.4" y="318.1" class="st23" width="1.4" height="87.5"/>
						<rect x="140.8" y="318.1" class="st24" width="1.4" height="87.5"/>
						<rect x="142.1" y="318.1" class="st25" width="1.4" height="87.5"/>
						<rect x="143.4" y="318.1" class="st26" width="1.4" height="87.5"/>
						<rect x="144.7" y="318.1" class="st27" width="1.4" height="87.5"/>
						<rect x="146.1" y="318.1" class="st28" width="1.4" height="87.5"/>
						<rect x="147.4" y="318.1" class="st29" width="1.4" height="87.5"/>
						<rect x="148.8" y="318.1" class="st30" width="1.4" height="87.5"/>
						<rect x="150.2" y="318.1" class="st31" width="1.4" height="87.5"/>
						<rect x="151.5" y="318.1" class="st32" width="1.4" height="87.5"/>
						<rect x="152.8" y="318.1" class="st33" width="1.4" height="87.5"/>
						<rect x="154.1" y="318.1" class="st34" width="1.4" height="87.5"/>
						<rect x="155.5" y="318.1" class="st35" width="1.4" height="87.5"/>
						<rect x="156.8" y="318.1" class="st36" width="1.4" height="87.5"/>
						<rect x="158.2" y="318.1" class="st37" width="1.4" height="87.5"/>
						<rect x="159.5" y="318.1" class="st38" width="1.4" height="87.5"/>
						<rect x="160.9" y="318.1" class="st39" width="1.4" height="87.5"/>
						<rect x="162.2" y="318.1" class="st40" width="1.4" height="87.5"/>
						<rect x="163.5" y="318.1" class="st41" width="1.4" height="87.5"/>
						<rect x="164.9" y="318.1" class="st42" width="1.4" height="87.5"/>
						<rect x="166.2" y="318.1" class="st43" width="1.4" height="87.5"/>
						<rect x="167.6" y="318.1" class="st44" width="1.4" height="87.5"/>
						<rect x="168.9" y="318.1" class="st45" width="1.4" height="87.5"/>
						<rect x="170.3" y="318.1" class="st46" width="1.4" height="87.5"/>
						<rect x="171.6" y="318.1" class="st47" width="1.4" height="87.5"/>
						<rect x="172.9" y="318.1" class="st48" width="1.4" height="87.5"/>
						<rect x="174.3" y="318.1" class="st49" width="1.4" height="87.5"/>
						<rect x="175.6" y="318.1" class="st50" width="1.4" height="87.5"/>
						<rect x="177" y="318.1" class="st51" width="1.4" height="87.5"/>
						<rect x="178.3" y="318.1" class="st52" width="1.4" height="87.5"/>
						<path class="st52" d="M179.7,405.6V318V405.6z"/>
					</g>
				</g>
				<path d="M109.1,406.1l-11.9-7.2v-0.2l13.7-80.9h57.5l11.9,7.2l-0.3,0.3L109.1,406.1z M98,398.5l10.9,6.6l70.2-80.1l-10.9-6.6
					h-56.7L98,398.5L98,398.5z"/>
			</g>
			<polygon class="st53" points="191,405.6 109,405.6 122.6,325 179.7,325 			"/>
			<path class="st1" d="M143.6,406.1H109c-0.1,0-0.3,0-0.4-0.2c-0.1-0.1-0.1-0.3-0.1-0.4l13.6-80.6c0-0.3,0.3-0.4,0.6-0.4h53
				c0.3,0,0.6,0.3,0.6,0.6c0,0.3-0.3,0.6-0.6,0.6H123l-13.4,79.5h33.9c0.3,0,0.6,0.2,0.6,0.6C144.2,406,143.9,406.2,143.6,406.1
				L143.6,406.1L143.6,406.1z"/>
			<path class="st1" d="M156.8,318.3c-0.3,0-0.6-0.3-0.6-0.6v-12.9c0-8.2-6.7-14.9-14.9-14.9c-8.2,0-14.9,6.7-14.9,14.9v12.9
				c0,0.3-0.3,0.6-0.6,0.6s-0.6-0.3-0.6-0.6v-12.9c0-8.8,7.2-16.1,16.1-16.1c8.9,0,16.1,7.2,16.1,16.1v12.9
				C157.4,318,157.1,318.3,156.8,318.3L156.8,318.3z"/>
			<path class="st1" d="M165.5,329.8c-0.3,0-0.6-0.3-0.6-0.6v-12.9c0-8.2-6.7-14.9-14.9-14.9c-8.2,0-14.9,6.7-14.9,14.9v12.9
				c0,0.3-0.3,0.6-0.6,0.6c-0.3,0-0.6-0.3-0.6-0.6v-12.9c0-8.8,7.2-16.1,16.1-16.1c8.9,0,16.1,7.2,16.1,16.1v12.9
				C166.1,329.5,165.8,329.8,165.5,329.8L165.5,329.8L165.5,329.8z"/>
		</g>
		<g>
			<g>
				<g>
					<defs>
						<polygon id="SVGID_00000085239265204522321320000010335504685147815597_" points="236.9,352.8 154.9,412.5 143.6,405.6 
							143.6,345.9 225.6,345.9 						"/>
					</defs>
					<clipPath id="SVGID_00000183959928083227441460000011200571773164058046_">
						<use xlink:href="#SVGID_00000085239265204522321320000010335504685147815597_"  style="overflow:visible;"/>
					</clipPath>
					<g style="clip-path:url(#SVGID_00000183959928083227441460000011200571773164058046_);">
						<rect x="143.6" y="345.9" class="st8" width="15" height="66.6"/>
						<rect x="158.5" y="345.9" class="st8" width="2.2" height="66.6"/>
						<rect x="160.6" y="345.9" class="st9" width="2.2" height="66.6"/>
						<rect x="162.8" y="345.9" class="st10" width="2.2" height="66.6"/>
						<rect x="165" y="345.9" class="st11" width="2.2" height="66.6"/>
						<rect x="167.1" y="345.9" class="st12" width="2.2" height="66.6"/>
						<rect x="169.3" y="345.9" class="st13" width="2.2" height="66.6"/>
						<rect x="171.4" y="345.9" class="st14" width="2.2" height="66.6"/>
						<rect x="173.6" y="345.9" class="st15" width="2.2" height="66.6"/>
						<rect x="175.8" y="345.9" class="st16" width="2.2" height="66.6"/>
						<rect x="177.9" y="345.9" class="st17" width="2.2" height="66.6"/>
						<rect x="180.1" y="345.9" class="st18" width="2.2" height="66.6"/>
						<rect x="182.2" y="345.9" class="st19" width="2.2" height="66.6"/>
						<rect x="184.4" y="345.9" class="st20" width="2.2" height="66.6"/>
						<rect x="186.5" y="345.9" class="st20" width="1.5" height="66.6"/>
						<rect x="188.1" y="345.9" class="st21" width="1.5" height="66.6"/>
						<rect x="189.6" y="345.9" class="st22" width="1.5" height="66.6"/>
						<rect x="191.1" y="345.9" class="st23" width="1.5" height="66.6"/>
						<rect x="192.6" y="345.9" class="st24" width="1.5" height="66.6"/>
						<rect x="194.2" y="345.9" class="st25" width="1.5" height="66.6"/>
						<rect x="195.7" y="345.9" class="st26" width="1.5" height="66.6"/>
						<rect x="197.2" y="345.9" class="st27" width="1.5" height="66.6"/>
						<rect x="198.8" y="345.9" class="st28" width="1.5" height="66.6"/>
						<rect x="200.3" y="345.9" class="st29" width="1.5" height="66.6"/>
						<rect x="201.8" y="345.9" class="st30" width="1.5" height="66.6"/>
						<rect x="203.3" y="345.9" class="st31" width="1.5" height="66.6"/>
						<rect x="204.8" y="345.9" class="st32" width="1.5" height="66.6"/>
						<rect x="206.4" y="345.9" class="st33" width="1.5" height="66.6"/>
						<rect x="207.9" y="345.9" class="st34" width="1.5" height="66.6"/>
						<rect x="209.5" y="345.9" class="st35" width="1.5" height="66.6"/>
						<rect x="211" y="345.9" class="st36" width="1.5" height="66.6"/>
						<rect x="212.5" y="345.9" class="st37" width="1.5" height="66.6"/>
						<rect x="214" y="345.9" class="st38" width="1.5" height="66.6"/>
						<rect x="215.5" y="345.9" class="st39" width="1.5" height="66.6"/>
						<rect x="217.1" y="345.9" class="st40" width="1.5" height="66.6"/>
						<rect x="218.6" y="345.9" class="st41" width="1.5" height="66.6"/>
						<rect x="220.2" y="345.9" class="st42" width="1.5" height="66.6"/>
						<rect x="221.7" y="345.9" class="st43" width="1.5" height="66.6"/>
						<rect x="223.2" y="345.9" class="st44" width="1.5" height="66.6"/>
						<rect x="224.7" y="345.9" class="st45" width="1.5" height="66.6"/>
						<rect x="226.2" y="345.9" class="st46" width="1.5" height="66.6"/>
						<rect x="227.8" y="345.9" class="st47" width="1.5" height="66.6"/>
						<rect x="229.3" y="345.9" class="st48" width="1.5" height="66.6"/>
						<rect x="230.9" y="345.9" class="st49" width="1.5" height="66.6"/>
						<rect x="232.4" y="345.9" class="st50" width="1.5" height="66.6"/>
						<rect x="233.9" y="345.9" class="st51" width="1.5" height="66.6"/>
						<rect x="235.4" y="345.9" class="st52" width="1.5" height="66.6"/>
						<path class="st52" d="M236.9,412.5v-66.6V412.5z"/>
					</g>
				</g>
				<g>
					<defs>
						<path id="SVGID_00000111170980572157941960000004975190029961023395_" d="M154.9,413.1c-0.1,0-0.2,0-0.3-0.1l-11.4-6.9
							c-0.1-0.1-0.3-0.3-0.3-0.5v-59.7c0-0.3,0.3-0.6,0.6-0.6h82c0.1,0,0.2,0,0.3,0.1l11.4,6.9c0.1,0.1,0.3,0.3,0.3,0.4
							s-0.1,0.4-0.2,0.5l-82,59.7C155.2,412.9,155.1,413.1,154.9,413.1L154.9,413.1L154.9,413.1z M144.2,405.3l10.8,6.5l81-59
							l-10.5-6.4h-81.3V405.3L144.2,405.3z"/>
					</defs>
					<clipPath id="SVGID_00000111911429266888894560000010419072360427656612_">
						<use xlink:href="#SVGID_00000111170980572157941960000004975190029961023395_"  style="overflow:visible;"/>
					</clipPath>
					<g style="clip-path:url(#SVGID_00000111911429266888894560000010419072360427656612_);">
						<rect x="144.2" y="346.5" class="st8" width="14" height="65.4"/>
						<rect x="158.1" y="346.5" class="st8" width="2.2" height="65.4"/>
						<rect x="160.3" y="346.5" class="st9" width="2.2" height="65.4"/>
						<rect x="162.5" y="346.5" class="st10" width="2.2" height="65.4"/>
						<rect x="164.7" y="346.5" class="st11" width="2.2" height="65.4"/>
						<rect x="166.9" y="346.5" class="st12" width="2.2" height="65.4"/>
						<rect x="169" y="346.5" class="st13" width="2.2" height="65.4"/>
						<rect x="171.2" y="346.5" class="st14" width="2.2" height="65.4"/>
						<rect x="173.4" y="346.5" class="st15" width="2.2" height="65.4"/>
						<rect x="175.6" y="346.5" class="st16" width="2.2" height="65.4"/>
						<rect x="177.8" y="346.5" class="st17" width="2.2" height="65.4"/>
						<rect x="180" y="346.5" class="st18" width="2.2" height="65.4"/>
						<rect x="182.1" y="346.5" class="st19" width="2.2" height="65.4"/>
						<rect x="184.3" y="346.5" class="st20" width="2.2" height="65.4"/>
						<rect x="186.5" y="346.5" class="st20" width="1.5" height="65.4"/>
						<rect x="188.1" y="346.5" class="st21" width="1.5" height="65.4"/>
						<rect x="189.6" y="346.5" class="st22" width="1.5" height="65.4"/>
						<rect x="191.1" y="346.5" class="st23" width="1.5" height="65.4"/>
						<rect x="192.7" y="346.5" class="st24" width="1.5" height="65.4"/>
						<rect x="194.2" y="346.5" class="st25" width="1.5" height="65.4"/>
						<rect x="195.8" y="346.5" class="st26" width="1.5" height="65.4"/>
						<rect x="197.3" y="346.5" class="st27" width="1.5" height="65.4"/>
						<rect x="198.8" y="346.5" class="st28" width="1.5" height="65.4"/>
						<rect x="200.4" y="346.5" class="st29" width="1.5" height="65.4"/>
						<rect x="201.9" y="346.5" class="st30" width="1.5" height="65.4"/>
						<rect x="203.5" y="346.5" class="st31" width="1.5" height="65.4"/>
						<rect x="205" y="346.5" class="st32" width="1.5" height="65.4"/>
						<rect x="206.6" y="346.5" class="st33" width="1.5" height="65.4"/>
						<rect x="208.2" y="346.5" class="st34" width="1.5" height="65.4"/>
						<rect x="209.7" y="346.5" class="st35" width="1.5" height="65.4"/>
						<rect x="211.2" y="346.5" class="st36" width="1.5" height="65.4"/>
						<rect x="212.8" y="346.5" class="st37" width="1.5" height="65.4"/>
						<rect x="214.3" y="346.5" class="st38" width="1.5" height="65.4"/>
						<rect x="215.8" y="346.5" class="st39" width="1.5" height="65.4"/>
						<rect x="217.4" y="346.5" class="st40" width="1.5" height="65.4"/>
						<rect x="218.9" y="346.5" class="st41" width="1.5" height="65.4"/>
						<rect x="220.5" y="346.5" class="st42" width="1.5" height="65.4"/>
						<rect x="222" y="346.5" class="st43" width="1.5" height="65.4"/>
						<rect x="223.6" y="346.5" class="st44" width="1.5" height="65.4"/>
						<rect x="225.2" y="346.5" class="st45" width="1.5" height="65.4"/>
						<rect x="226.7" y="346.5" class="st46" width="1.5" height="65.4"/>
						<rect x="228.3" y="346.5" class="st47" width="1.5" height="65.4"/>
						<rect x="229.8" y="346.5" class="st48" width="1.5" height="65.4"/>
						<rect x="231.3" y="346.5" class="st49" width="1.5" height="65.4"/>
						<rect x="232.9" y="346.5" class="st50" width="1.5" height="65.4"/>
						<rect x="234.4" y="346.5" class="st51" width="1.5" height="65.4"/>
						<rect x="143" y="345.4" class="st8" width="15.1" height="67.7"/>
						<rect x="158.1" y="345.4" class="st8" width="2.2" height="67.7"/>
						<rect x="160.3" y="345.4" class="st9" width="2.2" height="67.7"/>
						<rect x="162.5" y="345.4" class="st10" width="2.2" height="67.7"/>
						<rect x="164.7" y="345.4" class="st11" width="2.2" height="67.7"/>
						<rect x="166.9" y="345.4" class="st12" width="2.2" height="67.7"/>
						<rect x="169" y="345.4" class="st13" width="2.2" height="67.7"/>
						<rect x="171.2" y="345.4" class="st14" width="2.2" height="67.7"/>
						<rect x="173.4" y="345.4" class="st15" width="2.2" height="67.7"/>
						<rect x="175.6" y="345.4" class="st16" width="2.2" height="67.7"/>
						<rect x="177.8" y="345.4" class="st17" width="2.2" height="67.7"/>
						<rect x="180" y="345.4" class="st18" width="2.2" height="67.7"/>
						<rect x="182.1" y="345.4" class="st19" width="2.2" height="67.7"/>
						<rect x="184.3" y="345.4" class="st20" width="2.2" height="67.7"/>
						<rect x="186.5" y="345.4" class="st20" width="1.5" height="67.7"/>
						<rect x="188.1" y="345.4" class="st21" width="1.5" height="67.7"/>
						<rect x="189.6" y="345.4" class="st22" width="1.5" height="67.7"/>
						<rect x="191.1" y="345.4" class="st23" width="1.5" height="67.7"/>
						<rect x="192.7" y="345.4" class="st24" width="1.5" height="67.7"/>
						<rect x="194.2" y="345.4" class="st25" width="1.5" height="67.7"/>
						<rect x="195.8" y="345.4" class="st26" width="1.5" height="67.7"/>
						<rect x="197.3" y="345.4" class="st27" width="1.5" height="67.7"/>
						<rect x="198.8" y="345.4" class="st28" width="1.5" height="67.7"/>
						<rect x="200.4" y="345.4" class="st29" width="1.5" height="67.7"/>
						<rect x="201.9" y="345.4" class="st30" width="1.5" height="67.7"/>
						<rect x="203.5" y="345.4" class="st31" width="1.5" height="67.7"/>
						<rect x="205" y="345.4" class="st32" width="1.5" height="67.7"/>
						<rect x="206.6" y="345.4" class="st33" width="1.5" height="67.7"/>
						<rect x="208.2" y="345.4" class="st34" width="1.5" height="67.7"/>
						<rect x="209.7" y="345.4" class="st35" width="1.5" height="67.7"/>
						<rect x="211.2" y="345.4" class="st36" width="1.5" height="67.7"/>
						<rect x="212.8" y="345.4" class="st37" width="1.5" height="67.7"/>
						<rect x="214.3" y="345.4" class="st38" width="1.5" height="67.7"/>
						<rect x="215.8" y="345.4" class="st39" width="1.5" height="67.7"/>
						<rect x="217.4" y="345.4" class="st40" width="1.5" height="67.7"/>
						<rect x="218.9" y="345.4" class="st41" width="1.5" height="67.7"/>
						<rect x="220.5" y="345.4" class="st42" width="1.5" height="67.7"/>
						<rect x="222" y="345.4" class="st43" width="1.5" height="67.7"/>
						<rect x="223.6" y="345.4" class="st44" width="1.5" height="67.7"/>
						<rect x="225.2" y="345.4" class="st45" width="1.5" height="67.7"/>
						<rect x="226.7" y="345.4" class="st46" width="1.5" height="67.7"/>
						<rect x="228.3" y="345.4" class="st47" width="1.5" height="67.7"/>
						<rect x="229.8" y="345.4" class="st48" width="1.5" height="67.7"/>
						<rect x="231.3" y="345.4" class="st49" width="1.5" height="67.7"/>
						<rect x="232.9" y="345.4" class="st50" width="1.5" height="67.7"/>
						<rect x="234.4" y="345.4" class="st51" width="1.5" height="67.7"/>
						<rect x="235.9" y="345.4" class="st52" width="1.5" height="67.7"/>
						<rect x="237.5" y="345.4" class="st52" width="0" height="67.7"/>
					</g>
				</g>
			</g>
			<g>
				<rect x="154.9" y="352.8" class="st0" width="82" height="59.7"/>
				<path class="st1" d="M236.9,413.1h-82c-0.3,0-0.6-0.2-0.6-0.6v-59.7c0-0.3,0.3-0.6,0.6-0.6h82c0.3,0,0.6,0.3,0.6,0.6v59.7
					C237.5,412.8,237.2,413.1,236.9,413.1z M155.5,411.9h80.9v-58.6h-80.9V411.9z"/>
			</g>
			<path class="st1" d="M197.5,383.2c-10.6,0-19.3-8.7-19.3-19.3v-2.2c0-0.3,0.3-0.6,0.6-0.6s0.6,0.3,0.6,0.6v2.2
				c0,10.1,8.2,18.2,18.2,18.2s18.2-8.2,18.2-18.2v-2.2c0-0.3,0.3-0.6,0.6-0.6s0.6,0.3,0.6,0.6v2.2
				C216.8,374.5,208.1,383.2,197.5,383.2L197.5,383.2L197.5,383.2z"/>
			<path class="st1" d="M206.1,346.1c-0.3,0-0.6-0.3-0.6-0.6v-2.2c0-10.1-8.2-18.2-18.2-18.2s-18.2,8.2-18.2,18.2v2.2
				c0,0.3-0.3,0.6-0.6,0.6s-0.6-0.3-0.6-0.6v-2.2c0-10.6,8.7-19.3,19.3-19.3c10.6,0,19.3,8.7,19.3,19.3v2.2
				C206.6,345.8,206.3,346.1,206.1,346.1L206.1,346.1L206.1,346.1z"/>
		</g>
	</g>
</g>
<g id="Layer_1-2">
	<path class="st53" d="M1004.8,371.7c-7-0.9-12.6-3.3-16.4-7.1c-0.2-0.3-0.3-0.3-0.5-0.3c-0.3,0-0.9,0-1.6,0c-1.6,0-3.3,0-5-0.2
		c-10.8-1.4-20.1-7.9-23.3-16.2c-1.9-5-1.7-13.3,0.5-16c0.8-0.9,1.5-1.1,2.1-1c0.3,0,0.7,0.2,1,0.4c1.4,0.9,1.4,2.2,0.9,3.8
		c-1.2,5.1-0.5,9.8,2.3,13.9c4.4,6.4,12.4,9.5,16.6,10.1l0,0c2.2,0.3,2.9-0.2,3-0.2l0,0c0,0,0,0,0-0.2c-1.8-5.1-0.5-11.1,3.1-15.5
		c3.1-3.8,7.3-5.8,11.1-5.3c1.5,0.2,3.1,0.8,4.5,1.8c2.8,2,4.1,5.5,3.6,9.3c-0.8,5.7-5.2,10.8-12,13.8c3.9,2.2,8,3.6,12.1,4.2
		c8.2,1,15.1-1.5,19.7-3.2c2.5-0.9,4.3-1.5,5.4-1.4c0.9,0.1,1.3,0.6,1.5,1c0.5,0.8,0.4,1.7-0.2,2.6c-3.2,4.6-18.7,7.2-28.7,6l0,0
		L1004.8,371.7z M997.9,342.9c-2.2-0.3-4.6,1.3-6.6,4.2c-1.9,2.8-3.2,7.3-1.2,10.8c0,0.1,0.2,0.2,0.2,0.3c0.2,0,0.4-0.1,0.6-0.2
		c5.5-1.2,9.5-5.9,10.3-9.7c0.3-1.5,0.2-3.4-1.5-4.7C999.1,343.3,998.5,343,997.9,342.9L997.9,342.9L997.9,342.9z"/>
	<g>
		<g>
			<g>
				<path d="M529.1,170.2l-5,4.8c-3.4-3.6-7.3-5.4-11.5-5.4c-4.3,0-6.7,1.2-9.1,3.7c-2.5,2.5-3.7,5.5-3.7,9.1c0,3.6,0.5,4.7,1.6,6.7
					c1.1,1.9,2.6,3.5,4.6,4.6s4.2,1.7,6.7,1.7c2.5,0,3.9-0.4,5.7-1.2c1.7-0.8,3.6-2.2,5.6-4.3l4.9,5.1c-2.8,2.7-5.4,4.6-7.9,5.6
					c-2.5,1.1-5.3,1.5-8.5,1.5c-5.9,0-10.7-1.9-14.4-5.6c-3.7-3.7-5.6-8.5-5.6-14.3s0.9-7.1,2.6-10c1.7-2.9,4.1-5.3,7.3-7
					c3.2-1.8,6.6-2.6,10.2-2.6c3.6,0,6.1,0.6,9,1.9c2.9,1.3,5.3,3.2,7.4,5.6H529.1z"/>
				<path d="M553.2,162.6c5.3,0,9.9,1.9,13.8,5.8c3.9,3.9,5.7,8.6,5.7,14.1c0,5.5-1.9,10.1-5.6,13.9c-3.8,3.8-8.4,5.7-13.8,5.7
					s-10.4-1.9-14.1-5.9c-3.7-3.9-5.6-8.6-5.6-13.9c0-5.3,0.9-6.9,2.6-9.9c1.8-3,4.1-5.4,7.2-7.2
					C546.4,163.5,549.7,162.6,553.2,162.6L553.2,162.6z M553.1,169.7c-3.5,0-6.4,1.2-8.8,3.6c-2.4,2.4-3.6,5.5-3.6,9.2
					c0,3.7,1.5,7.4,4.5,9.9c2.3,1.9,5,2.9,8,2.9s6.3-1.2,8.7-3.7c2.4-2.5,3.6-5.5,3.6-9.1c0-3.6-1.2-6.7-3.6-9.1
					c-2.4-2.5-5.3-3.7-8.8-3.7L553.1,169.7z"/>
				<path d="M579.5,163.5h6.9l16.1,24.8v-24.8h7.2v37.7h-6.9l-16.1-24.7v24.7h-7.2C579.5,201.2,579.5,163.6,579.5,163.5z"/>
				<path d="M615.4,163.5h7.3l9.5,26.8l9.6-26.8h7.3l-13.5,37.7h-6.9L615.4,163.5L615.4,163.5z"/>
				<path d="M655,163.5h20.6v7h-13.5v6.8h13.5v6.9h-13.5v9.9h13.5v7H655C655,201.2,655,163.6,655,163.5z"/>
				<path d="M682.3,163.5h6.9l16.1,24.8v-24.8h7.2v37.7h-6.9l-16.1-24.7v24.7h-7.2C682.3,201.2,682.3,163.6,682.3,163.5z"/>
				<path d="M720.5,163.5h7.1v37.7h-7.1C720.5,201.2,720.5,163.6,720.5,163.5z"/>
				<path d="M735.8,163.5h20.6v7h-13.5v6.8h13.5v6.9h-13.5v9.9h13.5v7h-20.6C735.8,201.2,735.8,163.6,735.8,163.5z"/>
				<path d="M763,163.5h6.9l16.1,24.8v-24.8h7.2v37.7h-6.9l-16.1-24.7v24.7H763C763,201.2,763,163.6,763,163.5z"/>
				<path d="M836.4,170.2l-5,4.8c-3.4-3.6-7.3-5.4-11.5-5.4s-6.7,1.2-9.1,3.7c-2.5,2.5-3.7,5.5-3.7,9.1c0,3.6,0.5,4.7,1.6,6.7
					c1.1,1.9,2.6,3.5,4.6,4.6s4.2,1.7,6.7,1.7s3.9-0.4,5.7-1.2c1.8-0.8,3.6-2.2,5.6-4.3l4.9,5.1c-2.8,2.7-5.4,4.6-7.9,5.6
					c-2.5,1.1-5.3,1.5-8.5,1.5c-5.9,0-10.7-1.9-14.4-5.6s-5.6-8.5-5.6-14.3s0.9-7.1,2.6-10c1.7-2.9,4.1-5.3,7.3-7
					c3.2-1.8,6.6-2.6,10.2-2.6c3.6,0,6.1,0.6,9,1.9c2.9,1.3,5.3,3.2,7.4,5.6H836.4z"/>
				<path d="M842.7,163.5h20.6v7h-13.5v6.8h13.5v6.9h-13.5v9.9h13.5v7h-20.6C842.7,201.2,842.7,163.6,842.7,163.5z"/>
			</g>
			<g>
				<path d="M419,231.9l-5,4.8c-3.4-3.6-7.3-5.4-11.5-5.4s-6.7,1.2-9.1,3.7s-3.7,5.5-3.7,9.1s0.5,4.7,1.6,6.7
					c1.1,1.9,2.6,3.5,4.6,4.6s4.2,1.7,6.7,1.7s3.9-0.4,5.7-1.2c1.7-0.8,3.6-2.2,5.6-4.3l4.9,5.1c-2.8,2.7-5.4,4.6-7.9,5.6
					c-2.5,1.1-5.3,1.5-8.5,1.5c-5.9,0-10.7-1.9-14.4-5.6c-3.7-3.7-5.6-8.5-5.6-14.3s0.9-7.1,2.6-10c1.7-2.9,4.1-5.3,7.3-7
					c3.2-1.8,6.6-2.6,10.2-2.6s6.1,0.6,9,1.9s5.3,3.2,7.4,5.6L419,231.9z"/>
				<path d="M425,225.4h7.2v24.4c0,2.1,0.2,3.6,0.5,4.5c0.4,0.9,1,1.5,1.9,2.1c0.9,0.5,1.9,0.8,3.1,0.8c1.2,0,2.3-0.3,3.2-0.9
					c0.9-0.5,1.5-1.3,1.9-2.2c0.4-0.9,0.5-2.6,0.5-5.1v-23.4h7.2v22.4c0,3.8-0.2,6.4-0.6,7.9c-0.5,1.5-1.2,2.9-2.5,4.3
					c-1.2,1.4-2.6,2.4-4.2,3c-1.5,0.6-3.4,1-5.5,1s-5.1-0.6-7.1-1.9c-2-1.2-3.5-2.9-4.3-4.7c-0.9-1.9-1.3-5.1-1.3-9.6V225.4
					L425,225.4z"/>
				<path d="M458.8,225.4h7.2v30.9h10.4v6.8h-17.6V225.4L458.8,225.4z"/>
				<path d="M478.2,225.4H499v7h-6.9V263h-7.3v-30.6h-6.7V225.4L478.2,225.4z"/>
				<path d="M503.7,225.4h7.2v24.4c0,2.1,0.2,3.6,0.5,4.5c0.4,0.9,1,1.5,1.9,2.1c0.9,0.5,1.9,0.8,3.1,0.8c1.2,0,2.3-0.3,3.2-0.9
					c0.9-0.5,1.5-1.3,1.9-2.2c0.4-0.9,0.5-2.6,0.5-5.1v-23.4h7.2v22.4c0,3.8-0.2,6.4-0.6,7.9c-0.5,1.5-1.2,2.9-2.5,4.3
					c-1.2,1.4-2.6,2.4-4.2,3c-1.5,0.6-3.4,1-5.5,1s-5.1-0.6-7.1-1.9c-2-1.2-3.5-2.9-4.3-4.7c-0.9-1.9-1.3-5.1-1.3-9.6L503.7,225.4
					L503.7,225.4z"/>
				<path d="M538,225.4h7.6c4.2,0,7.1,0.4,8.9,1.1c1.8,0.8,3.2,2,4.3,3.7s1.6,3.8,1.6,6.1s-0.6,4.6-1.8,6.2
					c-1.2,1.6-2.9,2.9-5.3,3.8l8.9,16.7h-7.8l-8.4-15.9h-0.6V263h-7.2L538,225.4L538,225.4z M545.1,240.1h2.2c2.2,0,3.9-0.3,4.7-0.9
					c0.9-0.6,1.3-1.6,1.3-3c0-1.4-0.2-1.5-0.6-2.2c-0.5-0.6-1-1.1-1.7-1.3c-0.7-0.2-2-0.4-3.9-0.4h-1.9L545.1,240.1L545.1,240.1z"/>
				<path d="M568,225.4h20.6v7h-13.5v6.8h13.5v6.9h-13.5v9.9h13.5v7H568V225.4L568,225.4z"/>
				<path d="M597.8,255.9l5,2.5l-6.3,10.8l-3.5-1.7L597.8,255.9L597.8,255.9z"/>
				<path d="M648.2,248.2l4.3,4.9l-1.9,1.8l-1.9,1.7l6,6.4h-8.7l-2.5-2.6c-3.9,2.3-7.7,3.5-11.1,3.5c-3.4,0-5.2-0.9-7-2.6
					c-1.8-1.7-2.7-3.9-2.7-6.5s0.5-3.9,1.5-5.6s2.7-3.6,5.2-5.5c-2.4-3.2-3.6-6.1-3.6-8.7c0-2.6,0.8-3.7,2.4-5.5
					c1.6-1.8,3.9-2.7,6.8-2.7c2.9,0,5.2,0.9,6.8,2.7c1.6,1.8,2.4,3.6,2.4,5.4s-0.4,2.8-1.1,4.1s-2.4,3.2-5,5.8
					c3.1,3.6,5,5.9,5.9,6.7C644.5,251.2,645.9,250,648.2,248.2L648.2,248.2z M638.8,255.5c-1.3-1.3-3.2-3.4-5.6-6.4
					c-2.6,2.1-3.8,3.9-3.8,5.5s0.3,1.4,1,2c0.7,0.6,1.5,0.9,2.6,0.9C634.6,257.5,636.5,256.8,638.8,255.5L638.8,255.5z M634.6,239.9
					c1.9-1.6,2.9-3.1,2.9-4.3c0-1.2-0.2-1.2-0.6-1.6c-0.5-0.4-1-0.6-1.7-0.6s-1.2,0.2-1.6,0.7c-0.5,0.5-0.7,1-0.7,1.6
					C632.8,236.9,633.4,238.3,634.6,239.9L634.6,239.9z"/>
				<path d="M709.5,231.9l-5,4.8c-3.4-3.6-7.3-5.4-11.5-5.4c-4.3,0-6.7,1.2-9.1,3.7c-2.5,2.5-3.7,5.5-3.7,9.1s0.5,4.7,1.6,6.7
					c1.1,1.9,2.6,3.5,4.6,4.6c2,1.1,4.2,1.7,6.7,1.7c2.5,0,3.9-0.4,5.7-1.2c1.7-0.8,3.6-2.2,5.6-4.3l4.9,5.1
					c-2.8,2.7-5.4,4.6-7.9,5.6c-2.5,1.1-5.3,1.5-8.5,1.5c-5.9,0-10.7-1.9-14.4-5.6c-3.7-3.7-5.6-8.5-5.6-14.3s0.9-7.1,2.6-10
					c1.7-2.9,4.1-5.3,7.3-7s6.6-2.6,10.2-2.6c3.6,0,6.1,0.6,9,1.9c2.9,1.3,5.3,3.2,7.4,5.6L709.5,231.9z"/>
				<path d="M733.6,224.4c5.3,0,9.9,1.9,13.8,5.8c3.9,3.9,5.7,8.6,5.7,14.1c0,5.5-1.9,10.1-5.6,13.9c-3.8,3.8-8.4,5.7-13.8,5.7
					c-5.4,0-10.4-1.9-14.1-5.9c-3.7-3.9-5.6-8.6-5.6-13.9c0-5.3,0.9-6.9,2.6-9.9c1.8-3,4.1-5.4,7.2-7.2
					C726.8,225.3,730.1,224.4,733.6,224.4L733.6,224.4z M733.5,231.4c-3.5,0-6.4,1.2-8.8,3.6c-2.4,2.4-3.6,5.5-3.6,9.2
					c0,3.7,1.5,7.4,4.5,9.9c2.3,1.9,5,2.9,8,2.9s6.3-1.2,8.7-3.7s3.6-5.5,3.6-9.1s-1.2-6.7-3.6-9.1s-5.3-3.7-8.8-3.7L733.5,231.4z"
					/>
				<path d="M763.5,225.4h7l8.7,26.3l8.8-26.3h7l6.3,37.7h-7l-4-23.8l-8,23.8H776l-8-23.8l-4.1,23.8h-7L763.5,225.4L763.5,225.4z"/>
				<path d="M810.6,225.4h7l8.7,26.3l8.8-26.3h7l6.3,37.7h-7l-4-23.8l-8,23.8h-6.3l-8-23.8l-4.1,23.8h-7L810.6,225.4L810.6,225.4z"
					/>
				<path d="M854.3,225.4h20.6v7h-13.5v6.8h13.5v6.9h-13.5v9.9h13.5v7h-20.6V225.4L854.3,225.4z"/>
				<path d="M882,225.4h7.6c4.2,0,7.1,0.4,8.9,1.1c1.8,0.7,3.2,2,4.3,3.7c1.1,1.7,1.6,3.8,1.6,6.1s-0.6,4.6-1.8,6.2
					c-1.2,1.6-2.9,2.9-5.3,3.8l8.9,16.7h-7.8l-8.4-15.9h-0.6V263h-7.2L882,225.4L882,225.4z M889.2,240.1h2.2c2.2,0,3.9-0.3,4.7-0.9
					c0.9-0.6,1.3-1.6,1.3-3c0-1.4-0.2-1.5-0.6-2.2s-1-1.1-1.7-1.3c-0.7-0.2-2-0.4-3.9-0.4h-1.9L889.2,240.1L889.2,240.1z"/>
				<path d="M946.5,231.9l-5,4.8c-3.4-3.6-7.3-5.4-11.5-5.4c-4.3,0-6.7,1.2-9.1,3.7c-2.5,2.5-3.7,5.5-3.7,9.1s0.5,4.7,1.6,6.7
					c1.1,1.9,2.6,3.5,4.6,4.6s4.2,1.7,6.7,1.7c2.5,0,3.9-0.4,5.7-1.2s3.6-2.2,5.6-4.3l4.9,5.1c-2.8,2.7-5.4,4.6-7.9,5.6
					c-2.5,1.1-5.3,1.5-8.5,1.5c-5.9,0-10.7-1.9-14.4-5.6c-3.7-3.7-5.6-8.5-5.6-14.3s0.9-7.1,2.6-10c1.7-2.9,4.1-5.3,7.3-7
					c3.2-1.8,6.6-2.6,10.2-2.6c3.6,0,6.1,0.6,9,1.9s5.3,3.2,7.4,5.6L946.5,231.9z"/>
				<path d="M952.8,225.4h20.6v7H960v6.8h13.5v6.9H960v9.9h13.5v7h-20.6V225.4L952.8,225.4z"/>
			</g>
		</g>
		<g>
			<g>
				<path d="M577.5,127.3h0.4c0.5,0,0.7-0.1,0.9-0.5l5.7-15.5h2.7l5.7,15.5c0.2,0.5,0.4,0.5,0.9,0.5h0.4v2.2h-1.5
					c-1.3,0-1.7-0.3-2.1-1.5l-1.4-3.7h-6.7L581,128c-0.5,1.2-0.9,1.5-2.2,1.5h-1.4V127.3L577.5,127.3z M588.5,122.1l-2-5.6
					c-0.3-0.9-0.7-2.6-0.7-2.6l0,0c0,0-0.4,1.6-0.7,2.6l-2,5.6H588.5L588.5,122.1z"/>
				<path d="M602.3,127.3h1.1c0.4,0,0.5-0.2,0.5-0.5v-15.5h2.3l8.1,11.5c0.7,1,1.5,2.5,1.5,2.5l0,0c0,0-0.2-1.5-0.2-2.5v-9.9
					c0-1.2,0.5-1.6,1.7-1.6h2.6v2.2h-1.1c-0.4,0-0.5,0.2-0.5,0.5v15.5h-2.3L608,118c-0.7-1-1.5-2.5-1.5-2.5l0,0c0,0,0.2,1.5,0.2,2.5
					v9.9c0,1.2-0.5,1.6-1.6,1.6h-2.6L602.3,127.3L602.3,127.3z"/>
			</g>
			<g>
				<path d="M623.7,113.5H622v-2.2h10.8c1.2,0,1.6,0.5,1.6,1.6v2.3h-2.3V114c0-0.4-0.2-0.5-0.5-0.5h-5.2v5.7h6.4v2.2h-6.4v5.3
					c0,0.4,0.2,0.5,0.5,0.5h5.3c0.4,0,0.5-0.2,0.5-0.5v-1.2h2.4v2.3c0,1.2-0.5,1.6-1.6,1.6h-8.1c-1.2,0-1.6-0.5-1.6-1.6L623.7,113.5
					L623.7,113.5z"/>
			</g>
			<g>
				<path d="M637,114c-0.2-0.5-0.4-0.5-0.9-0.5h-0.4v-2.2h1.5c1.3,0,1.9,0.2,2.2,1.5l2.8,11.8c0.2,1,0.4,1.9,0.4,1.9l0,0
					c0,0,0.2-0.9,0.5-1.9l3.6-13.2h2.3l3.4,13.2c0.2,1,0.4,1.9,0.4,1.9l0,0c0,0,0.1-0.9,0.3-1.9l2.9-11.8c0.3-1.2,0.9-1.5,2.2-1.5
					h1.5v2.2h-0.4c-0.5,0-0.8,0.1-0.9,0.5l-4,15.5h-3l-3.1-11.5c-0.3-1.2-0.5-2.5-0.5-2.5l0,0c0,0-0.2,1.3-0.6,2.5l-3.3,11.5h-3
					l-4-15.5H637z"/>
			</g>
			<g>
				<path d="M676.8,110.9c2.5,0,6.9,1,6.9,3.9v1.8h-2.4v-1c0-1.5-2.6-2.3-4.4-2.3c-3.6,0-6.5,2.8-6.5,6.9s2.9,7.2,6.6,7.2
					c3.7,0,5.8-2.5,5.8-2.5l1.4,1.9c0,0-2.6,3-7.2,3s-9.3-4.2-9.3-9.6C667.7,114.8,671.6,110.9,676.8,110.9L676.8,110.9z"/>
				<path d="M687.3,114c0-0.4-0.2-0.5-0.5-0.5h-1.1v-2.2h2.6c1.2,0,1.6,0.5,1.6,1.6V123c0,2.7,1.7,4.3,4.3,4.3
					c2.6,0,4.3-1.6,4.3-4.4v-10.1c0-1.2,0.5-1.6,1.7-1.6h2.6v2.2h-1.1c-0.4,0-0.5,0.2-0.5,0.5v9.1c0,3.9-2.8,6.7-7,6.7s-7-2.7-7-6.7
					C687.3,123.1,687.3,114,687.3,114z"/>
			</g>
			<g>
				<path d="M706.4,114c0-0.4-0.2-0.5-0.5-0.5h-1.1v-2.2h2.6c1.2,0,1.6,0.5,1.6,1.6v13.8c0,0.4,0.2,0.5,0.5,0.5h5
					c0.4,0,0.5-0.2,0.5-0.5v-1.2h2.3v2.3c0,1.2-0.5,1.6-1.6,1.6H708c-1.2,0-1.6-0.5-1.6-1.6V114z"/>
			</g>
			<g>
				<path d="M722.1,113.5h-3.6c-0.4,0-0.5,0.2-0.5,0.5v1.2h-2.3v-2.4c0-1.2,0.4-1.5,1.5-1.5h12.5c1.2,0,1.5,0.4,1.5,1.5v2.4h-2.3
					V114c0-0.4-0.2-0.5-0.5-0.5h-3.6v16h-2.6L722.1,113.5L722.1,113.5z"/>
			</g>
			<g>
				<path d="M748.2,110.9c5.3,0,9.4,4,9.4,9.3s-4.1,9.6-9.4,9.6c-5.3,0-9.4-4.2-9.4-9.6C738.9,114.8,743,110.9,748.2,110.9z
					 M748.2,127.3c3.7,0,6.7-3.1,6.7-7.1s-3-6.9-6.7-6.9s-6.7,3-6.7,6.9S744.5,127.3,748.2,127.3z"/>
				<path d="M761.1,113.5h-1.7v-2.2h10.1c1.2,0,1.6,0.5,1.6,1.6v2.3h-2.3V114c0-0.4-0.2-0.5-0.5-0.5h-4.5v6h6.3v2.2h-6.3v7.8h-2.6
					L761.1,113.5L761.1,113.5z"/>
			</g>
		</g>
		<g>
			<defs>
				<path id="SVGID_00000059998601840561833860000002159203057366390202_" d="M621.6,316.3c22-3.5,42.9-6.3,65-8.9
					c21.9-2.5,43.9-4.6,65.8-6c21.8-1.5,43.7-2.6,65.7-3.2c22-0.6,44.1-0.7,66.1-0.3s44.1,1.2,66.1,2.6c2.6,0.2,5.3,0.3,8,0.5
					c1.8,0.1,3.6-1.7,3.5-3.5c-0.1-2-1.5-3.3-3.5-3.5c-22-1.5-44-2.4-66.1-2.9s-44.2-0.5-66.3,0c-22,0.5-44,1.5-66.1,2.9
					c-22,1.4-44.1,3.4-66.1,5.7c-22,2.4-44.1,5.3-66.1,8.7c-2.6,0.4-5.3,0.8-7.9,1.2c-1.8,0.3-2.9,2.6-2.4,4.3
					c0.6,1.9,2.3,2.7,4.3,2.4l0,0V316.3z"/>
			</defs>
			<clipPath id="SVGID_00000170977367471444554570000015222974632199895967_">
				<use xlink:href="#SVGID_00000059998601840561833860000002159203057366390202_"  style="overflow:visible;"/>
			</clipPath>
			<g style="clip-path:url(#SVGID_00000170977367471444554570000015222974632199895967_);">
				<polygon class="st3" points="698.9,290.6 666.8,316.6 616.8,316.6 616.8,290.6 				"/>
				<polygon class="st3" points="702.3,290.6 670.2,316.6 666.8,316.6 698.9,290.6 				"/>
				<polygon class="st57" points="705.7,290.6 673.6,316.6 670.2,316.6 702.3,290.6 				"/>
				<polygon class="st58" points="709.1,290.6 677,316.6 673.6,316.6 705.7,290.6 				"/>
				<polygon class="st59" points="712.6,290.6 680.4,316.6 677,316.6 709.1,290.6 				"/>
				<polygon class="st60" points="716,290.6 683.9,316.6 680.4,316.6 712.6,290.6 				"/>
				<polygon class="st61" points="719.4,290.6 687.3,316.6 683.9,316.6 716,290.6 				"/>
				<polygon class="st62" points="722.8,290.6 690.7,316.6 687.3,316.6 719.4,290.6 				"/>
				<polygon class="st63" points="726.2,290.6 694.1,316.6 690.7,316.6 722.8,290.6 				"/>
				<polygon class="st64" points="729.7,290.6 697.5,316.6 694.1,316.6 726.2,290.6 				"/>
				<polygon class="st65" points="733.1,290.6 700.9,316.6 697.5,316.6 729.7,290.6 				"/>
				<polygon class="st66" points="736.5,290.6 704.4,316.6 700.9,316.6 733.1,290.6 				"/>
				<polygon class="st67" points="739.9,290.6 707.8,316.6 704.4,316.6 736.5,290.6 				"/>
				<polygon class="st68" points="743.3,290.6 711.2,316.6 707.8,316.6 739.9,290.6 				"/>
				<polygon class="st69" points="746.7,290.6 714.6,316.6 711.2,316.6 743.3,290.6 				"/>
				<polygon class="st69" points="749.5,290.6 717.3,316.6 714.6,316.6 746.7,290.6 				"/>
				<polygon class="st70" points="752.2,290.6 720.1,316.6 717.3,316.6 749.5,290.6 				"/>
				<polygon class="st71" points="754.9,290.6 722.8,316.6 720.1,316.6 752.2,290.6 				"/>
				<polygon class="st72" points="757.7,290.6 725.6,316.6 722.8,316.6 754.9,290.6 				"/>
				<polygon class="st73" points="760.4,290.6 728.3,316.6 725.6,316.6 757.7,290.6 				"/>
				<polygon class="st74" points="763.1,290.6 731,316.6 728.3,316.6 760.4,290.6 				"/>
				<polygon class="st75" points="765.9,290.6 733.8,316.6 731,316.6 763.1,290.6 				"/>
				<polygon class="st76" points="768.6,290.6 736.5,316.6 733.8,316.6 765.9,290.6 				"/>
				<polygon class="st77" points="771.3,290.6 739.2,316.6 736.5,316.6 768.6,290.6 				"/>
				<polygon class="st78" points="774.1,290.6 742,316.6 739.2,316.6 771.3,290.6 				"/>
				<polygon class="st79" points="776.8,290.6 744.7,316.6 742,316.6 774.1,290.6 				"/>
				<polygon class="st80" points="779.5,290.6 747.4,316.6 744.7,316.6 776.8,290.6 				"/>
				<polygon class="st81" points="782.3,290.6 750.2,316.6 747.4,316.6 779.5,290.6 				"/>
				<polygon class="st82" points="785,290.6 752.9,316.6 750.2,316.6 782.3,290.6 				"/>
				<polygon class="st83" points="787.8,290.6 755.6,316.6 752.9,316.6 785,290.6 				"/>
				<polygon class="st84" points="790.5,290.6 758.4,316.6 755.6,316.6 787.8,290.6 				"/>
				<polygon class="st85" points="793.2,290.6 761.1,316.6 758.4,316.6 790.5,290.6 				"/>
				<polygon class="st86" points="796,290.6 763.8,316.6 761.1,316.6 793.2,290.6 				"/>
				<polygon class="st87" points="798.7,290.6 766.6,316.6 763.8,316.6 796,290.6 				"/>
				<polygon class="st88" points="801.4,290.6 769.3,316.6 766.6,316.6 798.7,290.6 				"/>
				<polygon class="st89" points="804.2,290.6 772,316.6 769.3,316.6 801.4,290.6 				"/>
				<polygon class="st90" points="806.9,290.6 774.8,316.6 772,316.6 804.2,290.6 				"/>
				<polygon class="st91" points="809.6,290.6 777.5,316.6 774.8,316.6 806.9,290.6 				"/>
				<polygon class="st92" points="812.4,290.6 780.2,316.6 777.5,316.6 809.6,290.6 				"/>
				<polygon class="st93" points="815.1,290.6 783,316.6 780.2,316.6 812.4,290.6 				"/>
				<polygon class="st94" points="817.8,290.6 785.7,316.6 783,316.6 815.1,290.6 				"/>
				<polygon class="st95" points="820.6,290.6 788.4,316.6 785.7,316.6 817.8,290.6 				"/>
				<polygon class="st96" points="823.3,290.6 791.2,316.6 788.4,316.6 820.6,290.6 				"/>
				<polygon class="st97" points="826,290.6 793.9,316.6 791.2,316.6 823.3,290.6 				"/>
				<polygon class="st98" points="828.8,290.6 796.6,316.6 793.9,316.6 826,290.6 				"/>
				<polygon class="st99" points="831.5,290.6 799.4,316.6 796.6,316.6 828.8,290.6 				"/>
				<polygon class="st100" points="834.2,290.6 802.1,316.6 799.4,316.6 831.5,290.6 				"/>
				<polygon class="st101" points="837,290.6 804.8,316.6 802.1,316.6 834.2,290.6 				"/>
				<polygon class="st102" points="839.7,290.6 807.6,316.6 804.8,316.6 837,290.6 				"/>
				<polygon class="st103" points="842.4,290.6 810.3,316.6 807.6,316.6 839.7,290.6 				"/>
				<polygon class="st103" points="844.7,290.6 812.6,316.6 810.3,316.6 842.4,290.6 				"/>
				<polygon class="st104" points="846.9,290.6 814.7,316.6 812.6,316.6 844.7,290.6 				"/>
				<polygon class="st105" points="849.1,290.6 817,316.6 814.7,316.6 846.9,290.6 				"/>
				<polygon class="st106" points="851.3,290.6 819.2,316.6 817,316.6 849.1,290.6 				"/>
				<polygon class="st107" points="853.6,290.6 821.5,316.6 819.2,316.6 851.3,290.6 				"/>
				<polygon class="st108" points="855.8,290.6 823.6,316.6 821.5,316.6 853.6,290.6 				"/>
				<polygon class="st109" points="858,290.6 825.9,316.6 823.6,316.6 855.8,290.6 				"/>
				<polygon class="st110" points="860.2,290.6 828.1,316.6 825.9,316.6 858,290.6 				"/>
				<polygon class="st111" points="862.5,290.6 830.3,316.6 828.1,316.6 860.2,290.6 				"/>
				<polygon class="st112" points="864.6,290.6 832.5,316.6 830.3,316.6 862.5,290.6 				"/>
				<polygon class="st113" points="866.9,290.6 834.8,316.6 832.5,316.6 864.6,290.6 				"/>
				<polygon class="st114" points="869.1,290.6 837,316.6 834.8,316.6 866.9,290.6 				"/>
				<polygon class="st115" points="871.3,290.6 839.2,316.6 837,316.6 869.1,290.6 				"/>
				<polygon class="st116" points="873.5,290.6 841.4,316.6 839.2,316.6 871.3,290.6 				"/>
				<polygon class="st117" points="875.8,290.6 843.7,316.6 841.4,316.6 873.5,290.6 				"/>
				<polygon class="st118" points="878,290.6 845.9,316.6 843.7,316.6 875.8,290.6 				"/>
				<polygon class="st119" points="880.2,290.6 848.1,316.6 845.9,316.6 878,290.6 				"/>
				<polygon class="st120" points="882.4,290.6 850.3,316.6 848.1,316.6 880.2,290.6 				"/>
				<polygon class="st121" points="884.7,290.6 852.6,316.6 850.3,316.6 882.4,290.6 				"/>
				<polygon class="st122" points="886.9,290.6 854.7,316.6 852.6,316.6 884.7,290.6 				"/>
				<polygon class="st123" points="889.1,290.6 857,316.6 854.7,316.6 886.9,290.6 				"/>
				<polygon class="st124" points="891.3,290.6 859.2,316.6 857,316.6 889.1,290.6 				"/>
				<polygon class="st125" points="893.6,290.6 861.5,316.6 859.2,316.6 891.3,290.6 				"/>
				<polygon class="st126" points="895.7,290.6 863.6,316.6 861.5,316.6 893.6,290.6 				"/>
				<polygon class="st127" points="898,290.6 865.9,316.6 863.6,316.6 895.7,290.6 				"/>
				<polygon class="st128" points="900.2,290.6 868.1,316.6 865.9,316.6 898,290.6 				"/>
				<polygon class="st129" points="902.5,290.6 870.3,316.6 868.1,316.6 900.2,290.6 				"/>
				<polygon class="st130" points="904.6,290.6 872.5,316.6 870.3,316.6 902.5,290.6 				"/>
				<polygon class="st131" points="906.9,290.6 874.8,316.6 872.5,316.6 904.6,290.6 				"/>
				<polygon class="st132" points="909.1,290.6 877,316.6 874.8,316.6 906.9,290.6 				"/>
				<polygon class="st133" points="911.3,290.6 879.2,316.6 877,316.6 909.1,290.6 				"/>
				<polygon class="st134" points="913.5,290.6 881.4,316.6 879.2,316.6 911.3,290.6 				"/>
				<polygon class="st135" points="915.8,290.6 883.7,316.6 881.4,316.6 913.5,290.6 				"/>
				<polygon class="st136" points="918,290.6 885.8,316.6 883.7,316.6 915.8,290.6 				"/>
				<polygon class="st137" points="920.2,290.6 888.1,316.6 885.8,316.6 918,290.6 				"/>
				<polygon class="st138" points="922.4,290.6 890.3,316.6 888.1,316.6 920.2,290.6 				"/>
				<polygon class="st139" points="924.7,290.6 892.6,316.6 890.3,316.6 922.4,290.6 				"/>
				<polygon class="st140" points="926.9,290.6 894.7,316.6 892.6,316.6 924.7,290.6 				"/>
				<polygon class="st141" points="929.1,290.6 897,316.6 894.7,316.6 926.9,290.6 				"/>
				<polygon class="st142" points="931.3,290.6 899.2,316.6 897,316.6 929.1,290.6 				"/>
				<polygon class="st143" points="933.6,290.6 901.5,316.6 899.2,316.6 931.3,290.6 				"/>
				<polygon class="st144" points="935.7,290.6 903.6,316.6 901.5,316.6 933.6,290.6 				"/>
				<polygon class="st145" points="938,290.6 905.9,316.6 903.6,316.6 935.7,290.6 				"/>
				<polygon class="st146" points="940.2,290.6 908.1,316.6 905.9,316.6 938,290.6 				"/>
				<polygon class="st147" points="942.5,290.6 910.3,316.6 908.1,316.6 940.2,290.6 				"/>
				<polygon class="st148" points="944.6,290.6 912.5,316.6 910.3,316.6 942.5,290.6 				"/>
				<polygon class="st149" points="946.9,290.6 914.8,316.6 912.5,316.6 944.6,290.6 				"/>
				<polygon class="st150" points="949.1,290.6 917,316.6 914.8,316.6 946.9,290.6 				"/>
				<polygon class="st151" points="951.3,290.6 919.2,316.6 917,316.6 949.1,290.6 				"/>
				<polygon class="st152" points="953.5,290.6 921.4,316.6 919.2,316.6 951.3,290.6 				"/>
				<polygon class="st153" points="955.8,290.6 923.7,316.6 921.4,316.6 953.5,290.6 				"/>
				<polygon class="st154" points="958,290.6 925.8,316.6 923.7,316.6 955.8,290.6 				"/>
				<polygon class="st155" points="959.5,290.6 959.7,291 928.1,316.6 925.8,316.6 958,290.6 				"/>
				<polygon class="st156" points="959.7,291 960.7,292.1 930.3,316.6 928.1,316.6 				"/>
				<polygon class="st157" points="960.7,292.1 961.5,293.1 932.6,316.6 930.3,316.6 				"/>
				<polygon class="st53" points="961.5,293.1 961.6,293.2 961.6,294.8 934.7,316.6 932.6,316.6 				"/>
				<polygon class="st53" points="934.7,316.6 961.6,294.8 961.6,316.6 				"/>
			</g>
		</g>
	</g>
	<g>
		<polygon class="st158" points="512.8,304.3 511.7,289 505.9,302.9 499.4,294.9 501.3,304.8 490.1,298.5 497.1,308.4 482.3,311.3 
			497.7,314.3 488,324.5 501.4,319 498.2,331.9 506,321.8 514.4,333.4 513,320.1 525.1,325.2 516.2,315.8 527.5,314.1 517,309.6 
			525.3,301.5 		"/>
		<polygon class="st159" points="510.1,307.4 510.2,298.7 506.2,306.5 502.5,302.2 502.9,307.5 496.6,304.4 500.7,309.7 
			493.2,311.4 501,312.7 495.9,319 503.5,315.5 501.9,323.5 506.5,317.6 511.4,325.5 509.9,316.2 516.2,318.9 511.7,313.7 
			517.4,312.8 512.1,310.5 516.8,306.3 		"/>
		<polygon class="st0" points="508,309.6 508.1,306 506.4,309.3 504.8,307.4 505,309.7 502.3,308.4 504.1,310.6 500.9,311.3 
			504.1,311.9 502,314.6 505.2,313.1 504.5,316.4 506.5,313.9 508.5,317.3 507.9,313.4 510.6,314.5 508.7,312.3 511.1,311.9 
			508.9,310.9 510.9,309.1 		"/>
	</g>
	<path d="M603.6,273.7H379.8c-6.1,0-11.1-5-11.1-11.1V227c0-6.1,5-11.1,11.1-11.1h223.9c6.1,0,11.1,5,11.1,11.1v35.7
		C614.8,268.8,609.8,273.7,603.6,273.7L603.6,273.7z M379.8,216.6c-5.7,0-10.3,4.6-10.3,10.3v35.7c0,5.7,4.6,10.3,10.3,10.3h223.9
		c5.7,0,10.3-4.6,10.3-10.3v-35.7c0-5.7-4.6-10.3-10.3-10.3H379.8L379.8,216.6z"/>
	<g>
		<path class="st53" d="M405.8,178.6c1.5,0.2,3.9-3.2-0.9-3.7c-13.9-1.8-29.7-11.4-30.6-3.8C373.4,179.4,383.5,176,405.8,178.6
			L405.8,178.6L405.8,178.6z"/>
		<path class="st53" d="M415.7,171.4c0.5-0.7,0.2-2.2-0.5-2.3c-0.2,0-0.3-0.3-0.5-0.7c-0.5-2-3.7-2.7-16.7-16.4
			c-28.2-29.8-29.6-31.2-30.6-31.5c-4.1-1.3-7.6,5.8-4.4,8.9C363.1,129.5,412.6,175.5,415.7,171.4L415.7,171.4L415.7,171.4z"/>
		<path class="st53" d="M411.5,136.9c-2.5-6.7-2.9-7.3-5.6-6.3c-3.2,1.2-4.8,3.7-3.8,6.3c0.9,2.5,13.3,23.1,15.9,26.5
			c1.3,1.7,3.1,1.7,3.5-0.1C421.9,161.2,417.7,154.3,411.5,136.9L411.5,136.9z"/>
	</g>
	<g>
		<g>
			<g>
				
					<ellipse transform="matrix(0.9668 -0.2554 0.2554 0.9668 -3.9417 243.2923)" class="st0" cx="934.7" cy="136.8" rx="35.8" ry="10.8"/>
				<path d="M901.8,148.6h-0.2c-0.9-0.7-1.5-1.5-1.7-2.3c-0.8-2.9,2.2-6.6,8.3-10.4c6-3.7,14.5-7.1,23.8-9.6
					c9.3-2.5,18.3-3.6,25.4-3.4c7.2,0.2,11.5,2,12.3,5c0.2,0.8,0.2,1.5-0.2,2.4c0,0.1-0.2,0.2-0.3,0.2c-0.2,0-0.2-0.2-0.2-0.3
					c0.2-0.8,0.3-1.5,0.2-2.2c-0.7-2.6-5-4.3-11.9-4.6c-7-0.2-16,0.9-25.2,3.4c-9.2,2.4-17.6,5.8-23.6,9.5c-5.9,3.6-8.8,7.2-8.1,9.8
					C900.5,146.9,901.9,148.6,901.8,148.6C901.8,148.6,901.8,148.6,901.8,148.6z"/>
				<g>
					<path class="st0" d="M955.2,129.5l-10.7-19c-1.2-2.1-3.7-3.2-6-2.6l-21.4,5.6c-2.3,0.6-4,2.8-4,5.2v21.7l0.2,0.6
						c0.9,3.6,11.2,4.1,22.9,1c11.7-3.1,20.3-8.5,19.4-12.1C955.6,129.8,955.4,129.6,955.2,129.5L955.2,129.5L955.2,129.5z"/>
					<path d="M936.1,142.5c-12,3.2-22.1,2.6-23.1-1.2l-0.2-0.6l0,0v-21.8c0-2.6,1.7-4.7,4.2-5.4l21.4-5.6c2.5-0.6,5,0.5,6.3,2.6
						l10.7,19c0.2,0.2,0.2,0.5,0.3,0.7C956.7,133.9,948.1,139.4,936.1,142.5L936.1,142.5L936.1,142.5z M913.3,140.7l0.2,0.6
						c0.5,1.6,3.1,2.7,7.2,2.9c4.3,0.2,9.7-0.5,15.4-2c5.6-1.5,10.8-3.6,14.4-5.8c3.5-2.2,5.3-4.4,4.9-6c0-0.2-0.2-0.4-0.2-0.5l0,0
						l-10.7-19c-1.2-2-3.6-3-5.8-2.5l-21.4,5.6c-2.2,0.6-3.9,2.6-3.9,5V140.7C913.3,140.7,913.3,140.7,913.3,140.7z"/>
				</g>
				<path d="M929.7,117.9c-0.8,0.2-1.7,0.3-2.6,0.3c-1.4-0.1-2.7-0.5-4-1c-0.5-0.2-0.9-0.3-1.4-0.5c-2.2-0.7-3.9-0.7-5.2,0
					c-0.1,0-0.2,0-0.3-0.1c-0.1-0.1,0-0.2,0.1-0.3c1.4-0.7,3.2-0.7,5.6,0c0.5,0.2,0.9,0.3,1.4,0.5c1.2,0.5,2.6,0.9,3.9,1
					c1.9,0.1,4.1-0.6,6.1-2.1c1.8-1.3,3.2-3.1,4.7-4.7c0-0.1,0.2-0.1,0.3,0s0.1,0.2,0,0.3c-1.5,1.7-2.9,3.5-4.8,4.8
					c-0.9,0.7-2.3,1.5-3.9,1.9l0,0L929.7,117.9z"/>
			</g>
			<path d="M914.6,151.4c-4.5,0-9.3-0.6-13.2-2.6l0.2-0.3c9.5,5,25.5,1.2,25.6,1.2c0.3,0,28.9-4.2,41.8-19.3l0.3,0.2
				c-12.9,15.2-41.7,19.3-42,19.4C927.2,150,921.4,151.4,914.6,151.4z"/>
		</g>
		<path class="st8" d="M930.5,121l0.3,0.2c3,2.5,7,3.6,10.9,2.9h0.4l-0.2,0.2c-2.5,3-3.6,7-2.9,10.9v0.4l-0.2-0.2
			c-3-2.5-7-3.6-10.9-2.9h-0.4l0.2-0.2c2.5-3,3.6-7,2.9-10.9L930.5,121L930.5,121z"/>
	</g>
	<g>
		<g>
			<g>
				<g>
					<path d="M414.6,352.7c-0.1,0-0.2-0.2-0.2-0.3l5.7-14.7c1.3-3.3,4.6-5.4,8.1-5.3c0.2,0,0.2,0.1,0.2,0.2c0,0.2-0.1,0.2-0.2,0.2
						c-3.3-0.2-6.4,1.9-7.7,5l-5.7,14.7C414.9,352.6,414.7,352.7,414.6,352.7L414.6,352.7L414.6,352.7z"/>
					<path d="M429.6,358.6c-0.1,0-0.2-0.2-0.2-0.3l5.7-14.7c1.2-3.7-0.2-7.7-3.3-9.6c-2.5-1.5-5.6-1.4-8.3,0.2c-0.1,0-0.2,0-0.3,0
						s0-0.2,0-0.3c2.8-1.6,6.1-1.7,8.7-0.2c3.3,1.9,4.8,6.2,3.5,10.1l-5.7,14.7C429.7,358.6,429.6,358.7,429.6,358.6L429.6,358.6
						L429.6,358.6z"/>
				</g>
				<g>
					<polygon class="st0" points="393.7,392.7 419.3,402.7 426.6,405.6 433.2,408.2 447.2,355.4 416.8,343.5 					"/>
					<path d="M433.1,408.3l-13.9-5.5c-0.1,0-0.2-0.2-0.2-0.3c0-0.2,0.2-0.2,0.2-0.1l13.8,5.4l13.8-52.4l-2.7-1.1
						c-0.1,0-0.2-0.2-0.2-0.3c0-0.2,0.2-0.2,0.2-0.1l2.9,1.2c0.1,0,0.2,0.2,0.2,0.2l-14,52.8C433.3,408.2,433.3,408.2,433.1,408.3
						C433.1,408.4,433,408.3,433.1,408.3L433.1,408.3z"/>
					<g>
						<polygon class="st0" points="377.6,386.4 419.3,402.7 444.3,354.2 405.3,339 						"/>
						<path d="M419.2,402.9l-41.7-16.3c0,0-0.1,0-0.2-0.2c-0.1-0.2,0-0.2,0-0.2l27.8-47.3c0-0.1,0.2-0.2,0.2-0.1l39,15.2
							c0,0,0.1,0,0.2,0.2s0,0.1,0,0.2l-25,48.4C419.5,402.9,419.3,403,419.2,402.9L419.2,402.9L419.2,402.9z M377.9,386.3l41.3,16.2
							l24.8-48l-38.6-15.1L377.9,386.3L377.9,386.3L377.9,386.3z"/>
					</g>
				</g>
				<path class="st160" d="M414.6,348.3c-0.3,0.8-1.2,1.2-2,0.9c-0.9-0.3-1.2-1.2-0.9-2c0.3-0.8,1.2-1.2,2-0.9
					C414.5,346.6,414.9,347.4,414.6,348.3z"/>
				<path class="st160" d="M429.6,354.2c-0.3,0.8-1.2,1.2-2,0.9c-0.8-0.3-1.2-1.2-0.9-2c0.3-0.9,1.2-1.2,2-0.9
					C429.6,352.5,429.9,353.3,429.6,354.2z"/>
				<path d="M428.1,353.8c-0.1,0-0.2-0.2-0.2-0.3l3.9-10c1.5-4-0.5-8.6-4.5-10.1c-4-1.5-8.6,0.4-10.2,4.4l-3.9,10
					c0,0.1-0.2,0.2-0.2,0.1c-0.1-0.1-0.2-0.2-0.2-0.3l3.9-10c1.7-4.3,6.5-6.3,10.8-4.6c4.3,1.6,6.3,6.5,4.7,10.7l-3.9,10
					c0,0.1-0.2,0.2-0.2,0.1l0,0V353.8z"/>
			</g>
			<g>
				<g>
					<polygon class="st0" points="446.5,343.6 440.3,344.1 436.7,353.5 440.9,358 459.8,365.5 465.5,351 					"/>
					<path d="M459.8,365.6l-19-7.4l0,0l-4.2-4.6c0,0,0-0.1,0-0.2l3.7-9.4c0,0,0-0.1,0.2-0.1l6.2-0.5l0,0l19,7.4
						c0.1,0,0.1,0.1,0.1,0.2l-5.6,14.5c0,0.1-0.2,0.1-0.2,0.1l0,0H459.8z M440.9,358l18.8,7.3l5.6-14.2l-18.8-7.3l-6,0.5l-3.6,9.2
						L440.9,358L440.9,358L440.9,358z"/>
				</g>
				<g>
					<path class="st0" d="M448,352.5c-0.3,0.9-1.4,1.3-2.2,1c-0.9-0.3-1.3-1.4-1-2.2c0.3-0.9,1.4-1.3,2.2-1
						C447.9,350.6,448.4,351.7,448,352.5z"/>
					<path d="M445.7,353.7c-1-0.4-1.5-1.5-1.1-2.5c0.4-0.9,1.5-1.5,2.5-1.1c0.9,0.4,1.5,1.5,1.1,2.5S446.7,354.1,445.7,353.7z
						 M447,350.5c-0.8-0.3-1.7,0.1-2,0.9c-0.3,0.8,0.1,1.7,0.9,1.9c0.8,0.2,1.7-0.1,2-0.9C448.1,351.6,447.7,350.7,447,350.5z"/>
				</g>
				<path d="M428.4,347c-0.2-0.1-0.4-0.2-0.5-0.4c-0.4-0.4-0.6-1-0.5-1.5c0.2-1,1.1-1.7,1.9-1.9c0.9-0.2,1.8-0.1,2.7,0
					c5.7,1.1,10.9,4,14.4,8.2c0,0.1,0,0.2,0,0.3s-0.2,0-0.3,0c-3.5-4.2-8.5-7-14.2-8.1c-0.9-0.2-1.8-0.2-2.5,0
					c-0.7,0.2-1.5,0.8-1.6,1.5c0,0.4,0.1,0.9,0.4,1.2c0.2,0.2,0.5,0.4,0.9,0.3c0.2,0,0.2,0,0.2,0.2c0,0.1,0,0.2-0.2,0.2
					C428.9,347,428.6,347,428.4,347L428.4,347L428.4,347z"/>
				<path d="M431.6,347.5c0,0-0.2-0.1-0.2-0.2c0-0.1,0.1-0.2,0.2-0.2c2.1,0.1,4.2,0.6,6,1.6c0.1,0,0.2,0.2,0.1,0.3
					c0,0.1-0.2,0.2-0.3,0.1C435.6,348.1,433.6,347.6,431.6,347.5L431.6,347.5L431.6,347.5L431.6,347.5z"/>
			</g>
		</g>
		<path class="st8" d="M416.1,361.4l-0.2,1.9c-0.3,3.9,1.1,7.8,3.8,10.6l1.4,1.4l-1.9-0.2c-3.9-0.3-7.8,1.1-10.6,3.8l-1.4,1.4
			l0.2-1.9c0.3-3.9-1.1-7.8-3.8-10.6l-1.4-1.4l1.9,0.2c3.9,0.3,7.8-1.1,10.6-3.8C414.7,362.8,416.1,361.4,416.1,361.4z"/>
	</g>
	<g>
		<g>
			<path d="M1011.4,164.1l13.5,7.3l2.9,14.7l0,0c0.1,0.5,0.5,0.8,1.2,0.5l10.6-7.2l5.7,3.2c0.3,0.2,0.7,0.1,0.9-0.2l24-29l0,0l0,0
				c0.4-0.5,0-1.3-0.7-1.2l0,0l-57.9,10.6c-0.7,0.2-0.9,1.1-0.2,1.4l0,0L1011.4,164.1z M1045.4,181l-14.2-7.8l0.2-1
				c12-5.7,31.7-15.3,35.5-17.1L1045.4,181z M1061.9,155l-36.8,14.2c-0.2,0-0.3,0.2-0.4,0.3l-10.7-5.8L1061.9,155L1061.9,155z"/>
			<path d="M977.4,202.5c1.2-0.6-0.6-1.5-0.9-5c-0.1-1-1.6-0.9-1.5,0.2C975.1,199,976.1,203.2,977.4,202.5L977.4,202.5L977.4,202.5z
				"/>
			<path d="M969.1,217.5c1.5,0.5,3,0.9,4.5,1.2l0,0c0.4,0,0.8-0.2,0.9-0.6c0-0.4-0.2-0.8-0.6-0.9c-1.4-0.3-2.9-0.6-4.3-1.1
				c-0.4-0.1-0.9,0.1-0.9,0.5C968.4,216.9,968.6,217.4,969.1,217.5L969.1,217.5L969.1,217.5z"/>
			<path d="M998.9,204.9c-0.3,0.9,1.1,1.5,1.4,0.5c0.5-1.5,0.9-3.2,0.9-4.6c0-0.4-0.3-0.8-0.7-0.8
				C999.2,199.9,1000.1,201.1,998.9,204.9z"/>
			<path d="M1027.9,189.5c-0.4-0.2-0.9,0.1-0.9,0.5c-0.5,1.4-1,2.8-1.7,4.1c-0.2,0.4,0,0.9,0.3,1c0.4,0.2,0.9,0,1-0.3
				c0.7-1.4,1.3-2.9,1.8-4.3C1028.5,190.2,1028.3,189.7,1027.9,189.5L1027.9,189.5z"/>
			<path d="M999.3,196.4c0.2,0.9,1.7,0.6,1.5-0.4c-0.5-1.5-1.6-5.4-2.9-4.6c-0.4,0.2-0.5,0.7-0.2,1
				C998.9,194.4,999.3,196.1,999.3,196.4L999.3,196.4L999.3,196.4z"/>
			<path d="M1023,197.9c-0.9,1.2-1.8,2.4-2.8,3.4c-0.3,0.3-0.2,0.8,0,1.1c0.3,0.3,0.8,0.2,1.1,0c1.1-1.1,2-2.3,2.9-3.6
				c0.2-0.3,0.2-0.9-0.2-1.1C1023.8,197.4,1023.3,197.5,1023,197.9L1023,197.9L1023,197.9z"/>
			<path d="M1005.5,211.7c1.5-0.4,3-0.9,4.4-1.4c0.4-0.2,0.5-0.6,0.4-1c-0.5-1.1-1.2,0-5.2,0.9
				C1004.2,210.4,1004.5,211.9,1005.5,211.7L1005.5,211.7L1005.5,211.7z"/>
			<path d="M1017,204.3c-1.2,0.9-2.4,1.8-3.6,2.6c-0.4,0.2-0.5,0.7-0.2,1c0.2,0.4,0.7,0.5,1,0.3c1.3-0.8,2.6-1.7,3.8-2.6
				c0.3-0.2,0.4-0.7,0.2-1.1C1017.8,204.2,1017.3,204.1,1017,204.3C1017,204.3,1017,204.3,1017,204.3z"/>
			<path d="M976,193.7c1.2,0.5,0.8-1.4,3.2-3.9c0.7-0.7-0.4-1.8-1.1-1.1c-1.2,1.2-2.1,2.6-2.6,4C975.4,193.1,975.5,193.6,976,193.7
				L976,193.7L976,193.7z"/>
			<path d="M994.7,189.2c0.8,0.6,1.7-0.5,0.9-1.2c-0.9-0.7-4.6-3.4-5.1-1.9C990.1,187.3,991.8,186.8,994.7,189.2L994.7,189.2
				L994.7,189.2z"/>
			<path d="M987.2,210.7c0.2,0,3.1,1.1,4.6,1.2c0.9,0.1,1.2-1.3,0.2-1.5c-2.5-0.5-4.1-1.1-4.3-1.2
				C986.8,209,986.3,210.4,987.2,210.7L987.2,210.7L987.2,210.7z"/>
			<path d="M995.3,213.2c0.2-0.2,0.5-0.5,0.8-0.8c0.5,0.2,4,0,4.9,0c0.4,0,0.7-0.4,0.7-0.9c-0.1-1.1-1-0.5-4.4-0.5
				c0.8-1,1.6-2,0.8-2.5c-1.1-0.7-0.9,0.8-3.8,3.6C993.5,212.9,994.6,214,995.3,213.2L995.3,213.2L995.3,213.2z"/>
			<path d="M978.1,219.3L978.1,219.3c1.6,0.1,3.2,0,4.6-0.1c0.4,0,0.7-0.4,0.7-0.9c0-0.4-0.4-0.7-0.9-0.7c-1.4,0.2-2.9,0.2-4.4,0.1
				c-0.4,0-0.8,0.3-0.8,0.7C977.4,218.8,977.7,219.2,978.1,219.3L978.1,219.3L978.1,219.3z"/>
			<path d="M983.3,208.9c0.3,0,0.5-0.1,0.7-0.4c0.6-1.1-1-1-3.7-3.7c-0.7-0.7-1.8,0.4-1.1,1.1C980,206.6,982.6,208.8,983.3,208.9
				L983.3,208.9L983.3,208.9z"/>
			<path d="M982.7,187.4c3.4-1.5,4.9-0.4,4.8-1.7c0-1.6-4.3-0.2-5.4,0.4C981.2,186.4,981.8,187.8,982.7,187.4L982.7,187.4z"/>
			<path d="M990.8,214.8c-3.4,2.2-4.8,1.6-4.4,2.8c0.2,0.4,0.5,0.6,0.9,0.5c1.5-0.5,2.9-1.2,4.3-2
				C992.5,215.5,991.6,214.3,990.8,214.8L990.8,214.8L990.8,214.8z"/>
		</g>
		<g>
			<defs>
				<polygon id="SVGID_00000025419710354130114220000003397809542661409183_" points="1027.3,170.6 1029.2,183 1036.9,178.9 
					1029.5,173.6 1029.1,170.8 1058.6,157.7 				"/>
			</defs>
			<clipPath id="SVGID_00000076605481970186341360000013169230420304480183_">
				<use xlink:href="#SVGID_00000025419710354130114220000003397809542661409183_"  style="overflow:visible;"/>
			</clipPath>
			<g style="clip-path:url(#SVGID_00000076605481970186341360000013169230420304480183_);">
				<rect x="1053.6" y="157.7" class="st8" width="5" height="25.3"/>
				<rect x="1052.9" y="157.7" class="st8" width="0.7" height="25.3"/>
				<rect x="1052.2" y="157.7" class="st9" width="0.7" height="25.3"/>
				<rect x="1051.4" y="157.7" class="st10" width="0.7" height="25.3"/>
				<rect x="1050.7" y="157.7" class="st11" width="0.7" height="25.3"/>
				<rect x="1050" y="157.7" class="st12" width="0.7" height="25.3"/>
				<rect x="1049.2" y="157.7" class="st13" width="0.7" height="25.3"/>
				<rect x="1048.5" y="157.7" class="st14" width="0.7" height="25.3"/>
				<rect x="1047.8" y="157.7" class="st15" width="0.7" height="25.3"/>
				<rect x="1047.1" y="157.7" class="st16" width="0.7" height="25.3"/>
				<rect x="1046.4" y="157.7" class="st17" width="0.7" height="25.3"/>
				<rect x="1045.7" y="157.7" class="st18" width="0.7" height="25.3"/>
				<rect x="1045" y="157.7" class="st19" width="0.7" height="25.3"/>
				<rect x="1044.2" y="157.7" class="st20" width="0.7" height="25.3"/>
				<rect x="1043.7" y="157.7" class="st20" width="0.5" height="25.3"/>
				<rect x="1043.2" y="157.7" class="st21" width="0.5" height="25.3"/>
				<rect x="1042.7" y="157.7" class="st22" width="0.5" height="25.3"/>
				<rect x="1042.2" y="157.7" class="st23" width="0.5" height="25.3"/>
				<rect x="1041.7" y="157.7" class="st24" width="0.5" height="25.3"/>
				<rect x="1041.2" y="157.7" class="st25" width="0.5" height="25.3"/>
				<rect x="1040.7" y="157.7" class="st26" width="0.5" height="25.3"/>
				<rect x="1040.1" y="157.7" class="st27" width="0.5" height="25.3"/>
				<rect x="1039.6" y="157.7" class="st28" width="0.5" height="25.3"/>
				<rect x="1039.1" y="157.7" class="st29" width="0.5" height="25.3"/>
				<rect x="1038.6" y="157.7" class="st30" width="0.5" height="25.3"/>
				<rect x="1038.1" y="157.7" class="st31" width="0.5" height="25.3"/>
				<rect x="1037.6" y="157.7" class="st32" width="0.5" height="25.3"/>
				<rect x="1037.1" y="157.7" class="st33" width="0.5" height="25.3"/>
				<rect x="1036.5" y="157.7" class="st34" width="0.5" height="25.3"/>
				<rect x="1036.1" y="157.7" class="st35" width="0.5" height="25.3"/>
				<rect x="1035.5" y="157.7" class="st36" width="0.5" height="25.3"/>
				<rect x="1035" y="157.7" class="st37" width="0.5" height="25.3"/>
				<rect x="1034.5" y="157.7" class="st38" width="0.5" height="25.3"/>
				<rect x="1034" y="157.7" class="st39" width="0.5" height="25.3"/>
				<rect x="1033.5" y="157.7" class="st40" width="0.5" height="25.3"/>
				<rect x="1033" y="157.7" class="st41" width="0.5" height="25.3"/>
				<rect x="1032.4" y="157.7" class="st42" width="0.5" height="25.3"/>
				<rect x="1032" y="157.7" class="st43" width="0.5" height="25.3"/>
				<rect x="1031.4" y="157.7" class="st44" width="0.5" height="25.3"/>
				<rect x="1031" y="157.7" class="st45" width="0.5" height="25.3"/>
				<rect x="1030.4" y="157.7" class="st46" width="0.5" height="25.3"/>
				<rect x="1029.9" y="157.7" class="st47" width="0.5" height="25.3"/>
				<rect x="1029.4" y="157.7" class="st48" width="0.5" height="25.3"/>
				<rect x="1028.9" y="157.7" class="st49" width="0.5" height="25.3"/>
				<rect x="1028.4" y="157.7" class="st50" width="0.5" height="25.3"/>
				<rect x="1027.9" y="157.7" class="st51" width="0.5" height="25.3"/>
				<rect x="1027.3" y="157.7" class="st52" width="0.5" height="25.3"/>
				<path class="st52" d="M1027.3,157.7V183V157.7z"/>
			</g>
		</g>
	</g>
	<path d="M888.5,354.4c-0.8-0.5-1.1-1.5-0.9-2.6c0.2-0.8,0.8-1.4,1.5-1.7l21.5-7.1l0.9-3.7c0-0.1,0-0.2,0.2-0.3c0.1,0,0.2,0,0.3,0
		c2,0.5,4-0.6,4.6-2.7c0.4-1.5-0.2-3.1-1.4-3.9c-0.4-0.3-0.9-0.5-1.3-0.6c-2-0.5-4,0.6-4.6,2.7c0,0.1,0,0.2-0.2,0.3
		c-0.1,0-0.2,0-0.3,0c0,0-0.2,0-0.2-0.1c-0.2-0.1-0.2-0.3-0.2-0.4c0.3-1.2,1.1-2.2,2.1-2.8c1.1-0.6,2.3-0.8,3.5-0.5
		c0.5,0.2,1.1,0.4,1.5,0.8c1.5,1.1,2.2,3,1.7,4.9c-0.6,2.2-2.6,3.6-4.9,3.5h-0.3l-0.9,3.2l15.2,16.7c0.6,0.7,0.8,1.5,0.6,2.3
		c-0.3,1.2-1.5,2-2.8,1.7l-35.4-9.3C888.8,354.8,888.6,354.6,888.5,354.4L888.5,354.4L888.5,354.4z M889.4,351
		c-0.5,0.2-0.9,0.6-1,1.1c-0.2,0.7,0,1.3,0.6,1.7c0.2,0.2,0.4,0.2,0.5,0.3l34.8,9.1c0.9,0.2,1.7-0.2,2.1-1.2c0.2-0.5,0-1.2-0.5-1.6
		l-15.1-16.6L889.4,351L889.4,351L889.4,351z"/>
</g>
</svg>
