<?xml version="1.0" encoding="UTF-8"?>
<svg id="Layer_2" xmlns="http://www.w3.org/2000/svg" xmlns:xlink="http://www.w3.org/1999/xlink" version="1.1" viewBox="0 0 915.9 388.9">
  <!-- Generator: Adobe Illustrator 29.5.1, SVG Export Plug-In . SVG Version: 2.1.0 Build 141)  -->
  <defs>
    <style>
      .st0 {
        fill: #bd83ff;
      }

      .st1 {
        fill: none;
      }

      .st2 {
        fill: #8670ff;
      }

      .st3 {
        fill: #ffbd00;
      }

      .st4 {
        fill: #806fff;
      }

      .st5 {
        fill: #6b68ff;
      }

      .st6 {
        fill: #7069ff;
      }

      .st7 {
        fill: #8f73ff;
      }

      .st8 {
        fill: #c184ff;
      }

      .st9 {
        fill: #8d72ff;
      }

      .st10 {
        fill: #bb82ff;
      }

      .st11 {
        fill: #f8ac13;
      }

      .st12 {
        fill: #9274ff;
      }

      .st13 {
        fill: #f2992b;
      }

      .st14 {
        fill: #9575ff;
      }

      .st15 {
        fill: #6766ff;
      }

      .st16 {
        fill: #f5a220;
      }

      .st17 {
        fill: #f8ab15;
      }

      .st18 {
        fill: #9073ff;
      }

      .st19 {
        fill: #7b6dff;
      }

      .st20 {
        fill: #fbb40a;
      }

      .st21 {
        fill: #9d78ff;
      }

      .st22 {
        fill: #cd88ff;
      }

      .st23 {
        fill: #f7aa16;
      }

      .st24 {
        fill: #c485ff;
      }

      .st25 {
        fill: #fab20c;
      }

      .st26 {
        fill: #736aff;
      }

      .st27 {
        fill: #9876ff;
      }

      .st28 {
        fill: #6c68ff;
      }

      .st29 {
        fill: #f49e25;
      }

      .st30 {
        fill: #c786ff;
      }

      .st31 {
        fill: #b37fff;
      }

      .st32 {
        fill: #f6a41e;
      }

      .st33 {
        fill: #f9af0f;
      }

      .st34 {
        fill: #fab00e;
      }

      .st35 {
        fill: #aa7cff;
      }

      .st36 {
        fill: #7c6dff;
      }

      .st37 {
        fill: #c686ff;
      }

      .st38 {
        fill: #8871ff;
      }

      .st39 {
        fill: #9174ff;
      }

      .st40 {
        fill: #f1972e;
      }

      .st41 {
        fill: #756bff;
      }

      .st42 {
        fill: #9976ff;
      }

      .st43 {
        fill: #8a71ff;
      }

      .st44 {
        fill: #f2992c;
      }

      .st45 {
        fill: #766bff;
      }

      .st46 {
        fill: #66f;
      }

      .st47 {
        fill: #ef4e16;
      }

      .st48 {
        isolation: isolate;
      }

      .st49 {
        fill: #726aff;
      }

      .st50 {
        fill: #b981ff;
      }

      .st51 {
        fill: #f29b29;
      }

      .st52 {
        fill: #ae7eff;
      }

      .st53 {
        fill: #7a6dff;
      }

      .st54 {
        fill: #a279ff;
      }

      .st55 {
        fill: #b17eff;
      }

      .st56 {
        fill: #ab7dff;
      }

      .st57 {
        fill: #b680ff;
      }

      .st58 {
        fill: #cf89ff;
      }

      .st59 {
        fill: #8c72ff;
      }

      .st60 {
        fill: #fcb608;
      }

      .st61 {
        clip-path: url(#clippath-1);
      }

      .st62 {
        fill: #a079ff;
      }

      .st63 {
        fill: #a87cff;
      }

      .st64 {
        fill: #836fff;
      }

      .st65 {
        fill: #796cff;
      }

      .st66 {
        fill: #9b77ff;
      }

      .st67 {
        fill: #786cff;
      }

      .st68 {
        fill: #716aff;
      }

      .st69 {
        fill: #6967ff;
      }

      .st70 {
        fill: #a67bff;
      }

      .st71 {
        fill: #ad7dff;
      }

      .st72 {
        fill: #f39e26;
      }

      .st73 {
        fill: #f4a122;
      }

      .st74 {
        fill: #f4a023;
      }

      .st75 {
        fill: #fff;
      }

      .st76 {
        fill: #a37aff;
      }

      .st77 {
        fill: #f9ae11;
      }

      .st78 {
        fill: #776cff;
      }

      .st79 {
        fill: #ffbc01;
      }

      .st80 {
        fill: #c987ff;
      }

      .st81 {
        fill: #6867ff;
      }

      .st82 {
        fill: #a57aff;
      }

      .st83 {
        fill: #fdb707;
      }

      .st84 {
        fill: #dfe8fd;
      }

      .st85 {
        fill: #6a67ff;
      }

      .st86 {
        fill: #9776ff;
      }

      .st87 {
        fill: #f49f24;
      }

      .st88 {
        fill: #8770ff;
      }

      .st89 {
        fill: #9e78ff;
      }

      .st90 {
        fill: #ac7dff;
      }

      .st91 {
        fill: #f6a61a;
      }

      .st92 {
        fill: #a179ff;
      }

      .st93 {
        fill: #ce89ff;
      }

      .st94 {
        fill: #fbb30b;
      }

      .st95 {
        fill: #b780ff;
      }

      .st96 {
        fill: #f9af10;
      }

      .st97 {
        fill: #c084ff;
      }

      .st98 {
        fill: #febb02;
      }

      .st99 {
        fill: #a47aff;
      }

      .st100 {
        fill: #f7a719;
      }

      .st101 {
        fill: #b07eff;
      }

      .st102 {
        fill: #fab10d;
      }

      .st103 {
        fill: #ffce31;
      }

      .st104 {
        fill: #bf83ff;
      }

      .st105 {
        fill: #8b72ff;
      }

      .st106 {
        fill: #fdb805;
      }

      .st107 {
        fill: #f39d27;
      }

      .st108 {
        fill: #f5a31f;
      }

      .st109 {
        fill: #f6a51c;
      }

      .st110 {
        fill: #feba03;
      }

      .st111 {
        fill: #b27fff;
      }

      .st112 {
        fill: #6f69ff;
      }

      .st113 {
        fill: #f7a917;
      }

      .st114 {
        fill: #c284ff;
      }

      .st115 {
        fill: #c8f;
      }

      .st116 {
        fill: #8e73ff;
      }

      .st117 {
        fill: #a97cff;
      }

      .st118 {
        fill: #9c77ff;
      }

      .st119 {
        fill: #f9ad12;
      }

      .st120 {
        fill: #7f6eff;
      }

      .st121 {
        fill: #6d68ff;
      }

      .st122 {
        fill: #8570ff;
      }

      .st123 {
        fill: #816fff;
      }

      .st124 {
        fill: #ba82ff;
      }

      .st125 {
        fill: #7d6eff;
      }

      .st126 {
        fill: #f5a221;
      }

      .st127 {
        fill: #9a77ff;
      }

      .st128 {
        fill: #be83ff;
      }

      .st129 {
        fill: #9475ff;
      }

      .st130 {
        fill: #f39c28;
      }

      .st131 {
        fill: #f8ab14;
      }

      .st132 {
        fill: #b47fff;
      }

      .st133 {
        fill: #b580ff;
      }

      .st134 {
        fill: #9374ff;
      }

      .st135 {
        fill: #f29a2a;
      }

      .st136 {
        fill: #c586ff;
      }

      .st137 {
        fill: #b881ff;
      }

      .st138 {
        fill: #846fff;
      }

      .st139 {
        fill: #bc82ff;
      }

      .st140 {
        fill: #7e6eff;
      }

      .st141 {
        fill: #a77bff;
      }

      .st142 {
        fill: #c385ff;
      }

      .st143 {
        fill: #8971ff;
      }

      .st144 {
        clip-path: url(#clippath);
      }

      .st145 {
        fill: #9f78ff;
      }

      .st146 {
        fill: #f6a61b;
      }

      .st147 {
        fill: #fcb509;
      }

      .st148 {
        fill: #f7a818;
      }

      .st149 {
        fill: #9675ff;
      }

      .st150 {
        fill: #cb87ff;
      }

      .st151 {
        fill: #6e69ff;
      }

      .st152 {
        fill: #746bff;
      }

      .st153 {
        fill: #f1982d;
      }

      .st154 {
        fill: #ca87ff;
      }

      .st155 {
        fill: #fdb904;
      }
    </style>
    <clipPath id="clippath">
      <path class="st1" d="M335.8,269.8c28.4-4.5,55.5-8.2,84-11.5,28.3-3.2,56.7-5.9,85.1-7.8,28.2-2,56.5-3.4,84.9-4.1,28.5-.8,57-.9,85.4-.4s57,1.6,85.4,3.3c3.4.2,6.9.4,10.3.6,2.3.1,4.6-2.2,4.5-4.5-.1-2.6-2-4.3-4.5-4.5-28.4-1.9-56.9-3.1-85.4-3.8s-57.1-.6-85.7,0c-28.5.6-56.9,1.9-85.4,3.7s-57,4.4-85.4,7.4c-28.5,3.1-57,6.9-85.4,11.2-3.4.5-6.8,1-10.2,1.6-2.3.4-3.8,3.4-3.1,5.5.8,2.5,3,3.5,5.5,3.1h0Z"/>
    </clipPath>
    <clipPath id="clippath-1">
      <polygon class="st1" points="860.3 81.5 862.7 97.6 872.7 92.3 863.1 85.4 862.6 81.8 900.7 64.8 860.3 81.5"/>
    </clipPath>
  </defs>
  <g id="Layer_1-2">
    <path class="st46" d="M831.2,341.4c-9-1.1-16.3-4.3-21.2-9.2-.3-.4-.4-.4-.6-.4-.4,0-1.1,0-2.1,0-2.1,0-4.3,0-6.5-.3-13.9-1.8-26-10.2-30.1-21-2.5-6.5-2.2-17.2.6-20.7,1-1.2,2-1.4,2.7-1.3.4,0,.9.2,1.3.5,1.8,1.1,1.8,2.8,1.2,4.9-1.6,6.6-.6,12.7,3,18,5.7,8.3,16,12.3,21.5,13h0c2.8.4,3.8-.2,3.9-.3h0s0,0,0-.2c-2.3-6.6-.7-14.3,4-20.1,4-4.9,9.4-7.5,14.4-6.9,2,.3,4,1,5.8,2.3,3.6,2.6,5.3,7.1,4.7,12-1,7.4-6.7,13.9-15.5,17.9,5.1,2.9,10.4,4.7,15.7,5.4,10.6,1.3,19.5-1.9,25.4-4.1,3.2-1.2,5.5-2,7-1.8,1.2.1,1.7.8,2,1.3.6,1,.5,2.2-.3,3.4-4.1,6-24.2,9.3-37.1,7.7h0ZM822.3,304.2c-2.8-.4-6,1.7-8.5,5.4-2.4,3.6-4.2,9.5-1.5,14,0,.1.2.3.2.4.2,0,.5-.1.8-.2,7.1-1.6,12.3-7.6,13.3-12.5.4-1.9.3-4.4-2-6.1-.8-.5-1.6-.9-2.4-1h0Z"/>
    <g>
      <g class="st48">
        <g class="st48">
          <path d="M216.3,81l-6.5,6.2c-4.4-4.7-9.4-7-14.9-7s-8.6,1.6-11.8,4.8c-3.2,3.2-4.8,7.1-4.8,11.8s.7,6.1,2.1,8.6c1.4,2.5,3.4,4.5,6,5.9s5.4,2.2,8.6,2.2,5.1-.5,7.4-1.5c2.2-1,4.7-2.8,7.3-5.5l6.3,6.6c-3.6,3.5-7,5.9-10.2,7.3-3.2,1.4-6.9,2-11,2-7.6,0-13.8-2.4-18.6-7.2-4.8-4.8-7.2-11-7.2-18.5s1.1-9.2,3.3-12.9,5.3-6.8,9.4-9.1c4.1-2.3,8.5-3.4,13.2-3.4s7.9.8,11.6,2.5c3.7,1.7,6.9,4.1,9.6,7.2Z"/>
          <path d="M247.4,71.2c6.9,0,12.8,2.5,17.8,7.5,5,5,7.4,11.1,7.4,18.2s-2.4,13.1-7.3,18-10.8,7.4-17.8,7.4-13.4-2.5-18.2-7.6c-4.8-5.1-7.3-11.1-7.3-18s1.1-8.9,3.4-12.8,5.3-7,9.3-9.3c3.9-2.3,8.2-3.4,12.7-3.4ZM247.3,80.3c-4.5,0-8.3,1.6-11.4,4.7s-4.6,7.1-4.6,11.9,1.9,9.6,5.8,12.8c3,2.4,6.4,3.7,10.3,3.7s8.1-1.6,11.2-4.8c3.1-3.2,4.6-7.1,4.6-11.8s-1.6-8.6-4.7-11.8c-3.1-3.2-6.9-4.8-11.4-4.8Z"/>
          <path d="M281.4,72.4h8.9l20.8,32v-32h9.3v48.7h-8.9l-20.8-31.9v31.9h-9.3v-48.7Z"/>
          <path d="M327.8,72.4h9.5l12.3,34.6,12.4-34.6h9.5l-17.5,48.7h-8.9l-17.2-48.7Z"/>
          <path d="M379,72.4h26.6v9.1h-17.4v8.8h17.4v8.9h-17.4v12.8h17.4v9.1h-26.6v-48.7Z"/>
          <path d="M414.3,72.4h8.9l20.8,32v-32h9.3v48.7h-8.9l-20.8-31.9v31.9h-9.3v-48.7Z"/>
          <path d="M463.7,72.4h9.2v48.7h-9.2v-48.7Z"/>
          <path d="M483.4,72.4h26.6v9.1h-17.4v8.8h17.4v8.9h-17.4v12.8h17.4v9.1h-26.6v-48.7Z"/>
          <path d="M518.6,72.4h8.9l20.8,32v-32h9.3v48.7h-8.9l-20.8-31.9v31.9h-9.3v-48.7Z"/>
          <path d="M613.5,81l-6.5,6.2c-4.4-4.7-9.4-7-14.9-7s-8.6,1.6-11.8,4.8c-3.2,3.2-4.8,7.1-4.8,11.8s.7,6.1,2.1,8.6c1.4,2.5,3.4,4.5,6,5.9,2.6,1.4,5.4,2.2,8.6,2.2s5.1-.5,7.4-1.5,4.7-2.8,7.3-5.5l6.3,6.6c-3.6,3.5-7,5.9-10.2,7.3-3.2,1.4-6.9,2-11,2-7.6,0-13.8-2.4-18.6-7.2-4.8-4.8-7.2-11-7.2-18.5s1.1-9.2,3.3-12.9c2.2-3.8,5.3-6.8,9.4-9.1,4.1-2.3,8.5-3.4,13.2-3.4s7.9.8,11.6,2.5,6.9,4.1,9.6,7.2Z"/>
          <path d="M621.6,72.4h26.6v9.1h-17.4v8.8h17.4v8.9h-17.4v12.8h17.4v9.1h-26.6v-48.7Z"/>
        </g>
        <g class="st48">
          <path d="M73.9,160.8l-6.5,6.2c-4.4-4.7-9.4-7-14.9-7s-8.6,1.6-11.8,4.8c-3.2,3.2-4.8,7.1-4.8,11.8s.7,6.1,2.1,8.6c1.4,2.5,3.4,4.5,6,5.9s5.4,2.2,8.6,2.2,5.1-.5,7.4-1.5c2.2-1,4.7-2.8,7.3-5.5l6.3,6.6c-3.6,3.5-7,5.9-10.2,7.3-3.2,1.4-6.9,2-11,2-7.6,0-13.8-2.4-18.6-7.2-4.8-4.8-7.2-11-7.2-18.5s1.1-9.2,3.3-12.9,5.3-6.8,9.4-9.1c4.1-2.3,8.5-3.4,13.2-3.4s7.9.8,11.6,2.5c3.7,1.7,6.9,4.1,9.6,7.2Z"/>
          <path d="M81.7,152.3h9.3v31.5c0,2.7.2,4.6.7,5.8.5,1.1,1.3,2,2.4,2.7,1.1.7,2.4,1,4,1s3-.4,4.2-1.1c1.2-.7,2-1.7,2.4-2.9.5-1.2.7-3.4.7-6.6v-30.3h9.3v29c0,4.9-.3,8.3-.8,10.2-.6,1.9-1.6,3.7-3.2,5.5s-3.3,3.1-5.4,3.9c-2,.8-4.4,1.3-7.1,1.3s-6.6-.8-9.2-2.4c-2.6-1.6-4.5-3.7-5.6-6.1-1.1-2.4-1.7-6.6-1.7-12.4v-29Z"/>
          <path d="M125.4,152.3h9.3v39.9h13.5v8.8h-22.8v-48.7Z"/>
          <path d="M150.5,152.3h26.9v9.1h-8.9v39.6h-9.4v-39.6h-8.6v-9.1Z"/>
          <path d="M183.4,152.3h9.3v31.5c0,2.7.2,4.6.7,5.8.5,1.1,1.3,2,2.4,2.7,1.1.7,2.4,1,4,1s3-.4,4.2-1.1c1.2-.7,2-1.7,2.4-2.9.5-1.2.7-3.4.7-6.6v-30.3h9.3v29c0,4.9-.3,8.3-.8,10.2-.6,1.9-1.6,3.7-3.2,5.5s-3.3,3.1-5.4,3.9c-2,.8-4.4,1.3-7.1,1.3s-6.6-.8-9.2-2.4c-2.6-1.6-4.5-3.7-5.6-6.1-1.1-2.4-1.7-6.6-1.7-12.4v-29Z"/>
          <path d="M227.8,152.3h9.8c5.4,0,9.2.5,11.5,1.4,2.3,1,4.1,2.6,5.5,4.8s2.1,4.9,2.1,7.9-.8,5.9-2.3,8-3.8,3.8-6.9,4.9l11.5,21.6h-10.1l-10.9-20.6h-.8v20.6h-9.3v-48.7ZM237,171.3h2.9c2.9,0,5-.4,6.1-1.2,1.1-.8,1.7-2.1,1.7-3.9s-.3-2-.8-2.8c-.6-.8-1.3-1.4-2.2-1.7-.9-.3-2.6-.5-5.1-.5h-2.5v10Z"/>
          <path d="M266.5,152.3h26.6v9.1h-17.4v8.8h17.4v8.9h-17.4v12.8h17.4v9.1h-26.6v-48.7Z"/>
          <path d="M305.1,191.8l6.5,3.2-8.2,14-4.5-2.2,6.2-15.1Z"/>
          <path d="M370.2,181.8l5.5,6.3-2.5,2.3-2.5,2.2,7.8,8.3h-11.2l-3.2-3.3c-5.1,3-9.9,4.5-14.3,4.5s-6.7-1.1-9.1-3.3c-2.3-2.2-3.5-5-3.5-8.4s.7-5,2-7.3c1.3-2.3,3.5-4.7,6.7-7.1-3.1-4.2-4.7-7.9-4.7-11.2s1-4.8,3.1-7.1c2.1-2.3,5-3.5,8.8-3.5s6.7,1.2,8.8,3.5,3.1,4.7,3.1,7-.5,3.6-1.4,5.3c-.9,1.7-3.1,4.2-6.5,7.5,4,4.7,6.5,7.6,7.6,8.7.7-.5,2.5-2,5.4-4.5ZM358.1,191.2c-1.7-1.7-4.1-4.4-7.2-8.3-3.3,2.7-4.9,5.1-4.9,7.1s.4,1.8,1.3,2.6c.9.8,2,1.2,3.4,1.2,2,0,4.4-.9,7.4-2.6ZM352.6,171.1c2.4-2.1,3.7-4,3.7-5.6s-.3-1.5-.8-2.1c-.6-.5-1.3-.8-2.2-.8s-1.6.3-2.1.9c-.6.6-.9,1.3-.9,2.1,0,1.6.8,3.4,2.4,5.4Z"/>
          <path d="M449.5,160.8l-6.5,6.2c-4.4-4.7-9.4-7-14.9-7s-8.6,1.6-11.8,4.8c-3.2,3.2-4.8,7.1-4.8,11.8s.7,6.1,2.1,8.6c1.4,2.5,3.4,4.5,6,5.9s5.4,2.2,8.6,2.2,5.1-.5,7.4-1.5c2.2-1,4.7-2.8,7.3-5.5l6.3,6.6c-3.6,3.5-7,5.9-10.2,7.3-3.2,1.4-6.9,2-11,2-7.6,0-13.8-2.4-18.6-7.2-4.8-4.8-7.2-11-7.2-18.5s1.1-9.2,3.3-12.9,5.3-6.8,9.4-9.1c4.1-2.3,8.5-3.4,13.2-3.4s7.9.8,11.6,2.5c3.7,1.7,6.9,4.1,9.6,7.2Z"/>
          <path d="M480.6,151.1c6.9,0,12.8,2.5,17.8,7.5s7.4,11.1,7.4,18.2-2.4,13.1-7.3,18c-4.9,4.9-10.8,7.4-17.8,7.4s-13.4-2.5-18.2-7.6c-4.8-5.1-7.3-11.1-7.3-18s1.1-8.9,3.4-12.8,5.3-7,9.3-9.3c3.9-2.3,8.2-3.4,12.7-3.4ZM480.5,160.1c-4.5,0-8.3,1.6-11.4,4.7s-4.6,7.1-4.6,11.9,1.9,9.6,5.8,12.8c3,2.4,6.4,3.7,10.3,3.7s8.1-1.6,11.2-4.8c3.1-3.2,4.6-7.1,4.6-11.8s-1.6-8.6-4.7-11.8c-3.1-3.2-6.9-4.8-11.4-4.8Z"/>
          <path d="M519.2,152.3h9l11.3,34,11.4-34h9l8.2,48.7h-9l-5.2-30.8-10.3,30.8h-8.2l-10.3-30.8-5.3,30.8h-9l8.4-48.7Z"/>
          <path d="M580.2,152.3h9l11.3,34,11.4-34h9l8.2,48.7h-9l-5.2-30.8-10.3,30.8h-8.2l-10.3-30.8-5.3,30.8h-9l8.4-48.7Z"/>
          <path d="M636.6,152.3h26.6v9.1h-17.4v8.8h17.4v8.9h-17.4v12.8h17.4v9.1h-26.6v-48.7Z"/>
          <path d="M672.4,152.3h9.8c5.4,0,9.2.5,11.5,1.4s4.1,2.6,5.5,4.8,2.1,4.9,2.1,7.9-.8,5.9-2.3,8-3.8,3.8-6.9,4.9l11.5,21.6h-10.1l-10.9-20.6h-.8v20.6h-9.3v-48.7ZM681.7,171.3h2.9c2.9,0,5-.4,6.1-1.2,1.1-.8,1.7-2.1,1.7-3.9s-.3-2-.8-2.8-1.3-1.4-2.2-1.7c-.9-.3-2.6-.5-5.1-.5h-2.5v10Z"/>
          <path d="M755.8,160.8l-6.5,6.2c-4.4-4.7-9.4-7-14.9-7s-8.6,1.6-11.8,4.8c-3.2,3.2-4.8,7.1-4.8,11.8s.7,6.1,2.1,8.6,3.4,4.5,6,5.9c2.6,1.4,5.4,2.2,8.6,2.2s5.1-.5,7.4-1.5,4.7-2.8,7.3-5.5l6.3,6.6c-3.6,3.5-7,5.9-10.2,7.3-3.2,1.4-6.9,2-11,2-7.6,0-13.8-2.4-18.6-7.2s-7.2-11-7.2-18.5,1.1-9.2,3.3-12.9c2.2-3.8,5.3-6.8,9.4-9.1,4.1-2.3,8.5-3.4,13.2-3.4s7.9.8,11.6,2.5c3.7,1.7,6.9,4.1,9.6,7.2Z"/>
          <path d="M764,152.3h26.6v9.1h-17.4v8.8h17.4v8.9h-17.4v12.8h17.4v9.1h-26.6v-48.7Z"/>
        </g>
      </g>
      <g class="st48">
        <g class="st48">
          <path d="M278.8,25.5h.5c.6,0,.9-.1,1.1-.7l7.4-20h3.5l7.4,20c.2.6.5.7,1.1.7h.5v2.9h-1.9c-1.7,0-2.2-.4-2.7-1.9l-1.8-4.8h-8.7l-1.8,4.8c-.6,1.5-1.1,1.9-2.8,1.9h-1.8v-2.9ZM293,18.8l-2.6-7.2c-.4-1.2-.9-3.3-.9-3.3h0s-.5,2.1-.9,3.3l-2.6,7.2h7.1Z"/>
          <path d="M310.9,25.5h1.4c.5,0,.7-.3.7-.7V4.8h3l10.5,14.9c.9,1.3,2,3.2,2,3.2h0s-.2-1.9-.2-3.2V6.9c0-1.5.6-2.1,2.2-2.1h3.3v2.9h-1.4c-.5,0-.7.2-.7.7v20h-3l-10.5-14.9c-.9-1.3-1.9-3.2-1.9-3.2h0s.2,1.9.2,3.2v12.8c0,1.5-.6,2.1-2.1,2.1h-3.4v-2.9Z"/>
        </g>
        <g class="st48">
          <path d="M338.6,7.7h-2.2v-2.9h13.9c1.5,0,2.1.6,2.1,2.1v3h-3v-1.5c0-.5-.3-.7-.7-.7h-6.7v7.4h8.3v2.9h-8.3v6.8c0,.5.3.7.7.7h6.9c.5,0,.7-.3.7-.7v-1.5h3.1v3c0,1.5-.6,2.1-2.1,2.1h-10.5c-1.5,0-2.1-.6-2.1-2.1V7.7Z"/>
        </g>
        <g class="st48">
          <path d="M355.8,8.4c-.2-.6-.5-.7-1.1-.7h-.5v-2.9h1.9c1.7,0,2.5.3,2.9,1.9l3.6,15.2c.3,1.3.5,2.5.5,2.5h0s.2-1.2.6-2.5l4.7-17h3l4.4,17c.3,1.3.5,2.5.5,2.5h0s.1-1.2.4-2.5l3.7-15.2c.4-1.6,1.2-1.9,2.9-1.9h1.9v2.9h-.5c-.6,0-1,.1-1.1.7l-5.2,20h-3.9l-4-14.9c-.4-1.5-.7-3.2-.7-3.2h0s-.3,1.7-.8,3.2l-4.3,14.9h-3.9l-5.2-20Z"/>
        </g>
        <g class="st48">
          <path d="M407.2,4.4c3.2,0,8.9,1.3,8.9,5.1v2.3h-3.1v-1.3c0-2-3.3-3-5.7-3-4.7,0-8.4,3.6-8.4,8.9s3.7,9.3,8.5,9.3,7.5-3.2,7.5-3.2l1.8,2.4s-3.3,3.9-9.3,3.9-12-5.4-12-12.4,5.1-12,11.8-12Z"/>
          <path d="M420.8,8.4c0-.5-.3-.7-.7-.7h-1.4v-2.9h3.4c1.5,0,2.1.6,2.1,2.1v13.1c0,3.5,2.2,5.6,5.6,5.6s5.6-2.1,5.6-5.7V6.9c0-1.5.7-2.1,2.2-2.1h3.3v2.9h-1.4c-.5,0-.7.2-.7.7v11.7c0,5.1-3.6,8.7-9,8.7s-9-3.5-9-8.7v-11.7Z"/>
        </g>
        <g class="st48">
          <path d="M445.4,8.4c0-.5-.3-.7-.7-.7h-1.4v-2.9h3.4c1.5,0,2.1.6,2.1,2.1v17.8c0,.5.3.7.7.7h6.5c.5,0,.7-.3.7-.7v-1.5h3v3c0,1.5-.6,2.1-2.1,2.1h-10.1c-1.5,0-2.1-.6-2.1-2.1V8.4Z"/>
        </g>
        <g class="st48">
          <path d="M465.7,7.7h-4.7c-.5,0-.7.2-.7.7v1.5h-3v-3.1c0-1.5.5-2,2-2h16.2c1.5,0,2,.5,2,2v3.1h-3v-1.5c0-.5-.3-.7-.7-.7h-4.7v20.7h-3.3V7.7Z"/>
        </g>
        <g class="st48">
          <path d="M499.5,4.4c6.8,0,12.1,5.2,12.1,12s-5.3,12.4-12.1,12.4-12.1-5.4-12.1-12.4,5.3-12,12.1-12ZM499.5,25.6c4.8,0,8.7-4,8.7-9.2s-3.9-8.9-8.7-8.9-8.6,3.9-8.6,8.9,3.8,9.2,8.6,9.2Z"/>
          <path d="M516.2,7.7h-2.2v-2.9h13c1.5,0,2.1.6,2.1,2.1v3h-3v-1.5c0-.5-.3-.7-.7-.7h-5.8v7.8h8.1v2.9h-8.1v10.1h-3.3V7.7Z"/>
        </g>
      </g>
      <g class="st144">
        <polygon class="st58" points="435.7 236.6 394.2 270.2 329.6 270.2 329.6 236.6 435.7 236.6"/>
        <polygon class="st58" points="440.2 236.6 398.6 270.2 394.2 270.2 435.7 236.6 440.2 236.6"/>
        <polygon class="st93" points="444.6 236.6 403.1 270.2 398.6 270.2 440.2 236.6 444.6 236.6"/>
        <polygon class="st22" points="449 236.6 407.5 270.2 403.1 270.2 444.6 236.6 449 236.6"/>
        <polygon class="st115" points="453.4 236.6 411.9 270.2 407.5 270.2 449 236.6 453.4 236.6"/>
        <polygon class="st150" points="457.8 236.6 416.3 270.2 411.9 270.2 453.4 236.6 457.8 236.6"/>
        <polygon class="st154" points="462.2 236.6 420.7 270.2 416.3 270.2 457.8 236.6 462.2 236.6"/>
        <polygon class="st80" points="466.7 236.6 425.1 270.2 420.7 270.2 462.2 236.6 466.7 236.6"/>
        <polygon class="st30" points="471.1 236.6 429.6 270.2 425.1 270.2 466.7 236.6 471.1 236.6"/>
        <polygon class="st37" points="475.5 236.6 434 270.2 429.6 270.2 471.1 236.6 475.5 236.6"/>
        <polygon class="st136" points="479.9 236.6 438.4 270.2 434 270.2 475.5 236.6 479.9 236.6"/>
        <polygon class="st24" points="484.3 236.6 442.8 270.2 438.4 270.2 479.9 236.6 484.3 236.6"/>
        <polygon class="st142" points="488.8 236.6 447.2 270.2 442.8 270.2 484.3 236.6 488.8 236.6"/>
        <polygon class="st114" points="493.2 236.6 451.7 270.2 447.2 270.2 488.8 236.6 493.2 236.6"/>
        <polygon class="st8" points="497.6 236.6 456.1 270.2 451.7 270.2 493.2 236.6 497.6 236.6"/>
        <polygon class="st8" points="501.1 236.6 459.6 270.2 456.1 270.2 497.6 236.6 501.1 236.6"/>
        <polygon class="st97" points="504.7 236.6 463.1 270.2 459.6 270.2 501.1 236.6 504.7 236.6"/>
        <polygon class="st104" points="508.2 236.6 466.7 270.2 463.1 270.2 504.7 236.6 508.2 236.6"/>
        <polygon class="st128" points="511.7 236.6 470.2 270.2 466.7 270.2 508.2 236.6 511.7 236.6"/>
        <polygon class="st0" points="515.3 236.6 473.8 270.2 470.2 270.2 511.7 236.6 515.3 236.6"/>
        <polygon class="st139" points="518.8 236.6 477.3 270.2 473.8 270.2 515.3 236.6 518.8 236.6"/>
        <polygon class="st10" points="522.3 236.6 480.8 270.2 477.3 270.2 518.8 236.6 522.3 236.6"/>
        <polygon class="st124" points="525.9 236.6 484.4 270.2 480.8 270.2 522.3 236.6 525.9 236.6"/>
        <polygon class="st50" points="529.4 236.6 487.9 270.2 484.4 270.2 525.9 236.6 529.4 236.6"/>
        <polygon class="st137" points="532.9 236.6 491.4 270.2 487.9 270.2 529.4 236.6 532.9 236.6"/>
        <polygon class="st95" points="536.5 236.6 495 270.2 491.4 270.2 532.9 236.6 536.5 236.6"/>
        <polygon class="st57" points="540 236.6 498.5 270.2 495 270.2 536.5 236.6 540 236.6"/>
        <polygon class="st133" points="543.5 236.6 502 270.2 498.5 270.2 540 236.6 543.5 236.6"/>
        <polygon class="st132" points="547.1 236.6 505.6 270.2 502 270.2 543.5 236.6 547.1 236.6"/>
        <polygon class="st31" points="550.6 236.6 509.1 270.2 505.6 270.2 547.1 236.6 550.6 236.6"/>
        <polygon class="st111" points="554.2 236.6 512.6 270.2 509.1 270.2 550.6 236.6 554.2 236.6"/>
        <polygon class="st55" points="557.7 236.6 516.2 270.2 512.6 270.2 554.2 236.6 557.7 236.6"/>
        <polygon class="st101" points="561.2 236.6 519.7 270.2 516.2 270.2 557.7 236.6 561.2 236.6"/>
        <polygon class="st52" points="564.8 236.6 523.2 270.2 519.7 270.2 561.2 236.6 564.8 236.6"/>
        <polygon class="st71" points="568.3 236.6 526.8 270.2 523.2 270.2 564.8 236.6 568.3 236.6"/>
        <polygon class="st90" points="571.8 236.6 530.3 270.2 526.8 270.2 568.3 236.6 571.8 236.6"/>
        <polygon class="st56" points="575.4 236.6 533.8 270.2 530.3 270.2 571.8 236.6 575.4 236.6"/>
        <polygon class="st35" points="578.9 236.6 537.4 270.2 533.8 270.2 575.4 236.6 578.9 236.6"/>
        <polygon class="st117" points="582.4 236.6 540.9 270.2 537.4 270.2 578.9 236.6 582.4 236.6"/>
        <polygon class="st63" points="586 236.6 544.4 270.2 540.9 270.2 582.4 236.6 586 236.6"/>
        <polygon class="st141" points="589.5 236.6 548 270.2 544.4 270.2 586 236.6 589.5 236.6"/>
        <polygon class="st70" points="593 236.6 551.5 270.2 548 270.2 589.5 236.6 593 236.6"/>
        <polygon class="st82" points="596.6 236.6 555.1 270.2 551.5 270.2 593 236.6 596.6 236.6"/>
        <polygon class="st99" points="600.1 236.6 558.6 270.2 555.1 270.2 596.6 236.6 600.1 236.6"/>
        <polygon class="st76" points="603.6 236.6 562.1 270.2 558.6 270.2 600.1 236.6 603.6 236.6"/>
        <polygon class="st54" points="607.2 236.6 565.7 270.2 562.1 270.2 603.6 236.6 607.2 236.6"/>
        <polygon class="st92" points="610.7 236.6 569.2 270.2 565.7 270.2 607.2 236.6 610.7 236.6"/>
        <polygon class="st62" points="614.2 236.6 572.7 270.2 569.2 270.2 610.7 236.6 614.2 236.6"/>
        <polygon class="st145" points="617.8 236.6 576.3 270.2 572.7 270.2 614.2 236.6 617.8 236.6"/>
        <polygon class="st89" points="621.3 236.6 579.8 270.2 576.3 270.2 617.8 236.6 621.3 236.6"/>
        <polygon class="st89" points="624.2 236.6 582.7 270.2 579.8 270.2 621.3 236.6 624.2 236.6"/>
        <polygon class="st21" points="627.1 236.6 585.5 270.2 582.7 270.2 624.2 236.6 627.1 236.6"/>
        <polygon class="st118" points="629.9 236.6 588.4 270.2 585.5 270.2 627.1 236.6 629.9 236.6"/>
        <polygon class="st66" points="632.8 236.6 591.3 270.2 588.4 270.2 629.9 236.6 632.8 236.6"/>
        <polygon class="st127" points="635.7 236.6 594.2 270.2 591.3 270.2 632.8 236.6 635.7 236.6"/>
        <polygon class="st42" points="638.5 236.6 597 270.2 594.2 270.2 635.7 236.6 638.5 236.6"/>
        <polygon class="st27" points="641.4 236.6 599.9 270.2 597 270.2 638.5 236.6 641.4 236.6"/>
        <polygon class="st86" points="644.3 236.6 602.8 270.2 599.9 270.2 641.4 236.6 644.3 236.6"/>
        <polygon class="st149" points="647.2 236.6 605.6 270.2 602.8 270.2 644.3 236.6 647.2 236.6"/>
        <polygon class="st14" points="650 236.6 608.5 270.2 605.6 270.2 647.2 236.6 650 236.6"/>
        <polygon class="st129" points="652.9 236.6 611.4 270.2 608.5 270.2 650 236.6 652.9 236.6"/>
        <polygon class="st134" points="655.8 236.6 614.3 270.2 611.4 270.2 652.9 236.6 655.8 236.6"/>
        <polygon class="st12" points="658.6 236.6 617.1 270.2 614.3 270.2 655.8 236.6 658.6 236.6"/>
        <polygon class="st39" points="661.5 236.6 620 270.2 617.1 270.2 658.6 236.6 661.5 236.6"/>
        <polygon class="st18" points="664.4 236.6 622.9 270.2 620 270.2 661.5 236.6 664.4 236.6"/>
        <polygon class="st7" points="667.3 236.6 625.8 270.2 622.9 270.2 664.4 236.6 667.3 236.6"/>
        <polygon class="st116" points="670.1 236.6 628.6 270.2 625.8 270.2 667.3 236.6 670.1 236.6"/>
        <polygon class="st9" points="673 236.6 631.5 270.2 628.6 270.2 670.1 236.6 673 236.6"/>
        <polygon class="st59" points="675.9 236.6 634.4 270.2 631.5 270.2 673 236.6 675.9 236.6"/>
        <polygon class="st105" points="678.8 236.6 637.2 270.2 634.4 270.2 675.9 236.6 678.8 236.6"/>
        <polygon class="st43" points="681.6 236.6 640.1 270.2 637.2 270.2 678.8 236.6 681.6 236.6"/>
        <polygon class="st143" points="684.5 236.6 643 270.2 640.1 270.2 681.6 236.6 684.5 236.6"/>
        <polygon class="st38" points="687.4 236.6 645.9 270.2 643 270.2 684.5 236.6 687.4 236.6"/>
        <polygon class="st88" points="690.2 236.6 648.7 270.2 645.9 270.2 687.4 236.6 690.2 236.6"/>
        <polygon class="st2" points="693.1 236.6 651.6 270.2 648.7 270.2 690.2 236.6 693.1 236.6"/>
        <polygon class="st122" points="696 236.6 654.5 270.2 651.6 270.2 693.1 236.6 696 236.6"/>
        <polygon class="st138" points="698.9 236.6 657.3 270.2 654.5 270.2 696 236.6 698.9 236.6"/>
        <polygon class="st64" points="701.7 236.6 660.2 270.2 657.3 270.2 698.9 236.6 701.7 236.6"/>
        <polygon class="st123" points="704.6 236.6 663.1 270.2 660.2 270.2 701.7 236.6 704.6 236.6"/>
        <polygon class="st4" points="707.5 236.6 666 270.2 663.1 270.2 704.6 236.6 707.5 236.6"/>
        <polygon class="st120" points="710.3 236.6 668.8 270.2 666 270.2 707.5 236.6 710.3 236.6"/>
        <polygon class="st140" points="713.2 236.6 671.7 270.2 668.8 270.2 710.3 236.6 713.2 236.6"/>
        <polygon class="st125" points="716.1 236.6 674.6 270.2 671.7 270.2 713.2 236.6 716.1 236.6"/>
        <polygon class="st36" points="719 236.6 677.4 270.2 674.6 270.2 716.1 236.6 719 236.6"/>
        <polygon class="st19" points="721.8 236.6 680.3 270.2 677.4 270.2 719 236.6 721.8 236.6"/>
        <polygon class="st53" points="724.7 236.6 683.2 270.2 680.3 270.2 721.8 236.6 724.7 236.6"/>
        <polygon class="st65" points="727.6 236.6 686.1 270.2 683.2 270.2 724.7 236.6 727.6 236.6"/>
        <polygon class="st67" points="730.5 236.6 688.9 270.2 686.1 270.2 727.6 236.6 730.5 236.6"/>
        <polygon class="st78" points="733.3 236.6 691.8 270.2 688.9 270.2 730.5 236.6 733.3 236.6"/>
        <polygon class="st45" points="736.2 236.6 694.7 270.2 691.8 270.2 733.3 236.6 736.2 236.6"/>
        <polygon class="st41" points="739.1 236.6 697.6 270.2 694.7 270.2 736.2 236.6 739.1 236.6"/>
        <polygon class="st152" points="741.9 236.6 700.4 270.2 697.6 270.2 739.1 236.6 741.9 236.6"/>
        <polygon class="st26" points="744.8 236.6 703.3 270.2 700.4 270.2 741.9 236.6 744.8 236.6"/>
        <polygon class="st49" points="747.7 236.6 706.2 270.2 703.3 270.2 744.8 236.6 747.7 236.6"/>
        <polygon class="st68" points="750.6 236.6 709 270.2 706.2 270.2 747.7 236.6 750.6 236.6"/>
        <polygon class="st6" points="753.4 236.6 711.9 270.2 709 270.2 750.6 236.6 753.4 236.6"/>
        <polygon class="st112" points="756.3 236.6 714.8 270.2 711.9 270.2 753.4 236.6 756.3 236.6"/>
        <polygon class="st151" points="759.2 236.6 717.7 270.2 714.8 270.2 756.3 236.6 759.2 236.6"/>
        <polygon class="st121" points="762 236.6 720.5 270.2 717.7 270.2 759.2 236.6 762 236.6"/>
        <polygon class="st28" points="764.9 236.6 723.4 270.2 720.5 270.2 762 236.6 764.9 236.6"/>
        <polygon class="st5" points="767.8 236.6 726.3 270.2 723.4 270.2 764.9 236.6 767.8 236.6"/>
        <polygon class="st85" points="770.7 236.6 729.1 270.2 726.3 270.2 767.8 236.6 770.7 236.6"/>
        <polygon class="st69" points="772.6 236.6 772.9 237.1 732 270.2 729.1 270.2 770.7 236.6 772.6 236.6"/>
        <polygon class="st81" points="772.9 237.1 774.1 238.5 734.9 270.2 732 270.2 772.9 237.1"/>
        <polygon class="st15" points="774.1 238.5 775.2 239.9 737.8 270.2 734.9 270.2 774.1 238.5"/>
        <polygon class="st46" points="775.2 239.9 775.3 240 775.3 242.1 740.6 270.2 737.8 270.2 775.2 239.9"/>
        <polygon class="st46" points="740.6 270.2 775.3 242.1 775.3 270.2 740.6 270.2"/>
      </g>
    </g>
    <g>
      <polygon class="st47" points="195.2 254.3 193.8 234.5 186.3 252.5 177.9 242.2 180.3 255 165.8 246.8 174.9 259.6 155.8 263.4 175.7 267.2 163.1 280.5 180.4 273.3 176.3 290 186.4 276.9 197.3 291.9 195.4 274.7 211.1 281.3 199.6 269.2 214.2 267 200.6 261.2 211.4 250.7 195.2 254.3"/>
      <polygon class="st103" points="191.7 258.3 191.8 247.1 186.7 257.2 181.9 251.6 182.4 258.5 174.3 254.4 179.5 261.3 169.9 263.5 179.9 265.2 173.3 273.3 183.2 268.8 181.1 279.1 187 271.5 193.4 281.8 191.4 269.7 199.6 273.2 193.8 266.5 201.1 265.3 194.3 262.3 200.4 256.9 191.7 258.3"/>
      <polygon class="st75" points="189 261.2 189.1 256.5 186.9 260.8 184.9 258.4 185.1 261.3 181.6 259.6 183.9 262.5 179.8 263.4 184 264.1 181.2 267.6 185.4 265.7 184.5 270 187 266.8 189.7 271.2 188.9 266.1 192.4 267.5 189.9 264.7 193 264.2 190.1 262.9 192.7 260.6 189 261.2"/>
    </g>
    <path d="M312.6,214.8H23.3c-7.9,0-14.3-6.4-14.3-14.3v-46.1c0-7.9,6.4-14.3,14.3-14.3h289.4c7.9,0,14.3,6.4,14.3,14.3v46.1c0,7.9-6.4,14.3-14.3,14.3ZM23.3,141c-7.4,0-13.3,6-13.3,13.3v46.1c0,7.4,6,13.3,13.3,13.3h289.4c7.4,0,13.3-6,13.3-13.3v-46.1c0-7.4-6-13.3-13.3-13.3H23.3Z"/>
    <g>
      <path class="st46" d="M56.9,91.8c1.9.2,5-4.1-1.1-4.8-18-2.3-38.4-14.7-39.5-4.9-1.3,10.8,11.8,6.4,40.6,9.8h0Z"/>
      <path class="st46" d="M69.7,82.6c.7-.9.2-2.9-.7-3-.2,0-.4-.4-.6-.9-.7-2.6-4.8-3.5-21.6-21.2C10.4,19,8.6,17.2,7.3,16.8c-5.3-1.7-9.8,7.5-5.7,11.5.1.1,64.1,59.5,68,54.2h0Z"/>
      <path class="st46" d="M64.2,38c-3.2-8.7-3.8-9.4-7.3-8.2-4.2,1.5-6.2,4.8-4.9,8.2,1.2,3.2,17.2,29.8,20.6,34.3,1.7,2.2,4,2.2,4.5-.1.6-2.9-4.8-11.8-12.9-34.3Z"/>
    </g>
    <g>
      <g>
        <g>
          <ellipse class="st75" cx="740.6" cy="38.2" rx="46.3" ry="14" transform="translate(14.7 190.1) rotate(-14.8)"/>
          <path d="M698,53.1c0,0-.2,0-.2,0-1.2-.9-1.9-1.9-2.2-3-1-3.8,2.8-8.5,10.7-13.4,7.8-4.8,18.7-9.2,30.7-12.4s23.6-4.7,32.8-4.4c9.3.3,14.9,2.6,15.9,6.4.3,1,.2,2-.2,3.1,0,.1-.2.2-.4.2-.2,0-.2-.2-.2-.4.3-1,.4-1.9.2-2.8-.9-3.4-6.5-5.6-15.4-5.9-9.1-.3-20.7,1.2-32.6,4.4-11.9,3.1-22.8,7.5-30.5,12.3-7.6,4.7-11.4,9.3-10.5,12.7.3,1,2,3.2,1.9,3.2h0Z"/>
          <g>
            <path class="st75" d="M767.1,28.4l-13.8-24.5c-1.6-2.7-4.8-4.1-7.8-3.3l-27.7,7.3c-3,.8-5.2,3.6-5.2,6.7v28.1s.2.8.2.8c1.2,4.7,14.5,5.3,29.6,1.3,15.1-4,26.3-11,25.1-15.7,0-.3-.2-.6-.4-.8h0Z"/>
            <path d="M742.4,45.2c-15.5,4.1-28.6,3.4-29.9-1.5l-.2-.8h0c0,0,0-28.2,0-28.2,0-3.3,2.2-6.1,5.4-7l27.7-7.3c3.2-.8,6.5.6,8.1,3.4l13.8,24.5c.2.3.3.6.4.9,1.3,4.9-9.8,12-25.3,16.1h0ZM712.9,42.8l.2.8c.6,2.1,4,3.5,9.3,3.7,5.6.2,12.6-.7,19.9-2.6,7.3-1.9,13.9-4.6,18.6-7.5,4.5-2.9,6.8-5.7,6.3-7.8,0-.2-.2-.5-.3-.7h0s-13.8-24.5-13.8-24.5c-1.5-2.6-4.6-3.9-7.5-3.2l-27.7,7.3c-2.9.8-5,3.4-5,6.4v28.1s0,0,0,0Z"/>
          </g>
          <path d="M734.1,13.4c-1,.3-2.2.4-3.3.4-1.8-.1-3.5-.7-5.2-1.3-.6-.2-1.2-.4-1.8-.6-2.8-.9-5-.9-6.7,0-.1,0-.3,0-.4-.1s0-.3.1-.4c1.8-.9,4.2-.9,7.2,0,.6.2,1.2.4,1.8.6,1.6.6,3.3,1.2,5,1.3,2.5.1,5.3-.8,7.9-2.7,2.3-1.7,4.2-4,6.1-6.1,0-.1.3-.1.4,0s.1.3,0,.4c-1.9,2.2-3.8,4.5-6.2,6.2-1.2.9-3,1.9-5,2.5h0Z"/>
        </g>
        <path d="M714.6,56.7c-5.8,0-12-.8-17-3.4l.2-.4c12.3,6.4,32.9,1.5,33.1,1.5.4,0,37.4-5.4,54-24.9l.4.3c-16.7,19.7-53.9,25-54.3,25.1-.1,0-7.7,1.8-16.4,1.8Z"/>
      </g>
      <path class="st3" d="M735.1,17.4l.4.3c3.9,3.2,9,4.6,14.1,3.8h.5c0,0-.3.3-.3.3-3.2,3.9-4.6,9.1-3.8,14.1v.5c0,0-.3-.3-.3-.3-3.9-3.2-9-4.6-14.1-3.8h-.5c0,0,.3-.3.3-.3,3.2-3.9,4.6-9.1,3.8-14.1,0,0,0-.5,0-.5Z"/>
    </g>
    <g>
      <g>
        <g>
          <g>
            <path d="M68.2,316.9c-.1,0-.2-.2-.2-.4l7.4-19c1.7-4.3,5.9-7,10.5-6.8.2,0,.3.1.3.3s-.1.3-.3.3c-4.3-.2-8.3,2.4-9.9,6.4l-7.4,19c0,.1-.2.2-.3.1h0Z"/>
            <path d="M87.6,324.5c-.1,0-.2-.2-.2-.4l7.4-19c1.6-4.8-.3-10-4.3-12.4-3.2-1.9-7.3-1.8-10.7.2-.1,0-.3,0-.4,0s0-.3,0-.4c3.6-2.1,7.9-2.2,11.3-.2,4.3,2.5,6.2,8,4.5,13.1l-7.4,19c0,.1-.2.2-.3.1h0Z"/>
          </g>
          <g>
            <polygon class="st75" points="41.2 368.6 74.3 381.5 83.8 385.3 92.3 388.6 110.4 320.4 71.1 305 41.2 368.6"/>
            <path d="M92.2,388.8l-18-7.1c-.1,0-.2-.2-.2-.4s.2-.2.3-.1l17.8,7,17.9-67.7-3.5-1.4c-.1,0-.2-.2-.2-.4s.2-.2.3-.1l3.7,1.5c.1,0,.2.2.2.3l-18.1,68.2c0,0,0,.1-.1.2s-.2,0-.2,0Z"/>
            <g>
              <polygon class="st75" points="20.4 360.4 74.3 381.5 106.6 318.9 56.2 299.2 20.4 360.4"/>
              <path d="M74.2,381.8l-53.9-21.1c0,0-.1,0-.2-.2s0-.2,0-.2l35.9-61.2c0-.1.2-.2.3-.1l50.4,19.7c0,0,.1,0,.2.2s0,.1,0,.2l-32.3,62.6c0,.1-.2.2-.3.1h0ZM20.8,360.3l53.4,20.9,32.1-62.1-49.9-19.5-35.6,60.8h0Z"/>
            </g>
          </g>
          <path class="st84" d="M68.2,311.2c-.4,1-1.5,1.5-2.6,1.1s-1.5-1.5-1.1-2.6c.4-1,1.5-1.5,2.6-1.1,1,.4,1.5,1.5,1.1,2.6Z"/>
          <path class="st84" d="M87.6,318.8c-.4,1-1.5,1.5-2.6,1.1-1-.4-1.5-1.5-1.1-2.6s1.5-1.5,2.6-1.1,1.5,1.5,1.1,2.6Z"/>
          <path d="M85.7,318.3c-.1,0-.2-.2-.2-.4l5.1-12.9c2-5.2-.6-11.1-5.8-13.1-5.2-2-11.1.5-13.2,5.7l-5.1,12.9c0,.1-.2.2-.3.1s-.2-.2-.2-.4l5.1-12.9c2.2-5.5,8.4-8.2,13.9-6,5.5,2.1,8.2,8.4,6.1,13.8l-5.1,12.9c0,.1-.2.2-.3.1h0Z"/>
        </g>
        <g>
          <g>
            <polygon class="st75" points="109.5 305.1 101.5 305.8 96.8 317.9 102.2 323.8 126.7 333.5 134.1 314.7 109.5 305.1"/>
            <path d="M126.7,333.6l-24.5-9.6s0,0,0,0l-5.4-5.9c0,0,0-.1,0-.2l4.8-12.2c0,0,0-.1.2-.1l8-.6s0,0,0,0l24.5,9.6c.1,0,.1.1.1.2l-7.3,18.7c0,.1-.2.1-.2.1h0ZM102.3,323.7l24.3,9.5,7.2-18.4-24.3-9.5-7.8.6-4.7,11.9,5.3,5.8h0Z"/>
          </g>
          <g>
            <path class="st75" d="M111.5,316.7c-.4,1.1-1.8,1.7-2.9,1.3s-1.7-1.8-1.3-2.9c.4-1.1,1.8-1.7,2.9-1.3s1.7,1.8,1.3,2.9Z"/>
            <path d="M108.5,318.2c-1.3-.5-1.9-2-1.4-3.2s2-1.9,3.2-1.4,1.9,2,1.4,3.2-2,1.9-3.2,1.4ZM110.1,314c-1-.4-2.2.1-2.6,1.1s.1,2.2,1.1,2.5,2.2-.1,2.6-1.1-.1-2.2-1.1-2.5Z"/>
          </g>
          <path d="M86.1,309.5c-.3-.1-.5-.3-.7-.5-.5-.5-.8-1.3-.7-1.9.2-1.3,1.4-2.2,2.5-2.5,1.1-.3,2.3-.1,3.5,0,7.4,1.4,14.1,5.2,18.6,10.6,0,.1,0,.3,0,.4s-.3,0-.4,0c-4.5-5.4-11-9.1-18.3-10.5-1.2-.2-2.3-.3-3.2,0-.9.2-1.9,1-2.1,2,0,.5.1,1.1.5,1.5.3.3.7.5,1.1.4.2,0,.3,0,.3.2,0,.1,0,.3-.2.3-.3,0-.6,0-.8-.1h0Z"/>
          <path d="M90.2,310.2c0,0-.2-.1-.2-.3,0-.1.1-.3.3-.3,2.7.1,5.4.8,7.7,2.1.1,0,.2.2.1.4,0,.1-.2.2-.4.1-2.3-1.2-4.9-1.9-7.5-2,0,0,0,0,0,0h0Z"/>
        </g>
      </g>
      <path class="st3" d="M70.2,328.1l-.2,2.5c-.4,5.1,1.4,10.1,4.9,13.7l1.8,1.8-2.5-.2c-5.1-.4-10.1,1.4-13.7,4.9l-1.8,1.8.2-2.5c.4-5.1-1.4-10.1-4.9-13.7l-1.8-1.8,2.5.2c5.1.4,10.1-1.4,13.7-4.9,0,0,1.8-1.8,1.8-1.8Z"/>
    </g>
    <g>
      <g>
        <path d="M839.7,73.1l17.4,9.5,3.7,19h0c.1.6.6,1,1.5.7l13.7-9.3,7.4,4.1c.4.2.9.1,1.2-.2l31-37.5h0s0,0,0,0c.5-.7,0-1.7-.9-1.5,0,0,0,0,0,0l-74.8,13.7c-.9.2-1.1,1.4-.3,1.8h0ZM883.7,94.9l-18.4-10.1.2-1.3c15.5-7.4,41-19.8,45.9-22.1,0,0-27.7,33.5-27.7,33.5ZM905,61.4l-47.6,18.4c-.2,0-.4.2-.5.4l-13.8-7.5,61.9-11.3Z"/>
        <path d="M795.7,122.7c1.5-.8-.8-2-1.2-6.5-.1-1.3-2.1-1.1-1.9.2.2,1.8,1.4,7.3,3.2,6.3h0Z"/>
        <path d="M785,142.1c2,.6,3.9,1.1,5.8,1.5,0,0,0,0,0,0,.5,0,1-.3,1.1-.8,0-.5-.2-1-.8-1.1-1.8-.4-3.7-.8-5.6-1.4-.5-.1-1.1.1-1.2.6-.2.5.1,1.1.6,1.2h0Z"/>
        <path d="M823.5,125.8c-.4,1.2,1.4,1.9,1.8.6.7-2,1.1-4.1,1.2-6,0-.5-.4-1-.9-1-1.7,0-.5,1.6-2.1,6.4Z"/>
        <path d="M861,106c-.5-.2-1.1.1-1.2.6-.6,1.8-1.3,3.6-2.2,5.3-.2.5,0,1.1.4,1.3.5.2,1.1,0,1.3-.4.9-1.8,1.7-3.7,2.3-5.5.2-.5-.1-1.1-.6-1.2Z"/>
        <path d="M824,114.8c.3,1.2,2.2.8,1.9-.5-.7-1.9-2.1-7-3.8-5.9-.5.3-.6.9-.3,1.3,1.7,2.6,2.2,4.8,2.2,5.1h0Z"/>
        <path d="M854.7,116.8c-1.1,1.6-2.3,3.1-3.6,4.4-.4.4-.3,1,0,1.4.4.4,1,.3,1.4,0,1.4-1.4,2.6-3,3.8-4.7.3-.4.2-1.1-.2-1.4s-1-.2-1.4.2h0Z"/>
        <path d="M832.1,134.6c2-.5,3.9-1.1,5.7-1.8.5-.2.7-.8.5-1.3-.6-1.4-1.5,0-6.7,1.2-1.2.3-.8,2.2.5,1.9h0Z"/>
        <path d="M846.9,125.1c-1.5,1.2-3.1,2.3-4.7,3.3-.5.3-.6.9-.3,1.3.3.5.9.6,1.3.4,1.7-1,3.4-2.2,4.9-3.4.4-.3.5-.9.2-1.4-.3-.4-1-.5-1.4-.2h0Z"/>
        <path d="M793.9,111.4c1.6.6,1-1.8,4.2-5.1.9-.9-.5-2.3-1.4-1.4-1.5,1.5-2.7,3.3-3.4,5.2-.2.5,0,1.1.6,1.3h0Z"/>
        <path d="M818.1,105.6c1,.8,2.2-.7,1.2-1.5-1.1-.9-5.9-4.4-6.6-2.5-.6,1.5,1.6.9,5.3,4h0Z"/>
        <path d="M808.4,133.4c.2,0,4,1.4,5.9,1.6,1.2.1,1.5-1.7.3-1.9-3.2-.6-5.3-1.4-5.5-1.5-1.2-.4-1.9,1.4-.7,1.8h0Z"/>
        <path d="M818.9,136.6c.3-.3.6-.6,1-1,.7.3,5.2,0,6.3,0,.5,0,.9-.5.9-1.1-.1-1.4-1.3-.6-5.7-.7,1-1.3,2.1-2.6,1-3.2-1.4-.9-1.2,1-4.9,4.7-.9.9.5,2.3,1.4,1.4h0Z"/>
        <path d="M796.6,144.4h0c2.1.1,4.1,0,6-.1.5,0,.9-.5.9-1.1,0-.5-.5-.9-1.1-.9-1.8.2-3.7.2-5.7.1-.5,0-1,.4-1,.9,0,.5.4,1,.9,1h0Z"/>
        <path d="M803.4,131c.4,0,.7-.1.9-.5.8-1.4-1.3-1.3-4.8-4.8-.9-.9-2.3.5-1.4,1.4,1,1,4.3,3.8,5.2,3.8h0Z"/>
        <path d="M802.6,103.2c4.4-2,6.3-.5,6.2-2.2,0-2.1-5.5-.2-7,.5-1.2.5-.4,2.3.8,1.8Z"/>
        <path d="M813.1,138.7c-4.4,2.8-6.2,2.1-5.7,3.6.2.5.7.8,1.2.6,1.9-.6,3.8-1.5,5.5-2.6,1.1-.7,0-2.3-1-1.7h0Z"/>
      </g>
      <g class="st61">
        <rect class="st3" x="894.2" y="64.8" width="6.5" height="32.7"/>
        <rect class="st3" x="893.3" y="64.8" width=".9" height="32.7"/>
        <rect class="st79" x="892.4" y="64.8" width=".9" height="32.7"/>
        <rect class="st98" x="891.4" y="64.8" width=".9" height="32.7"/>
        <rect class="st110" x="890.5" y="64.8" width=".9" height="32.7"/>
        <rect class="st155" x="889.6" y="64.8" width=".9" height="32.7"/>
        <rect class="st106" x="888.6" y="64.8" width=".9" height="32.7"/>
        <rect class="st83" x="887.7" y="64.8" width=".9" height="32.7"/>
        <rect class="st60" x="886.8" y="64.8" width=".9" height="32.7"/>
        <rect class="st147" x="885.8" y="64.8" width=".9" height="32.7"/>
        <rect class="st20" x="884.9" y="64.8" width=".9" height="32.7"/>
        <rect class="st94" x="884" y="64.8" width=".9" height="32.7"/>
        <rect class="st25" x="883.1" y="64.8" width=".9" height="32.7"/>
        <rect class="st102" x="882.1" y="64.8" width=".9" height="32.7"/>
        <rect class="st102" x="881.5" y="64.8" width=".7" height="32.7"/>
        <rect class="st34" x="880.8" y="64.8" width=".7" height="32.7"/>
        <rect class="st33" x="880.1" y="64.8" width=".7" height="32.7"/>
        <rect class="st96" x="879.5" y="64.8" width=".7" height="32.7"/>
        <rect class="st77" x="878.8" y="64.8" width=".7" height="32.7"/>
        <rect class="st119" x="878.2" y="64.8" width=".7" height="32.7"/>
        <rect class="st11" x="877.5" y="64.8" width=".7" height="32.7"/>
        <rect class="st131" x="876.8" y="64.8" width=".7" height="32.7"/>
        <rect class="st17" x="876.2" y="64.8" width=".7" height="32.7"/>
        <rect class="st23" x="875.5" y="64.8" width=".7" height="32.7"/>
        <rect class="st113" x="874.9" y="64.8" width=".7" height="32.7"/>
        <rect class="st148" x="874.2" y="64.8" width=".7" height="32.7"/>
        <rect class="st100" x="873.5" y="64.8" width=".7" height="32.7"/>
        <rect class="st91" x="872.9" y="64.8" width=".7" height="32.7"/>
        <rect class="st146" x="872.2" y="64.8" width=".7" height="32.7"/>
        <rect class="st109" x="871.6" y="64.8" width=".7" height="32.7"/>
        <rect class="st32" x="870.9" y="64.8" width=".7" height="32.7"/>
        <rect class="st108" x="870.2" y="64.8" width=".7" height="32.7"/>
        <rect class="st16" x="869.6" y="64.8" width=".7" height="32.7"/>
        <rect class="st126" x="868.9" y="64.8" width=".7" height="32.7"/>
        <rect class="st73" x="868.3" y="64.8" width=".7" height="32.7"/>
        <rect class="st74" x="867.6" y="64.8" width=".7" height="32.7"/>
        <rect class="st87" x="866.9" y="64.8" width=".7" height="32.7"/>
        <rect class="st29" x="866.3" y="64.8" width=".7" height="32.7"/>
        <rect class="st72" x="865.6" y="64.8" width=".7" height="32.7"/>
        <rect class="st107" x="865" y="64.8" width=".7" height="32.7"/>
        <rect class="st130" x="864.3" y="64.8" width=".7" height="32.7"/>
        <rect class="st51" x="863.6" y="64.8" width=".7" height="32.7"/>
        <rect class="st135" x="863" y="64.8" width=".7" height="32.7"/>
        <rect class="st13" x="862.3" y="64.8" width=".7" height="32.7"/>
        <rect class="st44" x="861.7" y="64.8" width=".7" height="32.7"/>
        <rect class="st153" x="861" y="64.8" width=".7" height="32.7"/>
        <rect class="st40" x="860.3" y="64.8" width=".7" height="32.7"/>
        <path class="st40" d="M860.3,64.8v32.7-32.7Z"/>
      </g>
    </g>
    <path d="M680.8,319.1c-1-.7-1.4-2-1.1-3.3.3-1,1-1.8,2-2.2l27.8-9.2,1.2-4.8c0-.1,0-.3.2-.4.1,0,.3,0,.4,0,2.6.7,5.2-.8,5.9-3.5.5-1.9-.2-4-1.8-5.1-.5-.4-1.1-.6-1.7-.8-2.6-.7-5.2.8-5.9,3.5,0,.1,0,.3-.2.4-.1,0-.3,0-.4,0,0,0-.2,0-.2-.1-.2-.1-.2-.4-.2-.5.4-1.5,1.4-2.8,2.7-3.6,1.4-.8,3-1,4.5-.6.7.2,1.4.5,2,1,2,1.4,2.8,3.9,2.2,6.3-.8,2.9-3.4,4.7-6.3,4.5h-.4s-1.1,4.1-1.1,4.1l19.6,21.6c.8.9,1,2,.8,3-.4,1.6-2,2.6-3.6,2.2l-45.7-12c-.3,0-.6-.2-.8-.4h0ZM682,314.7c-.7.3-1.2.8-1.3,1.4-.2.9,0,1.7.8,2.2.2.2.5.3.7.4l45,11.8c1.1.3,2.2-.3,2.7-1.5.2-.7,0-1.5-.6-2.1l-19.5-21.5-27.7,9.3h0Z"/>
  </g>
</svg>