<?xml version="1.0" encoding="UTF-8"?>
<svg id="Layer_2" xmlns="http://www.w3.org/2000/svg" xmlns:xlink="http://www.w3.org/1999/xlink" version="1.1" viewBox="0 0 1070.1 419">
  <!-- Generator: Adobe Illustrator 29.5.1, SVG Export Plug-In . SVG Version: 2.1.0 Build 141)  -->
  <defs>
    <style>
      .st0 {
        fill: none;
      }

      .st1 {
        fill: #ffbd00;
      }

      .st2 {
        fill: #f1e8f9;
      }

      .st3 {
        fill: #647a87;
      }

      .st4 {
        opacity: .1;
      }

      .st4, .st5 {
        isolation: isolate;
      }

      .st6 {
        fill: #f8ac13;
      }

      .st7 {
        fill: #e0e0e0;
        fill-rule: evenodd;
      }

      .st8 {
        fill: #f2992b;
      }

      .st9 {
        fill: #f5a220;
      }

      .st10 {
        fill: #f8ab15;
      }

      .st11 {
        fill: #fbb40a;
      }

      .st12 {
        fill: #5f6566;
      }

      .st13 {
        fill: #f7aa16;
      }

      .st14 {
        fill: #d0d0d0;
      }

      .st15 {
        fill: #fab20c;
      }

      .st16 {
        fill: #231f20;
      }

      .st17 {
        fill: #f49e25;
      }

      .st18 {
        fill: #f6a41e;
      }

      .st19 {
        fill: #f9af0f;
      }

      .st20 {
        fill: #fab00e;
      }

      .st21 {
        fill: #f1972e;
      }

      .st22 {
        fill: #f2992c;
      }

      .st23 {
        fill: #66f;
      }

      .st24 {
        fill: #3e4347;
      }

      .st25 {
        fill: #d8d8d8;
      }

      .st26 {
        fill: #f29b29;
      }

      .st27 {
        fill: #fcb608;
      }

      .st28 {
        clip-path: url(#clippath-1);
      }

      .st29 {
        clip-path: url(#clippath-2);
      }

      .st30 {
        fill: #f39e26;
      }

      .st31 {
        fill: #f4a122;
      }

      .st32 {
        fill: #f4a023;
      }

      .st33 {
        fill: #fff;
      }

      .st34 {
        fill: #f9ae11;
      }

      .st35 {
        fill: #ffbc01;
      }

      .st36 {
        fill: #363b3d;
      }

      .st37 {
        fill: #fdb707;
      }

      .st38 {
        fill: #f49f24;
      }

      .st39 {
        fill: #42ade2;
      }

      .st40 {
        fill: #c28fef;
      }

      .st41 {
        fill: #f6a61a;
      }

      .st42 {
        fill: #fbb30b;
      }

      .st43 {
        fill: #f9af10;
      }

      .st44 {
        fill: #febb02;
      }

      .st45 {
        fill: #f7a719;
      }

      .st46 {
        fill: #fab10d;
      }

      .st47 {
        fill: #fdb805;
      }

      .st48 {
        fill: #f39d27;
      }

      .st49 {
        fill: #f5a31f;
      }

      .st50 {
        fill: #f6a51c;
      }

      .st51 {
        fill: #feba03;
      }

      .st52 {
        fill: #d2d3d5;
      }

      .st53 {
        fill: #f7a917;
      }

      .st54 {
        fill: #ed4c5c;
      }

      .st55 {
        fill: #f9ad12;
      }

      .st56 {
        fill: #f5a221;
      }

      .st57 {
        fill: #222526;
      }

      .st58 {
        fill: #f39c28;
      }

      .st59 {
        fill: #f8ab14;
      }

      .st60 {
        fill: #f29a2a;
      }

      .st61 {
        fill: #4e5c66;
      }

      .st62 {
        clip-path: url(#clippath);
      }

      .st63 {
        fill: #f6a61b;
      }

      .st64 {
        fill: #fcb509;
      }

      .st65 {
        fill: #f7a818;
      }

      .st66 {
        fill: #f1982d;
      }

      .st67 {
        fill: #fdb904;
      }
    </style>
    <clipPath id="clippath">
      <path class="st0" d="M511.3,44.1c-4.8-22.8-24.8-41-50.4-43.8-25.6-2.8-49,10.7-58.7,31.9h0c6.4-4.9,13.2-2.8,19.5,2h.2c8-6,16.5-2.7,21.6,2.4h0s.7.5.7.5c9.8-3.5,17.7-3.9,25.8,2.4,6.3-3.2,14.6-4,21.6,2.3h0s.1,0,.1,0c5.4-3.4,13.4-2.9,19.4,2.1h.1c0,0,0,0,0,0Z"/>
    </clipPath>
    <clipPath id="clippath-1">
      <path class="st0" d="M204.3,319.3c-.3-4.4-.3-16.5,10.1-18.5,0,0-7.8-3-10.9-21.7.2,1.3,2.9,18-10.7,21.7,0,0,9.4,1,11.5,18.5h0Z"/>
    </clipPath>
    <clipPath id="clippath-2">
      <path class="st0" d="M232.3,326.7c-.2-1.9-.6-9.4,5.5-10.6,0,0-4.3-1.6-6-12,0,0,1.9,9.9-5.9,12,0,0,5.3.6,6.4,10.6Z"/>
    </clipPath>
  </defs>
  <g id="Layer_1-2">
    <g>
      <g>
        <g>
          <path class="st33" d="M424.3,72.3l27.4,11,29.2,1.1c0,0,0,0,0,0l-27.4-11-29.2-.9h0Z"/>
          <polygon class="st2" points="442.7 125.6 451.7 83.3 424.2 72.3 415.2 114.4 442.7 125.6"/>
          <polygon class="st33" points="442.7 125.6 451.7 83.3 481.1 84.4 472.1 126.6 442.7 125.6"/>
          <polygon class="st2" points="443.9 73.1 471 84.1 463 83.9 435.9 72.9 443.9 73.1"/>
          <path d="M451.6,83.8s0,0,0,0l-27.4-11c-.2,0-.3-.2-.2-.4,0-.2.2-.3.4-.3l29.2.9s0,0,.1,0l27.4,11c.2,0,.3.3.3.5s-.2.4-.5.3l-29.2-1.1h0ZM426.5,72.8l25.3,10.2,27.2,1-25.6-10.3-27-.9h0ZM480.8,84.7h0ZM480.9,84h0Z"/>
          <path d="M442.7,125.9c0,0-.2,0-.2-.1,0,0-.1-.2,0-.3l9-42.2c0-.2.2-.3.4-.3l29.4,1.1c.1,0,.2,0,.3.2,0,0,.1.2,0,.3l-9,42.2c0,.2-.2.3-.4.3l-29.4-1h0ZM452,83.7l-8.8,41.5,28.6.9,8.8-41.4-28.6-1h0Z"/>
          <path d="M442.7,125.9s0,0,0,0l-27.5-11.2c-.2,0-.3-.2-.2-.4l9-42.1c0-.1.1-.2.2-.3s.2,0,.3,0l27.5,11c.2,0,.3.2.2.4l-9,42.2c0,.1-.1.2-.2.3,0,0-.2,0-.3,0h0ZM415.7,114.2l26.8,10.8,8.8-41.5-26.8-10.7-8.8,41.4Z"/>
        </g>
        <g>
          <g class="st62">
            <rect class="st1" x="402.2" y="-2.4" width="17.5" height="46.6"/>
            <rect class="st1" x="419.7" y="-2.4" width="2.5" height="46.6"/>
            <rect class="st35" x="422.2" y="-2.4" width="2.5" height="46.6"/>
            <rect class="st44" x="424.7" y="-2.4" width="2.5" height="46.6"/>
            <rect class="st51" x="427.2" y="-2.4" width="2.5" height="46.6"/>
            <rect class="st67" x="429.7" y="-2.4" width="2.5" height="46.6"/>
            <rect class="st47" x="432.3" y="-2.4" width="2.5" height="46.6"/>
            <rect class="st37" x="434.8" y="-2.4" width="2.5" height="46.6"/>
            <rect class="st27" x="437.3" y="-2.4" width="2.5" height="46.6"/>
            <rect class="st64" x="439.8" y="-2.4" width="2.5" height="46.6"/>
            <rect class="st11" x="442.3" y="-2.4" width="2.5" height="46.6"/>
            <rect class="st42" x="444.8" y="-2.4" width="2.5" height="46.6"/>
            <rect class="st15" x="447.4" y="-2.4" width="2.5" height="46.6"/>
            <rect class="st46" x="449.9" y="-2.4" width="2.5" height="46.6"/>
            <rect class="st46" x="452.4" y="-2.4" width="1.8" height="46.6"/>
            <rect class="st20" x="454.2" y="-2.4" width="1.8" height="46.6"/>
            <rect class="st19" x="456" y="-2.4" width="1.8" height="46.6"/>
            <rect class="st43" x="457.8" y="-2.4" width="1.8" height="46.6"/>
            <rect class="st34" x="459.5" y="-2.4" width="1.8" height="46.6"/>
            <rect class="st55" x="461.3" y="-2.4" width="1.8" height="46.6"/>
            <rect class="st6" x="463.1" y="-2.4" width="1.8" height="46.6"/>
            <rect class="st59" x="464.9" y="-2.4" width="1.8" height="46.6"/>
            <rect class="st10" x="466.7" y="-2.4" width="1.8" height="46.6"/>
            <rect class="st13" x="468.5" y="-2.4" width="1.8" height="46.6"/>
            <rect class="st53" x="470.3" y="-2.4" width="1.8" height="46.6"/>
            <rect class="st65" x="472" y="-2.4" width="1.8" height="46.6"/>
            <rect class="st45" x="473.8" y="-2.4" width="1.8" height="46.6"/>
            <rect class="st41" x="475.6" y="-2.4" width="1.8" height="46.6"/>
            <rect class="st63" x="477.4" y="-2.4" width="1.8" height="46.6"/>
            <rect class="st50" x="479.2" y="-2.4" width="1.8" height="46.6"/>
            <rect class="st18" x="481" y="-2.4" width="1.8" height="46.6"/>
            <rect class="st49" x="482.7" y="-2.4" width="1.8" height="46.6"/>
            <rect class="st9" x="484.5" y="-2.4" width="1.8" height="46.6"/>
            <rect class="st56" x="486.3" y="-2.4" width="1.8" height="46.6"/>
            <rect class="st31" x="488.1" y="-2.4" width="1.8" height="46.6"/>
            <rect class="st32" x="489.9" y="-2.4" width="1.8" height="46.6"/>
            <rect class="st38" x="491.7" y="-2.4" width="1.8" height="46.6"/>
            <rect class="st17" x="493.5" y="-2.4" width="1.8" height="46.6"/>
            <rect class="st30" x="495.2" y="-2.4" width="1.8" height="46.6"/>
            <rect class="st48" x="497" y="-2.4" width="1.8" height="46.6"/>
            <rect class="st58" x="498.8" y="-2.4" width="1.8" height="46.6"/>
            <rect class="st26" x="500.6" y="-2.4" width="1.8" height="46.6"/>
            <rect class="st60" x="502.4" y="-2.4" width="1.8" height="46.6"/>
            <rect class="st8" x="504.2" y="-2.4" width="1.8" height="46.6"/>
            <rect class="st22" x="506" y="-2.4" width="1.8" height="46.6"/>
            <rect class="st66" x="507.7" y="-2.4" width="1.8" height="46.6"/>
            <rect class="st21" x="509.5" y="-2.4" width="1.8" height="46.6"/>
            <path class="st21" d="M511.3,44.1V-2.4v46.6Z"/>
          </g>
          <g>
            <path class="st33" d="M457.4.7c-18.9,1.6-28,15.2-35.3,33.4,7.2-4.4,14.5-4.3,22.2,3,2-15.3,7.8-26.7,13.1-36.3h0Z"/>
            <path d="M422,34.4c0,0-.1,0-.2,0-.1-.1-.2-.3-.1-.4,6.7-16.4,15.6-31.9,35.6-33.6.1,0,.3,0,.4.2,0,.1,0,.3,0,.4-5.2,9.4-11,20.7-13.1,36.2,0,.1-.1.3-.2.3-.1,0-.3,0-.4,0-7-6.7-14.1-7.6-21.8-2.9,0,0-.2,0-.3,0h0ZM456.7,1.1c-18.7,2-27.4,16.4-33.8,32,7.4-4.1,14.3-3.1,21.1,3.1,2.1-14.9,7.6-25.9,12.7-35.1Z"/>
          </g>
          <g>
            <path class="st33" d="M465.1,1.5c20.1,7,24.9,22.1,26.1,40.1-4.8-4.2-12.5-4.6-21.2-2,.5-14.9-.7-27.7-4.9-38.1Z"/>
            <path d="M469.9,40c0,0-.1,0-.2,0-.1,0-.1-.2-.1-.3.5-16.3-1-28.4-4.8-38,0-.1,0-.3,0-.4.1-.1.3-.1.4-.1,21.2,7.4,25.2,23.8,26.4,40.5,0,.2,0,.3-.2.4-.1,0-.3,0-.4,0-4.5-4-11.8-4.6-20.9-1.9,0,0-.1,0-.2,0h0ZM465.8,2.2c3.6,9.4,5.1,21.2,4.6,37,8.7-2.5,15.7-1.9,20.4,1.7-1.2-15.9-5.3-31.4-25-38.6h0Z"/>
          </g>
        </g>
        <path d="M451.6,79c0,0-.1,0-.2,0l-48.8-46.6c-.1-.2-.2-.4,0-.5.1-.1.4-.2.5,0l48.6,46.4,58.7-35.3c.2-.1.4,0,.5.1s0,.4-.1.5l-59,35.4c0,0-.2,0-.3,0h0Z"/>
        <path d="M451.6,79c-.1,0-.2,0-.2-.2l-29.5-45.1c-.1-.2,0-.4.1-.5.2-.1.4,0,.5.1l28.4,43.5-7-41.3c0-.2.1-.4.3-.5.2,0,.4.1.5.3l7.4,43.2c0,.2,0,.4-.2.4,0,0-.1,0-.2,0h0Z"/>
        <path d="M451.6,79s-.1,0-.1,0c-.1-.1-.2-.3-.1-.5l18.3-38.9c0-.2.3-.3.5-.2s.3.3.2.5l-17.5,37.1,39.3-36.7c.2-.2.4-.1.5,0s.1.4,0,.5l-40.8,38.1c0,0-.2.1-.3,0Z"/>
      </g>
      <g>
        <g>
          <g class="st4">
            <path class="st33" d="M240.8,101.1c.6,3.9-2.1,7.6-5.9,8.1-3.9.6-7.4-2.2-8-6.1s2.1-7.6,5.9-8.1c3.9-.6,7.4,2.2,8,6.1Z"/>
          </g>
          <g class="st4">
            <path class="st33" d="M256.4,98.8c.5,3.8-1.7,7.2-5,7.7-3.3.5-6.4-2.2-7-6-.6-3.8,1.7-7.2,5-7.7,3.3-.5,6.4,2.2,7,6Z"/>
          </g>
          <path class="st33" d="M233.9,109.7c-1.6,0-3.2-.5-4.5-1.5-1.6-1.2-2.6-3-2.9-5-.3-2,.2-4.1,1.4-5.7,1.2-1.6,2.9-2.6,4.9-2.9,2-.3,3.9.2,5.5,1.5,1.6,1.2,2.6,3,2.9,5h0c.3,2-.2,4.1-1.4,5.7-1.2,1.6-2.9,2.6-4.9,2.9-.4,0-.7,0-1.1,0ZM233.8,95.3c-.3,0-.6,0-.9,0-1.7.2-3.2,1.2-4.3,2.6-1.1,1.5-1.5,3.3-1.3,5.1.3,1.8,1.2,3.4,2.6,4.5,1.4,1.1,3.2,1.5,4.9,1.3,1.7-.2,3.2-1.2,4.3-2.6,1.1-1.5,1.5-3.3,1.3-5.1h0c-.3-1.8-1.2-3.4-2.6-4.5-1.2-.9-2.5-1.4-4-1.4Z"/>
          <path class="st33" d="M250.6,107c-3.2,0-6.1-2.7-6.6-6.4-.6-4,1.8-7.7,5.3-8.2,3.5-.5,6.9,2.3,7.4,6.3.3,1.9-.1,3.8-1.1,5.4-1,1.6-2.5,2.6-4.2,2.8-.3,0-.6,0-.8,0ZM250.2,93.2c-.2,0-.5,0-.7,0-3.1.4-5.1,3.7-4.6,7.2.5,3.5,3.4,6,6.5,5.6,1.5-.2,2.8-1.1,3.6-2.4.9-1.4,1.2-3.1,1-4.8h0c-.5-3.3-3-5.7-5.8-5.7Z"/>
          <path class="st33" d="M240.8,101.5c0,0-.2,0-.2,0-.2-.1-.3-.4-.1-.6.5-.8,2.1-2,4.2-.7.2.1.3.4.1.6s-.4.3-.6.1c-1.9-1.2-2.9.3-3,.4,0,.1-.2.2-.4.2Z"/>
          <path class="st33" d="M221,106.9c-.1,0-.3,0-.4-.2-.1-.2,0-.5.2-.6l5.8-3.3c.2-.1.5,0,.6.2.1.2,0,.5-.2.6l-5.8,3.3c0,0-.1,0-.2,0Z"/>
        </g>
        <g id="Taking_Selfie">
          <path d="M368.5,364.9c-2.9,9.7,1.4,19.9,16.1,23,25.1,5.4,19,14.1,40.5,25.4,9.2,4.9,15.6,6.5,26.7,5.5,6.5-.6,12.7-2.4,17.6-6.7,2.3-2,5-5.2,5.6-8.2h0c.6-3.1,0-6.6.1-6.5-.8-5.4-1.3-7.3-9.5-11.5-21.2-10.9-55.8-41.8-65.3-53.3,3.3-3,5-5.5,5-7.7,0-1.2-.5-1.8-.7-2-1.2-1.9-2.3-3.6-3.4-5.4,22-27.9,25.6-63.5,14.4-97.4-1.4-4.1-2.5-8.1-4.1-12,3.3-7.7,7.3-16.2,7.3-24.4,0-8.9-6.2-18.6-12.3-23.1-15.8-11.9-31-2.8-46,9.4,1.4-10.7,1.2-21.8-1-33.7-1.7-8.9-3.8-13.9-7.3-20.1-4.1-7.2-10.3-16.5-17.1-25.1.2-1.4.7-7.6-3.5-10.9-4-3.2-18.6-10.8-19.1-10.8-.9,0-5.6-.3-7.2,4.6,0,.2,0-1-1.5,17.6-2.6,0-4.1,1.8-3.1,4.7.6,1.8,1.2,2.4,2.5,3.2l-.4,4.5c-3.3,0-5.8,3.5-1.2,6.4l.6.4-1.2,15.1c0,.2-.5,4.2,4.8,6.8,4.9,2.3,17.5,7.8,17.6,7.8,1.7,1,3.9.6,4.9-2.6,3.7,3.4,7.4,7,11.9,9.1-1,3.9-2.4,7.7-4,11.3-2.4-1.3-7.8-2.5-9.9-3-11.7-2.7-18.1-3.5-31.3.9-.1,0,.1,0-5.1,3.2-4.1-2.1-9.3-4.6-12.7-5.8,1.9-14.4-6.8-22.5-7.7-40.8-.5-9.7-.9-8.1-.9-10.2v-1.1c0-5.3-.3-8.8-4.5-11.8-5.2-3.7-12.2-4.2-17.1-.7-.5-1-1.1-2-1.8-2.9-5.8-6.8-20.5-1.3-27.1,5.6-7.4,7.8-8.1,18.3-8.4,19.3-.7,4.5-1.5,9.1-3.4,13.2-3.6,3.8-11,10.2-15.1,12.5-7.2,4.2-16.4,9-16.2,18,0,2.5,1,4.8,2,6.8-5.5,7-13.4,19.6-14.9,35.9,0,.4.2.7.6.7h.3c0,2.9,0,5.8.2,8.6-41.6,75.2,6.9,134.2,81.5,151.4,34.6,8,79,7.4,111.7-7.1.8,1.5,1.3,2.7,3.1,3.1,3,.6,7.3-2.3,9.7-4.2.4,2.4.5,4.9.3,7.3-.6,5.9-.4,5.5-1,7.4h0ZM437.6,404.9c3.4,3.9,8.1,2.3,8.5-1.1,4.1,3,8.5,3.4,8.6-1.6,1.5,1,3.7,1.1,5.2.1,1.5-.9,2.3-2.7,2.3-4.4,3.8,2,7.6-1.5,7.2-5.6-.1-1.2-.5-2.2-.9-3.3,4,2.5,4.7,4.3,5.2,8.2-3.9,4-7.8,6.9-16.9,10.1-6.9,2.4-13.5,3.8-20.5,1.4h0c-1-.4-2.9-.9-6.3-2.9.1-.6.3-1.1.5-1.7,2,1.1,5.4,2.4,7.1.8h0ZM473.9,398.9c.4,5-.9,7.1-3,9.6-9,6.9-21.4,7.5-31,2.4,5.9.9,11.7-.5,17.4-2.4,6.8-2.3,11.8-4.9,16.6-9.6h0ZM390.4,380.5l-4.2,1-4.5-5.9c-1.9-3.8-8.2-18.6-6.5-22.5,3.9,2,4.7,5.1,15.2,27.5h0ZM466.8,388c.5,1.6,1.2,3,1.4,4.4.2,1.8-.7,3.6-2.1,4.3-1.5.8-3.5.2-4.3-1.1,0-.1-.2-.2-.3-.2-2.1-2.6-4.5-4.9-7.1-6.9-.3-.2-.7-.2-1,.1-.2.3-.2.7.1,1,2.6,2,5,4.3,7.1,6.9.7,1.7.1,3.8-1.3,4.7-1.5,1-3.9.4-4.7-1.2,0-.1-.1-.2-.2-.3-1.5-2.3-3.5-4.3-5.9-5.8-.3-.2-.7-.1-.9.2-.2.3-.1.7.2.9,2.2,1.4,4.1,3.4,5.6,5.6.2,2.1-.1,3.4-1,3.9-1.7.8-5.4-1.7-6.9-3.1,0,0-.2-.1-.3-.2l-4-4.1c-.3-.3-.7-.3-1,0s-.3.7,0,1c4.6,4.8,4.1,4.3,4.3,4.4.4.8.2,1.9-.5,2.5-1.4,1.2-4,1-6-1.9-.1-.2-.3-.2-.5-.3-1-.9-2-1.7-3.1-2.5-.3-.2-.7-.1-1,.2s-.1.7.2,1c1,.7,2,1.5,2.9,2.4-1.2,1-4.3-.4-5.6-1.2,3.7-10.5,11.7-18.8,22.6-22.6,8.3,5.5,11.1,6.6,13.2,7.8h0ZM443.3,373c-10.6,5.1-18.5,13.8-24.1,24.2-6.8-6.3-13.6-13.3-27.2-19.1-.5-.2-1-.4-1.6-.6-9.2-19.7-10.4-23.4-14.8-25.7-.7-.4-1.3-.2-1.6.5-1.9,3.9,2.9,15.9,4.5,19.7-4.4-2.9-6.2-4.3-8.4-7.9.3-1.2.2-1.1.6-4.8,0-1.4,1.6-9.3-3.1-18.1,9.7-9.9,19.4-14.1,26-15.9,2.2,3.9,3.9,5.8,5.2,7.6,8.5,10.5,32.4,31.1,44.4,40.1h0ZM325.9,192.1c15.4,12.3,9.2,22.8,71,121-17.8,1.1-28.8,10.2-35.1,18.2-14.9-20.5-53.1-101.8-54.6-104.7-6.5-12.5-14.7-13-21.3-7.8-7.8,6.2-24.8,42.3-43.5,64.9-3.7-1.6-7.8-3.4-11.3-5.1,21.9-36.4,31.4-54.1,31.5-54.3,15.7-29,37.6-52.7,63.4-32.2h0ZM308.5,358.4c-4.5-2.1-9.4-4.2-13-7.6-3.6-3.5-5.8-8.5-4.1-13.3,3.6,7.6,10.1,13.1,17.1,17.8.6.4,1.2.8,1.8,1.2-1.2,1.4-1.2,1.4-1.8,2h0ZM312,354.3c-8-4.7-14.8-11.5-19.5-19.4,1.7-2.8,4.4-5.5,5.6-6.9.2,0,.5,0,.7-.1,2.7-.7,8.1.1,11.3.5,7.8.7,11.7,1.6,18.9,6.3l-17.1,19.8h0ZM330.7,332.7c-5.7-4.8-14.5-8.8-22.4-9.2-4.3-.2-8.4.6-11.9,2.3-.2-1.3,1.3-3.2,2.3-4.1,2.2-1.8,5.7-1.9,5.6-1.9,7.5-.4,20.1,2.9,29.2,9.7-.9,1.1-1.9,2.2-2.8,3.2h0ZM340.6,323.2l14.5,25.8c-14.4,5.5-29.7,8.5-45.2,9.7,1.1-1.2,13.2-15.3,30.7-35.5h0ZM334.4,328.4c-8.5-6.3-20.2-10-28.9-10,5.4-8.4,8.3-16.9,8.7-25.2,2.3-1.2,4.7-3,6.7-5.1l19,33.9-5.6,6.4h0ZM232.2,273.9c-.7,1.2-1.2,2-2.4,4-3.7-2.1-24.1-14.1-29.8-18.9-.6-.5-1.5.4-.9,1,25.6,25.6,67.2,46.6,106.7,40.2-3,16.8-20.2,26.6-24.3,36.3-3.1,7.2-.7,17,4.9,22.6-13-.5-25.6-2.2-37.6-5-71.6-16.6-118.7-71.5-85.2-142.3,2.4,23.8,10.6,47.2,34.8,44.5,5.7-.7,11.1-2.6,15.6-5.6,5.6,8.6,11.7,16.3,18.3,23.2h0ZM241.2,155c-6.4-9.4-6.5-9.4-6.8-11-.3-2-1.1-5.9-3-6.4-.7-.2-1.4.1-1.7.6-.4-.9-1.3-2.4-2.2-2.8-.5-.2-1.2-.2-1.8.1-1.2-2.4-3.6-2.3-4.4-.5-.4-.3-1.1-.4-1.5-.2,1.3-7,4.5-13.2,4.5-13.9.1-2.3-1.1-2.3-2.2-3-4.5-2.8-1.7-8.2.4-6.2,2.6,2.4,2.5,3.4,3.3,3.2,3.8-.8,10.1-2.6,13.6-4.9,1.8-.6,4.5-.8,6.3-.2,1.3.4,2.1,1.6,3.5,1.2.2,0,.5-.3.6-.5.7-1.7-3.1-2.7-4.1-3-1-.2-2-.3-3,0,.9-.8,1.6-1.5,2.1-2.2,1.9-2.5,2.6-6.1,2.6-9.1,1.4,2.6,3.6,9.5,11.6,13.9,1,.6,2,1,2.8,1.7v.5c-.5-.2-2.2-.8-3.4-.8-.9,0-1.9,0-2.7.4-.8.4-.3,1.3.4,1.6.5.2,1,.2,1.5.2,1.3,0,2.6.5,3.8,1-1.3,8.8-1.2,11.3-6.1,19.6-3.6,6.2-8.6,9.3-15.6,8.2-1.6-.3-3.2-.7-4.7-1.3-.8-.4-1.4.9-.5,1.2,5.9,2.4,12.2,2.4,17.2-1.6,1.9,4.7,3.8,10.8,9.1,11.9,0,8.9-.6,11.9-.6,12-.5,3.7-1.9,8.9-4.1,11.8-1.9,2.4-5.5,4.6-10.1,5.2,2.2-17,1.2-17.2-5-26.4h0ZM198.4,210.7c-5.5,1.5-12.3,5.9-14.8,8.7-.2.3-.2.7,0,1,.3.3.7.2,1,0,2.2-2.4,9-6.9,13.7-8.1,13.1-3.1,20.8-12.6,27.4-23.9,7.3-12.5,5.7-16,2.7-22.2-2.2-4.7-4.2-10.8-6.3-15.5-.9-2-3.5-8.9-1.9-14.3,0-.1,0-.2.1-.3,0,0,.2,0,.4.1.1.1.2.3.4.6-.1,6.4,1.6,13,4.8,18.6.2.3.6.4.9.2.3-.2.4-.6.2-.9-3-5.2-4.6-11.3-4.6-17.3,0-.1.1-.3.1-.4,0-.5,0-1.6.6-1.9.4-.1,1,.2,1.3.6.4.6.6,1.4,1.1,2.1.9,5.2,2.3,10.2,4.2,15.1.3.8,1.6.4,1.3-.5-3.6-9.2-3.9-14.9-4.3-15.6,0-.1,0-.2,0-.2,0,0,.2,0,.3,0,.2.1.4.4.6.6,1.5,2.1,1.6,3.6,1.9,3.9.6,4,2,7.9,4,11.4.2.3.6.4.9.2.3-.2.4-.6.2-.9-3.4-5.9-4.6-13.3-3.6-13.1,1.1.4,1.9,4.2,2.1,5.4.3,1.9.6,2.1,7,11.5,5.4,8,6.8,9,5.3,21-1.1,8.8-1.9,15.2-5.4,26.7-5.1,16.7-9.3,22.9-18.4,35.5-5.4,7.7-14.1,12.2-23.3,13.3-23.6,2.7-32-20.1-33.7-44.1,7.8-5.6,13.8-6.9,23.3-8.3,10.3.5,9.9.7,10.2.5-.2,3.7,0,7.3.2,10.4h0ZM357.8,351l-36.1-64.3c-16.2-38.2-15.1-36.2-15.6-36.4-2.8-1.3-7.2-2.5-12.2-.9-.6.2-.6,1,0,1.3.1,0,14.8,6.5,16.5,12.9,1.3,4.9,2.4,17.7.5,29.8-18.8,8.6-48-1.2-67.1-9.2,18.3-22.1,35.8-58.6,43-64.4,6.1-4.8,13.3-4.3,19.3,7.4,1.8,3.5,39.8,84.6,54.9,105.2-4.6,6.3-6.5,11.7-6.5,11.8-.1.4,0,.7.4.9.4.1.7,0,.9-.4,0-.3,9.6-28.7,42-30.3,1.6,2.6,3.4,5.3,5.2,8.2-17.6.1-34.5,13.1-45.1,28.5h0ZM414.4,220.5c11.2,33.8,7.3,68.6-13.9,95.7-7.1-11.2-12.8-20.5-18.1-29.2,8.1-25.4,17.2-50.3,28.5-77.1,1.3,3.5,2.3,6.9,3.5,10.6h0ZM406.9,162.6c6.5,14.2,4,37.6.8,51.5-9.3,22.5-17.9,45.7-26.2,71.4-14.3-23.6-25.3-43.6-34.6-62.6l.6-1c14.3-25,16.4-49.8,16.6-52.8,13.4-10.4,28.2-18.8,42.9-6.5h0ZM306.6,75.2c1.3-1.4,3.2-1.9,5.2-1.8,0,0,14.4,7.2,18.7,10.7,2.4,1.9,3.1,5,3.3,7.3-.3,1.4-.5,2.8-.6,4-6-4.9-12.6-9.1-18.9-13.2-2.3-1.5-3.9-.1-3.9,1.6,0,5.9,7.4,11.4,10.5,14.2-3.7-1.8-13-5.8-15.7-6.3l1.4-16.6h0ZM317.5,109c-12.9-4.6-12.6-4.5-13.4-4.7l.3-3.8c4.3,2.8,8.7,5.7,13,8.6h0ZM324.1,139.4c-.1,0-12.8-5.5-17.6-7.9-4.4-2.1-4.1-5.3-4-5.4l1.2-14.4,11.3,7.1c-2.6-1-6.5-2.6-7.6.3-.3.8-.2,2.1,2,3.6,6.4,4.1,12.2,9.2,17.9,14.4-.5,1.9-1.3,3.3-3.1,2.4h0ZM341.3,146.1c-8.3-3.7-17.3-15.8-31.2-24.7-.5-.3-1.8-1.2-1.5-1.9.7-1.9,4.9.2,11.8,2.7.8.3,1.3-.8.6-1.2-.2-.1-17.5-11-17.6-11.1-.4-.3-2.6-1.3-2.8-2.7-.1-.8.8-1.9,2.3-1.8,1.1,0,.7,0,19.7,6.8.8.3,1.3-.8.6-1.2-8.2-5.4-13.2-8.7-18.9-12.4-1.2-.8-1.7-1.1-2.2-2.7-.2-.7-.4-1.7.2-2.3.7-.7,2.1-.8,3.6-.3,6.7,2.3,13.2,5.2,19.5,8.5.7.4,1.4-.6.8-1.1-6.1-5.3-13.9-10.9-14.2-16.7-.1-.9.4-1.6,1.7-.7,17.6,11.4,17.7,12.5,19.8,13.9.5.3,1,0,1-.5,0-.6.2-2,.5-3.8,6.5,8.3,16,22.3,19.5,30.4,1.6,3.7,2.9,7.9,3.9,13.3,4.7,24.6,1,57.1-17.3,74-3.6-7.4-7.7-14.5-14.1-19.6-8.6-6.9-17.3-9.3-26-7.4,4.6-6.4,6-8.4,7.5-10.8,3.9,1.3,11.1,3.2,15.1,2.4,6.7-1.4,10.5-8.7,13.7-15.5,1.9-4.1,3.4-8.3,4.5-12.8,0-.3,0-.6-.4-.8h0ZM326,156.7c3.2.7,6.5,1.5,9.5,2.9-1.1,1.4-2.4,2.8-3.7,4.1-8.1,7.5-17.2,8.1-26.1,1.6-3.2-2.3-5.9-5.2-8.5-8.2,12-3.7,17.8-2.8,28.8-.3h0ZM283.3,157.8c17.1,8.3,21.4,10.5,24.3,13.5-2.1,3.3-2.5,3.9-8.9,12.9-4.7,1.4-8.8,3.9-12.6,6.9-4.8-4.8-7-8.6-8.5-10.7-.5-.6-1.7,0-.9,1.1.2.4.5.8.8,1.1.4,3.6,1.1,12.2-.9,17.9-7.9,9.4-12.6,18.6-15.4,23.3-9,16.9-24.7,35.6-42.6,31.4-.2-.2-1.5-2-3.6-5.2,2.7-2,5.1-4.4,7.1-7.1,9.2-12.8,13.3-19.1,18.5-35.7,2.2-7,3.7-13.7,4.8-20.2,17.1-1.8,22.2-17.6,20.3-34.6h.7c7,2.1,7.7,1.1,16.9,5.5h0ZM275.8,153.3c-1.4-.4-2.7-.7-2.9-.8.1-11.8-4.5-18.3-5.8-27.4-1.5-5.2-.1-10.7.8-15.9,1.9,26.6,9.7,29.6,8,44h0ZM176.3,154.9c-.2-8.3,9.2-13.2,15.5-16.8,3.1-1.8,8.2-5.9,12-9.5-4.9,7.7-7.6,13.7-8.8,18.4-5.7,1.9-12.9,8.4-17.2,13.5-.8-1.7-1.5-3.6-1.6-5.7h0ZM194.6,148.6c-3.2,15.4,9.4,17.6,10.4,26.9.7,6.4-5.7,9.9-6.8,23.6-.4-.3,1.9,0-34.6-2.1h-.2c2.4-23.2,19.3-43.7,31.2-48.5h0Z"/>
          <path d="M355.4,236.5c.3,0,.5-.2.6-.5,6-17.2,13.9-33.9,23.3-49.6.2-.3,0-.7-.2-.9-.3-.2-.7,0-.9.2-9.5,15.8-17.4,32.5-23.4,49.9-.2.4.2.9.6.9h0Z"/>
          <path d="M253.3,123c.5-1.2.3-2.4,0-5.3,0-1.1-.1-2.3-.3-3.4-1.6,4.7.4,8.3-1.5,9.5-.9.5-2.1,0-3-.4,2,2.1,4,1.6,4.8-.3h0Z"/>
          <path d="M252.6,130.7c.5-1.4.7-2.7.6-2.3,0-.3.2-.9-.2-1.3-.4-.4-1.4-.3-1.6-.4-10.8-1.4-10.6-1.8-11.1-1.2-.4.6.5,3.2.6,3.3,3.3,8.4,8.5,10.6,11.7,1.9h0ZM242.8,126.5c.6,0,1.4.3,2,.4,2.7.6,5.4,1,6.9,1.2,0,1-.8,1.8-1.7,2.1-2.2.6-5.7-1.5-7.6-2.7-.5-.3,0-.9.4-.9h0Z"/>
          <path d="M259,121c.9,0,1.6-.8,1.8-2,.1-1.2-.5-2.2-1.3-2.3-.9,0-1.6.8-1.8,2-.1,1.2.5,2.2,1.3,2.3Z"/>
          <path d="M244.2,118.2c.9,0,1.6-.8,1.8-2,.1-1.2-.5-2.2-1.3-2.3-.9,0-1.6.8-1.8,2-.1,1.2.5,2.2,1.3,2.3Z"/>
          <path d="M179.8,191.6c.8,0,1.4-.6,1.4-1.4s-.6-1.4-1.4-1.4-1.4.6-1.4,1.4.6,1.4,1.4,1.4Z"/>
          <path d="M189.8,185.5c.8,0,1.4-.6,1.4-1.4s-.6-1.4-1.4-1.4-1.4.6-1.4,1.4.6,1.4,1.4,1.4Z"/>
          <circle cx="193" cy="172.2" r="1.4"/>
          <path d="M174.5,182.6c.8,0,1.4-.6,1.4-1.4s-.6-1.4-1.4-1.4-1.4.6-1.4,1.4.6,1.4,1.4,1.4Z"/>
          <path d="M182.2,171.4c.8,0,1.4-.6,1.4-1.4s-.6-1.4-1.4-1.4-1.4.6-1.4,1.4.6,1.4,1.4,1.4Z"/>
          <path d="M299.8,175c.4-.7.3-1.6-.4-2-.7-.4-1.5-.3-2,.4-.4.7-.3,1.6.4,2,.7.4,1.5.3,2-.4Z"/>
          <path d="M289.6,180.7c.4-.7.3-1.6-.4-2-.7-.4-1.5-.3-2,.4-.4.7-.3,1.6.4,2,.7.4,1.5.3,2-.4Z"/>
          <path d="M281.7,174.7c.5-.6.5-1.5-.1-2s-1.5-.5-2,.1-.5,1.5.1,2,1.5.5,2-.1Z"/>
          <path d="M293.6,168.3c.5-.6.5-1.5-.1-2s-1.5-.5-2,.1-.5,1.5.1,2,1.5.5,2-.1Z"/>
          <path d="M282.5,164.2c.5-.6.5-1.5-.1-2s-1.5-.5-2,.1-.5,1.5.1,2,1.5.5,2-.1Z"/>
          <path d="M203.5,279s0,0,0,0c0,0,0,0,0,0Z"/>
          <g class="st28">
            <rect class="st1" x="192.8" y="279" width="3.5" height="40.2"/>
            <rect class="st1" x="196.3" y="279" width=".5" height="40.2"/>
            <rect class="st35" x="196.8" y="279" width=".5" height="40.2"/>
            <rect class="st44" x="197.3" y="279" width=".5" height="40.2"/>
            <rect class="st51" x="197.8" y="279" width=".5" height="40.2"/>
            <rect class="st67" x="198.3" y="279" width=".5" height="40.2"/>
            <rect class="st47" x="198.8" y="279" width=".5" height="40.2"/>
            <rect class="st37" x="199.2" y="279" width=".5" height="40.2"/>
            <rect class="st27" x="199.7" y="279" width=".5" height="40.2"/>
            <rect class="st64" x="200.2" y="279" width=".5" height="40.2"/>
            <rect class="st11" x="200.7" y="279" width=".5" height="40.2"/>
            <rect class="st42" x="201.2" y="279" width=".5" height="40.2"/>
            <rect class="st15" x="201.7" y="279" width=".5" height="40.2"/>
            <rect class="st46" x="202.2" y="279" width=".5" height="40.2"/>
            <rect class="st46" x="202.7" y="279" width=".4" height="40.2"/>
            <rect class="st20" x="203.1" y="279" width=".4" height="40.2"/>
            <rect class="st19" x="203.4" y="279" width=".4" height="40.2"/>
            <rect class="st43" x="203.8" y="279" width=".4" height="40.2"/>
            <rect class="st34" x="204.2" y="279" width=".4" height="40.2"/>
            <rect class="st55" x="204.5" y="279" width=".4" height="40.2"/>
            <rect class="st6" x="204.9" y="279" width=".4" height="40.2"/>
            <rect class="st59" x="205.2" y="279" width=".4" height="40.2"/>
            <rect class="st10" x="205.6" y="279" width=".4" height="40.2"/>
            <rect class="st13" x="205.9" y="279" width=".4" height="40.2"/>
            <rect class="st53" x="206.3" y="279" width=".4" height="40.2"/>
            <rect class="st65" x="206.6" y="279" width=".4" height="40.2"/>
            <rect class="st45" x="207" y="279" width=".4" height="40.2"/>
            <rect class="st41" x="207.3" y="279" width=".4" height="40.2"/>
            <rect class="st63" x="207.7" y="279" width=".4" height="40.2"/>
            <rect class="st50" x="208" y="279" width=".4" height="40.2"/>
            <rect class="st18" x="208.4" y="279" width=".4" height="40.2"/>
            <rect class="st49" x="208.8" y="279" width=".4" height="40.2"/>
            <rect class="st9" x="209.1" y="279" width=".4" height="40.2"/>
            <rect class="st56" x="209.5" y="279" width=".4" height="40.2"/>
            <rect class="st31" x="209.8" y="279" width=".4" height="40.2"/>
            <rect class="st32" x="210.2" y="279" width=".4" height="40.2"/>
            <rect class="st38" x="210.5" y="279" width=".4" height="40.2"/>
            <rect class="st17" x="210.9" y="279" width=".4" height="40.2"/>
            <rect class="st30" x="211.2" y="279" width=".4" height="40.2"/>
            <rect class="st48" x="211.6" y="279" width=".4" height="40.2"/>
            <rect class="st58" x="211.9" y="279" width=".4" height="40.2"/>
            <rect class="st26" x="212.3" y="279" width=".4" height="40.2"/>
            <rect class="st60" x="212.6" y="279" width=".4" height="40.2"/>
            <rect class="st8" x="213" y="279" width=".4" height="40.2"/>
            <rect class="st22" x="213.3" y="279" width=".4" height="40.2"/>
            <rect class="st66" x="213.7" y="279" width=".4" height="40.2"/>
            <rect class="st21" x="214.1" y="279" width=".4" height="40.2"/>
            <path class="st21" d="M214.4,319.3v-40.2,40.2Z"/>
          </g>
          <path d="M204.3,319.3c0,1,.2,1.6.2,1.6,0-.5-.1-1.1-.2-1.6Z"/>
          <g class="st29">
            <rect class="st1" x="226" y="304.1" width="1.9" height="22.6"/>
            <rect class="st1" x="227.9" y="304.1" width=".3" height="22.6"/>
            <rect class="st35" x="228.1" y="304.1" width=".3" height="22.6"/>
            <rect class="st44" x="228.4" y="304.1" width=".3" height="22.6"/>
            <rect class="st51" x="228.7" y="304.1" width=".3" height="22.6"/>
            <rect class="st67" x="229" y="304.1" width=".3" height="22.6"/>
            <rect class="st47" x="229.2" y="304.1" width=".3" height="22.6"/>
            <rect class="st37" x="229.5" y="304.1" width=".3" height="22.6"/>
            <rect class="st27" x="229.8" y="304.1" width=".3" height="22.6"/>
            <rect class="st64" x="230.1" y="304.1" width=".3" height="22.6"/>
            <rect class="st11" x="230.3" y="304.1" width=".3" height="22.6"/>
            <rect class="st42" x="230.6" y="304.1" width=".3" height="22.6"/>
            <rect class="st15" x="230.9" y="304.1" width=".3" height="22.6"/>
            <rect class="st46" x="231.2" y="304.1" width=".3" height="22.6"/>
            <rect class="st46" x="231.4" y="304.1" width=".2" height="22.6"/>
            <rect class="st20" x="231.6" y="304.1" width=".2" height="22.6"/>
            <rect class="st19" x="231.8" y="304.1" width=".2" height="22.6"/>
            <rect class="st43" x="232" y="304.1" width=".2" height="22.6"/>
            <rect class="st34" x="232.2" y="304.1" width=".2" height="22.6"/>
            <rect class="st55" x="232.4" y="304.1" width=".2" height="22.6"/>
            <rect class="st6" x="232.6" y="304.1" width=".2" height="22.6"/>
            <rect class="st59" x="232.8" y="304.1" width=".2" height="22.6"/>
            <rect class="st10" x="233" y="304.1" width=".2" height="22.6"/>
            <rect class="st13" x="233.2" y="304.1" width=".2" height="22.6"/>
            <rect class="st53" x="233.4" y="304.1" width=".2" height="22.6"/>
            <rect class="st65" x="233.6" y="304.1" width=".2" height="22.6"/>
            <rect class="st45" x="233.8" y="304.1" width=".2" height="22.6"/>
            <rect class="st41" x="234" y="304.1" width=".2" height="22.6"/>
            <rect class="st63" x="234.2" y="304.1" width=".2" height="22.6"/>
            <rect class="st50" x="234.4" y="304.1" width=".2" height="22.6"/>
            <rect class="st18" x="234.5" y="304.1" width=".2" height="22.6"/>
            <rect class="st49" x="234.7" y="304.1" width=".2" height="22.6"/>
            <rect class="st9" x="234.9" y="304.1" width=".2" height="22.6"/>
            <rect class="st56" x="235.1" y="304.1" width=".2" height="22.6"/>
            <rect class="st31" x="235.3" y="304.1" width=".2" height="22.6"/>
            <rect class="st32" x="235.5" y="304.1" width=".2" height="22.6"/>
            <rect class="st38" x="235.7" y="304.1" width=".2" height="22.6"/>
            <rect class="st17" x="235.9" y="304.1" width=".2" height="22.6"/>
            <rect class="st30" x="236.1" y="304.1" width=".2" height="22.6"/>
            <rect class="st48" x="236.3" y="304.1" width=".2" height="22.6"/>
            <rect class="st58" x="236.5" y="304.1" width=".2" height="22.6"/>
            <rect class="st26" x="236.7" y="304.1" width=".2" height="22.6"/>
            <rect class="st60" x="236.9" y="304.1" width=".2" height="22.6"/>
            <rect class="st8" x="237.1" y="304.1" width=".2" height="22.6"/>
            <rect class="st22" x="237.3" y="304.1" width=".2" height="22.6"/>
            <rect class="st66" x="237.5" y="304.1" width=".2" height="22.6"/>
            <rect class="st21" x="237.7" y="304.1" width=".2" height="22.6"/>
            <path class="st21" d="M237.9,326.7v-22.6,22.6Z"/>
          </g>
          <path d="M232.3,326.7c0,.3,0,.4,0,.4,0-.2,0-.3,0-.4Z"/>
        </g>
        <path class="st23" d="M194.4,148.6c-1,.6-2.2,1.1-3.2,1.7-9.6,6-16.4,15.3-21.7,25.6-1,1.9-1.9,4.1-2.7,6.1-2,4.9-2.5,10.2-4.2,15.1,11.4,1.6,24.1,2,35.7,2.2,1.3-4.2,1.4-8.5,3.1-12.5,1.6-3.9,4.1-5.9,4-10.1-.1-2.9-1.8-7.7-3.8-9.8-2-2.1-4-3-5.4-5.6-.6-1.2-1.6-4.5-1.8-5.8-.4-2.6-.2-4.2.2-6.8"/>
        <path class="st23" d="M215.1,249.9l3.6,5.2s9.1,3.6,19.9-4.2c10.7-7.8,18-17.1,22-25.9,4-8.9,16-24.6,16-24.6,0,0,3.4-10.1,1.1-20.1,0,0,3.6,7.7,8.5,10.7,0,0,5.2-4.6,12.6-6.9l8.9-12.9s-25.2-17.2-41.9-19c0,0,1.5,18.7-5,26.1-6.4,7.4-15.3,8.4-15.3,8.4,0,0-5.6,41.1-30.3,63.1h0Z"/>
        <g>
          <path class="st25" d="M230.4,278.3l22.1-37.6s17.5-31.6,22.9-37.7,10.3-10.9,16.5-15,20.3-3.9,20.3-3.9c0,0,18.5,4.9,27.3,28.1s62.8,110.1,62.8,110.1h0c-16.4,5.9-31.3,15.2-43.9,27.3l-1.2,1.2-28.7-51.1-23-49.6s-6.2-3.2-12.2-.9c0,0-3.3,0,9.3,6.4,12.5,6.4,7.7,37.6,7.7,37.6,0,0-27.7,12.5-79.7-14.8h0Z"/>
          <path d="M356.9,352.4l-29.3-52.2-22.9-49.4c-1.2-.5-5.7-2.3-10.3-1,.9.7,3.2,2.2,8.5,4.9,13,6.6,8.4,37.3,8.2,38.6v.5c0,0-.6.2-.6.2-1.1.5-28.7,12.4-80.4-14.7h-1.5l.9-1.5,22.1-37.6c.7-1.3,17.6-31.7,23-37.8,5.9-6.7,10.9-11.3,16.7-15.2,6.3-4.3,20.3-4.1,20.9-4.1h.2c.8.2,19.1,5.3,28,28.8,8.7,22.9,62.1,109,62.7,109.9l.7,1-1.2.4c-16.4,5.9-31,15-43.6,27.1l-2.2,2.1ZM297.9,247.3c4.3,0,7.8,1.7,8,1.8l.3.2,23.2,50,28,49.9.3-.3c12.5-11.9,27-21,43.1-27.1-6.1-9.9-54-87.5-62.2-109.2-4.4-11.7-11.4-18.6-16.5-22.3-5-3.6-9.3-5-10-5.2-1.4,0-14.1,0-19.6,3.8-5.7,3.8-10.5,8.2-16.3,14.8-5.2,5.9-22.6,37.2-22.7,37.5l-21.6,36.7c46.6,24.2,73.5,15.9,77.4,14.5.6-4.2,3.6-30.4-7.2-36-10.6-5.4-10.4-6.5-10.2-7.3.1-.6.6-.9,1.1-1,1.7-.6,3.4-.8,5-.8Z"/>
        </g>
        <path d="M358.3,352.5l-36.1-64.3c-16.2-38.2-15.1-36.2-15.6-36.4-2.8-1.3-7.2-2.5-12.2-.9-.6.2-.6,1,0,1.3.1,0,14.8,6.5,16.5,12.9,1.3,4.9,2.4,17.7.5,29.8-18.8,8.6-48-1.2-67.1-9.2,18.3-22.1,35.8-58.6,43-64.4,6.1-4.8,13.3-4.3,19.3,7.4,1.8,3.5,39.8,84.6,54.9,105.2-4.6,6.3-6.5,11.7-6.5,11.8-.1.4,0,.7.4.9.4.1.7,0,.9-.4,0-.3,9.6-28.7,42-30.3,1.6,2.6,3.4,5.3,5.2,8.2-17.6.1-34.5,13.1-45.1,28.5h0Z"/>
        <g>
          <path class="st25" d="M407.4,162.6c6.5,14.2,4,37.6.8,51.5-9.3,22.5-17.9,45.7-26.2,71.4-14.3-23.6-25.3-43.6-34.6-62.6l.6-1c14.3-25,16.4-49.8,16.6-52.8,13.4-10.4,28.2-18.8,42.9-6.5h0Z"/>
          <path d="M382.3,287.8l-1.1-1.9c-14.4-23.7-25.4-43.6-34.7-62.7l-.2-.5.9-1.4c14.3-25,16.3-49.7,16.5-52.4v-.4s.4-.3.4-.3c14-10.9,29-19.2,44.1-6.5l2.1,1.8h-1.2c5.6,13.9,3.7,35.8.2,50.7v.2c-9.7,23.3-18.3,46.7-26.2,71.3l-.7,2.1ZM348.5,222.9c9,18.3,19.6,37.5,33.2,60.1,7.7-23.9,16.1-46.6,25.5-69.3,3.4-15.1,5.3-37.3-.7-50.6-13.8-11.5-27.9-3.8-41.1,6.4-.3,4.4-2.8,28.5-16.7,52.8l-.3.5Z"/>
        </g>
        <path class="st23" d="M414.9,406.6s6.8-27.3,28.4-33.7l10.3,7.2s-28.6,13.6-23.5,35.5c0,0-12.7-6.9-15.2-9h0Z"/>
        <path class="st23" d="M298.2,328s26.2,3.9,27.2,13l9-12.5s-25.5-14.6-37.2-11,1,10.6,1,10.6Z"/>
      </g>
      <g>
        <g>
          <rect x="95.1" y="292.7" width="1" height="39.2"/>
          <rect x="87.6" y="312" width="1" height="17.1" transform="translate(-236.4 248.4) rotate(-62.1)"/>
          <path class="st23" d="M96.4,296.2s2.6-22.6-20.5-29.3c0,0-5.1,24,20.5,29.3Z"/>
          <rect x="93.7" y="308.3" width="17.1" height="1" transform="translate(-189.9 165.8) rotate(-45.6)"/>
          <path class="st23" d="M91.3,321.3s-6.4-14.2-22.3-10.1c0,0,5.4,15.9,22.3,10.1Z"/>
          <path class="st23" d="M100,310s20.1,0,23.6-21c0,0-21.6-2-23.6,21Z"/>
        </g>
        <g>
          <path d="M109.8,372.1h-28.4l-3.7-40.7h36.4l-4.3,40.7ZM82.3,371.1h26.6l4.1-38.7h-34.2l3.5,38.7Z"/>
          <path d="M113.1,341.5h-34.4l-.4-4.1h35.2l-.4,4.1ZM79.6,340.5h32.6l.2-2.1h-33l.2,2.1Z"/>
        </g>
      </g>
      <g>
        <path class="st7" d="M210.4,37.8H58.6c-7.5,0-13.5,5.5-13.5,12.4v13.3c0,6.8,6,12.4,13.5,12.4h115.7l8.4,13.3,8.4-13.3h19.4c7.5,0,13.5-5.5,13.5-12.4v-13.3c0-6.8-6.1-12.4-13.5-12.4h0Z"/>
        <g class="st5">
          <g class="st5">
            <path d="M89.6,61.3h2.7v-8.9c0-.3,0-.7,0-.7h0s-.1.3-.6.7l-1.3,1.3-.8-.8,2.7-2.7h1.1v11.1h2.7v1.1h-6.6v-1.1Z"/>
          </g>
          <g class="st5">
            <path d="M98.3,60s.9,1.4,2.8,1.4,3-1.2,3-2.8-1.4-2.8-3.1-2.8-2.3.7-2.3.7l-.6-.3.5-4.9c0-.7.3-1.1,1.1-1.1h4c.7,0,1,.3,1,1.1v1.2h-1.1v-.8c0-.3-.1-.4-.4-.4h-3.1c-.2,0-.3.1-.4.4l-.3,2.7c0,.4-.1.7-.1.7h0s.8-.4,1.8-.4c2.5,0,4.2,1.8,4.2,3.9s-1.8,3.9-4.3,3.9-3.6-1.7-3.6-1.7l.8-.8Z"/>
            <path d="M111.5,61.3h.6c.2,0,.4-.1.4-.4l.8-10.7h1.2l3.2,7.1c.3.6.6,1.4.6,1.4h0s.3-.8.6-1.4l3.2-7.1h1.2l.8,10.7c0,.3.1.4.4.4h.7v1.1h-1.2c-.7,0-1-.3-1.1-1.1l-.6-7.4c0-.7,0-1.7,0-1.7h0s-.3,1.1-.6,1.7l-2.9,6.2h-1.1l-2.9-6.2c-.3-.6-.6-1.7-.6-1.7h0s0,1.1,0,1.7l-.6,7.4c0,.7-.3,1.1-1.1,1.1h-1.2v-1.1Z"/>
            <path d="M127.2,55.1c0-.2-.1-.4-.4-.4h-.7v-1h1.2c.7,0,1.1.3,1.1,1.1v6.2c0,.3.1.4.4.4h.7v1h-1.2c-.7,0-1.1-.3-1.1-1.1v-6.2ZM127.2,50.3h1.1v1.5h-1.1v-1.5Z"/>
            <path d="M131.5,55.1c0-.2-.1-.4-.4-.4h-.7v-1h1.2c.7,0,1.1.3,1.1,1v.4c0,.3,0,.6,0,.6h0c.3-.8,1.4-2.2,3.4-2.2s2.9,1.2,2.9,3.4v4.1c0,.3.1.4.4.4h.7v1h-1.2c-.7,0-1.1-.3-1.1-1.1v-4.2c0-1.4-.2-2.6-1.9-2.6s-2.8,1-3.2,2.4c-.1.4-.1.8-.1,1.2v4.2h-1.2v-7.3Z"/>
          </g>
          <g class="st5">
            <path d="M147,51.3h-1.1v-1.1h4.9c3.7,0,6.1,2.2,6.1,6.1s-2.4,6.1-6.1,6.1h-2.7c-.7,0-1.1-.3-1.1-1.1v-10ZM148.6,61.3h2c3,0,4.9-1.8,4.9-5s-2-5-4.9-5h-2.4v9.6c0,.3.1.4.4.4Z"/>
          </g>
          <g class="st5">
            <path d="M162.5,53.5c2.4,0,3.6,1.8,3.6,4s0,.6,0,.6h-6.7c0,2.2,1.6,3.4,3.4,3.4s2.6-1.1,2.6-1.1l.6.9s-1.3,1.2-3.2,1.2-4.5-1.9-4.5-4.5,1.9-4.6,4.3-4.6ZM164.9,57.2c0-1.8-1.2-2.7-2.4-2.7s-2.7.9-3,2.7h5.4Z"/>
            <path d="M168.5,51.7c0-.2-.1-.4-.4-.4h-.7v-1h1.2c.7,0,1.1.3,1.1,1.1v9.7c0,.3.1.4.4.4h.7v1h-1.2c-.7,0-1.1-.3-1.1-1.1v-9.7Z"/>
          </g>
          <g class="st5">
            <path d="M172.8,55.1c0-.2-.1-.4-.4-.4h-.7v-1h1.2c.7,0,1.1.3,1.1,1.1v6.2c0,.3.1.4.4.4h.7v1h-1.2c-.7,0-1.1-.3-1.1-1.1v-6.2ZM172.8,50.3h1.1v1.5h-1.1v-1.5Z"/>
          </g>
          <g class="st5">
            <path d="M176.5,55.1c-.1-.3-.3-.4-.6-.4h-.2v-1h.5c.8,0,1.1.2,1.4.9l2.1,5.4c.2.4.3,1,.3,1h0s.1-.6.3-1l2.1-5.4c.3-.8.6-.9,1.4-.9h.4v1h-.2c-.3,0-.5,0-.6.4l-2.8,7.3h-1.3l-2.8-7.3Z"/>
          </g>
          <g class="st5">
            <path d="M189.2,53.5c2.4,0,3.6,1.8,3.6,4s0,.6,0,.6h-6.7c0,2.2,1.6,3.4,3.4,3.4s2.6-1.1,2.6-1.1l.6.9s-1.3,1.2-3.2,1.2-4.5-1.9-4.5-4.5,1.9-4.6,4.3-4.6ZM191.6,57.2c0-1.8-1.2-2.7-2.4-2.7s-2.7.9-3,2.7h5.4Z"/>
          </g>
          <g class="st5">
            <path d="M195.2,55.1c0-.2-.1-.4-.4-.4h-.7v-1h1.2c.7,0,1.1.3,1.1,1v.6c0,.4,0,.7,0,.7h0c.4-1.3,1.4-2.3,2.7-2.3s.5,0,.5,0v1.2s-.2,0-.4,0c-1.2,0-2.1,1-2.5,2.2-.2.6-.2,1.1-.2,1.7v3.7h-1.2v-7.3Z"/>
          </g>
          <g class="st5">
            <path d="M202.1,64.9c.8,0,1.3-.6,1.6-1.4l.5-1.2-3.1-7.2c-.1-.3-.3-.4-.6-.4h-.2v-1h.5c.8,0,1,.2,1.3.9l2.2,5.4c.2.4.3.9.3.9h0s.1-.5.3-.9l2.1-5.4c.3-.8.6-.9,1.3-.9h.5v1h-.2c-.3,0-.5,0-.6.4l-3.7,9.1c-.4,1.1-1.3,1.8-2.5,1.8s-1.9-.8-1.9-.8l.6-.9s.6.7,1.3.7Z"/>
          </g>
        </g>
        <g>
          <path class="st14" d="M73.1,45.8c-1,0-1.8-.8-1.8-1.8s.8-1.8,1.8-1.8,1.8.8,1.8,1.8-.8,1.8-1.8,1.8ZM73.1,41.4c-1.4,0-2.6,1.2-2.6,2.6s1.2,2.6,2.6,2.6,2.6-1.2,2.6-2.6-1.2-2.6-2.6-2.6Z"/>
          <rect class="st61" x="72.5" y="45.1" width="1.3" height="2.8"/>
          <path class="st3" d="M74.2,46.3h-2.2v-2.4c0-.7,2.2-.7,2.2,0v2.4Z"/>
          <rect class="st61" x="64.4" y="49.3" width="1.8" height="1.8" transform="translate(-16.4 60.9) rotate(-45)"/>
          <path class="st3" d="M66.1,48.9l-2.1,2.1-1.3-1.3c-.3-.3-.3-.7,0-1l1.2-1.2c.3-.3.7-.3,1,0l1.3,1.3Z"/>
          <rect class="st61" x="80" y="49.3" width="1.8" height="1.8" transform="translate(-11.8 71.9) rotate(-45)"/>
          <path class="st3" d="M82.2,51l-2.1-2.1,1.3-1.3c.3-.3.7-.3.9,0l1.2,1.2c.3.3.3.7,0,1l-1.3,1.3Z"/>
          <path class="st3" d="M73.1,47.4c5.9,0,10.7,4.8,10.7,10.7s-4.8,10.7-10.7,10.7-10.7-4.8-10.7-10.7,4.8-10.7,10.7-10.7Z"/>
          <path class="st52" d="M73.1,48.8c5.1,0,9.2,4.1,9.2,9.2s-4.1,9.2-9.2,9.2-9.2-4.1-9.2-9.2,4.1-9.2,9.2-9.2Z"/>
          <path class="st33" d="M73.1,49.5c4.7,0,8.5,3.8,8.5,8.5s-3.8,8.5-8.5,8.5-8.5-3.8-8.5-8.5,3.8-8.5,8.5-8.5Z"/>
          <path class="st54" d="M81.6,58c0,2.3-.9,4.5-2.5,6l-6.1-6v-8.5c4.7,0,8.5,3.8,8.5,8.5Z"/>
          <polygon class="st24" points="78 62.9 73.6 57.7 72.8 58.6 78 62.9"/>
          <rect class="st24" x="72.8" y="50.2" width=".6" height="2.4"/>
          <rect class="st24" x="72.8" y="63.5" width=".6" height="2.4"/>
          <rect class="st24" x="65.3" y="57.7" width="2.4" height=".6"/>
          <rect class="st24" x="78.5" y="57.7" width="2.4" height=".6"/>
          <rect class="st24" x="69.2" y="51.2" width=".6" height="1.2" transform="translate(-16.6 41.6) rotate(-30)"/>
          <rect class="st24" x="66.5" y="53.8" width=".6" height="1.2" transform="translate(-13.7 85.1) rotate(-60)"/>
          <rect class="st24" x="66.2" y="61.3" width="1.2" height=".6" transform="translate(-21.9 41.8) rotate(-30.1)"/>
          <rect class="st24" x="68.9" y="64" width="1.2" height=".6" transform="translate(-20.9 92.3) rotate(-60)"/>
          <rect class="st24" x="76.4" y="63.7" width=".6" height="1.2" transform="translate(-21.9 47) rotate(-30)"/>
          <rect class="st24" x="79.1" y="61" width=".6" height="1.2" transform="translate(-13.7 99.5) rotate(-60)"/>
          <rect class="st24" x="78.7" y="54.1" width="1.2" height=".6" transform="translate(-16.6 47) rotate(-30)"/>
          <rect class="st24" x="76.1" y="51.5" width="1.2" height=".6" transform="translate(-6.5 92.3) rotate(-60)"/>
          <path class="st24" d="M73.1,56.8c.7,0,1.2.5,1.2,1.2s-.5,1.2-1.2,1.2-1.2-.5-1.2-1.2.5-1.2,1.2-1.2Z"/>
        </g>
      </g>
      <g>
        <path class="st7" d="M11.4,110.6h128.2c6.3,0,11.4,5.5,11.4,12.4v13.3c0,6.8-5.1,12.4-11.4,12.4H42l-7.1,13.3-7.1-13.3H11.4c-6.3,0-11.4-5.5-11.4-12.4v-13.3c0-6.8,5.1-12.4,11.4-12.4Z"/>
        <g class="st5">
          <g class="st5">
            <path d="M49.7,125.1h-1.1v-1.1h4.9c3.7,0,6.1,2.2,6.1,6.1s-2.4,6.1-6.1,6.1h-2.7c-.7,0-1.1-.3-1.1-1.1v-10ZM51.2,135.1h2c3,0,4.9-1.8,4.9-5s-2-5-4.9-5h-2.4v9.6c0,.3.1.4.4.4Z"/>
            <path d="M67.3,127.3c0-1.3-.9-2.3-2.5-2.3s-2.2.6-2.2,1.3v.6h-1.1v-.9c0-1.5,2.1-2.1,3.3-2.1,2.3,0,3.7,1.5,3.7,3.4,0,4.3-6.4,4.2-6.4,7.5s.1.3.4.3h5.1c.2,0,.4-.1.4-.4v-.8h1.1v1.2c0,.7-.3,1.1-1.1,1.1h-6.1c-.8,0-1.1-.3-1.1-1.2,0-4.5,6.4-4.1,6.4-7.7Z"/>
            <path d="M76.5,123.9c1.7,0,4.5.7,4.5,2.6v1h-1.1v-.7c0-1.1-2-1.8-3.4-1.8-2.7,0-4.8,2.1-4.8,5s2.1,5.2,4.8,5.2,4-1.7,4-1.7l.7.9s-1.7,2-4.7,2-6.1-2.8-6.1-6.4,2.6-6.2,6-6.2Z"/>
            <path d="M88.3,125.1h-1.1v-1.1h5.2c1.9,0,3.3,1.2,3.3,3.1s-.7,2.2-1.6,2.6h0c1.2.4,2,1.6,2,3,0,2.2-1.6,3.4-3.6,3.4h-3.1c-.7,0-1.1-.3-1.1-1.1v-10ZM92.3,129.3c1.2,0,2.1-.9,2.1-2.1s-.8-2.1-2.1-2.1h-2.8v4.2h2.8ZM89.9,135.1h2.6c1.5,0,2.4-.9,2.4-2.4s-1-2.4-2.4-2.4h-2.9v4.4c0,.3.1.4.4.4Z"/>
          </g>
          <g class="st5">
            <path d="M98.5,128.9c0-.2-.1-.4-.4-.4h-.7v-1h1.2c.7,0,1.1.3,1.1,1v.6c0,.4,0,.7,0,.7h0c.4-1.3,1.4-2.3,2.7-2.3s.5,0,.5,0v1.2s-.2,0-.4,0c-1.2,0-2.1,1-2.5,2.2-.2.6-.2,1.1-.2,1.7v3.7h-1.2v-7.3Z"/>
          </g>
          <g class="st5">
            <path d="M108.6,130.9h.5c0-1.9-.7-2.6-2.2-2.6s-1.7.1-1.7.8v.6h-1.1v-.8c0-1.2,2.1-1.5,2.8-1.5,2.7,0,3.4,1.5,3.4,3.3v4.2c0,.3.1.4.4.4h.7v1h-1.2c-.7,0-1-.3-1-1s0-.6,0-.6h0s-.7,1.9-2.9,1.9-2.9-.8-2.9-2.6c0-2.9,3.8-3,5.3-3ZM106.5,135.4c1.7,0,2.7-1.7,2.7-3.2v-.4h-.5c-1.4,0-4.1,0-4.1,2s.6,1.6,1.9,1.6Z"/>
            <path d="M113.2,128.9c0-.2-.1-.4-.4-.4h-.7v-1h1.2c.7,0,1.1.3,1.1,1v.4c0,.3,0,.6,0,.6h0c.3-.8,1.4-2.2,3.4-2.2s2.9,1.2,2.9,3.4v4.1c0,.3.1.4.4.4h.7v1h-1.2c-.7,0-1.1-.3-1.1-1.1v-4.2c0-1.4-.2-2.6-1.9-2.6s-2.8,1-3.2,2.4c-.1.4-.1.8-.1,1.2v4.2h-1.2v-7.3Z"/>
            <path d="M126.9,127.3c2.1,0,2.8,1.6,2.8,1.6h0s0-.3,0-.7v-2.8c0-.2-.1-.4-.4-.4h-.7v-1h1.2c.7,0,1.1.3,1.1,1.1v9.7c0,.3.1.4.4.4h.7v1h-1.2c-.7,0-1-.3-1-1s0-.6,0-.6h0s-.7,1.7-3,1.7-3.8-1.9-3.8-4.6,1.6-4.5,3.9-4.5ZM129.7,131.9c0-1.8-.9-3.5-2.8-3.5s-2.8,1.3-2.8,3.5,1.1,3.5,2.7,3.5,2.8-1,2.8-3.5Z"/>
            <path d="M133.5,134.1s1,1.3,2.7,1.3,1.8-.5,1.8-1.4c0-1.9-4.9-1.6-4.9-4.3s1.3-2.3,3.1-2.3,2.6.3,2.6,1.6v.7h-1.1v-.4c0-.6-.9-.9-1.5-.9-1.2,0-1.9.4-1.9,1.3,0,1.9,4.9,1.5,4.9,4.4s-1.3,2.4-3,2.4-3.3-1.5-3.3-1.5l.7-.8Z"/>
          </g>
        </g>
        <g>
          <path class="st57" d="M15.1,130.4c1.7-5.7,3.5-8.4,4.3-8.4s.6.3.7.9c.4,1.6,0,2.1-.2,2.3-.3.3-.8,0-.8-1.6-.4,1-2.3,4.5-3.3,8.1l-.8-1.4h0Z"/>
          <path class="st57" d="M39.4,130.4c-1.7-5.7-3.5-8.4-4.3-8.4s-.6.3-.7.9c-.4,1.6,0,2.1.2,2.3.3.3.8,0,.8-1.6.4,1,2.3,4.5,3.3,8.1l.8-1.4h0Z"/>
          <path class="st36" d="M29,130.7c-1,.5-2.5.5-3.5,0-1.1-.6-2.4-.9-4-1.1-1.5-.1-4.8-.1-6.4.4-.2,0-.4.1-.6.2-.1,0-.1,0-.1.3v.2c0,.5,0,.3.3.5.6.4,1,1.4,1.2,2.7.3,2,1.2,3.2,2.8,3.8,1.4.6,3,.5,4.4,0,.8-.3,1.5-.8,2-1.6,1-1.4.7-2.3,1.1-3.5.4-1.1,1.6-1.1,2,0,.5,1.2.2,2.1,1.1,3.5.5.8,1.2,1.3,2,1.6,1.4.6,3,.6,4.4,0,1.5-.6,2.5-1.8,2.8-3.8.2-1.4.5-2.3,1.2-2.7.3-.2.3,0,.3-.5v-.2c0-.2,0-.2-.1-.3-.2,0-.4-.2-.5-.2-1.6-.6-4.9-.6-6.4-.4-1.6.1-2.9.5-4,1.1"/>
          <path class="st12" d="M24.8,131.4c-.4-.3-1-.5-1.8-.6-.5,0-.9-.1-1.4-.2-1.2,0-2.4,0-3.2,0-.5,0-.9.2-1,.4-.6.8-.5,2.7.1,4,.2.4.4.7.6.9.4.4.9.7,1.5.9.4.1.8.2,1.2.2.7,0,1.4,0,2-.2.1,0,.2,0,.3-.1,1.8-.8,2.3-3.9,2-5,0-.1-.1-.2-.3-.4h0Z"/>
          <path class="st12" d="M37.4,131.2s0,0,0-.1c-.3-.3-1.5-.5-2.9-.5s-1,0-1.5,0c-.6,0-1.1.1-1.6.2-.9.2-1.6.5-1.7.9-.2.7,0,2.1.4,3.2.2.5.5.9.8,1.3.3.3.6.5,1,.6,0,0,.1,0,.2,0,1.3.3,2.8.2,3.8-.4.2-.1.4-.3.6-.5,1.1-1.1,1.5-3.8.8-4.9h0Z"/>
        </g>
      </g>
      <g>
        <path class="st7" d="M436,286.7h148.6c7.3,0,13.2,5.5,13.2,12.4v13.3c0,6.8-5.9,12.4-13.2,12.4h-113.2l-8.2,13.3-8.2-13.3h-19c-7.3,0-13.2-5.5-13.2-12.4v-13.3c0-6.8,5.9-12.4,13.2-12.4h0Z"/>
        <g class="st5">
          <g class="st5">
            <path d="M471.7,311.3h2.7v-8.9c0-.3,0-.7,0-.7h0s-.1.3-.6.7l-1.3,1.3-.8-.8,2.7-2.7h1.1v11.1h2.7v1.1h-6.6v-1.1Z"/>
          </g>
          <g class="st5">
            <path d="M479.5,306.3c0-3.5,1-6.3,4.2-6.3s4.2,2.8,4.2,6.3-1,6.3-4.2,6.3-4.2-2.8-4.2-6.3ZM486.7,306.3c0-2.9-.7-5.1-2.9-5.1s-2.9,2.3-2.9,5.1.7,5.2,2.9,5.2,2.9-2.3,2.9-5.2Z"/>
            <path d="M489.6,306.9h4v-4.4h1.1v4.4h4v1h-4v4.4h-1.1v-4.4h-4v-1Z"/>
            <path d="M510.7,300c1.7,0,4.5.7,4.5,2.6v1h-1.1v-.7c0-1.1-2-1.8-3.4-1.8-2.7,0-4.8,2.1-4.8,5s2.1,5.2,4.8,5.2,4-1.7,4-1.7l.7.9s-1.7,2-4.7,2-6.1-2.8-6.1-6.4,2.6-6.2,6-6.2Z"/>
            <path d="M522,307h.5c0-1.9-.7-2.6-2.2-2.6s-1.7.1-1.7.8v.6h-1.1v-.8c0-1.2,2.1-1.5,2.8-1.5,2.7,0,3.4,1.5,3.4,3.3v4.2c0,.3.1.4.4.4h.7v1h-1.2c-.7,0-1-.3-1-1s0-.6,0-.6h0s-.7,1.9-2.9,1.9-2.9-.8-2.9-2.6c0-2.9,3.8-3,5.3-3ZM519.8,311.5c1.7,0,2.7-1.7,2.7-3.2v-.4h-.5c-1.4,0-4.1,0-4.1,2s.6,1.6,1.9,1.6Z"/>
          </g>
          <g class="st5">
            <path d="M526.7,304.6h-1.1v-1h1.2v-2.4h1.2v2.4h2.2v1h-2.2v4.4c0,2,1.3,2.3,1.9,2.3s.4,0,.4,0v1.1s-.2,0-.5,0c-1,0-3-.3-3-3.2v-4.5Z"/>
          </g>
          <g class="st5">
            <path d="M535.7,303.5c2.4,0,3.6,1.8,3.6,4s0,.6,0,.6h-6.7c0,2.2,1.6,3.4,3.4,3.4s2.6-1.1,2.6-1.1l.6.9s-1.3,1.2-3.2,1.2-4.5-1.9-4.5-4.5,1.9-4.6,4.3-4.6ZM538.1,307.1c0-1.8-1.2-2.7-2.4-2.7s-2.7.9-3,2.7h5.4Z"/>
            <path d="M544.7,303.5c2.3,0,2.9,1.5,2.9,1.5h0v-.3c0-.6.3-.9,1-.9h1.2v1h-.7c-.2,0-.4.1-.4.4v7.1c0,2.8-2,3.8-4.2,3.8s-2-.3-2.8-.7l.4-1s1.1.6,2.3.6,3-.8,3-2.7v-.8c0-.3,0-.6,0-.6h0c-.5.9-1.4,1.5-2.7,1.5-2.3,0-3.9-1.8-3.9-4.4s1.4-4.4,3.8-4.4ZM547.5,307.8c0-2.5-1.2-3.3-2.7-3.3s-2.7,1.2-2.7,3.3,1.1,3.4,2.8,3.4,2.6-.8,2.6-3.4Z"/>
            <path d="M555.4,303.5c2.5,0,4.6,1.9,4.6,4.5s-2.1,4.6-4.6,4.6-4.6-2-4.6-4.6,2.1-4.5,4.6-4.5ZM555.4,311.5c1.8,0,3.4-1.5,3.4-3.5s-1.5-3.4-3.4-3.4-3.4,1.5-3.4,3.4,1.5,3.5,3.4,3.5Z"/>
            <path d="M562.2,305.1c0-.2-.1-.4-.4-.4h-.7v-1h1.2c.7,0,1.1.3,1.1,1v.6c0,.4,0,.7,0,.7h0c.4-1.3,1.4-2.3,2.7-2.3s.5,0,.5,0v1.2s-.2,0-.4,0c-1.2,0-2.1,1-2.5,2.2-.2.6-.2,1.1-.2,1.7v3.7h-1.2v-7.3Z"/>
            <path d="M568.5,305.1c0-.2-.1-.4-.4-.4h-.7v-1h1.2c.7,0,1.1.3,1.1,1.1v6.2c0,.3.1.4.4.4h.7v1h-1.2c-.7,0-1.1-.3-1.1-1.1v-6.2ZM568.5,300.2h1.1v1.5h-1.1v-1.5Z"/>
            <path d="M576.2,303.5c2.4,0,3.6,1.8,3.6,4s0,.6,0,.6h-6.7c0,2.2,1.6,3.4,3.4,3.4s2.6-1.1,2.6-1.1l.6.9s-1.3,1.2-3.2,1.2-4.5-1.9-4.5-4.5,1.9-4.6,4.3-4.6ZM578.6,307.1c0-1.8-1.2-2.7-2.4-2.7s-2.7.9-3,2.7h5.4Z"/>
            <path d="M581.9,310.2s1,1.3,2.7,1.3,1.8-.5,1.8-1.4c0-1.9-4.9-1.6-4.9-4.3s1.3-2.3,3.1-2.3,2.6.3,2.6,1.6v.7h-1.1v-.4c0-.6-.9-.9-1.5-.9-1.2,0-1.9.4-1.9,1.3,0,1.9,4.9,1.5,4.9,4.4s-1.3,2.4-3,2.4-3.3-1.5-3.3-1.5l.7-.8Z"/>
          </g>
        </g>
        <path class="st40" d="M462.5,300.4c-2.7-7.2-11.6-4-12.4-.4-1.1-3.8-9.8-6.7-12.4.4-2.9,7.9,11.4,15,12.4,16.1,1-.9,15.4-8.4,12.4-16.1Z"/>
      </g>
    </g>
    <g>
      <g>
        <path class="st16" d="M849.9,318s-3.7-7.3-10.9-7.3-10.9,7.3-10.9,7.3c0,0,3.7,7.3,10.9,7.3s10.9-7.3,10.9-7.3Z"/>
        <path class="st33" d="M848.1,318s-3.1-6.1-9.1-6.1-9.1,6.1-9.1,6.1c0,0,3.1,6.1,9.1,6.1s9.1-6.1,9.1-6.1Z"/>
        <circle class="st39" cx="839" cy="318" r="4.9"/>
        <path class="st16" d="M841.7,318c0-1.5-1.2-2.7-2.7-2.7s-2.7,1.2-2.7,2.7,1.2,2.7,2.7,2.7,2.7-1.2,2.7-2.7Z"/>
      </g>
      <g class="st5">
        <g class="st5">
          <path d="M682.3,112.4h7.9v15.4h13.6v-15.4h7.9v40.9h-7.9v-17.9h-13.6v17.9h-7.9v-40.9Z"/>
          <path d="M750.5,140.3h-24.4c.4,2.1,1.3,3.9,2.8,5.1,1.5,1.3,3.5,1.9,5.8,1.9s5.3-1,7.3-3l6.4,3c-1.6,2.3-3.5,3.9-5.7,5-2.2,1.1-4.9,1.6-7.9,1.6-4.7,0-8.6-1.5-11.6-4.5-3-3-4.5-6.7-4.5-11.2s1.5-8.4,4.5-11.5c3-3,6.7-4.6,11.2-4.6s8.6,1.5,11.6,4.6c3,3,4.5,7.1,4.5,12.1v1.4ZM742.9,134.3c-.5-1.7-1.5-3.1-3-4.1-1.5-1.1-3.2-1.6-5.1-1.6s-4,.6-5.6,1.8c-1,.7-1.9,2-2.8,3.9h16.4Z"/>
          <path d="M754.8,123h6.5v3.8c.7-1.5,1.6-2.6,2.8-3.4,1.2-.8,2.4-1.2,3.8-1.2s2,.3,3.1.8l-2.4,6.5c-.9-.4-1.6-.7-2.2-.7-1.2,0-2.2.7-3,2.2-.8,1.4-1.2,4.3-1.2,8.5v1.5s0,12.2,0,12.2h-7.5v-30.2Z"/>
          <path d="M805.1,140.3h-24.4c.4,2.1,1.3,3.9,2.8,5.1,1.5,1.3,3.5,1.9,5.8,1.9s5.3-1,7.3-3l6.4,3c-1.6,2.3-3.5,3.9-5.7,5-2.2,1.1-4.9,1.6-7.9,1.6-4.7,0-8.6-1.5-11.6-4.5-3-3-4.5-6.7-4.5-11.2s1.5-8.4,4.5-11.5c3-3,6.7-4.6,11.2-4.6s8.6,1.5,11.6,4.6c3,3,4.5,7.1,4.5,12.1v1.4ZM797.5,134.3c-.5-1.7-1.5-3.1-3-4.1-1.5-1.1-3.2-1.6-5.1-1.6s-4,.6-5.6,1.8c-1,.7-1.9,2-2.8,3.9h16.4Z"/>
          <path d="M811.7,111.3h7v3.8c0,2.4-.3,4.5-.9,6.3-.6,1.8-1.6,3.6-3,5.4l-2.7-2.1c.7-1,1.2-1.9,1.5-2.6s.6-1.7,1-2.9h-2.8v-7.9Z"/>
          <path d="M845.6,127.2l-4.7,4.7c-1.9-1.9-3.6-2.8-5.2-2.8s-1.5.2-2,.5-.7.8-.7,1.3.2.8.5,1.1c.3.3,1.1.8,2.3,1.4l2.8,1.4c2.9,1.4,4.9,2.9,6,4.4,1.1,1.5,1.6,3.3,1.6,5.3s-1,4.9-3,6.7c-2,1.8-4.6,2.7-7.9,2.7s-7.9-1.7-10.6-5.2l4.7-5.1c.9,1,1.9,1.9,3.1,2.5s2.3,1,3.2,1,1.8-.2,2.4-.7c.6-.5.9-1,.9-1.7,0-1.2-1.1-2.3-3.3-3.4l-2.6-1.3c-4.9-2.5-7.3-5.5-7.3-9.2s.9-4.4,2.8-6.1c1.8-1.7,4.2-2.5,7.1-2.5s3.8.4,5.5,1.3c1.7.9,3.2,2.1,4.4,3.7Z"/>
          <path d="M865.8,112.4h7.7l5.9,26.1,7.3-26.1h6.5l7.4,26.1,5.8-26.1h7.7l-9.2,40.9h-7.5l-7.5-26.4-7.4,26.4h-7.4l-9.2-40.9Z"/>
          <path d="M919.3,111.3h7.5v14.7c1.5-1.3,3-2.2,4.5-2.9,1.5-.6,3-1,4.6-1,3,0,5.5,1,7.6,3.1,1.8,1.8,2.6,4.4,2.6,7.9v20h-7.5v-13.2c0-3.5-.2-5.9-.5-7.1-.3-1.2-.9-2.2-1.7-2.8-.8-.6-1.8-.9-3-.9s-2.9.5-4,1.5c-1.1,1-1.9,2.4-2.3,4.2-.2.9-.3,3-.3,6.2v12.1h-7.5v-41.9Z"/>
          <path d="M950,123h7.7l7.8,19,8.7-19h7.8l-18.9,41.3h-7.8l6.2-13.3-11.5-28Z"/>
        </g>
        <g class="st5">
          <path d="M679.3,174.3h7.6l5.9,26.1,7.3-26.1h6.5l7.4,26.1,5.8-26.1h7.7l-9.2,40.9h-7.5l-7.5-26.4-7.4,26.4h-7.4l-9.2-40.9Z"/>
          <path d="M763,202.3h-24.4c.4,2.1,1.3,3.9,2.8,5.1,1.5,1.3,3.5,1.9,5.8,1.9s5.3-1,7.3-3l6.4,3c-1.6,2.3-3.5,3.9-5.7,5-2.2,1.1-4.9,1.6-7.9,1.6-4.7,0-8.6-1.5-11.6-4.5-3-3-4.5-6.7-4.5-11.2s1.5-8.4,4.5-11.5c3-3,6.7-4.6,11.2-4.6s8.6,1.5,11.6,4.6c3,3,4.5,7.1,4.5,12.1v1.4ZM755.4,196.3c-.5-1.7-1.5-3.1-3-4.1-1.5-1.1-3.2-1.6-5.1-1.6s-4,.6-5.6,1.8c-1,.7-1.9,2-2.8,3.9h16.4Z"/>
          <path d="M807.3,185h7.6v30.2h-7.6v-3.2c-1.5,1.4-3,2.4-4.5,3-1.5.6-3.1.9-4.8.9-3.9,0-7.3-1.5-10.1-4.5-2.8-3-4.3-6.8-4.3-11.3s1.4-8.5,4.1-11.5,6.1-4.5,10-4.5,3.5.3,5.1,1c1.6.7,3.1,1.7,4.4,3.1v-3.3ZM799.4,191.2c-2.3,0-4.3.8-5.8,2.5-1.5,1.7-2.3,3.8-2.3,6.4s.8,4.8,2.4,6.4c1.6,1.7,3.5,2.5,5.8,2.5s4.4-.8,5.9-2.5,2.4-3.8,2.4-6.5-.8-4.8-2.4-6.4c-1.6-1.6-3.6-2.4-6-2.4Z"/>
          <path d="M820.8,185h6.5v3.8c.7-1.5,1.6-2.6,2.8-3.4,1.2-.8,2.4-1.2,3.8-1.2s2,.3,3.1.8l-2.4,6.5c-.9-.4-1.6-.7-2.2-.7-1.2,0-2.2.7-3,2.2-.8,1.4-1.2,4.3-1.2,8.5v1.5s0,12.2,0,12.2h-7.5v-30.2Z"/>
          <path d="M871,202.3h-24.4c.4,2.1,1.3,3.9,2.8,5.1,1.5,1.3,3.5,1.9,5.8,1.9s5.3-1,7.3-3l6.4,3c-1.6,2.3-3.5,3.9-5.7,5-2.2,1.1-4.9,1.6-7.9,1.6-4.7,0-8.6-1.5-11.6-4.5-3-3-4.5-6.7-4.5-11.2s1.5-8.4,4.5-11.5c3-3,6.7-4.6,11.2-4.6s8.6,1.5,11.6,4.6c3,3,4.5,7.1,4.5,12.1v1.4ZM863.5,196.3c-.5-1.7-1.5-3.1-3-4.1-1.5-1.1-3.2-1.6-5.1-1.6s-4,.6-5.6,1.8c-1,.7-1.9,2-2.8,3.9h16.4Z"/>
          <path d="M915.4,185h7.6v30.2h-7.6v-3.2c-1.5,1.4-3,2.4-4.5,3-1.5.6-3.1.9-4.8.9-3.9,0-7.3-1.5-10.1-4.5-2.8-3-4.3-6.8-4.3-11.3s1.4-8.5,4.1-11.5,6.1-4.5,10-4.5,3.5.3,5.1,1c1.6.7,3.1,1.7,4.4,3.1v-3.3ZM907.4,191.2c-2.3,0-4.3.8-5.8,2.5-1.5,1.7-2.3,3.8-2.3,6.4s.8,4.8,2.4,6.4c1.6,1.7,3.5,2.5,5.8,2.5s4.4-.8,5.9-2.5,2.4-3.8,2.4-6.5-.8-4.8-2.4-6.4c-1.6-1.6-3.6-2.4-6-2.4Z"/>
          <path d="M944.3,174.3h8l10.3,29,10.4-29h8l-14.7,40.9h-7.5l-14.5-40.9Z"/>
          <path d="M989.3,172.5c1.3,0,2.5.5,3.4,1.4,1,1,1.4,2.1,1.4,3.5s-.5,2.5-1.4,3.5c-.9,1-2.1,1.4-3.4,1.4s-2.5-.5-3.4-1.5c-1-1-1.4-2.2-1.4-3.5s.5-2.5,1.4-3.4,2.1-1.4,3.4-1.4ZM985.6,185h7.6v30.2h-7.6v-30.2Z"/>
          <path d="M1007.6,173.3v15c1.4-1.4,2.9-2.4,4.4-3.1,1.6-.7,3.3-1,5.1-1,3.9,0,7.3,1.5,10.1,4.5s4.1,6.8,4.1,11.5-1.4,8.3-4.3,11.3-6.2,4.5-10.1,4.5-3.4-.3-4.9-.9c-1.5-.6-3-1.6-4.5-3v3.2h-7.5v-41.9h7.5ZM1015.5,191.2c-2.4,0-4.4.8-5.9,2.4-1.6,1.6-2.4,3.8-2.4,6.4s.8,4.9,2.4,6.5c1.6,1.7,3.6,2.5,5.9,2.5s4.3-.8,5.8-2.5c1.6-1.7,2.4-3.8,2.4-6.4s-.8-4.7-2.3-6.4c-1.6-1.7-3.5-2.5-5.9-2.5Z"/>
          <path d="M1067.9,202.3h-24.4c.4,2.1,1.3,3.9,2.8,5.1,1.5,1.3,3.5,1.9,5.8,1.9s5.3-1,7.3-3l6.4,3c-1.6,2.3-3.5,3.9-5.7,5-2.2,1.1-4.9,1.6-7.9,1.6-4.7,0-8.6-1.5-11.6-4.5-3-3-4.5-6.7-4.5-11.2s1.5-8.4,4.5-11.5c3-3,6.7-4.6,11.2-4.6s8.6,1.5,11.6,4.6c3,3,4.5,7.1,4.5,12.1v1.4ZM1060.3,196.3c-.5-1.7-1.5-3.1-3-4.1-1.5-1.1-3.2-1.6-5.1-1.6s-4,.6-5.6,1.8c-1,.7-1.9,2-2.8,3.9h16.4Z"/>
        </g>
      </g>
      <g class="st5">
        <g class="st5">
          <path d="M695.3,312.2c0-.4-.3-.4-.7-.4h-.3v-1.7h1.1c1,0,1.5.2,1.7,1.1l2.1,8.9c.2.7.3,1.5.3,1.5h0s.1-.7.3-1.5l2.8-9.9h1.8l2.6,9.9c.2.8.3,1.5.3,1.5h0s0-.7.3-1.5l2.2-8.9c.2-.9.7-1.1,1.7-1.1h1.1v1.7h-.3c-.4,0-.6,0-.7.4l-3,11.7h-2.3l-2.3-8.7c-.2-.9-.4-1.9-.4-1.9h0s-.2,1-.4,1.9l-2.5,8.7h-2.3l-3-11.7Z"/>
          <path d="M716.8,312.2c0-.3-.2-.4-.4-.4h-.8v-1.7h2c.9,0,1.2.4,1.2,1.2v4.8h7v-4.8c0-.9.4-1.2,1.2-1.2h2v1.7h-.8c-.3,0-.4.1-.4.4v11.7h-2v-6h-7v6h-2v-11.7Z"/>
        </g>
        <g class="st5">
          <path d="M736.6,317.8l-3.5-5.6c-.3-.4-.4-.5-.8-.5h-.4v-1.7h.9c.9,0,1.3.1,1.9,1.1l2.1,3.5c.4.8.8,1.5.8,1.5h0s.4-.8.8-1.5l2.1-3.5c.5-.9.9-1.1,1.9-1.1h.9v1.7h-.4c-.4,0-.6,0-.9.5l-3.5,5.6v6h-2v-6Z"/>
        </g>
        <g class="st5">
          <path d="M752.3,322.5l6.8-9.6c.5-.8,1-1.3,1-1.3h0s-.4,0-1,0h-4.4c-.3,0-.4.1-.4.4v.9h-1.8v-1.7c0-.9.4-1.2,1.2-1.2h8.8v1.3l-6.8,9.6c-.5.8-1,1.2-1,1.2h0s.4,0,1,0h4.9c.3,0,.4-.2.4-.4v-.9h1.8v1.7c0,.9-.4,1.2-1.2,1.2h-9.3v-1.3Z"/>
          <path d="M767.2,311.7h-1.3v-1.7h8.1c.9,0,1.2.4,1.2,1.2v1.7h-1.8v-.9c0-.3-.2-.4-.4-.4h-3.9v4.3h4.8v1.7h-4.8v4c0,.3.2.4.4.4h4c.3,0,.4-.2.4-.4v-.9h1.8v1.7c0,.9-.4,1.2-1.2,1.2h-6.1c-.9,0-1.2-.4-1.2-1.2v-10.8Z"/>
          <path d="M779,322.2h.8c.3,0,.4-.2.4-.4v-11.7h1.8l6.1,8.7c.5.7,1.2,1.9,1.2,1.9h0s-.1-1.1-.1-1.9v-7.5c0-.9.4-1.2,1.3-1.2h2v1.7h-.8c-.3,0-.4.1-.4.4v11.7h-1.8l-6.1-8.7c-.5-.7-1.1-1.9-1.1-1.9h0s.1,1.1.1,1.9v7.5c0,.9-.4,1.2-1.2,1.2h-2v-1.7Z"/>
        </g>
        <g class="st5">
          <path d="M802.7,309.8c1.9,0,5.2.8,5.2,3v1.3h-1.8v-.8c0-1.2-2-1.7-3.3-1.7-2.8,0-4.9,2.1-4.9,5.2s2.2,5.4,5,5.4,4.3-1.9,4.3-1.9l1.1,1.4s-2,2.3-5.4,2.3-7-3.2-7-7.2,3-7,6.9-7Z"/>
        </g>
        <g class="st5">
          <path d="M815.4,317.8l-3.5-5.6c-.3-.4-.4-.5-.8-.5h-.4v-1.7h.9c.9,0,1.3.1,1.9,1.1l2.1,3.5c.4.8.8,1.5.8,1.5h0s.4-.8.8-1.5l2.1-3.5c.5-.9.9-1.1,1.9-1.1h.9v1.7h-.4c-.4,0-.6,0-.9.5l-3.5,5.6v6h-2v-6Z"/>
        </g>
      </g>
      <path class="st1" d="M690.7,248.5c55.2-4.4,110.5-8.7,165.9-5.3,6.8.4,6.7-10.1,0-10.5-55.3-3.4-110.7,1-165.9,5.3-6.7.5-6.8,11,0,10.5h0Z"/>
    </g>
  </g>
</svg>