<?xml version="1.0" encoding="UTF-8"?>
<svg id="Layer_2" xmlns="http://www.w3.org/2000/svg" version="1.1" viewBox="0 0 392.4 226">
  <!-- Generator: Adobe Illustrator 29.5.1, SVG Export Plug-In . SVG Version: 2.1.0 Build 141)  -->
  <defs>
    <style>
      .st0 {
        fill: #ffbd00;
      }

      .st1 {
        fill: #231f20;
      }

      .st2 {
        isolation: isolate;
      }

      .st3 {
        fill: #fff;
      }

      .st4 {
        fill: #42ade2;
      }
    </style>
  </defs>
  <g id="Layer_1-2">
    <g>
      <g>
        <path class="st1" d="M261.2,187.2s-3.7-7.3-10.9-7.3-10.9,7.3-10.9,7.3c0,0,3.7,7.3,10.9,7.3s10.9-7.3,10.9-7.3Z"/>
        <path class="st3" d="M259.4,187.2s-3.1-6.1-9.1-6.1-9.1,6.1-9.1,6.1c0,0,3.1,6.1,9.1,6.1s9.1-6.1,9.1-6.1Z"/>
        <circle class="st4" cx="250.2" cy="187.2" r="4.9"/>
        <path class="st1" d="M252.9,187.2c0-1.5-1.2-2.7-2.7-2.7s-2.7,1.2-2.7,2.7,1.2,2.7,2.7,2.7,2.7-1.2,2.7-2.7Z"/>
      </g>
      <g class="st2">
        <g class="st2">
          <g class="st2">
            <path d="M52.4,27.1h7.7v15h13.3v-15h7.7v39.8h-7.7v-17.4h-13.3v17.4h-7.7V27.1Z"/>
            <path d="M118.8,54.3h-23.7c.3,2.1,1.3,3.8,2.7,5,1.5,1.2,3.4,1.9,5.7,1.9s5.1-1,7.1-2.9l6.2,2.9c-1.6,2.2-3.4,3.8-5.6,4.9s-4.7,1.6-7.7,1.6c-4.6,0-8.4-1.5-11.3-4.4-2.9-2.9-4.4-6.6-4.4-10.9s1.4-8.2,4.3-11.2c2.9-3,6.5-4.4,10.9-4.4s8.4,1.5,11.3,4.4c2.9,3,4.4,6.9,4.4,11.8v1.4ZM111.4,48.5c-.5-1.6-1.4-3-2.9-4-1.4-1-3.1-1.5-5-1.5s-3.9.6-5.4,1.7c-1,.7-1.9,2-2.7,3.8h16Z"/>
            <path d="M123,37.5h6.3v3.7c.7-1.5,1.6-2.6,2.7-3.3,1.1-.8,2.4-1.1,3.7-1.1s2,.3,3,.8l-2.3,6.4c-.9-.4-1.6-.6-2.1-.6-1.1,0-2.1.7-2.9,2.1-.8,1.4-1.2,4.2-1.2,8.3v1.4s0,11.9,0,11.9h-7.3v-29.4Z"/>
            <path d="M172,54.3h-23.7c.3,2.1,1.3,3.8,2.7,5,1.5,1.2,3.4,1.9,5.7,1.9s5.1-1,7.1-2.9l6.2,2.9c-1.6,2.2-3.4,3.8-5.6,4.9s-4.7,1.6-7.7,1.6c-4.6,0-8.4-1.5-11.3-4.4-2.9-2.9-4.4-6.6-4.4-10.9s1.4-8.2,4.3-11.2c2.9-3,6.5-4.4,10.9-4.4s8.4,1.5,11.3,4.4c2.9,3,4.4,6.9,4.4,11.8v1.4ZM164.6,48.5c-.5-1.6-1.4-3-2.9-4-1.4-1-3.1-1.5-5-1.5s-3.9.6-5.4,1.7c-1,.7-1.9,2-2.7,3.8h16Z"/>
            <path d="M178.4,26.1h6.8v3.7c0,2.4-.3,4.4-.9,6.1s-1.6,3.5-3,5.3l-2.7-2.1c.7-1,1.2-1.8,1.5-2.5.3-.7.6-1.6.9-2.8h-2.7v-7.7Z"/>
            <path d="M211.5,41.6l-4.6,4.6c-1.9-1.8-3.5-2.8-5.1-2.8s-1.5.2-1.9.5-.7.8-.7,1.3.1.8.4,1.1c.3.3,1,.8,2.2,1.4l2.7,1.4c2.8,1.4,4.8,2.8,5.9,4.3s1.6,3.2,1.6,5.1-1,4.8-2.9,6.5c-1.9,1.7-4.5,2.6-7.7,2.6s-7.7-1.7-10.3-5l4.5-5c.9,1,1.9,1.8,3,2.4s2.2.9,3.1.9,1.8-.2,2.4-.7c.6-.5.9-1,.9-1.6,0-1.1-1.1-2.2-3.2-3.3l-2.5-1.2c-4.8-2.4-7.1-5.4-7.1-9s.9-4.3,2.7-6c1.8-1.6,4.1-2.5,6.9-2.5s3.7.4,5.4,1.3,3.1,2,4.3,3.6Z"/>
            <path d="M231.1,27.1h7.5l5.7,25.4,7.1-25.4h6.3l7.2,25.4,5.7-25.4h7.5l-9,39.8h-7.3l-7.3-25.7-7.2,25.7h-7.2l-9-39.8Z"/>
            <path d="M283.2,26.1h7.3v14.3c1.4-1.2,2.9-2.2,4.4-2.8,1.5-.6,2.9-.9,4.4-.9,2.9,0,5.4,1,7.4,3,1.7,1.8,2.6,4.3,2.6,7.7v19.4h-7.3v-12.9c0-3.4-.2-5.7-.5-6.9s-.9-2.1-1.7-2.7c-.8-.6-1.8-.9-2.9-.9s-2.8.5-3.9,1.5c-1.1,1-1.8,2.3-2.2,4.1-.2.9-.3,2.9-.3,6.1v11.8h-7.3V26.1Z"/>
            <path d="M313.2,37.5h7.5l7.6,18.5,8.4-18.5h7.6l-18.4,40.2h-7.6l6.1-13-11.2-27.2Z"/>
          </g>
        </g>
        <g class="st2">
          <g class="st2">
            <path d="M6.8,87.4h7.5l5.7,25.4,7.1-25.4h6.3l7.2,25.4,5.7-25.4h7.5l-9,39.8h-7.3l-7.3-25.7-7.2,25.7h-7.2l-9-39.8Z"/>
            <path d="M88.4,114.6h-23.7c.3,2.1,1.3,3.8,2.7,5,1.5,1.2,3.4,1.9,5.7,1.9s5.1-1,7.1-2.9l6.2,2.9c-1.6,2.2-3.4,3.8-5.6,4.9s-4.7,1.6-7.7,1.6c-4.6,0-8.4-1.5-11.3-4.4-2.9-2.9-4.4-6.6-4.4-10.9s1.4-8.2,4.3-11.2c2.9-3,6.5-4.4,10.9-4.4s8.4,1.5,11.3,4.4c2.9,3,4.4,6.9,4.4,11.8v1.4ZM81,108.8c-.5-1.6-1.4-3-2.9-4-1.4-1-3.1-1.5-5-1.5s-3.9.6-5.4,1.7c-1,.7-1.9,2-2.7,3.8h16Z"/>
            <path d="M131.6,97.8h7.4v29.4h-7.4v-3.1c-1.4,1.4-2.9,2.4-4.3,3-1.5.6-3,.9-4.7.9-3.8,0-7.1-1.5-9.9-4.4-2.8-2.9-4.2-6.6-4.2-11s1.3-8.3,4-11.2c2.7-2.9,5.9-4.4,9.8-4.4s3.4.3,5,1c1.5.7,3,1.7,4.3,3v-3.2ZM123.8,103.8c-2.3,0-4.2.8-5.7,2.4-1.5,1.6-2.3,3.7-2.3,6.2s.8,4.6,2.3,6.3c1.5,1.6,3.4,2.5,5.7,2.5s4.2-.8,5.8-2.4c1.5-1.6,2.3-3.7,2.3-6.3s-.8-4.6-2.3-6.2c-1.5-1.6-3.5-2.4-5.8-2.4Z"/>
            <path d="M144.7,97.8h6.3v3.7c.7-1.5,1.6-2.6,2.7-3.3,1.1-.8,2.4-1.1,3.7-1.1s2,.3,3,.8l-2.3,6.4c-.9-.4-1.6-.6-2.1-.6-1.1,0-2.1.7-2.9,2.1-.8,1.4-1.2,4.2-1.2,8.3v1.4s0,11.9,0,11.9h-7.3v-29.4Z"/>
            <path d="M193.6,114.6h-23.7c.3,2.1,1.3,3.8,2.7,5,1.5,1.2,3.4,1.9,5.7,1.9s5.1-1,7.1-2.9l6.2,2.9c-1.6,2.2-3.4,3.8-5.6,4.9s-4.7,1.6-7.7,1.6c-4.6,0-8.4-1.5-11.3-4.4-2.9-2.9-4.4-6.6-4.4-10.9s1.4-8.2,4.3-11.2c2.9-3,6.5-4.4,10.9-4.4s8.4,1.5,11.3,4.4c2.9,3,4.4,6.9,4.4,11.8v1.4ZM186.2,108.8c-.5-1.6-1.4-3-2.9-4-1.4-1-3.1-1.5-5-1.5s-3.9.6-5.4,1.7c-1,.7-1.9,2-2.7,3.8h16Z"/>
            <path d="M236.8,97.8h7.4v29.4h-7.4v-3.1c-1.4,1.4-2.9,2.4-4.3,3-1.5.6-3,.9-4.7.9-3.8,0-7.1-1.5-9.9-4.4-2.8-2.9-4.2-6.6-4.2-11s1.3-8.3,4-11.2c2.7-2.9,5.9-4.4,9.8-4.4s3.4.3,5,1,3,1.7,4.3,3v-3.2ZM229.1,103.8c-2.3,0-4.2.8-5.7,2.4-1.5,1.6-2.3,3.7-2.3,6.2s.8,4.6,2.3,6.3c1.5,1.6,3.4,2.5,5.7,2.5s4.2-.8,5.8-2.4c1.5-1.6,2.3-3.7,2.3-6.3s-.8-4.6-2.3-6.2-3.5-2.4-5.8-2.4Z"/>
            <path d="M265,87.4h7.8l10,28.3,10.2-28.3h7.8l-14.3,39.8h-7.3l-14.1-39.8Z"/>
            <path d="M308.9,85.7c1.3,0,2.4.5,3.3,1.4.9.9,1.4,2.1,1.4,3.4s-.5,2.4-1.4,3.4-2,1.4-3.3,1.4-2.4-.5-3.4-1.4c-.9-.9-1.4-2.1-1.4-3.4s.5-2.4,1.4-3.3c.9-.9,2-1.4,3.3-1.4ZM305.2,97.8h7.4v29.4h-7.4v-29.4Z"/>
            <path d="M326.6,86.4v14.6c1.3-1.3,2.8-2.3,4.3-3s3.2-1,5-1c3.8,0,7.1,1.5,9.8,4.4,2.7,2.9,4,6.6,4,11.2s-1.4,8-4.2,11c-2.8,2.9-6.1,4.4-9.9,4.4s-3.3-.3-4.7-.9c-1.5-.6-2.9-1.6-4.4-3v3.1h-7.3v-40.8h7.3ZM334.3,103.8c-2.3,0-4.3.8-5.8,2.4s-2.3,3.7-2.3,6.2.8,4.7,2.3,6.3c1.5,1.6,3.5,2.4,5.8,2.4s4.2-.8,5.7-2.5c1.5-1.6,2.3-3.7,2.3-6.3s-.8-4.6-2.3-6.2c-1.5-1.6-3.4-2.4-5.7-2.4Z"/>
            <path d="M385.3,114.6h-23.7c.3,2.1,1.3,3.8,2.7,5,1.5,1.2,3.4,1.9,5.7,1.9s5.1-1,7.1-2.9l6.2,2.9c-1.6,2.2-3.4,3.8-5.6,4.9s-4.7,1.6-7.7,1.6c-4.6,0-8.4-1.5-11.3-4.4-2.9-2.9-4.4-6.6-4.4-10.9s1.4-8.2,4.3-11.2c2.9-3,6.5-4.4,10.9-4.4s8.4,1.5,11.3,4.4c2.9,3,4.4,6.9,4.4,11.8v1.4ZM377.9,108.8c-.5-1.6-1.5-3-2.9-4-1.4-1-3.1-1.5-5-1.5s-3.9.6-5.4,1.7c-1,.7-1.9,2-2.7,3.8h16Z"/>
          </g>
        </g>
      </g>
      <g class="st2">
        <g class="st2">
          <g class="st2">
            <path d="M114.7,181.3c0-.4-.3-.4-.7-.4h-.3v-1.7h1.1c1,0,1.5.2,1.7,1.1l2.1,8.9c.2.7.3,1.5.3,1.5h0s.1-.7.3-1.5l2.8-9.9h1.8l2.6,9.9c.2.8.3,1.5.3,1.5h0s0-.7.3-1.5l2.2-8.9c.2-.9.7-1.1,1.7-1.1h1.1v1.7h-.3c-.4,0-.6,0-.7.4l-3,11.7h-2.3l-2.3-8.7c-.2-.9-.4-1.9-.4-1.9h0s-.2,1-.4,1.9l-2.5,8.7h-2.3l-3-11.7Z"/>
            <path d="M134.3,181.3c0-.3-.2-.4-.4-.4h-.8v-1.7h2c.9,0,1.2.4,1.2,1.2v4.8h7v-4.8c0-.9.4-1.2,1.2-1.2h2v1.7h-.8c-.3,0-.4.1-.4.4v11.7h-2v-6h-7v6h-1.9v-11.7Z"/>
          </g>
        </g>
        <g class="st2">
          <g class="st2">
            <path d="M153.5,187.3l-3.5-5.6c-.3-.4-.4-.5-.8-.5h-.4v-1.7h.9c.9,0,1.3.1,1.9,1.1l2.1,3.5c.4.8.8,1.5.8,1.5h0s.4-.8.8-1.5l2.1-3.5c.5-.9.9-1.1,1.9-1.1h.9v1.7h-.4c-.4,0-.6,0-.9.5l-3.5,5.6v6h-2v-6Z"/>
          </g>
        </g>
        <g class="st2">
          <g class="st2">
            <path d="M169.7,191.7l6.8-9.6c.5-.8,1-1.3,1-1.3h0s-.4,0-1,0h-4.4c-.3,0-.4.1-.4.4v.9h-1.8v-1.7c0-.9.4-1.2,1.2-1.2h8.8v1.3l-6.8,9.6c-.5.8-1,1.2-1,1.2h0s.4,0,1,0h4.9c.3,0,.4-.2.4-.4v-.9h1.8v1.7c0,.9-.4,1.2-1.2,1.2h-9.3v-1.3Z"/>
            <path d="M182.7,180.9h-1.3v-1.7h8.1c.9,0,1.2.4,1.2,1.2v1.7h-1.8v-.9c0-.3-.2-.4-.4-.4h-3.9v4.3h4.8v1.7h-4.8v4c0,.3.2.4.4.4h4c.3,0,.4-.2.4-.4v-.9h1.8v1.7c0,.9-.4,1.2-1.2,1.2h-6.1c-.9,0-1.2-.4-1.2-1.2v-10.8Z"/>
            <path d="M192.5,191.3h.8c.3,0,.4-.2.4-.4v-11.7h1.8l6.1,8.7c.5.7,1.2,1.9,1.2,1.9h0s-.1-1.1-.1-1.9v-7.5c0-.9.4-1.2,1.3-1.2h2v1.7h-.8c-.3,0-.4.1-.4.4v11.7h-1.8l-6.1-8.7c-.5-.7-1.1-1.9-1.1-1.9h0s.1,1.1.1,1.9v7.5c0,.9-.4,1.2-1.2,1.2h-2v-1.7Z"/>
          </g>
        </g>
        <g class="st2">
          <g class="st2">
            <path d="M213.5,179.2c1.9,0,5.2.8,5.2,3v1.3h-1.8v-.8c0-1.2-2-1.7-3.3-1.7-2.8,0-4.9,2.1-4.9,5.2s2.2,5.4,5,5.4,4.3-1.9,4.3-1.9l1.1,1.4s-2,2.3-5.4,2.3-7-3.2-7-7.2,3-7,6.9-7Z"/>
          </g>
        </g>
        <g class="st2">
          <g class="st2">
            <path d="M226.3,187.2l-3.5-5.6c-.3-.4-.4-.5-.8-.5h-.4v-1.7h.9c.9,0,1.3.1,1.9,1.1l2.1,3.5c.4.8.8,1.5.8,1.5h0s.4-.8.8-1.5l2.1-3.5c.5-.9.9-1.1,1.9-1.1h.9v1.7h-.4c-.4,0-.6,0-.9.5l-3.5,5.6v6h-2v-6Z"/>
          </g>
        </g>
      </g>
      <path class="st0" d="M175.5,156.4c55.2-4.4,110.6-8.7,165.9-5.3,6.8.4,6.7-10.1,0-10.5-55.3-3.4-110.7,1-165.9,5.3-6.7.5-6.8,11,0,10.5h0Z"/>
    </g>
  </g>
</svg>